#N canvas 286 184 746 316 10;
#X obj 443 248 pp.out~;
#A saved;
#X obj 1 2 cnv 15 420 300 empty empty empty 20 12 0 14 #e0e0e0 #404040 0;
#X text 46 126 Inlets:;
#X text 45 201 Outlets:;
#X obj 12 21 cnv 15 10 10 empty empty pp.amp~ 0 0 2 16 #e0e0e0 #fcfcfc 0;
#N canvas 997 287 503 292 message-out 0;
#X obj 30 33 inlet;
#X msg 30 60 amp 0 \,;
#X connect 0 0 1 0;
#X restore 592 196 pd message-out;
#X obj 592 126 cnv 15 118 17 empty empty empty 20 12 0 14 #fc8000 #404040 0;
#N canvas 1023 138 330 209 control-messages 0;
#X obj 54 180 outlet;
#X obj 101 147 cnv 16 87 16 empty empty empty 20 12 0 14 #fc8000 #404040 0;
#N canvas 864 246 634 307 save&recall 0;
#X obj 93 233 outlet;
#X msg 93 60 0;
#X msg 125 60 1;
#X msg 158 60 2;
#X msg 93 99 save \$1;
#X text 185 63 ...;
#X msg 207 60 20;
#X msg 149 154 0;
#X msg 181 154 1;
#X msg 214 154 2;
#X text 241 157 ...;
#X msg 263 154 20;
#X msg 149 193 recall \$1;
#X text 249 93 save & recall up to 20 presets \, presets will be saved with the parrent patch;
#X connect 1 0 4 0;
#X connect 2 0 4 0;
#X connect 3 0 4 0;
#X connect 4 0 0 0;
#X connect 6 0 4 0;
#X connect 7 0 12 0;
#X connect 8 0 12 0;
#X connect 9 0 12 0;
#X connect 11 0 12 0;
#X connect 12 0 0 0;
#X restore 101 146 pd save&recall;
#X floatatom 54 25 5 0 0 0 - - - 0;
#X msg 54 47 amp \$1;
#X connect 2 0 0 0;
#X connect 3 0 4 0;
#X connect 4 0 0 0;
#X restore 592 126 pd control-messages;
#X text 104 125 1:(~)signal 1;
#X text 103 217 2:message;
#X obj 444 150 pp.amp~;
#A saved empty_slot \; empty_slot \; empty_slot \; empty_slot \; empty_slot \; empty_slot \; empty_slot \; empty_slot \; empty_slot \; empty_slot \; empty_slot \; empty_slot \; empty_slot \; empty_slot \; empty_slot \; empty_slot \; empty_slot \; empty_slot \; empty_slot \; empty_slot \; empty_slot \;;
#X obj 444 13 noise~;
#X text 104 142 2:(~)amplitude;
#X text 104 159 3:control-message;
#X text 103 201 1:(~)amplified signal;
#X text 31 40 amplify a signal (signal multiplier for the lazy);
#X text 30 70 Creation arguments: \$1: amplitude (rms) \, default 0;
#X connect 7 0 10 2;
#X connect 10 0 0 0;
#X connect 10 0 0 1;
#X connect 10 1 5 0;
#X connect 11 0 10 0;
