#N canvas 169 136 949 358 10;
#N canvas 0 0 450 250 (subpatch) 0;
#X array \$0-env 48000 float 2;
#A color 0;
#A width 2;
#X coords 0 1 48000 0 300 140 1 0 0;
#X restore 627 207 graph;
#X obj 465 238 tabwrite~ \$0-env;
#X obj 474 193 loadbang;
#X obj 465 14 tgl 18 0 empty empty empty 0 -9 0 10 #fcfcfc #000000 #000000 0 1;
#X obj 395 132 noise~;
#X obj 395 192 *~;
#X obj 396 297 pp.out~;
#A saved empty_slot \; empty_slot \; empty_slot \; empty_slot \; empty_slot \; empty_slot \; empty_slot \; empty_slot \; empty_slot \; empty_slot \; empty_slot \; empty_slot \; empty_slot \; empty_slot \; empty_slot \; empty_slot \; empty_slot \; empty_slot \; empty_slot \; empty_slot \; empty_slot \;;
#X obj 484 67 bng 18 250 50 0 empty empty empty 0 -9 0 10 #fcfcfc #000000 #000000;
#X obj 474 216 metro 1000;
#X obj 613 98 cnv 15 118 17 empty empty empty 20 12 0 14 #fc8000 #404040 0;
#N canvas 957 21 442 505 control-messages 0;
#X obj 80 461 outlet;
#X floatatom 80 102 5 0 1e+16 0 - - - 0;
#X floatatom 120 197 5 0 1 0 - - - 0;
#X obj 133 432 cnv 16 87 16 empty empty empty 20 12 0 14 #fc8000 #404040 0;
#N canvas 864 246 634 307 save&recall 0;
#X obj 93 233 outlet;
#X msg 93 60 0;
#X msg 125 60 1;
#X msg 158 60 2;
#X msg 93 99 save \$1;
#X text 185 63 ...;
#X msg 207 60 20;
#X msg 149 154 0;
#X msg 181 154 1;
#X msg 214 154 2;
#X text 241 157 ...;
#X msg 263 154 20;
#X msg 149 193 recall \$1;
#X text 249 93 save & recall up to 20 presets \, presets will be saved with the parrent patch;
#X connect 1 0 4 0;
#X connect 2 0 4 0;
#X connect 3 0 4 0;
#X connect 4 0 0 0;
#X connect 6 0 4 0;
#X connect 7 0 12 0;
#X connect 8 0 12 0;
#X connect 9 0 12 0;
#X connect 11 0 12 0;
#X connect 12 0 0 0;
#X restore 133 431 pd save&recall;
#X msg 80 122 attack \$1;
#X msg 109 168 decay \$1;
#X msg 120 217 sustain \$1;
#X msg 139 268 release \$1;
#X text 192 216 (0-1 ratio of the gate value);
#X text 143 123 ms;
#X text 169 167 ms;
#X text 211 266 ms;
#X floatatom 109 146 5 0 1e+16 0 - - - 0;
#X floatatom 139 246 5 0 1e+16 0 - - - 0;
#X text 144 341 alternatively \, you can use the short form:;
#X msg 144 365 a 50 \, d 500 \, s 0.3 \, r 200;
#X connect 1 0 5 0;
#X connect 2 0 7 0;
#X connect 4 0 0 0;
#X connect 5 0 0 0;
#X connect 6 0 0 0;
#X connect 7 0 0 0;
#X connect 8 0 0 0;
#X connect 13 0 6 0;
#X connect 14 0 8 0;
#X connect 16 0 0 0;
#X restore 613 98 pd control-messages;
#X obj 1 2 cnv 15 380 350 empty empty empty 20 12 0 14 #e0e0e0 #404040 0;
#X text 10 176 Inlets:;
#X text 10 260 Outlets:;
#X obj 12 20 cnv 15 10 10 empty empty pp.adsr~ 0 0 2 16 #e0e0e0 #fcfcfc 0;
#X text 16 87 Creation arguments:;
#X text 138 87 \$1: attack(ms);
#X text 138 102 \$2: decay(ms);
#X text 38 44 non-linear adsr/adr envelope generator;
#X floatatom 465 37 5 0 0 0 - - - 0;
#X text 490 13 gate on/off;
#X text 508 66 bang to trigger oneshot adr envelope;
#X obj 465 125 pp.adsr~ 200 300 0.4 1000;
#A saved empty_slot \; empty_slot \; empty_slot \; empty_slot \; empty_slot \; empty_slot \; empty_slot \; empty_slot \; empty_slot \; empty_slot \; empty_slot \; empty_slot \; empty_slot \; empty_slot \; empty_slot \; empty_slot \; empty_slot \; empty_slot \; empty_slot \; empty_slot \; empty_slot \;;
#N canvas 0 0 450 300 resize 0;
#X obj 117 35 r pd-dsp-started;
#X obj 117 58 samplerate~;
#X msg 117 85 resize \$1;
#X obj 117 108 s \$0-env;
#X connect 0 0 1 0;
#X connect 1 0 2 0;
#X connect 2 0 3 0;
#X restore 294 329 pd resize env;
#X text 138 117 \$3: sustain (0-1);
#X text 138 132 \$4: release(ms);
#N canvas 858 426 409 150 message-out 0;
#X obj 20 20 inlet;
#X msg 20 46 attack 200 \, decay 300 \, sustain 0.4 \, release 995 \,;
#X connect 0 0 1 0;
#X restore 613 165 pd message-out;
#X floatatom 539 163 10 0 0 0 - - - 0;
#X text 68 260 1:(~) adsr envelope;
#X text 68 290 3: message;
#X text 68 177 1: gate \, bang;
#X text 68 193 2: control-message;
#X text 68 275 2: float adsr envelope \, rate 64 samp.;
#X connect 2 0 8 0;
#X connect 3 0 19 0;
#X connect 4 0 5 0;
#X connect 5 0 6 0;
#X connect 5 0 6 1;
#X connect 7 0 22 0;
#X connect 8 0 1 0;
#X connect 10 0 22 1;
#X connect 19 0 22 0;
#X connect 22 0 1 0;
#X connect 22 0 5 1;
#X connect 22 1 27 0;
#X connect 22 2 26 0;
