#N canvas 750 55 1091 954 10;
#X obj 827 115 inlet;
#X obj 821 845 outlet;
#N canvas 186 269 494 300 in 0;
#X obj 31 56 inlet;
#N canvas 698 546 200 251 route 0;
#X obj 20 20 inlet;
#X obj 30 60 route save recall;
#X obj 30 85 route float;
#X obj 97 111 route float;
#X obj 30 136 s \$0-save;
#X obj 30 108 i;
#X obj 98 133 i;
#X obj 98 161 s \$0-recall;
#X connect 0 0 1 0;
#X connect 1 0 2 0;
#X connect 1 1 3 0;
#X connect 2 0 5 0;
#X connect 3 0 6 0;
#X connect 5 0 4 0;
#X connect 6 0 7 0;
#X restore 43 82 pd route save-recall;
#N canvas 362 125 450 479 recall 0;
#X obj 49 145 outlet;
#N canvas 3 54 450 600 listsplit 0;
#X obj 158 23 inlet;
#X obj 220 87 list length;
#X obj 220 113 until;
#X obj 182 150 f;
#X obj 278 150 + 1;
#X msg 265 111 0;
#X obj 182 226 list store;
#X msg 182 202 get \$1 1;
#X obj 154 367 list split;
#X obj 222 342 f;
#X obj 154 334 list;
#X obj 98 124 list;
#X obj 182 389 list split 1;
#X obj 154 274 t bang bang bang;
#X obj 182 179 t f f;
#X obj 158 48 t l l l b;
#X obj 154 473 outlet;
#X obj 154 440 list trim;
#X obj 163 248 sel |;
#X text 275 197 hacky split list at "|";
#X connect 0 0 15 0;
#X connect 1 0 2 0;
#X connect 2 0 3 0;
#X connect 3 0 4 0;
#X connect 3 0 14 0;
#X connect 4 0 3 1;
#X connect 5 0 3 1;
#X connect 6 0 18 0;
#X connect 7 0 6 0;
#X connect 8 0 17 0;
#X connect 8 1 12 0;
#X connect 9 0 8 1;
#X connect 10 0 8 0;
#X connect 11 0 15 0;
#X connect 12 1 11 0;
#X connect 13 0 10 0;
#X connect 13 1 9 0;
#X connect 13 2 2 1;
#X connect 14 0 7 0;
#X connect 14 1 9 1;
#X connect 15 0 1 0;
#X connect 15 1 10 1;
#X connect 15 2 6 1;
#X connect 15 3 5 0;
#X connect 17 0 16 0;
#X connect 18 0 13 0;
#X restore 49 117 pd listsplit;
#X obj 49 24 r \$0-recall;
#X obj 49 54 pipe 1;
#X obj 221 409 text fromlist \$0-savestates;
#X obj 49 77 text get \$0-savestates;
#X msg 253 246 21;
#X obj 253 269 until;
#X obj 253 292 f;
#X obj 300 295 + 1;
#X obj 253 315 t b f;
#X obj 253 367 text set \$0-savestates;
#X obj 221 114 text tolist \$0-savestates;
#X msg 253 342 list empty_slot;
#X obj 221 160 t a b;
#X obj 151 166 loadbang;
#X obj 221 137 savestate;
#X obj 221 33 text define \$0-savestates;
#X obj 151 189 del 0;
#X msg 298 199 0;
#X obj 253 220 spigot 1;
#X connect 1 0 0 0;
#X connect 2 0 3 0;
#X connect 3 0 5 0;
#X connect 5 0 1 0;
#X connect 6 0 7 0;
#X connect 7 0 8 0;
#X connect 8 0 9 0;
#X connect 8 0 10 0;
#X connect 9 0 8 1;
#X connect 10 0 13 0;
#X connect 10 1 11 1;
#X connect 12 0 16 0;
#X connect 13 0 11 0;
#X connect 14 0 4 0;
#X connect 14 1 19 0;
#X connect 15 0 18 0;
#X connect 16 0 14 0;
#X connect 16 1 12 0;
#X connect 18 0 20 0;
#X connect 19 0 20 1;
#X connect 20 0 6 0;
#X restore 109 104 pd recall;
#X obj 31 127 route attack a decay d sustain s release r;
#X obj 31 210 s \$0-ar;
#X obj 93 214 s \$0-dr;
#X obj 155 213 s \$0-sr;
#X obj 217 216 s \$0-rr;
#X obj 31 180 max 2;
#X obj 155 185 clip 0 1;
#X obj 93 182 max 0;
#X obj 217 186 max 0;
#X connect 0 0 1 0;
#X connect 0 0 3 0;
#X connect 2 0 3 0;
#X connect 3 0 8 0;
#X connect 3 1 8 0;
#X connect 3 2 10 0;
#X connect 3 3 10 0;
#X connect 3 4 9 0;
#X connect 3 5 9 0;
#X connect 3 6 11 0;
#X connect 3 7 11 0;
#X connect 8 0 4 0;
#X connect 9 0 6 0;
#X connect 10 0 5 0;
#X connect 11 0 7 0;
#X restore 827 140 pd in;
#N canvas 673 185 696 368 stuff 0;
#X obj 146 184 s \$0-visbngr;
#X obj 128 79 r \$0-visbng;
#X msg 126 156 color 0 0;
#X msg 210 156 color 10 10;
#X obj 128 101 t b;
#X obj 208 131 del 250;
#X obj 92 233 s pd-\$0-adsr;
#X msg 92 211 relocate 230x149+1+1 1x1+50+60 \, vis 1 \, editmode 0;
#X connect 1 0 4 0;
#X connect 2 0 0 0;
#X connect 3 0 0 0;
#X connect 4 0 2 0;
#X connect 4 0 5 0;
#X connect 4 0 7 0;
#X connect 5 0 3 0;
#X connect 7 0 6 0;
#X restore 826 222 pd stuff;
#X obj 103 115 hsl 150 15 0 127 0 0 \$0-visbng \$0-visbngr empty 50 8 2 10 #e0e0e0 #e0e0e0 #000000 0 1;
#N canvas 118 64 893 431 outlet-message 0;
#X obj 100 145 del 0;
#X obj 150 374 list trim;
#X msg 61 370 addcomma;
#X msg 21 368 set;
#X obj 150 351 list prepend add2;
#X obj 150 442 outlet;
#X obj 100 172 f;
#X obj 101 218 t b a b;
#X obj 131 298 t b a a;
#N canvas 497 319 297 264 save 0;
#X obj 48 16 inlet;
#N canvas 690 259 481 384 collect 0;
#X obj 47 60 inlet;
#X obj 47 274 outlet;
#X obj 98 180 list;
#X obj 166 181 t l;
#X obj 47 225 list;
#X obj 98 139 list append |;
#X obj 47 126 del 0;
#X obj 47 82 t b a;
#X text 119 75 hacky thing... replaycing " \, " with "|";
#X connect 0 0 7 0;
#X connect 2 0 3 0;
#X connect 2 0 4 1;
#X connect 3 0 2 1;
#X connect 4 0 1 0;
#X connect 5 0 2 0;
#X connect 6 0 2 1;
#X connect 6 0 4 0;
#X connect 7 0 6 0;
#X connect 7 1 5 0;
#X restore 48 38 pd collect;
#X obj 117 16 r \$0-save;
#X obj 27 130 text set \$0-savestates;
#X obj 27 104 list;
#X obj 117 62 t b f;
#X obj 117 39 clip 0 20;
#X connect 0 0 1 0;
#X connect 1 0 4 1;
#X connect 2 0 6 0;
#X connect 4 0 3 0;
#X connect 5 0 4 0;
#X connect 5 1 3 1;
#X connect 6 0 5 0;
#X restore 171 324 pd save;
#X obj 100 39 r \$0-a;
#X obj 166 38 r \$0-d;
#X obj 228 39 r \$0-s;
#X obj 290 40 r \$0-r;
#X obj 166 61 t b f;
#X obj 101 192 pack 0 0 0 0;
#X obj 228 62 t b f;
#X obj 290 63 t b f;
#X msg 130 276 attack \$1 \, decay \$2 \, sustain \$3 \, release \$4;
#X obj 100 65 t b f;
#X connect 0 0 6 0;
#X connect 1 0 5 0;
#X connect 2 0 5 0;
#X connect 3 0 5 0;
#X connect 4 0 1 0;
#X connect 6 0 15 0;
#X connect 7 0 5 0;
#X connect 7 1 18 0;
#X connect 7 2 3 0;
#X connect 8 0 2 0;
#X connect 8 1 4 0;
#X connect 8 2 9 0;
#X connect 10 0 19 0;
#X connect 11 0 14 0;
#X connect 12 0 16 0;
#X connect 13 0 17 0;
#X connect 14 0 0 0;
#X connect 14 1 15 1;
#X connect 15 0 7 0;
#X connect 16 0 0 0;
#X connect 16 1 15 2;
#X connect 17 0 0 0;
#X connect 17 1 15 3;
#X connect 18 0 8 0;
#X connect 19 0 0 0;
#X connect 19 1 6 1;
#X restore 821 816 pd outlet-message;
#N canvas 688 284 416 313 init 0;
#X obj 113 65 loadbang;
#X obj 113 111 unpack f f f f;
#X obj 113 88 pack \$1 \$2 \$3 \$4;
#X obj 113 133 s \$0-ar;
#X obj 140 153 s \$0-dr;
#X obj 167 174 s \$0-sr;
#X obj 194 198 s \$0-rr;
#X connect 0 0 2 0;
#X connect 1 0 3 0;
#X connect 1 1 4 0;
#X connect 1 2 5 0;
#X connect 1 3 6 0;
#X connect 2 0 1 0;
#X restore 826 195 pd init;
#X obj 406 855 outlet~;
#X obj 407 631 lop~ 1;
#X obj 407 498 unpack;
#X obj 407 284 sel 1 0;
#X msg 407 325 stop \, bang;
#X msg 479 324 stop;
#X obj 407 356 del 500;
#X obj 440 580 /;
#X obj 440 555 swap 1000;
#X obj 539 327 pack 1 0;
#X obj 407 457 pack;
#X obj 540 446 pack 0 0;
#X obj 458 356 r \$0-a;
#X obj 595 328 r \$0-a;
#X obj 440 456 r \$0-d;
#X obj 407 423 f;
#X obj 435 423 r \$0-s;
#X obj 595 447 r \$0-r;
#X obj 407 257 > 0;
#X obj 407 676 *~;
#X obj 407 114 inlet;
#N canvas 50 60 230 149 \$0-adsr 0;
#N canvas 77 173 714 345 mask 0;
#X obj 100 100 cnv 15 219 143 empty empty empty 20 12 0 14 #fcfcfc #404040 0;
#X obj 114 131 hsl 128 12 2 500 0 0 \$0-agui \$0-aguir Attack -2 -6 2 10 #ffe3c6 #000000 #000000 0 1;
#X obj 248 131 nbx 5 12 2 1e+17 0 0 \$0-a \$0-ar ms 47 7 2 10 #ffe3c6 #000000 #000000 0 256;
#X obj 114 188 hsl 128 12 0 1 0 0 \$0-sgui \$0-sguir Sustain -2 -6 2 10 #fcfcfc #000000 #000000 0 1;
#X obj 248 188 nbx 5 12 0 1 0 0 \$0-s \$0-sr empty 47 7 2 10 #fcfcfc #000000 #000000 0 256;
#X obj 114 160 hsl 128 12 0 500 0 0 \$0-dgui \$0-dguir Decay -2 -6 2 10 #ffe3c6 #000000 #000000 0 1;
#X obj 248 160 nbx 5 12 0 1e+13 0 0 \$0-d \$0-dr ms 47 7 2 10 #ffe3c6 #000000 #000000 0 256;
#X msg 35 121 set \$1;
#X msg 35 182 set \$1;
#X msg 37 153 set \$1;
#X obj 262 111 cnv 10 10 10 empty \$0-name adsr~ 0 5 2 16 #fcfcfc #9c9c9c 0;
#X obj 114 218 hsl 128 12 0 500 0 0 \$0-rgui \$0-rguir Release -2 -6 2 10 #ffe3c6 #000000 #000000 0 1;
#X obj 248 218 nbx 5 12 0 1e+13 0 0 \$0-r \$0-rr ms 47 7 2 10 #ffe3c6 #000000 #000000 0 256;
#X msg 35 211 set \$1;
#X connect 1 0 2 0;
#X connect 2 0 7 0;
#X connect 3 0 4 0;
#X connect 4 0 8 0;
#X connect 5 0 6 0;
#X connect 6 0 9 0;
#X connect 7 0 1 0;
#X connect 8 0 3 0;
#X connect 9 0 5 0;
#X connect 11 0 12 0;
#X connect 12 0 13 0;
#X connect 13 0 11 0;
#X coords 0 -1 1 1 220 144 2 100 100;
#X restore 5 2 pd mask;
#X restore 825 247 pd \$0-adsr;
#X obj 407 140 route float bang;
#X obj 308 592 sel 0;
#X msg 665 298 stop \, bang;
#X obj 665 322 del 500;
#X obj 716 322 r \$0-a;
#X msg 665 349 stop \, bang;
#X obj 665 373 del 500;
#X obj 717 374 r \$0-d;
#X text 911 851 ps 25;
#X obj 665 220 t b b;
#X obj 692 567 f 1;
#X obj 440 527 + 1e-09;
#X obj 407 214 t f b;
#X msg 623 282 stop;
#X obj 544 710 bang~;
#X obj 544 733 snapshot~;
#X obj 544 848 outlet;
#X obj 544 756 change;
#X obj 544 802 i;
#X obj 544 779 * 10000;
#X obj 544 825 / 10000;
#X connect 0 0 2 0;
#X connect 5 0 1 0;
#X connect 8 0 26 0;
#X connect 9 0 8 0;
#X connect 9 1 40 0;
#X connect 10 0 11 0;
#X connect 10 0 16 0;
#X connect 10 1 12 0;
#X connect 10 1 18 0;
#X connect 11 0 13 0;
#X connect 12 0 13 0;
#X connect 13 0 22 0;
#X connect 14 0 8 1;
#X connect 15 0 14 0;
#X connect 15 1 14 1;
#X connect 16 0 9 0;
#X connect 17 0 9 0;
#X connect 18 0 9 0;
#X connect 19 0 13 1;
#X connect 20 0 16 1;
#X connect 21 0 17 1;
#X connect 22 0 17 0;
#X connect 23 0 22 1;
#X connect 24 0 18 1;
#X connect 25 0 10 0;
#X connect 26 0 7 0;
#X connect 26 0 44 0;
#X connect 27 0 29 0;
#X connect 29 0 30 0;
#X connect 29 0 41 0;
#X connect 29 1 16 0;
#X connect 29 1 38 0;
#X connect 30 1 26 1;
#X connect 31 0 32 0;
#X connect 32 0 34 0;
#X connect 32 0 22 0;
#X connect 33 0 32 1;
#X connect 34 0 35 0;
#X connect 35 0 18 0;
#X connect 36 0 35 1;
#X connect 38 0 31 0;
#X connect 38 0 16 0;
#X connect 38 1 39 0;
#X connect 39 0 26 1;
#X connect 40 0 15 0;
#X connect 41 0 25 0;
#X connect 41 1 42 0;
#X connect 42 0 32 0;
#X connect 42 0 35 0;
#X connect 43 0 44 0;
#X connect 44 0 46 0;
#X connect 46 0 48 0;
#X connect 47 0 49 0;
#X connect 48 0 47 0;
#X connect 49 0 45 0;
#X coords 0 -1 1 1 155 33 1 100 100;
