#N canvas 240 176 993 538 10;
#X obj 103 115 hsl 105 15 0 1 0 0 \$0-gui \$0-guir Amp 3 8 2 10 #e0e0e0 #000000 #000000 0 1;
#X obj 251 115 hsl 2 8 0 1 0 0 \$0-gui \$0-guir empty 3 8 2 10 #e0e0e0 #dcdcdc #000000 0 1;
#X obj 210 115 nbx 5 15 -1e+13 1e+19 0 0 \$0-amp \$0-ampr empty 0 -8 2 10 #dcdcdc #000000 #000000 0 256;
#X msg 165 222 set \$1;
#X obj 673 417 outlet;
#X obj 668 94 inlet;
#N canvas 165 118 567 472 outlet-message 0;
#X obj 215 336 list trim;
#X msg 152 314 addcomma;
#X msg 83 290 set;
#X obj 215 313 list prepend add2;
#X obj 215 421 outlet;
#X obj 170 185 t b a b;
#X obj 196 255 t b a a;
#N canvas 497 319 297 264 save 0;
#X obj 48 16 inlet;
#N canvas 690 259 481 384 collect 0;
#X obj 47 60 inlet;
#X obj 47 274 outlet;
#X obj 98 180 list;
#X obj 166 181 t l;
#X obj 47 225 list;
#X obj 98 139 list append |;
#X obj 47 126 del 0;
#X obj 47 82 t b a;
#X text 119 75 hacky thing... replaycing " \, " with "|";
#X connect 0 0 7 0;
#X connect 2 0 3 0;
#X connect 2 0 4 1;
#X connect 3 0 2 1;
#X connect 4 0 1 0;
#X connect 5 0 2 0;
#X connect 6 0 2 1;
#X connect 6 0 4 0;
#X connect 7 0 6 0;
#X connect 7 1 5 0;
#X restore 48 38 pd collect;
#X obj 117 16 r \$0-save;
#X obj 27 130 text set \$0-savestates;
#X obj 27 104 list;
#X obj 117 62 t b f;
#X obj 117 39 clip 0 20;
#X connect 0 0 1 0;
#X connect 1 0 4 1;
#X connect 2 0 6 0;
#X connect 4 0 3 0;
#X connect 5 0 4 0;
#X connect 5 1 3 1;
#X connect 6 0 5 0;
#X restore 235 279 pd save;
#X obj 170 87 r \$0-amp;
#X msg 196 230 amp \$1;
#X connect 0 0 4 0;
#X connect 1 0 4 0;
#X connect 2 0 4 0;
#X connect 3 0 0 0;
#X connect 5 0 4 0;
#X connect 5 1 9 0;
#X connect 5 2 2 0;
#X connect 6 0 1 0;
#X connect 6 1 3 0;
#X connect 6 2 7 0;
#X connect 8 0 5 0;
#X connect 9 0 6 0;
#X restore 673 367 pd outlet-message;
#N canvas 852 271 335 417 in 0;
#X obj 30 14 inlet;
#N canvas 698 516 200 251 route 0;
#X obj 20 20 inlet;
#X obj 30 60 route save recall;
#X obj 30 85 route float;
#X obj 97 111 route float;
#X obj 30 136 s \$0-save;
#X obj 30 108 i;
#X obj 98 133 i;
#X obj 98 161 s \$0-recall;
#X connect 0 0 1 0;
#X connect 1 0 2 0;
#X connect 1 1 3 0;
#X connect 2 0 5 0;
#X connect 3 0 6 0;
#X connect 5 0 4 0;
#X connect 6 0 7 0;
#X restore 47 53 pd route save-recall;
#N canvas 362 125 450 479 recall 0;
#X obj 49 145 outlet;
#N canvas 3 54 450 600 listsplit 0;
#X obj 158 23 inlet;
#X obj 220 87 list length;
#X obj 220 113 until;
#X obj 182 150 f;
#X obj 278 150 + 1;
#X msg 265 111 0;
#X obj 182 226 list store;
#X msg 182 202 get \$1 1;
#X obj 154 367 list split;
#X obj 222 342 f;
#X obj 154 334 list;
#X obj 98 124 list;
#X obj 182 389 list split 1;
#X obj 154 274 t bang bang bang;
#X obj 182 179 t f f;
#X obj 158 48 t l l l b;
#X obj 154 473 outlet;
#X obj 154 440 list trim;
#X obj 163 248 sel |;
#X text 275 197 hacky split list at "|";
#X connect 0 0 15 0;
#X connect 1 0 2 0;
#X connect 2 0 3 0;
#X connect 3 0 4 0;
#X connect 3 0 14 0;
#X connect 4 0 3 1;
#X connect 5 0 3 1;
#X connect 6 0 18 0;
#X connect 7 0 6 0;
#X connect 8 0 17 0;
#X connect 8 1 12 0;
#X connect 9 0 8 1;
#X connect 10 0 8 0;
#X connect 11 0 15 0;
#X connect 12 1 11 0;
#X connect 13 0 10 0;
#X connect 13 1 9 0;
#X connect 13 2 2 1;
#X connect 14 0 7 0;
#X connect 14 1 9 1;
#X connect 15 0 1 0;
#X connect 15 1 10 1;
#X connect 15 2 6 1;
#X connect 15 3 5 0;
#X connect 17 0 16 0;
#X connect 18 0 13 0;
#X restore 49 117 pd listsplit;
#X obj 49 24 r \$0-recall;
#X obj 49 54 pipe 1;
#X obj 221 409 text fromlist \$0-savestates;
#X obj 49 77 text get \$0-savestates;
#X msg 253 246 21;
#X obj 253 269 until;
#X obj 253 292 f;
#X obj 300 295 + 1;
#X obj 253 315 t b f;
#X obj 253 367 text set \$0-savestates;
#X obj 221 114 text tolist \$0-savestates;
#X msg 253 342 list empty_slot;
#X obj 221 160 t a b;
#X obj 151 166 loadbang;
#X obj 221 137 savestate;
#X obj 221 33 text define \$0-savestates;
#X obj 151 189 del 0;
#X msg 298 199 0;
#X obj 253 220 spigot 1;
#X connect 1 0 0 0;
#X connect 2 0 3 0;
#X connect 3 0 5 0;
#X connect 5 0 1 0;
#X connect 6 0 7 0;
#X connect 7 0 8 0;
#X connect 8 0 9 0;
#X connect 8 0 10 0;
#X connect 9 0 8 1;
#X connect 10 0 13 0;
#X connect 10 1 11 1;
#X connect 12 0 16 0;
#X connect 13 0 11 0;
#X connect 14 0 4 0;
#X connect 14 1 19 0;
#X connect 15 0 18 0;
#X connect 16 0 14 0;
#X connect 16 1 12 0;
#X connect 18 0 20 0;
#X connect 19 0 20 1;
#X connect 20 0 6 0;
#X restore 48 79 pd recall;
#X obj 30 255 s \$0-ampr;
#X obj 30 204 route amp;
#X connect 0 0 1 0;
#X connect 0 0 4 0;
#X connect 2 0 4 0;
#X connect 4 0 3 0;
#X restore 668 119 pd in;
#X obj 443 224 line~;
#X obj 428 247 +~;
#X obj 341 108 inlet~;
#X obj 340 372 outlet~;
#X msg 443 197 \$1 20;
#X obj 340 266 *~;
#X obj 429 106 inlet~;
#X obj 443 150 r \$0-amp;
#N canvas 0 0 450 300 init 0;
#X obj 84 30 loadbang;
#X obj 84 57 f \$1;
#X obj 84 79 s \$0-ampr;
#X connect 0 0 1 0;
#X connect 1 0 2 0;
#X restore 669 226 pd init;
#X obj 164 150 pow 2;
#X obj 210 179 sqrt;
#X text 766 464 ps 25;
#X connect 0 0 17 0;
#X connect 2 0 18 0;
#X connect 3 0 0 0;
#X connect 5 0 7 0;
#X connect 6 0 4 0;
#X connect 8 0 9 1;
#X connect 9 0 13 1;
#X connect 10 0 13 0;
#X connect 12 0 8 0;
#X connect 13 0 11 0;
#X connect 14 0 9 0;
#X connect 15 0 12 0;
#X connect 17 0 2 0;
#X connect 18 0 3 0;
#X coords 0 -1 1 1 155 33 1 100 100;
