#N canvas 133 169 937 471 10;
#N canvas 2 54 928 583 smallblock 0;
#N canvas 612 488 279 278 lop 0;
#X obj 29 24 inlet~;
#X obj 212 20 inlet~;
#X obj 64 104 sig~ 1;
#X obj 64 127 -~;
#X obj 32 215 outlet~;
#X obj 30 152 rpole~;
#X obj 31 188 *~;
#X connect 0 0 5 0;
#X connect 1 0 3 1;
#X connect 1 0 6 1;
#X connect 2 0 3 0;
#X connect 3 0 5 1;
#X connect 5 0 6 0;
#X connect 6 0 4 0;
#X restore 258 232 pd lop;
#X obj 375 453 *~;
#X obj 281 196 expr~ tanh($v1);
#X obj 257 76 inlet~;
#X obj 258 515 outlet~;
#X obj 595 125 inlet~;
#X obj 498 122 inlet~;
#X obj 414 432 noise~;
#X obj 414 455 *~ 1e-12;
#X obj 709 90 block~ 1;
#X obj 553 65 inlet~;
#N canvas 612 488 279 278 lop 0;
#X obj 29 24 inlet~;
#X obj 212 20 inlet~;
#X obj 64 104 sig~ 1;
#X obj 64 127 -~;
#X obj 32 215 outlet~;
#X obj 30 152 rpole~;
#X obj 31 188 *~;
#X connect 0 0 5 0;
#X connect 1 0 3 1;
#X connect 1 0 6 1;
#X connect 2 0 3 0;
#X connect 3 0 5 1;
#X connect 5 0 6 0;
#X connect 6 0 4 0;
#X restore 258 257 pd lop;
#N canvas 612 488 279 278 lop 0;
#X obj 29 24 inlet~;
#X obj 212 20 inlet~;
#X obj 64 104 sig~ 1;
#X obj 64 127 -~;
#X obj 32 215 outlet~;
#X obj 30 152 rpole~;
#X obj 31 188 *~;
#X connect 0 0 5 0;
#X connect 1 0 3 1;
#X connect 1 0 6 1;
#X connect 2 0 3 0;
#X connect 3 0 5 1;
#X connect 5 0 6 0;
#X connect 6 0 4 0;
#X restore 258 284 pd lop;
#N canvas 612 488 279 278 lop 0;
#X obj 29 24 inlet~;
#X obj 212 20 inlet~;
#X obj 64 104 sig~ 1;
#X obj 64 127 -~;
#X obj 32 215 outlet~;
#X obj 30 152 rpole~;
#X obj 31 188 *~;
#X connect 0 0 5 0;
#X connect 1 0 3 1;
#X connect 1 0 6 1;
#X connect 2 0 3 0;
#X connect 3 0 5 1;
#X connect 5 0 6 0;
#X connect 6 0 4 0;
#X restore 258 308 pd lop;
#N canvas 612 488 279 278 lop 0;
#X obj 29 24 inlet~;
#X obj 212 20 inlet~;
#X obj 64 104 sig~ 1;
#X obj 64 127 -~;
#X obj 32 215 outlet~;
#X obj 30 152 rpole~;
#X obj 31 188 *~;
#X connect 0 0 5 0;
#X connect 1 0 3 1;
#X connect 1 0 6 1;
#X connect 2 0 3 0;
#X connect 3 0 5 1;
#X connect 5 0 6 0;
#X connect 6 0 4 0;
#X restore 258 330 pd lop;
#N canvas 612 488 279 278 lop 0;
#X obj 29 24 inlet~;
#X obj 212 20 inlet~;
#X obj 64 104 sig~ 1;
#X obj 64 127 -~;
#X obj 32 215 outlet~;
#X obj 30 152 rpole~;
#X obj 31 188 *~;
#X connect 0 0 5 0;
#X connect 1 0 3 1;
#X connect 1 0 6 1;
#X connect 2 0 3 0;
#X connect 3 0 5 1;
#X connect 5 0 6 0;
#X connect 6 0 4 0;
#X restore 258 355 pd lop;
#N canvas 612 488 279 278 lop 0;
#X obj 29 24 inlet~;
#X obj 212 20 inlet~;
#X obj 64 104 sig~ 1;
#X obj 64 127 -~;
#X obj 32 215 outlet~;
#X obj 30 152 rpole~;
#X obj 31 188 *~;
#X connect 0 0 5 0;
#X connect 1 0 3 1;
#X connect 1 0 6 1;
#X connect 2 0 3 0;
#X connect 3 0 5 1;
#X connect 5 0 6 0;
#X connect 6 0 4 0;
#X restore 258 382 pd lop;
#N canvas 612 488 279 278 lop 0;
#X obj 29 24 inlet~;
#X obj 212 20 inlet~;
#X obj 64 104 sig~ 1;
#X obj 64 127 -~;
#X obj 32 215 outlet~;
#X obj 30 152 rpole~;
#X obj 31 188 *~;
#X connect 0 0 5 0;
#X connect 1 0 3 1;
#X connect 1 0 6 1;
#X connect 2 0 3 0;
#X connect 3 0 5 1;
#X connect 5 0 6 0;
#X connect 6 0 4 0;
#X restore 258 406 pd lop;
#X text 541 122 freq;
#X text 639 125 q;
#X text 597 64 combfreq;
#X text 303 79 sig;
#X obj 413 483 delwrite~ \$0-comb 1000;
#X obj 280 169 delread4~ \$0-comb;
#X connect 0 0 11 0;
#X connect 1 0 22 0;
#X connect 2 0 0 0;
#X connect 3 0 0 0;
#X connect 5 0 1 1;
#X connect 6 0 0 1;
#X connect 6 0 17 1;
#X connect 6 0 16 1;
#X connect 6 0 15 1;
#X connect 6 0 14 1;
#X connect 6 0 13 1;
#X connect 6 0 12 1;
#X connect 6 0 11 1;
#X connect 7 0 8 0;
#X connect 8 0 22 0;
#X connect 10 0 23 0;
#X connect 11 0 12 0;
#X connect 12 0 13 0;
#X connect 13 0 14 0;
#X connect 14 0 15 0;
#X connect 15 0 16 0;
#X connect 16 0 17 0;
#X connect 17 0 1 0;
#X connect 17 0 4 0;
#X connect 23 0 2 0;
#X restore 322 373 pd smallblock;
#X f 28;
#X obj 322 440 outlet~;
#X obj 322 34 inlet~;
#X text 331 16 sig;
#X obj 377 32 inlet~;
#X obj 458 32 inlet~;
#X obj 515 32 inlet~;
#X text 375 14 lopfreq;
#X text 458 14 combfreq;
#X text 529 14 q;
#X obj 514 345 *~ -1.88;
#X obj 433 301 sig~ 1000;
#X obj 433 329 /~;
#X obj 458 329 +~ 1e-20;
#X text 441 347 hz to ms;
#X obj 378 273 clip~ 0 1;
#X obj 377 232 *~;
#N canvas 3 52 450 300 samplerate 0;
#X obj 230 123 outlet;
#X obj 230 26 r pd;
#X obj 230 46 route dsp audio-dialog;
#X obj 230 70 t b;
#X obj 268 72 loadbang;
#X obj 230 96 samplerate~;
#X connect 1 0 2 0;
#X connect 2 0 3 0;
#X connect 2 1 3 0;
#X connect 3 0 5 0;
#X connect 4 0 5 0;
#X connect 5 0 0 0;
#X restore 408 210 pd samplerate;
#X obj 408 231 expr 1/$f1;
#X obj 377 253 *~ 6.28319;
#X obj 707 438 outlet;
#N canvas 582 134 781 631 outlet-message 0;
#X obj 258 383 list trim;
#X msg 178 381 addcomma;
#X msg 114 366 set;
#X obj 258 360 list prepend add2;
#X obj 258 446 outlet;
#X obj 361 139 r \$0-gain;
#N canvas 153 379 986 300 bang_once................. 0;
#X obj 132 87 t b f;
#X obj 89 139 del 0;
#X obj 89 87 t b f;
#X obj 175 89 t b f;
#X obj 89 41 inlet;
#X obj 132 40 inlet;
#X obj 175 42 inlet;
#X obj 89 247 outlet;
#X obj 89 173 f;
#X obj 89 203 pack 0 0 0;
#X connect 0 0 1 0;
#X connect 0 1 9 1;
#X connect 1 0 8 0;
#X connect 2 0 1 0;
#X connect 2 1 8 1;
#X connect 3 0 1 0;
#X connect 3 1 9 2;
#X connect 4 0 2 0;
#X connect 5 0 0 0;
#X connect 6 0 3 0;
#X connect 8 0 9 0;
#X connect 9 0 7 0;
#X restore 190 203 pd bang_once.................;
#X obj 190 231 t b a b;
#X obj 255 298 t b a a;
#N canvas 497 319 297 264 save 0;
#X obj 48 16 inlet;
#N canvas 690 259 481 384 collect 0;
#X obj 47 60 inlet;
#X obj 47 274 outlet;
#X obj 98 180 list;
#X obj 166 181 t l;
#X obj 47 225 list;
#X obj 98 139 list append |;
#X obj 47 126 del 0;
#X obj 47 82 t b a;
#X text 119 75 hacky thing... replaycing " \, " with "|";
#X connect 0 0 7 0;
#X connect 2 0 3 0;
#X connect 2 0 4 1;
#X connect 3 0 2 1;
#X connect 4 0 1 0;
#X connect 5 0 2 0;
#X connect 6 0 2 1;
#X connect 6 0 4 0;
#X connect 7 0 6 0;
#X connect 7 1 5 0;
#X restore 48 38 pd collect;
#X obj 117 16 r \$0-save;
#X obj 27 130 text set \$0-savestates;
#X obj 27 104 list;
#X obj 117 62 t b f;
#X obj 117 39 clip 0 20;
#X connect 0 0 1 0;
#X connect 1 0 4 1;
#X connect 2 0 6 0;
#X connect 4 0 3 0;
#X connect 5 0 4 0;
#X connect 5 1 3 1;
#X connect 6 0 5 0;
#X restore 294 323 pd save;
#X obj 190 84 r \$0-lopfreq;
#X obj 275 109 r \$0-combfreq;
#X msg 255 261 lop-frequency \$1 \, comb-frequency \$2 \, resonance
\$3;
#X connect 0 0 4 0;
#X connect 1 0 4 0;
#X connect 2 0 4 0;
#X connect 3 0 0 0;
#X connect 5 0 6 2;
#X connect 6 0 7 0;
#X connect 7 0 4 0;
#X connect 7 1 12 0;
#X connect 7 2 2 0;
#X connect 8 0 1 0;
#X connect 8 1 3 0;
#X connect 8 2 9 0;
#X connect 10 0 6 0;
#X connect 11 0 6 1;
#X connect 12 0 8 0;
#X restore 707 410 pd outlet-message;
#X obj 717 36 inlet;
#N canvas 596 103 632 455 in 0;
#X obj 60 11 inlet;
#X obj 234 168 s \$0-qr;
#N canvas 698 515 200 251 route 0;
#X obj 20 20 inlet;
#X obj 30 60 route save recall;
#X obj 30 85 route float;
#X obj 97 111 route float;
#X obj 30 136 s \$0-save;
#X obj 30 108 i;
#X obj 98 133 i;
#X obj 98 161 s \$0-recall;
#X connect 0 0 1 0;
#X connect 1 0 2 0;
#X connect 1 1 3 0;
#X connect 2 0 5 0;
#X connect 3 0 6 0;
#X connect 5 0 4 0;
#X connect 6 0 7 0;
#X restore 92 43 pd route save-recall;
#N canvas 362 125 450 479 recall 0;
#X obj 49 145 outlet;
#N canvas 3 54 450 600 listsplit 0;
#X obj 158 23 inlet;
#X obj 220 87 list length;
#X obj 220 113 until;
#X obj 182 150 f;
#X obj 278 150 + 1;
#X msg 265 111 0;
#X obj 182 226 list store;
#X msg 182 202 get \$1 1;
#X obj 154 367 list split;
#X obj 222 342 f;
#X obj 154 334 list;
#X obj 98 124 list;
#X obj 182 389 list split 1;
#X obj 154 274 t bang bang bang;
#X obj 182 179 t f f;
#X obj 158 48 t l l l b;
#X obj 154 473 outlet;
#X obj 154 440 list trim;
#X obj 163 248 sel |;
#X text 275 197 hacky split list at "|";
#X connect 0 0 15 0;
#X connect 1 0 2 0;
#X connect 2 0 3 0;
#X connect 3 0 4 0;
#X connect 3 0 14 0;
#X connect 4 0 3 1;
#X connect 5 0 3 1;
#X connect 6 0 18 0;
#X connect 7 0 6 0;
#X connect 8 0 17 0;
#X connect 8 1 12 0;
#X connect 9 0 8 1;
#X connect 10 0 8 0;
#X connect 11 0 15 0;
#X connect 12 1 11 0;
#X connect 13 0 10 0;
#X connect 13 1 9 0;
#X connect 13 2 2 1;
#X connect 14 0 7 0;
#X connect 14 1 9 1;
#X connect 15 0 1 0;
#X connect 15 1 10 1;
#X connect 15 2 6 1;
#X connect 15 3 5 0;
#X connect 17 0 16 0;
#X connect 18 0 13 0;
#X restore 49 117 pd listsplit;
#X obj 49 24 r \$0-recall;
#X obj 49 54 pipe 1;
#X obj 221 409 text fromlist \$0-savestates;
#X obj 49 77 text get \$0-savestates;
#X msg 253 246 21;
#X obj 253 269 until;
#X obj 253 292 f;
#X obj 300 295 + 1;
#X obj 253 315 t b f;
#X obj 253 367 text set \$0-savestates;
#X obj 221 114 text tolist \$0-savestates;
#X msg 253 342 list empty_slot;
#X obj 221 160 t a b;
#X obj 151 166 loadbang;
#X obj 221 137 savestate;
#X obj 221 33 text define \$0-savestates;
#X obj 151 189 del 0;
#X msg 298 199 0;
#X obj 253 220 spigot 1;
#X connect 1 0 0 0;
#X connect 2 0 3 0;
#X connect 3 0 5 0;
#X connect 5 0 1 0;
#X connect 6 0 7 0;
#X connect 7 0 8 0;
#X connect 8 0 9 0;
#X connect 8 0 10 0;
#X connect 9 0 8 1;
#X connect 10 0 13 0;
#X connect 10 1 11 1;
#X connect 12 0 16 0;
#X connect 13 0 11 0;
#X connect 14 0 4 0;
#X connect 14 1 19 0;
#X connect 15 0 18 0;
#X connect 16 0 14 0;
#X connect 16 1 12 0;
#X connect 18 0 20 0;
#X connect 19 0 20 1;
#X connect 20 0 6 0;
#X restore 163 64 pd recall;
#X obj 60 172 s \$0-lopfreqr;
#X obj 147 199 s \$0-combfreq;
#X obj 60 144 route lop-frequency comb-frequency resonance;
#X connect 0 0 2 0;
#X connect 0 0 6 0;
#X connect 3 0 6 0;
#X connect 6 0 4 0;
#X connect 6 1 5 0;
#X connect 6 2 1 0;
#X restore 717 57 pd in;
#N canvas 128 167 1030 478 stuff 0;
#X obj 177 225 s \$0-visbngr;
#X obj 159 120 r \$0-visbng;
#X msg 157 197 color 0 0;
#X msg 241 197 color 10 10;
#X obj 159 142 t b;
#X obj 239 172 del 250;
#X msg 123 252 relocate 230x135+1+1 1x1+50+60 \, vis 1;
#X obj 123 274 s pd-\$0-clop;
#X obj 396 133 loadbang;
#X msg 396 156 1;
#X obj 396 179 s \$0-combfreqr;
#X connect 1 0 4 0;
#X connect 2 0 0 0;
#X connect 3 0 0 0;
#X connect 4 0 2 0;
#X connect 4 0 5 0;
#X connect 4 0 6 0;
#X connect 5 0 3 0;
#X connect 6 0 7 0;
#X connect 8 0 9 0;
#X connect 9 0 10 0;
#X restore 715 121 pd stuff;
#X text 775 440 philipp schmalfuß \, 2019;
#X obj 103 115 hsl 150 15 0 127 0 0 \$0-visbng \$0-visbngr empty 50
8 2 10 -233017 -233017 -1 0 1;
#N canvas 50 88 230 135 \$0-clop 0;
#N canvas 166 352 714 345 mask 0;
#X obj 100 100 cnv 15 219 129 empty empty empty 20 12 0 14 -262144
-66577 0;
#X obj 112 139 hsl 128 12 0 119 0 0 \$0-fgui \$0-fguir Lop-Frequency
-2 -6 2 10 -262144 -1 -1 0 1;
#X obj 246 139 nbx 5 12 0 1e+17 0 0 \$0-lopfreq \$0-lopfreqr hz 47
7 2 10 -262144 -1 -1 0 256;
#N canvas 3 54 450 300 map 0;
#X obj 43 26 inlet;
#X obj 192 54 inlet;
#X obj 94 160 outlet;
#X obj 192 127 outlet;
#X obj 93 79 mtof;
#X obj 94 119 i;
#X obj 192 81 ftom;
#X msg 192 102 set \$1;
#X msg 94 140 set \$1;
#X obj 93 101 + 0.5;
#X obj 42 48 moses 0.1;
#X obj 42 199 s \$0-lopfreq;
#X connect 0 0 10 0;
#X connect 1 0 6 0;
#X connect 4 0 9 0;
#X connect 5 0 8 0;
#X connect 5 0 11 0;
#X connect 6 0 7 0;
#X connect 7 0 3 0;
#X connect 8 0 2 0;
#X connect 9 0 5 0;
#X connect 10 0 5 0;
#X connect 10 0 11 0;
#X connect 10 1 4 0;
#X restore 49 137 pd map;
#X obj 112 194 hsl 128 12 0 1 0 0 \$0-qgui \$0-qguir Resonance -2 -7
2 10 -262144 -1 -1 0 1;
#X obj 246 194 nbx 5 12 -99 100 0 0 \$0-q \$0-qr empty 47 7 2 10 -262144
-1 -1 0 256;
#N canvas 3 54 450 300 map 0;
#X obj 94 33 inlet;
#X obj 192 56 inlet;
#X obj 94 160 outlet;
#X obj 192 127 outlet;
#X msg 192 102 set \$1;
#X msg 94 140 set \$1;
#X obj 23 153 s \$0-q;
#X obj 94 56 pow 2;
#X obj 94 79 * 1.5;
#X connect 0 0 7 0;
#X connect 1 0 4 0;
#X connect 4 0 3 0;
#X connect 5 0 2 0;
#X connect 7 0 8 0;
#X connect 8 0 5 0;
#X connect 8 0 6 0;
#X restore 49 192 pd map;
#X obj 244 117 cnv 10 10 10 empty empty clop~ 0 5 2 14 -262144 -162280
0;
#X obj 113 167 hsl 128 12 0 151 0 0 \$0-fgui \$0-fguir Comb-Frequency
-2 -6 2 10 -262144 -1 -1 0 1;
#X obj 247 167 nbx 5 12 0 1e+17 0 0 \$0-combfreq \$0-combfreqr hz 47
7 2 10 -262144 -1 -1 1 256;
#N canvas 3 54 450 300 map 0;
#X obj 43 26 inlet;
#X obj 192 54 inlet;
#X obj 94 160 outlet;
#X obj 192 127 outlet;
#X obj 95 73 mtof;
#X obj 94 119 i;
#X obj 192 81 ftom;
#X msg 192 102 set \$1;
#X msg 94 140 set \$1;
#X obj 95 95 + 0.5;
#X obj 42 48 moses 0.1;
#X obj 4 160 s \$0-combfreq;
#X msg 37 73 1;
#X connect 0 0 10 0;
#X connect 1 0 6 0;
#X connect 4 0 9 0;
#X connect 5 0 8 0;
#X connect 5 0 11 0;
#X connect 6 0 7 0;
#X connect 7 0 3 0;
#X connect 8 0 2 0;
#X connect 9 0 5 0;
#X connect 10 0 12 0;
#X connect 10 1 4 0;
#X connect 12 0 5 0;
#X connect 12 0 11 0;
#X restore 48 163 pd map;
#X connect 1 0 3 0;
#X connect 2 0 3 1;
#X connect 3 0 2 0;
#X connect 3 1 1 0;
#X connect 4 0 6 0;
#X connect 5 0 6 1;
#X connect 6 0 5 0;
#X connect 6 1 4 0;
#X connect 8 0 10 0;
#X connect 9 0 10 1;
#X connect 10 0 9 0;
#X connect 10 1 8 0;
#X coords 0 -1 1 1 220 130 2 100 100;
#X restore 5 2 pd mask;
#X restore 715 98 pd \$0-clop;
#X obj 514 220 +~;
#X obj 458 147 +~;
#X obj 377 150 +~;
#X obj 392 74 r \$0-lopfreq;
#X obj 528 150 r \$0-q;
#X msg 392 97 \$1 20;
#X obj 392 120 line~;
#X msg 472 100 \$1 20;
#X obj 472 123 line~;
#X msg 528 173 \$1 20;
#X obj 528 196 line~;
#X obj 472 75 r \$0-combfreq;
#X obj 322 405 hip~ 5;
#X connect 0 0 40 0;
#X connect 2 0 0 0;
#X connect 4 0 30 0;
#X connect 5 0 29 0;
#X connect 6 0 28 0;
#X connect 10 0 0 3;
#X connect 11 0 12 0;
#X connect 12 0 0 2;
#X connect 13 0 12 1;
#X connect 15 0 0 1;
#X connect 16 0 19 0;
#X connect 17 0 18 0;
#X connect 18 0 16 1;
#X connect 19 0 15 0;
#X connect 21 0 20 0;
#X connect 22 0 23 0;
#X connect 28 0 10 0;
#X connect 29 0 13 0;
#X connect 30 0 16 0;
#X connect 31 0 33 0;
#X connect 32 0 37 0;
#X connect 33 0 34 0;
#X connect 34 0 30 1;
#X connect 35 0 36 0;
#X connect 36 0 29 1;
#X connect 37 0 38 0;
#X connect 38 0 28 1;
#X connect 39 0 35 0;
#X connect 40 0 1 0;
#X coords 0 -1 1 1 155 33 1 100 100;
