#N canvas 302 147 857 409 10;
#X obj 390 348 pp.out~;
#A saved;
#X obj 1 2 cnv 15 380 400 empty empty empty 20 12 0 14 -233017 -66577
0;
#X obj 538 153 cnv 15 118 17 empty empty empty 20 12 0 14 -260097 -66577
0;
#N canvas 152 124 552 519 control-messages 0;
#X obj 86 397 outlet;
#X floatatom 85 166 5 0 0 0 - - -;
#X floatatom 125 207 5 0 0 0 - - -;
#X floatatom 136 262 5 0 0 0 - - -;
#X obj 155 368 cnv 16 87 16 empty empty empty 20 12 0 14 -260097 -66577
0;
#N canvas 864 246 634 307 save&recall 0;
#X obj 93 233 outlet;
#X msg 93 60 0;
#X msg 125 60 1;
#X msg 158 60 2;
#X msg 93 99 save \$1;
#X text 185 63 ...;
#X msg 207 60 20;
#X msg 149 154 0;
#X msg 181 154 1;
#X msg 214 154 2;
#X text 241 157 ...;
#X msg 263 154 20;
#X msg 149 193 recall \$1;
#X text 249 93 save & recall up to 20 presets \, presets will be saved
with the parrent patch;
#X connect 1 0 4 0;
#X connect 2 0 4 0;
#X connect 3 0 4 0;
#X connect 4 0 0 0;
#X connect 6 0 4 0;
#X connect 7 0 12 0;
#X connect 8 0 12 0;
#X connect 9 0 12 0;
#X connect 11 0 12 0;
#X connect 12 0 0 0;
#X restore 155 367 pd save&recall;
#X msg 84 186 lop-frequency \$1;
#X msg 125 227 comb-frequency \$1;
#X msg 136 282 resonance \$1;
#X text 121 164 lowpass filter frequency in hz;
#X text 164 208 comb filter frequency;
#X connect 1 0 6 0;
#X connect 2 0 7 0;
#X connect 3 0 8 0;
#X connect 5 0 0 0;
#X connect 6 0 0 0;
#X connect 7 0 0 0;
#X connect 8 0 0 0;
#X restore 538 153 pd control-messages;
#X text 68 108 1:(~)signal;
#X text 10 109 Inlets:;
#X text 10 180 Outlets:;
#X text 68 192 2:message;
#X obj 12 20 cnv 15 10 10 empty empty pp.clop~ 0 0 2 16 -233017 -262144
0;
#X text 68 180 1:(~)filtered signal;
#X floatatom 427 50 5 0 0 0 - - -;
#X obj 427 70 sig~;
#X floatatom 464 76 5 0 0 0 - - -;
#X obj 464 96 sig~;
#X text 550 195 <-- click to open GUI;
#N canvas 925 317 420 180 message-out 0;
#X obj 20 20 inlet;
#X msg 20 48 lop-frequency 0 \, comb-frequency 1 \, resonance 0 \,
;
#X connect 0 0 1 0;
#X restore 538 216 pd message-out;
#X floatatom 389 2 5 0 0 0 - - -;
#X obj 390 179 pp.clop~;
#A saved empty_slot \; empty_slot \; empty_slot \; empty_slot \; empty_slot
\; empty_slot \; empty_slot \; empty_slot \; empty_slot \; empty_slot
\; empty_slot \; empty_slot \; empty_slot \; empty_slot \; empty_slot
\; empty_slot \; empty_slot \; empty_slot \; empty_slot \; empty_slot
\; empty_slot \;;
#X text 68 121 2:(~)lop-frequency;
#X text 68 134 3:(~)comb-frequency;
#X text 68 146 4:(~)resonance;
#X text 68 159 5:control-messages;
#X text 460 51 lop frequency(hz);
#X text 499 76 comb frequency(hz);
#X text 10 71 Creation arguments: none;
#X obj 389 24 phasor~ 80;
#X floatatom 502 109 5 0 0 0 - - -;
#X obj 502 129 sig~;
#X text 534 108 resonance;
#X text 11 35 experimental comb-lowpass-ladder filter-thing;
#N canvas 0 50 450 250 (subpatch) 0;
#X array \$0-scope 960 float 2;
#X coords 0 1.5 960 -1.5 200 140 1 0 0;
#X restore 594 257 graph;
#N canvas 447 185 450 300 init 0;
#X obj 218 74 tgl 15 0 empty empty empty 17 7 0 10 -262144 -1 -1 1
1;
#X obj 218 97 metro 200;
#X obj 55 24 loadbang;
#X obj 55 68 samplerate~;
#X obj 55 91 / 100;
#X obj 55 114 * 2;
#X msg 55 137 resize \$1;
#X obj 55 160 s \$0-scope;
#X obj 218 120 s \$0-bng;
#X connect 0 0 1 0;
#X connect 1 0 8 0;
#X connect 2 0 3 0;
#X connect 2 0 0 0;
#X connect 3 0 4 0;
#X connect 4 0 5 0;
#X connect 5 0 6 0;
#X connect 6 0 7 0;
#X restore 288 8 pd init scope;
#X obj 441 250 tabwrite~ \$0-scope;
#X obj 462 221 r \$0-bng;
#X text 794 252 1.5;
#X text 795 382 -1.5;
#X connect 3 0 17 4;
#X connect 10 0 11 0;
#X connect 11 0 17 1;
#X connect 12 0 13 0;
#X connect 13 0 17 2;
#X connect 16 0 25 0;
#X connect 17 0 0 0;
#X connect 17 0 0 1;
#X connect 17 0 32 0;
#X connect 17 1 15 0;
#X connect 25 0 17 0;
#X connect 26 0 27 0;
#X connect 27 0 17 3;
#X connect 33 0 32 0;
