#N canvas 293 151 915 631 10;
#X declare -path Examples/audio;
#X obj 402 551 pp.out~;
#A saved;
#X obj 3 3 cnv 15 380 620 empty empty empty 20 12 0 14 #e0e0e0 #404040 0;
#X obj 551 265 cnv 15 118 17 empty empty empty 20 12 0 14 #fc8000 #404040 0;
#N canvas 708 133 636 491 control-messages 0;
#X obj 54 457 outlet;
#X floatatom 54 45 5 0 1e+10 0 - - - 0;
#X floatatom 62 86 5 0 1e+11 0 - - - 0;
#X obj 137 429 cnv 16 87 16 empty empty empty 20 12 0 14 #fc8000 #404040 0;
#N canvas 864 246 634 307 save&recall 0;
#X obj 93 233 outlet;
#X msg 93 60 0;
#X msg 125 60 1;
#X msg 158 60 2;
#X msg 93 99 save \$1;
#X text 185 63 ...;
#X msg 207 60 20;
#X msg 149 154 0;
#X msg 181 154 1;
#X msg 214 154 2;
#X text 241 157 ...;
#X msg 263 154 20;
#X msg 149 193 recall \$1;
#X text 249 93 save & recall up to 20 presets \, presets will be saved with the parrent patch;
#X connect 1 0 4 0;
#X connect 2 0 4 0;
#X connect 3 0 4 0;
#X connect 4 0 0 0;
#X connect 6 0 4 0;
#X connect 7 0 12 0;
#X connect 8 0 12 0;
#X connect 9 0 12 0;
#X connect 11 0 12 0;
#X connect 12 0 0 0;
#X restore 137 428 pd save&recall;
#X msg 54 64 squeeze \$1;
#X msg 62 107 squash \$1;
#X floatatom 77 131 5 0 1e+11 0 - - - 0;
#X msg 77 152 squish \$1;
#X floatatom 152 365 5 0 100 0 - - - 0;
#X msg 152 386 dry/wet \$1;
#X msg 149 340 oversample \$1;
#X msg 186 311 8;
#X msg 222 312 16;
#X msg 149 310 1;
#X text 244 340 oversampling factor for anti-aliasing (must be a power of 2);
#X text 65 25 shape saturation function;
#X floatatom 111 187 5 0 6000 0 - - - 0;
#X msg 111 209 responsiveness \$1;
#X text 232 207 responsiveness of the enveleope follower;
#X msg 128 274 explode \$1;
#X floatatom 128 250 5 0 100 0 - - - 0;
#X obj 207 247 cnv 18 380 50 empty empty empty 20 12 0 10 #ff0400 #404040 0;
#X text 215 251 Be careful when using the "Explode" parameter! If you set it to 100 \, the audio will be very distorted at full range amplitude.;
#X connect 1 0 5 0;
#X connect 2 0 6 0;
#X connect 4 0 0 0;
#X connect 5 0 0 0;
#X connect 6 0 0 0;
#X connect 7 0 8 0;
#X connect 8 0 0 0;
#X connect 9 0 10 0;
#X connect 10 0 0 0;
#X connect 11 0 0 0;
#X connect 12 0 11 0;
#X connect 13 0 11 0;
#X connect 14 0 11 0;
#X connect 17 0 18 0;
#X connect 18 0 0 0;
#X connect 20 0 0 0;
#X connect 21 0 20 0;
#X restore 551 265 pd control-messages;
#X obj 27 26 cnv 15 10 10 empty empty pp.distort~ 0 0 2 16 #e0e0e0 #fcfcfc 0;
#X text 562 308 <-- click to open GUI;
#N canvas 768 300 450 300 stuff 0;
#X obj 82 14 loadbang;
#X obj 82 74 samplerate~;
#X obj 82 144 pack 44100 \$0;
#X obj 213 76 tgl 15 0 empty empty empty 17 7 0 10 #fcfcfc #000000 #000000 0 1;
#X obj 213 122 s \$0-draw;
#X obj 82 104 / 100;
#X msg 82 167 \; \$2-scope resize \$1 \;;
#X obj 213 99 metro 100;
#X connect 0 0 3 0;
#X connect 0 0 1 0;
#X connect 1 0 5 0;
#X connect 2 0 6 0;
#X connect 3 0 7 0;
#X connect 5 0 2 0;
#X connect 7 0 4 0;
#X restore 326 9 pd stuff;
#N canvas 0 50 450 250 (subpatch) 0;
#X array \$0-scope 480 float 0;
#A color 0;
#A width 1;
#X coords 0 1 479 -1 250 120 1 0 0;
#X restore 105 475 graph;
#N canvas 577 547 414 180 message-out 0;
#X obj 20 20 inlet;
#X msg 20 47 squeeze 0 \, squash 0 \, squish 0 \, oversample 1 \, responsiveness 5 \, explode 0 \, dry/wet 100 \,;
#X connect 0 0 1 0;
#X restore 551 340 pd message-out;
#X obj 535 390 r \$0-draw;
#X obj 498 411 tabwrite~ \$0-scope;
#X text 11 272 Creation arguments: \$1: oversampling factor;
#X obj 403 67 pp.sfplayer~;
#A saved empty_slot \; empty_slot \; empty_slot \; empty_slot \; empty_slot \; empty_slot \; empty_slot \; empty_slot \; empty_slot \; empty_slot \; empty_slot \; empty_slot \; empty_slot \; empty_slot \; empty_slot \; empty_slot \; empty_slot \; empty_slot \; empty_slot \; empty_slot \; empty_slot \;;
#X obj 145 9 declare -path Examples/audio;
#X msg 576 43 open Trumpet.wav \, play 1 \, loop 1;
#X text 12 139 An internal envelope follower keeps the level of saturation consistent \, regardless of the intensity of the input signal.;
#X obj 101 190 cnv 18 80 20 empty empty empty 20 12 0 10 #ff0400 #404040 0;
#X text 106 191 !!WARNING!!;
#X text 11 77 "Squeeze" parameter drives against a tanh soft clipper \, "Squash" adds odd harmonics (signal rised to the 3rd power before tanh) \, "Squish" adds even harmonics (signal rised to the 2nd power before tanh);
#X text 12 216 Be careful when using the "Explode" parameter! If you set it to 100 \, the audio will be very distorted at full range amplitude.;
#X text 21 48 dynamic distortion/saturation;
#X obj 576 20 loadbang;
#X obj 403 293 pp.dystort-st~;
#A saved empty_slot \; empty_slot \; empty_slot \; empty_slot \; empty_slot \; empty_slot \; empty_slot \; empty_slot \; empty_slot \; empty_slot \; empty_slot \; empty_slot \; empty_slot \; empty_slot \; empty_slot \; empty_slot \; empty_slot \; empty_slot \; empty_slot \; empty_slot \; empty_slot \;;
#X text 34 300 Inlets:;
#X text 34 407 Outlets:;
#X text 92 299 1:(~)signal left;
#X text 92 314 2:(~)signal right;
#X text 92 330 3:(~)squeeze;
#X text 92 346 4:(~)squash;
#X text 92 362 5:(~)squish;
#X text 92 377 6:control-messages;
#X text 92 407 1:(~)signal left;
#X text 92 423 2:(~)signal right;
#X text 92 438 3:message;
#X obj 404 121 pp.pan~;
#A saved empty_slot \; empty_slot \; empty_slot \; empty_slot \; empty_slot \; empty_slot \; empty_slot \; empty_slot \; empty_slot \; empty_slot \; empty_slot \; empty_slot \; empty_slot \; empty_slot \; empty_slot \; empty_slot \; empty_slot \; empty_slot \; empty_slot \; empty_slot \; empty_slot \;;
#N canvas 102 154 450 223 examples 0;
#X obj 84 125 s pd;
#X msg 84 55 dir;
#X obj 84 78 pdcontrol;
#X msg 84 102 open 10-old_tapedeck.pd \$1/Examples;
#X obj 84 33 r \$0-example1;
#X connect 1 0 2 0;
#X connect 2 0 3 0;
#X connect 3 0 0 0;
#X connect 4 0 1 0;
#X restore 8 600 pd examples;
#X obj 788 5 cnv 15 120 30 empty empty empty 20 12 0 14 #fc8000 #404040 0;
#X obj 794 13 bng 15 250 50 0 \$0-example1 \$0-example1r empty 17 7 0 10 #fcfcfc #000000 #000000;
#X text 814 12 open example-1;
#X connect 3 0 22 5;
#X connect 9 0 10 0;
#X connect 12 0 34 0;
#X connect 14 0 12 3;
#X connect 21 0 14 0;
#X connect 22 0 0 0;
#X connect 22 0 10 0;
#X connect 22 1 0 1;
#X connect 22 2 8 0;
#X connect 34 0 22 0;
#X connect 34 1 22 1;
