#N canvas 575 269 331 315 10;
#X obj 43 18 inlet~;
#X obj 43 223 +~;
#X obj 59 188 *~;
#X obj 216 160 * -1;
#X obj 201 189 *~;
#X obj 185 218 +~;
#X obj 186 255 outlet~;
#X obj 185 64 +~ \$1;
#X obj 186 21 inlet~;
#X obj 216 112 loadbang;
#X obj 216 135 f \$2;
#X obj 44 257 delwrite~ \$0-del 50;
#X obj 185 90 delread4~ \$0-del;
#X connect 0 0 1 0;
#X connect 1 0 4 0;
#X connect 1 0 11 0;
#X connect 2 0 1 1;
#X connect 3 0 4 1;
#X connect 4 0 5 1;
#X connect 5 0 6 0;
#X connect 7 0 12 0;
#X connect 8 0 7 0;
#X connect 9 0 10 0;
#X connect 10 0 3 0;
#X connect 10 0 2 1;
#X connect 12 0 2 0;
#X connect 12 0 5 0;
