#N canvas 164 112 769 408 10;
#N canvas 3 54 611 300 rms 0;
#X obj 110 119 lop~;
#X obj 110 66 *~;
#X obj 110 38 inlet~;
#X obj 110 175 sqrt~;
#X obj 110 220 outlet~;
#X obj 204 36 inlet;
#X obj 204 65 clip 0 1000;
#X obj 330 92 r \$0-method;
#X obj 330 146 switch~ 1;
#X obj 330 115 == 0;
#X connect 0 0 3 0;
#X connect 1 0 0 0;
#X connect 2 0 1 0;
#X connect 2 0 1 1;
#X connect 3 0 4 0;
#X connect 5 0 6 0;
#X connect 6 0 0 1;
#X connect 7 0 9 0;
#X connect 9 0 8 0;
#X restore 311 182 pd rms;
#X obj 310 106 inlet~;
#X obj 310 258 outlet~;
#X obj 499 109 inlet;
#N canvas 149 240 709 300 in 0;
#X obj 193 6 inlet;
#X obj 193 186 s \$0-responser;
#N canvas 698 546 200 251 route 0;
#X obj 20 20 inlet;
#X obj 30 60 route save recall;
#X obj 30 85 route float;
#X obj 97 111 route float;
#X obj 30 136 s \$0-save;
#X obj 30 108 i;
#X obj 98 133 i;
#X obj 98 161 s \$0-recall;
#X connect 0 0 1 0;
#X connect 1 0 2 0;
#X connect 1 1 3 0;
#X connect 2 0 5 0;
#X connect 3 0 6 0;
#X connect 5 0 4 0;
#X connect 6 0 7 0;
#X restore 214 35 pd route save-recall;
#N canvas 362 125 450 479 recall 0;
#X obj 49 145 outlet;
#N canvas 3 54 450 600 listsplit 0;
#X obj 158 23 inlet;
#X obj 220 87 list length;
#X obj 220 113 until;
#X obj 182 150 f;
#X obj 278 150 + 1;
#X msg 265 111 0;
#X obj 182 226 list store;
#X msg 182 202 get \$1 1;
#X obj 154 367 list split;
#X obj 222 342 f;
#X obj 154 334 list;
#X obj 98 124 list;
#X obj 182 389 list split 1;
#X obj 154 274 t bang bang bang;
#X obj 182 179 t f f;
#X obj 158 48 t l l l b;
#X obj 154 473 outlet;
#X obj 154 440 list trim;
#X obj 163 248 sel |;
#X text 275 197 hacky split list at "|";
#X connect 0 0 15 0;
#X connect 1 0 2 0;
#X connect 2 0 3 0;
#X connect 3 0 4 0;
#X connect 3 0 14 0;
#X connect 4 0 3 1;
#X connect 5 0 3 1;
#X connect 6 0 18 0;
#X connect 7 0 6 0;
#X connect 8 0 17 0;
#X connect 8 1 12 0;
#X connect 9 0 8 1;
#X connect 10 0 8 0;
#X connect 11 0 15 0;
#X connect 12 1 11 0;
#X connect 13 0 10 0;
#X connect 13 1 9 0;
#X connect 13 2 2 1;
#X connect 14 0 7 0;
#X connect 14 1 9 1;
#X connect 15 0 1 0;
#X connect 15 1 10 1;
#X connect 15 2 6 1;
#X connect 15 3 5 0;
#X connect 17 0 16 0;
#X connect 18 0 13 0;
#X restore 49 117 pd listsplit;
#X obj 49 24 r \$0-recall;
#X obj 49 54 pipe 1;
#X obj 221 409 text fromlist \$0-savestates;
#X obj 49 77 text get \$0-savestates;
#X msg 253 246 21;
#X obj 253 269 until;
#X obj 253 292 f;
#X obj 300 295 + 1;
#X obj 253 315 t b f;
#X obj 253 367 text set \$0-savestates;
#X obj 221 114 text tolist \$0-savestates;
#X msg 253 342 list empty_slot;
#X obj 221 160 t a b;
#X obj 151 166 loadbang;
#X obj 221 137 savestate;
#X obj 221 33 text define \$0-savestates;
#X obj 151 189 del 0;
#X msg 298 199 0;
#X obj 253 220 spigot 1;
#X connect 1 0 0 0;
#X connect 2 0 3 0;
#X connect 3 0 5 0;
#X connect 5 0 1 0;
#X connect 6 0 7 0;
#X connect 7 0 8 0;
#X connect 8 0 9 0;
#X connect 8 0 10 0;
#X connect 9 0 8 1;
#X connect 10 0 13 0;
#X connect 10 1 11 1;
#X connect 12 0 16 0;
#X connect 13 0 11 0;
#X connect 14 0 4 0;
#X connect 14 1 19 0;
#X connect 15 0 18 0;
#X connect 16 0 14 0;
#X connect 16 1 12 0;
#X connect 18 0 20 0;
#X connect 19 0 20 1;
#X connect 20 0 6 0;
#X restore 282 62 pd recall;
#X obj 307 184 s \$0-method;
#X msg 307 138 0;
#X msg 344 136 1;
#X obj 193 108 route responsiveness rms abs;
#X connect 0 0 2 0;
#X connect 0 0 7 0;
#X connect 3 0 7 0;
#X connect 5 0 4 0;
#X connect 6 0 4 0;
#X connect 7 0 1 0;
#X connect 7 1 5 0;
#X connect 7 2 6 0;
#X restore 499 130 pd in;
#X obj 398 127 r \$0-response;
#X obj 103 115 hsl 105 15 0 100 0 0 \$0-gui \$0-guir Responsiveness
3 8 2 10 -233017 -1 -1 2080 1;
#X obj 251 115 hsl 2 8 0 1 0 0 \$0-gui \$0-guir empty 3 8 2 10 -233017
-228856 -1 0 1;
#X obj 210 115 nbx 5 15 0 1000 0 0 \$0-response \$0-responser empty
0 -8 2 10 -228856 -1 -1 20 256;
#X msg 74 173 set \$1;
#X obj 74 152 i;
#X msg 210 152 set \$1;
#X obj 52 194 s \$0-response;
#X text 574 335 philipp schmalfuß \, 2018;
#X obj 497 257 outlet;
#N canvas 165 118 567 486 outlet-message 0;
#X obj 205 328 list trim;
#X msg 142 306 addcomma;
#X msg 77 227 set;
#X obj 205 305 list prepend add2;
#X obj 205 413 outlet;
#X obj 164 179 t b a b;
#X obj 184 246 t b a a;
#X obj 163 72 r \$0-response;
#N canvas 497 319 297 264 save 0;
#X obj 48 16 inlet;
#N canvas 690 259 481 384 collect 0;
#X obj 47 60 inlet;
#X obj 47 274 outlet;
#X obj 98 180 list;
#X obj 166 181 t l;
#X obj 47 225 list;
#X obj 98 139 list append |;
#X obj 47 126 del 0;
#X obj 47 82 t b a;
#X text 119 75 hacky thing... replaycing " \, " with "|";
#X connect 0 0 7 0;
#X connect 2 0 3 0;
#X connect 2 0 4 1;
#X connect 3 0 2 1;
#X connect 4 0 1 0;
#X connect 5 0 2 0;
#X connect 6 0 2 1;
#X connect 6 0 4 0;
#X connect 7 0 6 0;
#X connect 7 1 5 0;
#X restore 48 38 pd collect;
#X obj 117 16 r \$0-save;
#X obj 27 130 text set \$0-savestates;
#X obj 27 104 list;
#X obj 117 62 t b f;
#X obj 117 39 clip 0 20;
#X connect 0 0 1 0;
#X connect 1 0 4 1;
#X connect 2 0 6 0;
#X connect 4 0 3 0;
#X connect 5 0 4 0;
#X connect 5 1 3 1;
#X connect 6 0 5 0;
#X restore 223 273 pd save;
#X msg 184 218 responsiveness \$1 \, \$2;
#X obj 163 138 pack f s;
#X obj 267 11 r \$0-method;
#X obj 267 107 t b s;
#X obj 267 34 sel 0 1;
#X msg 267 61 rms;
#X obj 267 85 symbol;
#X msg 299 60 abs;
#X connect 0 0 4 0;
#X connect 1 0 4 0;
#X connect 2 0 4 0;
#X connect 3 0 0 0;
#X connect 5 0 4 0;
#X connect 5 1 9 0;
#X connect 5 2 2 0;
#X connect 6 0 1 0;
#X connect 6 1 3 0;
#X connect 6 2 8 0;
#X connect 7 0 10 0;
#X connect 9 0 6 0;
#X connect 10 0 5 0;
#X connect 11 0 13 0;
#X connect 12 0 10 0;
#X connect 12 1 10 1;
#X connect 13 0 14 0;
#X connect 13 1 16 0;
#X connect 14 0 15 0;
#X connect 15 0 12 0;
#X connect 16 0 15 0;
#X restore 497 234 pd outlet-message;
#N canvas 139 92 473 300 init 0;
#X obj 139 20 loadbang;
#X obj 139 190 s \$0-method;
#X obj 285 76 f \$1;
#X obj 285 98 sel 0;
#X msg 285 122 20;
#X obj 285 169 s \$0-responser;
#X obj 139 104 symbol \$2;
#X msg 139 156 0;
#X msg 182 156 1;
#X obj 139 44 t b b b;
#X obj 139 133 select rms abs;
#X connect 0 0 9 0;
#X connect 2 0 3 0;
#X connect 3 0 4 0;
#X connect 3 1 5 0;
#X connect 4 0 5 0;
#X connect 6 0 10 0;
#X connect 7 0 1 0;
#X connect 8 0 1 0;
#X connect 9 0 6 0;
#X connect 9 1 7 0;
#X connect 9 2 2 0;
#X connect 10 0 7 0;
#X connect 10 1 8 0;
#X restore 495 179 pd init;
#N canvas 495 167 450 300 abs 0;
#X obj 156 26 inlet~;
#X obj 157 210 outlet~;
#X obj 156 65 abs~;
#X obj 156 88 lop~;
#X obj 251 24 inlet;
#X obj 251 47 clip 0 1000;
#X obj 354 121 switch~ 0;
#X obj 354 72 r \$0-method;
#X obj 354 95 == 1;
#X connect 0 0 2 0;
#X connect 2 0 3 0;
#X connect 3 0 1 0;
#X connect 4 0 5 0;
#X connect 5 0 3 1;
#X connect 7 0 8 0;
#X connect 8 0 6 0;
#X restore 365 182 pd abs;
#X connect 0 0 2 0;
#X connect 1 0 0 0;
#X connect 1 0 17 0;
#X connect 3 0 4 0;
#X connect 5 0 0 1;
#X connect 5 0 17 1;
#X connect 6 0 10 0;
#X connect 8 0 11 0;
#X connect 9 0 8 0;
#X connect 10 0 9 0;
#X connect 10 0 12 0;
#X connect 11 0 6 0;
#X connect 15 0 14 0;
#X connect 17 0 2 0;
#X coords 0 -1 1 1 155 33 1 100 100;
