#N canvas 520 80 845 661 10;
#X obj 347 76 osc~ 1.07;
#X obj 562 87 abs~;
#X floatatom 635 95 5 0 50 0 - #0-decay-speed-init -;
#X obj 635 115 / 10;
#X obj 374 120 *~ 4;
#X obj 562 260 s~ \$0-env;
#X obj 375 98 r~ \$0-env;
#X obj 347 119 *~;
#X obj 376 243 *~ 4;
#X obj 377 221 r~ \$0-env;
#X obj 349 242 *~;
#X obj 764 391 r~ \$0-env;
#X obj 736 412 *~;
#X obj 736 369 osc~ 5.07;
#X obj 440 385 r~ \$0-env;
#X obj 412 406 *~;
#X obj 412 363 osc~ 5.07;
#X obj 411 268 *~ 1;
#X obj 408 145 *~ 1;
#X obj 408 122 osc~ 6;
#X obj 410 245 osc~ 7;
#X obj 38 218 +~;
#X obj 53 165 -~;
#X obj 439 407 *~ 1;
#X obj 763 413 *~ 1;
#X obj 349 199 osc~ 6.1;
#X obj 562 166 *~;
#X obj 192 556 outlet~;
#X obj 518 563 outlet~;
#X obj 562 139 slop~ 0 0 0.8 0 1e+09;
#X obj 189 3 inlet~;
#N canvas 514 133 400 576 reflections 0;
#X obj 84 10 inlet~;
#X obj 159 10 inlet~;
#N canvas 19 394 468 181 write1 0;
#X obj 83 25 inlet~;
#X obj 84 99 outlet~;
#X obj 116 66 delwrite~ \$0-early1 100;
#X connect 0 0 1 0;
#X connect 0 0 2 0;
#X restore 160 67 pd write1;
#N canvas 323 263 472 159 read1 0;
#X obj 77 12 inlet~;
#X obj 78 81 outlet~;
#X obj 78 56 delread4~ \$0-early1 1.42763;
#X obj 181 18 inlet~;
#X connect 2 0 1 0;
#X connect 3 0 2 0;
#X restore 160 92 pd read1;
#X obj 84 121 +~;
#X obj 138 122 -~;
#X obj 82 205 +~;
#X obj 136 206 -~;
#X obj 84 289 +~;
#X obj 138 290 -~;
#N canvas 20 395 468 181 write2 0;
#X obj 83 25 inlet~;
#X obj 84 99 outlet~;
#X obj 116 65 delwrite~ \$0-early2 100;
#X connect 0 0 1 0;
#X connect 0 0 2 0;
#X restore 158 151 pd write2;
#N canvas 322 262 472 159 read2 0;
#X obj 77 12 inlet~;
#X obj 78 81 outlet~;
#X obj 147 14 inlet~;
#X obj 78 56 delread4~ \$0-early2 3.23873;
#X connect 2 0 3 0;
#X connect 3 0 1 0;
#X restore 158 176 pd read2;
#N canvas 19 394 468 181 write3 0;
#X obj 83 25 inlet~;
#X obj 84 99 outlet~;
#X obj 116 66 delwrite~ \$0-early3 100;
#X connect 0 0 1 0;
#X connect 0 0 2 0;
#X restore 160 236 pd write3;
#N canvas 322 262 472 159 read3 0;
#X obj 77 12 inlet~;
#X obj 78 81 outlet~;
#X obj 78 56 delread4~ \$0-early3 5.2345;
#X obj 161 11 inlet~;
#X connect 2 0 1 0;
#X connect 3 0 2 0;
#X restore 160 260 pd read3;
#N canvas 20 395 468 181 write4 0;
#X obj 83 25 inlet~;
#X obj 84 99 outlet~;
#X obj 117 66 delwrite~ \$0-early4 100;
#X connect 0 0 1 0;
#X connect 0 0 2 0;
#X restore 153 320 pd write4;
#N canvas 321 261 472 159 read4 0;
#X obj 77 12 inlet~;
#X obj 78 81 outlet~;
#X obj 194 13 inlet~;
#X obj 78 56 delread4~ \$0-early4 7.82312;
#X connect 2 0 3 0;
#X connect 3 0 1 0;
#X restore 153 345 pd read4;
#X obj 84 406 outlet~;
#X obj 155 406 outlet~;
#X obj 84 381 *~ 0.3535;
#X obj 154 381 *~ 0.3535;
#X obj 237 53 osc~ 3;
#X obj 237 99 +~ 1;
#X obj 240 140 osc~ 1.3;
#X obj 240 186 +~ 2.4;
#X obj 244 272 +~ 1.444;
#X obj 240 303 osc~ 4.75;
#X obj 281 53 r~ \$0-env;
#X obj 281 74 *~ 0.5;
#X obj 237 76 *~;
#X obj 300 141 r~ \$0-env;
#X obj 300 162 *~ 0.1;
#X obj 240 163 *~;
#X obj 302 227 r~ \$0-env;
#X obj 302 248 *~ 0.7;
#X obj 244 249 *~;
#X obj 303 303 r~ \$0-env;
#X obj 303 324 *~ 0.215;
#X obj 240 326 *~;
#X obj 244 226 osc~ 2.3;
#X obj 240 349 +~ 5.2;
#X connect 0 0 4 0;
#X connect 0 0 5 0;
#X connect 1 0 2 0;
#X connect 2 0 3 0;
#X connect 3 0 5 1;
#X connect 3 0 4 1;
#X connect 4 0 6 0;
#X connect 4 0 7 0;
#X connect 5 0 10 0;
#X connect 6 0 8 0;
#X connect 6 0 9 0;
#X connect 7 0 12 0;
#X connect 8 0 18 0;
#X connect 9 0 14 0;
#X connect 10 0 11 0;
#X connect 11 0 7 1;
#X connect 11 0 6 1;
#X connect 12 0 13 0;
#X connect 13 0 9 1;
#X connect 13 0 8 1;
#X connect 14 0 15 0;
#X connect 15 0 19 0;
#X connect 18 0 16 0;
#X connect 19 0 17 0;
#X connect 20 0 28 0;
#X connect 21 0 3 1;
#X connect 22 0 31 0;
#X connect 23 0 11 1;
#X connect 24 0 13 1;
#X connect 25 0 37 0;
#X connect 26 0 27 0;
#X connect 27 0 28 1;
#X connect 28 0 21 0;
#X connect 29 0 30 0;
#X connect 30 0 31 1;
#X connect 31 0 23 0;
#X connect 32 0 33 0;
#X connect 33 0 34 1;
#X connect 34 0 24 0;
#X connect 35 0 36 0;
#X connect 36 0 37 1;
#X connect 37 0 39 0;
#X connect 38 0 34 0;
#X connect 39 0 15 1;
#X restore 191 326 pd reflections;
#X obj 562 234 lop~ 1000;
#X obj 38 54 delread~ \$0-wub \$1;
#X obj 37 508 delwrite~ \$0-wub \$1;
#X obj 38 75 *~ \$2;
#X obj 53 107 lop~ \$3;
#X obj 54 135 lop~ \$3;
#X obj 54 191 *~ \$4;
#X obj 562 193 *~ 0.08;
#X obj 190 170 pp.echo-stupid-rev-allpass~ 22.58 0.7;
#X obj 191 293 pp.echo-stupid-rev-allpass~ 30.51 0.7;
#X obj 192 431 pp.echo-stupid-rev-allpass~ 22.58 0.7;
#X obj 518 436 pp.echo-stupid-rev-allpass~ 44.81 0.7;
#X connect 0 0 7 0;
#X connect 1 0 29 0;
#X connect 2 0 3 0;
#X connect 3 0 29 3;
#X connect 4 0 7 1;
#X connect 6 0 4 0;
#X connect 7 0 40 1;
#X connect 8 0 10 1;
#X connect 9 0 8 0;
#X connect 10 0 41 1;
#X connect 11 0 24 0;
#X connect 12 0 43 1;
#X connect 13 0 12 0;
#X connect 14 0 23 0;
#X connect 15 0 42 1;
#X connect 16 0 15 0;
#X connect 17 0 41 1;
#X connect 18 0 40 1;
#X connect 19 0 18 0;
#X connect 20 0 17 0;
#X connect 21 0 40 0;
#X connect 22 0 38 0;
#X connect 23 0 15 1;
#X connect 24 0 12 1;
#X connect 25 0 10 0;
#X connect 26 0 39 0;
#X connect 29 0 26 0;
#X connect 29 0 26 1;
#X connect 30 0 1 0;
#X connect 30 0 40 0;
#X connect 31 0 42 0;
#X connect 31 1 43 0;
#X connect 32 0 5 0;
#X connect 33 0 35 0;
#X connect 35 0 22 1;
#X connect 35 0 21 0;
#X connect 35 0 36 0;
#X connect 36 0 37 0;
#X connect 37 0 22 0;
#X connect 38 0 21 1;
#X connect 39 0 32 0;
#X connect 40 0 41 0;
#X connect 41 0 31 0;
#X connect 41 0 31 1;
#X connect 42 0 27 0;
#X connect 42 0 34 0;
#X connect 43 0 28 0;
#X connect 43 0 34 0;
