#N canvas 387 125 697 309 10;
#X obj 390 244 pp.out~;
#A saved;
#A saved;
#A saved;
#A saved;
#A saved;
#A saved;
#A saved;
#A saved;
#A saved;
#A saved;
#A saved;
#A saved;
#A saved;
#A saved;
#A saved;
#A saved;
#A saved;
#A saved;
#A saved;
#A saved;
#A saved;
#X obj 1 2 cnv 15 380 300 empty empty empty 20 12 0 14 -233017 -66577
0;
#X text 45 117 Inlets:;
#X text 45 175 Outlets:;
#X obj 12 20 cnv 15 10 10 empty empty pp.env-st~ 0 0 2 16 -233017 -262144
0;
#X obj 6 280 cnv 15 81 17 empty empty empty 20 12 0 14 -260097 -66577
0;
#N canvas 599 176 506 104 references 0;
#X obj 2 1 cnv 15 500 100 empty empty empty 20 12 0 14 -1 -66577 0
;
#X obj 3 2 cnv 15 498 98 empty empty empty 20 12 0 14 -233017 -66577
0;
#X text 18 18 help->Browser->;
#X text 17 33 PureData/3.audio.examples/H06.envelope.follower.pd;
#X restore 6 280 pd references;
#X text 30 70 Creation arguments:none;
#X obj 404 142 noise~;
#X obj 390 169 *~;
#X obj 390 14 phasor~ -2;
#X text 103 199 2:message;
#X obj 463 14 phasor~ 3;
#X obj 447 170 *~;
#X text 103 116 1:(~)signal left;
#X text 30 47 stereo versio of [pp.env~];
#X text 103 175 1:(~)env. left;
#X text 103 187 1:(~)env. right;
#X text 103 128 1:(~)signal right;
#X text 103 142 2:control-messages;
#N canvas 740 417 503 292 message-out 0;
#X obj 30 33 inlet;
#X msg 30 60 responsiveness 20 \,;
#X connect 0 0 1 0;
#X restore 537 126 pd message-out;
#X obj 389 85 pp.env-st~;
#A saved;
#A saved;
#A saved;
#A saved;
#A saved;
#A saved;
#A saved;
#A saved;
#A saved;
#A saved;
#A saved;
#A saved;
#A saved;
#A saved;
#A saved;
#A saved;
#A saved;
#A saved;
#A saved;
#A saved;
#A saved;
#X obj 537 60 cnv 15 118 17 empty empty empty 20 12 0 14 -260097 -66577
0;
#N canvas 561 87 338 209 control-messages 0;
#X obj 57 180 outlet;
#X obj 101 147 cnv 16 87 16 empty empty empty 20 12 0 14 -260097 -66577
0;
#N canvas 864 246 634 307 save&recall 0;
#X obj 93 233 outlet;
#X msg 93 60 0;
#X msg 125 60 1;
#X msg 158 60 2;
#X msg 93 99 save \$1;
#X text 185 63 ...;
#X msg 207 60 20;
#X msg 149 154 0;
#X msg 181 154 1;
#X msg 214 154 2;
#X text 241 157 ...;
#X msg 263 154 20;
#X msg 149 193 recall \$1;
#X text 249 93 save & recall up to 20 presets \, presets will be saved
with the parrent patch;
#X connect 1 0 4 0;
#X connect 2 0 4 0;
#X connect 3 0 4 0;
#X connect 4 0 0 0;
#X connect 6 0 4 0;
#X connect 7 0 12 0;
#X connect 8 0 12 0;
#X connect 9 0 12 0;
#X connect 11 0 12 0;
#X connect 12 0 0 0;
#X restore 101 146 pd save&recall;
#X msg 57 101 responsiveness \$1;
#X floatatom 57 82 5 0 0 0 - - -;
#X connect 2 0 0 0;
#X connect 3 0 0 0;
#X connect 4 0 3 0;
#X restore 537 60 pd control-messages;
#X connect 8 0 9 1;
#X connect 8 0 13 0;
#X connect 9 0 0 0;
#X connect 10 0 21 0;
#X connect 12 0 21 1;
#X connect 13 0 0 1;
#X connect 21 0 9 0;
#X connect 21 1 13 1;
#X connect 21 2 20 0;
#X connect 23 0 21 2;
