#N canvas 90 245 882 410 10;
#N canvas 230 199 996 431 stuff 0;
#X obj 134 27 r \$0-deltime-l;
#X obj 228 27 r \$0-deltime-r;
#X obj 134 89 /;
#X obj 166 56 t b f;
#X obj 85 115 f;
#X obj 84 3 r \$0-link-deltime;
#X obj 84 26 sel 1;
#X obj 70 182 r \$0-deltime-l-gui;
#X obj 70 308 s \$0-deltime-r;
#X msg 104 263 set \$1;
#X obj 104 283 s \$0-deltime-r-guir;
#X obj 113 211 r \$0-link-deltime;
#X obj 70 212 spigot;
#X msg 261 260 set \$1;
#X obj 270 208 r \$0-link-deltime;
#X obj 227 209 spigot;
#X obj 227 179 r \$0-deltime-r-gui;
#X obj 70 239 / 1;
#X obj 227 236 * 1;
#X obj 261 280 s \$0-deltime-l-guir;
#X obj 227 305 s \$0-deltime-l;
#X obj 238 90 r \$0-deltime-l-gui;
#X obj 365 89 r \$0-deltime-r-gui;
#X obj 238 116 s \$0-deltime-l;
#X obj 365 114 s \$0-deltime-r;
#X obj 664 206 s \$0-visbngr;
#X obj 646 101 r \$0-visbng;
#X msg 644 178 color 0 0;
#X msg 728 178 color 10 10;
#X obj 646 123 t b;
#X obj 726 153 del 250;
#X obj 610 251 s pd-\$0-echo;
#X msg 610 229 relocate 313x235+1+1 1x1+50+60 \, vis 1;
#X connect 0 0 2 0;
#X connect 1 0 3 0;
#X connect 2 0 4 1;
#X connect 3 0 2 0;
#X connect 3 1 2 1;
#X connect 4 0 17 1;
#X connect 4 0 18 1;
#X connect 5 0 6 0;
#X connect 6 0 4 0;
#X connect 7 0 12 0;
#X connect 9 0 10 0;
#X connect 11 0 12 1;
#X connect 12 0 17 0;
#X connect 13 0 19 0;
#X connect 14 0 15 1;
#X connect 15 0 18 0;
#X connect 16 0 15 0;
#X connect 17 0 8 0;
#X connect 17 0 9 0;
#X connect 18 0 13 0;
#X connect 18 0 20 0;
#X connect 21 0 23 0;
#X connect 22 0 24 0;
#X connect 26 0 29 0;
#X connect 27 0 25 0;
#X connect 28 0 25 0;
#X connect 29 0 27 0;
#X connect 29 0 30 0;
#X connect 29 0 32 0;
#X connect 30 0 28 0;
#X connect 32 0 31 0;
#X restore 689 194 pd stuff;
#N canvas 28 214 805 413 init 0;
#X obj 186 32 loadbang;
#X obj 186 86 f \$0;
#X obj 144 33 bng 15 250 50 0 empty empty empty 17 7 0 10 -262144 -1
-1;
#X obj 186 55 t b b;
#X obj 503 96 max 0;
#X obj 503 119 sel 0;
#X msg 400 155 missing argument for max. delay time;
#X obj 400 180 print pp.echo~;
#X obj 503 73 f \$1;
#X obj 531 217 s \$0-deltime-l-guir;
#X obj 560 242 s \$0-deltime-r-guir;
#X msg 185 109 \; \$1-repeats 0 \; \$1-lopr 4000 \; \$1-hf-dampingr
80 \; \$1-hipr 100 \; \$1-lf-dampingr 50 \; \$1-deltime-l 300 \; \$1-deltime-r
300 \; \$1-link-deltimer 1 \; \$1-deltime-l-guir 300 \; \$1-deltime-r-guir
300 \; \$1-flutterr 100 \; \$1-feedbackr 80 \; \$1-drywetr 50 \; \$1-dist-mode
0 \;;
#X msg 531 189 range 1 \$1;
#X connect 0 0 3 0;
#X connect 1 0 11 0;
#X connect 2 0 1 0;
#X connect 3 0 1 0;
#X connect 3 1 8 0;
#X connect 4 0 5 0;
#X connect 5 0 6 0;
#X connect 5 1 12 0;
#X connect 6 0 7 0;
#X connect 8 0 4 0;
#X connect 12 0 10 0;
#X connect 12 0 9 0;
#X restore 689 171 pd init;
#N canvas 1 56 1364 711 echo 0;
#X obj 66 121 inlet~;
#X obj 67 707 outlet~;
#X obj 255 120 inlet~;
#X obj 251 710 outlet~;
#N canvas 237 165 790 602 damping 0;
#X obj 165 17 inlet~;
#X obj 235 493 lop~;
#X obj 166 586 +~;
#X obj 271 494 r \$0-lop;
#X obj 180 268 -~;
#X obj 180 311 *~;
#X obj 165 362 +~;
#X obj 220 202 r \$0-hip;
#X obj 179 198 hip~;
#X obj 167 683 outlet~;
#X obj 236 541 -~;
#X obj 236 568 *~;
#X obj 165 153 +~;
#X obj 178 220 hip~;
#X obj 167 612 hip~ 5;
#X obj 167 635 hip~ 5;
#X obj 167 658 hip~ 5;
#X obj 336 80 *~;
#X obj 336 103 lop~ 10;
#X obj 336 126 sqrt~;
#X obj 337 151 sqrt~;
#X obj 322 563 *~;
#X obj 209 310 *~;
#X obj 337 519 / 100;
#X obj 337 542 clip 0 1;
#X obj 337 496 r \$0-hf-damping;
#X obj 241 297 / 100;
#X obj 241 320 clip 0 1;
#X obj 241 274 r \$0-lf-damping;
#X obj 235 517 lop~;
#X obj 321 246 -~;
#X obj 321 204 sig~ 1;
#X connect 0 0 12 0;
#X connect 0 0 17 0;
#X connect 0 0 17 1;
#X connect 1 0 29 0;
#X connect 2 0 14 0;
#X connect 3 0 1 1;
#X connect 3 0 29 1;
#X connect 4 0 5 0;
#X connect 5 0 6 1;
#X connect 6 0 1 0;
#X connect 6 0 10 1;
#X connect 6 0 2 0;
#X connect 7 0 8 1;
#X connect 7 0 13 1;
#X connect 8 0 13 0;
#X connect 10 0 11 0;
#X connect 11 0 2 1;
#X connect 12 0 4 1;
#X connect 12 0 8 0;
#X connect 12 0 6 0;
#X connect 13 0 4 0;
#X connect 14 0 15 0;
#X connect 15 0 16 0;
#X connect 16 0 9 0;
#X connect 17 0 18 0;
#X connect 18 0 19 0;
#X connect 19 0 20 0;
#X connect 20 0 30 1;
#X connect 21 0 11 1;
#X connect 22 0 5 1;
#X connect 23 0 24 0;
#X connect 24 0 21 1;
#X connect 25 0 23 0;
#X connect 26 0 27 0;
#X connect 27 0 22 1;
#X connect 28 0 26 0;
#X connect 29 0 10 0;
#X connect 30 0 21 0;
#X connect 30 0 22 0;
#X connect 31 0 30 0;
#X restore 392 386 pd damping;
#N canvas 35 341 670 300 outrev 0;
#X obj 97 32 inlet~;
#X obj 182 34 inlet~;
#X obj 181 226 *~;
#X obj 97 226 *~;
#X obj 97 249 outlet~;
#X obj 181 250 outlet~;
#X msg 195 168 \$1 10;
#X obj 195 191 line~;
#X obj 515 81 > 0;
#X obj 515 104 change;
#X obj 515 138 switch~ 0;
#X obj 195 124 r \$0-reverb;
#X obj 515 58 r \$0-reverb;
#X obj 195 147 / 100;
#X obj 97 57 pp.echo-stupid-rev~ 120 0.4 1000 0.77;
#X obj 182 84 pp.echo-stupid-rev~ 120 0.4 1000 0.77;
#X connect 0 0 14 0;
#X connect 1 0 15 0;
#X connect 2 0 5 0;
#X connect 3 0 4 0;
#X connect 6 0 7 0;
#X connect 7 0 2 1;
#X connect 7 0 3 1;
#X connect 8 0 9 0;
#X connect 9 0 10 0;
#X connect 11 0 13 0;
#X connect 12 0 8 0;
#X connect 13 0 6 0;
#X connect 14 0 3 0;
#X connect 15 0 2 0;
#X restore 190 555 pd outrev;
#X f 11;
#X obj 699 566 line~;
#X obj 752 620 +~;
#X msg 699 543 \$1 100;
#N canvas 193 76 650 533 feed-freqsfift 0;
#X obj 61 55 inlet~;
#N canvas 1 57 450 300 freqshift 0;
#X obj 115 19 inlet~;
#X obj 114 187 *~;
#X obj 210 186 *~;
#X obj 115 221 -~;
#X obj 115 277 outlet~;
#X obj 199 17 inlet~;
#X obj 200 110 cos~;
#X obj 239 129 +~ -0.25;
#X obj 239 151 cos~;
#N canvas 220 72 637 401 olli 0;
#X obj 292 117 inlet~;
#X obj 43 299 outlet~;
#X obj 293 304 outlet~;
#X obj 43 174 biquad~ 0 0.161758 0.161758 0 -1;
#X obj 43 203 biquad~ 0 0.733029 0.733029 0 -1;
#X obj 43 235 biquad~ 0 0.94535 0.94535 0 -1;
#X obj 43 262 biquad~ 0 0.990598 0.990598 0 -1;
#X obj 293 177 biquad~ 0 0.479401 0.479401 0 -1;
#X obj 293 207 biquad~ 0 0.876218 0.876218 0 -1;
#X obj 293 239 biquad~ 0 0.976599 0.976599 0 -1;
#X obj 293 267 biquad~ 0 0.9975 0.9975 0 -1;
#X text 95 300 first phase;
#X text 349 303 second phase;
#X text 177 302 << 90 degree >>;
#X obj 293 150 rzero_rev~ 0;
#X text 40 43 Olli Niemitalo's quadrature transform coefficients;
#X text 39 78 http://yehar.com/blog/?p=368;
#X text 39 63 http://www.katjaas.nl/hilbert/hilbert.html;
#X connect 0 0 3 0;
#X connect 0 0 14 0;
#X connect 3 0 4 0;
#X connect 4 0 5 0;
#X connect 5 0 6 0;
#X connect 6 0 1 0;
#X connect 7 0 8 0;
#X connect 8 0 9 0;
#X connect 9 0 10 0;
#X connect 10 0 2 0;
#X connect 14 0 7 0;
#X restore 115 61 pd olli;
#X obj 315 72 switch~ 0;
#X obj 315 48 != 0;
#X obj 315 26 r \$0-ssb-amount;
#X connect 0 0 9 0;
#X connect 1 0 3 0;
#X connect 2 0 3 1;
#X connect 3 0 4 0;
#X connect 5 0 6 0;
#X connect 5 0 7 0;
#X connect 6 0 1 1;
#X connect 7 0 8 0;
#X connect 8 0 2 1;
#X connect 9 0 1 0;
#X connect 9 1 2 0;
#X connect 11 0 10 0;
#X connect 12 0 11 0;
#X restore 228 261 pd freqshift;
#X obj 196 616 outlet~;
#X obj 334 48 inlet~;
#N canvas 1 57 450 300 freqshift 0;
#X obj 115 19 inlet~;
#X obj 114 187 *~;
#X obj 210 186 *~;
#X obj 115 221 -~;
#X obj 115 277 outlet~;
#X obj 199 17 inlet~;
#X obj 200 110 cos~;
#X obj 239 129 +~ -0.25;
#X obj 239 151 cos~;
#N canvas 220 72 637 401 olli 0;
#X obj 292 117 inlet~;
#X obj 43 299 outlet~;
#X obj 293 304 outlet~;
#X obj 43 174 biquad~ 0 0.161758 0.161758 0 -1;
#X obj 43 203 biquad~ 0 0.733029 0.733029 0 -1;
#X obj 43 235 biquad~ 0 0.94535 0.94535 0 -1;
#X obj 43 262 biquad~ 0 0.990598 0.990598 0 -1;
#X obj 293 177 biquad~ 0 0.479401 0.479401 0 -1;
#X obj 293 207 biquad~ 0 0.876218 0.876218 0 -1;
#X obj 293 239 biquad~ 0 0.976599 0.976599 0 -1;
#X obj 293 267 biquad~ 0 0.9975 0.9975 0 -1;
#X text 95 300 first phase;
#X text 349 303 second phase;
#X text 177 302 << 90 degree >>;
#X obj 293 150 rzero_rev~ 0;
#X text 40 43 Olli Niemitalo's quadrature transform coefficients;
#X text 39 78 http://yehar.com/blog/?p=368;
#X text 39 63 http://www.katjaas.nl/hilbert/hilbert.html;
#X connect 0 0 3 0;
#X connect 0 0 14 0;
#X connect 3 0 4 0;
#X connect 4 0 5 0;
#X connect 5 0 6 0;
#X connect 6 0 1 0;
#X connect 7 0 8 0;
#X connect 8 0 9 0;
#X connect 9 0 10 0;
#X connect 10 0 2 0;
#X connect 14 0 7 0;
#X restore 115 61 pd olli;
#X obj 315 72 switch~ 0;
#X obj 315 48 != 0;
#X obj 315 26 r \$0-ssb-amount;
#X connect 0 0 9 0;
#X connect 1 0 3 0;
#X connect 2 0 3 1;
#X connect 3 0 4 0;
#X connect 5 0 6 0;
#X connect 5 0 7 0;
#X connect 6 0 1 1;
#X connect 7 0 8 0;
#X connect 8 0 2 1;
#X connect 9 0 1 0;
#X connect 9 1 2 0;
#X connect 11 0 10 0;
#X connect 12 0 11 0;
#X restore 228 302 pd freqshift;
#X obj 172 266 *~;
#X obj 172 312 sqrt~;
#X obj 173 337 sqrt~;
#X obj 157 359 sig~ 1;
#X obj 158 383 -~;
#X obj 213 414 *~;
#X obj 197 441 +~;
#X obj 110 406 *~;
#X obj 172 289 lop~ 20;
#X obj 503 96 line~;
#X obj 77 495 sig~ 1;
#X obj 77 518 -~;
#X obj 62 543 *~;
#X obj 197 573 *~;
#X obj 172 241 *~;
#X obj 378 140 clip~ 1 2;
#X obj 378 163 -~ 1;
#X obj 364 197 -~;
#X obj 336 165 sig~ 1;
#X obj 502 473 clip~ 0 1;
#X obj 503 43 r \$0-ssb-amount;
#X obj 503 66 / 50;
#X connect 0 0 12 0;
#X connect 0 0 17 0;
#X connect 0 0 19 0;
#X connect 0 0 1 0;
#X connect 1 0 4 0;
#X connect 3 0 1 1;
#X connect 3 0 4 1;
#X connect 4 0 10 1;
#X connect 5 0 13 0;
#X connect 6 0 7 0;
#X connect 7 0 9 1;
#X connect 7 0 12 1;
#X connect 8 0 9 0;
#X connect 9 0 10 0;
#X connect 10 0 11 1;
#X connect 11 0 18 0;
#X connect 12 0 11 0;
#X connect 13 0 6 0;
#X connect 14 0 20 0;
#X connect 14 0 24 0;
#X connect 15 0 16 0;
#X connect 16 0 17 1;
#X connect 17 0 2 0;
#X connect 18 0 2 0;
#X connect 19 0 5 0;
#X connect 19 0 5 1;
#X connect 20 0 21 0;
#X connect 21 0 22 1;
#X connect 22 0 19 1;
#X connect 23 0 22 0;
#X connect 24 0 18 1;
#X connect 24 0 16 1;
#X connect 25 0 26 0;
#X connect 26 0 14 0;
#X restore 390 674 pd feed-freqsfift;
#X f 20;
#N canvas 146 96 650 533 feed-freqsfift 0;
#X obj 61 55 inlet~;
#N canvas 1 57 450 300 freqshift 0;
#X obj 115 19 inlet~;
#X obj 114 187 *~;
#X obj 210 186 *~;
#X obj 115 221 -~;
#X obj 115 277 outlet~;
#X obj 199 17 inlet~;
#X obj 200 110 cos~;
#X obj 239 129 +~ -0.25;
#X obj 239 151 cos~;
#N canvas 220 72 637 401 olli 0;
#X obj 292 117 inlet~;
#X obj 43 299 outlet~;
#X obj 293 304 outlet~;
#X obj 43 174 biquad~ 0 0.161758 0.161758 0 -1;
#X obj 43 203 biquad~ 0 0.733029 0.733029 0 -1;
#X obj 43 235 biquad~ 0 0.94535 0.94535 0 -1;
#X obj 43 262 biquad~ 0 0.990598 0.990598 0 -1;
#X obj 293 177 biquad~ 0 0.479401 0.479401 0 -1;
#X obj 293 207 biquad~ 0 0.876218 0.876218 0 -1;
#X obj 293 239 biquad~ 0 0.976599 0.976599 0 -1;
#X obj 293 267 biquad~ 0 0.9975 0.9975 0 -1;
#X text 95 300 first phase;
#X text 349 303 second phase;
#X text 177 302 << 90 degree >>;
#X obj 293 150 rzero_rev~ 0;
#X text 40 43 Olli Niemitalo's quadrature transform coefficients;
#X text 39 78 http://yehar.com/blog/?p=368;
#X text 39 63 http://www.katjaas.nl/hilbert/hilbert.html;
#X connect 0 0 3 0;
#X connect 0 0 14 0;
#X connect 3 0 4 0;
#X connect 4 0 5 0;
#X connect 5 0 6 0;
#X connect 6 0 1 0;
#X connect 7 0 8 0;
#X connect 8 0 9 0;
#X connect 9 0 10 0;
#X connect 10 0 2 0;
#X connect 14 0 7 0;
#X restore 115 61 pd olli;
#X obj 315 72 switch~ 0;
#X obj 315 48 != 0;
#X obj 315 26 r \$0-ssb-amount;
#X connect 0 0 9 0;
#X connect 1 0 3 0;
#X connect 2 0 3 1;
#X connect 3 0 4 0;
#X connect 5 0 6 0;
#X connect 5 0 7 0;
#X connect 6 0 1 1;
#X connect 7 0 8 0;
#X connect 8 0 2 1;
#X connect 9 0 1 0;
#X connect 9 1 2 0;
#X connect 11 0 10 0;
#X connect 12 0 11 0;
#X restore 228 261 pd freqshift;
#X obj 196 616 outlet~;
#X obj 334 48 inlet~;
#N canvas 1 57 450 300 freqshift 0;
#X obj 115 19 inlet~;
#X obj 114 187 *~;
#X obj 210 186 *~;
#X obj 115 221 -~;
#X obj 115 277 outlet~;
#X obj 199 17 inlet~;
#X obj 200 110 cos~;
#X obj 239 129 +~ -0.25;
#X obj 239 151 cos~;
#N canvas 220 72 637 401 olli 0;
#X obj 292 117 inlet~;
#X obj 43 299 outlet~;
#X obj 293 304 outlet~;
#X obj 43 174 biquad~ 0 0.161758 0.161758 0 -1;
#X obj 43 203 biquad~ 0 0.733029 0.733029 0 -1;
#X obj 43 235 biquad~ 0 0.94535 0.94535 0 -1;
#X obj 43 262 biquad~ 0 0.990598 0.990598 0 -1;
#X obj 293 177 biquad~ 0 0.479401 0.479401 0 -1;
#X obj 293 207 biquad~ 0 0.876218 0.876218 0 -1;
#X obj 293 239 biquad~ 0 0.976599 0.976599 0 -1;
#X obj 293 267 biquad~ 0 0.9975 0.9975 0 -1;
#X text 95 300 first phase;
#X text 349 303 second phase;
#X text 177 302 << 90 degree >>;
#X obj 293 150 rzero_rev~ 0;
#X text 40 43 Olli Niemitalo's quadrature transform coefficients;
#X text 39 78 http://yehar.com/blog/?p=368;
#X text 39 63 http://www.katjaas.nl/hilbert/hilbert.html;
#X connect 0 0 3 0;
#X connect 0 0 14 0;
#X connect 3 0 4 0;
#X connect 4 0 5 0;
#X connect 5 0 6 0;
#X connect 6 0 1 0;
#X connect 7 0 8 0;
#X connect 8 0 9 0;
#X connect 9 0 10 0;
#X connect 10 0 2 0;
#X connect 14 0 7 0;
#X restore 115 61 pd olli;
#X obj 315 72 switch~ 0;
#X obj 315 48 != 0;
#X obj 315 26 r \$0-ssb-amount;
#X connect 0 0 9 0;
#X connect 1 0 3 0;
#X connect 2 0 3 1;
#X connect 3 0 4 0;
#X connect 5 0 6 0;
#X connect 5 0 7 0;
#X connect 6 0 1 1;
#X connect 7 0 8 0;
#X connect 8 0 2 1;
#X connect 9 0 1 0;
#X connect 9 1 2 0;
#X connect 11 0 10 0;
#X connect 12 0 11 0;
#X restore 228 302 pd freqshift;
#X obj 172 266 *~;
#X obj 172 312 sqrt~;
#X obj 173 337 sqrt~;
#X obj 157 359 sig~ 1;
#X obj 158 383 -~;
#X obj 213 414 *~;
#X obj 197 441 +~;
#X obj 110 406 *~;
#X obj 172 289 lop~ 20;
#X msg 503 73 \$1 20;
#X obj 503 96 line~;
#X obj 77 495 sig~ 1;
#X obj 77 518 -~;
#X obj 62 543 *~;
#X obj 197 573 *~;
#X obj 172 241 *~;
#X obj 378 140 clip~ 1 2;
#X obj 378 163 -~ 1;
#X obj 364 197 -~;
#X obj 336 165 sig~ 1;
#X obj 502 473 clip~ 0 1;
#X obj 503 26 r \$0-ssb-amount;
#X obj 503 49 / 50;
#X connect 0 0 12 0;
#X connect 0 0 18 0;
#X connect 0 0 20 0;
#X connect 0 0 1 0;
#X connect 1 0 4 0;
#X connect 3 0 1 1;
#X connect 3 0 4 1;
#X connect 4 0 10 1;
#X connect 5 0 13 0;
#X connect 6 0 7 0;
#X connect 7 0 9 1;
#X connect 7 0 12 1;
#X connect 8 0 9 0;
#X connect 9 0 10 0;
#X connect 10 0 11 1;
#X connect 11 0 19 0;
#X connect 12 0 11 0;
#X connect 13 0 6 0;
#X connect 14 0 15 0;
#X connect 15 0 21 0;
#X connect 15 0 25 0;
#X connect 16 0 17 0;
#X connect 17 0 18 1;
#X connect 18 0 2 0;
#X connect 19 0 2 0;
#X connect 20 0 5 0;
#X connect 20 0 5 1;
#X connect 21 0 22 0;
#X connect 22 0 23 1;
#X connect 23 0 20 1;
#X connect 24 0 23 0;
#X connect 25 0 19 1;
#X connect 25 0 17 1;
#X connect 26 0 27 0;
#X connect 27 0 14 0;
#X restore 635 674 pd feed-freqsfift;
#X f 20;
#X obj 683 121 r \$0-feedback;
#X obj 683 144 / 100;
#N canvas 1 75 450 300 pingpong 0;
#X obj 66 51 inlet~;
#X obj 254 48 inlet~;
#X obj 66 214 outlet~;
#X obj 255 214 outlet~;
#X obj 65 131 *~ 1;
#X obj 255 130 *~ 1;
#X obj 126 134 *~;
#X obj 192 133 *~;
#X obj 141 48 r \$0-pingpong;
#X obj 276 90 == 0;
#X connect 0 0 4 0;
#X connect 0 0 6 0;
#X connect 1 0 5 0;
#X connect 1 0 7 1;
#X connect 4 0 2 0;
#X connect 5 0 3 0;
#X connect 6 0 3 0;
#X connect 7 0 2 0;
#X connect 8 0 9 0;
#X connect 8 0 6 1;
#X connect 8 0 7 0;
#X connect 9 0 4 1;
#X connect 9 0 5 1;
#X restore 391 530 pd pingpong;
#X f 41;
#N canvas 53 282 372 367 repeats 0;
#X obj 67 39 inlet~;
#N canvas 227 319 802 300 single 0;
#X obj 131 45 inlet~;
#X obj 129 256 outlet~;
#X obj 252 205 delread4~ \$0-del-r;
#X obj 129 205 delread4~ \$0-del-l;
#X obj 253 257 outlet~;
#X obj 252 40 inlet~;
#X obj 628 106 switch~ 0;
#X obj 130 144 +~;
#X obj 251 146 +~;
#N canvas 114 274 450 300 flutter 0;
#X obj 91 72 noise~;
#X obj 91 99 samphold~;
#X obj 94 261 outlet~;
#X obj 93 226 *~;
#X msg 151 203 \$1 100;
#X obj 151 226 line~;
#X obj 92 121 lop~ 20;
#X obj 93 144 *~ 0.05;
#X obj 143 74 phasor~ 12.6;
#X obj 151 180 / 100;
#X obj 151 157 r \$0-flutter;
#X connect 0 0 1 0;
#X connect 1 0 6 0;
#X connect 3 0 2 0;
#X connect 4 0 5 0;
#X connect 5 0 3 1;
#X connect 6 0 7 0;
#X connect 7 0 3 0;
#X connect 8 0 1 1;
#X connect 9 0 4 0;
#X connect 10 0 9 0;
#X restore 267 98 pd flutter;
#X obj 628 42 r \$0-repeats;
#X obj 628 67 == 0;
#X connect 0 0 7 0;
#X connect 2 0 4 0;
#X connect 3 0 1 0;
#X connect 5 0 8 0;
#X connect 7 0 3 0;
#X connect 8 0 2 0;
#X connect 9 0 8 1;
#X connect 9 0 7 1;
#X connect 10 0 11 0;
#X connect 11 0 6 0;
#X restore 66 251 pd single;
#X obj 66 303 outlet~;
#X obj 255 304 outlet~;
#N canvas 1 57 944 423 double 0;
#X obj 140 33 inlet~;
#X obj 142 348 outlet~;
#X obj 140 265 delread4~ \$0-del-l;
#X obj 261 264 delread4~ \$0-del-l;
#X obj 428 340 outlet~;
#X obj 429 262 delread4~ \$0-del-r;
#X obj 550 261 delread4~ \$0-del-r;
#X obj 428 25 inlet~;
#X obj 141 309 /~ 2;
#X obj 429 303 /~ 2;
#X obj 811 76 switch~ 0;
#X obj 140 190 +~;
#X obj 428 191 +~;
#X obj 549 189 +~;
#X obj 260 115 +~;
#N canvas 114 274 450 300 flutter 0;
#X obj 91 72 noise~;
#X obj 91 99 samphold~;
#X obj 94 261 outlet~;
#X obj 93 226 *~;
#X obj 92 121 lop~ 20;
#X obj 93 144 *~ 0.05;
#X obj 143 74 phasor~ 12.6;
#X msg 151 203 \$1 100;
#X obj 151 226 line~;
#X obj 151 180 / 100;
#X obj 151 157 r \$0-flutter;
#X connect 0 0 1 0;
#X connect 1 0 4 0;
#X connect 3 0 2 0;
#X connect 4 0 5 0;
#X connect 5 0 3 0;
#X connect 6 0 1 1;
#X connect 7 0 8 0;
#X connect 8 0 3 1;
#X connect 9 0 7 0;
#X connect 10 0 9 0;
#X restore 442 134 pd flutter;
#N canvas 114 274 450 300 flutter 0;
#X obj 91 72 noise~;
#X obj 91 99 samphold~;
#X obj 94 261 outlet~;
#X obj 93 226 *~;
#X obj 92 121 lop~ 20;
#X obj 93 144 *~ 0.05;
#X obj 143 74 phasor~ 12.6;
#X msg 151 203 \$1 100;
#X obj 151 226 line~;
#X obj 151 180 / 100;
#X obj 151 157 r \$0-flutter;
#X connect 0 0 1 0;
#X connect 1 0 4 0;
#X connect 3 0 2 0;
#X connect 4 0 5 0;
#X connect 5 0 3 0;
#X connect 6 0 1 1;
#X connect 7 0 8 0;
#X connect 8 0 3 1;
#X connect 9 0 7 0;
#X connect 10 0 9 0;
#X restore 565 66 pd flutter;
#X obj 811 25 r \$0-repeats;
#X obj 811 48 == 1;
#X obj 260 85 *~ 3;
#X obj 549 159 *~ 3;
#X connect 0 0 11 0;
#X connect 0 0 19 0;
#X connect 2 0 8 0;
#X connect 3 0 8 0;
#X connect 5 0 9 0;
#X connect 6 0 9 0;
#X connect 7 0 12 0;
#X connect 7 0 20 0;
#X connect 8 0 1 0;
#X connect 9 0 4 0;
#X connect 11 0 2 0;
#X connect 12 0 5 0;
#X connect 13 0 6 0;
#X connect 14 0 3 0;
#X connect 15 0 12 1;
#X connect 15 0 11 1;
#X connect 16 0 13 1;
#X connect 16 0 14 1;
#X connect 17 0 18 0;
#X connect 18 0 10 0;
#X connect 19 0 14 0;
#X connect 20 0 13 0;
#X restore 135 251 pd double;
#N canvas 71 96 1260 482 triple 0;
#X obj 140 33 inlet~;
#X obj 140 370 outlet~;
#X obj 140 225 delread4~ \$0-del-l;
#X obj 261 224 delread4~ \$0-del-l;
#X obj 383 225 delread4~ \$0-del-l;
#X obj 519 374 outlet~;
#X obj 519 227 delread4~ \$0-del-r;
#X obj 640 223 delread4~ \$0-del-r;
#X obj 762 224 delread4~ \$0-del-r;
#X obj 521 34 inlet~;
#X obj 856 84 switch~ 0;
#X obj 140 120 +~;
#X obj 521 123 +~;
#X obj 262 143 +~;
#X obj 382 143 +~;
#X obj 639 150 +~;
#X obj 762 148 +~;
#N canvas 114 274 450 300 flutter 0;
#X obj 91 72 noise~;
#X obj 91 99 samphold~;
#X obj 94 261 outlet~;
#X obj 93 226 *~;
#X obj 92 121 lop~ 20;
#X obj 93 144 *~ 0.05;
#X obj 143 74 phasor~ 12.6;
#X msg 151 203 \$1 100;
#X obj 151 226 line~;
#X obj 151 180 / 100;
#X obj 151 157 r \$0-flutter;
#X connect 0 0 1 0;
#X connect 1 0 4 0;
#X connect 3 0 2 0;
#X connect 4 0 5 0;
#X connect 5 0 3 0;
#X connect 6 0 1 1;
#X connect 7 0 8 0;
#X connect 8 0 3 1;
#X connect 9 0 7 0;
#X connect 10 0 9 0;
#X restore 278 26 pd flutter;
#N canvas 114 274 450 300 flutter 0;
#X obj 91 72 noise~;
#X obj 91 99 samphold~;
#X obj 94 261 outlet~;
#X obj 93 226 *~;
#X obj 92 121 lop~ 20;
#X obj 93 144 *~ 0.05;
#X obj 143 74 phasor~ 12.6;
#X msg 151 203 \$1 100;
#X obj 151 226 line~;
#X obj 151 180 / 100;
#X obj 151 157 r \$0-flutter;
#X connect 0 0 1 0;
#X connect 1 0 4 0;
#X connect 3 0 2 0;
#X connect 4 0 5 0;
#X connect 5 0 3 0;
#X connect 6 0 1 1;
#X connect 7 0 8 0;
#X connect 8 0 3 1;
#X connect 9 0 7 0;
#X connect 10 0 9 0;
#X restore 346 25 pd flutter;
#N canvas 114 274 450 300 flutter 0;
#X obj 91 72 noise~;
#X obj 91 99 samphold~;
#X obj 94 261 outlet~;
#X obj 93 226 *~;
#X obj 92 121 lop~ 20;
#X obj 93 144 *~ 0.05;
#X obj 143 74 phasor~ 12.6;
#X msg 151 203 \$1 100;
#X obj 151 226 line~;
#X obj 151 180 / 100;
#X obj 151 157 r \$0-flutter;
#X connect 0 0 1 0;
#X connect 1 0 4 0;
#X connect 3 0 2 0;
#X connect 4 0 5 0;
#X connect 5 0 3 0;
#X connect 6 0 1 1;
#X connect 7 0 8 0;
#X connect 8 0 3 1;
#X connect 9 0 7 0;
#X connect 10 0 9 0;
#X restore 415 26 pd flutter;
#X obj 856 33 r \$0-repeats;
#X obj 856 56 == 2;
#X obj 139 331 /~ 3;
#X obj 520 337 /~ 3;
#X obj 762 123 *~ 4;
#X obj 382 119 *~ 4;
#X obj 262 120 *~ 2;
#X obj 639 125 *~ 2;
#X connect 0 0 11 0;
#X connect 0 0 25 0;
#X connect 0 0 26 0;
#X connect 2 0 22 0;
#X connect 3 0 22 0;
#X connect 4 0 22 0;
#X connect 6 0 23 0;
#X connect 7 0 23 0;
#X connect 8 0 23 0;
#X connect 9 0 12 0;
#X connect 9 0 24 0;
#X connect 9 0 27 0;
#X connect 11 0 2 0;
#X connect 12 0 6 0;
#X connect 13 0 3 0;
#X connect 14 0 4 0;
#X connect 15 0 7 0;
#X connect 16 0 8 0;
#X connect 17 0 11 1;
#X connect 17 0 12 1;
#X connect 18 0 13 1;
#X connect 18 0 15 1;
#X connect 19 0 14 1;
#X connect 19 0 16 1;
#X connect 20 0 21 0;
#X connect 21 0 10 0;
#X connect 22 0 1 0;
#X connect 23 0 5 0;
#X connect 24 0 16 0;
#X connect 25 0 14 0;
#X connect 26 0 13 0;
#X connect 27 0 15 0;
#X restore 204 249 pd triple;
#X obj 254 46 inlet~;
#X connect 0 0 1 0;
#X connect 0 0 4 0;
#X connect 0 0 5 0;
#X connect 1 0 2 0;
#X connect 1 1 3 0;
#X connect 4 0 2 0;
#X connect 4 1 3 0;
#X connect 5 0 2 0;
#X connect 5 1 3 0;
#X connect 6 0 5 1;
#X connect 6 0 4 1;
#X connect 6 0 1 1;
#X restore 406 174 pd repeats;
#X f 41;
#X obj 683 191 line~;
#X msg 683 168 \$1 10;
#X obj 699 521 r \$0-shift;
#N canvas 1 57 607 400 dry/wet 0;
#X obj 46 0 inlet~;
#X obj 388 119 line~;
#X obj 388 97 pack 0 30;
#X obj 272 254 *~;
#X obj 326 256 *~;
#X obj 46 374 outlet~;
#X obj 121 375 outlet~;
#X obj 136 217 -~;
#X obj 388 39 r \$0-drywet;
#X obj 272 1 inlet~;
#X obj 326 1 inlet~;
#X obj 45 253 *~;
#X obj 121 1 inlet~;
#X obj 120 256 *~;
#X obj 388 62 / 50;
#X obj 150 193 clip~ 1 2;
#X obj 136 150 sig~ 2;
#X obj 389 196 clip~ 0 1;
#X connect 0 0 11 0;
#X connect 1 0 15 0;
#X connect 1 0 17 0;
#X connect 2 0 1 0;
#X connect 3 0 5 0;
#X connect 4 0 6 0;
#X connect 7 0 11 1;
#X connect 7 0 13 1;
#X connect 8 0 14 0;
#X connect 9 0 3 0;
#X connect 10 0 4 0;
#X connect 11 0 5 0;
#X connect 12 0 13 0;
#X connect 13 0 6 0;
#X connect 14 0 2 0;
#X connect 15 0 7 1;
#X connect 16 0 7 0;
#X connect 17 0 4 1;
#X connect 17 0 3 1;
#X restore 67 601 pd dry/wet;
#X f 31;
#X obj 405 89 inlet~;
#X obj 648 87 inlet~;
#X text 408 64 deltime-l;
#X text 645 64 deltime-r;
#X obj 799 84 inlet~;
#X text 809 59 ssb-shift;
#X obj 635 702 delwrite~ \$0-del-r \$1;
#X obj 390 702 delwrite~ \$0-del-l \$1;
#N canvas 596 297 479 300 distort 0;
#X obj 72 11 inlet~;
#X obj 72 240 outlet~;
#N canvas 1 57 450 300 dist1 0;
#X obj 72 0 inlet~;
#X obj 72 255 outlet~;
#X obj 73 172 expr~ atan($v1);
#X obj 168 45 *~;
#X obj 73 150 *~;
#X obj 73 195 *~;
#X obj 152 122 sig~ 1;
#X obj 152 147 /~;
#X obj 168 91 sqrt~;
#X obj 168 66 lop~ 1;
#X obj 304 14 r \$0-dist-mode;
#X obj 304 37 == 0;
#X obj 304 60 switch~;
#X connect 0 0 3 0;
#X connect 0 0 3 1;
#X connect 0 0 4 0;
#X connect 2 0 5 0;
#X connect 3 0 9 0;
#X connect 4 0 2 0;
#X connect 5 0 1 0;
#X connect 6 0 7 0;
#X connect 7 0 5 1;
#X connect 8 0 7 1;
#X connect 8 0 4 1;
#X connect 9 0 8 0;
#X connect 10 0 11 0;
#X connect 11 0 12 0;
#X restore 72 115 pd dist1;
#N canvas 1 57 450 300 dist2 0;
#X obj 71 10 inlet~;
#X obj 72 255 outlet~;
#X obj 304 14 r \$0-dist-mode;
#X obj 304 60 switch~;
#X obj 304 37 != 0;
#X obj 72 118 expr~ tanh($v1);
#X connect 0 0 5 0;
#X connect 2 0 4 0;
#X connect 4 0 3 0;
#X connect 5 0 1 0;
#X restore 143 115 pd dist2;
#X connect 0 0 2 0;
#X connect 0 0 3 0;
#X connect 2 0 1 0;
#X connect 3 0 1 0;
#X restore 391 358 pd distort;
#N canvas 357 319 753 367 deltimes 0;
#X obj 441 39 r \$0-deltime-r;
#X obj 231 43 r \$0-deltime-l;
#X msg 349 87 \$1 100;
#X obj 349 110 line~;
#X obj 333 156 *~;
#X obj 349 40 r \$0-flutter;
#X obj 231 229 +~;
#X obj 201 265 +~;
#X obj 426 245 +~;
#X obj 427 285 +~;
#X obj 625 41 inlet~;
#X obj 134 42 inlet~;
#X obj 201 316 outlet~;
#X obj 427 311 outlet~;
#N canvas 195 315 450 300 wow 0;
#X obj 163 46 noise~;
#X obj 163 69 samphold~;
#X obj 214 46 phasor~ 1.2;
#X obj 163 92 abs~;
#X obj 163 170 lop~ 1;
#X obj 163 193 outlet~;
#X obj 163 141 clip~ 0 1;
#X obj 163 118 *~ 2.5;
#X connect 0 0 1 0;
#X connect 1 0 3 0;
#X connect 2 0 1 1;
#X connect 3 0 7 0;
#X connect 4 0 5 0;
#X connect 6 0 4 0;
#X connect 7 0 6 0;
#X restore 293 123 pd wow;
#X obj 349 63 / 500;
#X obj 231 93 line~;
#X obj 441 89 line~;
#X msg 231 66 \$1 700;
#X msg 441 62 \$1 700;
#X connect 0 0 19 0;
#X connect 1 0 18 0;
#X connect 2 0 3 0;
#X connect 3 0 4 1;
#X connect 4 0 8 0;
#X connect 4 0 6 1;
#X connect 5 0 15 0;
#X connect 6 0 7 1;
#X connect 7 0 12 0;
#X connect 8 0 9 0;
#X connect 9 0 13 0;
#X connect 10 0 9 1;
#X connect 11 0 7 0;
#X connect 14 0 4 0;
#X connect 15 0 2 0;
#X connect 16 0 6 0;
#X connect 17 0 8 1;
#X connect 18 0 16 0;
#X connect 19 0 17 0;
#X restore 405 140 pd deltimes;
#X f 41;
#N canvas 596 297 479 300 distort 0;
#X obj 72 11 inlet~;
#X obj 72 240 outlet~;
#N canvas 1 57 450 300 dist1 0;
#X obj 72 0 inlet~;
#X obj 72 255 outlet~;
#X obj 73 172 expr~ atan($v1);
#X obj 168 45 *~;
#X obj 73 150 *~;
#X obj 73 195 *~;
#X obj 152 122 sig~ 1;
#X obj 152 147 /~;
#X obj 168 91 sqrt~;
#X obj 168 66 lop~ 1;
#X obj 304 14 r \$0-dist-mode;
#X obj 304 37 == 0;
#X obj 304 60 switch~;
#X connect 0 0 3 0;
#X connect 0 0 3 1;
#X connect 0 0 4 0;
#X connect 2 0 5 0;
#X connect 3 0 9 0;
#X connect 4 0 2 0;
#X connect 5 0 1 0;
#X connect 6 0 7 0;
#X connect 7 0 5 1;
#X connect 8 0 7 1;
#X connect 8 0 4 1;
#X connect 9 0 8 0;
#X connect 10 0 11 0;
#X connect 11 0 12 0;
#X restore 72 115 pd dist1;
#N canvas 1 57 450 300 dist2 0;
#X obj 71 10 inlet~;
#X obj 72 255 outlet~;
#X obj 304 14 r \$0-dist-mode;
#X obj 304 60 switch~;
#X obj 304 37 != 0;
#X obj 71 112 expr~ tanh($v1);
#X connect 0 0 5 0;
#X connect 2 0 4 0;
#X connect 4 0 3 0;
#X connect 5 0 1 0;
#X restore 143 115 pd dist2;
#X connect 0 0 2 0;
#X connect 0 0 3 0;
#X connect 2 0 1 0;
#X connect 3 0 1 0;
#X restore 635 355 pd distort;
#X obj 391 334 +~;
#X obj 635 333 +~;
#X obj 407 300 *~;
#X obj 650 296 *~;
#N canvas 428 148 607 400 dry/wet 0;
#X obj 46 0 inlet~;
#X obj 388 119 line~;
#X obj 388 97 pack 0 30;
#X obj 272 254 *~;
#X obj 326 256 *~;
#X obj 46 374 outlet~;
#X obj 121 375 outlet~;
#X obj 136 217 -~;
#X obj 388 39 r \$0-drywet;
#X obj 45 253 *~;
#X obj 121 1 inlet~;
#X obj 120 256 *~;
#X obj 388 62 / 50;
#X obj 150 193 clip~ 1 2;
#X obj 136 150 sig~ 2;
#X obj 389 196 clip~ 0 1;
#X obj 271 374 outlet~;
#X obj 325 374 outlet~;
#X connect 0 0 9 0;
#X connect 0 0 3 0;
#X connect 1 0 13 0;
#X connect 1 0 15 0;
#X connect 2 0 1 0;
#X connect 3 0 16 0;
#X connect 4 0 17 0;
#X connect 7 0 9 1;
#X connect 7 0 11 1;
#X connect 8 0 12 0;
#X connect 9 0 5 0;
#X connect 10 0 11 0;
#X connect 10 0 4 0;
#X connect 11 0 6 0;
#X connect 12 0 2 0;
#X connect 13 0 7 1;
#X connect 14 0 7 0;
#X connect 15 0 4 1;
#X connect 15 0 3 1;
#X restore 66 438 pd dry/wet;
#X f 32;
#N canvas 237 165 790 602 damping 0;
#X obj 165 17 inlet~;
#X obj 235 493 lop~;
#X obj 166 586 +~;
#X obj 271 494 r \$0-lop;
#X obj 180 268 -~;
#X obj 180 311 *~;
#X obj 165 362 +~;
#X obj 220 202 r \$0-hip;
#X obj 179 198 hip~;
#X obj 167 683 outlet~;
#X obj 236 541 -~;
#X obj 236 568 *~;
#X obj 165 153 +~;
#X obj 178 220 hip~;
#X obj 167 612 hip~ 5;
#X obj 167 635 hip~ 5;
#X obj 167 658 hip~ 5;
#X obj 336 80 *~;
#X obj 336 103 lop~ 10;
#X obj 336 126 sqrt~;
#X obj 337 151 sqrt~;
#X obj 322 563 *~;
#X obj 209 310 *~;
#X obj 337 519 / 100;
#X obj 337 542 clip 0 1;
#X obj 337 496 r \$0-hf-damping;
#X obj 241 297 / 100;
#X obj 241 320 clip 0 1;
#X obj 241 274 r \$0-lf-damping;
#X obj 235 517 lop~;
#X obj 321 246 -~;
#X obj 321 204 sig~ 1;
#X connect 0 0 12 0;
#X connect 0 0 17 0;
#X connect 0 0 17 1;
#X connect 1 0 29 0;
#X connect 2 0 14 0;
#X connect 3 0 1 1;
#X connect 3 0 29 1;
#X connect 4 0 5 0;
#X connect 5 0 6 1;
#X connect 6 0 1 0;
#X connect 6 0 10 1;
#X connect 6 0 2 0;
#X connect 7 0 8 1;
#X connect 7 0 13 1;
#X connect 8 0 13 0;
#X connect 10 0 11 0;
#X connect 11 0 2 1;
#X connect 12 0 4 1;
#X connect 12 0 8 0;
#X connect 12 0 6 0;
#X connect 13 0 4 0;
#X connect 14 0 15 0;
#X connect 15 0 16 0;
#X connect 16 0 9 0;
#X connect 17 0 18 0;
#X connect 18 0 19 0;
#X connect 19 0 20 0;
#X connect 20 0 30 1;
#X connect 21 0 11 1;
#X connect 22 0 5 1;
#X connect 23 0 24 0;
#X connect 24 0 21 1;
#X connect 25 0 23 0;
#X connect 26 0 27 0;
#X connect 27 0 22 1;
#X connect 28 0 26 0;
#X connect 29 0 10 0;
#X connect 30 0 21 0;
#X connect 30 0 22 0;
#X connect 31 0 30 0;
#X restore 635 383 pd damping;
#X connect 0 0 30 0;
#X connect 0 0 34 0;
#X connect 2 0 31 0;
#X connect 2 0 34 1;
#X connect 4 0 13 0;
#X connect 5 0 18 2;
#X connect 5 1 18 3;
#X connect 6 0 7 0;
#X connect 7 0 9 1;
#X connect 7 0 10 1;
#X connect 8 0 6 0;
#X connect 9 0 26 0;
#X connect 10 0 25 0;
#X connect 11 0 12 0;
#X connect 12 0 16 0;
#X connect 13 0 9 0;
#X connect 13 1 10 0;
#X connect 14 0 32 0;
#X connect 14 0 5 0;
#X connect 14 0 18 2;
#X connect 14 1 33 0;
#X connect 14 1 5 1;
#X connect 14 1 18 3;
#X connect 15 0 33 1;
#X connect 15 0 32 1;
#X connect 16 0 15 0;
#X connect 17 0 8 0;
#X connect 18 0 1 0;
#X connect 18 1 3 0;
#X connect 19 0 28 0;
#X connect 20 0 28 1;
#X connect 23 0 7 1;
#X connect 27 0 4 0;
#X connect 28 0 14 0;
#X connect 28 1 14 1;
#X connect 29 0 35 0;
#X connect 30 0 27 0;
#X connect 31 0 29 0;
#X connect 32 0 30 1;
#X connect 33 0 31 1;
#X connect 34 0 18 0;
#X connect 34 1 18 1;
#X connect 34 2 5 0;
#X connect 34 3 5 1;
#X connect 35 0 13 1;
#X restore 345 267 pd echo;
#X f 24;
#X obj 688 59 inlet;
#N canvas 372 128 859 401 in 0;
#X obj 66 37 inlet;
#N canvas 698 546 200 251 route 0;
#X obj 20 20 inlet;
#X obj 30 60 route save recall;
#X obj 30 85 route float;
#X obj 97 111 route float;
#X obj 30 136 s \$0-save;
#X obj 30 108 i;
#X obj 98 133 i;
#X obj 98 161 s \$0-recall;
#X connect 0 0 1 0;
#X connect 1 0 2 0;
#X connect 1 1 3 0;
#X connect 2 0 5 0;
#X connect 3 0 6 0;
#X connect 5 0 4 0;
#X connect 6 0 7 0;
#X restore 100 66 pd route save-recall;
#N canvas 362 125 450 479 recall 0;
#X obj 49 145 outlet;
#N canvas 3 54 450 600 listsplit 0;
#X obj 158 23 inlet;
#X obj 220 87 list length;
#X obj 220 113 until;
#X obj 182 150 f;
#X obj 278 150 + 1;
#X msg 265 111 0;
#X obj 182 226 list store;
#X msg 182 202 get \$1 1;
#X obj 154 367 list split;
#X obj 222 342 f;
#X obj 154 334 list;
#X obj 98 124 list;
#X obj 182 389 list split 1;
#X obj 154 274 t bang bang bang;
#X obj 182 179 t f f;
#X obj 158 48 t l l l b;
#X obj 154 473 outlet;
#X obj 154 440 list trim;
#X obj 163 248 sel |;
#X text 275 197 hacky split list at "|";
#X connect 0 0 15 0;
#X connect 1 0 2 0;
#X connect 2 0 3 0;
#X connect 3 0 4 0;
#X connect 3 0 14 0;
#X connect 4 0 3 1;
#X connect 5 0 3 1;
#X connect 6 0 18 0;
#X connect 7 0 6 0;
#X connect 8 0 17 0;
#X connect 8 1 12 0;
#X connect 9 0 8 1;
#X connect 10 0 8 0;
#X connect 11 0 15 0;
#X connect 12 1 11 0;
#X connect 13 0 10 0;
#X connect 13 1 9 0;
#X connect 13 2 2 1;
#X connect 14 0 7 0;
#X connect 14 1 9 1;
#X connect 15 0 1 0;
#X connect 15 1 10 1;
#X connect 15 2 6 1;
#X connect 15 3 5 0;
#X connect 17 0 16 0;
#X connect 18 0 13 0;
#X restore 49 117 pd listsplit;
#X obj 49 24 r \$0-recall;
#X obj 49 54 pipe 1;
#X obj 221 409 text fromlist \$0-savestates;
#X obj 49 77 text get \$0-savestates;
#X msg 253 246 21;
#X obj 253 269 until;
#X obj 253 292 f;
#X obj 300 295 + 1;
#X obj 253 315 t b f;
#X obj 253 367 text set \$0-savestates;
#X obj 221 114 text tolist \$0-savestates;
#X msg 253 342 list empty_slot;
#X obj 221 160 t a b;
#X obj 151 166 loadbang;
#X obj 221 137 savestate;
#X obj 221 33 text define \$0-savestates;
#X obj 151 189 del 0;
#X msg 298 199 0;
#X obj 253 220 spigot 1;
#X connect 1 0 0 0;
#X connect 2 0 3 0;
#X connect 3 0 5 0;
#X connect 5 0 1 0;
#X connect 6 0 7 0;
#X connect 7 0 8 0;
#X connect 8 0 9 0;
#X connect 8 0 10 0;
#X connect 9 0 8 1;
#X connect 10 0 13 0;
#X connect 10 1 11 1;
#X connect 12 0 16 0;
#X connect 13 0 11 0;
#X connect 14 0 4 0;
#X connect 14 1 19 0;
#X connect 15 0 18 0;
#X connect 16 0 14 0;
#X connect 16 1 12 0;
#X connect 18 0 20 0;
#X connect 19 0 20 1;
#X connect 20 0 6 0;
#X restore 100 91 pd recall;
#N canvas 1 57 450 300 deltimes 0;
#X obj 51 31 inlet;
#X obj 205 32 inlet;
#X obj 51 121 s \$0-deltime-l-guir;
#X obj 63 77 s \$0-deltime-l;
#X msg 51 99 set \$1;
#X msg 205 102 set \$1;
#X obj 217 79 s \$0-deltime-r;
#X obj 205 124 s \$0-deltime-r-guir;
#X obj 51 54 clip 1 \$1;
#X obj 205 56 clip 1 \$1;
#X connect 0 0 8 0;
#X connect 1 0 9 0;
#X connect 4 0 2 0;
#X connect 5 0 7 0;
#X connect 8 0 3 0;
#X connect 8 0 4 0;
#X connect 9 0 6 0;
#X connect 9 0 5 0;
#X restore 26 177 pd deltimes;
#X obj 127 199 s \$0-pingpongr;
#X obj 127 175 != 0;
#X obj 191 226 i;
#X obj 191 269 - 1;
#X obj 191 248 clip 1 3;
#X obj 191 291 s \$0-repeatsr;
#X obj 233 167 max 0;
#X obj 233 190 s \$0-flutterr;
#X obj 275 218 max 0;
#X obj 275 241 s \$0-feedbackr;
#X obj 316 268 clip 0 100;
#X obj 316 291 s \$0-reverbr;
#X obj 340 164 clip 0 20000;
#X obj 340 187 s \$0-lopr;
#X obj 382 215 clip 0 20000;
#X obj 382 238 s \$0-hipr;
#X obj 418 263 clip 0 100;
#X obj 418 286 s \$0-hf-damping;
#X obj 456 309 clip 0 100;
#X obj 456 332 s \$0-lf-damping;
#X obj 497 161 clip 0 100;
#X obj 497 184 s \$0-ssb-amountr;
#X obj 539 208 s \$0-shiftr;
#X obj 575 261 i;
#X obj 575 238 clip 0 1;
#X obj 676 165 clip 0 100;
#X obj 676 188 s \$0-drywetr;
#X obj 66 123 route time-left time-right pingpong repeats flutter feedback
reverb lop-frequency hip-frequency hf-damping lf-damping ssb-amount
ssb-shift reverb-mode distortion-mode dry/wet, f 105;
#X obj 654 236 i;
#X obj 654 213 clip 0 1;
#X obj 654 259 s \$0-dist-moder;
#X text 571 278 placeholder;
#X connect 0 0 1 0;
#X connect 0 0 31 0;
#X connect 2 0 31 0;
#X connect 5 0 4 0;
#X connect 6 0 8 0;
#X connect 7 0 9 0;
#X connect 8 0 7 0;
#X connect 10 0 11 0;
#X connect 12 0 13 0;
#X connect 14 0 15 0;
#X connect 16 0 17 0;
#X connect 18 0 19 0;
#X connect 20 0 21 0;
#X connect 22 0 23 0;
#X connect 24 0 25 0;
#X connect 28 0 27 0;
#X connect 29 0 30 0;
#X connect 31 0 3 0;
#X connect 31 1 3 1;
#X connect 31 2 5 0;
#X connect 31 3 6 0;
#X connect 31 4 10 0;
#X connect 31 5 12 0;
#X connect 31 6 14 0;
#X connect 31 7 16 0;
#X connect 31 8 18 0;
#X connect 31 9 20 0;
#X connect 31 10 22 0;
#X connect 31 11 24 0;
#X connect 31 12 26 0;
#X connect 31 13 28 0;
#X connect 31 14 33 0;
#X connect 31 15 29 0;
#X connect 32 0 34 0;
#X connect 33 0 32 0;
#X restore 688 82 pd in;
#N canvas 50 60 313 235 \$0-echo 1;
#N canvas 86 150 850 512 mask 0;
#X obj 100 100 cnv 15 299 221 empty empty empty 20 12 0 14 -262144
-66577 0;
#X obj 343 117 cnv 10 10 10 empty empty echo~ 0 5 2 17 -262144 -162280
0;
#X obj 117 184 hsl 100 12 0 110 0 0 \$0-feedback-gui \$0-feedback-guir
Feedback -2 -6 2 10 -262144 -1 -1 7200 1;
#X obj 224 184 nbx 5 12 0 1e+17 0 0 \$0-feedback \$0-feedbackr % 47
8 2 10 -262144 -1 -1 80 256;
#X obj 227 275 hsl 100 12 0 0.5 0 0 \$0-shift-gui \$0-shift-guir SSB-Shift
-2 -6 2 10 -262144 -1 -1 0 1;
#X obj 334 275 nbx 5 12 -1 1 0 0 \$0-shift \$0-shiftr empty 47 7 2
10 -262144 -1 -1 0 256;
#X msg 52 178 set \$1;
#X msg 458 266 set \$1;
#X obj 256 124 nbx 7 14 0 1000 0 0 \$0-deltime-r-gui \$0-deltime-r-guir
Time-Right 0 -7 2 10 -262144 -1 -1 667 256;
#X obj 116 124 nbx 7 14 0 1000 0 0 \$0-deltime-l-gui \$0-deltime-l-guir
Time-Left 0 -7 2 10 -262144 -1 -1 667 256;
#X obj 210 126 tgl 12 0 \$0-link-deltime \$0-link-deltimer Link -4
-7 2 10 -262144 -1 -1 1 1;
#X obj 766 139 nbx 4 12 0 100 0 0 \$0-hf-damping \$0-hf-dampingr %
41 7 2 10 -262144 -1 -1 80 256;
#X obj 660 139 hsl 100 12 0 100 0 0 \$0-hfdgui \$0-hfdguir HF-Damping
-2 -6 2 10 -262144 -1 -1 7920 1;
#X msg 606 136 set \$1;
#X obj 114 246 nbx 5 12 0 20000 0 0 \$0-lop \$0-lopr Lop-Frequency
0 -7 2 10 -262144 -1 -1 4000 256;
#X obj 764 170 nbx 4 12 0 100 0 0 \$0-lf-damping \$0-lf-dampingr %
41 7 2 10 -262144 -1 -1 50 256;
#X obj 658 170 hsl 100 12 0 100 0 0 \$0-lfdgui \$0-lfdguir LF-Damping
-2 -6 2 10 -262144 -1 -1 4950 1;
#X obj 114 275 nbx 5 12 0 20000 0 0 \$0-hip \$0-hipr Hip-Frequency
0 -7 2 10 -262144 -1 -1 100 256;
#X msg 606 163 set \$1;
#X obj 116 148 tgl 12 0 \$0-pingpong \$0-pingpongr Pingpong 15 8 2
10 -262144 -1 -1 0 1;
#X obj 196 148 hradio 12 1 0 3 \$0-repeats \$0-repeatsr Repeats 39
8 2 10 -262144 -1 -1 0;
#X obj 117 212 hsl 100 12 0 50 0 0 \$0-reverb-gui \$0-reverb-guir Reverb
-2 -6 2 10 -262144 -1 -1 0 1;
#X obj 224 212 nbx 5 12 0 100 0 0 \$0-reverb \$0-reverbr % 47 8 2 10
-262144 -1 -1 0 256;
#X msg 51 204 set \$1;
#X obj 285 148 nbx 3 12 0 1e+17 0 0 \$0-flutter \$0-flutterr Flutter
33 8 2 10 -262144 -1 -1 100 256;
#X obj 227 246 hsl 100 12 0 100 0 0 \$0-ssb-amount-gui \$0-ssb-amount-guir
SSB-Amount -2 -6 2 10 -262144 -1 -1 0 1;
#X obj 334 246 nbx 5 12 0 100 0 0 \$0-ssb-amount \$0-ssb-amountr empty
47 7 2 10 -262144 -1 -1 0 256;
#X msg 458 242 set \$1;
#X obj 114 300 nbx 3 12 0 100 0 0 \$0-drywet \$0-drywetr Dry/Wet 33
8 2 10 -262144 -1 -1 50 256;
#X obj 293 184 tgl 12 0 \$0-dist-mode \$0-dist-moder Distortion-Mode
17 8 2 10 -262144 -1 -1 0 1;
#X connect 2 0 3 0;
#X connect 3 0 6 0;
#X connect 4 0 5 0;
#X connect 5 0 7 0;
#X connect 6 0 2 0;
#X connect 7 0 4 0;
#X connect 11 0 13 0;
#X connect 12 0 11 0;
#X connect 13 0 12 0;
#X connect 15 0 18 0;
#X connect 16 0 15 0;
#X connect 18 0 16 0;
#X connect 21 0 22 0;
#X connect 22 0 23 0;
#X connect 23 0 21 0;
#X connect 25 0 26 0;
#X connect 26 0 27 0;
#X connect 27 0 25 0;
#X coords 0 -1 1 1 300 222 2 100 100;
#X restore 2 2 pd mask;
#X coords 0 235 1 234 85 60 0;
#X restore 689 248 pd \$0-echo;
#X obj 689 328 outlet;
#N canvas 208 133 706 588 outlet-message 0;
#X obj 240 453 list trim;
#X msg 160 451 addcomma;
#X msg 96 436 set;
#X obj 240 430 list prepend add2;
#X obj 240 516 outlet;
#X obj 171 268 t b a b;
#X obj 237 368 t b a a;
#N canvas 497 319 297 264 save 0;
#X obj 48 16 inlet;
#N canvas 690 259 481 384 collect 0;
#X obj 47 60 inlet;
#X obj 47 274 outlet;
#X obj 98 180 list;
#X obj 166 181 t l;
#X obj 47 225 list;
#X obj 98 139 list append |;
#X obj 47 126 del 0;
#X obj 47 82 t b a;
#X text 119 75 hacky thing... replaycing " \, " with "|";
#X connect 0 0 7 0;
#X connect 2 0 3 0;
#X connect 2 0 4 1;
#X connect 3 0 2 1;
#X connect 4 0 1 0;
#X connect 5 0 2 0;
#X connect 6 0 2 1;
#X connect 6 0 4 0;
#X connect 7 0 6 0;
#X connect 7 1 5 0;
#X restore 48 38 pd collect;
#X obj 117 16 r \$0-save;
#X obj 27 130 text set \$0-savestates;
#X obj 27 104 list;
#X obj 117 62 t b f;
#X obj 117 39 clip 0 20;
#X connect 0 0 1 0;
#X connect 1 0 4 1;
#X connect 2 0 6 0;
#X connect 4 0 3 0;
#X connect 5 0 4 0;
#X connect 5 1 3 1;
#X connect 6 0 5 0;
#X restore 276 393 pd save;
#N canvas 132 148 830 352 bang_once 0;
#X obj 91 69 t b f;
#X obj 48 195 del 0;
#X obj 48 69 t b f;
#X obj 134 71 t b f;
#X obj 48 23 inlet;
#X obj 91 22 inlet;
#X obj 134 24 inlet;
#X obj 178 25 inlet;
#X obj 48 294 outlet;
#X obj 48 224 f;
#X obj 178 71 t b f;
#X obj 48 250 pack 0 0 0 0 0 0 0 0 0 0 0 0 0 0 0 0, f 114;
#X obj 269 71 t b f;
#X obj 226 71 t b f;
#X obj 312 73 t b f;
#X obj 226 25 inlet;
#X obj 269 24 inlet;
#X obj 312 26 inlet;
#X obj 356 27 inlet;
#X obj 356 73 t b f;
#X obj 405 25 inlet;
#X obj 405 71 t b f;
#X obj 496 71 t b f;
#X obj 453 71 t b f;
#X obj 539 73 t b f;
#X obj 453 25 inlet;
#X obj 496 24 inlet;
#X obj 539 26 inlet;
#X obj 583 27 inlet;
#X obj 583 73 t b f;
#X obj 632 73 t b f;
#X obj 675 75 t b f;
#X obj 632 26 inlet;
#X obj 675 28 inlet;
#X obj 719 29 inlet;
#X obj 719 75 t b f;
#X connect 0 0 1 0;
#X connect 0 1 11 1;
#X connect 1 0 9 0;
#X connect 2 0 1 0;
#X connect 2 1 9 1;
#X connect 3 0 1 0;
#X connect 3 1 11 2;
#X connect 4 0 2 0;
#X connect 5 0 0 0;
#X connect 6 0 3 0;
#X connect 7 0 10 0;
#X connect 9 0 11 0;
#X connect 10 0 1 0;
#X connect 10 1 11 3;
#X connect 11 0 8 0;
#X connect 12 0 1 0;
#X connect 12 1 11 5;
#X connect 13 0 1 0;
#X connect 13 1 11 4;
#X connect 14 0 1 0;
#X connect 14 1 11 6;
#X connect 15 0 13 0;
#X connect 16 0 12 0;
#X connect 17 0 14 0;
#X connect 18 0 19 0;
#X connect 19 0 1 0;
#X connect 19 1 11 7;
#X connect 20 0 21 0;
#X connect 21 0 1 0;
#X connect 21 1 11 8;
#X connect 22 0 1 0;
#X connect 22 1 11 10;
#X connect 23 0 1 0;
#X connect 23 1 11 9;
#X connect 24 0 1 0;
#X connect 24 1 11 11;
#X connect 25 0 23 0;
#X connect 26 0 22 0;
#X connect 27 0 24 0;
#X connect 28 0 29 0;
#X connect 29 0 1 0;
#X connect 29 1 11 12;
#X connect 30 0 1 0;
#X connect 30 1 11 13;
#X connect 31 0 1 0;
#X connect 31 1 11 14;
#X connect 32 0 30 0;
#X connect 33 0 31 0;
#X connect 34 0 35 0;
#X connect 35 0 1 0;
#X connect 35 1 11 15;
#X restore 171 242 pd bang_once;
#X f 65;
#X obj 196 70 r \$0-deltime-r;
#X obj 171 32 r \$0-deltime-l;
#X obj 413 127 r \$0-hf-damping;
#X obj 429 149 r \$0-lf-damping;
#X obj 222 101 r \$0-pingpong;
#X obj 256 122 r \$0-repeats;
#X obj 280 143 r \$0-flutter;
#X obj 374 82 r \$0-lop;
#X obj 395 105 r \$0-hip;
#X obj 494 77 r \$0-ssb-amount;
#X obj 518 102 r \$0-shift;
#X obj 567 149 r \$0-drywet;
#X msg 237 291 time-left \$1 \, time-right \$2 \, pingpong \$3 \, repeats
\$4 \, flutter \$5 \, feedback \$6 \, reverb \$7 \, lop-frequency \$8
\, hip-frequency \$9 \, hf-damping \$10 \, lf-damping \$11 \, ssb-amount
\$12 \, ssb-shift \$13 \, distortion-mode \$14 \, dry/wet \$15;
#X obj 305 169 r \$0-feedback;
#X obj 331 193 r \$0-reverb;
#X obj 528 125 r \$0-dist-mode;
#X obj 248 146 + 1;
#X connect 0 0 4 0;
#X connect 1 0 4 0;
#X connect 2 0 4 0;
#X connect 3 0 0 0;
#X connect 5 0 4 0;
#X connect 5 1 21 0;
#X connect 5 2 2 0;
#X connect 6 0 1 0;
#X connect 6 1 3 0;
#X connect 6 2 7 0;
#X connect 8 0 5 0;
#X connect 9 0 8 1;
#X connect 10 0 8 0;
#X connect 11 0 8 9;
#X connect 12 0 8 10;
#X connect 13 0 8 2;
#X connect 14 0 25 0;
#X connect 15 0 8 4;
#X connect 16 0 8 7;
#X connect 17 0 8 8;
#X connect 18 0 8 11;
#X connect 19 0 8 12;
#X connect 20 0 8 14;
#X connect 21 0 6 0;
#X connect 22 0 8 5;
#X connect 23 0 8 6;
#X connect 24 0 8 13;
#X connect 25 0 8 3;
#X restore 689 300 pd outlet-message;
#X obj 346 78 inlet~;
#X obj 381 103 inlet~;
#X obj 415 130 inlet~;
#X obj 450 155 inlet~;
#X obj 486 183 inlet~;
#X text 459 129 time-l;
#X text 493 156 time-r;
#X text 531 182 shift;
#X obj 345 329 outlet~;
#X obj 487 328 outlet~;
#X obj 103 115 hsl 170 15 0 127 0 0 \$0-visbng \$0-visbngr empty 50
8 2 10 -233017 -233017 -1 0 1;
#X connect 2 0 16 0;
#X connect 2 1 17 0;
#X connect 3 0 4 0;
#X connect 7 0 6 0;
#X connect 8 0 2 0;
#X connect 9 0 2 1;
#X connect 10 0 2 2;
#X connect 11 0 2 3;
#X connect 12 0 2 4;
#X coords 0 -1 1 1 175 33 1 100 100;
