#N canvas 638 143 1017 622 10;
#X obj 451 503 *~;
#X obj 298 85 inlet~;
#X obj 403 558 outlet~;
#X obj 668 471 /;
#X msg 668 451 1 \$1;
#X obj 103 130 hsl 130 15 0 100 0 0 \$0-gui \$0-guir Dry/Wet(%) 3 8 2 10 #e0e0e0 #000000 #000000 0 1;
#X obj 276 130 hsl 2 8 0 1 0 0 \$0-gui \$0-guir empty 3 8 2 10 #e0e0e0 #dcdcdc #000000 0 1;
#X obj 235 130 nbx 5 15 0 100 0 0 \$0-drywet \$0-drywetr empty 0 -8 2 10 #dcdcdc #000000 #000000 0 256;
#X msg 158 186 set \$1;
#X obj 75 167 i;
#X msg 75 188 set \$1;
#X obj 54 217 s \$0-drywet;
#X obj 100 115 bng 15 250 50 0 \$0-obng \$0-obngr empty 17 7 0 10 #dcdcdc #fcfcfc #000000;
#X obj 414 85 inlet~;
#X obj 651 499 *~;
#X obj 539 556 outlet~;
#N canvas 3 54 450 300 delay 0;
#X obj 98 107 inlet~;
#X obj 98 128 outlet~;
#X obj 146 107 inlet~;
#X obj 146 128 outlet~;
#X obj 309 79 r \$0-min-blocksize;
#X obj 309 125 block~ \$1;
#X msg 309 102 set \$1 1;
#X connect 0 0 1 0;
#X connect 2 0 3 0;
#X connect 4 0 6 0;
#X connect 6 0 5 0;
#X restore 299 389 pd delay clean;
#X obj 530 111 *~ 0.01;
#X obj 668 431 r \$0-nparts;
#X obj 118 115 hsl 160 15 0 100 0 0 \$0-irname-gui \$0-irname-guir empty.. 3 8 2 10 #e0e0e0 #dcdcdc #000000 0 1;
#X obj 760 541 outlet;
#N canvas 688 168 486 485 outlet-message 0;
#X obj 160 338 list trim;
#X msg 97 316 addcomma;
#X msg 26 233 set;
#X obj 160 315 list prepend add2;
#X obj 160 423 outlet;
#X obj 166 14 r \$0-open;
#X obj 166 35 t b a;
#X obj 85 22 r \$0-drywet;
#X obj 228 36 t b f;
#X obj 113 154 pack 100 s 1024 3000;
#X obj 344 36 t b f;
#X obj 344 14 r \$0-max-blocksize;
#X msg 143 218 blocksize \$3 \, dry/wet \$1 \, loadIR \$2 \, max-blocksize \$4;
#X obj 228 15 r \$0-min-blocksize;
#X obj 85 45 t b f;
#X obj 85 98 del 0;
#X obj 85 121 f;
#X obj 143 251 t b a a;
#X obj 113 185 t b a b;
#N canvas 497 347 297 264 save 0;
#X obj 48 16 inlet;
#N canvas 690 259 481 384 collect 0;
#X obj 47 60 inlet;
#X obj 47 274 outlet;
#X obj 98 180 list;
#X obj 166 181 t l;
#X obj 47 225 list;
#X obj 98 139 list append |;
#X obj 47 126 del 0;
#X obj 47 82 t b a;
#X text 119 75 hacky thing... replaycing " \, " with "|";
#X connect 0 0 7 0;
#X connect 2 0 3 0;
#X connect 2 0 4 1;
#X connect 3 0 2 1;
#X connect 4 0 1 0;
#X connect 5 0 2 0;
#X connect 6 0 2 1;
#X connect 6 0 4 0;
#X connect 7 0 6 0;
#X connect 7 1 5 0;
#X restore 48 38 pd collect;
#X obj 117 16 r \$0-save;
#X obj 27 130 text set \$0-savestates;
#X obj 27 104 list;
#X obj 117 62 t b f;
#X obj 117 39 clip 0 20;
#X connect 0 0 1 0;
#X connect 1 0 4 1;
#X connect 2 0 6 0;
#X connect 4 0 3 0;
#X connect 5 0 4 0;
#X connect 5 1 3 1;
#X connect 6 0 5 0;
#X restore 182 276 pd save;
#X connect 0 0 4 0;
#X connect 1 0 4 0;
#X connect 2 0 4 0;
#X connect 3 0 0 0;
#X connect 5 0 6 0;
#X connect 6 0 15 0;
#X connect 6 1 9 1;
#X connect 7 0 14 0;
#X connect 8 0 15 0;
#X connect 8 1 9 2;
#X connect 9 0 18 0;
#X connect 10 0 15 0;
#X connect 10 1 9 3;
#X connect 11 0 10 0;
#X connect 12 0 17 0;
#X connect 13 0 8 0;
#X connect 14 0 15 0;
#X connect 14 1 16 1;
#X connect 15 0 16 0;
#X connect 16 0 9 0;
#X connect 17 0 1 0;
#X connect 17 1 3 0;
#X connect 17 2 19 0;
#X connect 18 0 4 0;
#X connect 18 1 12 0;
#X connect 18 2 2 0;
#X restore 760 517 pd outlet-message;
#N canvas 2 57 745 476 dry/wet 0;
#X obj 182 27 inlet~;
#X obj 184 340 outlet~;
#X obj 184 272 *~;
#X obj 470 268 *~;
#X obj 548 119 line~;
#X obj 548 97 pack 0 30;
#X obj 316 229 -~;
#X obj 548 49 r \$0-drywet;
#X obj 548 72 / 50;
#X obj 330 205 clip~ 1 2;
#X obj 316 173 sig~ 2;
#X obj 519 200 clip~ 0 1;
#X obj 519 15 inlet~;
#X obj 518 119 +~;
#X obj 470 353 outlet~;
#X obj 282 27 inlet~;
#X obj 536 270 *~;
#X obj 536 355 outlet~;
#X obj 282 342 outlet~;
#X obj 282 279 *~;
#X connect 0 0 2 0;
#X connect 0 0 3 0;
#X connect 2 0 1 0;
#X connect 3 0 14 0;
#X connect 4 0 13 1;
#X connect 5 0 4 0;
#X connect 6 0 2 1;
#X connect 6 0 19 1;
#X connect 7 0 8 0;
#X connect 8 0 5 0;
#X connect 9 0 6 1;
#X connect 10 0 6 0;
#X connect 11 0 3 1;
#X connect 11 0 16 1;
#X connect 12 0 13 0;
#X connect 13 0 11 0;
#X connect 13 0 9 0;
#X connect 15 0 16 0;
#X connect 15 0 19 0;
#X connect 16 0 17 0;
#X connect 19 0 18 0;
#X restore 298 300 pd dry/wet;
#X f 39;
#X obj 530 91 inlet~;
#X text 575 91 dry/wet;
#X obj 766 96 inlet;
#N canvas 119 141 692 496 in 0;
#X obj 125 323 s \$0-open;
#X obj 125 300 symbol;
#X obj 125 38 inlet;
#X obj 199 321 clip 0 100;
#X obj 199 342 s \$0-drywetr;
#X obj 212 274 loadbang;
#X msg 212 295 100;
#N canvas 3 57 617 375 blocksize 0;
#X obj 184 76 t f f;
#X obj 184 212 spigot;
#X text 249 141 prevent setting blocksizes that are not a power of 2;
#X msg 244 244 blocksize is not a power of 2;
#X obj 184 294 outlet;
#X obj 244 222 sel 0;
#X obj 184 54 inlet;
#X obj 244 265 print pp.fft-partconv~;
#X obj 217 122 expr (($f1-1) & $f1) == 0;
#X connect 0 0 1 0;
#X connect 0 1 8 0;
#X connect 1 0 4 0;
#X connect 3 0 7 0;
#X connect 5 0 3 0;
#X connect 6 0 0 0;
#X connect 8 0 1 1;
#X connect 8 0 5 0;
#X restore 296 362 pd blocksize;
#X obj 305 268 f \$1;
#X obj 305 289 sel 0;
#X msg 305 312 1024;
#X obj 435 205 loadbang;
#X obj 462 424 s \$0-max-blocksize;
#X obj 462 301 sel 0;
#X obj 462 280 f \$2;
#X msg 462 327 65536;
#N canvas 3 57 617 375 blocksize 0;
#X obj 184 76 t f f;
#X obj 184 212 spigot;
#X text 249 141 prevent setting blocksizes that are not a power of 2;
#X obj 184 294 outlet;
#X obj 244 222 sel 0;
#X obj 184 54 inlet;
#X obj 244 265 print pp.fft-partconv~;
#X msg 244 244 max. blocksize is not a power of 2;
#X obj 217 122 expr (($f1-1) & $f1) == 0;
#X connect 0 0 1 0;
#X connect 0 1 8 0;
#X connect 1 0 3 0;
#X connect 4 0 7 0;
#X connect 5 0 0 0;
#X connect 7 0 6 0;
#X connect 8 0 1 1;
#X connect 8 0 4 0;
#X restore 462 400 pd blocksize;
#X obj 435 228 t b b;
#X obj 296 338 change;
#X obj 462 351 change;
#X obj 296 385 max 128;
#X obj 296 409 s \$0-min-blocksize;
#N canvas 698 546 200 251 route 0;
#X obj 20 20 inlet;
#X obj 30 60 route save recall;
#X obj 30 85 route float;
#X obj 97 111 route float;
#X obj 30 136 s \$0-save;
#X obj 30 108 i;
#X obj 98 133 i;
#X obj 98 161 s \$0-recall;
#X connect 0 0 1 0;
#X connect 1 0 2 0;
#X connect 1 1 3 0;
#X connect 2 0 5 0;
#X connect 3 0 6 0;
#X connect 5 0 4 0;
#X connect 6 0 7 0;
#X restore 148 81 pd route save-recall;
#N canvas 362 125 450 479 recall 0;
#X obj 49 145 outlet;
#N canvas 3 54 450 600 listsplit 0;
#X obj 158 23 inlet;
#X obj 220 87 list length;
#X obj 220 113 until;
#X obj 182 150 f;
#X obj 278 150 + 1;
#X msg 265 111 0;
#X obj 182 226 list store;
#X msg 182 202 get \$1 1;
#X obj 154 367 list split;
#X obj 222 342 f;
#X obj 154 334 list;
#X obj 98 124 list;
#X obj 182 389 list split 1;
#X obj 154 274 t bang bang bang;
#X obj 182 179 t f f;
#X obj 158 48 t l l l b;
#X obj 154 473 outlet;
#X obj 154 440 list trim;
#X obj 163 248 sel |;
#X text 275 197 hacky split list at "|";
#X connect 0 0 15 0;
#X connect 1 0 2 0;
#X connect 2 0 3 0;
#X connect 3 0 4 0;
#X connect 3 0 14 0;
#X connect 4 0 3 1;
#X connect 5 0 3 1;
#X connect 6 0 18 0;
#X connect 7 0 6 0;
#X connect 8 0 17 0;
#X connect 8 1 12 0;
#X connect 9 0 8 1;
#X connect 10 0 8 0;
#X connect 11 0 15 0;
#X connect 12 1 11 0;
#X connect 13 0 10 0;
#X connect 13 1 9 0;
#X connect 13 2 2 1;
#X connect 14 0 7 0;
#X connect 14 1 9 1;
#X connect 15 0 1 0;
#X connect 15 1 10 1;
#X connect 15 2 6 1;
#X connect 15 3 5 0;
#X connect 17 0 16 0;
#X connect 18 0 13 0;
#X restore 49 117 pd listsplit;
#X obj 49 24 r \$0-recall;
#X obj 49 54 pipe 1;
#X obj 221 409 text fromlist \$0-savestates;
#X obj 49 77 text get \$0-savestates;
#X msg 253 246 21;
#X obj 253 269 until;
#X obj 253 292 f;
#X obj 300 295 + 1;
#X obj 253 315 t b f;
#X obj 253 367 text set \$0-savestates;
#X obj 221 114 text tolist \$0-savestates;
#X msg 253 342 list empty_slot;
#X obj 221 160 t a b;
#X obj 151 166 loadbang;
#X obj 221 137 savestate;
#X obj 221 33 text define \$0-savestates;
#X obj 151 189 del 0;
#X msg 298 199 0;
#X obj 253 220 spigot 1;
#X connect 1 0 0 0;
#X connect 2 0 3 0;
#X connect 3 0 5 0;
#X connect 5 0 1 0;
#X connect 6 0 7 0;
#X connect 7 0 8 0;
#X connect 8 0 9 0;
#X connect 8 0 10 0;
#X connect 9 0 8 1;
#X connect 10 0 13 0;
#X connect 10 1 11 1;
#X connect 12 0 16 0;
#X connect 13 0 11 0;
#X connect 14 0 4 0;
#X connect 14 1 19 0;
#X connect 15 0 18 0;
#X connect 16 0 14 0;
#X connect 16 1 12 0;
#X connect 18 0 20 0;
#X connect 19 0 20 1;
#X connect 20 0 6 0;
#X restore 214 107 pd recall;
#X obj 125 137 route loadIR dry/wet set blocksize max-blocksize;
#X obj 462 376 min 262144;
#N canvas 518 274 450 300 set 0;
#X obj 161 29 inlet;
#X obj 152 140 array size;
#X obj 152 163 s \$0-ir-length;
#X msg 88 233 label \$1;
#X obj 224 114 s \$0-irname;
#X obj 161 54 unpack s s;
#X obj 51 154 symbol;
#X obj 51 96 t b s b s s;
#X obj 88 256 s \$0-irname-guir;
#X obj 51 200 s \$0-set-tab-r;
#X obj 207 249 s \$0-set-tab-l;
#X connect 0 0 5 0;
#X connect 1 0 2 0;
#X connect 3 0 8 0;
#X connect 5 0 7 0;
#X connect 5 1 6 1;
#X connect 6 0 9 0;
#X connect 7 0 6 0;
#X connect 7 1 3 0;
#X connect 7 1 10 0;
#X connect 7 2 1 0;
#X connect 7 3 1 1;
#X connect 7 4 4 0;
#X restore 239 210 pd set;
#X connect 1 0 0 0;
#X connect 2 0 22 0;
#X connect 2 0 24 0;
#X connect 3 0 4 0;
#X connect 5 0 6 0;
#X connect 6 0 4 0;
#X connect 7 0 20 0;
#X connect 8 0 9 0;
#X connect 9 0 10 0;
#X connect 9 1 18 0;
#X connect 10 0 18 0;
#X connect 11 0 17 0;
#X connect 13 0 15 0;
#X connect 13 1 19 0;
#X connect 14 0 13 0;
#X connect 15 0 19 0;
#X connect 16 0 12 0;
#X connect 17 0 8 0;
#X connect 17 1 14 0;
#X connect 18 0 7 0;
#X connect 19 0 25 0;
#X connect 20 0 21 0;
#X connect 23 0 24 0;
#X connect 24 0 1 0;
#X connect 24 1 3 0;
#X connect 24 2 26 0;
#X connect 24 3 18 0;
#X connect 24 4 19 0;
#X connect 25 0 16 0;
#X restore 766 118 pd in;
#N canvas 793 243 636 507 create 0;
#N canvas 555 136 599 516 count 0;
#X obj 159 114 * 2;
#X obj 232 87 <;
#X obj 121 113 f;
#X obj 92 301 + 1;
#X obj 121 304 f;
#X msg 303 88 0;
#X obj 161 75 until;
#X obj 232 110 sel 0;
#X obj 326 183 f;
#X obj 284 182 +;
#X obj 40 400 f;
#X obj 121 396 pack;
#X obj 359 43 inlet;
#X text 400 48 max bl;
#X obj 449 186 inlet;
#X text 490 191 ir length;
#X obj 41 4 inlet;
#X text 84 8 min bl;
#X obj 121 469 outlet;
#X obj 40 466 outlet;
#X obj 121 147 t f f f;
#N canvas 84 430 774 522 onsets 0;
#X obj 362 289 +;
#X obj 334 245 t f f;
#X obj 333 218 +;
#X obj 354 177 expr (pow(2 \, $f1) - 1) * $f2;
#X obj 221 43 inlet;
#X obj 252 126 expr $f2 * ($f1 % 2) / 2 \; int($f1 / 2);
#X obj 428 121 unpack;
#X obj 334 327 pack;
#X obj 221 66 t a a a;
#X obj 221 421 list;
#X obj 221 448 outlet;
#X obj 519 152 r \$0-min-blocksize;
#X connect 0 0 7 1;
#X connect 1 0 7 0;
#X connect 1 1 0 0;
#X connect 2 0 1 0;
#X connect 3 0 2 1;
#X connect 4 0 8 0;
#X connect 5 0 2 0;
#X connect 5 1 3 0;
#X connect 6 1 0 1;
#X connect 7 0 9 1;
#X connect 8 0 9 0;
#X connect 8 1 5 0;
#X connect 8 2 6 0;
#X connect 9 0 10 0;
#X connect 11 0 3 1;
#X restore 121 436 pd onsets;
#X obj 40 435 max 1;
#X obj 121 185 t b b f;
#X obj 284 233 >;
#X obj 284 256 sel 1;
#X obj 41 30 t b b f b, f 28;
#X connect 0 0 2 1;
#X connect 1 0 7 0;
#X connect 2 0 0 0;
#X connect 2 0 20 0;
#X connect 3 0 4 1;
#X connect 3 0 10 1;
#X connect 4 0 3 0;
#X connect 4 0 11 0;
#X connect 5 0 4 1;
#X connect 5 0 9 1;
#X connect 6 0 2 0;
#X connect 7 0 6 1;
#X connect 8 0 9 1;
#X connect 9 0 8 0;
#X connect 9 0 24 0;
#X connect 10 0 22 0;
#X connect 11 0 21 0;
#X connect 12 0 1 1;
#X connect 14 0 24 1;
#X connect 16 0 26 0;
#X connect 20 0 23 0;
#X connect 20 1 9 0;
#X connect 20 2 1 0;
#X connect 21 0 18 0;
#X connect 22 0 19 0;
#X connect 23 0 4 0;
#X connect 23 1 4 0;
#X connect 23 2 11 1;
#X connect 24 0 25 0;
#X connect 25 0 6 1;
#X connect 26 0 10 0;
#X connect 26 1 6 0;
#X connect 26 2 2 1;
#X connect 26 3 5 0;
#X restore 257 185 pd count;
#X f 12;
#X obj 376 26 r \$0-max-blocksize;
#X obj 376 49 t b f;
#X obj 257 27 r \$0-min-blocksize;
#X obj 495 25 r \$0-ir-length;
#X obj 495 48 t b f;
#X obj 257 126 f 1024, f 9;
#X obj 476 212 text define \$0-cloneblock;
#X obj 326 233 text set \$0-cloneblock;
#X obj 369 189 loadbang;
#X msg 369 212 1e+10;
#X msg 476 189 clear;
#X obj 284 336 s \$0-nparts;
#X obj 257 396 text sequence \$0-cloneblock;
#X msg 257 368 line 0 \, auto;
#X obj 257 63 t b f;
#X obj 257 95 del 0;
#X obj 257 149 t f f b;
#X obj 257 311 t b f;
#X obj 257 427 s \$0-clone-data;
#X floatatom 316 313 5 0 0 0 - - - 0;
#X obj 14 373 symbol;
#X msg 14 399 set \$1;
#X obj 257 282 moses 3;
#X obj 257 237 t b f;
#X msg 295 259 0;
#X text 314 282 avoid faulty init;
#X obj 59 373 r \$0-set-tab-l;
#X obj 14 423 s \$0-set-imp-l;
#X obj 113 404 symbol;
#X msg 113 430 set \$1;
#X obj 158 404 r \$0-set-tab-r;
#X obj 113 454 s \$0-set-imp-r;
#X connect 0 0 24 0;
#X connect 0 1 8 0;
#X connect 1 0 2 0;
#X connect 2 0 16 0;
#X connect 2 1 0 1;
#X connect 3 0 15 0;
#X connect 4 0 5 0;
#X connect 5 0 16 0;
#X connect 5 1 0 2;
#X connect 6 0 17 0;
#X connect 9 0 10 0;
#X connect 10 0 8 1;
#X connect 11 0 7 0;
#X connect 13 0 19 0;
#X connect 14 0 13 0;
#X connect 15 0 16 0;
#X connect 15 1 6 1;
#X connect 16 0 6 0;
#X connect 17 0 0 0;
#X connect 17 2 11 0;
#X connect 18 0 14 0;
#X connect 18 0 21 0;
#X connect 18 0 29 0;
#X connect 18 1 12 0;
#X connect 18 1 20 0;
#X connect 21 0 22 0;
#X connect 22 0 28 0;
#X connect 23 1 18 0;
#X connect 24 0 25 0;
#X connect 24 1 23 0;
#X connect 25 0 23 1;
#X connect 27 0 21 1;
#X connect 29 0 30 0;
#X connect 30 0 32 0;
#X connect 31 0 29 1;
#X restore 763 252 pd create;
#X obj 487 339 r \$0-nparts;
#X msg 487 362 resize 1 \, resize \$1;
#X obj 450 388 clone pp.fft-partconv-st-part 1 \$0;
#X text 845 546 philipp schmalfuß \, 2018-26;
#N canvas 995 244 803 563 load-IR 0;
#X obj 368 93 s \$0-open;
#X obj 368 48 r \$0-obng;
#X obj 183 606 soundfiler;
#X obj 183 549 pack s \$0;
#X obj 161 59 r \$0-open;
#X obj 195 173 soundfiler;
#X obj 195 127 pack s \$0;
#X msg 100 396 \$3;
#X obj 67 507 soundfiler;
#X obj 67 464 pack s \$0;
#X obj 161 92 t a a a a;
#X obj 67 444 spigot;
#X obj 100 417 < 2;
#X msg 195 150 read -resize \$1;
#X msg 183 572 read -resize \$1 \$2-dummy-l \$2-dummy-r \, read -resize \$1 \$2-impulse-l \$2-impulse-r;
#N canvas 272 198 890 454 pitchcorrection 0;
#X obj 168 -16 r \$0-ir-samprate;
#X obj 193 29 samplerate~;
#X obj 168 53 ==;
#X obj 168 76 sel 0;
#X obj 229 343 line~;
#X obj 231 164 r \$0-ir-length;
#X obj 229 275 /;
#X obj 277 231 / 1000;
#X obj 229 299 pack;
#X msg 229 320 0 \, \$2 \$1;
#X obj 231 187 t f f;
#X obj 216 242 f;
#X obj 168 105 del 1;
#X obj 277 209 r \$0-ir-samprate;
#X obj 405 89 r \$0-ir-length;
#X obj 420 111 r \$0-ir-samprate;
#X obj 405 139 /;
#X obj 405 194 t f b;
#X obj 432 217 samplerate~;
#X obj 405 237 *;
#X obj 390 169 f;
#X obj 168 6 t f b;
#X obj 28 179 print pp.fft-partconv~;
#X msg 28 155 correcting pitch..;
#X obj 405 272 array size \$0-impulse-l;
#X obj 385 293 array size \$0-impulse-r;
#X obj 183 392 tabread4~ \$0-dummy-l;
#X obj 361 389 tabread4~ \$0-dummy-r;
#X obj 167 422 tabwrite~ \$0-impulse-l;
#X obj 360 423 tabwrite~ \$0-impulse-r;
#X connect 0 0 21 0;
#X connect 1 0 2 1;
#X connect 2 0 3 0;
#X connect 3 0 12 0;
#X connect 3 0 23 0;
#X connect 4 0 26 0;
#X connect 4 0 27 0;
#X connect 5 0 10 0;
#X connect 6 0 8 0;
#X connect 7 0 6 1;
#X connect 8 0 9 0;
#X connect 9 0 4 0;
#X connect 10 0 11 1;
#X connect 10 1 8 1;
#X connect 11 0 6 0;
#X connect 12 0 11 0;
#X connect 12 0 20 0;
#X connect 12 0 28 0;
#X connect 12 0 29 0;
#X connect 13 0 7 0;
#X connect 14 0 16 0;
#X connect 15 0 16 1;
#X connect 16 0 20 1;
#X connect 17 0 19 0;
#X connect 17 1 18 0;
#X connect 18 0 19 1;
#X connect 19 0 24 0;
#X connect 19 0 25 0;
#X connect 20 0 17 0;
#X connect 21 0 2 0;
#X connect 21 1 1 0;
#X connect 23 0 22 0;
#X connect 26 0 28 0;
#X connect 27 0 29 0;
#X restore 182 661 pd pitchcorrection;
#X msg 67 486 read -resize \$1 \$2-dummy-r \, read -resize \$1 \$2-impulse-r;
#X obj 563 61 array define \$0-dummy-l;
#X obj 564 82 array define \$0-dummy-r;
#X obj 563 126 array define \$0-impulse-l;
#X obj 563 146 array define \$0-impulse-r;
#N canvas 522 220 600 405 openpanel 0;
#X obj 145 270 openpanel;
#X obj 145 47 f;
#X obj 175 48 + 1;
#X obj 145 70 sel 0;
#X obj 173 168 t b;
#X obj 145 20 inlet;
#X obj 145 293 outlet;
#X text 237 158 remember last directory;
#X obj 145 124 symbol ./;
#X obj 224 73 symbol;
#X obj 224 50 r \$0-open;
#X obj 173 210 symbol ./;
#N canvas 426 89 883 671 splitfilename 0;
#X obj 219 286 outlet;
#X text 263 289 filename;
#X obj 185 210 inlet;
#X obj 185 233 file splitname;
#X obj 185 256 list split 1;
#X obj 185 310 outlet;
#X connect 2 0 3 0;
#X connect 3 0 4 0;
#X connect 3 1 0 0;
#X connect 4 0 5 0;
#X connect 4 1 0 0;
#X restore 224 97 pd splitfilename;
#X connect 0 0 6 0;
#X connect 1 0 2 0;
#X connect 1 0 3 0;
#X connect 2 0 1 1;
#X connect 3 0 8 0;
#X connect 3 1 4 0;
#X connect 4 0 11 0;
#X connect 5 0 1 0;
#X connect 8 0 0 0;
#X connect 9 0 12 0;
#X connect 10 0 9 0;
#X connect 11 0 0 0;
#X connect 12 0 11 1;
#X connect 12 0 8 1;
#X restore 368 71 pd openpanel;
#X obj 280 286 s \$0-ir-samprate;
#X msg 280 265 \$1;
#N canvas 827 381 894 556 sondfile-info 0;
#X msg 386 77 label \$1;
#X msg 367 50 label empty..;
#X obj 367 27 loadbang;
#X obj 85 332 t f b;
#X obj 112 355 samplerate~;
#X obj 112 378 / 1000;
#X obj 85 402 /;
#X obj 85 10 r \$0-nparts;
#X obj 85 55 / 2;
#X obj 180 101 r \$0-min-blocksize;
#X obj 85 78 + 1;
#X obj 105 195 f;
#X obj 135 197 * 2;
#X obj 139 267 +;
#X obj 105 267 f;
#X obj 105 223 t b f;
#X msg 192 188 0;
#X obj 205 124 r \$0-max-blocksize;
#X obj 205 147 t b;
#X obj 180 148 f;
#X obj 105 166 until;
#X obj 85 99 t b f b b;
#X obj 85 292 f;
#X obj 295 461 pack f s;
#X msg 295 489 loaded \$1ms of IR \$2;
#X obj 241 308 r \$0-ir-length;
#X obj 226 333 <;
#X obj 226 356 sel 1;
#X obj 85 33 pipe 1;
#X obj 338 127 s \$0-irname;
#X obj 340 438 r \$0-irname;
#X obj 386 99 s \$0-irname-guir;
#X obj 295 517 print pp.fft-partconv-st~;
#X msg 226 381 IR length exceeds buffer;
#X obj 245 33 inlet;
#N canvas 426 89 883 671 splitfilename 0;
#X obj 219 286 outlet;
#X text 263 289 filename;
#X obj 185 210 inlet;
#X obj 185 233 file splitname;
#X obj 185 256 list split 1;
#X obj 185 310 outlet;
#X connect 2 0 3 0;
#X connect 3 0 4 0;
#X connect 3 1 0 0;
#X connect 4 0 5 0;
#X connect 4 1 0 0;
#X restore 245 59 pd splitfilename;
#X connect 0 0 31 0;
#X connect 1 0 31 0;
#X connect 2 0 1 0;
#X connect 3 0 6 0;
#X connect 3 1 4 0;
#X connect 4 0 5 0;
#X connect 5 0 6 1;
#X connect 6 0 23 0;
#X connect 7 0 28 0;
#X connect 8 0 10 0;
#X connect 9 0 19 0;
#X connect 10 0 21 0;
#X connect 11 0 12 0;
#X connect 11 0 15 0;
#X connect 12 0 11 1;
#X connect 13 0 14 1;
#X connect 14 0 13 0;
#X connect 14 0 22 1;
#X connect 15 0 14 0;
#X connect 15 1 13 1;
#X connect 16 0 14 1;
#X connect 16 0 13 1;
#X connect 17 0 18 0;
#X connect 18 0 19 0;
#X connect 19 0 11 1;
#X connect 20 0 11 0;
#X connect 21 0 22 0;
#X connect 21 1 20 0;
#X connect 21 2 16 0;
#X connect 21 3 19 0;
#X connect 22 0 3 0;
#X connect 22 0 26 0;
#X connect 23 0 24 0;
#X connect 24 0 32 0;
#X connect 25 0 26 1;
#X connect 26 0 27 0;
#X connect 27 0 33 0;
#X connect 28 0 8 0;
#X connect 30 0 23 1;
#X connect 33 0 32 0;
#X connect 34 0 35 0;
#X connect 35 1 0 0;
#X connect 35 1 29 0;
#X restore 312 222 pd sondfile-info;
#N canvas 194 181 619 300 nofile 0;
#X obj 227 31 inlet;
#X obj 117 30 inlet;
#X obj 117 184 spigot 1;
#X obj 272 100 != 0;
#X obj 117 276 outlet;
#X obj 362 240 symbol empty..;
#X obj 443 29 inlet;
#X obj 227 55 t a a;
#X obj 227 277 outlet;
#X obj 362 280 outlet;
#X obj 227 184 spigot 1;
#X obj 362 138 sel 1 0;
#X obj 381 162 symbol;
#X msg 381 183 couldn't find \$1;
#X msg 272 78 \$1;
#X obj 381 206 print fft-partconv~;
#X connect 0 0 7 0;
#X connect 1 0 2 0;
#X connect 2 0 4 0;
#X connect 3 0 2 1;
#X connect 3 0 10 1;
#X connect 3 0 11 0;
#X connect 5 0 9 0;
#X connect 6 0 5 1;
#X connect 6 0 12 1;
#X connect 7 0 10 0;
#X connect 7 1 14 0;
#X connect 10 0 8 0;
#X connect 11 0 5 0;
#X connect 11 1 12 0;
#X connect 12 0 13 0;
#X connect 13 0 15 0;
#X connect 14 0 3 0;
#X restore 195 200 pd nofile;
#X f 20;
#X obj 222 344 s \$0-ir-length;
#X obj 195 309 t b f;
#X obj 195 372 f \$0;
#X obj 195 418 symbol;
#X msg 195 395 \$1-impulse-l;
#X obj 195 446 s \$0-set-tab-l;
#X obj 298 418 symbol;
#X obj 298 446 s \$0-set-tab-r;
#X msg 298 395 \$1-impulse-r;
#X connect 1 0 21 0;
#X connect 3 0 14 0;
#X connect 4 0 10 0;
#X connect 5 0 25 0;
#X connect 5 1 25 1;
#X connect 6 0 13 0;
#X connect 7 0 12 0;
#X connect 9 0 16 0;
#X connect 10 0 11 0;
#X connect 10 1 3 0;
#X connect 10 2 6 0;
#X connect 10 3 25 2;
#X connect 11 0 9 0;
#X connect 12 0 11 1;
#X connect 13 0 5 0;
#X connect 14 0 2 0;
#X connect 16 0 8 0;
#X connect 21 0 0 0;
#X connect 23 0 22 0;
#X connect 25 0 27 0;
#X connect 25 1 7 0;
#X connect 25 1 23 0;
#X connect 25 2 24 0;
#X connect 27 0 28 0;
#X connect 27 1 26 0;
#X connect 28 0 30 0;
#X connect 28 0 34 0;
#X connect 29 0 31 0;
#X connect 30 0 29 0;
#X connect 32 0 33 0;
#X connect 34 0 32 0;
#X restore 762 222 pd load-IR;
#X connect 0 0 2 0;
#X connect 1 0 22 0;
#X connect 3 0 0 1;
#X connect 3 0 14 1;
#X connect 4 0 3 0;
#X connect 5 0 9 0;
#X connect 7 0 8 0;
#X connect 8 0 5 0;
#X connect 9 0 10 0;
#X connect 9 0 11 0;
#X connect 10 0 7 0;
#X connect 13 0 22 1;
#X connect 14 0 15 0;
#X connect 16 0 2 0;
#X connect 16 1 15 0;
#X connect 17 0 22 2;
#X connect 18 0 4 0;
#X connect 21 0 20 0;
#X connect 22 0 16 0;
#X connect 22 1 16 1;
#X connect 22 2 30 0;
#X connect 22 3 30 1;
#X connect 23 0 17 0;
#X connect 25 0 26 0;
#X connect 28 0 29 0;
#X connect 29 0 30 0;
#X connect 30 0 0 0;
#X connect 30 1 14 0;
#X coords 0 -1 1 1 180 48 1 100 100;
