#N canvas 252 91 778 519 10;
#X obj 100 115 cnv 15 136 26 empty empty empty 20 12 0 14 -1 -66577
0;
#X obj 101 116 cnv 15 134 24 empty empty empty 20 12 0 14 -233017 -66577
0;
#X obj 106 129 hradio 10 1 0 7 \$0-bl \$0-blr Blocksize:1024 0 -8 2
10 -228856 -1 -1 2;
#X obj 186 129 hradio 10 1 0 4 \$0-ov \$0-ovr Overlap:4 0 -8 2 10 -228856
-1 -1 1;
#N canvas 562 99 636 488 stuff 0;
#X obj 44 79 expr pow(2 \, $f1);
#X obj 44 60 + 8;
#X obj 197 56 + 1;
#X obj 197 79 expr pow(2 \, $f1);
#X obj 197 35 r \$0-ov;
#X obj 44 40 r \$0-bl;
#X msg 56 103 label Blocksize:\$1;
#X obj 56 124 s \$0-blr;
#X msg 202 100 label Overlap:\$1;
#X obj 202 121 s \$0-ovr;
#X obj 44 273 outlet;
#X msg 44 231 set \$1 1 1;
#X msg 321 305 2;
#X msg 375 305 1;
#X obj 346 105 loadbang;
#X obj 346 155 f \$1;
#X obj 432 157 f \$2;
#X obj 346 177 sel 0;
#X obj 432 178 sel 0;
#X obj 349 244 - 8;
#X obj 422 270 - 1;
#X obj 321 326 s \$0-blr;
#X obj 375 327 s \$0-ovr;
#X obj 349 223 expr rint(ln($f1)/ln(2));
#X obj 422 249 expr rint(ln($f1)/ln(2));
#X connect 0 0 6 0;
#X connect 0 0 11 0;
#X connect 1 0 0 0;
#X connect 2 0 3 0;
#X connect 3 0 8 0;
#X connect 4 0 2 0;
#X connect 5 0 1 0;
#X connect 6 0 7 0;
#X connect 8 0 9 0;
#X connect 11 0 10 0;
#X connect 12 0 21 0;
#X connect 13 0 22 0;
#X connect 14 0 15 0;
#X connect 14 0 16 0;
#X connect 15 0 17 0;
#X connect 16 0 18 0;
#X connect 17 0 12 0;
#X connect 17 1 23 0;
#X connect 18 0 13 0;
#X connect 18 1 24 0;
#X connect 19 0 21 0;
#X connect 20 0 22 0;
#X connect 23 0 19 0;
#X connect 24 0 20 0;
#X restore 463 153 pd stuff;
#X obj 463 174 block~ 1024;
#X obj 301 111 inlet~;
#X obj 301 132 outlet~;
#X obj 375 110 inlet~;
#X obj 375 131 outlet~;
#X text 588 466 philipp schmalfuß \, 2018;
#X obj 465 99 inlet;
#N canvas 436 249 450 300 in 0;
#X obj 76 17 inlet;
#X obj 76 102 route blocksize overlap;
#X obj 76 187 - 8;
#X obj 149 213 - 1;
#X obj 76 261 s \$0-blr;
#X obj 149 263 s \$0-ovr;
#X obj 76 134 log 2;
#X obj 157 136 log 2;
#X obj 76 166 expr rint($f1);
#X obj 149 192 expr rint($f1);
#N canvas 937 111 450 300 recall 0;
#N canvas 156 162 1004 423 recall 0;
#X obj 106 5 savestate;
#X obj 106 28 t a b;
#X obj 205 60 + 1;
#X obj 106 78 list prepend;
#X obj 106 101 list trim;
#X obj 95 275 list;
#X obj 130 275 list;
#X obj 166 275 list;
#X obj 202 275 list;
#X obj 240 275 list;
#X obj 275 275 list;
#X obj 311 275 list;
#X obj 440 380 outlet;
#X obj 30 78 r \$0-lists;
#X obj 500 43 inlet;
#X obj 345 275 list;
#X obj 380 275 list;
#X obj 416 275 list;
#X obj 453 275 list;
#X obj 490 275 list;
#X obj 525 275 list;
#X obj 561 275 list;
#X obj 594 275 list;
#X obj 630 275 list;
#X obj 667 275 list;
#X obj 704 275 list;
#X obj 739 275 list;
#X obj 775 275 list;
#X obj 106 124 route 0 1 2 3 4 5 6 7 8 9 10 11 12 13 14 15 16 17 18
19 20;
#X obj 500 121 sel 0 1 2 3 4 5 6 7 8 9 10 11 12 13 14 15 16 17 18 19
20;
#X obj 812 275 list;
#X obj 175 56 f;
#X connect 0 0 1 0;
#X connect 1 0 3 0;
#X connect 1 1 31 0;
#X connect 2 0 31 1;
#X connect 3 0 4 0;
#X connect 4 0 28 0;
#X connect 5 0 12 0;
#X connect 6 0 12 0;
#X connect 7 0 12 0;
#X connect 8 0 12 0;
#X connect 9 0 12 0;
#X connect 10 0 12 0;
#X connect 11 0 12 0;
#X connect 13 0 28 0;
#X connect 14 0 29 0;
#X connect 15 0 12 0;
#X connect 16 0 12 0;
#X connect 17 0 12 0;
#X connect 18 0 12 0;
#X connect 19 0 12 0;
#X connect 20 0 12 0;
#X connect 21 0 12 0;
#X connect 22 0 12 0;
#X connect 23 0 12 0;
#X connect 24 0 12 0;
#X connect 25 0 12 0;
#X connect 26 0 12 0;
#X connect 27 0 12 0;
#X connect 28 0 5 1;
#X connect 28 1 6 1;
#X connect 28 2 7 1;
#X connect 28 3 8 1;
#X connect 28 4 9 1;
#X connect 28 5 10 1;
#X connect 28 6 11 1;
#X connect 28 7 15 1;
#X connect 28 8 16 1;
#X connect 28 9 17 1;
#X connect 28 10 18 1;
#X connect 28 11 19 1;
#X connect 28 12 20 1;
#X connect 28 13 21 1;
#X connect 28 14 22 1;
#X connect 28 15 23 1;
#X connect 28 16 24 1;
#X connect 28 17 25 1;
#X connect 28 18 26 1;
#X connect 28 19 27 1;
#X connect 28 20 30 1;
#X connect 29 0 5 0;
#X connect 29 1 6 0;
#X connect 29 2 7 0;
#X connect 29 3 8 0;
#X connect 29 4 9 0;
#X connect 29 5 10 0;
#X connect 29 6 11 0;
#X connect 29 7 15 0;
#X connect 29 8 16 0;
#X connect 29 9 17 0;
#X connect 29 10 18 0;
#X connect 29 11 19 0;
#X connect 29 12 20 0;
#X connect 29 13 21 0;
#X connect 29 14 22 0;
#X connect 29 15 23 0;
#X connect 29 16 24 0;
#X connect 29 17 25 0;
#X connect 29 18 26 0;
#X connect 29 19 27 0;
#X connect 29 20 30 0;
#X connect 30 0 12 0;
#X connect 31 0 2 0;
#X connect 31 0 3 1;
#X restore 128 85 pd recall;
#X obj 128 130 outlet;
#N canvas 3 52 450 600 listsplit 0;
#X obj 158 23 inlet;
#X obj 220 87 list length;
#X obj 220 113 until;
#X obj 182 150 f;
#X obj 278 150 + 1;
#X msg 265 111 0;
#X obj 182 226 list store;
#X msg 182 202 get \$1 1;
#X obj 154 367 list split;
#X obj 222 342 f;
#X obj 154 334 list;
#X obj 98 124 list;
#X obj 182 389 list split 1;
#X obj 154 274 t bang bang bang;
#X obj 182 179 t f f;
#X obj 158 48 t l l l b;
#X obj 154 473 outlet;
#X obj 154 440 list trim;
#X obj 163 248 sel |;
#X connect 0 0 15 0;
#X connect 1 0 2 0;
#X connect 2 0 3 0;
#X connect 3 0 4 0;
#X connect 3 0 14 0;
#X connect 4 0 3 1;
#X connect 5 0 3 1;
#X connect 6 0 18 0;
#X connect 7 0 6 0;
#X connect 8 0 17 0;
#X connect 8 1 12 0;
#X connect 9 0 8 1;
#X connect 10 0 8 0;
#X connect 11 0 15 0;
#X connect 12 1 11 0;
#X connect 13 0 10 0;
#X connect 13 1 9 0;
#X connect 13 2 2 1;
#X connect 14 0 7 0;
#X connect 14 1 9 1;
#X connect 15 0 1 0;
#X connect 15 1 10 1;
#X connect 15 2 6 1;
#X connect 15 3 5 0;
#X connect 17 0 16 0;
#X connect 18 0 13 0;
#X restore 128 107 pd listsplit;
#X obj 128 25 r \$0-recall;
#X obj 128 55 pipe 1;
#X connect 0 0 2 0;
#X connect 2 0 1 0;
#X connect 3 0 4 0;
#X connect 4 0 0 0;
#X restore 156 65 pd recall;
#N canvas 698 546 200 251 route 0;
#X obj 20 20 inlet;
#X obj 30 60 route save recall;
#X obj 30 85 route float;
#X obj 97 111 route float;
#X obj 30 136 s \$0-save;
#X obj 30 108 i;
#X obj 98 133 i;
#X obj 98 161 s \$0-recall;
#X connect 0 0 1 0;
#X connect 1 0 2 0;
#X connect 1 1 3 0;
#X connect 2 0 5 0;
#X connect 3 0 6 0;
#X connect 5 0 4 0;
#X connect 6 0 7 0;
#X restore 94 44 pd route save-recall;
#X connect 0 0 1 0;
#X connect 0 0 11 0;
#X connect 1 0 6 0;
#X connect 1 1 7 0;
#X connect 2 0 4 0;
#X connect 3 0 5 0;
#X connect 6 0 8 0;
#X connect 7 0 9 0;
#X connect 8 0 2 0;
#X connect 9 0 3 0;
#X connect 10 0 1 0;
#X restore 465 123 pd in;
#N canvas 3 52 573 461 outlet-message 0;
#X obj 237 341 list trim;
#X msg 157 339 addcomma;
#X msg 93 346 set;
#X obj 237 318 list prepend add2;
#X obj 237 426 outlet;
#X msg 190 216 blocksize \$1 \, overlap \$2 \,;
#X obj 145 57 expr pow(2 \, $f1);
#X obj 145 38 + 8;
#X obj 298 34 + 1;
#X obj 298 57 expr pow(2 \, $f1);
#X obj 298 13 r \$0-ov;
#X obj 145 18 r \$0-bl;
#X obj 252 87 t b f;
#X obj 159 111 del 0;
#X obj 145 78 t b f;
#X obj 159 131 f 1024;
#X obj 161 149 pack 1024 4;
#X obj 161 171 t b a b;
#X obj 190 254 t b a a;
#N canvas 1009 187 450 300 save 0;
#X obj 108 107 inlet;
#X obj 129 217 list;
#X obj 129 264 list trim;
#X obj 129 286 s \$0-lists;
#X obj 128 319 r \$0-lists;
#X obj 129 242 list prepend;
#N canvas 531 82 335 384 collect 0;
#X obj 138 70 inlet;
#X obj 138 284 outlet;
#X obj 189 190 list;
#X obj 257 191 t l;
#X obj 138 235 list;
#X obj 189 149 list append |;
#X obj 138 136 del 0;
#X obj 138 92 t b a;
#X connect 0 0 7 0;
#X connect 2 0 3 0;
#X connect 2 0 4 1;
#X connect 3 0 2 1;
#X connect 4 0 1 0;
#X connect 5 0 2 0;
#X connect 6 0 2 1;
#X connect 6 0 4 0;
#X connect 7 0 6 0;
#X connect 7 1 5 0;
#X restore 108 129 pd collect;
#X obj 195 101 r \$0-save;
#X obj 195 123 t b f;
#N canvas 68 198 1432 552 savestates 0;
#X obj 767 137 inlet;
#X obj 26 422 savestate;
#X obj 26 398 list;
#X obj 91 422 savestate;
#X obj 91 398 list;
#X obj 157 422 savestate;
#X obj 157 398 list;
#X obj 220 420 savestate;
#X obj 220 396 list;
#X obj 283 419 savestate;
#X obj 283 395 list;
#X obj 345 418 savestate;
#X obj 345 394 list;
#X obj 409 418 savestate;
#X obj 409 394 list;
#X obj 472 421 savestate;
#X obj 472 397 list;
#X obj 537 421 savestate;
#X obj 537 397 list;
#X obj 603 421 savestate;
#X obj 603 397 list;
#X obj 666 419 savestate;
#X obj 666 395 list;
#X obj 729 418 savestate;
#X obj 729 394 list;
#X obj 791 417 savestate;
#X obj 791 393 list;
#X obj 855 417 savestate;
#X obj 855 393 list;
#X obj 922 418 savestate;
#X obj 922 394 list;
#X obj 988 418 savestate;
#X obj 988 394 list;
#X obj 1051 416 savestate;
#X obj 1051 392 list;
#X obj 1114 415 savestate;
#X obj 1114 391 list;
#X obj 1176 414 savestate;
#X obj 1176 390 list;
#X obj 1240 414 savestate;
#X obj 1240 390 list;
#X obj 767 166 route 0 1 2 3 4 5 6 7 8 9 10 11 12 13 14 15 16 17 18
19 20;
#X obj 1304 412 savestate;
#X obj 1304 388 list;
#X obj 201 64 savestate;
#X obj 201 87 t a b;
#X obj 300 119 + 1;
#X obj 201 137 list prepend;
#X obj 201 160 list trim;
#X obj 201 183 route 0 1 2 3 4 5 6 7 8 9 10 11 12 13 14 15 16 17 18
19 20;
#X obj 270 115 f;
#X connect 0 0 41 0;
#X connect 1 1 2 0;
#X connect 2 0 1 0;
#X connect 3 1 4 0;
#X connect 4 0 3 0;
#X connect 5 1 6 0;
#X connect 6 0 5 0;
#X connect 7 1 8 0;
#X connect 8 0 7 0;
#X connect 9 1 10 0;
#X connect 10 0 9 0;
#X connect 11 1 12 0;
#X connect 12 0 11 0;
#X connect 13 1 14 0;
#X connect 14 0 13 0;
#X connect 15 1 16 0;
#X connect 16 0 15 0;
#X connect 17 1 18 0;
#X connect 18 0 17 0;
#X connect 19 1 20 0;
#X connect 20 0 19 0;
#X connect 21 1 22 0;
#X connect 22 0 21 0;
#X connect 23 1 24 0;
#X connect 24 0 23 0;
#X connect 25 1 26 0;
#X connect 26 0 25 0;
#X connect 27 1 28 0;
#X connect 28 0 27 0;
#X connect 29 1 30 0;
#X connect 30 0 29 0;
#X connect 31 1 32 0;
#X connect 32 0 31 0;
#X connect 33 1 34 0;
#X connect 34 0 33 0;
#X connect 35 1 36 0;
#X connect 36 0 35 0;
#X connect 37 1 38 0;
#X connect 38 0 37 0;
#X connect 39 1 40 0;
#X connect 40 0 39 0;
#X connect 41 0 2 1;
#X connect 41 1 4 1;
#X connect 41 2 6 1;
#X connect 41 3 8 1;
#X connect 41 4 10 1;
#X connect 41 5 12 1;
#X connect 41 6 14 1;
#X connect 41 7 16 1;
#X connect 41 8 18 1;
#X connect 41 9 20 1;
#X connect 41 10 22 1;
#X connect 41 11 24 1;
#X connect 41 12 26 1;
#X connect 41 13 28 1;
#X connect 41 14 30 1;
#X connect 41 15 32 1;
#X connect 41 16 34 1;
#X connect 41 17 36 1;
#X connect 41 18 38 1;
#X connect 41 19 40 1;
#X connect 41 20 43 1;
#X connect 42 1 43 0;
#X connect 43 0 42 0;
#X connect 44 0 45 0;
#X connect 45 0 47 0;
#X connect 45 1 50 0;
#X connect 46 0 50 1;
#X connect 47 0 48 0;
#X connect 48 0 49 0;
#X connect 49 0 2 1;
#X connect 49 1 4 1;
#X connect 49 2 6 1;
#X connect 49 3 8 1;
#X connect 49 4 10 1;
#X connect 49 5 12 1;
#X connect 49 6 14 1;
#X connect 49 7 16 1;
#X connect 49 8 18 1;
#X connect 49 9 20 1;
#X connect 49 10 22 1;
#X connect 49 11 24 1;
#X connect 49 12 26 1;
#X connect 49 13 28 1;
#X connect 49 14 30 1;
#X connect 49 15 32 1;
#X connect 49 16 34 1;
#X connect 49 17 36 1;
#X connect 49 18 38 1;
#X connect 49 19 40 1;
#X connect 49 20 43 1;
#X connect 50 0 46 0;
#X connect 50 0 47 1;
#X restore 128 341 pd savestates;
#X connect 0 0 6 0;
#X connect 1 0 5 0;
#X connect 2 0 3 0;
#X connect 4 0 9 0;
#X connect 5 0 2 0;
#X connect 6 0 1 1;
#X connect 7 0 8 0;
#X connect 8 0 1 0;
#X connect 8 1 5 1;
#X restore 248 284 pd save;
#X connect 0 0 4 0;
#X connect 1 0 4 0;
#X connect 2 0 4 0;
#X connect 3 0 0 0;
#X connect 5 0 18 0;
#X connect 6 0 14 0;
#X connect 7 0 6 0;
#X connect 8 0 9 0;
#X connect 9 0 12 0;
#X connect 10 0 8 0;
#X connect 11 0 7 0;
#X connect 12 0 13 0;
#X connect 12 1 16 1;
#X connect 13 0 15 0;
#X connect 14 0 13 0;
#X connect 14 1 15 1;
#X connect 15 0 16 0;
#X connect 16 0 17 0;
#X connect 17 0 4 0;
#X connect 17 1 5 0;
#X connect 17 2 2 0;
#X connect 18 0 1 0;
#X connect 18 1 3 0;
#X connect 18 2 19 0;
#X restore 465 238 pd outlet-message;
#X obj 465 260 outlet;
#X connect 4 0 5 0;
#X connect 6 0 7 0;
#X connect 8 0 9 0;
#X connect 11 0 12 0;
#X connect 13 0 14 0;
#X coords 0 -1 1 1 136 44 1 100 100;
