#N canvas 276 168 872 308 10;
#X obj 389 248 pp.out~;
#A saved;
#X obj 1 2 cnv 15 380 300 empty empty empty 20 12 0 14 -233017 -66577
0;
#X msg 518 182 blocksize 1024 \, overlap 4 \,;
#X obj 518 98 cnv 15 118 17 empty empty empty 20 12 0 14 -260097 -66577
0;
#N canvas 152 124 374 373 control-messages 0;
#X obj 74 285 outlet;
#X msg 74 149 blocksize \$1;
#X msg 74 125 512;
#X msg 103 125 1024;
#X msg 139 126 2048;
#X msg 92 213 overlap \$1;
#X msg 92 188 2;
#X msg 121 189 4;
#X msg 152 189 8;
#X text 160 149 fft-blocksize;
#X obj 111 259 cnv 16 87 16 empty empty empty 20 12 0 14 -260097 -66577
0;
#N canvas 864 246 634 307 save&recall 0;
#X obj 93 233 outlet;
#X msg 93 60 0;
#X msg 125 60 1;
#X msg 158 60 2;
#X msg 93 99 save \$1;
#X text 185 63 ...;
#X msg 207 60 20;
#X msg 149 154 0;
#X msg 181 154 1;
#X msg 214 154 2;
#X text 241 157 ...;
#X msg 263 154 20;
#X msg 149 193 recall \$1;
#X text 249 93 save & recall up to 20 presets \, presets will be saved
with the parrent patch;
#X connect 1 0 4 0;
#X connect 2 0 4 0;
#X connect 3 0 4 0;
#X connect 4 0 0 0;
#X connect 6 0 4 0;
#X connect 7 0 12 0;
#X connect 8 0 12 0;
#X connect 9 0 12 0;
#X connect 11 0 12 0;
#X connect 12 0 0 0;
#X restore 111 258 pd save&recall;
#X connect 1 0 0 0;
#X connect 2 0 1 0;
#X connect 3 0 1 0;
#X connect 4 0 1 0;
#X connect 5 0 0 0;
#X connect 6 0 5 0;
#X connect 7 0 5 0;
#X connect 8 0 5 0;
#X connect 11 0 0 0;
#X restore 518 98 pd control-messages;
#X text 10 122 Inlets:;
#X text 10 169 Outlets:;
#X obj 12 20 cnv 15 10 10 empty empty pp.fft-block-st~ 0 0 2 16 -233017
-262144 0;
#X text 11 73 Creation arguments: \$1: fft-blocksize \, default: 1024
;
#X text 131 85 \$2: overlap \, default: 4;
#X msg 390 29 1 \, 0 10;
#X obj 390 50 vline~;
#X obj 389 129 pp.fft-block-st~;
#A saved;
#X text 68 194 3:message;
#X text 68 169 1:(~)delayed signal left;
#X text 68 182 2:(~)delayed signal right;
#X text 68 121 1:(~)signal left;
#X text 68 132 2:(~)signal right;
#X text 68 144 3:control-messages;
#X text 12 41 stereo version of [pp.fft-block~];
#X obj 745 5 cnv 15 120 60 empty empty empty 20 12 0 14 -260097 -66577
0;
#X obj 751 16 bng 15 250 50 0 \$0-example1 \$0-example1r empty 17 7
0 10 -262144 -1 -1;
#X obj 751 37 bng 15 250 50 0 \$0-example2 \$0-example2r empty 17 7
0 10 -262144 -1 -1;
#X text 770 14 open example-1;
#X text 770 36 open example-2;
#N canvas 102 154 450 300 examples 0;
#X obj 94 100 s pd;
#X obj 92 247 s pd;
#X obj 94 9 r \$0-example1;
#X msg 94 32 dir;
#X obj 94 55 pdcontrol;
#X obj 92 154 r \$0-example1;
#X msg 92 177 dir;
#X obj 92 200 pdcontrol;
#X msg 94 77 open 02-latency-compensation.pd \$1/Examples;
#X msg 92 224 open 08-chaotic_movement.pd \$1/Examples;
#X connect 2 0 3 0;
#X connect 3 0 4 0;
#X connect 4 0 8 0;
#X connect 5 0 6 0;
#X connect 6 0 7 0;
#X connect 7 0 9 0;
#X connect 8 0 0 0;
#X connect 9 0 1 0;
#X restore 304 280 pd examples;
#X connect 4 0 12 2;
#X connect 10 0 11 0;
#X connect 11 0 12 0;
#X connect 11 0 12 1;
#X connect 12 0 0 0;
#X connect 12 1 0 1;
#X connect 12 2 2 0;
