#N canvas 347 347 938 309 10;
#X obj 397 264 pp.out~;
#X obj 2 2 cnv 15 380 300 empty empty empty 20 12 0 14 -233017 -66577
0;
#X obj 12 15 cnv 15 10 10 empty empty pp.fft-pitchshift~ 0 0 2 16 -233017
-262144 0;
#X obj 570 117 cnv 15 118 17 empty empty empty 20 12 0 14 -260097 -66577
0;
#N canvas 195 89 443 304 control-messages 0;
#X obj 106 205 outlet;
#X msg 143 101 blocksize \$1;
#X msg 143 77 512;
#X msg 172 77 1024;
#X msg 208 78 2048;
#X msg 144 150 overlap \$1;
#X msg 144 125 2;
#X msg 173 126 4;
#X msg 204 126 8;
#X text 229 101 fft-blocksize;
#X floatatom 106 22 5 0 0 0 - - -;
#X msg 106 42 transposition \$1;
#X text 159 24 transposition in cents;
#X connect 1 0 0 0;
#X connect 2 0 1 0;
#X connect 3 0 1 0;
#X connect 4 0 1 0;
#X connect 5 0 0 0;
#X connect 6 0 5 0;
#X connect 7 0 5 0;
#X connect 8 0 5 0;
#X connect 10 0 11 0;
#X connect 11 0 0 0;
#X restore 570 117 pd control-messages;
#X text 10 93 Inlets:;
#X text 11 161 Outlets:;
#X obj 7 280 cnv 15 81 15 empty empty empty 20 12 0 14 -260097 -66577
0;
#N canvas 596 106 504 105 references 0;
#X obj 2 1 cnv 15 500 100 empty empty empty 20 12 0 14 -1 -66577 0
;
#X obj 3 2 cnv 15 498 98 empty empty empty 20 12 0 14 -233017 -66577
0;
#X text 21 41 help -> browser -> PureData/audio-examples/I07.phase.vocoder.pd
;
#X text 21 12 this abstraction uses the pd-implementation of the phase
vocoder;
#X restore 7 279 pd references;
#X obj 483 97 sig~;
#X floatatom 483 78 5 0 0 0 - - -;
#X text 519 79 transposition(cents);
#X text 11 46 Creation arguments: \$1: fft-blocksize \, default: 1024
;
#X text 131 58 \$2: overlap \, default: 4;
#X obj 397 139 pp.fft-pitchshift~ 1024 4;
#X msg 570 180 transposition 0 \, blocksize 1024 \, overlap 4 \,;
#X obj 453 21 osc~ 440;
#X obj 396 21 osc~ 220;
#X obj 453 42 *~ 0.5;
#X obj 511 21 osc~ 880;
#X obj 511 41 *~ 0.25;
#X obj 396 85 *~ 0.33;
#X text 67 92 1:(~)signal;
#X text 67 105 2:(~)transposition;
#X text 67 117 3:control-messages;
#X text 67 161 1:(~)transposed signal;
#X text 67 175 2:message;
#X connect 4 0 14 2;
#X connect 9 0 14 1;
#X connect 10 0 9 0;
#X connect 14 0 0 0;
#X connect 14 0 0 1;
#X connect 14 1 15 0;
#X connect 16 0 18 0;
#X connect 17 0 21 0;
#X connect 18 0 21 0;
#X connect 19 0 20 0;
#X connect 20 0 21 0;
#X connect 21 0 14 0;
