#N canvas 122 138 1018 622 10;
#X obj 298 85 inlet~;
#X obj 403 558 outlet~;
#X obj 103 130 hsl 130 15 0 100 0 0 \$0-gui \$0-guir Dry/Wet(%) 3 8 2 10 #e0e0e0 #000000 #000000 0 1;
#X obj 276 130 hsl 2 8 0 1 0 0 \$0-gui \$0-guir empty 3 8 2 10 #e0e0e0 #dcdcdc #000000 0 1;
#X obj 235 130 nbx 5 15 0 100 0 0 \$0-drywet \$0-drywetr empty 0 -8 2 10 #dcdcdc #000000 #000000 0 256;
#X msg 158 186 set \$1;
#X obj 75 167 i;
#X msg 75 188 set \$1;
#X obj 54 217 s \$0-drywet;
#X obj 100 115 bng 15 250 50 0 \$0-obng \$0-obngr empty 17 7 0 10 #dcdcdc #fcfcfc #000000;
#X obj 414 85 inlet~;
#X obj 539 556 outlet~;
#N canvas 3 54 450 300 delay 0;
#X obj 98 107 inlet~;
#X obj 98 128 outlet~;
#X obj 146 107 inlet~;
#X obj 146 128 outlet~;
#X obj 309 79 r \$0-min-blocksize;
#X obj 309 125 block~ \$1;
#X msg 309 102 set \$1 1;
#X connect 0 0 1 0;
#X connect 2 0 3 0;
#X connect 4 0 6 0;
#X connect 6 0 5 0;
#X restore 299 389 pd delay clean;
#X obj 530 111 *~ 0.01;
#X obj 118 115 hsl 160 15 0 100 0 0 \$0-irname-gui \$0-irname-guir empty.. 3 8 2 10 #e0e0e0 #dcdcdc #000000 0 1;
#X obj 760 541 outlet;
#N canvas 688 168 486 485 outlet-message 0;
#X obj 160 338 list trim;
#X msg 97 316 addcomma;
#X msg 26 233 set;
#X obj 160 315 list prepend add2;
#X obj 160 423 outlet;
#X obj 166 14 r \$0-open;
#X obj 166 35 t b a;
#X obj 85 22 r \$0-drywet;
#X obj 228 36 t b f;
#X obj 113 154 pack 100 s 1024 3000;
#X obj 344 36 t b f;
#X obj 344 14 r \$0-max-blocksize;
#X msg 143 218 blocksize \$3 \, dry/wet \$1 \, loadIR \$2 \, max-blocksize \$4;
#X obj 228 15 r \$0-min-blocksize;
#X obj 85 45 t b f;
#X obj 85 98 del 0;
#X obj 85 121 f;
#X obj 143 251 t b a a;
#X obj 113 185 t b a b;
#N canvas 497 347 297 264 save 0;
#X obj 48 16 inlet;
#N canvas 690 259 481 384 collect 0;
#X obj 47 60 inlet;
#X obj 47 274 outlet;
#X obj 98 180 list;
#X obj 166 181 t l;
#X obj 47 225 list;
#X obj 98 139 list append |;
#X obj 47 126 del 0;
#X obj 47 82 t b a;
#X text 119 75 hacky thing... replaycing " \, " with "|";
#X connect 0 0 7 0;
#X connect 2 0 3 0;
#X connect 2 0 4 1;
#X connect 3 0 2 1;
#X connect 4 0 1 0;
#X connect 5 0 2 0;
#X connect 6 0 2 1;
#X connect 6 0 4 0;
#X connect 7 0 6 0;
#X connect 7 1 5 0;
#X restore 48 38 pd collect;
#X obj 117 16 r \$0-save;
#X obj 27 130 text set \$0-savestates;
#X obj 27 104 list;
#X obj 117 62 t b f;
#X obj 117 39 clip 0 20;
#X connect 0 0 1 0;
#X connect 1 0 4 1;
#X connect 2 0 6 0;
#X connect 4 0 3 0;
#X connect 5 0 4 0;
#X connect 5 1 3 1;
#X connect 6 0 5 0;
#X restore 182 276 pd save;
#X connect 0 0 4 0;
#X connect 1 0 4 0;
#X connect 2 0 4 0;
#X connect 3 0 0 0;
#X connect 5 0 6 0;
#X connect 6 0 15 0;
#X connect 6 1 9 1;
#X connect 7 0 14 0;
#X connect 8 0 15 0;
#X connect 8 1 9 2;
#X connect 9 0 18 0;
#X connect 10 0 15 0;
#X connect 10 1 9 3;
#X connect 11 0 10 0;
#X connect 12 0 17 0;
#X connect 13 0 8 0;
#X connect 14 0 15 0;
#X connect 14 1 16 1;
#X connect 15 0 16 0;
#X connect 16 0 9 0;
#X connect 17 0 1 0;
#X connect 17 1 3 0;
#X connect 17 2 19 0;
#X connect 18 0 4 0;
#X connect 18 1 12 0;
#X connect 18 2 2 0;
#X restore 760 517 pd outlet-message;
#N canvas 2 57 745 476 dry/wet 0;
#X obj 182 27 inlet~;
#X obj 184 340 outlet~;
#X obj 184 272 *~;
#X obj 470 268 *~;
#X obj 548 119 line~;
#X obj 548 97 pack 0 30;
#X obj 316 229 -~;
#X obj 548 49 r \$0-drywet;
#X obj 548 72 / 50;
#X obj 330 205 clip~ 1 2;
#X obj 316 173 sig~ 2;
#X obj 519 200 clip~ 0 1;
#X obj 519 15 inlet~;
#X obj 518 119 +~;
#X obj 470 353 outlet~;
#X obj 282 27 inlet~;
#X obj 536 270 *~;
#X obj 536 355 outlet~;
#X obj 282 342 outlet~;
#X obj 282 279 *~;
#X connect 0 0 2 0;
#X connect 0 0 3 0;
#X connect 2 0 1 0;
#X connect 3 0 14 0;
#X connect 4 0 13 1;
#X connect 5 0 4 0;
#X connect 6 0 2 1;
#X connect 6 0 19 1;
#X connect 7 0 8 0;
#X connect 8 0 5 0;
#X connect 9 0 6 1;
#X connect 10 0 6 0;
#X connect 11 0 3 1;
#X connect 11 0 16 1;
#X connect 12 0 13 0;
#X connect 13 0 11 0;
#X connect 13 0 9 0;
#X connect 15 0 16 0;
#X connect 15 0 19 0;
#X connect 16 0 17 0;
#X connect 19 0 18 0;
#X restore 298 300 pd dry/wet;
#X f 39;
#X obj 530 91 inlet~;
#X text 575 91 dry/wet;
#X obj 766 96 inlet;
#N canvas 119 141 692 496 in 0;
#X obj 125 323 s \$0-open;
#X obj 125 300 symbol;
#X obj 125 38 inlet;
#X obj 199 321 clip 0 100;
#X obj 199 342 s \$0-drywetr;
#X obj 212 274 loadbang;
#X msg 212 295 100;
#N canvas 3 57 617 375 blocksize 0;
#X obj 184 76 t f f;
#X obj 184 212 spigot;
#X text 249 141 prevent setting blocksizes that are not a power of 2;
#X msg 244 244 blocksize is not a power of 2;
#X obj 184 294 outlet;
#X obj 244 222 sel 0;
#X obj 184 54 inlet;
#X obj 244 265 print pp.fft-partconv~;
#X obj 217 122 expr (($f1-1) & $f1) == 0;
#X connect 0 0 1 0;
#X connect 0 1 8 0;
#X connect 1 0 4 0;
#X connect 3 0 7 0;
#X connect 5 0 3 0;
#X connect 6 0 0 0;
#X connect 8 0 1 1;
#X connect 8 0 5 0;
#X restore 296 362 pd blocksize;
#X obj 305 268 f \$1;
#X obj 305 289 sel 0;
#X msg 305 312 1024;
#X obj 435 205 loadbang;
#X obj 462 424 s \$0-max-blocksize;
#X obj 462 301 sel 0;
#X obj 462 280 f \$2;
#X msg 462 327 65536;
#N canvas 3 57 617 375 blocksize 0;
#X obj 184 76 t f f;
#X obj 184 212 spigot;
#X text 249 141 prevent setting blocksizes that are not a power of 2;
#X obj 184 294 outlet;
#X obj 244 222 sel 0;
#X obj 184 54 inlet;
#X obj 244 265 print pp.fft-partconv~;
#X msg 244 244 max. blocksize is not a power of 2;
#X obj 217 122 expr (($f1-1) & $f1) == 0;
#X connect 0 0 1 0;
#X connect 0 1 8 0;
#X connect 1 0 3 0;
#X connect 4 0 7 0;
#X connect 5 0 0 0;
#X connect 7 0 6 0;
#X connect 8 0 1 1;
#X connect 8 0 4 0;
#X restore 462 400 pd blocksize;
#X obj 435 228 t b b;
#X obj 296 338 change;
#X obj 462 351 change;
#X obj 296 385 max 128;
#X obj 296 409 s \$0-min-blocksize;
#N canvas 698 546 200 251 route 0;
#X obj 20 20 inlet;
#X obj 30 60 route save recall;
#X obj 30 85 route float;
#X obj 97 111 route float;
#X obj 30 136 s \$0-save;
#X obj 30 108 i;
#X obj 98 133 i;
#X obj 98 161 s \$0-recall;
#X connect 0 0 1 0;
#X connect 1 0 2 0;
#X connect 1 1 3 0;
#X connect 2 0 5 0;
#X connect 3 0 6 0;
#X connect 5 0 4 0;
#X connect 6 0 7 0;
#X restore 148 81 pd route save-recall;
#N canvas 362 125 450 479 recall 0;
#X obj 49 145 outlet;
#N canvas 3 54 450 600 listsplit 0;
#X obj 158 23 inlet;
#X obj 220 87 list length;
#X obj 220 113 until;
#X obj 182 150 f;
#X obj 278 150 + 1;
#X msg 265 111 0;
#X obj 182 226 list store;
#X msg 182 202 get \$1 1;
#X obj 154 367 list split;
#X obj 222 342 f;
#X obj 154 334 list;
#X obj 98 124 list;
#X obj 182 389 list split 1;
#X obj 154 274 t bang bang bang;
#X obj 182 179 t f f;
#X obj 158 48 t l l l b;
#X obj 154 473 outlet;
#X obj 154 440 list trim;
#X obj 163 248 sel |;
#X text 275 197 hacky split list at "|";
#X connect 0 0 15 0;
#X connect 1 0 2 0;
#X connect 2 0 3 0;
#X connect 3 0 4 0;
#X connect 3 0 14 0;
#X connect 4 0 3 1;
#X connect 5 0 3 1;
#X connect 6 0 18 0;
#X connect 7 0 6 0;
#X connect 8 0 17 0;
#X connect 8 1 12 0;
#X connect 9 0 8 1;
#X connect 10 0 8 0;
#X connect 11 0 15 0;
#X connect 12 1 11 0;
#X connect 13 0 10 0;
#X connect 13 1 9 0;
#X connect 13 2 2 1;
#X connect 14 0 7 0;
#X connect 14 1 9 1;
#X connect 15 0 1 0;
#X connect 15 1 10 1;
#X connect 15 2 6 1;
#X connect 15 3 5 0;
#X connect 17 0 16 0;
#X connect 18 0 13 0;
#X restore 49 117 pd listsplit;
#X obj 49 24 r \$0-recall;
#X obj 49 54 pipe 1;
#X obj 221 409 text fromlist \$0-savestates;
#X obj 49 77 text get \$0-savestates;
#X msg 253 246 21;
#X obj 253 269 until;
#X obj 253 292 f;
#X obj 300 295 + 1;
#X obj 253 315 t b f;
#X obj 253 367 text set \$0-savestates;
#X obj 221 114 text tolist \$0-savestates;
#X msg 253 342 list empty_slot;
#X obj 221 160 t a b;
#X obj 151 166 loadbang;
#X obj 221 137 savestate;
#X obj 221 33 text define \$0-savestates;
#X obj 151 189 del 0;
#X msg 298 199 0;
#X obj 253 220 spigot 1;
#X connect 1 0 0 0;
#X connect 2 0 3 0;
#X connect 3 0 5 0;
#X connect 5 0 1 0;
#X connect 6 0 7 0;
#X connect 7 0 8 0;
#X connect 8 0 9 0;
#X connect 8 0 10 0;
#X connect 9 0 8 1;
#X connect 10 0 13 0;
#X connect 10 1 11 1;
#X connect 12 0 16 0;
#X connect 13 0 11 0;
#X connect 14 0 4 0;
#X connect 14 1 19 0;
#X connect 15 0 18 0;
#X connect 16 0 14 0;
#X connect 16 1 12 0;
#X connect 18 0 20 0;
#X connect 19 0 20 1;
#X connect 20 0 6 0;
#X restore 214 107 pd recall;
#X obj 125 137 route loadIR dry/wet set blocksize max-blocksize;
#X obj 462 376 min 262144;
#N canvas 518 274 450 300 set 0;
#X obj 161 29 inlet;
#X obj 152 140 array size;
#X obj 152 163 s \$0-ir-length;
#X msg 88 233 label \$1;
#X obj 161 54 unpack s s;
#X obj 51 154 symbol;
#X obj 51 96 t b s b s s;
#X obj 88 256 s \$0-irname-guir;
#X obj 51 200 s \$0-set-tab-r;
#X obj 207 249 s \$0-set-tab-l;
#X connect 0 0 4 0;
#X connect 1 0 2 0;
#X connect 3 0 7 0;
#X connect 4 0 6 0;
#X connect 4 1 5 1;
#X connect 5 0 8 0;
#X connect 6 0 5 0;
#X connect 6 1 3 0;
#X connect 6 1 9 0;
#X connect 6 2 1 0;
#X connect 6 3 1 1;
#X restore 239 210 pd set;
#X connect 1 0 0 0;
#X connect 2 0 22 0;
#X connect 2 0 24 0;
#X connect 3 0 4 0;
#X connect 5 0 6 0;
#X connect 6 0 4 0;
#X connect 7 0 20 0;
#X connect 8 0 9 0;
#X connect 9 0 10 0;
#X connect 9 1 18 0;
#X connect 10 0 18 0;
#X connect 11 0 17 0;
#X connect 13 0 15 0;
#X connect 13 1 19 0;
#X connect 14 0 13 0;
#X connect 15 0 19 0;
#X connect 16 0 12 0;
#X connect 17 0 8 0;
#X connect 17 1 14 0;
#X connect 18 0 7 0;
#X connect 19 0 25 0;
#X connect 20 0 21 0;
#X connect 23 0 24 0;
#X connect 24 0 1 0;
#X connect 24 1 3 0;
#X connect 24 2 26 0;
#X connect 24 3 18 0;
#X connect 24 4 19 0;
#X connect 25 0 16 0;
#X restore 766 118 pd in;
#X text 845 546 philipp schmalfuß \, 2018-26;
#N canvas 353 330 1176 548 collect_subroc_msg 0;
#X obj 773 46 r \$0-min-blocksize;
#X obj 943 48 r \$0-max-blocksize;
#X obj 39 186 list prepend open;
#X obj 772 189 list prepend min-blocksize;
#X obj 943 187 list prepend max-blocksize;
#X obj 39 306 list trim;
#X obj 39 329 outlet;
#N canvas 673 485 450 300 check 0;
#X obj 170 37 inlet;
#X obj 209 104 list store;
#X obj 170 190 outlet;
#X obj 263 37 inlet;
#X obj 209 127 route bang;
#X connect 0 0 1 1;
#X connect 0 0 2 0;
#X connect 1 0 4 0;
#X connect 3 0 1 0;
#X connect 4 1 2 0;
#X restore 943 156 pd check;
#N canvas 673 485 450 300 check 0;
#X obj 170 37 inlet;
#X obj 209 104 list store;
#X obj 170 190 outlet;
#X obj 263 37 inlet;
#X obj 209 127 route bang;
#X connect 0 0 1 1;
#X connect 0 0 2 0;
#X connect 1 0 4 0;
#X connect 3 0 1 0;
#X connect 4 1 2 0;
#X restore 773 159 pd check;
#N canvas 673 485 450 300 check 0;
#X obj 170 37 inlet;
#X obj 209 104 list store;
#X obj 170 190 outlet;
#X obj 263 37 inlet;
#X obj 209 127 route bang;
#X connect 0 0 1 1;
#X connect 0 0 2 0;
#X connect 1 0 4 0;
#X connect 3 0 1 0;
#X connect 4 1 2 0;
#X restore 295 156 pd check;
#N canvas 673 485 450 300 check 0;
#X obj 170 37 inlet;
#X obj 209 104 list store;
#X obj 170 190 outlet;
#X obj 263 37 inlet;
#X obj 209 127 route bang;
#X connect 0 0 1 1;
#X connect 0 0 2 0;
#X connect 1 0 4 0;
#X connect 3 0 1 0;
#X connect 4 1 2 0;
#X restore 157 155 pd check;
#N canvas 673 485 450 300 check 0;
#X obj 170 37 inlet;
#X obj 209 104 list store;
#X obj 170 190 outlet;
#X obj 263 37 inlet;
#X obj 209 127 route bang;
#X connect 0 0 1 1;
#X connect 0 0 2 0;
#X connect 1 0 4 0;
#X connect 3 0 1 0;
#X connect 4 1 2 0;
#X restore 41 155 pd check;
#X obj 403 55 loadbang;
#X obj 403 78 del 1;
#X obj 156 40 r \$0-copy_tab-l;
#X obj 295 39 r \$0-copy_size-l;
#X obj 157 185 list prepend copyIR-l;
#X obj 295 186 list prepend copyIRsize-l;
#N canvas 673 485 450 300 check 0;
#X obj 170 37 inlet;
#X obj 209 104 list store;
#X obj 170 190 outlet;
#X obj 263 37 inlet;
#X obj 209 127 route bang;
#X connect 0 0 1 1;
#X connect 0 0 2 0;
#X connect 1 0 4 0;
#X connect 3 0 1 0;
#X connect 4 1 2 0;
#X restore 601 158 pd check;
#N canvas 673 485 450 300 check 0;
#X obj 170 37 inlet;
#X obj 209 104 list store;
#X obj 170 190 outlet;
#X obj 263 37 inlet;
#X obj 209 127 route bang;
#X connect 0 0 1 1;
#X connect 0 0 2 0;
#X connect 1 0 4 0;
#X connect 3 0 1 0;
#X connect 4 1 2 0;
#X restore 463 157 pd check;
#X obj 463 40 r \$0-copy_tab-r;
#X obj 601 41 r \$0-copy_size-r;
#X obj 463 187 list prepend copyIR-r;
#X obj 601 188 list prepend copyIRsize-r;
#X obj 403 101 t b b b b b b b;
#X obj 40 40 r \$0-subopen;
#X connect 0 0 8 0;
#X connect 1 0 7 0;
#X connect 2 0 5 0;
#X connect 3 0 5 0;
#X connect 4 0 5 0;
#X connect 5 0 6 0;
#X connect 7 0 4 0;
#X connect 8 0 3 0;
#X connect 9 0 17 0;
#X connect 10 0 16 0;
#X connect 11 0 2 0;
#X connect 12 0 13 0;
#X connect 13 0 24 0;
#X connect 14 0 10 0;
#X connect 15 0 9 0;
#X connect 16 0 5 0;
#X connect 17 0 5 0;
#X connect 18 0 23 0;
#X connect 19 0 22 0;
#X connect 20 0 19 0;
#X connect 21 0 18 0;
#X connect 22 0 5 0;
#X connect 23 0 5 0;
#X connect 24 0 11 1;
#X connect 24 1 10 1;
#X connect 24 2 9 1;
#X connect 24 3 19 1;
#X connect 24 4 18 1;
#X connect 24 5 8 1;
#X connect 24 6 7 1;
#X connect 25 0 11 0;
#X restore 560 289 pd collect_subroc_msg;
#X obj 640 316 loadbang;
#X obj 509 437 print pp.fft-partconv~;
#X msg 582 383 pd~ vis 1;
#X obj 509 413 pd~ -ninsig 2 -noutsig 2 -fifo 20;
#N canvas 1134 586 665 287 set 0;
#X obj 64 133 array get;
#X obj 170 134 array size;
#X obj 90 81 t b a b a;
#X obj 89 44 r \$0-set-tab-l;
#X obj 298 127 array get;
#X obj 434 130 array size;
#X obj 298 79 t b a b a;
#X obj 64 156 s \$0-copy_tab-l;
#X obj 170 156 s \$0-copy_size-l;
#X obj 298 150 s \$0-copy_tab-r;
#X obj 434 152 s \$0-copy_size-r;
#X obj 297 42 r \$0-set-tab-r;
#X connect 0 0 7 0;
#X connect 1 0 8 0;
#X connect 2 0 0 0;
#X connect 2 1 0 2;
#X connect 2 2 1 0;
#X connect 2 3 1 1;
#X connect 3 0 2 0;
#X connect 4 0 9 0;
#X connect 5 0 10 0;
#X connect 6 0 4 0;
#X connect 6 1 4 2;
#X connect 6 2 5 0;
#X connect 6 3 5 1;
#X connect 11 0 6 0;
#X restore 765 158 pd set;
#X msg 640 338 pd~ start -nogui -send pd\ dsp\ 1 pp.fft-partconv-st-subproc.pd;
#N canvas 728 310 715 331 load-IR 0;
#X obj 63 80 s \$0-open;
#X obj 63 12 r \$0-obng;
#N canvas 522 220 600 405 openpanel 0;
#X obj 145 270 openpanel;
#X obj 145 47 f;
#X obj 175 48 + 1;
#X obj 145 70 sel 0;
#X obj 173 168 t b;
#X obj 145 20 inlet;
#X obj 145 293 outlet;
#X text 237 158 remember last directory;
#X obj 145 124 symbol ./;
#X obj 224 69 symbol;
#X obj 224 46 r \$0-open;
#X obj 173 210 symbol ./;
#N canvas 426 89 883 671 splitfilename 0;
#X obj 219 286 outlet;
#X text 263 289 filename;
#X obj 185 210 inlet;
#X obj 185 233 file splitname;
#X obj 185 256 list split 1;
#X obj 185 310 outlet;
#X connect 2 0 3 0;
#X connect 3 0 4 0;
#X connect 3 1 0 0;
#X connect 4 0 5 0;
#X connect 4 1 0 0;
#X restore 224 93 pd splitfilename;
#X connect 0 0 6 0;
#X connect 1 0 2 0;
#X connect 1 0 3 0;
#X connect 2 0 1 1;
#X connect 3 0 8 0;
#X connect 3 1 4 0;
#X connect 4 0 11 0;
#X connect 5 0 1 0;
#X connect 8 0 0 0;
#X connect 9 0 12 0;
#X connect 10 0 9 0;
#X connect 11 0 0 0;
#X connect 12 0 8 1;
#X connect 12 0 11 1;
#X restore 63 35 pd openpanel;
#X msg 381 271 label \$1;
#X msg 365 234 label empty..;
#X obj 365 211 loadbang;
#X obj 381 293 s \$0-irname-guir;
#N canvas 426 89 883 671 splitfilename 0;
#X obj 219 286 outlet;
#X text 263 289 filename;
#X obj 185 210 inlet;
#X obj 185 233 file splitname;
#X obj 185 256 list split 1;
#X obj 185 310 outlet;
#X connect 2 0 3 0;
#X connect 3 0 4 0;
#X connect 3 1 0 0;
#X connect 4 0 5 0;
#X connect 4 1 0 0;
#X restore 248 235 pd splitfilename;
#X obj 186 19 r \$0-open;
#X obj 186 89 file which;
#X msg 243 143 couldn't find \$1;
#X obj 243 166 print fft-partconv~;
#X obj 243 121 symbol;
#X obj 186 52 t a a, f 15;
#X obj 143 233 s \$0-subopen;
#X connect 1 0 2 0;
#X connect 2 0 0 0;
#X connect 3 0 6 0;
#X connect 4 0 6 0;
#X connect 5 0 4 0;
#X connect 7 1 3 0;
#X connect 8 0 13 0;
#X connect 9 0 7 0;
#X connect 9 0 14 0;
#X connect 9 1 12 0;
#X connect 10 0 11 0;
#X connect 12 0 10 0;
#X connect 13 0 9 0;
#X connect 13 1 12 1;
#X restore 766 187 pd load-IR;
#X connect 0 0 17 0;
#X connect 2 0 6 0;
#X connect 4 0 5 0;
#X connect 5 0 2 0;
#X connect 6 0 7 0;
#X connect 6 0 8 0;
#X connect 7 0 4 0;
#X connect 10 0 17 1;
#X connect 12 0 1 0;
#X connect 12 1 11 0;
#X connect 13 0 17 2;
#X connect 16 0 15 0;
#X connect 17 0 12 0;
#X connect 17 1 12 1;
#X connect 17 2 27 0;
#X connect 17 3 27 1;
#X connect 18 0 13 0;
#X connect 20 0 21 0;
#X connect 23 0 27 0;
#X connect 24 0 29 0;
#X connect 26 0 27 0;
#X connect 27 0 25 0;
#X connect 27 1 1 0;
#X connect 27 2 11 0;
#X connect 29 0 27 0;
#X coords 0 -1 1 1 180 48 1 100 100;
