#N canvas 252 91 778 519 10;
#X obj 398 93 inlet;
#X obj 100 115 cnv 15 136 26 empty empty empty 20 12 0 14 -1 -66577
0;
#X obj 101 116 cnv 15 134 24 empty empty empty 20 12 0 14 -233017 -66577
0;
#X obj 106 129 hradio 10 1 0 7 \$0-bl \$0-blr Blocksize:1024 0 -8 2
10 -228856 -1 -1 2;
#X obj 186 129 hradio 10 1 0 4 \$0-ov \$0-ovr Overlap:4 0 -8 2 10 -228856
-1 -1 1;
#N canvas 562 99 636 488 stuff 0;
#X obj 44 79 expr pow(2 \, $f1);
#X obj 44 60 + 8;
#X obj 197 56 + 1;
#X obj 197 79 expr pow(2 \, $f1);
#X obj 197 35 r \$0-ov;
#X obj 44 40 r \$0-bl;
#X msg 56 103 label Blocksize:\$1;
#X obj 56 124 s \$0-blr;
#X msg 202 100 label Overlap:\$1;
#X obj 202 121 s \$0-ovr;
#X obj 44 273 outlet;
#X msg 44 231 set \$1 1 1;
#X msg 321 305 2;
#X msg 375 305 1;
#X obj 346 105 loadbang;
#X obj 346 155 f \$1;
#X obj 432 157 f \$2;
#X obj 346 177 sel 0;
#X obj 432 178 sel 0;
#X obj 349 244 - 8;
#X obj 422 270 - 1;
#X obj 321 326 s \$0-blr;
#X obj 375 327 s \$0-ovr;
#X obj 349 223 expr rint(ln($f1)/ln(2));
#X obj 422 249 expr rint(ln($f1)/ln(2));
#X connect 0 0 6 0;
#X connect 0 0 11 0;
#X connect 1 0 0 0;
#X connect 2 0 3 0;
#X connect 3 0 8 0;
#X connect 4 0 2 0;
#X connect 5 0 1 0;
#X connect 6 0 7 0;
#X connect 8 0 9 0;
#X connect 11 0 10 0;
#X connect 12 0 21 0;
#X connect 13 0 22 0;
#X connect 14 0 15 0;
#X connect 14 0 16 0;
#X connect 15 0 17 0;
#X connect 16 0 18 0;
#X connect 17 0 12 0;
#X connect 17 1 23 0;
#X connect 18 0 13 0;
#X connect 18 1 24 0;
#X connect 19 0 21 0;
#X connect 20 0 22 0;
#X connect 23 0 19 0;
#X connect 24 0 20 0;
#X restore 396 147 pd stuff;
#X obj 396 168 block~ 1024;
#N canvas 3 52 573 356 outlet-message 0;
#X obj 249 295 list trim;
#X msg 169 293 addcomma;
#X msg 105 300 set;
#X obj 249 272 list prepend add2;
#X obj 249 380 outlet;
#X obj 203 240 t b a;
#X msg 203 202 blocksize \$1 \, overlap \$2 \,;
#X obj 158 43 expr pow(2 \, $f1);
#X obj 158 24 + 8;
#X obj 311 20 + 1;
#X obj 311 43 expr pow(2 \, $f1);
#X obj 311 -1 r \$0-ov;
#X obj 158 4 r \$0-bl;
#X obj 265 73 t b f;
#X obj 172 97 del 0;
#X obj 158 64 t b f;
#X obj 172 117 f 1024;
#X obj 174 135 pack 1024 4;
#X obj 174 157 t b a b;
#X connect 0 0 4 0;
#X connect 1 0 4 0;
#X connect 2 0 4 0;
#X connect 3 0 0 0;
#X connect 5 0 1 0;
#X connect 5 1 3 0;
#X connect 6 0 5 0;
#X connect 7 0 15 0;
#X connect 8 0 7 0;
#X connect 9 0 10 0;
#X connect 10 0 13 0;
#X connect 11 0 9 0;
#X connect 12 0 8 0;
#X connect 13 0 14 0;
#X connect 13 1 17 1;
#X connect 14 0 16 0;
#X connect 15 0 14 0;
#X connect 15 1 16 1;
#X connect 16 0 17 0;
#X connect 17 0 18 0;
#X connect 18 0 4 0;
#X connect 18 1 6 0;
#X connect 18 2 2 0;
#X restore 396 230 pd outlet-message;
#N canvas 436 249 450 300 in 0;
#X obj 76 30 inlet;
#X obj 76 51 route blocksize overlap;
#X obj 76 136 - 8;
#X obj 149 162 - 1;
#X obj 76 210 s \$0-blr;
#X obj 149 212 s \$0-ovr;
#X obj 76 83 log 2;
#X obj 157 85 log 2;
#X obj 76 115 expr rint($f1);
#X obj 149 141 expr rint($f1);
#X connect 0 0 1 0;
#X connect 1 0 6 0;
#X connect 1 1 7 0;
#X connect 2 0 4 0;
#X connect 3 0 5 0;
#X connect 6 0 8 0;
#X connect 7 0 9 0;
#X connect 8 0 2 0;
#X connect 9 0 3 0;
#X restore 398 117 pd in;
#X obj 396 252 outlet;
#X obj 301 111 inlet~;
#X obj 301 132 outlet~;
#X text 588 466 philipp schmalfuß \, 2018;
#X connect 0 0 8 0;
#X connect 5 0 6 0;
#X connect 7 0 9 0;
#X connect 10 0 11 0;
#X coords 0 -1 1 1 136 44 1 100 100;
