#N canvas 379 264 872 501 10;
#X obj 276 81 inlet~;
#X obj 275 249 *~;
#X obj 348 248 *~;
#X obj 276 283 -~;
#X obj 276 339 outlet~;
#X obj 601 77 inlet~;
#X obj 601 188 cos~;
#X obj 636 166 +~ -0.25;
#X obj 636 188 cos~;
#X obj 602 141 phasor~;
#N canvas 220 72 637 401 olli 0;
#X obj 292 117 inlet~;
#X obj 43 299 outlet~;
#X obj 293 304 outlet~;
#X text 40 332 Pd's biquad:;
#X obj 43 174 biquad~ 0 0.161758 0.161758 0 -1;
#X obj 43 203 biquad~ 0 0.733029 0.733029 0 -1;
#X obj 43 235 biquad~ 0 0.94535 0.94535 0 -1;
#X obj 43 262 biquad~ 0 0.990598 0.990598 0 -1;
#X obj 293 177 biquad~ 0 0.479401 0.479401 0 -1;
#X obj 293 207 biquad~ 0 0.876218 0.876218 0 -1;
#X obj 293 239 biquad~ 0 0.976599 0.976599 0 -1;
#X obj 293 267 biquad~ 0 0.9975 0.9975 0 -1;
#X text 95 300 first phase;
#X text 349 303 second phase;
#X text 177 302 << 90 degree >>;
#X obj 293 150 rzero_rev~ 0;
#X text 40 43 Olli Niemitalo's quadrature transform coefficients;
#X text 39 78 http://yehar.com/blog/?p=368;
#X text 39 63 http://www.katjaas.nl/hilbert/hilbert.html;
#X connect 0 0 4 0;
#X connect 0 0 15 0;
#X connect 4 0 5 0;
#X connect 5 0 6 0;
#X connect 6 0 7 0;
#X connect 7 0 1 0;
#X connect 8 0 9 0;
#X connect 9 0 10 0;
#X connect 10 0 11 0;
#X connect 11 0 2 0;
#X connect 15 0 8 0;
#X restore 275 184 pd olli;
#X obj 602 120 +~;
#X obj 648 77 r \$0-shift;
#X obj 648 96 sig~;
#X obj 103 115 hsl 105 15 -1000 1000 0 0 \$0-gui \$0-guir Frequency(hz)
3 8 2 10 -233017 -1 -1 5200 1;
#X obj 251 115 hsl 2 8 0 1 0 0 \$0-gui \$0-guir empty 3 8 2 10 -233017
-228856 -1 0 1;
#X obj 210 115 nbx 5 15 -1e+14 1e+16 0 0 \$0-shift \$0-shiftr empty
0 -8 2 10 -228856 -1 -1 0 256;
#X msg 210 138 set \$1;
#X obj 41 78 loadbang;
#X msg 41 99 0;
#X obj 756 74 inlet;
#X obj 763 216 r \$0-shift;
#X obj 763 292 outlet;
#X obj 101 144 i;
#X msg 101 165 set \$1;
#X obj 80 194 s \$0-shift;
#X obj 763 266 t b a;
#X obj 756 116 s \$0-shiftr;
#X obj 515 78 inlet~;
#X obj 515 252 *~;
#X obj 588 251 *~;
#X obj 516 286 -~;
#X obj 516 342 outlet~;
#N canvas 220 72 637 401 olli 0;
#X obj 292 117 inlet~;
#X obj 43 299 outlet~;
#X obj 293 304 outlet~;
#X text 40 332 Pd's biquad:;
#X obj 43 174 biquad~ 0 0.161758 0.161758 0 -1;
#X obj 43 203 biquad~ 0 0.733029 0.733029 0 -1;
#X obj 43 235 biquad~ 0 0.94535 0.94535 0 -1;
#X obj 43 262 biquad~ 0 0.990598 0.990598 0 -1;
#X obj 293 177 biquad~ 0 0.479401 0.479401 0 -1;
#X obj 293 207 biquad~ 0 0.876218 0.876218 0 -1;
#X obj 293 239 biquad~ 0 0.976599 0.976599 0 -1;
#X obj 293 267 biquad~ 0 0.9975 0.9975 0 -1;
#X text 95 300 first phase;
#X text 349 303 second phase;
#X text 177 302 << 90 degree >>;
#X obj 293 150 rzero_rev~ 0;
#X text 40 43 Olli Niemitalo's quadrature transform coefficients;
#X text 39 78 http://yehar.com/blog/?p=368;
#X text 39 63 http://www.katjaas.nl/hilbert/hilbert.html;
#X connect 0 0 4 0;
#X connect 0 0 15 0;
#X connect 4 0 5 0;
#X connect 5 0 6 0;
#X connect 6 0 7 0;
#X connect 7 0 1 0;
#X connect 8 0 9 0;
#X connect 9 0 10 0;
#X connect 10 0 11 0;
#X connect 11 0 2 0;
#X connect 15 0 8 0;
#X restore 515 187 pd olli;
#X obj 756 95 route frequency-shift;
#X msg 763 237 set frequency-shift \$1;
#X text 588 466 philipp schmalfuß \, 2018;
#X connect 0 0 10 0;
#X connect 1 0 3 0;
#X connect 2 0 3 1;
#X connect 3 0 4 0;
#X connect 5 0 11 0;
#X connect 6 0 1 1;
#X connect 6 0 29 1;
#X connect 7 0 8 0;
#X connect 8 0 2 1;
#X connect 8 0 30 1;
#X connect 9 0 7 0;
#X connect 9 0 6 0;
#X connect 10 0 1 0;
#X connect 10 1 2 0;
#X connect 11 0 9 0;
#X connect 12 0 13 0;
#X connect 13 0 11 1;
#X connect 14 0 23 0;
#X connect 16 0 17 0;
#X connect 17 0 14 0;
#X connect 18 0 19 0;
#X connect 19 0 14 0;
#X connect 20 0 34 0;
#X connect 21 0 35 0;
#X connect 23 0 24 0;
#X connect 23 0 25 0;
#X connect 24 0 16 0;
#X connect 26 0 22 0;
#X connect 26 1 22 0;
#X connect 28 0 33 0;
#X connect 29 0 31 0;
#X connect 30 0 31 1;
#X connect 31 0 32 0;
#X connect 33 0 29 0;
#X connect 33 1 30 0;
#X connect 34 0 27 0;
#X connect 35 0 26 0;
#X coords 0 -1 1 1 155 33 1 100 100;
