#N canvas 164 52 978 713 10;
#X obj 187 414 *~;
#X obj 142 414 *~;
#X obj 143 166 inlet~;
#X obj 183 486 rifft~;
#X obj 184 683 outlet~;
#X obj 262 415 *~;
#X obj 291 415 *~;
#X obj 142 442 -~;
#X obj 261 444 +~;
#X obj 62 78 inlet;
#X obj 308 333 rfft~;
#X obj 142 323 rfft~;
#X obj 639 348 switch~;
#X obj 709 102 f \$1;
#X obj 709 141 / 2;
#X obj 709 162 i;
#X obj 709 123 + 0.5;
#X obj 722 300 s \$0-blocksize;
#X obj 710 191 + 8;
#X obj 246 482 r \$0-blocksize;
#X msg 246 501 1 \$1;
#X obj 246 522 /;
#X obj 182 521 *~;
#N canvas 3 52 450 300 \$0-delay 0;
#X obj 85 54 inlet~;
#X restore 93 567 pd \$0-delay;
#N canvas 150 296 645 383 make-delay 0;
#X obj 111 200 / 44.1;
#X obj 86 56 f \$1;
#X obj 111 176 * 0.5;
#X obj 201 186 / 1000;
#X obj 205 258 i;
#X obj 205 237 + 10;
#X obj 205 333 s pd-\$0-delay;
#X obj 205 281 pack 0 \$0;
#X obj 132 385 s pd-\$0-delread;
#X obj 81 123 spigot;
#X obj 114 102 mod 2;
#X obj 112 320 pack 0 \$0;
#X obj 111 221 t f f;
#X obj 86 77 t b f;
#X obj 111 154 f;
#X obj 174 15 r \$0-blocksize;
#X obj 174 35 t b f b;
#X obj 203 161 samplerate~;
#X msg 205 304 obj 100 100 delwrite~ \$2-d \$1 \, connect 0 0 1 0;
#X msg 112 362 obj 100 100 delread~ \$2-d \$1 \, connect 1 0 0 0;
#X connect 0 0 12 0;
#X connect 1 0 13 0;
#X connect 2 0 0 0;
#X connect 3 0 0 1;
#X connect 4 0 7 0;
#X connect 5 0 4 0;
#X connect 7 0 18 0;
#X connect 9 0 14 0;
#X connect 10 0 9 1;
#X connect 11 0 19 0;
#X connect 12 0 11 0;
#X connect 12 1 5 0;
#X connect 13 0 9 0;
#X connect 13 1 10 0;
#X connect 14 0 2 0;
#X connect 15 0 16 0;
#X connect 16 0 1 0;
#X connect 16 1 14 1;
#X connect 16 2 17 0;
#X connect 17 0 3 0;
#X connect 18 0 6 0;
#X connect 19 0 8 0;
#X restore 93 588 pd make-delay;
#X obj 142 282 *~;
#X obj 204 570 f \$1;
#X obj 204 591 mod 2;
#X obj 204 611 == 0;
#N canvas 3 52 450 300 \$0-delread 0;
#X obj 166 205 outlet~;
#X restore 222 640 pd \$0-delread;
#X msg 606 229 1;
#X msg 639 304 set \$1 2;
#X obj 690 71 t b b b;
#X obj 183 640 *~ 1;
#X obj 710 212 min 20;
#X obj 710 235 expr pow(2 \, $f1);
#X text 814 140 log base 2 \, ie 256 = 2^8;
#X obj 690 50 r \$2-loadbang;
#X obj 204 550 r \$2-loadbang;
#X obj 295 123 bang~;
#X floatatom 423 133 10 0 0 0 - - -;
#X floatatom 355 133 10 0 0 0 - - -;
#X obj 158 238 tabreceive~ \$0-square;
#X obj 709 258 + 0.5;
#X obj 709 279 i;
#X text 758 275 protect against rounding error;
#X obj 308 293 *~;
#N canvas 411 266 367 299 square-window 0;
#X obj 54 198 table \$0-square;
#X obj 64 91 until;
#X obj 64 113 f;
#X obj 92 113 + 1;
#X obj 64 20 inlet;
#X obj 64 67 * 0.5;
#X msg 64 138 \$1 1;
#X obj 64 162 s \$0-square;
#X obj 64 43 t f f;
#X obj 134 59 array size \$0-square;
#X connect 1 0 2 0;
#X connect 2 0 3 0;
#X connect 2 0 6 0;
#X connect 3 0 2 1;
#X connect 4 0 8 0;
#X connect 5 0 1 0;
#X connect 6 0 7 0;
#X connect 8 0 5 0;
#X connect 8 1 9 0;
#X restore 723 430 pd square-window;
#X obj 723 406 r \$0-blocksize;
#X obj 774 121 f \$3;
#X obj 774 144 log 2;
#X floatatom 709 328 10 0 0 0 - - -;
#N canvas 605 263 423 366 onset 0;
#X obj 67 47 inlet;
#X obj 217 251 +;
#X obj 189 216 t f f;
#X obj 189 301 outlet;
#X obj 203 158 expr (pow(2 \, $f1) - 1) * \$3, f 28;
#X obj 188 187 +;
#X obj 67 73 trigger float float, f 28;
#X obj 62 102 expr $f1 * (\$1 % 2) / 2 \; int(\$1 / 2);
#X obj 238 302 outlet;
#X connect 0 0 6 0;
#X connect 1 0 8 0;
#X connect 2 0 3 0;
#X connect 2 1 1 0;
#X connect 4 0 5 1;
#X connect 5 0 2 0;
#X connect 6 0 7 0;
#X connect 6 1 1 1;
#X connect 7 0 5 0;
#X connect 7 1 4 0;
#X restore 338 106 pd onset;
#X obj 338 82 r \$0-blocksize;
#X obj 323 154 f;
#X obj 323 177 pack 0 0;
#X obj 323 225 tabplay~ \$2-impulse;
#X obj 364 204 r \$2-set-imp;
#X text 373 581 \$1 clone-instance \, \$2 parrent \$0 \, \$3 min blocksize
;
#X connect 0 0 7 1;
#X connect 1 0 7 0;
#X connect 2 0 25 0;
#X connect 3 0 22 0;
#X connect 5 0 8 0;
#X connect 6 0 8 1;
#X connect 7 0 3 0;
#X connect 8 0 3 1;
#X connect 10 0 1 1;
#X connect 10 0 6 1;
#X connect 10 1 0 1;
#X connect 10 1 5 1;
#X connect 11 0 1 0;
#X connect 11 0 5 0;
#X connect 11 1 0 0;
#X connect 11 1 6 0;
#X connect 13 0 16 0;
#X connect 14 0 15 0;
#X connect 15 0 18 0;
#X connect 16 0 14 0;
#X connect 18 0 34 0;
#X connect 19 0 20 0;
#X connect 20 0 21 0;
#X connect 21 0 22 1;
#X connect 22 0 23 0;
#X connect 22 0 33 0;
#X connect 25 0 11 0;
#X connect 26 0 27 0;
#X connect 27 0 28 0;
#X connect 28 0 33 1;
#X connect 29 0 4 0;
#X connect 30 0 12 0;
#X connect 31 0 12 0;
#X connect 32 0 30 0;
#X connect 32 1 13 0;
#X connect 32 2 49 0;
#X connect 33 0 4 0;
#X connect 34 0 35 0;
#X connect 35 0 43 0;
#X connect 37 0 32 0;
#X connect 38 0 26 0;
#X connect 39 0 54 0;
#X connect 42 0 25 1;
#X connect 42 0 46 0;
#X connect 43 0 44 0;
#X connect 44 0 17 0;
#X connect 44 0 51 0;
#X connect 44 0 31 0;
#X connect 46 0 10 0;
#X connect 48 0 47 0;
#X connect 49 0 50 0;
#X connect 50 0 18 1;
#X connect 52 0 41 0;
#X connect 52 0 54 1;
#X connect 52 1 40 0;
#X connect 52 1 55 1;
#X connect 53 0 52 0;
#X connect 54 0 55 0;
#X connect 55 0 56 0;
#X connect 56 0 46 1;
#X connect 57 0 56 0;
