#N canvas 209 150 848 562 10;
#X obj 404 453 *~;
#N canvas 41 54 743 528 load-IR 0;
#X obj 257 210 soundfiler;
#X obj 257 168 pack s \$0;
#X obj 205 315 s \$0-ir-length;
#N canvas 388 252 797 390 sondfile-info 0;
#N canvas 3 52 476 397 splitfilename 0;
#N canvas 3 52 450 300 listget 0;
#X obj 153 146 list split;
#X obj 210 193 list length;
#X obj 153 170 t l l;
#X obj 153 237 list split;
#X obj 210 216 - 1;
#X obj 151 116 list;
#X obj 319 37 inlet list;
#X obj 181 266 outlet element;
#X obj 143 24 inlet n;
#X obj 152 54 t b f;
#X obj 220 121 max 1;
#X connect 0 0 2 0;
#X connect 1 0 4 0;
#X connect 2 0 3 0;
#X connect 2 1 1 0;
#X connect 3 1 7 0;
#X connect 4 0 3 1;
#X connect 5 0 0 0;
#X connect 6 0 5 1;
#X connect 8 0 9 0;
#X connect 9 0 5 0;
#X connect 9 1 10 0;
#X connect 10 0 0 1;
#X restore 163 237 pd listget;
#X obj 163 51 list fromsymbol;
#X obj 163 73 trigger list list bang;
#X obj 163 95 list length;
#X obj 163 151 until;
#X obj 163 173 f;
#X obj 195 185 - 1;
#X obj 163 259 t f f;
#X obj 163 118 t f f;
#X obj 215 303 t l;
#X obj 246 348 list;
#X obj 319 286 sel;
#X obj 319 309 t b b;
#X obj 246 370 list tosymbol;
#X obj 337 220 loadbang;
#X obj 337 242 symbol /;
#X obj 337 264 list fromsymbol;
#X obj 163 29 inlet symbol path;
#X obj 246 392 outlet symbol filename;
#X obj 163 294 list;
#X obj 70 274 sel 1;
#X obj 70 251 t f f;
#X connect 0 0 7 0;
#X connect 1 0 2 0;
#X connect 2 0 3 0;
#X connect 2 1 0 1;
#X connect 2 2 19 1;
#X connect 3 0 8 0;
#X connect 4 0 5 0;
#X connect 5 0 6 0;
#X connect 5 0 21 0;
#X connect 6 0 5 1;
#X connect 7 0 19 0;
#X connect 7 1 11 0;
#X connect 8 0 4 0;
#X connect 8 1 5 1;
#X connect 9 0 19 1;
#X connect 10 0 13 0;
#X connect 11 0 12 0;
#X connect 12 0 10 0;
#X connect 12 1 4 1;
#X connect 13 0 18 0;
#X connect 14 0 15 0;
#X connect 15 0 16 0;
#X connect 16 0 11 1;
#X connect 17 0 1 0;
#X connect 19 0 9 0;
#X connect 19 0 10 1;
#X connect 20 0 10 0;
#X connect 21 0 20 0;
#X connect 21 1 0 0;
#X restore 252 64 pd splitfilename;
#X obj 252 42 inlet path;
#X obj 53 35 inlet samp.length;
#X obj 52 82 sel 1;
#X msg 158 244 loaded IR: \$1;
#X obj 52 104 del 1;
#X msg 51 126 IR-lenght exceed buffer;
#X msg 479 106 label \$1;
#X msg 460 79 label empty..;
#X obj 460 56 loadbang;
#X obj 479 128 s \$0-irname;
#X obj 52 60 >;
#X obj 176 327 print pp.fft-partconv~;
#X connect 0 0 7 0;
#X connect 0 0 4 0;
#X connect 1 0 0 0;
#X connect 3 0 5 0;
#X connect 4 0 12 0;
#X connect 5 0 6 0;
#X connect 6 0 12 0;
#X connect 7 0 10 0;
#X connect 8 0 10 0;
#X connect 9 0 8 0;
#X connect 11 0 3 0;
#X restore 306 310 pd sondfile-info;
#X obj 217 52 r \$0-open;
#X obj 368 92 s \$0-open;
#X obj 314 254 s \$0-ir-samprate;
#X msg 314 233 \$1;
#X obj 302 120 t a a;
#X obj 562 86 table \$0-impulse;
#X obj 368 48 r \$0-obng;
#N canvas 262 174 890 454 pitchcorrection 0;
#X obj 168 -16 r \$0-ir-samprate;
#X obj 193 29 samplerate~;
#X obj 168 53 ==;
#X obj 168 76 sel 0;
#X obj 229 343 line~;
#X obj 231 173 r \$0-ir-length;
#X obj 229 275 /;
#X obj 277 231 / 1000;
#X obj 229 299 pack;
#X msg 229 320 0 \, \$2 \$1;
#X obj 231 196 t f f;
#X obj 216 226 f;
#X obj 168 105 del 1;
#X obj 277 209 r \$0-ir-samprate;
#X obj 405 89 r \$0-ir-length;
#X obj 420 111 r \$0-ir-samprate;
#X obj 405 139 /;
#X obj 405 194 t f b;
#X obj 432 217 samplerate~;
#X obj 405 237 *;
#X obj 229 366 tabread4~ \$0-dummy;
#X obj 167 396 tabwrite~ \$0-impulse;
#X obj 405 258 array size \$0-impulse;
#X obj 390 169 f;
#X obj 168 6 t f b;
#X obj 28 179 print pp.fft-partconv~;
#X msg 28 155 correcting pitch..;
#X connect 0 0 24 0;
#X connect 1 0 2 1;
#X connect 2 0 3 0;
#X connect 3 0 12 0;
#X connect 4 0 20 0;
#X connect 5 0 10 0;
#X connect 6 0 8 0;
#X connect 7 0 6 1;
#X connect 8 0 9 0;
#X connect 9 0 4 0;
#X connect 10 0 11 1;
#X connect 10 1 8 1;
#X connect 11 0 6 0;
#X connect 12 0 11 0;
#X connect 12 0 21 0;
#X connect 12 0 23 0;
#X connect 12 0 26 0;
#X connect 13 0 7 0;
#X connect 14 0 16 0;
#X connect 15 0 16 1;
#X connect 16 0 23 1;
#X connect 17 0 19 0;
#X connect 17 1 18 0;
#X connect 18 0 19 1;
#X connect 19 0 22 0;
#X connect 20 0 21 0;
#X connect 23 0 17 0;
#X connect 24 0 2 0;
#X connect 24 1 1 0;
#X connect 26 0 25 0;
#X restore 306 339 pd pitchcorrection;
#X obj 561 109 table \$0-dummy;
#X msg 257 189 read -resize \$1 \$2-impulse \, read -resize \$1 \$2-dummy
;
#N canvas 522 220 450 300 openpanel 0;
#N canvas 76 95 883 671 splitfilename 0;
#X obj 425 37 list fromsymbol;
#X obj 425 59 trigger list list bang;
#X obj 425 81 list length;
#X obj 310 169 until;
#X obj 310 195 f;
#X obj 338 210 - 1;
#X obj 383 339 t f f;
#X obj 425 104 t f f;
#X obj 414 413 t l;
#X obj 363 491 list;
#X obj 501 355 sel;
#X obj 363 513 list tosymbol;
#X obj 559 275 loadbang;
#X obj 559 297 symbol /;
#X obj 559 319 list fromsymbol;
#X obj 425 15 inlet symbol path;
#X obj 383 413 list;
#X obj 331 294 sel 1;
#X obj 383 312 list store;
#X msg 383 287 get \$1 1;
#X obj 185 487 list tosymbol;
#X obj 185 463 list store;
#X msg 185 438 get 0 \$1;
#X obj 185 413 f;
#X obj 363 535 outlet;
#X text 407 538 filename;
#X obj 185 532 outlet;
#X text 226 532 path;
#X obj 544 383 t b b b;
#X obj 312 240 t f f f;
#X connect 0 0 1 0;
#X connect 1 0 2 0;
#X connect 1 1 18 1;
#X connect 1 1 21 1;
#X connect 1 2 16 1;
#X connect 2 0 7 0;
#X connect 3 0 4 0;
#X connect 4 0 5 0;
#X connect 4 0 29 0;
#X connect 5 0 4 1;
#X connect 6 0 16 0;
#X connect 6 1 10 0;
#X connect 7 0 3 0;
#X connect 7 1 4 1;
#X connect 8 0 16 1;
#X connect 9 0 11 0;
#X connect 10 0 28 0;
#X connect 11 0 24 0;
#X connect 12 0 13 0;
#X connect 13 0 14 0;
#X connect 14 0 10 1;
#X connect 15 0 0 0;
#X connect 16 0 8 0;
#X connect 16 0 9 1;
#X connect 17 0 9 0;
#X connect 18 0 6 0;
#X connect 19 0 18 0;
#X connect 20 0 26 0;
#X connect 21 0 20 0;
#X connect 22 0 21 0;
#X connect 23 0 22 0;
#X connect 28 0 23 0;
#X connect 28 1 9 0;
#X connect 28 2 3 1;
#X connect 29 0 23 1;
#X connect 29 1 17 0;
#X connect 29 2 19 0;
#X restore 261 162 pd splitfilename;
#X obj 145 202 openpanel;
#X obj 196 146 symbol;
#X obj 145 55 f;
#X obj 175 56 + 1;
#X obj 145 78 sel 0;
#X obj 196 99 t b;
#X obj 145 28 inlet;
#X obj 145 225 outlet;
#X text 221 121 remember last directory;
#X connect 0 0 2 1;
#X connect 1 0 0 0;
#X connect 1 0 8 0;
#X connect 2 0 1 0;
#X connect 3 0 4 0;
#X connect 3 0 5 0;
#X connect 4 0 3 1;
#X connect 5 0 1 0;
#X connect 5 1 6 0;
#X connect 6 0 2 0;
#X connect 7 0 3 0;
#X restore 368 70 pd openpanel;
#X connect 0 0 2 0;
#X connect 0 0 3 0;
#X connect 0 1 7 0;
#X connect 1 0 13 0;
#X connect 4 0 8 0;
#X connect 7 0 6 0;
#X connect 8 0 1 0;
#X connect 8 1 3 1;
#X connect 10 0 14 0;
#X connect 13 0 0 0;
#X connect 14 0 5 0;
#X restore 674 194 pd load-IR;
#X obj 297 121 inlet~;
#X obj 675 112 inlet;
#X obj 404 488 outlet~;
#N canvas 3 54 692 496 in 0;
#X obj 125 323 s \$0-open;
#X obj 125 300 symbol;
#X obj 125 62 inlet;
#X obj 199 321 clip 0 100;
#X obj 199 342 s \$0-drywetr;
#X obj 212 274 loadbang;
#X msg 212 295 100;
#N canvas 470 178 450 300 set 0;
#X obj 161 48 inlet;
#X obj 161 69 symbol;
#X obj 209 129 array size;
#X obj 209 152 s \$0-ir-length;
#X obj 161 89 t s b s;
#X obj 162 219 s \$0-set-imp;
#X msg 81 159 label \$1;
#X obj 81 181 s \$0-irname;
#X msg 162 197 set \$1;
#X connect 0 0 1 0;
#X connect 1 0 4 0;
#X connect 2 0 3 0;
#X connect 4 0 6 0;
#X connect 4 0 8 0;
#X connect 4 1 2 0;
#X connect 4 2 2 1;
#X connect 6 0 7 0;
#X connect 8 0 5 0;
#X restore 239 242 pd set;
#N canvas 3 52 617 375 blocksize 0;
#X obj 214 145 i;
#X obj 214 120 t f f;
#X obj 214 166 /;
#X obj 214 186 == 1;
#X obj 184 76 t f f;
#X obj 184 212 spigot;
#X text 249 141 prevent setting blocksizes that are not a power of
2;
#X msg 244 244 blocksize is not a power of 2;
#X obj 184 294 outlet;
#X obj 244 222 sel 0;
#X obj 184 54 inlet;
#X obj 244 265 print pp.fft-partconv~;
#X obj 214 99 log 2;
#X connect 0 0 2 0;
#X connect 1 0 0 0;
#X connect 1 1 2 1;
#X connect 2 0 3 0;
#X connect 3 0 5 1;
#X connect 3 0 9 0;
#X connect 4 0 5 0;
#X connect 4 1 12 0;
#X connect 5 0 8 0;
#X connect 7 0 11 0;
#X connect 9 0 7 0;
#X connect 10 0 4 0;
#X connect 12 0 1 0;
#X restore 295 294 pd blocksize;
#X obj 336 198 f \$1;
#X obj 336 219 sel 0;
#X msg 304 242 1024;
#X obj 501 148 loadbang;
#X obj 125 162 route loadIR dry/wet set blocksize max-blocksize;
#X obj 478 320 s \$0-max-blocksize;
#X obj 528 223 sel 0;
#X obj 528 202 f \$2;
#X msg 478 248 65536;
#N canvas 3 52 617 375 blocksize 0;
#X obj 214 145 i;
#X obj 214 120 t f f;
#X obj 214 166 /;
#X obj 214 186 == 1;
#X obj 184 76 t f f;
#X obj 184 212 spigot;
#X text 249 141 prevent setting blocksizes that are not a power of
2;
#X obj 184 294 outlet;
#X obj 244 222 sel 0;
#X obj 184 54 inlet;
#X obj 244 265 print pp.fft-partconv~;
#X obj 214 99 log 2;
#X msg 244 244 max. blocksize is not a power of 2;
#X connect 0 0 2 0;
#X connect 1 0 0 0;
#X connect 1 1 2 1;
#X connect 2 0 3 0;
#X connect 3 0 5 1;
#X connect 3 0 8 0;
#X connect 4 0 5 0;
#X connect 4 1 11 0;
#X connect 5 0 7 0;
#X connect 8 0 12 0;
#X connect 9 0 4 0;
#X connect 11 0 1 0;
#X connect 12 0 10 0;
#X restore 478 296 pd blocksize;
#X obj 501 171 t b b;
#X obj 295 270 change;
#X obj 478 272 change;
#X obj 295 321 max 128;
#X obj 295 345 s \$0-min-blocksize;
#N canvas 937 111 450 300 recall 0;
#N canvas 156 162 1004 423 recall 0;
#X obj 106 5 savestate;
#X obj 106 28 t a b;
#X obj 205 60 + 1;
#X obj 106 78 list prepend;
#X obj 106 101 list trim;
#X obj 95 275 list;
#X obj 130 275 list;
#X obj 166 275 list;
#X obj 202 275 list;
#X obj 240 275 list;
#X obj 275 275 list;
#X obj 311 275 list;
#X obj 440 380 outlet;
#X obj 30 78 r \$0-lists;
#X obj 500 43 inlet;
#X obj 345 275 list;
#X obj 380 275 list;
#X obj 416 275 list;
#X obj 453 275 list;
#X obj 490 275 list;
#X obj 525 275 list;
#X obj 561 275 list;
#X obj 594 275 list;
#X obj 630 275 list;
#X obj 667 275 list;
#X obj 704 275 list;
#X obj 739 275 list;
#X obj 775 275 list;
#X obj 106 124 route 0 1 2 3 4 5 6 7 8 9 10 11 12 13 14 15 16 17 18
19 20;
#X obj 500 121 sel 0 1 2 3 4 5 6 7 8 9 10 11 12 13 14 15 16 17 18 19
20;
#X obj 812 275 list;
#X obj 175 56 f;
#X connect 0 0 1 0;
#X connect 1 0 3 0;
#X connect 1 1 31 0;
#X connect 2 0 31 1;
#X connect 3 0 4 0;
#X connect 4 0 28 0;
#X connect 5 0 12 0;
#X connect 6 0 12 0;
#X connect 7 0 12 0;
#X connect 8 0 12 0;
#X connect 9 0 12 0;
#X connect 10 0 12 0;
#X connect 11 0 12 0;
#X connect 13 0 28 0;
#X connect 14 0 29 0;
#X connect 15 0 12 0;
#X connect 16 0 12 0;
#X connect 17 0 12 0;
#X connect 18 0 12 0;
#X connect 19 0 12 0;
#X connect 20 0 12 0;
#X connect 21 0 12 0;
#X connect 22 0 12 0;
#X connect 23 0 12 0;
#X connect 24 0 12 0;
#X connect 25 0 12 0;
#X connect 26 0 12 0;
#X connect 27 0 12 0;
#X connect 28 0 5 1;
#X connect 28 1 6 1;
#X connect 28 2 7 1;
#X connect 28 3 8 1;
#X connect 28 4 9 1;
#X connect 28 5 10 1;
#X connect 28 6 11 1;
#X connect 28 7 15 1;
#X connect 28 8 16 1;
#X connect 28 9 17 1;
#X connect 28 10 18 1;
#X connect 28 11 19 1;
#X connect 28 12 20 1;
#X connect 28 13 21 1;
#X connect 28 14 22 1;
#X connect 28 15 23 1;
#X connect 28 16 24 1;
#X connect 28 17 25 1;
#X connect 28 18 26 1;
#X connect 28 19 27 1;
#X connect 28 20 30 1;
#X connect 29 0 5 0;
#X connect 29 1 6 0;
#X connect 29 2 7 0;
#X connect 29 3 8 0;
#X connect 29 4 9 0;
#X connect 29 5 10 0;
#X connect 29 6 11 0;
#X connect 29 7 15 0;
#X connect 29 8 16 0;
#X connect 29 9 17 0;
#X connect 29 10 18 0;
#X connect 29 11 19 0;
#X connect 29 12 20 0;
#X connect 29 13 21 0;
#X connect 29 14 22 0;
#X connect 29 15 23 0;
#X connect 29 16 24 0;
#X connect 29 17 25 0;
#X connect 29 18 26 0;
#X connect 29 19 27 0;
#X connect 29 20 30 0;
#X connect 30 0 12 0;
#X connect 31 0 2 0;
#X connect 31 0 3 1;
#X restore 128 85 pd recall;
#X obj 128 130 outlet;
#N canvas 3 52 450 600 listsplit 0;
#X obj 158 23 inlet;
#X obj 220 87 list length;
#X obj 220 113 until;
#X obj 182 150 f;
#X obj 278 150 + 1;
#X msg 265 111 0;
#X obj 182 226 list store;
#X msg 182 202 get \$1 1;
#X obj 154 367 list split;
#X obj 222 342 f;
#X obj 154 334 list;
#X obj 98 124 list;
#X obj 182 389 list split 1;
#X obj 154 274 t bang bang bang;
#X obj 182 179 t f f;
#X obj 158 48 t l l l b;
#X obj 154 473 outlet;
#X obj 154 440 list trim;
#X obj 163 248 sel |;
#X connect 0 0 15 0;
#X connect 1 0 2 0;
#X connect 2 0 3 0;
#X connect 3 0 4 0;
#X connect 3 0 14 0;
#X connect 4 0 3 1;
#X connect 5 0 3 1;
#X connect 6 0 18 0;
#X connect 7 0 6 0;
#X connect 8 0 17 0;
#X connect 8 1 12 0;
#X connect 9 0 8 1;
#X connect 10 0 8 0;
#X connect 11 0 15 0;
#X connect 12 1 11 0;
#X connect 13 0 10 0;
#X connect 13 1 9 0;
#X connect 13 2 2 1;
#X connect 14 0 7 0;
#X connect 14 1 9 1;
#X connect 15 0 1 0;
#X connect 15 1 10 1;
#X connect 15 2 6 1;
#X connect 15 3 5 0;
#X connect 17 0 16 0;
#X connect 18 0 13 0;
#X restore 128 107 pd listsplit;
#X obj 128 25 r \$0-recall;
#X obj 128 55 pipe 1;
#X connect 0 0 2 0;
#X connect 2 0 1 0;
#X connect 3 0 4 0;
#X connect 4 0 0 0;
#X restore 210 126 pd recall;
#N canvas 698 546 200 251 route 0;
#X obj 20 20 inlet;
#X obj 30 60 route save recall;
#X obj 30 85 route float;
#X obj 97 111 route float;
#X obj 30 136 s \$0-save;
#X obj 30 108 i;
#X obj 98 133 i;
#X obj 98 161 s \$0-recall;
#X connect 0 0 1 0;
#X connect 1 0 2 0;
#X connect 1 1 3 0;
#X connect 2 0 5 0;
#X connect 3 0 6 0;
#X connect 5 0 4 0;
#X connect 6 0 7 0;
#X restore 148 105 pd route save-recall;
#X connect 1 0 0 0;
#X connect 2 0 13 0;
#X connect 2 0 25 0;
#X connect 3 0 4 0;
#X connect 5 0 6 0;
#X connect 6 0 4 0;
#X connect 8 0 22 0;
#X connect 9 0 10 0;
#X connect 10 0 11 0;
#X connect 10 1 20 0;
#X connect 11 0 20 0;
#X connect 12 0 19 0;
#X connect 13 0 1 0;
#X connect 13 1 3 0;
#X connect 13 2 7 0;
#X connect 13 3 20 0;
#X connect 13 4 21 0;
#X connect 15 0 17 0;
#X connect 15 1 21 0;
#X connect 16 0 15 0;
#X connect 17 0 21 0;
#X connect 18 0 14 0;
#X connect 19 0 9 0;
#X connect 19 1 16 0;
#X connect 20 0 8 0;
#X connect 21 0 18 0;
#X connect 22 0 23 0;
#X connect 24 0 13 0;
#X restore 675 134 pd in;
#N canvas 29 188 671 466 create 0;
#X obj 244 327 s pd-\$0-clone;
#X msg 224 354 connect 0 0 2 0 \, connect 2 0 1 0;
#X obj 224 377 s pd-\$0-container;
#X obj 205 256 t b b a;
#X obj 135 351 s \$0-loadbang;
#X obj 69 32 r \$0-ir-length;
#X obj 103 130 f;
#X obj 103 249 s \$0-nparts;
#N canvas 491 200 779 565 max-parts 0;
#X obj 326 18 inlet;
#X obj 120 9 inlet;
#X obj 326 57 log 2;
#X obj 311 173 +;
#X obj 340 281 +;
#X obj 311 278 f;
#X msg 379 244 0;
#X obj 120 423 f;
#X obj 252 269 <;
#X obj 147 292 t f f;
#X obj 252 292 sel 0;
#X obj 147 267 f;
#X obj 175 270 + 1;
#X obj 147 218 until;
#X msg 198 193 0;
#X obj 147 197 f;
#X obj 120 446 outlet;
#X obj 120 44 t bang bang bang float bang;
#X obj 162 172 + 2;
#X obj 162 150 expr $f2-$f1;
#X obj 377 57 log 2;
#X obj 377 20 inlet;
#X obj 377 78 t b f;
#X obj 311 196 expr pow(2 \, $f1);
#X obj 311 238 t b f;
#X obj 174 381 * 2;
#X connect 0 0 2 0;
#X connect 1 0 17 0;
#X connect 2 0 3 1;
#X connect 2 0 19 0;
#X connect 3 0 23 0;
#X connect 4 0 5 1;
#X connect 5 0 4 0;
#X connect 5 0 8 0;
#X connect 6 0 5 1;
#X connect 7 0 16 0;
#X connect 8 0 10 0;
#X connect 9 0 3 0;
#X connect 9 1 25 0;
#X connect 10 0 13 1;
#X connect 11 0 12 0;
#X connect 11 0 9 0;
#X connect 12 0 11 1;
#X connect 13 0 11 0;
#X connect 14 0 11 1;
#X connect 15 0 13 0;
#X connect 17 0 7 0;
#X connect 17 1 15 0;
#X connect 17 2 14 0;
#X connect 17 3 8 1;
#X connect 17 4 6 0;
#X connect 18 0 15 1;
#X connect 19 0 18 0;
#X connect 20 0 22 0;
#X connect 21 0 20 0;
#X connect 22 0 19 0;
#X connect 22 1 19 1;
#X connect 23 0 24 0;
#X connect 24 0 5 0;
#X connect 24 1 4 1;
#X connect 25 0 7 1;
#X restore 103 192 pd max-parts;
#X obj 360 26 r \$0-max-blocksize;
#X msg 244 279 clear \, obj 300 50 inlet~ \, obj 100 100 clone pp.fft-partconv-part
\$1 \$2 \$3 \, obj 100 200 outlet~ \, connect 0 0 1 1 \, connect 1
0 2 0;
#X obj 103 152 sel 0;
#X obj 360 49 t b f;
#X obj 229 47 t b f f;
#X obj 229 23 r \$0-min-blocksize;
#X obj 205 235 pack 0 \$0 0;
#X connect 1 0 2 0;
#X connect 3 0 4 0;
#X connect 3 1 1 0;
#X connect 3 2 10 0;
#X connect 5 0 6 0;
#X connect 6 0 11 0;
#X connect 8 0 7 0;
#X connect 8 0 15 0;
#X connect 9 0 12 0;
#X connect 10 0 0 0;
#X connect 11 1 8 0;
#X connect 12 0 6 0;
#X connect 12 1 8 2;
#X connect 13 0 6 0;
#X connect 13 1 8 1;
#X connect 13 2 15 2;
#X connect 14 0 13 0;
#X connect 15 0 3 0;
#X restore 674 219 pd create;
#N canvas 149 377 450 300 \$0-container 0;
#X obj 161 51 inlet~;
#X obj 161 166 outlet~;
#N canvas 574 52 450 300 \$0-clone 0;
#X restore 161 108 pd \$0-clone;
#X restore 403 381 pd \$0-container;
#X obj 435 453 /;
#X msg 435 432 1 \$1;
#N canvas 3 54 450 300 delay 0;
#X obj 234 102 inlet~;
#X obj 234 123 outlet~;
#X obj 309 125 block~ \$1;
#X obj 309 79 r \$0-min-blocksize;
#X msg 309 102 set \$1 1;
#X connect 0 0 1 0;
#X connect 3 0 4 0;
#X connect 4 0 2 0;
#X restore 296 381 pd delay clean;
#X obj 533 122 inlet~ dry/wet;
#X obj 103 130 hsl 130 15 0 100 0 0 \$0-gui \$0-guir Dry/Wet(%) 3 8
2 10 -233017 -1 -1 12900 1;
#X obj 276 130 hsl 2 8 0 1 0 0 \$0-gui \$0-guir empty 3 8 2 10 -233017
-228856 -1 0 1;
#X obj 235 130 nbx 5 15 0 100 0 0 \$0-drywet \$0-drywetr empty 0 -8
2 10 -228856 -1 -1 100 256;
#X msg 158 186 set \$1;
#X obj 75 167 i;
#X msg 75 188 set \$1;
#X obj 54 217 s \$0-drywet;
#X obj 118 115 hsl 160 15 0 100 0 0 \$0-irnames \$0-irname empty..
3 8 2 10 -233017 -228856 -1 0 1;
#X obj 100 115 bng 15 250 50 0 \$0-obng \$0-obngr empty 17 7 0 10 -228856
-262144 -1;
#X obj 440 160 r \$0-drywet;
#X msg 440 201 \$1 20;
#X obj 440 223 line~;
#X obj 482 273 +~;
#X obj 322 329 sig~ 1;
#X obj 322 350 -~;
#X obj 295 349 *~;
#X obj 404 354 *~;
#X obj 440 181 / 100;
#X obj 483 293 clip~ 0 1;
#X obj 533 143 *~ 0.01;
#X obj 674 483 outlet;
#N canvas 688 168 486 485 outlet-message 0;
#X obj 179 340 list trim;
#X msg 116 318 addcomma;
#X msg 26 233 set;
#X obj 179 317 list prepend add2;
#X obj 160 423 outlet;
#X obj 166 14 r \$0-open;
#X obj 166 35 t b a;
#X obj 85 22 r \$0-drywet;
#X obj 228 36 t b f;
#X obj 113 154 pack 100 s 1024 3000;
#X obj 344 36 t b f;
#X obj 344 14 r \$0-max-blocksize;
#X msg 132 224 blocksize \$3 \, dry/wet \$1 \, loadIR \$2 \, max-blocksize
\$4;
#X obj 228 15 r \$0-min-blocksize;
#X obj 85 45 t b f;
#X obj 85 98 del 0;
#X obj 85 121 f;
#X obj 160 260 t b a a;
#N canvas 1009 187 450 300 save 0;
#X obj 108 107 inlet;
#X obj 129 217 list;
#X obj 129 264 list trim;
#X obj 129 286 s \$0-lists;
#X obj 128 319 r \$0-lists;
#X obj 129 242 list prepend;
#N canvas 531 82 335 384 collect 0;
#X obj 138 70 inlet;
#X obj 138 284 outlet;
#X obj 189 190 list;
#X obj 257 191 t l;
#X obj 138 235 list;
#X obj 189 149 list append |;
#X obj 138 136 del 0;
#X obj 138 92 t b a;
#X connect 0 0 7 0;
#X connect 2 0 3 0;
#X connect 2 0 4 1;
#X connect 3 0 2 1;
#X connect 4 0 1 0;
#X connect 5 0 2 0;
#X connect 6 0 2 1;
#X connect 6 0 4 0;
#X connect 7 0 6 0;
#X connect 7 1 5 0;
#X restore 108 129 pd collect;
#X obj 195 101 r \$0-save;
#X obj 195 123 t b f;
#N canvas 68 198 1432 552 savestates 0;
#X obj 767 137 inlet;
#X obj 26 422 savestate;
#X obj 26 398 list;
#X obj 91 422 savestate;
#X obj 91 398 list;
#X obj 157 422 savestate;
#X obj 157 398 list;
#X obj 220 420 savestate;
#X obj 220 396 list;
#X obj 283 419 savestate;
#X obj 283 395 list;
#X obj 345 418 savestate;
#X obj 345 394 list;
#X obj 409 418 savestate;
#X obj 409 394 list;
#X obj 472 421 savestate;
#X obj 472 397 list;
#X obj 537 421 savestate;
#X obj 537 397 list;
#X obj 603 421 savestate;
#X obj 603 397 list;
#X obj 666 419 savestate;
#X obj 666 395 list;
#X obj 729 418 savestate;
#X obj 729 394 list;
#X obj 791 417 savestate;
#X obj 791 393 list;
#X obj 855 417 savestate;
#X obj 855 393 list;
#X obj 922 418 savestate;
#X obj 922 394 list;
#X obj 988 418 savestate;
#X obj 988 394 list;
#X obj 1051 416 savestate;
#X obj 1051 392 list;
#X obj 1114 415 savestate;
#X obj 1114 391 list;
#X obj 1176 414 savestate;
#X obj 1176 390 list;
#X obj 1240 414 savestate;
#X obj 1240 390 list;
#X obj 767 166 route 0 1 2 3 4 5 6 7 8 9 10 11 12 13 14 15 16 17 18
19 20;
#X obj 1304 412 savestate;
#X obj 1304 388 list;
#X obj 201 64 savestate;
#X obj 201 87 t a b;
#X obj 300 119 + 1;
#X obj 201 137 list prepend;
#X obj 201 160 list trim;
#X obj 201 183 route 0 1 2 3 4 5 6 7 8 9 10 11 12 13 14 15 16 17 18
19 20;
#X obj 270 115 f;
#X connect 0 0 41 0;
#X connect 1 1 2 0;
#X connect 2 0 1 0;
#X connect 3 1 4 0;
#X connect 4 0 3 0;
#X connect 5 1 6 0;
#X connect 6 0 5 0;
#X connect 7 1 8 0;
#X connect 8 0 7 0;
#X connect 9 1 10 0;
#X connect 10 0 9 0;
#X connect 11 1 12 0;
#X connect 12 0 11 0;
#X connect 13 1 14 0;
#X connect 14 0 13 0;
#X connect 15 1 16 0;
#X connect 16 0 15 0;
#X connect 17 1 18 0;
#X connect 18 0 17 0;
#X connect 19 1 20 0;
#X connect 20 0 19 0;
#X connect 21 1 22 0;
#X connect 22 0 21 0;
#X connect 23 1 24 0;
#X connect 24 0 23 0;
#X connect 25 1 26 0;
#X connect 26 0 25 0;
#X connect 27 1 28 0;
#X connect 28 0 27 0;
#X connect 29 1 30 0;
#X connect 30 0 29 0;
#X connect 31 1 32 0;
#X connect 32 0 31 0;
#X connect 33 1 34 0;
#X connect 34 0 33 0;
#X connect 35 1 36 0;
#X connect 36 0 35 0;
#X connect 37 1 38 0;
#X connect 38 0 37 0;
#X connect 39 1 40 0;
#X connect 40 0 39 0;
#X connect 41 0 2 1;
#X connect 41 1 4 1;
#X connect 41 2 6 1;
#X connect 41 3 8 1;
#X connect 41 4 10 1;
#X connect 41 5 12 1;
#X connect 41 6 14 1;
#X connect 41 7 16 1;
#X connect 41 8 18 1;
#X connect 41 9 20 1;
#X connect 41 10 22 1;
#X connect 41 11 24 1;
#X connect 41 12 26 1;
#X connect 41 13 28 1;
#X connect 41 14 30 1;
#X connect 41 15 32 1;
#X connect 41 16 34 1;
#X connect 41 17 36 1;
#X connect 41 18 38 1;
#X connect 41 19 40 1;
#X connect 41 20 43 1;
#X connect 42 1 43 0;
#X connect 43 0 42 0;
#X connect 44 0 45 0;
#X connect 45 0 47 0;
#X connect 45 1 50 0;
#X connect 46 0 50 1;
#X connect 47 0 48 0;
#X connect 48 0 49 0;
#X connect 49 0 2 1;
#X connect 49 1 4 1;
#X connect 49 2 6 1;
#X connect 49 3 8 1;
#X connect 49 4 10 1;
#X connect 49 5 12 1;
#X connect 49 6 14 1;
#X connect 49 7 16 1;
#X connect 49 8 18 1;
#X connect 49 9 20 1;
#X connect 49 10 22 1;
#X connect 49 11 24 1;
#X connect 49 12 26 1;
#X connect 49 13 28 1;
#X connect 49 14 30 1;
#X connect 49 15 32 1;
#X connect 49 16 34 1;
#X connect 49 17 36 1;
#X connect 49 18 38 1;
#X connect 49 19 40 1;
#X connect 49 20 43 1;
#X connect 50 0 46 0;
#X connect 50 0 47 1;
#X restore 128 341 pd savestates;
#X connect 0 0 6 0;
#X connect 1 0 5 0;
#X connect 2 0 3 0;
#X connect 4 0 9 0;
#X connect 5 0 2 0;
#X connect 6 0 1 1;
#X connect 7 0 8 0;
#X connect 8 0 1 0;
#X connect 8 1 5 1;
#X restore 211 286 pd save;
#X obj 113 185 t b a b;
#X connect 0 0 4 0;
#X connect 1 0 4 0;
#X connect 2 0 4 0;
#X connect 3 0 0 0;
#X connect 5 0 6 0;
#X connect 6 0 15 0;
#X connect 6 1 9 1;
#X connect 7 0 14 0;
#X connect 8 0 15 0;
#X connect 8 1 9 2;
#X connect 9 0 19 0;
#X connect 10 0 15 0;
#X connect 10 1 9 3;
#X connect 11 0 10 0;
#X connect 12 0 17 0;
#X connect 13 0 8 0;
#X connect 14 0 15 0;
#X connect 14 1 16 1;
#X connect 15 0 16 0;
#X connect 16 0 9 0;
#X connect 17 0 1 0;
#X connect 17 1 3 0;
#X connect 17 2 18 0;
#X connect 19 0 4 0;
#X connect 19 1 12 0;
#X connect 19 2 2 0;
#X restore 674 459 pd outlet-message;
#X obj 435 410 r \$0-nparts;
#X text 587 526 philipp schmalfuß \, 2018/19;
#X connect 0 0 4 0;
#X connect 2 0 27 0;
#X connect 2 0 28 0;
#X connect 3 0 5 0;
#X connect 7 0 0 0;
#X connect 8 0 0 1;
#X connect 9 0 8 0;
#X connect 10 0 4 0;
#X connect 11 0 31 0;
#X connect 12 0 16 0;
#X connect 14 0 15 0;
#X connect 15 0 12 0;
#X connect 16 0 17 0;
#X connect 16 0 18 0;
#X connect 17 0 14 0;
#X connect 21 0 29 0;
#X connect 22 0 23 0;
#X connect 23 0 24 0;
#X connect 24 0 30 0;
#X connect 25 0 26 0;
#X connect 26 0 27 1;
#X connect 27 0 10 0;
#X connect 28 0 7 0;
#X connect 29 0 22 0;
#X connect 30 0 28 1;
#X connect 30 0 26 1;
#X connect 31 0 24 1;
#X connect 33 0 32 0;
#X connect 34 0 9 0;
#X coords 0 -1 1 1 180 48 1 100 100;
