#N canvas 88 219 692 309 10;
#X obj 1 2 cnv 15 380 300 empty empty empty 20 12 0 14 -233017 -66577
0;
#X obj 5 282 cnv 15 81 15 empty empty empty 20 12 0 14 -260097 -66577
0;
#N canvas 599 176 504 105 references 0;
#X obj 2 1 cnv 15 500 100 empty empty empty 20 12 0 14 -1 -66577 0
;
#X obj 3 2 cnv 15 498 98 empty empty empty 20 12 0 14 -233017 -66577
0;
#X text 21 2 single sideband modulation in the pd-examples:;
#X text 132 15 PureData/audio-examples/H09.ssb.modulation.pd;
#X text 21 15 help -> browser ->;
#X text 21 84 http://yehar.com/blog/?p=368;
#X text 21 69 http://www.katjaas.nl/hilbert/hilbert.html;
#X text 20 31 this abstraction uses Olli Niemitalo's quadrature transform
coefficients that katja intruduced in her blog instead of [hilbert~]
;
#X restore 5 282 pd references;
#X obj 394 267 pp.out~;
#X msg 541 209 frequency-shift 0;
#X obj 490 118 sig~;
#X floatatom 490 96 5 0 0 0 - - -, f 5;
#X obj 541 137 cnv 15 118 15 empty empty empty 20 12 0 14 -260097 -66577
0;
#N canvas 561 87 338 209 control-messages 0;
#X obj 57 127 outlet;
#X floatatom 57 34 5 0 0 0 - - -, f 5;
#X text 98 35 frequency shift in hz;
#X msg 57 54 frequency-shift \$1;
#X connect 1 0 3 0;
#X connect 3 0 0 0;
#X restore 541 137 pd control-messages;
#X text 522 97 frequency shift in hz;
#X obj 450 17 osc~ 440;
#X obj 393 17 osc~ 220;
#X obj 450 38 *~ 0.5;
#X obj 508 17 osc~ 880;
#X obj 508 37 *~ 0.25;
#X obj 393 81 *~ 0.33;
#X obj 393 165 pp.freqshift-st~ 100;
#X text 10 79 Inlets:;
#X text 10 132 Outlets:;
#X text 68 155 2:message;
#X text 10 58 Creation arguments: none;
#X obj 14 18 cnv 15 10 10 empty empty pp.freqshift-st~ 0 0 2 16 -233017
-262144 0;
#X text 11 33 stereo version of [pp.freqshift~];
#X text 68 78 1:(~)signal left;
#X text 68 90 2:(~)signal right;
#X text 68 102 3:(~)frequency-shift in hz;
#X text 68 132 1:(~)shifted signal left;
#X text 68 144 1:(~)shifted signal right;
#X text 68 114 4:control-messages;
#X connect 5 0 16 2;
#X connect 6 0 5 0;
#X connect 8 0 16 3;
#X connect 10 0 12 0;
#X connect 11 0 15 0;
#X connect 12 0 15 0;
#X connect 13 0 14 0;
#X connect 14 0 15 0;
#X connect 15 0 16 0;
#X connect 15 0 16 1;
#X connect 16 0 3 0;
#X connect 16 1 3 1;
#X connect 16 2 4 0;
