#N canvas 472 88 661 407 10;
#X obj 117 159 r \$0-nparts;
#X msg 117 182 resize 1 \, resize \$1;
#X obj 80 208 clone pp.fft-partconv-st-part 1 \$0;
#N canvas 793 243 636 507 create 0;
#N canvas 555 136 599 516 count 0;
#X obj 159 114 * 2;
#X obj 232 87 <;
#X obj 121 113 f;
#X obj 92 301 + 1;
#X obj 121 304 f;
#X msg 303 88 0;
#X obj 161 75 until;
#X obj 232 110 sel 0;
#X obj 326 183 f;
#X obj 284 182 +;
#X obj 40 400 f;
#X obj 121 396 pack;
#X obj 359 43 inlet;
#X text 400 48 max bl;
#X obj 449 186 inlet;
#X text 490 191 ir length;
#X obj 41 4 inlet;
#X text 84 8 min bl;
#X obj 121 469 outlet;
#X obj 40 466 outlet;
#X obj 121 147 t f f f;
#N canvas 84 430 774 522 onsets 0;
#X obj 362 289 +;
#X obj 334 245 t f f;
#X obj 333 218 +;
#X obj 354 177 expr (pow(2 \, $f1) - 1) * $f2;
#X obj 221 43 inlet;
#X obj 252 126 expr $f2 * ($f1 % 2) / 2 \; int($f1 / 2);
#X obj 428 121 unpack;
#X obj 334 327 pack;
#X obj 221 66 t a a a;
#X obj 221 421 list;
#X obj 221 448 outlet;
#X obj 519 152 r \$0-min-blocksize;
#X connect 0 0 7 1;
#X connect 1 0 7 0;
#X connect 1 1 0 0;
#X connect 2 0 1 0;
#X connect 3 0 2 1;
#X connect 4 0 8 0;
#X connect 5 0 2 0;
#X connect 5 1 3 0;
#X connect 6 1 0 1;
#X connect 7 0 9 1;
#X connect 8 0 9 0;
#X connect 8 1 5 0;
#X connect 8 2 6 0;
#X connect 9 0 10 0;
#X connect 11 0 3 1;
#X restore 121 436 pd onsets;
#X obj 40 435 max 1;
#X obj 121 185 t b b f;
#X obj 284 233 >;
#X obj 284 256 sel 1;
#X obj 41 30 t b b f b, f 28;
#X connect 0 0 2 1;
#X connect 1 0 7 0;
#X connect 2 0 0 0;
#X connect 2 0 20 0;
#X connect 3 0 4 1;
#X connect 3 0 10 1;
#X connect 4 0 3 0;
#X connect 4 0 11 0;
#X connect 5 0 4 1;
#X connect 5 0 9 1;
#X connect 6 0 2 0;
#X connect 7 0 6 1;
#X connect 8 0 9 1;
#X connect 9 0 8 0;
#X connect 9 0 24 0;
#X connect 10 0 22 0;
#X connect 11 0 21 0;
#X connect 12 0 1 1;
#X connect 14 0 24 1;
#X connect 16 0 26 0;
#X connect 20 0 23 0;
#X connect 20 1 9 0;
#X connect 20 2 1 0;
#X connect 21 0 18 0;
#X connect 22 0 19 0;
#X connect 23 0 4 0;
#X connect 23 1 4 0;
#X connect 23 2 11 1;
#X connect 24 0 25 0;
#X connect 25 0 6 1;
#X connect 26 0 10 0;
#X connect 26 1 6 0;
#X connect 26 2 2 1;
#X connect 26 3 5 0;
#X restore 171 194 pd count;
#X f 12;
#X obj 290 35 r \$0-max-blocksize;
#X obj 290 58 t b f;
#X obj 171 36 r \$0-min-blocksize;
#X obj 409 34 r \$0-ir-length;
#X obj 409 57 t b f;
#X obj 171 135 f 1024, f 9;
#X obj 390 221 text define \$0-cloneblock;
#X obj 240 242 text set \$0-cloneblock;
#X obj 283 198 loadbang;
#X msg 283 221 1e+10;
#X msg 390 198 clear;
#X obj 198 345 s \$0-nparts;
#X obj 171 405 text sequence \$0-cloneblock;
#X msg 171 377 line 0 \, auto;
#X obj 171 72 t b f;
#X obj 171 104 del 0;
#X obj 171 158 t f f b;
#X obj 171 320 t b f;
#X obj 171 436 s \$0-clone-data;
#X floatatom 230 322 5 0 0 0 - - - 0;
#X obj 171 291 moses 3;
#X obj 171 246 t b f;
#X msg 209 268 0;
#X text 228 291 avoid faulty init;
#X connect 0 0 22 0;
#X connect 0 1 8 0;
#X connect 1 0 2 0;
#X connect 2 0 16 0;
#X connect 2 1 0 1;
#X connect 3 0 15 0;
#X connect 4 0 5 0;
#X connect 5 0 16 0;
#X connect 5 1 0 2;
#X connect 6 0 17 0;
#X connect 9 0 10 0;
#X connect 10 0 8 1;
#X connect 11 0 7 0;
#X connect 13 0 19 0;
#X connect 14 0 13 0;
#X connect 15 0 16 0;
#X connect 15 1 6 1;
#X connect 16 0 6 0;
#X connect 17 0 0 0;
#X connect 17 2 11 0;
#X connect 18 0 14 0;
#X connect 18 1 12 0;
#X connect 18 1 20 0;
#X connect 21 1 18 0;
#X connect 22 0 23 0;
#X connect 22 1 21 0;
#X connect 23 0 21 1;
#X restore 530 124 pd create;
#N canvas 973 238 803 662 load-IR 0;
#X obj 183 606 soundfiler;
#X obj 183 549 pack s \$0;
#X obj 195 173 soundfiler;
#X obj 195 127 pack s \$0;
#X msg 100 396 \$3;
#X obj 67 507 soundfiler;
#X obj 67 464 pack s \$0;
#X obj 161 92 t a a a a;
#X obj 67 444 spigot;
#X obj 100 417 < 2;
#X msg 195 150 read -resize \$1;
#X msg 183 572 read -resize \$1 \$2-dummy-l \$2-dummy-r \, read -resize \$1 \$2-impulse-l \$2-impulse-r;
#N canvas 272 198 890 454 pitchcorrection 0;
#X obj 168 -16 r \$0-ir-samprate;
#X obj 193 29 samplerate~;
#X obj 168 53 ==;
#X obj 168 76 sel 0;
#X obj 229 343 line~;
#X obj 231 164 r \$0-ir-length;
#X obj 229 275 /;
#X obj 277 231 / 1000;
#X obj 229 299 pack;
#X msg 229 320 0 \, \$2 \$1;
#X obj 231 187 t f f;
#X obj 216 242 f;
#X obj 168 105 del 1;
#X obj 277 209 r \$0-ir-samprate;
#X obj 405 89 r \$0-ir-length;
#X obj 420 111 r \$0-ir-samprate;
#X obj 405 139 /;
#X obj 405 194 t f b;
#X obj 432 217 samplerate~;
#X obj 405 237 *;
#X obj 390 169 f;
#X obj 168 6 t f b;
#X obj 28 179 print pp.fft-partconv~;
#X msg 28 155 correcting pitch..;
#X obj 405 272 array size \$0-impulse-l;
#X obj 385 293 array size \$0-impulse-r;
#X obj 183 392 tabread4~ \$0-dummy-l;
#X obj 361 389 tabread4~ \$0-dummy-r;
#X obj 167 422 tabwrite~ \$0-impulse-l;
#X obj 360 423 tabwrite~ \$0-impulse-r;
#X connect 0 0 21 0;
#X connect 1 0 2 1;
#X connect 2 0 3 0;
#X connect 3 0 12 0;
#X connect 3 0 23 0;
#X connect 4 0 26 0;
#X connect 4 0 27 0;
#X connect 5 0 10 0;
#X connect 6 0 8 0;
#X connect 7 0 6 1;
#X connect 8 0 9 0;
#X connect 9 0 4 0;
#X connect 10 0 11 1;
#X connect 10 1 8 1;
#X connect 11 0 6 0;
#X connect 12 0 11 0;
#X connect 12 0 20 0;
#X connect 12 0 28 0;
#X connect 12 0 29 0;
#X connect 13 0 7 0;
#X connect 14 0 16 0;
#X connect 15 0 16 1;
#X connect 16 0 20 1;
#X connect 17 0 19 0;
#X connect 17 1 18 0;
#X connect 18 0 19 1;
#X connect 19 0 24 0;
#X connect 19 0 25 0;
#X connect 20 0 17 0;
#X connect 21 0 2 0;
#X connect 21 1 1 0;
#X connect 23 0 22 0;
#X connect 26 0 28 0;
#X connect 27 0 29 0;
#X restore 182 661 pd pitchcorrection;
#X msg 67 486 read -resize \$1 \$2-dummy-r \, read -resize \$1 \$2-impulse-r;
#X obj 635 25 array define \$0-dummy-l;
#X obj 636 46 array define \$0-dummy-r;
#X obj 635 90 array define \$0-impulse-l;
#X obj 635 110 array define \$0-impulse-r;
#X obj 253 279 s \$0-ir-samprate;
#X msg 253 258 \$1;
#N canvas 827 381 894 556 sondfile-info 0;
#X obj 85 332 t f b;
#X obj 112 355 samplerate~;
#X obj 112 378 / 1000;
#X obj 85 402 /;
#X obj 85 10 r \$0-nparts;
#X obj 85 55 / 2;
#X obj 180 101 r \$0-min-blocksize;
#X obj 85 78 + 1;
#X obj 105 195 f;
#X obj 135 197 * 2;
#X obj 139 267 +;
#X obj 105 267 f;
#X obj 105 223 t b f;
#X msg 192 188 0;
#X obj 205 124 r \$0-max-blocksize;
#X obj 205 147 t b;
#X obj 180 148 f;
#X obj 105 166 until;
#X obj 85 99 t b f b b;
#X obj 85 292 f;
#X obj 295 461 pack f s;
#X msg 295 489 loaded \$1ms of IR \$2;
#X obj 241 308 r \$0-ir-length;
#X obj 226 333 <;
#X obj 226 356 sel 1;
#X obj 85 33 pipe 1;
#X obj 338 127 s \$0-irname;
#X obj 340 438 r \$0-irname;
#X msg 226 381 IR length exceeds buffer;
#X obj 245 33 inlet;
#N canvas 426 89 883 671 splitfilename 0;
#X obj 219 286 outlet;
#X text 263 289 filename;
#X obj 185 210 inlet;
#X obj 185 233 file splitname;
#X obj 185 256 list split 1;
#X obj 185 310 outlet;
#X connect 2 0 3 0;
#X connect 3 0 4 0;
#X connect 3 1 0 0;
#X connect 4 0 5 0;
#X connect 4 1 0 0;
#X restore 245 59 pd splitfilename;
#X obj 295 517 s \$0-printout;
#X connect 0 0 3 0;
#X connect 0 1 1 0;
#X connect 1 0 2 0;
#X connect 2 0 3 1;
#X connect 3 0 20 0;
#X connect 4 0 25 0;
#X connect 5 0 7 0;
#X connect 6 0 16 0;
#X connect 7 0 18 0;
#X connect 8 0 9 0;
#X connect 8 0 12 0;
#X connect 9 0 8 1;
#X connect 10 0 11 1;
#X connect 11 0 10 0;
#X connect 11 0 19 1;
#X connect 12 0 11 0;
#X connect 12 1 10 1;
#X connect 13 0 11 1;
#X connect 13 0 10 1;
#X connect 14 0 15 0;
#X connect 15 0 16 0;
#X connect 16 0 8 1;
#X connect 17 0 8 0;
#X connect 18 0 19 0;
#X connect 18 1 17 0;
#X connect 18 2 13 0;
#X connect 18 3 16 0;
#X connect 19 0 0 0;
#X connect 19 0 23 0;
#X connect 20 0 21 0;
#X connect 21 0 31 0;
#X connect 22 0 23 1;
#X connect 23 0 24 0;
#X connect 24 0 28 0;
#X connect 25 0 5 0;
#X connect 27 0 20 1;
#X connect 28 0 31 0;
#X connect 29 0 30 0;
#X connect 30 1 26 0;
#X restore 312 222 pd sondfile-info;
#N canvas 194 181 619 300 nofile 0;
#X obj 227 31 inlet;
#X obj 117 30 inlet;
#X obj 117 184 spigot 1;
#X obj 272 100 != 0;
#X obj 117 276 outlet;
#X obj 362 240 symbol empty..;
#X obj 443 29 inlet;
#X obj 227 55 t a a;
#X obj 227 277 outlet;
#X obj 362 280 outlet;
#X obj 227 184 spigot 1;
#X obj 362 138 sel 1 0;
#X obj 381 162 symbol;
#X msg 381 183 couldn't find \$1;
#X msg 272 78 \$1;
#X obj 381 206 s \$0-printout;
#X connect 0 0 7 0;
#X connect 1 0 2 0;
#X connect 2 0 4 0;
#X connect 3 0 2 1;
#X connect 3 0 10 1;
#X connect 3 0 11 0;
#X connect 5 0 9 0;
#X connect 6 0 5 1;
#X connect 6 0 12 1;
#X connect 7 0 10 0;
#X connect 7 1 14 0;
#X connect 10 0 8 0;
#X connect 11 0 5 0;
#X connect 11 1 12 0;
#X connect 12 0 13 0;
#X connect 13 0 15 0;
#X connect 14 0 3 0;
#X restore 195 200 pd nofile;
#X f 20;
#X obj 194 353 s \$0-ir-length;
#X obj 161 38 r open;
#X obj 161 65 symbol;
#X obj 326 17 r copyIR-l;
#X obj 402 18 r copyIRsize-l;
#X obj 402 41 array size \$0-impulse-l;
#X obj 326 69 array set \$0-impulse-l;
#X obj 330 99 r copyIR-r;
#X obj 406 100 r copyIRsize-r;
#X obj 406 123 array size \$0-impulse-r;
#X obj 330 151 array set \$0-impulse-r;
#X obj 221 322 r copyIRsize-l;
#X connect 1 0 11 0;
#X connect 2 0 21 0;
#X connect 2 1 21 1;
#X connect 3 0 10 0;
#X connect 4 0 9 0;
#X connect 6 0 13 0;
#X connect 7 0 8 0;
#X connect 7 1 1 0;
#X connect 7 2 3 0;
#X connect 7 3 21 2;
#X connect 8 0 6 0;
#X connect 9 0 8 1;
#X connect 10 0 2 0;
#X connect 11 0 0 0;
#X connect 13 0 5 0;
#X connect 19 0 18 0;
#X connect 21 0 22 0;
#X connect 21 1 4 0;
#X connect 21 1 19 0;
#X connect 21 2 20 0;
#X connect 23 0 24 0;
#X connect 24 0 7 0;
#X connect 25 0 28 0;
#X connect 26 0 27 0;
#X connect 29 0 32 0;
#X connect 30 0 31 0;
#X connect 33 0 22 0;
#X restore 529 94 pd load-IR;
#X obj 79 87 adc~, f 24;
#X obj 82 356 dac~, f 26;
#X obj 81 325 *~;
#X obj 112 325 /;
#X msg 112 304 1 \$1;
#X obj 112 281 r \$0-nparts;
#X obj 428 342 stdout;
#X obj 428 317 r \$0-printout;
#X obj 235 326 *~;
#X obj 266 326 /;
#X msg 266 305 1 \$1;
#X obj 266 282 r \$0-nparts;
#X obj 80 56 s \$0-min-blocksize;
#X obj 80 34 r min-blocksize;
#X obj 196 55 s \$0-max-blocksize;
#X obj 196 32 r max-blocksize;
#X connect 0 0 1 0;
#X connect 1 0 2 0;
#X connect 2 0 7 0;
#X connect 2 1 13 0;
#X connect 5 0 2 0;
#X connect 5 1 2 1;
#X connect 7 0 6 0;
#X connect 8 0 7 1;
#X connect 9 0 8 0;
#X connect 10 0 9 0;
#X connect 12 0 11 0;
#X connect 13 0 6 1;
#X connect 14 0 13 1;
#X connect 15 0 14 0;
#X connect 16 0 15 0;
#X connect 18 0 17 0;
#X connect 20 0 19 0;
