#N canvas 139 400 938 309 10;
#X obj 397 247 pp.out~;
#A saved;
#X obj 2 2 cnv 15 380 300 empty empty empty 20 12 0 14 -233017 -66577
0;
#X obj 12 15 cnv 15 10 10 empty empty pp.fft-pitchshift-st~ 0 0 2 16
-233017 -262144 0;
#X obj 570 117 cnv 15 118 17 empty empty empty 20 12 0 14 -260097 -66577
0;
#N canvas 195 89 443 304 control-messages 0;
#X obj 106 205 outlet;
#X msg 143 101 blocksize \$1;
#X msg 143 77 512;
#X msg 172 77 1024;
#X msg 208 78 2048;
#X msg 144 150 overlap \$1;
#X msg 144 125 2;
#X msg 173 126 4;
#X msg 204 126 8;
#X text 229 101 fft-blocksize;
#X floatatom 106 22 5 0 0 0 - - -;
#X msg 106 42 transposition \$1;
#X text 159 24 transposition in cents;
#X obj 144 177 cnv 16 87 16 empty empty empty 20 12 0 14 -260097 -66577
0;
#N canvas 864 246 634 307 save&recall 0;
#X obj 93 233 outlet;
#X msg 93 60 0;
#X msg 125 60 1;
#X msg 158 60 2;
#X msg 93 99 save \$1;
#X text 185 63 ...;
#X msg 207 60 20;
#X msg 149 154 0;
#X msg 181 154 1;
#X msg 214 154 2;
#X text 241 157 ...;
#X msg 263 154 20;
#X msg 149 193 recall \$1;
#X text 249 93 save & recall up to 20 presets \, presets will be saved
with the parrent patch;
#X connect 1 0 4 0;
#X connect 2 0 4 0;
#X connect 3 0 4 0;
#X connect 4 0 0 0;
#X connect 6 0 4 0;
#X connect 7 0 12 0;
#X connect 8 0 12 0;
#X connect 9 0 12 0;
#X connect 11 0 12 0;
#X connect 12 0 0 0;
#X restore 144 176 pd save&recall;
#X connect 1 0 0 0;
#X connect 2 0 1 0;
#X connect 3 0 1 0;
#X connect 4 0 1 0;
#X connect 5 0 0 0;
#X connect 6 0 5 0;
#X connect 7 0 5 0;
#X connect 8 0 5 0;
#X connect 10 0 11 0;
#X connect 11 0 0 0;
#X connect 14 0 0 0;
#X restore 570 117 pd control-messages;
#X text 10 93 Inlets:;
#X text 11 161 Outlets:;
#X obj 7 280 cnv 15 81 17 empty empty empty 20 12 0 14 -260097 -66577
0;
#N canvas 596 106 504 105 references 0;
#X obj 2 1 cnv 15 500 100 empty empty empty 20 12 0 14 -1 -66577 0
;
#X obj 3 2 cnv 15 498 98 empty empty empty 20 12 0 14 -233017 -66577
0;
#X text 21 41 help -> browser -> PureData/audio-examples/I07.phase.vocoder.pd
;
#X text 21 12 this abstraction uses the pd-implementation of the phase
vocoder;
#X restore 7 279 pd references;
#X obj 513 94 sig~;
#X floatatom 513 75 5 0 0 0 - - -;
#X text 549 76 transposition(cents);
#X text 10 51 Creation arguments: \$1: fft-blocksize \, default: 1024
;
#X text 130 63 \$2: overlap \, default: 4;
#X obj 453 21 osc~ 440;
#X obj 396 21 osc~ 220;
#X obj 453 42 *~ 0.5;
#X obj 511 21 osc~ 880;
#X obj 511 41 *~ 0.25;
#X obj 396 85 *~ 0.33;
#X text 67 187 2:message;
#X text 9 29 stereo version of [pp.fft-pitchshift~];
#X text 67 115 3:(~)transposition;
#X text 67 127 4:control-messages;
#X text 67 92 1:(~)signal left;
#X text 67 103 2:(~)signal right;
#X text 67 161 1:(~)transposed signal left;
#X text 67 174 1:(~)transposed signal right;
#N canvas 740 417 503 292 message-out 0;
#X obj 30 33 inlet;
#X msg 30 60 transposition 0 \, blocksize 1024 \, overlap 4 \,;
#X connect 0 0 1 0;
#X restore 570 181 pd message-out;
#X obj 397 139 pp.fft-pitchshift-st~ 1024 4;
#A saved;
#N canvas 102 154 450 300 examples 0;
#X obj 94 106 s pd;
#X obj 94 9 r \$0-example1;
#X msg 94 32 dir;
#X obj 94 55 pdcontrol;
#X msg 94 83 open 02-latency-compensation.pd \$1/Examples;
#X connect 1 0 2 0;
#X connect 2 0 3 0;
#X connect 3 0 4 0;
#X connect 4 0 0 0;
#X restore 304 280 pd examples;
#X obj 811 4 cnv 15 120 30 empty empty empty 20 12 0 14 -260097 -66577
0;
#X obj 817 13 bng 15 250 50 0 \$0-example1 \$0-example1r empty 17 7
0 10 -262144 -1 -1;
#X text 836 11 open example-1;
#X connect 4 0 29 3;
#X connect 9 0 29 2;
#X connect 10 0 9 0;
#X connect 14 0 16 0;
#X connect 15 0 19 0;
#X connect 16 0 19 0;
#X connect 17 0 18 0;
#X connect 18 0 19 0;
#X connect 19 0 29 0;
#X connect 19 0 29 1;
#X connect 29 0 0 0;
#X connect 29 1 0 1;
#X connect 29 2 28 0;
