#N canvas 873 119 663 502 10;
#N canvas 636 423 922 394 delwrite 0;
#X obj 64 179 inlet~;
#X obj 66 295 outlet~;
#X text 301 178 receive feedback from prev. grain;
#X obj 286 195 catch~ \$1-\$2-feedback-l;
#X obj 527 202 catch~ \$1-\$2-feedback-r;
#X obj 65 260 delwrite~ \$0-del 4000;
#X obj 257 260 delwrite~ \$0-fbdel-l 4000;
#X obj 498 263 delwrite~ \$0-fbdel-r 4000;
#X connect 0 0 5 0;
#X connect 3 0 6 0;
#X connect 4 0 7 0;
#X restore 210 101 pd delwrite;
#X obj 209 40 inlet~;
#N canvas 526 -52 1218 1237 delread 0;
#X obj 128 1000 outlet~;
#X obj 128 48 inlet~;
#X obj 126 300 f;
#X obj 450 309 random;
#X obj 469 888 *~;
#X obj 484 840 r \$2-feedback;
#X obj 259 403 +~;
#X obj 450 378 +;
#X obj 125 461 tabread4~ \$2-window;
#X obj 470 911 lop~ 8000;
#X obj 495 285 r \$2-random-delay;
#X obj 465 356 r \$2-delay;
#X obj 484 863 / 100;
#X msg 193 407 set \$1;
#X obj 125 484 clip~ 0 1;
#N canvas 2 54 450 495 rampgen 0;
#X obj 83 405 outlet;
#X obj 83 22 inlet;
#X obj 98 133 r \$2-grainsize;
#N canvas 153 292 386 402 forward 0;
#X obj 30 33 inlet;
#X obj 193 35 inlet;
#X obj 80 327 outlet;
#X obj 101 162 *;
#X obj 116 114 * 0.01;
#X obj 116 135 expr 1-pow(2 \, $f1/12);
#X obj 101 185 abs;
#X msg 80 284 0 \, \$2 \$1;
#X msg 159 284 \$2 \, 0 \$1;
#X obj 80 211 pack;
#X obj 80 236 list prepend 0;
#X obj 80 257 route 0 1;
#X obj 161 214 > 0;
#X obj 193 60 t f f;
#X obj 30 91 t f f;
#X text 68 32 abs. grainsize;
#X text 231 34 grainpitch;
#X connect 0 0 14 0;
#X connect 1 0 13 0;
#X connect 3 0 6 0;
#X connect 4 0 5 0;
#X connect 5 0 3 1;
#X connect 6 0 9 1;
#X connect 7 0 2 0;
#X connect 8 0 2 0;
#X connect 9 0 10 0;
#X connect 10 0 11 0;
#X connect 11 0 7 0;
#X connect 11 1 8 0;
#X connect 12 0 10 1;
#X connect 13 0 4 0;
#X connect 13 1 12 0;
#X connect 14 0 9 0;
#X connect 14 1 3 0;
#X restore 83 337 pd forward;
#N canvas 456 229 386 402 backward 0;
#X obj 30 33 inlet;
#X obj 193 35 inlet;
#X obj 80 327 outlet;
#X obj 193 69 * 0.01;
#X obj 126 201 abs;
#X obj 80 211 pack;
#X text 68 32 abs. grainsize;
#X text 231 34 grainpitch;
#X msg 80 263 0 \, \$2 \$1;
#X obj 126 179 +;
#X obj 30 91 t f f f;
#X obj 193 93 expr pow(2 \, $f1/12);
#X obj 141 149 *;
#X connect 0 0 10 0;
#X connect 1 0 3 0;
#X connect 3 0 11 0;
#X connect 4 0 5 1;
#X connect 5 0 8 0;
#X connect 8 0 2 0;
#X connect 9 0 4 0;
#X connect 10 0 5 0;
#X connect 10 1 9 0;
#X connect 10 2 12 0;
#X connect 11 0 12 1;
#X connect 12 0 9 1;
#X restore 201 340 pd backward;
#X obj 83 259 list prepend 0;
#X obj 83 280 route 0 1;
#X obj 164 237 < 0;
#X obj 290 132 r \$2-grainpitch;
#X obj 264 134 f;
#X text 119 24 trigger;
#X obj 83 155 f;
#X obj 83 189 t f f;
#X obj 83 212 abs;
#X obj 83 235 max 1;
#X obj 83 45 t b b;
#X connect 1 0 15 0;
#X connect 2 0 11 1;
#X connect 3 0 0 0;
#X connect 4 0 0 0;
#X connect 5 0 6 0;
#X connect 6 0 3 0;
#X connect 6 1 4 0;
#X connect 7 0 5 1;
#X connect 8 0 9 1;
#X connect 9 0 4 1;
#X connect 9 0 3 1;
#X connect 11 0 12 0;
#X connect 12 0 13 0;
#X connect 12 1 7 0;
#X connect 13 0 14 0;
#X connect 14 0 5 0;
#X connect 15 0 11 0;
#X connect 15 1 9 0;
#X restore 259 351 pd rampgen;
#N canvas 894 21 747 508 feedback 0;
#X obj 78 58 inlet~;
#X obj 78 285 throw~ \$0-feedback;
#X obj 124 155 loadbang;
#X obj 124 176 f \$1;
#X msg 124 265 set \$1;
#X text 186 266 throw to next grain;
#X obj 124 202 + 1;
#X obj 124 244 makefilename %d-\$2-feedback-l;
#X obj 389 152 loadbang;
#X obj 389 173 f \$1;
#X msg 389 262 set \$1;
#X obj 389 199 + 1;
#X obj 389 241 makefilename %d-\$2-feedback-r;
#X obj 354 284 throw~ \$0-feedback;
#X obj 353 60 inlet~;
#X obj 447 152 r \$2-max-grains;
#X obj 447 175 t b f;
#X obj 180 156 r \$2-max-grains;
#X obj 180 179 t b f;
#X obj 124 223 mod 4;
#X obj 389 220 mod 4;
#X connect 0 0 1 0;
#X connect 2 0 3 0;
#X connect 3 0 6 0;
#X connect 4 0 1 0;
#X connect 6 0 19 0;
#X connect 7 0 4 0;
#X connect 8 0 9 0;
#X connect 9 0 11 0;
#X connect 10 0 13 0;
#X connect 11 0 20 0;
#X connect 12 0 10 0;
#X connect 14 0 13 0;
#X connect 15 0 16 0;
#X connect 16 0 9 0;
#X connect 16 1 20 1;
#X connect 17 0 18 0;
#X connect 18 0 3 0;
#X connect 18 1 19 1;
#X connect 19 0 7 0;
#X connect 20 0 12 0;
#X restore 472 1009 pd feedback;
#X obj 126 552 *~;
#X obj 126 389 *~ 1022;
#X obj 126 412 +~ 1;
#X msg 126 344 0 \, 1 \$1;
#N canvas 608 386 450 300 set 0;
#X obj 104 118 array size \$2-window;
#X obj 104 49 r \$2-env-set;
#X obj 271 95 symbol;
#X obj 104 70 t b a;
#X obj 104 139 - 3;
#X obj 104 205 outlet;
#X obj 271 215 outlet;
#X connect 0 0 4 0;
#X connect 1 0 3 0;
#X connect 2 0 0 1;
#X connect 2 0 6 0;
#X connect 3 0 0 0;
#X connect 3 1 2 0;
#X connect 4 0 5 0;
#X restore 182 382 pd set;
#X obj 659 887 *~;
#X obj 674 839 r \$2-feedback;
#X obj 660 910 lop~ 8000;
#X obj 674 862 / 100;
#N canvas 1069 458 330 261 panorama 0;
#X obj 30 30 inlet;
#X obj 30 167 outlet;
#X obj 261 169 outlet;
#X obj 62 61 r \$2-grainpan;
#X obj 30 60 f;
#X obj 30 141 * 0.7071;
#X obj 261 141 * 0.7071;
#X obj 30 84 * 0.125;
#X obj 30 107 expr cos($f1*6.28319)-sin($f1*6.28319) \; cos($f1*6.28319)+sin($f1*6.28319);
#X connect 0 0 4 0;
#X connect 3 0 4 1;
#X connect 4 0 7 0;
#X connect 5 0 1 0;
#X connect 6 0 2 0;
#X connect 7 0 8 0;
#X connect 8 0 5 0;
#X connect 8 1 6 0;
#X restore 231 582 pd panorama;
#X obj 282 1002 outlet~;
#X obj 329 763 +~;
#X obj 258 491 delread4~ \$0-del;
#X obj 545 768 +~;
#X obj 127 679 *~;
#X obj 243 675 *~;
#X obj 259 377 line~;
#X obj 126 365 line~;
#X obj 471 966 hip~ 10;
#X obj 660 960 hip~ 10;
#X obj 699 935 r \$2-hip;
#X obj 127 171 s \$0-trigger;
#X obj 231 530 r \$0-trigger;
#X obj 450 261 r \$0-trigger;
#N canvas 900 157 836 756 delread-feedback 0;
#X obj 463 543 *~;
#X obj 361 549 *~;
#X obj 202 564 *~;
#X obj 102 565 *~;
#X obj 101 637 +~;
#X obj 203 634 +~;
#N canvas 210 102 450 300 switch 0;
#X obj 128 90 t f b;
#X obj 275 113 == 0;
#X obj 249 112 f;
#X obj 128 144 list prepend 0;
#X obj 128 167 list trim;
#X obj 128 59 inlet;
#X obj 128 235 outlet;
#X obj 176 235 outlet;
#X obj 249 238 outlet;
#X obj 128 190 route 1 0;
#X connect 0 0 3 0;
#X connect 0 1 2 0;
#X connect 1 0 2 1;
#X connect 2 0 1 0;
#X connect 2 0 3 1;
#X connect 2 0 8 0;
#X connect 3 0 4 0;
#X connect 4 0 9 0;
#X connect 5 0 0 0;
#X connect 9 0 6 0;
#X connect 9 1 7 0;
#X restore 102 163 pd switch;
#X obj 492 302 line~;
#X obj 537 251 max 1;
#X obj 537 208 r \$2-grainsize;
#X obj 537 230 abs;
#X obj 492 279 pack 0 0;
#X obj 217 529 sqrt~;
#X obj 477 467 sig~ 1;
#X obj 477 490 -~;
#X obj 102 132 inlet;
#X obj 101 660 outlet~;
#X obj 203 659 outlet~;
#X text 143 132 delay;
#N canvas 66 545 692 370 del4p 0;
#X obj 79 182 +~;
#X obj 78 139 line~;
#X obj 78 83 t b;
#X obj 94 25 inlet;
#X obj 339 183 +~;
#X obj 338 140 line~;
#X obj 338 84 t b;
#X obj 354 26 inlet;
#X obj 78 328 outlet~;
#X obj 141 329 outlet~;
#X obj 337 331 outlet~;
#X obj 400 332 outlet~;
#X obj 78 235 delread4~ \$0-fbdel-l;
#X obj 140 266 delread4~ \$0-fbdel-r;
#X obj 338 236 delread4~ \$0-fbdel-l;
#X obj 400 267 delread4~ \$0-fbdel-r;
#N canvas 0 267 450 495 rampgen 0;
#X obj 83 405 outlet;
#X obj 83 22 inlet;
#X obj 264 172 f;
#X text 119 24 trigger;
#X obj 83 45 t b b;
#X obj 281 112 r \$2-grainpitch-feed;
#X obj 98 111 r \$2-grainsize;
#X obj 83 155 f;
#X obj 83 178 abs;
#N canvas 153 292 386 402 forward 0;
#X obj 30 33 inlet;
#X obj 193 35 inlet;
#X obj 80 327 outlet;
#X obj 101 162 *;
#X obj 116 114 * 0.01;
#X obj 116 135 expr 1-pow(2 \, $f1/12);
#X obj 101 185 abs;
#X msg 80 284 0 \, \$2 \$1;
#X msg 159 284 \$2 \, 0 \$1;
#X obj 80 211 pack;
#X obj 80 236 list prepend 0;
#X obj 80 257 route 0 1;
#X obj 161 214 > 0;
#X obj 193 60 t f f;
#X obj 30 91 t f f;
#X text 68 32 abs. grainsize;
#X text 231 34 grainpitch;
#X floatatom 143 176 5 0 0 0 - - - 0;
#X connect 0 0 14 0;
#X connect 1 0 13 0;
#X connect 3 0 6 0;
#X connect 4 0 5 0;
#X connect 5 0 3 1;
#X connect 6 0 9 1;
#X connect 6 0 17 0;
#X connect 7 0 2 0;
#X connect 8 0 2 0;
#X connect 9 0 10 0;
#X connect 10 0 11 0;
#X connect 11 0 7 0;
#X connect 11 1 8 0;
#X connect 12 0 10 1;
#X connect 13 0 4 0;
#X connect 13 1 12 0;
#X connect 14 0 9 0;
#X connect 14 1 3 0;
#X restore 83 328 pd forward;
#X obj 98 134 * 2;
#X connect 1 0 4 0;
#X connect 2 0 9 1;
#X connect 4 0 7 0;
#X connect 4 1 2 0;
#X connect 5 0 2 1;
#X connect 6 0 10 0;
#X connect 7 0 8 0;
#X connect 8 0 9 0;
#X connect 9 0 0 0;
#X connect 10 0 7 1;
#X restore 78 109 pd rampgen;
#N canvas 2 54 450 495 rampgen 0;
#X obj 83 405 outlet;
#X obj 83 22 inlet;
#X obj 264 172 f;
#X text 119 24 trigger;
#X obj 83 45 t b b;
#X obj 279 149 r \$2-grainpitch-feed;
#X obj 98 111 r \$2-grainsize;
#X obj 83 155 f;
#X obj 83 178 abs;
#N canvas 153 292 386 402 forward 0;
#X obj 30 33 inlet;
#X obj 193 35 inlet;
#X obj 80 327 outlet;
#X obj 101 162 *;
#X obj 116 114 * 0.01;
#X obj 116 135 expr 1-pow(2 \, $f1/12);
#X obj 101 185 abs;
#X msg 80 284 0 \, \$2 \$1;
#X msg 159 284 \$2 \, 0 \$1;
#X obj 80 211 pack;
#X obj 80 236 list prepend 0;
#X obj 80 257 route 0 1;
#X obj 161 214 > 0;
#X obj 193 60 t f f;
#X obj 30 91 t f f;
#X text 68 32 abs. grainsize;
#X text 231 34 grainpitch;
#X connect 0 0 14 0;
#X connect 1 0 13 0;
#X connect 3 0 6 0;
#X connect 4 0 5 0;
#X connect 5 0 3 1;
#X connect 6 0 9 1;
#X connect 7 0 2 0;
#X connect 8 0 2 0;
#X connect 9 0 10 0;
#X connect 10 0 11 0;
#X connect 11 0 7 0;
#X connect 11 1 8 0;
#X connect 12 0 10 1;
#X connect 13 0 4 0;
#X connect 13 1 12 0;
#X connect 14 0 9 0;
#X connect 14 1 3 0;
#X restore 83 328 pd forward;
#X connect 1 0 4 0;
#X connect 2 0 9 1;
#X connect 4 0 7 0;
#X connect 4 1 2 0;
#X connect 5 0 2 1;
#X connect 6 0 7 1;
#X connect 7 0 8 0;
#X connect 8 0 9 0;
#X connect 9 0 0 0;
#X restore 338 111 pd rampgen;
#X connect 0 0 12 0;
#X connect 0 0 13 0;
#X connect 1 0 0 0;
#X connect 2 0 16 0;
#X connect 3 0 2 0;
#X connect 3 0 0 1;
#X connect 4 0 14 0;
#X connect 4 0 15 0;
#X connect 5 0 4 0;
#X connect 6 0 17 0;
#X connect 7 0 6 0;
#X connect 7 0 4 1;
#X connect 12 0 8 0;
#X connect 13 0 9 0;
#X connect 14 0 10 0;
#X connect 15 0 11 0;
#X connect 16 0 1 0;
#X connect 17 0 5 0;
#X restore 102 282 pd del4p;
#X f 26;
#X obj 102 229 t f b;
#X obj 255 242 t f b;
#X obj 478 514 sqrt~;
#N canvas 275 465 518 473 pan 0;
#X obj 104 334 +~;
#X obj 232 333 +~;
#X obj 248 307 -~;
#X obj 196 211 *~;
#X obj 104 299 -~;
#X obj 132 206 *~;
#X obj 211 184 * -1;
#X obj 211 160 min 0;
#X obj 147 183 max 0;
#X obj 232 362 outlet~;
#X obj 105 364 outlet~;
#X obj 250 29 inlet~;
#X obj 105 33 inlet~;
#X obj 325 27 inlet;
#X obj 325 55 f;
#X obj 357 55 r \$2-grainpan-feed;
#X connect 0 0 10 0;
#X connect 1 0 9 0;
#X connect 2 0 1 1;
#X connect 3 0 2 1;
#X connect 3 0 0 1;
#X connect 4 0 0 0;
#X connect 5 0 4 1;
#X connect 5 0 1 0;
#X connect 6 0 3 1;
#X connect 7 0 6 0;
#X connect 8 0 5 1;
#X connect 11 0 2 0;
#X connect 11 0 3 0;
#X connect 12 0 4 0;
#X connect 12 0 5 0;
#X connect 13 0 14 0;
#X connect 14 0 7 0;
#X connect 14 0 8 0;
#X connect 15 0 14 1;
#X restore 103 362 pd pan;
#X f 17;
#N canvas 275 465 518 473 pan 0;
#X obj 104 334 +~;
#X obj 232 333 +~;
#X obj 248 307 -~;
#X obj 196 211 *~;
#X obj 104 299 -~;
#X obj 132 206 *~;
#X obj 211 184 * -1;
#X obj 211 160 min 0;
#X obj 147 183 max 0;
#X obj 232 362 outlet~;
#X obj 105 364 outlet~;
#X obj 250 29 inlet~;
#X obj 105 33 inlet~;
#X obj 325 27 inlet;
#X obj 325 55 f;
#X obj 357 55 r \$2-grainpan-feed;
#X connect 0 0 10 0;
#X connect 1 0 9 0;
#X connect 2 0 1 1;
#X connect 3 0 2 1;
#X connect 3 0 0 1;
#X connect 4 0 0 0;
#X connect 5 0 4 1;
#X connect 5 0 1 0;
#X connect 6 0 3 1;
#X connect 7 0 6 0;
#X connect 8 0 5 1;
#X connect 11 0 2 0;
#X connect 11 0 3 0;
#X connect 12 0 4 0;
#X connect 12 0 5 0;
#X connect 13 0 14 0;
#X connect 14 0 7 0;
#X connect 14 0 8 0;
#X connect 15 0 14 1;
#X restore 251 361 pd pan;
#X f 17;
#X connect 0 0 5 1;
#X connect 1 0 4 1;
#X connect 2 0 5 0;
#X connect 3 0 4 0;
#X connect 4 0 16 0;
#X connect 5 0 17 0;
#X connect 6 0 20 0;
#X connect 6 1 21 0;
#X connect 6 2 11 0;
#X connect 7 0 12 0;
#X connect 7 0 14 1;
#X connect 8 0 11 1;
#X connect 9 0 10 0;
#X connect 10 0 8 0;
#X connect 11 0 7 0;
#X connect 12 0 2 1;
#X connect 12 0 3 1;
#X connect 13 0 14 0;
#X connect 14 0 22 0;
#X connect 15 0 6 0;
#X connect 19 0 23 0;
#X connect 19 1 23 1;
#X connect 19 2 24 0;
#X connect 19 3 24 1;
#X connect 20 0 19 0;
#X connect 20 1 23 2;
#X connect 21 0 19 1;
#X connect 21 1 24 2;
#X connect 22 0 0 1;
#X connect 22 0 1 1;
#X connect 23 0 3 0;
#X connect 23 1 2 0;
#X connect 24 0 1 0;
#X connect 24 1 0 0;
#X restore 450 508 pd delread-feedback;
#X obj 495 308 * 10000;
#X obj 450 332 / 10000;
#X obj 126 206 r \$0-trigger;
#X obj 259 321 r \$0-trigger;
#N canvas 0 0 450 300 x-pan 0;
#X obj 134 54 inlet~;
#X obj 191 53 inlet~;
#N canvas 0 0 450 300 through 0;
#X obj 112 137 inlet~;
#X obj 112 160 outlet~;
#X obj 188 136 inlet~;
#X obj 188 159 outlet~;
#X obj 265 74 r \$2-x-pan;
#X obj 265 97 == 0;
#X obj 265 120 switch~;
#X obj 351 63 loadbang;
#X msg 351 86 1;
#X connect 0 0 1 0;
#X connect 2 0 3 0;
#X connect 4 0 5 0;
#X connect 5 0 6 0;
#X connect 7 0 8 0;
#X connect 8 0 6 0;
#X restore 133 122 pd through;
#N canvas 0 0 450 300 x 0;
#X obj 112 107 inlet~;
#X obj 112 160 outlet~;
#X obj 188 106 inlet~;
#X obj 188 162 outlet~;
#X obj 265 74 r \$2-x-pan;
#X obj 265 120 switch~;
#X obj 265 97 == 1;
#X connect 0 0 3 0;
#X connect 2 0 1 0;
#X connect 4 0 6 0;
#X connect 6 0 5 0;
#X restore 212 123 pd x;
#X f 10;
#X obj 133 183 outlet~;
#X obj 191 183 outlet~;
#X connect 0 0 2 0;
#X connect 0 0 3 0;
#X connect 1 0 3 1;
#X connect 1 0 2 1;
#X connect 2 0 4 0;
#X connect 2 1 5 0;
#X connect 3 0 4 0;
#X connect 3 1 5 0;
#X restore 450 574 pd x-pan;
#X f 19;
#X obj 309 558 r \$0-trigger;
#X obj 309 581 f;
#X obj 335 581 r \$2-grainamp;
#X obj 231 553 t b b;
#X obj 294 623 *;
#X obj 231 622 *;
#X obj 521 887 r \$2-lop;
#X obj 711 886 r \$2-lop;
#X obj 510 940 r \$2-hip;
#X obj 262 101 f;
#X obj 277 78 max 1;
#X obj 277 36 r \$2-grainsize;
#X obj 277 57 abs;
#X obj 185 124 delay;
#X obj 128 73 t b b b;
#X obj 127 147 spigot 1;
#X obj 185 147 f 1;
#X obj 155 122 f 0;
#X obj 222 123 - 0.001;
#X obj 470 812 clip~ -1.5 1.5;
#X obj 659 813 clip~ -1.5 1.5;
#X connect 1 1 61 0;
#X connect 2 0 20 0;
#X connect 3 0 43 0;
#X connect 4 0 9 0;
#X connect 5 0 12 0;
#X connect 6 0 29 0;
#X connect 7 0 6 1;
#X connect 7 0 41 0;
#X connect 8 0 14 0;
#X connect 9 0 35 0;
#X connect 10 0 42 0;
#X connect 11 0 7 1;
#X connect 12 0 4 1;
#X connect 13 0 8 0;
#X connect 14 0 17 0;
#X connect 15 0 33 0;
#X connect 17 0 31 0;
#X connect 17 0 32 0;
#X connect 18 0 19 0;
#X connect 19 0 8 0;
#X connect 20 0 34 0;
#X connect 21 0 18 1;
#X connect 21 1 13 0;
#X connect 22 0 24 0;
#X connect 23 0 25 0;
#X connect 24 0 36 0;
#X connect 25 0 22 1;
#X connect 26 0 52 0;
#X connect 26 1 51 0;
#X connect 28 0 0 0;
#X connect 28 0 66 0;
#X connect 29 0 17 1;
#X connect 30 0 27 0;
#X connect 30 0 67 0;
#X connect 31 0 28 0;
#X connect 32 0 30 0;
#X connect 33 0 6 0;
#X connect 34 0 18 0;
#X connect 35 0 16 0;
#X connect 36 0 16 1;
#X connect 37 0 36 1;
#X connect 39 0 50 0;
#X connect 40 0 3 0;
#X connect 41 0 46 0;
#X connect 41 1 46 1;
#X connect 42 0 3 1;
#X connect 43 0 7 0;
#X connect 44 0 2 0;
#X connect 45 0 15 0;
#X connect 46 0 28 1;
#X connect 46 1 30 1;
#X connect 47 0 48 0;
#X connect 48 0 51 1;
#X connect 48 0 52 1;
#X connect 49 0 48 1;
#X connect 50 0 26 0;
#X connect 50 1 48 0;
#X connect 51 0 32 1;
#X connect 52 0 31 1;
#X connect 53 0 9 1;
#X connect 54 0 24 1;
#X connect 55 0 35 1;
#X connect 56 0 2 1;
#X connect 56 0 65 0;
#X connect 57 0 56 1;
#X connect 58 0 59 0;
#X connect 59 0 57 0;
#X connect 60 0 63 0;
#X connect 61 0 64 0;
#X connect 61 1 62 0;
#X connect 61 1 60 0;
#X connect 61 2 56 0;
#X connect 62 0 38 0;
#X connect 63 0 62 1;
#X connect 64 0 62 1;
#X connect 65 0 60 1;
#X connect 66 0 4 0;
#X connect 67 0 22 0;
#X restore 210 168 pd delread;
#X obj 209 440 outlet~;
#X obj 267 441 outlet~;
#X connect 0 0 2 0;
#X connect 1 0 0 0;
#X connect 1 1 2 0;
#X connect 2 0 3 0;
#X connect 2 1 4 0;
