#N canvas 264 77 751 688 10;
#X msg 77 372 0 \, \$1 \$2;
#X obj 77 277 pack;
#X obj 77 165 / 1000;
#X obj 77 187 * 44100;
#X obj 320 301 / 1000;
#X obj 320 323 * 44100;
#X obj 77 252 * 1;
#X obj 75 527 *~;
#X obj 302 346 f;
#X obj 81 97 f 50;
#N canvas 779 288 280 225 cents 0;
#X obj 52 57 inlet;
#X obj 52 168 outlet;
#X obj 52 115 / 100;
#X obj 52 88 i;
#X obj 52 142 expr pow(2 \, $f1/12);
#X connect 0 0 3 0;
#X connect 2 0 4 0;
#X connect 3 0 2 0;
#X connect 4 0 1 0;
#X restore 137 235 pd cents;
#X obj 137 214 f;
#X obj 77 648 outlet~;
#X obj 117 77 r \$2-grainsize;
#X obj 127 164 r \$2-samplerate;
#X obj 320 278 r \$2-grainposition;
#X obj 377 322 r \$2-samplerate;
#X obj 76 471 tabread4~ \$2-sf;
#X obj 155 194 r \$2-grainpitch;
#X obj 214 17 inlet trigger;
#X obj 387 135 switch~ 0;
#X msg 387 113 1;
#X obj 476 64 r \$2-grainsize;
#X msg 426 111 0;
#X obj 638 481 loadbang;
#X obj 495 517 cos~;
#X obj 579 525 cos~;
#X obj 580 503 +~ 0.75;
#X msg 638 502 2;
#X obj 638 524 sqrt;
#X obj 638 546 / 2;
#X obj 496 579 *~;
#X obj 561 580 *~;
#X obj 496 557 -~;
#X obj 561 558 +~;
#X obj 76 625 *~;
#X obj 231 656 outlet~;
#X obj 230 633 *~;
#X obj 545 467 *~ 0.125;
#X obj 546 444 sig~;
#X obj 578 422 r \$2-grainpan;
#X obj 546 421 f;
#X obj 426 87 del 50;
#X obj 158 284 < 0;
#X obj 77 304 list prepend 0;
#X obj 77 325 route 0 1;
#X msg 136 373 \$1 \, 0 \$2;
#X obj 476 86 abs;
#X obj 158 263 r \$2-grainsize;
#X obj 81 119 t f f f;
#X obj 302 368 mod;
#X obj 117 97 abs;
#X obj 332 368 r \$2-samplelength;
#X obj 76 582 *~;
#X obj 273 518 r \$2-grainamp;
#X obj 258 538 f;
#N canvas 3 52 450 300 filter 0;
#X obj 143 88 inlet~;
#X obj 142 198 outlet~;
#X obj 168 130 r \$2-filter-bypass;
#N canvas 337 195 450 300 sub 0;
#X obj 246 28 inlet~;
#X obj 246 186 outlet~;
#X obj 260 85 f;
#X obj 317 113 f;
#X obj 278 66 r \$2-freq;
#X obj 335 92 r \$2-q;
#X obj 247 130 vcf~;
#X obj 260 105 sig~;
#X obj 355 11 inlet;
#X obj 81 77 switch~ 0;
#X obj 81 28 r \$2-filter-bypass;
#X obj 81 50 == 0;
#X connect 0 0 6 0;
#X connect 2 0 7 0;
#X connect 3 0 6 2;
#X connect 4 0 2 1;
#X connect 5 0 3 1;
#X connect 6 0 1 0;
#X connect 7 0 6 1;
#X connect 8 0 3 0;
#X connect 8 0 2 0;
#X connect 10 0 11 0;
#X connect 11 0 9 0;
#X restore 203 157 pd sub;
#X obj 305 90 inlet;
#X obj 143 151 *~ 1;
#X connect 0 0 3 0;
#X connect 0 0 5 0;
#X connect 2 0 5 1;
#X connect 3 0 1 0;
#X connect 4 0 3 1;
#X connect 5 0 1 0;
#X restore 75 549 pd filter;
#X obj 214 39 t b b b b b b b;
#X obj 289 489 tabread4~ \$2-window;
#N canvas 3 52 450 300 set 0;
#X obj 170 55 inlet;
#X obj 233 128 array size \$2-window;
#X obj 233 59 r \$2-env-set;
#X obj 400 105 symbol;
#X obj 233 80 t b a;
#X obj 233 149 - 3;
#X obj 170 224 outlet;
#X obj 170 182 pack f 1022;
#X obj 400 225 outlet;
#X msg 170 203 1 \, \$2 \$1;
#X connect 0 0 7 0;
#X connect 1 0 5 0;
#X connect 2 0 4 0;
#X connect 3 0 1 1;
#X connect 3 0 8 0;
#X connect 4 0 1 0;
#X connect 4 1 3 0;
#X connect 5 0 7 1;
#X connect 7 0 9 0;
#X connect 9 0 6 0;
#X restore 290 414 pd set;
#X msg 412 458 set \$1;
#X obj 21 396 r \$2-set;
#X msg 21 419 set \$1;
#X obj 89 506 clip~ 0 1;
#X obj 77 426 vline~;
#X obj 290 453 vline~;
#X connect 0 0 64 0;
#X connect 1 0 44 0;
#X connect 2 0 3 0;
#X connect 3 0 6 0;
#X connect 4 0 5 0;
#X connect 5 0 8 1;
#X connect 6 0 1 0;
#X connect 7 0 56 0;
#X connect 8 0 50 0;
#X connect 9 0 49 0;
#X connect 10 0 6 1;
#X connect 11 0 10 0;
#X connect 13 0 51 0;
#X connect 14 0 3 1;
#X connect 15 0 4 0;
#X connect 16 0 5 1;
#X connect 17 0 7 0;
#X connect 18 0 11 1;
#X connect 19 0 57 0;
#X connect 21 0 20 0;
#X connect 22 0 47 0;
#X connect 23 0 20 0;
#X connect 24 0 28 0;
#X connect 25 0 33 0;
#X connect 25 0 34 0;
#X connect 26 0 33 1;
#X connect 26 0 34 1;
#X connect 27 0 26 0;
#X connect 28 0 29 0;
#X connect 29 0 30 0;
#X connect 30 0 31 1;
#X connect 30 0 32 1;
#X connect 31 0 35 1;
#X connect 32 0 37 1;
#X connect 33 0 31 0;
#X connect 34 0 32 0;
#X connect 35 0 12 0;
#X connect 37 0 36 0;
#X connect 38 0 25 0;
#X connect 38 0 27 0;
#X connect 39 0 38 0;
#X connect 40 0 41 1;
#X connect 41 0 39 0;
#X connect 42 0 23 0;
#X connect 43 0 44 1;
#X connect 44 0 45 0;
#X connect 45 0 0 0;
#X connect 45 1 46 0;
#X connect 46 0 64 0;
#X connect 47 0 42 1;
#X connect 48 0 43 0;
#X connect 49 0 2 0;
#X connect 49 1 1 1;
#X connect 49 2 59 0;
#X connect 50 0 17 1;
#X connect 51 0 9 1;
#X connect 52 0 50 1;
#X connect 53 0 35 0;
#X connect 53 0 37 0;
#X connect 54 0 55 1;
#X connect 55 0 53 1;
#X connect 56 0 53 0;
#X connect 57 0 9 0;
#X connect 57 1 11 0;
#X connect 57 2 56 1;
#X connect 57 3 55 0;
#X connect 57 4 8 0;
#X connect 57 5 41 0;
#X connect 57 6 21 0;
#X connect 57 6 42 0;
#X connect 58 0 63 0;
#X connect 59 0 65 0;
#X connect 59 1 60 0;
#X connect 60 0 58 0;
#X connect 61 0 62 0;
#X connect 62 0 17 0;
#X connect 63 0 7 1;
#X connect 64 0 17 0;
#X connect 65 0 58 0;
