#N canvas 68 150 663 502 10;
#N canvas 377 145 590 386 delwrite 0;
#X obj 64 179 inlet~;
#X obj 66 244 outlet~;
#X obj 160 176 r~;
#X obj 160 51 loadbang;
#X obj 160 72 f \$1;
#X obj 160 135 makesymbol %s-\$2-feedback;
#X msg 160 156 set \$1;
#X obj 160 93 - 1;
#X obj 65 209 delwrite~ \$0-del 6000;
#X obj 160 114 mod 32;
#X connect 0 0 8 0;
#X connect 2 0 8 0;
#X connect 3 0 4 0;
#X connect 4 0 7 0;
#X connect 5 0 6 0;
#X connect 6 0 2 0;
#X connect 7 0 9 0;
#X connect 9 0 5 0;
#X restore 210 121 pd delwrite;
#X obj 209 40 inlet~;
#N canvas 294 98 686 648 delread 0;
#X obj 185 569 *~;
#X obj 186 647 outlet~;
#X obj 67 42 inlet~;
#X obj 138 39 inlet trigger;
#X obj 138 328 f;
#X obj 195 344 *;
#X obj 206 300 max 1;
#X obj 206 321 t b f;
#X obj 458 372 random;
#X obj 195 201 * 0.01;
#X obj 195 222 expr 1-pow(2 \, $f1/12);
#X obj 195 367 abs;
#X obj 348 589 *~;
#X obj 277 553 vd~ \$0-del;
#X obj 363 541 r \$2-feedback;
#X obj 349 651 s~ \$1-\$2-feedback;
#X obj 402 588 r \$2-damping;
#X msg 278 477 0 \, \$2 \$1;
#X msg 357 477 \$2 \, 0 \$1;
#X obj 174 393 pack;
#X obj 278 530 +~;
#X obj 458 509 +;
#X obj 278 504 vline~;
#X obj 138 464 vline~;
#X obj 278 429 list prepend 0;
#X obj 278 450 route 0 1;
#X obj 370 428 > 0;
#X obj 137 504 tabread4~ \$2-window;
#X obj 370 145 r \$2-grainpitch;
#X obj 173 171 f;
#X obj 206 258 r \$2-grainsize;
#X obj 349 612 lop~ 8000;
#X obj 504 372 r \$2-random-delay;
#X obj 473 487 r \$2-delay;
#X obj 206 279 abs;
#X obj 539 54 r \$2-grainsize;
#X obj 500 76 del 100;
#X obj 533 96 loadbang;
#X msg 533 133 0;
#X obj 533 160 switch~;
#X msg 505 130 1;
#X obj 138 60 t b b b b;
#X obj 363 564 / 100;
#N canvas 608 386 450 300 set 0;
#X obj 123 67 inlet;
#X obj 186 128 array size \$2-window;
#X obj 186 59 r \$2-env-set;
#X obj 353 105 symbol;
#X obj 186 80 t b a;
#X obj 186 149 - 3;
#X obj 123 224 outlet;
#X obj 353 225 outlet;
#X msg 123 203 1 \, \$2 \$1;
#X obj 123 176 pack 0 1022;
#X connect 0 0 9 0;
#X connect 1 0 5 0;
#X connect 2 0 4 0;
#X connect 3 0 1 1;
#X connect 3 0 7 0;
#X connect 4 0 1 0;
#X connect 4 1 3 0;
#X connect 5 0 9 1;
#X connect 8 0 6 0;
#X connect 9 0 8 0;
#X restore 138 429 pd set;
#X msg 198 462 set \$1;
#X obj 137 527 clip~ 0 1;
#X connect 0 0 1 0;
#X connect 0 0 12 0;
#X connect 3 0 41 0;
#X connect 4 0 19 0;
#X connect 4 0 43 0;
#X connect 5 0 11 0;
#X connect 6 0 7 0;
#X connect 6 0 4 1;
#X connect 7 0 5 0;
#X connect 7 1 5 1;
#X connect 8 0 21 0;
#X connect 9 0 10 0;
#X connect 10 0 5 0;
#X connect 11 0 19 1;
#X connect 12 0 31 0;
#X connect 13 0 0 1;
#X connect 14 0 42 0;
#X connect 16 0 31 1;
#X connect 17 0 22 0;
#X connect 18 0 22 0;
#X connect 19 0 24 0;
#X connect 20 0 13 0;
#X connect 21 0 20 1;
#X connect 22 0 20 0;
#X connect 23 0 27 0;
#X connect 24 0 25 0;
#X connect 25 0 17 0;
#X connect 25 1 18 0;
#X connect 26 0 24 1;
#X connect 27 0 45 0;
#X connect 28 0 29 1;
#X connect 28 0 26 0;
#X connect 29 0 9 0;
#X connect 30 0 34 0;
#X connect 31 0 15 0;
#X connect 32 0 8 1;
#X connect 33 0 21 1;
#X connect 34 0 6 0;
#X connect 35 0 36 1;
#X connect 36 0 38 0;
#X connect 37 0 38 0;
#X connect 38 0 39 0;
#X connect 40 0 39 0;
#X connect 41 0 4 0;
#X connect 41 1 29 0;
#X connect 41 2 8 0;
#X connect 41 3 36 0;
#X connect 41 3 40 0;
#X connect 42 0 12 1;
#X connect 43 0 23 0;
#X connect 43 1 44 0;
#X connect 44 0 27 0;
#X connect 45 0 0 0;
#X restore 210 168 pd delread;
#X obj 209 440 outlet~;
#X obj 93 43 inlet trigger;
#X obj 556 255 loadbang;
#X obj 442 289 cos~;
#X obj 504 298 cos~;
#X obj 505 276 +~ 0.75;
#X msg 556 276 2;
#X obj 556 298 sqrt;
#X obj 556 320 / 2;
#X obj 443 351 *~;
#X obj 486 353 *~;
#X obj 443 329 -~;
#X obj 486 331 +~;
#X obj 442 249 *~ 0.125;
#X obj 442 228 sig~;
#X obj 209 409 *~;
#X obj 276 413 *~;
#X obj 277 441 outlet~;
#X obj 267 84 t b b b;
#X obj 210 351 *~ 1;
#X obj 286 276 f;
#X obj 314 275 r \$2-grainamp;
#X obj 457 181 r \$2-grainpan;
#X obj 442 205 f;
#N canvas 3 52 450 300 filter 0;
#X obj 143 88 inlet~;
#X obj 142 198 outlet~;
#X obj 168 130 r \$2-filter-bypass;
#N canvas 337 195 450 300 sub 0;
#X obj 246 28 inlet~;
#X obj 246 186 outlet~;
#X obj 260 85 f;
#X obj 317 113 f;
#X obj 278 66 r \$2-freq;
#X obj 335 92 r \$2-q;
#X obj 247 130 vcf~;
#X obj 260 105 sig~;
#X obj 355 11 inlet;
#X obj 81 77 switch~ 0;
#X obj 81 28 r \$2-filter-bypass;
#X obj 81 50 == 0;
#X connect 0 0 6 0;
#X connect 2 0 7 0;
#X connect 3 0 6 2;
#X connect 4 0 2 1;
#X connect 5 0 3 1;
#X connect 6 0 1 0;
#X connect 7 0 6 1;
#X connect 8 0 3 0;
#X connect 8 0 2 0;
#X connect 10 0 11 0;
#X connect 11 0 9 0;
#X restore 203 157 pd sub;
#X obj 305 90 inlet;
#X obj 143 151 *~ 1;
#X connect 0 0 3 0;
#X connect 0 0 5 0;
#X connect 2 0 5 1;
#X connect 3 0 1 0;
#X connect 4 0 3 1;
#X connect 5 0 1 0;
#X restore 209 257 pd filter;
#X connect 0 0 2 0;
#X connect 1 0 0 0;
#X connect 2 0 27 0;
#X connect 4 0 21 0;
#X connect 5 0 9 0;
#X connect 6 0 14 0;
#X connect 6 0 15 0;
#X connect 7 0 14 1;
#X connect 7 0 15 1;
#X connect 8 0 7 0;
#X connect 9 0 10 0;
#X connect 10 0 11 0;
#X connect 11 0 12 1;
#X connect 11 0 13 1;
#X connect 12 0 18 1;
#X connect 13 0 19 1;
#X connect 14 0 12 0;
#X connect 15 0 13 0;
#X connect 16 0 6 0;
#X connect 16 0 8 0;
#X connect 17 0 16 0;
#X connect 18 0 3 0;
#X connect 19 0 20 0;
#X connect 21 0 2 1;
#X connect 21 1 23 0;
#X connect 21 2 26 0;
#X connect 21 2 27 1;
#X connect 22 0 18 0;
#X connect 22 0 19 0;
#X connect 23 0 22 1;
#X connect 24 0 23 1;
#X connect 25 0 26 1;
#X connect 26 0 17 0;
#X connect 27 0 22 0;
