#N canvas 242 52 705 658 10;
#X obj 291 404 lop~ 100;
#X obj 335 380 / 0.5;
#X obj 355 355 t b f;
#X obj 275 220 wrap~;
#X obj 220 262 samphold~;
#N canvas 3 50 450 545 rand~ 0;
#X obj 207 133 noise~;
#X obj 208 162 samphold~;
#X obj 276 191 rzero_rev~;
#X obj 275 214 samphold~;
#X obj 208 227 -~;
#X obj 208 249 -~ 1;
#X obj 161 267 *~;
#X obj 113 200 +~;
#X obj 131 300 +~;
#X obj 201 47 inlet~;
#X obj 131 321 outlet~;
#X connect 0 0 1 0;
#X connect 1 0 2 0;
#X connect 1 0 4 0;
#X connect 2 0 3 0;
#X connect 3 0 4 1;
#X connect 3 0 7 1;
#X connect 4 0 5 0;
#X connect 5 0 6 1;
#X connect 6 0 8 1;
#X connect 7 0 8 0;
#X connect 8 0 10 0;
#X connect 9 0 1 1;
#X connect 9 0 3 1;
#X connect 9 0 7 0;
#X connect 9 0 6 0;
#X restore 219 200 pd rand~;
#X obj 291 448 outlet~;
#X obj 235 93 +~;
#X obj 219 116 phasor~;
#X obj 335 71 r \$0-freq;
#X obj 356 274 r \$0-lop;
#X obj 275 199 *~ 100;
#X obj 234 67 inlet~;
#X obj 309 157 r \$0-steps;
#X obj 356 295 / 100;
#X obj 356 316 * 2;
#X obj 355 335 max 0.01;
#X obj 308 178 max 1;
#N canvas 51 308 450 300 stuff 0;
#X obj 113 151 s \$0-visbngr;
#X obj 95 46 r \$0-visbng;
#X msg 93 123 color 0 0;
#X msg 177 123 color 10 10;
#X obj 95 68 t b;
#X obj 175 98 del 250;
#X obj 59 196 s pd-\$0-randLFO;
#X obj 309 52 loadbang;
#X msg 309 85 100;
#X obj 309 106 s \$0-stepsr;
#X obj 383 80 f \$1;
#X obj 383 101 s \$0-freqr;
#X msg 59 173 relocate 200x215+1+1 1x1+50+50 \, vis 1;
#X connect 1 0 4 0;
#X connect 2 0 0 0;
#X connect 3 0 0 0;
#X connect 4 0 2 0;
#X connect 4 0 5 0;
#X connect 4 0 12 0;
#X connect 5 0 3 0;
#X connect 7 0 8 0;
#X connect 7 0 10 0;
#X connect 8 0 9 0;
#X connect 10 0 11 0;
#X connect 12 0 6 0;
#X restore 461 217 pd stuff;
#N canvas 50 77 200 215 \$0-randLFO 0;
#N canvas 81 69 450 409 mask 0;
#X obj 50 40 cnv 15 189 204 empty empty empty 20 12 0 14 -262144 -66577
0;
#X obj 189 70 nbx 4 12 -1e+08 1e+08 0 0 \$0-freq \$0-freqr empty 41
8 2 10 -262144 -1 -1 0 256;
#X obj 59 70 hsl 124 12 0 1 0 0 \$0-fgui \$0-fguir Frequency(hz) -2
-6 2 10 -262144 -1 -1 0 1;
#N canvas 436 142 450 300 map 0;
#X obj 124 65 pow 2;
#X obj 125 143 outlet;
#X obj 226 46 inlet nbx;
#X obj 124 44 inlet hsl;
#X obj 226 88 sqrt;
#X msg 226 109 set \$1;
#X obj 226 130 outlet;
#X obj 125 89 * 10;
#X obj 226 67 / 10;
#X connect 0 0 7 0;
#X connect 2 0 8 0;
#X connect 3 0 0 0;
#X connect 4 0 5 0;
#X connect 5 0 6 0;
#X connect 7 0 1 0;
#X connect 8 0 4 0;
#X restore 55 11 pd map;
#X obj 189 95 nbx 4 12 1 1e+07 0 0 \$0-steps \$0-stepsr empty 41 8
2 10 -262144 -1 -1 100 256;
#X obj 59 95 hsl 124 12 1 100 0 0 \$0-sgui \$0-sguir Steps -2 -6 2
10 -262144 -1 -1 12300 1;
#X obj 262 87 i;
#X msg -4 109 set \$1;
#X obj 189 120 nbx 4 12 0 1e+13 0 0 \$0-lop \$0-lopr empty 41 8 2 10
-262144 -1 -1 0 256;
#X obj 59 120 hsl 124 12 0 100 0 0 \$0-smgui \$0-smguir Smooth -2 -6
2 10 -262144 -1 -1 0 1;
#X msg -14 274 set \$1;
#X obj 229 225 cnv 10 10 10 empty empty -1 0 5 2 10 -262144 -66577
0;
#X obj 229 185 cnv 10 10 10 empty empty 0 2 5 2 10 -262144 -66577 0
;
#X obj 229 144 cnv 10 10 10 empty empty 1 3 5 2 10 -262144 -66577 0
;
#X obj 142 48 cnv 10 10 10 empty empty lfnoise~ 3 5 2 14 -262144 -162280
0;
#X obj 56 144 cnv 15 170 92 empty empty empty 20 12 0 14 -99865 -66577
0;
#X obj 58 146 cnv 15 166 88 empty empty empty 20 12 0 14 -228856 -66577
0;
#N canvas 0 50 450 250 (subpatch) 0;
#X array \$0-scope 441 float 1;
#A 0 0.328641 0.328641 0.328641 0.328641 0.328641 0.328641 0.328641
0.328641 0.328641 0.328641 0.328641 0.328641 0.328641 0.328641 0.328641
0.328641 0.328641 0.328641 0.328641 0.328641 0.328641 0.328641 0.328641
0.328641 0.328641 0.328641 0.328641 0.328641 0.328641 0.328641 0.328641
0.328641 0.328641 0.328641 0.328641 0.328641 0.328641 0.328641 0.328641
0.328641 0.328641 0.328641 0.328641 0.328641 0.328641 0.328641 0.328641
0.328641 0.328641 0.328641 0.328641 0.328641 0.328641 0.328641 0.328641
0.328641 0.328641 0.328641 0.328641 0.328641 0.328641 0.328641 0.328641
0.328641 0.328641 0.328641 0.328641 0.328641 0.328641 0.328641 0.328641
0.328641 0.328641 0.328641 0.328641 0.328641 0.328641 0.328641 0.328641
0.328641 0.328641 0.328641 0.328641 0.328641 0.328641 0.328641 0.328641
0.328641 0.328641 0.328641 0.328641 0.328641 0.328641 0.328641 0.328641
0.328641 0.328641 0.328641 0.328641 0.328641 0.328641 0.328641 0.328641
0.328641 0.328641 0.328641 0.328641 0.328641 0.328641 0.328641 0.328641
0.328641 0.328641 0.328641 0.328641 0.328641 0.328641 0.328641 0.328641
0.328641 0.328641 0.328641 0.328641 0.328641 0.328641 0.328641 0.328641
0.328641 0.328641 0.328641 0.328641 0.328641 0.328641 0.328641 0.328641
0.328641 0.328641 0.328641 0.328641 0.328641 0.328641 0.328641 0.328641
0.328641 0.328641 0.328641 0.328641 0.328641 0.328641 0.328641 0.328641
0.328641 0.328641 0.328641 0.328641 0.328641 0.328641 0.328641 0.328641
0.328641 0.328641 0.328641 0.328641 0 0 0 0 0 0 0 0 0 0 0 0 0 0 0 0
0 0 0 0 0 0 0 0 0 0 0 0 0 0 0 0 0 0 0 0 0 0 0 0 0 0 0 0 0 0 0 0 0 0
0 0 0 0 0 0 0 0 0 0 0 0 0 0 0 0 0 0 0 0 0 0 0 0 0 0 0 0 0 0 0 0 0 0
0 0 0 0 0 0 0 0 0 0 0 0 0 0 0 0 0 0 0 0 0 0 0 0 0 0 0 0 0 0 0 0 0 0
0 0 0 0 0 0 0 0 0 0 0 0 0 0 0 0 0 0 0 0 0 0 0 0 0 0 0 0 0 0 0 0 0 0
0 0 0 0 0 0 0 0 0 0 0 0 0 0 0 0 0 0 0 0 0 0 0 0 0 0 0 0 0 0 0 0 0 0
0 0 0 0 0 0 0 0 0 0 0 0 0 0 0 0 0 0 0 0 0 0 0 0 0 0 0 0 0 0 0 0 0 0
0 0 0 0 0 0 0 0 0 0 0 0 0 0 0 0 0 0 0 0 0 0 0 0 0 0 0 0 0 0 0 0 0 0
0 0 0 0 0 0 0 0 0 0 0 0 0 0 0 0 0 0 0 0 0 0 0 0;
#X coords 0 1 440 -1 168 90 1 0 0;
#X restore 57 145 graph;
#X obj 56 133 cnv 10 100 10 empty empty empty 20 12 0 14 -262144 -66577
0;
#X obj -4 89 i;
#X msg 261 108 set \$1;
#X obj 309 103 s \$0-steps;
#X connect 1 0 3 1;
#X connect 2 0 3 0;
#X connect 3 0 1 0;
#X connect 3 1 2 0;
#X connect 4 0 19 0;
#X connect 5 0 6 0;
#X connect 6 0 20 0;
#X connect 6 0 21 0;
#X connect 7 0 5 0;
#X connect 8 0 10 0;
#X connect 9 0 8 0;
#X connect 10 0 9 0;
#X connect 19 0 7 0;
#X connect 20 0 4 0;
#X coords 0 -1 1 1 190 205 2 50 40;
#X restore 5 6 pd mask;
#X restore 461 238 pd \$0-randLFO;
#X obj 103 115 hsl 95 15 0 127 0 0 \$0-visbng \$0-visbngr empty 50
8 2 10 -233017 -233017 -1 0 1;
#X obj 465 72 inlet;
#X obj 466 448 outlet;
#N canvas 3 78 781 543 outlet-message 0;
#N canvas 105 314 986 300 bang_once.......................................
0;
#X obj 174 87 t b f;
#X obj 132 87 t b f;
#X obj 89 139 del 0;
#X obj 89 87 t b f;
#X obj 89 41 inlet;
#X obj 132 40 inlet;
#X obj 174 40 inlet;
#X obj 89 247 outlet;
#X obj 89 173 f;
#X obj 89 203 pack 0 0 0;
#X connect 0 0 2 0;
#X connect 0 1 9 2;
#X connect 1 0 2 0;
#X connect 1 1 9 1;
#X connect 2 0 8 0;
#X connect 3 0 2 0;
#X connect 3 1 8 1;
#X connect 4 0 3 0;
#X connect 5 0 1 0;
#X connect 6 0 0 0;
#X connect 8 0 9 0;
#X connect 9 0 7 0;
#X restore 251 166 pd bang_once.......................................
;
#X obj 331 387 list trim;
#X msg 251 385 addcomma;
#X msg 187 392 set;
#X obj 331 364 list prepend add2;
#X obj 338 434 outlet;
#X obj 302 123 r \$0-steps;
#X obj 400 96 r \$0-lop;
#X msg 288 250 frequency \$1 \, steps \$2 \, smooth \$3;
#X obj 223 95 r \$0-freq;
#X obj 251 187 t b a b;
#X obj 304 290 t b a a;
#N canvas 1009 187 450 300 save 0;
#X obj 108 107 inlet;
#X obj 129 217 list;
#X obj 129 264 list trim;
#X obj 129 286 s \$0-lists;
#X obj 128 319 r \$0-lists;
#X obj 129 242 list prepend;
#N canvas 531 82 335 384 collect 0;
#X obj 138 70 inlet;
#X obj 138 284 outlet;
#X obj 189 190 list;
#X obj 257 191 t l;
#X obj 138 235 list;
#X obj 189 149 list append |;
#X obj 138 136 del 0;
#X obj 138 92 t b a;
#X connect 0 0 7 0;
#X connect 2 0 3 0;
#X connect 2 0 4 1;
#X connect 3 0 2 1;
#X connect 4 0 1 0;
#X connect 5 0 2 0;
#X connect 6 0 2 1;
#X connect 6 0 4 0;
#X connect 7 0 6 0;
#X connect 7 1 5 0;
#X restore 108 129 pd collect;
#X obj 195 101 r \$0-save;
#X obj 195 123 t b f;
#N canvas 68 198 1432 552 savestates 0;
#X obj 767 137 inlet;
#X obj 26 422 savestate;
#X obj 26 398 list;
#X obj 91 422 savestate;
#X obj 91 398 list;
#X obj 157 422 savestate;
#X obj 157 398 list;
#X obj 220 420 savestate;
#X obj 220 396 list;
#X obj 283 419 savestate;
#X obj 283 395 list;
#X obj 345 418 savestate;
#X obj 345 394 list;
#X obj 409 418 savestate;
#X obj 409 394 list;
#X obj 472 421 savestate;
#X obj 472 397 list;
#X obj 537 421 savestate;
#X obj 537 397 list;
#X obj 603 421 savestate;
#X obj 603 397 list;
#X obj 666 419 savestate;
#X obj 666 395 list;
#X obj 729 418 savestate;
#X obj 729 394 list;
#X obj 791 417 savestate;
#X obj 791 393 list;
#X obj 855 417 savestate;
#X obj 855 393 list;
#X obj 922 418 savestate;
#X obj 922 394 list;
#X obj 988 418 savestate;
#X obj 988 394 list;
#X obj 1051 416 savestate;
#X obj 1051 392 list;
#X obj 1114 415 savestate;
#X obj 1114 391 list;
#X obj 1176 414 savestate;
#X obj 1176 390 list;
#X obj 1240 414 savestate;
#X obj 1240 390 list;
#X obj 767 166 route 0 1 2 3 4 5 6 7 8 9 10 11 12 13 14 15 16 17 18
19 20;
#X obj 1304 412 savestate;
#X obj 1304 388 list;
#X obj 201 64 savestate;
#X obj 201 87 t a b;
#X obj 300 119 + 1;
#X obj 201 137 list prepend;
#X obj 201 160 list trim;
#X obj 201 183 route 0 1 2 3 4 5 6 7 8 9 10 11 12 13 14 15 16 17 18
19 20;
#X obj 270 115 f;
#X connect 0 0 41 0;
#X connect 1 1 2 0;
#X connect 2 0 1 0;
#X connect 3 1 4 0;
#X connect 4 0 3 0;
#X connect 5 1 6 0;
#X connect 6 0 5 0;
#X connect 7 1 8 0;
#X connect 8 0 7 0;
#X connect 9 1 10 0;
#X connect 10 0 9 0;
#X connect 11 1 12 0;
#X connect 12 0 11 0;
#X connect 13 1 14 0;
#X connect 14 0 13 0;
#X connect 15 1 16 0;
#X connect 16 0 15 0;
#X connect 17 1 18 0;
#X connect 18 0 17 0;
#X connect 19 1 20 0;
#X connect 20 0 19 0;
#X connect 21 1 22 0;
#X connect 22 0 21 0;
#X connect 23 1 24 0;
#X connect 24 0 23 0;
#X connect 25 1 26 0;
#X connect 26 0 25 0;
#X connect 27 1 28 0;
#X connect 28 0 27 0;
#X connect 29 1 30 0;
#X connect 30 0 29 0;
#X connect 31 1 32 0;
#X connect 32 0 31 0;
#X connect 33 1 34 0;
#X connect 34 0 33 0;
#X connect 35 1 36 0;
#X connect 36 0 35 0;
#X connect 37 1 38 0;
#X connect 38 0 37 0;
#X connect 39 1 40 0;
#X connect 40 0 39 0;
#X connect 41 0 2 1;
#X connect 41 1 4 1;
#X connect 41 2 6 1;
#X connect 41 3 8 1;
#X connect 41 4 10 1;
#X connect 41 5 12 1;
#X connect 41 6 14 1;
#X connect 41 7 16 1;
#X connect 41 8 18 1;
#X connect 41 9 20 1;
#X connect 41 10 22 1;
#X connect 41 11 24 1;
#X connect 41 12 26 1;
#X connect 41 13 28 1;
#X connect 41 14 30 1;
#X connect 41 15 32 1;
#X connect 41 16 34 1;
#X connect 41 17 36 1;
#X connect 41 18 38 1;
#X connect 41 19 40 1;
#X connect 41 20 43 1;
#X connect 42 1 43 0;
#X connect 43 0 42 0;
#X connect 44 0 45 0;
#X connect 45 0 47 0;
#X connect 45 1 50 0;
#X connect 46 0 50 1;
#X connect 47 0 48 0;
#X connect 48 0 49 0;
#X connect 49 0 2 1;
#X connect 49 1 4 1;
#X connect 49 2 6 1;
#X connect 49 3 8 1;
#X connect 49 4 10 1;
#X connect 49 5 12 1;
#X connect 49 6 14 1;
#X connect 49 7 16 1;
#X connect 49 8 18 1;
#X connect 49 9 20 1;
#X connect 49 10 22 1;
#X connect 49 11 24 1;
#X connect 49 12 26 1;
#X connect 49 13 28 1;
#X connect 49 14 30 1;
#X connect 49 15 32 1;
#X connect 49 16 34 1;
#X connect 49 17 36 1;
#X connect 49 18 38 1;
#X connect 49 19 40 1;
#X connect 49 20 43 1;
#X connect 50 0 46 0;
#X connect 50 0 47 1;
#X restore 128 341 pd savestates;
#X connect 0 0 6 0;
#X connect 1 0 5 0;
#X connect 2 0 3 0;
#X connect 4 0 9 0;
#X connect 5 0 2 0;
#X connect 6 0 1 1;
#X connect 7 0 8 0;
#X connect 8 0 1 0;
#X connect 8 1 5 1;
#X restore 347 320 pd save;
#X connect 0 0 10 0;
#X connect 1 0 5 0;
#X connect 2 0 5 0;
#X connect 3 0 5 0;
#X connect 4 0 1 0;
#X connect 6 0 0 1;
#X connect 7 0 0 2;
#X connect 8 0 11 0;
#X connect 9 0 0 0;
#X connect 10 0 5 0;
#X connect 10 1 8 0;
#X connect 10 2 3 0;
#X connect 11 0 2 0;
#X connect 11 1 4 0;
#X connect 11 2 12 0;
#X restore 466 406 pd outlet-message;
#N canvas 3 50 450 300 gui 0;
#X obj 205 68 inlet~;
#X obj 206 110 snapshot~;
#X obj 206 135 t f b;
#N canvas 3 50 450 300 count 0;
#X obj 200 125 f;
#X obj 237 128 + 1;
#X obj 199 86 inlet;
#X obj 352 249 outlet;
#X msg 201 201 const 0;
#X obj 174 181 t b b;
#X msg 143 150 0;
#X obj 198 154 sel 441;
#X obj 201 222 s \$0-scope;
#X connect 0 0 1 0;
#X connect 0 0 7 0;
#X connect 1 0 0 1;
#X connect 2 0 0 0;
#X connect 4 0 8 0;
#X connect 5 0 6 0;
#X connect 5 1 4 0;
#X connect 6 0 0 0;
#X connect 7 0 5 0;
#X connect 7 1 3 0;
#X restore 304 174 pd count;
#X obj 276 -1 r \$0-visbng;
#X obj 276 20 t b;
#X obj 276 83 metro 10;
#X obj 206 199 tabwrite \$0-scope;
#X obj 276 59 tgl 15 0 empty empty empty 17 7 0 10 -262144 -1 -1 0
1;
#X msg 276 39 1;
#X connect 0 0 1 0;
#X connect 1 0 2 0;
#X connect 2 0 7 0;
#X connect 2 1 3 0;
#X connect 3 0 7 1;
#X connect 4 0 5 0;
#X connect 5 0 9 0;
#X connect 6 0 1 0;
#X connect 8 0 6 0;
#X connect 9 0 8 0;
#X restore 350 426 pd gui;
#X text 545 621 philipp schmalfuß \, 2018;
#N canvas 707 145 390 234 in 0;
#X obj 20 13 inlet;
#X obj 20 97 route frequency steps smooth;
#X obj 20 118 s \$0-freqr;
#X obj 98 128 s \$0-stepsr;
#X obj 130 151 s \$0-lopr;
#N canvas 937 111 450 300 recall 0;
#N canvas 156 162 1004 423 recall 0;
#X obj 106 5 savestate;
#X obj 106 28 t a b;
#X obj 205 60 + 1;
#X obj 106 78 list prepend;
#X obj 106 101 list trim;
#X obj 95 275 list;
#X obj 130 275 list;
#X obj 166 275 list;
#X obj 202 275 list;
#X obj 240 275 list;
#X obj 275 275 list;
#X obj 311 275 list;
#X obj 440 380 outlet;
#X obj 30 78 r \$0-lists;
#X obj 500 43 inlet;
#X obj 345 275 list;
#X obj 380 275 list;
#X obj 416 275 list;
#X obj 453 275 list;
#X obj 490 275 list;
#X obj 525 275 list;
#X obj 561 275 list;
#X obj 594 275 list;
#X obj 630 275 list;
#X obj 667 275 list;
#X obj 704 275 list;
#X obj 739 275 list;
#X obj 775 275 list;
#X obj 106 124 route 0 1 2 3 4 5 6 7 8 9 10 11 12 13 14 15 16 17 18
19 20;
#X obj 500 121 sel 0 1 2 3 4 5 6 7 8 9 10 11 12 13 14 15 16 17 18 19
20;
#X obj 812 275 list;
#X obj 175 56 f;
#X connect 0 0 1 0;
#X connect 1 0 3 0;
#X connect 1 1 31 0;
#X connect 2 0 31 1;
#X connect 3 0 4 0;
#X connect 4 0 28 0;
#X connect 5 0 12 0;
#X connect 6 0 12 0;
#X connect 7 0 12 0;
#X connect 8 0 12 0;
#X connect 9 0 12 0;
#X connect 10 0 12 0;
#X connect 11 0 12 0;
#X connect 13 0 28 0;
#X connect 14 0 29 0;
#X connect 15 0 12 0;
#X connect 16 0 12 0;
#X connect 17 0 12 0;
#X connect 18 0 12 0;
#X connect 19 0 12 0;
#X connect 20 0 12 0;
#X connect 21 0 12 0;
#X connect 22 0 12 0;
#X connect 23 0 12 0;
#X connect 24 0 12 0;
#X connect 25 0 12 0;
#X connect 26 0 12 0;
#X connect 27 0 12 0;
#X connect 28 0 5 1;
#X connect 28 1 6 1;
#X connect 28 2 7 1;
#X connect 28 3 8 1;
#X connect 28 4 9 1;
#X connect 28 5 10 1;
#X connect 28 6 11 1;
#X connect 28 7 15 1;
#X connect 28 8 16 1;
#X connect 28 9 17 1;
#X connect 28 10 18 1;
#X connect 28 11 19 1;
#X connect 28 12 20 1;
#X connect 28 13 21 1;
#X connect 28 14 22 1;
#X connect 28 15 23 1;
#X connect 28 16 24 1;
#X connect 28 17 25 1;
#X connect 28 18 26 1;
#X connect 28 19 27 1;
#X connect 28 20 30 1;
#X connect 29 0 5 0;
#X connect 29 1 6 0;
#X connect 29 2 7 0;
#X connect 29 3 8 0;
#X connect 29 4 9 0;
#X connect 29 5 10 0;
#X connect 29 6 11 0;
#X connect 29 7 15 0;
#X connect 29 8 16 0;
#X connect 29 9 17 0;
#X connect 29 10 18 0;
#X connect 29 11 19 0;
#X connect 29 12 20 0;
#X connect 29 13 21 0;
#X connect 29 14 22 0;
#X connect 29 15 23 0;
#X connect 29 16 24 0;
#X connect 29 17 25 0;
#X connect 29 18 26 0;
#X connect 29 19 27 0;
#X connect 29 20 30 0;
#X connect 30 0 12 0;
#X connect 31 0 2 0;
#X connect 31 0 3 1;
#X restore 128 85 pd recall;
#X obj 128 130 outlet;
#N canvas 3 52 450 600 listsplit 0;
#X obj 158 23 inlet;
#X obj 220 87 list length;
#X obj 220 113 until;
#X obj 182 150 f;
#X obj 278 150 + 1;
#X msg 265 111 0;
#X obj 182 226 list store;
#X msg 182 202 get \$1 1;
#X obj 154 367 list split;
#X obj 222 342 f;
#X obj 154 334 list;
#X obj 98 124 list;
#X obj 182 389 list split 1;
#X obj 154 274 t bang bang bang;
#X obj 182 179 t f f;
#X obj 158 48 t l l l b;
#X obj 154 473 outlet;
#X obj 154 440 list trim;
#X obj 163 248 sel |;
#X connect 0 0 15 0;
#X connect 1 0 2 0;
#X connect 2 0 3 0;
#X connect 3 0 4 0;
#X connect 3 0 14 0;
#X connect 4 0 3 1;
#X connect 5 0 3 1;
#X connect 6 0 18 0;
#X connect 7 0 6 0;
#X connect 8 0 17 0;
#X connect 8 1 12 0;
#X connect 9 0 8 1;
#X connect 10 0 8 0;
#X connect 11 0 15 0;
#X connect 12 1 11 0;
#X connect 13 0 10 0;
#X connect 13 1 9 0;
#X connect 13 2 2 1;
#X connect 14 0 7 0;
#X connect 14 1 9 1;
#X connect 15 0 1 0;
#X connect 15 1 10 1;
#X connect 15 2 6 1;
#X connect 15 3 5 0;
#X connect 17 0 16 0;
#X connect 18 0 13 0;
#X restore 128 107 pd listsplit;
#X obj 128 25 r \$0-recall;
#X obj 128 55 pipe 1;
#X connect 0 0 2 0;
#X connect 2 0 1 0;
#X connect 3 0 4 0;
#X connect 4 0 0 0;
#X restore 105 64 pd recall;
#N canvas 698 546 200 251 route 0;
#X obj 20 20 inlet;
#X obj 30 60 route save recall;
#X obj 30 85 route float;
#X obj 97 111 route float;
#X obj 30 136 s \$0-save;
#X obj 30 108 i;
#X obj 98 133 i;
#X obj 98 161 s \$0-recall;
#X connect 0 0 1 0;
#X connect 1 0 2 0;
#X connect 1 1 3 0;
#X connect 2 0 5 0;
#X connect 3 0 6 0;
#X connect 5 0 4 0;
#X connect 6 0 7 0;
#X restore 43 43 pd route save-recall;
#X connect 0 0 1 0;
#X connect 0 0 6 0;
#X connect 1 0 2 0;
#X connect 1 1 3 0;
#X connect 1 2 4 0;
#X connect 5 0 1 0;
#X restore 465 101 pd in;
#X connect 0 0 6 0;
#X connect 0 0 24 0;
#X connect 1 0 0 1;
#X connect 2 0 1 0;
#X connect 2 1 1 1;
#X connect 3 0 4 1;
#X connect 4 0 0 0;
#X connect 5 0 4 0;
#X connect 7 0 8 0;
#X connect 8 0 5 0;
#X connect 8 0 11 0;
#X connect 9 0 7 1;
#X connect 9 0 1 0;
#X connect 10 0 14 0;
#X connect 11 0 3 0;
#X connect 12 0 7 0;
#X connect 13 0 17 0;
#X connect 14 0 15 0;
#X connect 15 0 16 0;
#X connect 16 0 2 0;
#X connect 17 0 11 1;
#X connect 21 0 26 0;
#X connect 23 0 22 0;
#X coords 0 -1 1 1 100 33 1 100 100;
