#N canvas 21 2 1275 589 10;
#N canvas 522 2 747 540 ladder 0;
#X obj 109 34 inlet~;
#N canvas 1 57 450 437 lp1 0;
#X obj 114 120 -~;
#X obj 113 148 *~;
#X obj 113 202 +~;
#X obj 41 245 +~;
#X obj 113 42 inlet~;
#X obj 113 370 outlet~;
#X obj 315 60 inlet~;
#X obj 155 75 delread~ \$0-z1;
#X obj 41 336 delwrite~ \$0-z1;
#X connect 0 0 1 0;
#X connect 1 0 2 0;
#X connect 1 0 3 0;
#X connect 2 0 3 1;
#X connect 2 0 5 0;
#X connect 3 0 8 0;
#X connect 4 0 0 0;
#X connect 6 0 1 1;
#X connect 7 0 0 1;
#X connect 7 0 2 1;
#X restore 314 355 pd lp1;
#X obj 212 486 outlet~;
#N canvas 557 155 537 492 S 0;
#X obj 129 21 inlet~;
#X obj 63 73 *~;
#X obj 63 118 *~;
#X obj 89 119 delread~ \$0-z0;
#X obj 63 97 *~;
#X obj 187 117 *~;
#X obj 187 96 *~;
#X obj 213 118 delread~ \$0-z1;
#X obj 311 119 *~;
#X obj 337 120 delread~ \$0-z2;
#X obj 439 120 delread~ \$0-z3;
#X obj 108 351 outlet~;
#X obj 108 327 +~;
#X obj 91 296 +~;
#X obj 64 261 +~;
#X connect 0 0 1 0;
#X connect 0 0 1 1;
#X connect 0 0 4 1;
#X connect 0 0 6 0;
#X connect 0 0 6 1;
#X connect 0 0 8 0;
#X connect 1 0 4 0;
#X connect 2 0 14 0;
#X connect 3 0 2 1;
#X connect 4 0 2 0;
#X connect 5 0 14 1;
#X connect 6 0 5 0;
#X connect 7 0 5 1;
#X connect 8 0 13 1;
#X connect 9 0 8 1;
#X connect 10 0 12 1;
#X connect 12 0 11 0;
#X connect 13 0 12 0;
#X connect 14 0 13 0;
#X restore 134 126 pd S;
#X obj 134 157 *~;
#N canvas 660 164 450 479 lp0 0;
#X obj 114 120 -~;
#X obj 113 148 *~;
#X obj 113 202 +~;
#X obj 28 229 +~;
#X obj 113 42 inlet~;
#X obj 114 394 outlet~;
#X obj 329 36 inlet~;
#X obj 150 79 delread~ \$0-z0;
#X obj 29 257 delwrite~ \$0-z0;
#X connect 0 0 1 0;
#X connect 1 0 2 0;
#X connect 1 0 3 0;
#X connect 2 0 3 1;
#X connect 2 0 5 0;
#X connect 3 0 8 0;
#X connect 4 0 0 0;
#X connect 6 0 1 1;
#X connect 7 0 0 1;
#X connect 7 0 2 1;
#X restore 314 320 pd lp0;
#N canvas 1 57 450 486 lp2 0;
#X obj 114 120 -~;
#X obj 113 148 *~;
#X obj 113 202 +~;
#X obj 41 245 +~;
#X obj 113 42 inlet~;
#X obj 113 398 outlet~;
#X obj 327 54 inlet~;
#X obj 161 74 delread~ \$0-z2;
#X obj 40 340 delwrite~ \$0-z2;
#X connect 0 0 1 0;
#X connect 1 0 2 0;
#X connect 1 0 3 0;
#X connect 2 0 3 1;
#X connect 2 0 5 0;
#X connect 3 0 8 0;
#X connect 4 0 0 0;
#X connect 6 0 1 1;
#X connect 7 0 0 1;
#X connect 7 0 2 1;
#X restore 314 389 pd lp2;
#N canvas 1 57 450 503 lp3 0;
#X obj 114 120 -~;
#X obj 113 148 *~;
#X obj 113 202 +~;
#X obj 41 245 +~;
#X obj 113 42 inlet~;
#X obj 113 382 outlet~;
#X obj 332 59 inlet~;
#X obj 158 78 delread~ \$0-z3;
#X obj 40 339 delwrite~ \$0-z3;
#X connect 0 0 1 0;
#X connect 1 0 2 0;
#X connect 1 0 3 0;
#X connect 2 0 3 1;
#X connect 2 0 5 0;
#X connect 3 0 8 0;
#X connect 4 0 0 0;
#X connect 6 0 1 1;
#X connect 7 0 0 1;
#X connect 7 0 2 1;
#X restore 314 429 pd lp3;
#X obj 108 232 -~;
#X obj 109 486 outlet~;
#X obj 160 486 outlet~;
#X obj 347 28 inlet~;
#X obj 454 28 inlet~;
#N canvas 64 51 587 339 nonlinear 0;
#X obj 114 39 inlet~;
#X obj 111 270 outlet~;
#N canvas 1 2 450 300 hardclip 0;
#X obj 104 77 inlet~;
#X obj 104 100 clip~ -1 1;
#X obj 104 123 outlet~;
#X obj 270 18 r \$0-clip-func;
#X obj 270 64 switch~;
#X obj 270 41 == 2;
#X connect 0 0 1 0;
#X connect 1 0 2 0;
#X connect 3 0 5 0;
#X connect 5 0 4 0;
#X restore 269 172 pd hardclip;
#N canvas 1 2 450 300 algebraic 0;
#X obj 104 86 inlet~;
#X obj 103 221 outlet~;
#X obj 270 18 r \$0-clip-func;
#X obj 270 41 == 0;
#X obj 131 122 pow~ 2;
#X obj 131 145 +~ 1;
#X obj 131 168 sqrt~;
#X obj 103 192 /~;
#X obj 270 64 switch~;
#X connect 0 0 4 0;
#X connect 0 0 7 0;
#X connect 2 0 3 0;
#X connect 3 0 8 0;
#X connect 4 0 5 0;
#X connect 5 0 6 0;
#X connect 6 0 7 1;
#X connect 7 0 1 0;
#X restore 112 171 pd algebraic;
#N canvas 1 2 450 300 logistic 0;
#X obj 104 79 inlet~;
#X obj 106 197 outlet~;
#X obj 270 18 r \$0-clip-func;
#X obj 270 64 switch~;
#X obj 270 41 == 1;
#X obj 131 116 abs~;
#X obj 105 163 /~;
#X obj 131 139 +~ 1;
#X connect 0 0 5 0;
#X connect 0 0 6 0;
#X connect 2 0 4 0;
#X connect 4 0 3 0;
#X connect 5 0 7 0;
#X connect 6 0 1 0;
#X connect 7 0 6 1;
#X restore 192 172 pd logistic;
#X obj 113 110 *~;
#X obj 280 45 inlet~;
#X connect 0 0 5 0;
#X connect 2 0 1 0;
#X connect 3 0 1 0;
#X connect 4 0 1 0;
#X connect 5 0 4 0;
#X connect 5 0 2 0;
#X connect 5 0 3 0;
#X connect 6 0 5 1;
#X restore 109 261 pd nonlinear;
#X obj 314 486 outlet~;
#X obj 263 486 outlet~;
#X text 391 30 freq;
#X text 500 27 q;
#X obj 601 170 block~ 1 1 2;
#X obj 552 29 inlet~;
#X text 600 28 saturation;
#X connect 0 0 8 0;
#X connect 1 0 6 0;
#X connect 1 0 2 0;
#X connect 3 0 4 0;
#X connect 4 0 8 1;
#X connect 5 0 1 0;
#X connect 5 0 10 0;
#X connect 6 0 7 0;
#X connect 6 0 15 0;
#X connect 7 0 14 0;
#X connect 8 0 13 0;
#X connect 11 0 3 0;
#X connect 11 0 5 1;
#X connect 11 0 1 1;
#X connect 11 0 6 1;
#X connect 11 0 7 1;
#X connect 12 0 4 1;
#X connect 13 0 5 0;
#X connect 13 0 9 0;
#X connect 19 0 13 1;
#X restore 347 325 pd ladder;
#X f 37;
#N canvas 1 2 450 584 wrap 0;
#X obj 242 52 samplerate~;
#X obj 242 77 expr 1/$f1;
#X obj 240 387 -~;
#X obj 240 364 sig~ 1;
#X obj 240 433 *~;
#X obj 105 21 inlet~;
#X text 148 22 freq;
#X obj 366 24 inlet~;
#X text 409 24 q;
#X obj 241 477 outlet~;
#X obj 141 475 outlet~;
#X obj 242 27 r pd-dsp-started;
#X obj 105 68 *~ 3.14159;
#X obj 142 95 *~;
#X obj 142 118 *~ 0.5;
#X obj 143 144 expr~ tan($v1);
#X obj 173 167 expr 2/$f1;
#X obj 143 167 *~;
#X obj 142 207 *~;
#X obj 167 249 +~ 1;
#X obj 141 248 /~;
#X obj 171 206 / 2;
#X connect 0 0 1 0;
#X connect 1 0 13 1;
#X connect 1 0 16 0;
#X connect 1 0 21 0;
#X connect 2 0 4 0;
#X connect 3 0 2 0;
#X connect 4 0 9 0;
#X connect 5 0 12 0;
#X connect 7 0 4 1;
#X connect 11 0 0 0;
#X connect 12 0 13 0;
#X connect 13 0 14 0;
#X connect 14 0 15 0;
#X connect 15 0 17 0;
#X connect 16 0 17 1;
#X connect 17 0 18 0;
#X connect 18 0 19 0;
#X connect 18 0 20 0;
#X connect 19 0 20 1;
#X connect 20 0 2 1;
#X connect 20 0 10 0;
#X connect 21 0 18 1;
#X restore 458 238 pd wrap cutoff;
#X f 20;
#X obj 1076 51 inlet;
#N canvas 714 2 452 399 in 0;
#X obj 70 10 inlet;
#X obj 70 149 s \$0-filtertyper;
#X msg 70 117 0;
#X msg 98 119 1;
#X msg 130 119 2;
#X obj 72 219 s \$0-freqr;
#X obj 127 243 s \$0-resonancer;
#N canvas 698 546 200 251 route 0;
#X obj 20 20 inlet;
#X obj 30 60 route save recall;
#X obj 30 85 route float;
#X obj 97 111 route float;
#X obj 30 136 s \$0-save;
#X obj 30 108 i;
#X obj 98 133 i;
#X obj 98 161 s \$0-recall;
#X connect 0 0 1 0;
#X connect 1 0 2 0;
#X connect 1 1 3 0;
#X connect 2 0 5 0;
#X connect 3 0 6 0;
#X connect 5 0 4 0;
#X connect 6 0 7 0;
#X restore 162 36 pd route save-recall;
#N canvas 362 125 450 479 recall 0;
#X obj 49 145 outlet;
#N canvas 3 54 450 600 listsplit 0;
#X obj 158 23 inlet;
#X obj 220 87 list length;
#X obj 220 113 until;
#X obj 182 150 f;
#X obj 278 150 + 1;
#X msg 265 111 0;
#X obj 182 226 list store;
#X msg 182 202 get \$1 1;
#X obj 154 367 list split;
#X obj 222 342 f;
#X obj 154 334 list;
#X obj 98 124 list;
#X obj 182 389 list split 1;
#X obj 154 274 t bang bang bang;
#X obj 182 179 t f f;
#X obj 158 48 t l l l b;
#X obj 154 473 outlet;
#X obj 154 440 list trim;
#X obj 163 248 sel |;
#X text 275 197 hacky split list at "|";
#X connect 0 0 15 0;
#X connect 1 0 2 0;
#X connect 2 0 3 0;
#X connect 3 0 4 0;
#X connect 3 0 14 0;
#X connect 4 0 3 1;
#X connect 5 0 3 1;
#X connect 6 0 18 0;
#X connect 7 0 6 0;
#X connect 8 0 17 0;
#X connect 8 1 12 0;
#X connect 9 0 8 1;
#X connect 10 0 8 0;
#X connect 11 0 15 0;
#X connect 12 1 11 0;
#X connect 13 0 10 0;
#X connect 13 1 9 0;
#X connect 13 2 2 1;
#X connect 14 0 7 0;
#X connect 14 1 9 1;
#X connect 15 0 1 0;
#X connect 15 1 10 1;
#X connect 15 2 6 1;
#X connect 15 3 5 0;
#X connect 17 0 16 0;
#X connect 18 0 13 0;
#X restore 49 117 pd listsplit;
#X obj 49 24 r \$0-recall;
#X obj 49 54 pipe 1;
#X obj 221 409 text fromlist \$0-savestates;
#X obj 49 77 text get \$0-savestates;
#X msg 253 246 21;
#X obj 253 269 until;
#X obj 253 292 f;
#X obj 300 295 + 1;
#X obj 253 315 t b f;
#X obj 253 367 text set \$0-savestates;
#X obj 221 114 text tolist \$0-savestates;
#X msg 253 342 list empty_slot;
#X obj 221 160 t a b;
#X obj 151 166 loadbang;
#X obj 221 137 savestate;
#X obj 221 33 text define \$0-savestates;
#X obj 151 189 del 0;
#X msg 298 199 0;
#X obj 253 220 spigot 1;
#X connect 1 0 0 0;
#X connect 2 0 3 0;
#X connect 3 0 5 0;
#X connect 5 0 1 0;
#X connect 6 0 7 0;
#X connect 7 0 8 0;
#X connect 8 0 9 0;
#X connect 8 0 10 0;
#X connect 9 0 8 1;
#X connect 10 0 13 0;
#X connect 10 1 11 1;
#X connect 12 0 16 0;
#X connect 13 0 11 0;
#X connect 14 0 4 0;
#X connect 14 1 19 0;
#X connect 15 0 18 0;
#X connect 16 0 14 0;
#X connect 16 1 12 0;
#X connect 18 0 20 0;
#X connect 19 0 20 1;
#X connect 20 0 6 0;
#X restore 161 58 pd recall;
#X obj 295 238 i;
#X obj 295 261 s \$0-clip-func;
#X obj 240 345 s \$0-satr;
#X obj 183 294 s \$0-sloper;
#X obj 70 91 route lowpass highpass bandpass;
#X obj 72 191 route frequency resonance slope saturation func;
#X obj 183 271 clip 0 1;
#X obj 295 218 clip 0 2;
#X obj 240 324 max 0;
#X connect 0 0 7 0;
#X connect 0 0 13 0;
#X connect 2 0 1 0;
#X connect 3 0 1 0;
#X connect 4 0 1 0;
#X connect 8 0 13 0;
#X connect 9 0 10 0;
#X connect 13 0 2 0;
#X connect 13 1 3 0;
#X connect 13 2 4 0;
#X connect 13 3 14 0;
#X connect 14 0 5 0;
#X connect 14 1 6 0;
#X connect 14 2 15 0;
#X connect 14 3 17 0;
#X connect 14 4 16 0;
#X connect 15 0 12 0;
#X connect 16 0 9 0;
#X connect 17 0 11 0;
#X restore 1076 72 pd in;
#X obj 1074 507 outlet;
#X obj 103 115 hsl 150 15 0 127 0 0 \$0-visbng \$0-visbngr Lowpass 50 8 2 10 #e0e0e0 #e0e0e0 #000000 0 1;
#N canvas 50 70 235 150 \$0-ladder 0;
#N canvas 124 21 478 326 mask 0;
#X obj 100 100 cnv 15 219 139 empty empty empty 20 12 0 14 #fcfcfc #404040 0;
#X obj 107 108 hradio 11 1 0 3 \$0-filtertype \$0-filtertyper Lowpass 39 6 2 10 #fcfcfc #000000 #000000 0;
#X obj 110 137 hsl 128 12 0 135.076 0 0 \$0-fgui \$0-fguir Frequency -2 -6 2 10 #fcfcfc #000000 #000000 0 1;
#X obj 244 137 nbx 5 12 0 20050 0 0 \$0-freq \$0-freqr hz 47 7 2 10 #fcfcfc #000000 #000000 0 256;
#N canvas 1 57 450 300 map 0;
#X obj 103 37 inlet;
#X obj 192 54 inlet;
#X obj 103 173 outlet;
#X obj 192 127 outlet;
#X obj 103 76 mtof;
#X obj 103 127 i;
#X obj 192 81 ftom;
#X msg 192 102 set \$1;
#X msg 103 153 set \$1;
#X obj 62 207 s \$0-freq;
#X obj 103 98 + 0.5;
#X connect 0 0 4 0;
#X connect 1 0 6 0;
#X connect 4 0 10 0;
#X connect 5 0 8 0;
#X connect 5 0 9 0;
#X connect 6 0 7 0;
#X connect 7 0 3 0;
#X connect 8 0 2 0;
#X connect 10 0 5 0;
#X restore 47 135 pd map;
#X obj 110 167 hsl 128 12 0 5 0 0 \$0-resonancegui \$0-resonanceguir Resonance -2 -7 2 10 #ffe3c6 #000000 #000000 0 1;
#X obj 244 167 nbx 5 12 -99 100 0 0 \$0-resonance \$0-resonancer empty 47 7 2 10 #ffe3c6 #000000 #000000 0 256;
#X obj 239 113 cnv 10 10 10 empty empty ladder~ 0 5 2 14 #fcfcfc #9c9c9c 0;
#X msg 43 163 set \$1;
#X obj 110 223 hsl 128 12 0 1 0 0 \$0-slopegui \$0-slopeguir Slope -2 -7 2 10 #fcfcfc #000000 #000000 0 1;
#X obj 244 223 nbx 5 12 0 1 0 0 \$0-slope \$0-sloper empty 47 7 2 10 #fcfcfc #000000 #000000 0 256;
#X msg 47 216 set \$1;
#X obj 110 195 hsl 128 12 0 5 0 0 \$0-satgui \$0-satguir Saturation -2 -7 2 10 #ffe3c6 #000000 #000000 0 1;
#X obj 244 195 nbx 5 12 0 100 0 0 \$0-sat \$0-satr empty 47 7 2 10 #ffe3c6 #000000 #000000 0 256;
#X msg 47 188 set \$1;
#X connect 2 0 4 0;
#X connect 3 0 4 1;
#X connect 4 0 3 0;
#X connect 4 1 2 0;
#X connect 5 0 6 0;
#X connect 6 0 8 0;
#X connect 8 0 5 0;
#X connect 9 0 10 0;
#X connect 10 0 11 0;
#X connect 11 0 9 0;
#X connect 12 0 13 0;
#X connect 13 0 14 0;
#X connect 14 0 12 0;
#X coords 0 -1 1 1 220 140 2 100 100;
#X restore 7 4 pd mask;
#X restore 1074 215 pd \$0-ladder;
#N canvas 298 2 716 596 stuff 0;
#X obj 236 103 r \$0-filtertype;
#X obj 236 258 s \$0-filtertyper;
#X msg 236 146 Lowpass;
#X msg 250 167 Highpass;
#X obj 236 216 symbol;
#X msg 236 237 label \$1;
#X obj 43 148 pack 0 \$0;
#X obj 43 65 symbol \$1;
#X msg 43 108 0;
#X msg 71 109 1;
#X msg 103 109 2;
#X obj 252 282 s \$0-visbngr;
#X obj 103 359 s \$0-visbngr;
#X obj 85 254 r \$0-visbng;
#X msg 83 331 color 0 0;
#X msg 167 331 color 10 10;
#X obj 85 276 t b;
#X obj 165 306 del 250;
#X obj 160 111 t b;
#X obj 236 125 sel 0 1 2;
#X obj 49 408 s pd-\$0-ladder;
#X msg 43 169 \; \$2-filtertyper \$1 \;;
#X obj 108 17 loadbang;
#X msg 108 40 0;
#X obj 108 63 s \$0-clip-func;
#X obj 200 63 s \$0-sloper;
#X obj 43 86 sel lowpass highpass bandpass;
#X msg 268 191 Bandpass;
#X msg 200 42 0;
#X msg 49 386 relocate 235x150+1+1 1x1+50+70 \, vis 1 \, editmode 0;
#X connect 0 0 19 0;
#X connect 2 0 4 0;
#X connect 3 0 4 0;
#X connect 4 0 5 0;
#X connect 5 0 1 0;
#X connect 5 0 11 0;
#X connect 6 0 21 0;
#X connect 7 0 26 0;
#X connect 8 0 6 0;
#X connect 9 0 6 0;
#X connect 10 0 6 0;
#X connect 13 0 16 0;
#X connect 14 0 12 0;
#X connect 15 0 12 0;
#X connect 16 0 14 0;
#X connect 16 0 17 0;
#X connect 16 0 29 0;
#X connect 17 0 15 0;
#X connect 18 0 6 0;
#X connect 19 0 2 0;
#X connect 19 1 3 0;
#X connect 19 2 27 0;
#X connect 22 0 23 0;
#X connect 22 0 28 0;
#X connect 22 0 7 0;
#X connect 23 0 24 0;
#X connect 26 0 8 0;
#X connect 26 1 9 0;
#X connect 26 2 10 0;
#X connect 26 3 18 0;
#X connect 27 0 4 0;
#X connect 28 0 25 0;
#X connect 29 0 20 0;
#X restore 1074 238 pd stuff;
#X obj 458 65 pack f 20;
#X obj 458 90 line~;
#X obj 627 88 pack f 20;
#X obj 627 117 line~;
#X obj 458 44 r \$0-freq;
#X obj 627 44 r \$0-resonance;
#X obj 457 132 +~;
#X obj 627 164 +~;
#N canvas 1 57 450 300 samplerate 0;
#X obj 230 123 outlet;
#X obj 268 72 loadbang;
#X obj 230 96 samplerate~;
#X obj 230 52 r pd-dsp-started;
#X connect 1 0 2 0;
#X connect 2 0 0 0;
#X connect 3 0 2 0;
#X restore 533 118 pd samplerate;
#X obj 533 139 / 2;
#X obj 544 53 inlet~;
#X text 587 53 freq;
#X obj 726 58 inlet~;
#X obj 458 165 clip~ 0 20050;
#X obj 627 65 clip 0 100;
#X obj 347 56 inlet~;
#X obj 346 525 outlet~;
#X obj 289 268 noise~;
#X obj 289 291 *~ 1e-12;
#N canvas 496 2 869 654 polemixer 0;
#X obj 72 98 inlet~;
#X obj 139 99 inlet~;
#X obj 215 100 inlet~;
#X obj 296 100 inlet~;
#X obj 73 387 outlet~;
#X obj 370 100 inlet~;
#N canvas 358 93 903 468 lop 0;
#X obj 137 50 inlet~;
#X obj 211 53 inlet~;
#X obj 294 52 inlet~;
#X obj 368 51 inlet~;
#X obj 151 196 min~ 2;
#X obj 150 172 max~ 1;
#X obj 172 228 *~ -1;
#X obj 172 249 +~ 2;
#X obj 151 273 min~;
#X obj 228 170 max~ 1;
#X obj 228 192 -~ 1;
#X obj 228 215 min~ 2;
#X obj 253 235 *~ -1;
#X obj 253 255 +~ 2;
#X obj 228 275 min~;
#X obj 309 171 max~ 2;
#X obj 309 191 -~ 2;
#X obj 309 211 min~ 2;
#X obj 334 231 *~ -1;
#X obj 334 251 +~ 2;
#X obj 309 271 min~;
#X obj 382 170 max~ 3;
#X obj 382 190 -~ 3;
#X obj 382 210 min~ 2;
#X obj 407 230 *~ -1;
#X obj 407 250 +~ 2;
#X obj 382 270 min~;
#X obj 137 297 *~;
#X obj 212 300 *~;
#X obj 295 297 *~;
#X obj 367 294 *~;
#X obj 434 53 inlet~;
#X obj 138 390 outlet~;
#X obj 636 60 r \$0-filtertype;
#X obj 636 83 == 0;
#X obj 636 106 switch~;
#X connect 0 0 27 0;
#X connect 1 0 28 0;
#X connect 2 0 29 0;
#X connect 3 0 30 0;
#X connect 4 0 6 0;
#X connect 4 0 8 0;
#X connect 5 0 4 0;
#X connect 6 0 7 0;
#X connect 7 0 8 1;
#X connect 8 0 27 1;
#X connect 9 0 10 0;
#X connect 10 0 11 0;
#X connect 11 0 12 0;
#X connect 11 0 14 0;
#X connect 12 0 13 0;
#X connect 13 0 14 1;
#X connect 14 0 28 1;
#X connect 15 0 16 0;
#X connect 16 0 17 0;
#X connect 17 0 18 0;
#X connect 17 0 20 0;
#X connect 18 0 19 0;
#X connect 19 0 20 1;
#X connect 20 0 29 1;
#X connect 21 0 22 0;
#X connect 22 0 23 0;
#X connect 23 0 24 0;
#X connect 23 0 26 0;
#X connect 24 0 25 0;
#X connect 25 0 26 1;
#X connect 26 0 30 1;
#X connect 27 0 32 0;
#X connect 28 0 32 0;
#X connect 29 0 32 0;
#X connect 30 0 32 0;
#X connect 31 0 5 0;
#X connect 31 0 9 0;
#X connect 31 0 15 0;
#X connect 31 0 21 0;
#X connect 33 0 34 0;
#X connect 34 0 35 0;
#X restore 198 311 pd lop;
#X f 13;
#N canvas 293 84 903 547 hip 0;
#X obj 137 54 inlet~;
#X obj 211 53 inlet~;
#X obj 294 54 inlet~;
#X obj 368 52 inlet~;
#X obj 151 196 min~ 2;
#X obj 150 172 max~ 1;
#X obj 172 228 *~ -1;
#X obj 172 249 +~ 2;
#X obj 151 273 min~;
#X obj 228 170 max~ 1;
#X obj 228 192 -~ 1;
#X obj 228 215 min~ 2;
#X obj 253 235 *~ -1;
#X obj 253 255 +~ 2;
#X obj 228 275 min~;
#X obj 309 171 max~ 2;
#X obj 309 191 -~ 2;
#X obj 309 211 min~ 2;
#X obj 334 231 *~ -1;
#X obj 334 251 +~ 2;
#X obj 309 271 min~;
#X obj 382 170 max~ 3;
#X obj 382 190 -~ 3;
#X obj 382 210 min~ 2;
#X obj 407 230 *~ -1;
#X obj 407 250 +~ 2;
#X obj 382 270 min~;
#X obj 137 297 *~;
#X obj 212 300 *~;
#X obj 295 297 *~;
#X obj 367 294 *~;
#X obj 434 53 inlet~;
#X obj 418 112 -~;
#X obj 418 89 sig~ 3;
#X obj 78 449 outlet~;
#X obj 78 51 inlet~;
#X obj 78 411 -~;
#X obj 636 60 r \$0-filtertype;
#X obj 636 106 switch~;
#X obj 636 83 == 1;
#X connect 0 0 27 0;
#X connect 1 0 28 0;
#X connect 2 0 29 0;
#X connect 3 0 30 0;
#X connect 4 0 6 0;
#X connect 4 0 8 0;
#X connect 5 0 4 0;
#X connect 6 0 7 0;
#X connect 7 0 8 1;
#X connect 8 0 27 1;
#X connect 9 0 10 0;
#X connect 10 0 11 0;
#X connect 11 0 12 0;
#X connect 11 0 14 0;
#X connect 12 0 13 0;
#X connect 13 0 14 1;
#X connect 14 0 28 1;
#X connect 15 0 16 0;
#X connect 16 0 17 0;
#X connect 17 0 18 0;
#X connect 17 0 20 0;
#X connect 18 0 19 0;
#X connect 19 0 20 1;
#X connect 20 0 29 1;
#X connect 21 0 22 0;
#X connect 22 0 23 0;
#X connect 23 0 24 0;
#X connect 23 0 26 0;
#X connect 24 0 25 0;
#X connect 25 0 26 1;
#X connect 26 0 30 1;
#X connect 27 0 36 1;
#X connect 28 0 36 1;
#X connect 29 0 36 1;
#X connect 30 0 36 1;
#X connect 31 0 32 1;
#X connect 32 0 21 0;
#X connect 32 0 15 0;
#X connect 32 0 9 0;
#X connect 32 0 5 0;
#X connect 33 0 32 0;
#X connect 35 0 36 0;
#X connect 36 0 34 0;
#X connect 37 0 39 0;
#X connect 39 0 38 0;
#X restore 72 311 pd hip;
#X f 13;
#N canvas 462 2 903 468 bp 0;
#X obj 137 53 inlet~;
#X obj 211 53 inlet~;
#X obj 294 52 inlet~;
#X obj 368 51 inlet~;
#X obj 151 196 min~ 2;
#X obj 150 172 max~ 1;
#X obj 172 228 *~ -1;
#X obj 172 249 +~ 2;
#X obj 151 273 min~;
#X obj 228 170 max~ 1;
#X obj 228 192 -~ 1;
#X obj 228 215 min~ 2;
#X obj 253 235 *~ -1;
#X obj 253 255 +~ 2;
#X obj 228 275 min~;
#X obj 309 211 min~ 2;
#X obj 334 231 *~ -1;
#X obj 334 251 +~ 2;
#X obj 309 271 min~;
#X obj 137 297 *~;
#X obj 212 300 *~;
#X obj 295 297 *~;
#X obj 367 294 *~;
#X obj 434 53 inlet~;
#X obj 138 407 outlet~;
#X obj 137 361 -~;
#X obj 309 171 max~ 1;
#X obj 309 191 -~ 1;
#X obj 387 192 min~ 2;
#X obj 386 168 max~ 1;
#X obj 408 224 *~ -1;
#X obj 408 245 +~ 2;
#X obj 387 269 min~;
#X obj 636 60 r \$0-filtertype;
#X obj 636 106 switch~;
#X obj 636 83 == 2;
#X obj 434 75 -~ 1;
#X obj 434 98 *~ 0.5;
#X obj 434 121 +~ 1;
#X connect 0 0 19 0;
#X connect 1 0 20 0;
#X connect 2 0 21 0;
#X connect 3 0 22 0;
#X connect 4 0 6 0;
#X connect 4 0 8 0;
#X connect 5 0 4 0;
#X connect 6 0 7 0;
#X connect 7 0 8 1;
#X connect 8 0 19 1;
#X connect 9 0 10 0;
#X connect 10 0 11 0;
#X connect 11 0 12 0;
#X connect 11 0 14 0;
#X connect 12 0 13 0;
#X connect 13 0 14 1;
#X connect 14 0 20 1;
#X connect 15 0 16 0;
#X connect 15 0 18 0;
#X connect 16 0 17 0;
#X connect 17 0 18 1;
#X connect 18 0 21 1;
#X connect 19 0 25 0;
#X connect 20 0 25 0;
#X connect 21 0 25 1;
#X connect 22 0 25 1;
#X connect 23 0 36 0;
#X connect 25 0 24 0;
#X connect 26 0 27 0;
#X connect 27 0 15 0;
#X connect 28 0 30 0;
#X connect 28 0 32 0;
#X connect 29 0 28 0;
#X connect 30 0 31 0;
#X connect 31 0 32 1;
#X connect 32 0 22 1;
#X connect 33 0 35 0;
#X connect 35 0 34 0;
#X connect 36 0 37 0;
#X connect 37 0 38 0;
#X connect 38 0 29 0;
#X connect 38 0 26 0;
#X connect 38 0 9 0;
#X connect 38 0 5 0;
#X restore 315 314 pd bp;
#X f 13;
#X obj 445 102 inlet~;
#X text 491 106 slope;
#X connect 0 0 7 0;
#X connect 1 0 7 1;
#X connect 1 0 6 0;
#X connect 1 0 8 0;
#X connect 2 0 7 2;
#X connect 2 0 6 1;
#X connect 2 0 8 1;
#X connect 3 0 7 3;
#X connect 3 0 6 2;
#X connect 3 0 8 2;
#X connect 5 0 7 4;
#X connect 5 0 6 3;
#X connect 5 0 8 3;
#X connect 6 0 4 0;
#X connect 7 0 4 0;
#X connect 8 0 4 0;
#X connect 9 0 6 4;
#X connect 9 0 7 5;
#X connect 9 0 8 4;
#X restore 346 360 pd polemixer;
#X f 37;
#X text 1070 535 philipp schmalfuß \, 2020/21;
#X text 767 60 resonance;
#X obj 978 60 inlet~;
#X msg 867 83 \$1 100;
#X obj 867 60 r \$0-slope;
#X obj 868 203 clip~ 1 3;
#X obj 867 106 line~;
#X obj 868 155 *~ 2;
#X obj 868 178 +~ 1;
#X obj 867 129 +~;
#X msg 719 180 \$1 100;
#X obj 719 203 line~;
#X obj 719 156 r \$0-sat;
#X obj 719 245 +~ 1;
#X obj 627 193 clip~ 0 100;
#X text 1025 60 slope;
#N canvas 522 2 747 540 ladder 0;
#X obj 109 34 inlet~;
#N canvas 1 26 450 437 lp1 0;
#X obj 114 120 -~;
#X obj 113 148 *~;
#X obj 113 202 +~;
#X obj 41 245 +~;
#X obj 113 42 inlet~;
#X obj 113 370 outlet~;
#X obj 315 60 inlet~;
#X obj 155 75 delread~ \$0-z1b;
#X obj 41 336 delwrite~ \$0-z1b;
#X connect 0 0 1 0;
#X connect 1 0 2 0;
#X connect 1 0 3 0;
#X connect 2 0 3 1;
#X connect 2 0 5 0;
#X connect 3 0 8 0;
#X connect 4 0 0 0;
#X connect 6 0 1 1;
#X connect 7 0 0 1;
#X connect 7 0 2 1;
#X restore 314 355 pd lp1;
#X obj 212 486 outlet~;
#N canvas 557 124 537 492 S 0;
#X obj 129 21 inlet~;
#X obj 63 73 *~;
#X obj 63 118 *~;
#X obj 63 97 *~;
#X obj 187 117 *~;
#X obj 187 96 *~;
#X obj 311 119 *~;
#X obj 108 351 outlet~;
#X obj 108 327 +~;
#X obj 91 296 +~;
#X obj 64 261 +~;
#X obj 89 119 delread~ \$0-z0b;
#X obj 213 118 delread~ \$0-z1b;
#X obj 337 120 delread~ \$0-z2b;
#X obj 439 120 delread~ \$0-z3b;
#X connect 0 0 1 0;
#X connect 0 0 1 1;
#X connect 0 0 3 1;
#X connect 0 0 5 0;
#X connect 0 0 5 1;
#X connect 0 0 6 0;
#X connect 1 0 3 0;
#X connect 2 0 10 0;
#X connect 3 0 2 0;
#X connect 4 0 10 1;
#X connect 5 0 4 0;
#X connect 6 0 9 1;
#X connect 8 0 7 0;
#X connect 9 0 8 0;
#X connect 10 0 9 0;
#X connect 11 0 2 1;
#X connect 12 0 4 1;
#X connect 13 0 6 1;
#X connect 14 0 8 1;
#X restore 134 126 pd S;
#X obj 134 157 *~;
#N canvas 660 133 450 479 lp0 0;
#X obj 114 120 -~;
#X obj 113 148 *~;
#X obj 113 202 +~;
#X obj 28 229 +~;
#X obj 113 42 inlet~;
#X obj 114 394 outlet~;
#X obj 329 36 inlet~;
#X obj 150 79 delread~ \$0-z0b;
#X obj 29 257 delwrite~ \$0-z0b;
#X connect 0 0 1 0;
#X connect 1 0 2 0;
#X connect 1 0 3 0;
#X connect 2 0 3 1;
#X connect 2 0 5 0;
#X connect 3 0 8 0;
#X connect 4 0 0 0;
#X connect 6 0 1 1;
#X connect 7 0 0 1;
#X connect 7 0 2 1;
#X restore 314 320 pd lp0;
#N canvas 1 26 450 486 lp2 0;
#X obj 114 120 -~;
#X obj 113 148 *~;
#X obj 113 202 +~;
#X obj 41 245 +~;
#X obj 113 42 inlet~;
#X obj 113 398 outlet~;
#X obj 327 54 inlet~;
#X obj 161 74 delread~ \$0-z2b;
#X obj 40 340 delwrite~ \$0-z2b;
#X connect 0 0 1 0;
#X connect 1 0 2 0;
#X connect 1 0 3 0;
#X connect 2 0 3 1;
#X connect 2 0 5 0;
#X connect 3 0 8 0;
#X connect 4 0 0 0;
#X connect 6 0 1 1;
#X connect 7 0 0 1;
#X connect 7 0 2 1;
#X restore 314 389 pd lp2;
#N canvas 1 26 450 503 lp3 0;
#X obj 114 120 -~;
#X obj 113 148 *~;
#X obj 113 202 +~;
#X obj 41 245 +~;
#X obj 113 42 inlet~;
#X obj 113 382 outlet~;
#X obj 332 59 inlet~;
#X obj 159 78 delread~ \$0-z3b;
#X obj 40 339 delwrite~ \$0-z3b;
#X connect 0 0 1 0;
#X connect 1 0 2 0;
#X connect 1 0 3 0;
#X connect 2 0 3 1;
#X connect 2 0 5 0;
#X connect 3 0 8 0;
#X connect 4 0 0 0;
#X connect 6 0 1 1;
#X connect 7 0 0 1;
#X connect 7 0 2 1;
#X restore 314 429 pd lp3;
#X obj 108 232 -~;
#X obj 109 486 outlet~;
#X obj 160 486 outlet~;
#X obj 347 28 inlet~;
#X obj 454 28 inlet~;
#N canvas 64 20 587 339 nonlinear 0;
#X obj 114 39 inlet~;
#X obj 111 270 outlet~;
#N canvas 1 2 450 300 hardclip 0;
#X obj 104 77 inlet~;
#X obj 104 100 clip~ -1 1;
#X obj 104 123 outlet~;
#X obj 270 18 r \$0-clip-func;
#X obj 270 64 switch~;
#X obj 270 41 == 2;
#X connect 0 0 1 0;
#X connect 1 0 2 0;
#X connect 3 0 5 0;
#X connect 5 0 4 0;
#X restore 269 172 pd hardclip;
#N canvas 1 2 450 300 algebraic 0;
#X obj 104 86 inlet~;
#X obj 103 221 outlet~;
#X obj 270 18 r \$0-clip-func;
#X obj 270 41 == 0;
#X obj 131 122 pow~ 2;
#X obj 131 145 +~ 1;
#X obj 131 168 sqrt~;
#X obj 103 192 /~;
#X obj 270 64 switch~;
#X connect 0 0 4 0;
#X connect 0 0 7 0;
#X connect 2 0 3 0;
#X connect 3 0 8 0;
#X connect 4 0 5 0;
#X connect 5 0 6 0;
#X connect 6 0 7 1;
#X connect 7 0 1 0;
#X restore 112 171 pd algebraic;
#N canvas 1 2 450 300 logistic 0;
#X obj 104 79 inlet~;
#X obj 106 197 outlet~;
#X obj 270 18 r \$0-clip-func;
#X obj 270 64 switch~;
#X obj 270 41 == 1;
#X obj 131 116 abs~;
#X obj 105 163 /~;
#X obj 131 139 +~ 1;
#X connect 0 0 5 0;
#X connect 0 0 6 0;
#X connect 2 0 4 0;
#X connect 4 0 3 0;
#X connect 5 0 7 0;
#X connect 6 0 1 0;
#X connect 7 0 6 1;
#X restore 192 172 pd logistic;
#X obj 113 110 *~;
#X obj 280 45 inlet~;
#X connect 0 0 5 0;
#X connect 2 0 1 0;
#X connect 3 0 1 0;
#X connect 4 0 1 0;
#X connect 5 0 4 0;
#X connect 5 0 2 0;
#X connect 5 0 3 0;
#X connect 6 0 5 1;
#X restore 109 261 pd nonlinear;
#X obj 314 486 outlet~;
#X obj 263 486 outlet~;
#X text 391 30 freq;
#X text 500 27 q;
#X obj 601 170 block~ 1 1 2;
#X obj 552 29 inlet~;
#X text 600 28 saturation;
#X connect 0 0 8 0;
#X connect 1 0 6 0;
#X connect 1 0 2 0;
#X connect 3 0 4 0;
#X connect 4 0 8 1;
#X connect 5 0 1 0;
#X connect 5 0 10 0;
#X connect 6 0 7 0;
#X connect 6 0 15 0;
#X connect 7 0 14 0;
#X connect 8 0 13 0;
#X connect 11 0 3 0;
#X connect 11 0 5 1;
#X connect 11 0 1 1;
#X connect 11 0 6 1;
#X connect 11 0 7 1;
#X connect 12 0 4 1;
#X connect 13 0 5 0;
#X connect 13 0 9 0;
#X connect 19 0 13 1;
#X restore 449 442 pd ladder;
#X f 37;
#X obj 391 385 noise~;
#X obj 391 408 *~ 1e-12;
#N canvas 496 2 869 654 polemixer 0;
#X obj 72 98 inlet~;
#X obj 139 99 inlet~;
#X obj 215 100 inlet~;
#X obj 296 100 inlet~;
#X obj 73 387 outlet~;
#X obj 370 100 inlet~;
#N canvas 358 93 903 468 lop 0;
#X obj 137 50 inlet~;
#X obj 211 53 inlet~;
#X obj 294 52 inlet~;
#X obj 368 51 inlet~;
#X obj 151 196 min~ 2;
#X obj 150 172 max~ 1;
#X obj 172 228 *~ -1;
#X obj 172 249 +~ 2;
#X obj 151 273 min~;
#X obj 228 170 max~ 1;
#X obj 228 192 -~ 1;
#X obj 228 215 min~ 2;
#X obj 253 235 *~ -1;
#X obj 253 255 +~ 2;
#X obj 228 275 min~;
#X obj 309 171 max~ 2;
#X obj 309 191 -~ 2;
#X obj 309 211 min~ 2;
#X obj 334 231 *~ -1;
#X obj 334 251 +~ 2;
#X obj 309 271 min~;
#X obj 382 170 max~ 3;
#X obj 382 190 -~ 3;
#X obj 382 210 min~ 2;
#X obj 407 230 *~ -1;
#X obj 407 250 +~ 2;
#X obj 382 270 min~;
#X obj 137 297 *~;
#X obj 212 300 *~;
#X obj 295 297 *~;
#X obj 367 294 *~;
#X obj 434 53 inlet~;
#X obj 138 390 outlet~;
#X obj 636 60 r \$0-filtertype;
#X obj 636 83 == 0;
#X obj 636 106 switch~;
#X connect 0 0 27 0;
#X connect 1 0 28 0;
#X connect 2 0 29 0;
#X connect 3 0 30 0;
#X connect 4 0 6 0;
#X connect 4 0 8 0;
#X connect 5 0 4 0;
#X connect 6 0 7 0;
#X connect 7 0 8 1;
#X connect 8 0 27 1;
#X connect 9 0 10 0;
#X connect 10 0 11 0;
#X connect 11 0 12 0;
#X connect 11 0 14 0;
#X connect 12 0 13 0;
#X connect 13 0 14 1;
#X connect 14 0 28 1;
#X connect 15 0 16 0;
#X connect 16 0 17 0;
#X connect 17 0 18 0;
#X connect 17 0 20 0;
#X connect 18 0 19 0;
#X connect 19 0 20 1;
#X connect 20 0 29 1;
#X connect 21 0 22 0;
#X connect 22 0 23 0;
#X connect 23 0 24 0;
#X connect 23 0 26 0;
#X connect 24 0 25 0;
#X connect 25 0 26 1;
#X connect 26 0 30 1;
#X connect 27 0 32 0;
#X connect 28 0 32 0;
#X connect 29 0 32 0;
#X connect 30 0 32 0;
#X connect 31 0 5 0;
#X connect 31 0 9 0;
#X connect 31 0 15 0;
#X connect 31 0 21 0;
#X connect 33 0 34 0;
#X connect 34 0 35 0;
#X restore 198 311 pd lop;
#X f 13;
#N canvas 293 84 903 547 hip 0;
#X obj 137 54 inlet~;
#X obj 211 53 inlet~;
#X obj 294 54 inlet~;
#X obj 368 52 inlet~;
#X obj 151 196 min~ 2;
#X obj 150 172 max~ 1;
#X obj 172 228 *~ -1;
#X obj 172 249 +~ 2;
#X obj 151 273 min~;
#X obj 228 170 max~ 1;
#X obj 228 192 -~ 1;
#X obj 228 215 min~ 2;
#X obj 253 235 *~ -1;
#X obj 253 255 +~ 2;
#X obj 228 275 min~;
#X obj 309 171 max~ 2;
#X obj 309 191 -~ 2;
#X obj 309 211 min~ 2;
#X obj 334 231 *~ -1;
#X obj 334 251 +~ 2;
#X obj 309 271 min~;
#X obj 382 170 max~ 3;
#X obj 382 190 -~ 3;
#X obj 382 210 min~ 2;
#X obj 407 230 *~ -1;
#X obj 407 250 +~ 2;
#X obj 382 270 min~;
#X obj 137 297 *~;
#X obj 212 300 *~;
#X obj 295 297 *~;
#X obj 367 294 *~;
#X obj 434 53 inlet~;
#X obj 418 112 -~;
#X obj 418 89 sig~ 3;
#X obj 78 449 outlet~;
#X obj 78 51 inlet~;
#X obj 78 411 -~;
#X obj 636 60 r \$0-filtertype;
#X obj 636 106 switch~;
#X obj 636 83 == 1;
#X connect 0 0 27 0;
#X connect 1 0 28 0;
#X connect 2 0 29 0;
#X connect 3 0 30 0;
#X connect 4 0 6 0;
#X connect 4 0 8 0;
#X connect 5 0 4 0;
#X connect 6 0 7 0;
#X connect 7 0 8 1;
#X connect 8 0 27 1;
#X connect 9 0 10 0;
#X connect 10 0 11 0;
#X connect 11 0 12 0;
#X connect 11 0 14 0;
#X connect 12 0 13 0;
#X connect 13 0 14 1;
#X connect 14 0 28 1;
#X connect 15 0 16 0;
#X connect 16 0 17 0;
#X connect 17 0 18 0;
#X connect 17 0 20 0;
#X connect 18 0 19 0;
#X connect 19 0 20 1;
#X connect 20 0 29 1;
#X connect 21 0 22 0;
#X connect 22 0 23 0;
#X connect 23 0 24 0;
#X connect 23 0 26 0;
#X connect 24 0 25 0;
#X connect 25 0 26 1;
#X connect 26 0 30 1;
#X connect 27 0 36 1;
#X connect 28 0 36 1;
#X connect 29 0 36 1;
#X connect 30 0 36 1;
#X connect 31 0 32 1;
#X connect 32 0 21 0;
#X connect 32 0 15 0;
#X connect 32 0 9 0;
#X connect 32 0 5 0;
#X connect 33 0 32 0;
#X connect 35 0 36 0;
#X connect 36 0 34 0;
#X connect 37 0 39 0;
#X connect 39 0 38 0;
#X restore 72 311 pd hip;
#X f 13;
#N canvas 462 2 903 468 bp 0;
#X obj 137 53 inlet~;
#X obj 211 53 inlet~;
#X obj 294 52 inlet~;
#X obj 368 51 inlet~;
#X obj 151 196 min~ 2;
#X obj 150 172 max~ 1;
#X obj 172 228 *~ -1;
#X obj 172 249 +~ 2;
#X obj 151 273 min~;
#X obj 228 170 max~ 1;
#X obj 228 192 -~ 1;
#X obj 228 215 min~ 2;
#X obj 253 235 *~ -1;
#X obj 253 255 +~ 2;
#X obj 228 275 min~;
#X obj 309 211 min~ 2;
#X obj 334 231 *~ -1;
#X obj 334 251 +~ 2;
#X obj 309 271 min~;
#X obj 137 297 *~;
#X obj 212 300 *~;
#X obj 295 297 *~;
#X obj 367 294 *~;
#X obj 434 53 inlet~;
#X obj 138 407 outlet~;
#X obj 137 361 -~;
#X obj 309 171 max~ 1;
#X obj 309 191 -~ 1;
#X obj 387 192 min~ 2;
#X obj 386 168 max~ 1;
#X obj 408 224 *~ -1;
#X obj 408 245 +~ 2;
#X obj 387 269 min~;
#X obj 636 60 r \$0-filtertype;
#X obj 636 106 switch~;
#X obj 636 83 == 2;
#X obj 434 75 -~ 1;
#X obj 434 98 *~ 0.5;
#X obj 434 121 +~ 1;
#X connect 0 0 19 0;
#X connect 1 0 20 0;
#X connect 2 0 21 0;
#X connect 3 0 22 0;
#X connect 4 0 6 0;
#X connect 4 0 8 0;
#X connect 5 0 4 0;
#X connect 6 0 7 0;
#X connect 7 0 8 1;
#X connect 8 0 19 1;
#X connect 9 0 10 0;
#X connect 10 0 11 0;
#X connect 11 0 12 0;
#X connect 11 0 14 0;
#X connect 12 0 13 0;
#X connect 13 0 14 1;
#X connect 14 0 20 1;
#X connect 15 0 16 0;
#X connect 15 0 18 0;
#X connect 16 0 17 0;
#X connect 17 0 18 1;
#X connect 18 0 21 1;
#X connect 19 0 25 0;
#X connect 20 0 25 0;
#X connect 21 0 25 1;
#X connect 22 0 25 1;
#X connect 23 0 36 0;
#X connect 25 0 24 0;
#X connect 26 0 27 0;
#X connect 27 0 15 0;
#X connect 28 0 30 0;
#X connect 28 0 32 0;
#X connect 29 0 28 0;
#X connect 30 0 31 0;
#X connect 31 0 32 1;
#X connect 32 0 22 1;
#X connect 33 0 35 0;
#X connect 35 0 34 0;
#X connect 36 0 37 0;
#X connect 37 0 38 0;
#X connect 38 0 29 0;
#X connect 38 0 26 0;
#X connect 38 0 9 0;
#X connect 38 0 5 0;
#X restore 315 314 pd bp;
#X f 13;
#X obj 445 102 inlet~;
#X text 491 106 slope;
#X connect 0 0 7 0;
#X connect 1 0 7 1;
#X connect 1 0 6 0;
#X connect 1 0 8 0;
#X connect 2 0 7 2;
#X connect 2 0 6 1;
#X connect 2 0 8 1;
#X connect 3 0 7 3;
#X connect 3 0 6 2;
#X connect 3 0 8 2;
#X connect 5 0 7 4;
#X connect 5 0 6 3;
#X connect 5 0 8 3;
#X connect 6 0 4 0;
#X connect 7 0 4 0;
#X connect 8 0 4 0;
#X connect 9 0 6 4;
#X connect 9 0 7 5;
#X connect 9 0 8 4;
#X restore 448 477 pd polemixer;
#X f 37;
#X obj 399 54 inlet~;
#X obj 447 528 outlet~;
#N canvas 306 33 781 543 outlet-message 0;
#N canvas 155 411 986 300 bang_once....................................... 0;
#X obj 132 87 t b f;
#X obj 89 139 del 0;
#X obj 89 87 t b f;
#X obj 89 41 inlet;
#X obj 132 40 inlet;
#X obj 340 41 inlet;
#X obj 89 247 outlet;
#X obj 89 173 f;
#X obj 340 88 t b a;
#X obj 174 86 t b f;
#X obj 174 39 inlet;
#X obj 217 85 t b f;
#X obj 217 38 inlet;
#X obj 89 203 pack 0 0 0 0 0 s;
#X obj 266 85 t b f;
#X obj 266 38 inlet;
#X connect 0 0 1 0;
#X connect 0 1 13 1;
#X connect 1 0 7 0;
#X connect 2 0 1 0;
#X connect 2 1 7 1;
#X connect 3 0 2 0;
#X connect 4 0 0 0;
#X connect 5 0 8 0;
#X connect 7 0 13 0;
#X connect 8 0 1 0;
#X connect 8 1 13 5;
#X connect 9 0 1 0;
#X connect 9 1 13 2;
#X connect 10 0 9 0;
#X connect 11 0 1 0;
#X connect 11 1 13 3;
#X connect 12 0 11 0;
#X connect 13 0 6 0;
#X connect 14 0 1 0;
#X connect 14 1 13 4;
#X connect 15 0 14 0;
#X restore 222 244 pd bang_once.......................................;
#X obj 290 427 list trim;
#X msg 209 395 addcomma;
#X msg 145 402 set;
#X obj 290 404 list prepend add2;
#X obj 289 482 outlet;
#X obj 222 79 r \$0-freq;
#X obj 296 105 r \$0-resonance;
#X obj 525 62 r \$0-filtertype;
#X obj 525 222 symbol;
#X msg 525 117 lowpass;
#X msg 539 138 highpass;
#X obj 525 96 sel 0 1 2;
#X obj 221 264 t b a b;
#X obj 243 350 t b a a;
#N canvas 497 319 297 264 save 0;
#X obj 48 16 inlet;
#N canvas 690 259 481 384 collect 0;
#X obj 47 60 inlet;
#X obj 47 274 outlet;
#X obj 98 180 list;
#X obj 166 181 t l;
#X obj 47 225 list;
#X obj 98 139 list append |;
#X obj 47 126 del 0;
#X obj 47 82 t b a;
#X text 119 75 hacky thing... replaycing " \, " with "|";
#X connect 0 0 7 0;
#X connect 2 0 3 0;
#X connect 2 0 4 1;
#X connect 3 0 2 1;
#X connect 4 0 1 0;
#X connect 5 0 2 0;
#X connect 6 0 2 1;
#X connect 6 0 4 0;
#X connect 7 0 6 0;
#X connect 7 1 5 0;
#X restore 48 38 pd collect;
#X obj 117 16 r \$0-save;
#X obj 27 130 text set \$0-savestates;
#X obj 27 104 list;
#X obj 117 62 t b f;
#X obj 117 39 clip 0 20;
#X connect 0 0 1 0;
#X connect 1 0 4 1;
#X connect 2 0 6 0;
#X connect 4 0 3 0;
#X connect 5 0 4 0;
#X connect 5 1 3 1;
#X connect 6 0 5 0;
#X restore 291 374 pd save;
#X obj 434 178 r \$0-clip-func;
#X obj 373 126 r \$0-sat;
#X msg 557 162 bandpass;
#X obj 402 151 r \$0-slope;
#X msg 243 302 \$6 \, frequency \$1 \, resonance \$2 \, saturation \$3 \, slope \$4 \, func \$5;
#X connect 0 0 13 0;
#X connect 1 0 5 0;
#X connect 2 0 5 0;
#X connect 3 0 5 0;
#X connect 4 0 1 0;
#X connect 6 0 0 0;
#X connect 7 0 0 1;
#X connect 8 0 12 0;
#X connect 9 0 0 5;
#X connect 10 0 9 0;
#X connect 11 0 9 0;
#X connect 12 0 10 0;
#X connect 12 1 11 0;
#X connect 12 2 18 0;
#X connect 13 0 5 0;
#X connect 13 1 20 0;
#X connect 13 2 3 0;
#X connect 14 0 2 0;
#X connect 14 1 4 0;
#X connect 14 2 15 0;
#X connect 16 0 0 4;
#X connect 17 0 0 2;
#X connect 18 0 9 0;
#X connect 19 0 0 3;
#X connect 20 0 14 0;
#X restore 1074 482 pd outlet-message;
#X connect 0 0 27 0;
#X connect 0 1 27 1;
#X connect 0 2 27 2;
#X connect 0 3 27 3;
#X connect 0 4 27 4;
#X connect 1 0 0 1;
#X connect 1 0 44 1;
#X connect 1 1 0 2;
#X connect 1 1 44 2;
#X connect 2 0 3 0;
#X connect 8 0 9 0;
#X connect 9 0 14 0;
#X connect 10 0 11 0;
#X connect 11 0 15 0;
#X connect 12 0 8 0;
#X connect 13 0 22 0;
#X connect 14 0 21 0;
#X connect 15 0 42 0;
#X connect 16 0 17 0;
#X connect 17 0 21 2;
#X connect 18 0 14 1;
#X connect 20 0 15 1;
#X connect 21 0 1 0;
#X connect 22 0 10 0;
#X connect 23 0 0 0;
#X connect 25 0 26 0;
#X connect 26 0 0 0;
#X connect 27 0 24 0;
#X connect 30 0 37 1;
#X connect 31 0 34 0;
#X connect 32 0 31 0;
#X connect 33 0 27 5;
#X connect 33 0 47 5;
#X connect 34 0 37 0;
#X connect 35 0 36 0;
#X connect 36 0 33 0;
#X connect 37 0 35 0;
#X connect 38 0 39 0;
#X connect 39 0 41 0;
#X connect 40 0 38 0;
#X connect 41 0 0 3;
#X connect 41 0 44 3;
#X connect 42 0 1 1;
#X connect 44 0 47 0;
#X connect 44 1 47 1;
#X connect 44 2 47 2;
#X connect 44 3 47 3;
#X connect 44 4 47 4;
#X connect 45 0 46 0;
#X connect 46 0 44 0;
#X connect 47 0 49 0;
#X connect 48 0 44 0;
#X connect 50 0 4 0;
#X coords 0 -1 1 1 155 33 1 100 100;
