#N canvas 238 240 832 310 10;
#X obj 1 2 cnv 15 380 300 empty empty empty 20 12 0 14 -233017 -66577
0;
#X text 10 125 Inlets:;
#X text 10 165 Outlets:;
#X text 68 177 2:message;
#X obj 12 20 cnv 15 10 10 empty empty pp.lfnoise~ 0 0 2 16 -233017
-262144 0;
#X text 68 138 2:control-message;
#X obj 436 239 pp.out~;
#A saved;
#X text 68 126 1:(~)frequency;
#X text 11 34 low frequency noise generator;
#X obj 436 141 *~ 500;
#X obj 436 183 osc~;
#X obj 436 163 +~ 700;
#X text 68 165 1:(~)randoom signal(-1 \, 1);
#X floatatom 437 17 5 0 0 0 - - -;
#X obj 437 37 sig~;
#X text 470 18 frequency;
#X text 541 119 <-- click to open GUI;
#X obj 529 80 cnv 15 118 17 empty empty empty 20 12 0 14 -260097 -66577
0;
#N canvas 578 211 285 341 control-messages 0;
#X obj 80 266 outlet;
#X floatatom 80 55 5 0 0 0 - - -;
#X msg 80 75 frequency \$1;
#X floatatom 120 96 5 0 0 0 - - -;
#X floatatom 131 140 5 0 100000 0 - - -;
#X msg 120 116 steps \$1;
#X msg 131 160 smooth \$1;
#X obj 133 237 cnv 16 87 16 empty empty empty 20 12 0 14 -260097 -66577
0;
#N canvas 864 246 634 307 save&recall 0;
#X obj 93 233 outlet;
#X msg 93 60 0;
#X msg 125 60 1;
#X msg 158 60 2;
#X msg 93 99 save \$1;
#X text 185 63 ...;
#X msg 207 60 20;
#X msg 149 154 0;
#X msg 181 154 1;
#X msg 214 154 2;
#X text 241 157 ...;
#X msg 263 154 20;
#X msg 149 193 recall \$1;
#X text 249 93 save & recall up to 20 presets \, presets will be saved
with the parrent patch;
#X connect 1 0 4 0;
#X connect 2 0 4 0;
#X connect 3 0 4 0;
#X connect 4 0 0 0;
#X connect 6 0 4 0;
#X connect 7 0 12 0;
#X connect 8 0 12 0;
#X connect 9 0 12 0;
#X connect 11 0 12 0;
#X connect 12 0 0 0;
#X restore 133 236 pd save&recall;
#X msg 141 201 unitpol \$1;
#X obj 141 184 tgl 15 0 empty empty empty 17 7 0 10 -262144 -1 -1 0
1;
#X connect 1 0 2 0;
#X connect 2 0 0 0;
#X connect 3 0 5 0;
#X connect 4 0 6 0;
#X connect 5 0 0 0;
#X connect 6 0 0 0;
#X connect 8 0 0 0;
#X connect 9 0 0 0;
#X connect 10 0 9 0;
#X restore 529 80 pd control-messages;
#N canvas 740 417 503 292 message-out 0;
#X obj 30 33 inlet;
#X msg 30 60 frequency 1 \, steps 100 \, smooth 0 \, unitpol 0 \,;
#X connect 0 0 1 0;
#X restore 529 144 pd message-out;
#X text 95 81 \$1: frequency;
#X text 9 60 Creation arguments:;
#X obj 705 5 cnv 15 120 60 empty empty empty 20 12 0 14 -260097 -66577
0;
#X obj 711 16 bng 15 250 50 0 \$0-example1 \$0-example1r empty 17 7
0 10 -262144 -1 -1;
#X obj 711 37 bng 15 250 50 0 \$0-example2 \$0-example2r empty 17 7
0 10 -262144 -1 -1;
#X text 730 14 open example-1;
#X text 730 36 open example-2;
#X obj 436 103 pp.lfnoise~ 1 0;
#A saved empty_slot \; empty_slot \; empty_slot \; empty_slot \; empty_slot
\; empty_slot \; empty_slot \; empty_slot \; empty_slot \; empty_slot
\; empty_slot \; empty_slot \; empty_slot \; empty_slot \; empty_slot
\; empty_slot \; empty_slot \; empty_slot \; empty_slot \; empty_slot
\; empty_slot \;;
#N canvas 102 154 450 300 examples 0;
#X obj 94 104 s pd;
#X obj 92 226 s pd;
#X obj 94 9 r \$0-example1;
#X msg 94 32 dir;
#X obj 94 55 pdcontrol;
#X msg 94 81 open 08-chaotic_movement.pd \$1/Examples;
#X msg 92 161 dir;
#X obj 92 184 pdcontrol;
#X obj 92 138 r \$0-example2;
#X msg 93 204 open 09-old_tapedeck.pd \$1/Examples;
#X connect 2 0 3 0;
#X connect 3 0 4 0;
#X connect 4 0 5 0;
#X connect 5 0 0 0;
#X connect 6 0 7 0;
#X connect 7 0 9 0;
#X connect 8 0 6 0;
#X connect 9 0 1 0;
#X restore 308 274 pd examples;
#X text 95 96 \$2: bipolar (0) \, unipolar (1) \, default: 0;
#X connect 9 0 11 0;
#X connect 10 0 6 0;
#X connect 10 0 6 1;
#X connect 11 0 10 0;
#X connect 13 0 14 0;
#X connect 14 0 27 0;
#X connect 18 0 27 1;
#X connect 27 0 9 0;
#X connect 27 1 19 0;
