#N canvas 32 531 1537 460 10;
#X obj 103 115 hsl 105 15 1 1000 0 0 \$0-gui \$0-guir Decay(ms) 3 8 2 10 #e0e0e0 #000000 #000000 0 1;
#X obj 251 115 hsl 2 8 0 1 0 0 \$0-gui \$0-guir empty 3 8 2 10 #e0e0e0 #dcdcdc #000000 0 1;
#X obj 210 115 nbx 5 15 0.1 1e+12 0 0 \$0-decay \$0-decayr empty 0 -8 2 10 #dcdcdc #000000 #000000 0 256;
#X msg 210 138 set \$1;
#X obj 491 30 inlet~;
#X obj 341 257 /~;
#X obj 490 238 max~ 1;
#X obj 556 166 swap 1000;
#X obj 556 189 /;
#X obj 490 213 slop~ 0 0 2 0 1e+09;
#X obj 491 187 abs~;
#X obj 342 284 outlet~;
#X obj 556 141 r \$0-decay;
#N canvas 310 207 450 300 delread 0;
#X obj 105 79 inlet~;
#X obj 105 163 outlet~;
#X obj 105 141 delread~ \$0-del;
#X obj 201 81 inlet;
#X connect 2 0 1 0;
#X connect 3 0 2 0;
#X restore 342 205 pd delread;
#N canvas 310 207 450 300 delwrite 0;
#X obj 109 85 inlet~;
#X obj 110 169 outlet~;
#X obj 149 113 delwrite~ \$0-del 10;
#X connect 0 0 2 0;
#X restore 343 171 pd delwrite;
#X obj 445 156 samplerate~;
#X obj 445 177 / 1000;
#X obj 417 132 t f b;
#X obj 417 203 / 48;
#X obj 417 109 r \$0-lookahead;
#X floatatom 453 133 5 0 0 0 - - - 0;
#X obj 875 48 inlet~;
#X obj 725 275 /~;
#X obj 874 256 max~ 1;
#X obj 940 184 swap 1000;
#X obj 940 207 /;
#X obj 874 231 slop~ 0 0 2 0 1e+09;
#X obj 875 205 abs~;
#X obj 726 302 outlet~;
#X obj 940 159 r \$0-decay;
#N canvas 310 207 450 300 delread 0;
#X obj 105 79 inlet~;
#X obj 105 163 outlet~;
#X obj 201 81 inlet;
#X obj 105 141 delread~ \$0-del2;
#X connect 2 0 3 0;
#X connect 3 0 1 0;
#X restore 726 223 pd delread;
#N canvas 310 207 450 300 delwrite 0;
#X obj 109 85 inlet~;
#X obj 110 169 outlet~;
#X obj 149 113 delwrite~ \$0-del2 10;
#X connect 0 0 2 0;
#X restore 727 189 pd delwrite;
#X obj 829 174 samplerate~;
#X obj 829 195 / 1000;
#X obj 801 150 t f b;
#X obj 801 221 / 48;
#X obj 801 127 r \$0-lookahead;
#X floatatom 837 151 5 0 0 0 - - - 0;
#X obj 1098 45 inlet;
#N canvas 936 38 479 458 init 0;
#X obj 109 49 loadbang;
#X obj 109 331 s \$0-decayr;
#X msg 109 77 args 0;
#X obj 109 100 pdcontrol;
#X obj 136 150 f \$0;
#X msg 136 173 \; \$1-decayr 500 \; \$1-lookahead 64;
#X obj 185 332 s \$0-lookahead;
#X obj 150 271 unpack f f;
#X obj 109 236 route float list;
#X obj 109 123 t a b;
#X connect 0 0 2 0;
#X connect 2 0 3 0;
#X connect 3 0 9 0;
#X connect 4 0 5 0;
#X connect 7 0 1 0;
#X connect 7 1 6 0;
#X connect 8 0 1 0;
#X connect 8 1 7 0;
#X connect 9 0 8 0;
#X connect 9 1 4 0;
#X restore 1097 116 pd init;
#N canvas 728 569 200 197 in 0;
#X obj 20 20 inlet;
#N canvas 698 546 200 251 route 0;
#X obj 20 20 inlet;
#X obj 30 60 route save recall;
#X obj 30 85 route float;
#X obj 97 111 route float;
#X obj 30 136 s \$0-save;
#X obj 30 108 i;
#X obj 98 133 i;
#X obj 98 161 s \$0-recall;
#X connect 0 0 1 0;
#X connect 1 0 2 0;
#X connect 1 1 3 0;
#X connect 2 0 5 0;
#X connect 3 0 6 0;
#X connect 5 0 4 0;
#X connect 6 0 7 0;
#X restore 51 63 pd route save-recall;
#N canvas 362 125 450 479 recall 0;
#X obj 49 145 outlet;
#N canvas 3 54 450 600 listsplit 0;
#X obj 158 23 inlet;
#X obj 220 87 list length;
#X obj 220 113 until;
#X obj 182 150 f;
#X obj 278 150 + 1;
#X msg 265 111 0;
#X obj 182 226 list store;
#X msg 182 202 get \$1 1;
#X obj 154 367 list split;
#X obj 222 342 f;
#X obj 154 334 list;
#X obj 98 124 list;
#X obj 182 389 list split 1;
#X obj 154 274 t bang bang bang;
#X obj 182 179 t f f;
#X obj 158 48 t l l l b;
#X obj 154 473 outlet;
#X obj 154 440 list trim;
#X obj 163 248 sel |;
#X text 275 197 hacky split list at "|";
#X connect 0 0 15 0;
#X connect 1 0 2 0;
#X connect 2 0 3 0;
#X connect 3 0 4 0;
#X connect 3 0 14 0;
#X connect 4 0 3 1;
#X connect 5 0 3 1;
#X connect 6 0 18 0;
#X connect 7 0 6 0;
#X connect 8 0 17 0;
#X connect 8 1 12 0;
#X connect 9 0 8 1;
#X connect 10 0 8 0;
#X connect 11 0 15 0;
#X connect 12 1 11 0;
#X connect 13 0 10 0;
#X connect 13 1 9 0;
#X connect 13 2 2 1;
#X connect 14 0 7 0;
#X connect 14 1 9 1;
#X connect 15 0 1 0;
#X connect 15 1 10 1;
#X connect 15 2 6 1;
#X connect 15 3 5 0;
#X connect 17 0 16 0;
#X connect 18 0 13 0;
#X restore 49 117 pd listsplit;
#X obj 49 24 r \$0-recall;
#X obj 49 54 pipe 1;
#X obj 221 409 text fromlist \$0-savestates;
#X obj 49 77 text get \$0-savestates;
#X msg 253 246 21;
#X obj 253 269 until;
#X obj 253 292 f;
#X obj 300 295 + 1;
#X obj 253 315 t b f;
#X obj 253 367 text set \$0-savestates;
#X obj 221 114 text tolist \$0-savestates;
#X msg 253 342 list empty_slot;
#X obj 221 160 t a b;
#X obj 151 166 loadbang;
#X obj 221 137 savestate;
#X obj 221 33 text define \$0-savestates;
#X obj 151 189 del 0;
#X msg 298 199 0;
#X obj 253 220 spigot 1;
#X connect 1 0 0 0;
#X connect 2 0 3 0;
#X connect 3 0 5 0;
#X connect 5 0 1 0;
#X connect 6 0 7 0;
#X connect 7 0 8 0;
#X connect 8 0 9 0;
#X connect 8 0 10 0;
#X connect 9 0 8 1;
#X connect 10 0 13 0;
#X connect 10 1 11 1;
#X connect 12 0 16 0;
#X connect 13 0 11 0;
#X connect 14 0 4 0;
#X connect 14 1 19 0;
#X connect 15 0 18 0;
#X connect 16 0 14 0;
#X connect 16 1 12 0;
#X connect 18 0 20 0;
#X connect 19 0 20 1;
#X connect 20 0 6 0;
#X restore 108 85 pd recall;
#X obj 21 148 s \$0-decayr;
#X obj 21 121 route decay lookahead;
#X obj 81 169 s \$0-lookahead;
#X connect 0 0 1 0;
#X connect 0 0 4 0;
#X connect 2 0 4 0;
#X connect 4 0 3 0;
#X connect 4 1 5 0;
#X restore 1098 74 pd in;
#X obj 1097 290 outlet;
#N canvas 118 64 450 475 outlet-message 0;
#X obj 164 325 list trim;
#X msg 84 323 addcomma;
#X msg 43 333 set;
#X obj 164 302 list prepend add2;
#X obj 164 410 outlet;
#X obj 124 175 t b a b;
#X obj 145 231 t b a a;
#N canvas 497 319 297 264 save 0;
#X obj 48 16 inlet;
#N canvas 690 259 481 384 collect 0;
#X obj 47 60 inlet;
#X obj 47 274 outlet;
#X obj 98 180 list;
#X obj 166 181 t l;
#X obj 47 225 list;
#X obj 98 139 list append |;
#X obj 47 126 del 0;
#X obj 47 82 t b a;
#X text 119 75 hacky thing... replaycing " \, " with "|";
#X connect 0 0 7 0;
#X connect 2 0 3 0;
#X connect 2 0 4 1;
#X connect 3 0 2 1;
#X connect 4 0 1 0;
#X connect 5 0 2 0;
#X connect 6 0 2 1;
#X connect 6 0 4 0;
#X connect 7 0 6 0;
#X connect 7 1 5 0;
#X restore 48 38 pd collect;
#X obj 117 16 r \$0-save;
#X obj 27 130 text set \$0-savestates;
#X obj 27 104 list;
#X obj 117 62 t b f;
#X obj 117 39 clip 0 20;
#X connect 0 0 1 0;
#X connect 1 0 4 1;
#X connect 2 0 6 0;
#X connect 4 0 3 0;
#X connect 5 0 4 0;
#X connect 5 1 3 1;
#X connect 6 0 5 0;
#X restore 184 257 pd save;
#X obj 123 23 r \$0-decay;
#X obj 169 46 r \$0-lookahead;
#X obj 169 69 t b f;
#X obj 122 96 del 0;
#X obj 122 122 f;
#X obj 123 46 t b f;
#X obj 122 147 pack 0 0;
#X msg 157 207 decay \$1 \, lookahead \$2;
#X connect 0 0 4 0;
#X connect 1 0 4 0;
#X connect 2 0 4 0;
#X connect 3 0 0 0;
#X connect 5 0 4 0;
#X connect 5 1 15 0;
#X connect 5 2 2 0;
#X connect 6 0 1 0;
#X connect 6 1 3 0;
#X connect 6 2 7 0;
#X connect 8 0 13 0;
#X connect 9 0 10 0;
#X connect 10 0 11 0;
#X connect 10 1 14 1;
#X connect 11 0 12 0;
#X connect 12 0 14 0;
#X connect 13 0 11 0;
#X connect 13 1 12 1;
#X connect 14 0 5 0;
#X connect 15 0 6 0;
#X restore 1097 248 pd outlet-message;
#X connect 0 0 2 0;
#X connect 2 0 3 0;
#X connect 3 0 0 0;
#X connect 4 0 10 0;
#X connect 4 0 14 0;
#X connect 5 0 11 0;
#X connect 6 0 5 1;
#X connect 7 0 8 0;
#X connect 7 1 8 1;
#X connect 8 0 9 3;
#X connect 9 0 6 0;
#X connect 10 0 9 0;
#X connect 12 0 7 0;
#X connect 13 0 5 0;
#X connect 14 0 13 0;
#X connect 15 0 16 0;
#X connect 16 0 18 1;
#X connect 17 0 18 0;
#X connect 17 1 15 0;
#X connect 18 0 13 1;
#X connect 19 0 17 0;
#X connect 19 0 20 0;
#X connect 21 0 27 0;
#X connect 21 0 31 0;
#X connect 22 0 28 0;
#X connect 23 0 22 1;
#X connect 24 0 25 0;
#X connect 24 1 25 1;
#X connect 25 0 26 3;
#X connect 26 0 23 0;
#X connect 27 0 26 0;
#X connect 29 0 24 0;
#X connect 30 0 22 0;
#X connect 31 0 30 0;
#X connect 32 0 33 0;
#X connect 33 0 35 1;
#X connect 34 0 35 0;
#X connect 34 1 32 0;
#X connect 35 0 30 1;
#X connect 36 0 34 0;
#X connect 36 0 37 0;
#X connect 38 0 40 0;
#X connect 42 0 41 0;
#X coords 0 -1 1 1 155 33 1 100 100;
