#N canvas 210 190 1118 488 10;
#N canvas 716 166 577 586 ladder 0;
#X obj 109 34 inlet~;
#N canvas 1 57 450 437 lp1 0;
#X obj 114 120 -~;
#X obj 113 148 *~;
#X obj 113 202 +~;
#X obj 41 245 +~;
#X obj 113 42 inlet~;
#X obj 113 370 outlet~;
#X obj 315 60 inlet~;
#X obj 155 75 delread~ \$0-z1;
#X obj 41 336 delwrite~ \$0-z1;
#X connect 0 0 1 0;
#X connect 1 0 2 0;
#X connect 1 0 3 0;
#X connect 2 0 3 1;
#X connect 2 0 5 0;
#X connect 3 0 8 0;
#X connect 4 0 0 0;
#X connect 6 0 1 1;
#X connect 7 0 0 1;
#X connect 7 0 2 1;
#X restore 186 338 pd lp1;
#X obj 232 520 outlet~;
#N canvas 557 155 537 492 S 0;
#X obj 129 21 inlet~;
#X obj 63 73 *~;
#X obj 63 118 *~;
#X obj 89 119 delread~ \$0-z0;
#X obj 63 97 *~;
#X obj 187 117 *~;
#X obj 187 96 *~;
#X obj 213 118 delread~ \$0-z1;
#X obj 311 119 *~;
#X obj 337 120 delread~ \$0-z2;
#X obj 439 120 delread~ \$0-z3;
#X obj 108 351 outlet~;
#X obj 108 327 +~;
#X obj 91 296 +~;
#X obj 64 261 +~;
#X connect 0 0 1 0;
#X connect 0 0 1 1;
#X connect 0 0 4 1;
#X connect 0 0 6 0;
#X connect 0 0 6 1;
#X connect 0 0 8 0;
#X connect 1 0 4 0;
#X connect 2 0 14 0;
#X connect 3 0 2 1;
#X connect 4 0 2 0;
#X connect 5 0 14 1;
#X connect 6 0 5 0;
#X connect 7 0 5 1;
#X connect 8 0 13 1;
#X connect 9 0 8 1;
#X connect 10 0 12 1;
#X connect 12 0 11 0;
#X connect 13 0 12 0;
#X connect 14 0 13 0;
#X restore 134 126 pd S;
#X obj 134 157 *~;
#N canvas 660 164 450 479 lp0 0;
#X obj 114 120 -~;
#X obj 113 148 *~;
#X obj 113 202 +~;
#X obj 28 229 +~;
#X obj 113 42 inlet~;
#X obj 114 394 outlet~;
#X obj 329 36 inlet~;
#X obj 150 79 delread~ \$0-z0;
#X obj 29 257 delwrite~ \$0-z0;
#X connect 0 0 1 0;
#X connect 1 0 2 0;
#X connect 1 0 3 0;
#X connect 2 0 3 1;
#X connect 2 0 5 0;
#X connect 3 0 8 0;
#X connect 4 0 0 0;
#X connect 6 0 1 1;
#X connect 7 0 0 1;
#X connect 7 0 2 1;
#X restore 186 303 pd lp0;
#N canvas 1 57 450 486 lp2 0;
#X obj 114 120 -~;
#X obj 113 148 *~;
#X obj 113 202 +~;
#X obj 41 245 +~;
#X obj 113 42 inlet~;
#X obj 113 398 outlet~;
#X obj 327 54 inlet~;
#X obj 161 74 delread~ \$0-z2;
#X obj 40 340 delwrite~ \$0-z2;
#X connect 0 0 1 0;
#X connect 1 0 2 0;
#X connect 1 0 3 0;
#X connect 2 0 3 1;
#X connect 2 0 5 0;
#X connect 3 0 8 0;
#X connect 4 0 0 0;
#X connect 6 0 1 1;
#X connect 7 0 0 1;
#X connect 7 0 2 1;
#X restore 186 372 pd lp2;
#N canvas 1 57 450 503 lp3 0;
#X obj 114 120 -~;
#X obj 113 148 *~;
#X obj 113 202 +~;
#X obj 41 245 +~;
#X obj 113 42 inlet~;
#X obj 113 382 outlet~;
#X obj 332 59 inlet~;
#X obj 158 78 delread~ \$0-z3;
#X obj 40 339 delwrite~ \$0-z3;
#X connect 0 0 1 0;
#X connect 1 0 2 0;
#X connect 1 0 3 0;
#X connect 2 0 3 1;
#X connect 2 0 5 0;
#X connect 3 0 8 0;
#X connect 4 0 0 0;
#X connect 6 0 1 1;
#X connect 7 0 0 1;
#X connect 7 0 2 1;
#X restore 186 412 pd lp3;
#X obj 366 113 block~ 1 1 2;
#X obj 108 232 -~;
#X obj 65 526 outlet~;
#X obj 142 524 outlet~;
#X obj 219 31 inlet~;
#X obj 302 29 inlet~;
#N canvas 389 299 587 339 nonlinear 0;
#X obj 114 39 inlet~;
#X obj 114 283 outlet~;
#N canvas 1 50 450 300 hardclip 0;
#X obj 104 77 inlet~;
#X obj 104 100 clip~ -1 1;
#X obj 104 123 outlet~;
#X obj 270 18 r \$0-clip-func;
#X obj 270 64 switch~;
#X obj 270 41 == 3;
#X connect 0 0 1 0;
#X connect 1 0 2 0;
#X connect 3 0 5 0;
#X connect 5 0 4 0;
#X restore 322 172 pd hardclip;
#N canvas 1 50 450 300 algebraic 0;
#X obj 104 86 inlet~;
#X obj 103 221 outlet~;
#X obj 270 18 r \$0-clip-func;
#X obj 270 41 == 0;
#X obj 131 122 pow~ 2;
#X obj 131 145 +~ 1;
#X obj 131 168 sqrt~;
#X obj 103 192 /~;
#X obj 270 64 switch~;
#X connect 0 0 4 0;
#X connect 0 0 7 0;
#X connect 2 0 3 0;
#X connect 3 0 8 0;
#X connect 4 0 5 0;
#X connect 5 0 6 0;
#X connect 6 0 7 1;
#X connect 7 0 1 0;
#X restore 112 172 pd algebraic;
#N canvas 1 50 450 300 logistic 0;
#X obj 104 79 inlet~;
#X obj 106 197 outlet~;
#X obj 270 18 r \$0-clip-func;
#X obj 270 64 switch~;
#X obj 270 41 == 1;
#X obj 131 116 abs~;
#X obj 105 163 /~;
#X obj 131 139 +~ 1;
#X connect 0 0 5 0;
#X connect 0 0 6 0;
#X connect 2 0 4 0;
#X connect 4 0 3 0;
#X connect 5 0 7 0;
#X connect 6 0 1 0;
#X connect 7 0 6 1;
#X restore 192 172 pd logistic;
#N canvas 1 50 644 393 tanh 0;
#X obj 117 43 inlet~;
#X obj 97 249 outlet~;
#X obj 270 18 r \$0-clip-func;
#X obj 270 64 switch~;
#X text 104 76 eulerische zahl;
#X obj 203 114 *~ -1;
#X obj 181 135 pow~;
#X obj 96 125 pow~;
#X obj 96 93 sig~ 2.71828;
#X obj 165 175 +~;
#X obj 96 175 -~;
#X obj 96 220 /~;
#X obj 270 41 == 2;
#X connect 0 0 7 1;
#X connect 0 0 5 0;
#X connect 2 0 12 0;
#X connect 5 0 6 1;
#X connect 6 0 9 1;
#X connect 6 0 10 1;
#X connect 7 0 10 0;
#X connect 7 0 9 0;
#X connect 8 0 7 0;
#X connect 8 0 6 0;
#X connect 9 0 11 1;
#X connect 10 0 11 0;
#X connect 11 0 1 0;
#X connect 12 0 3 0;
#X restore 269 173 pd tanh;
#X msg 205 42 \$1 100;
#X obj 205 65 line~;
#X obj 113 252 *~;
#X obj 160 71 sig~ 1;
#X obj 160 94 /~;
#X obj 113 110 *~;
#X obj 205 89 +~ 1;
#X obj 205 18 r \$0-sat;
#X connect 0 0 11 0;
#X connect 2 0 8 0;
#X connect 3 0 8 0;
#X connect 4 0 8 0;
#X connect 5 0 8 0;
#X connect 6 0 7 0;
#X connect 7 0 12 0;
#X connect 8 0 1 0;
#X connect 9 0 10 0;
#X connect 10 0 11 1;
#X connect 11 0 3 0;
#X connect 11 0 5 0;
#X connect 11 0 4 0;
#X connect 11 0 2 0;
#X connect 12 0 8 1;
#X connect 12 0 10 1;
#X connect 13 0 6 0;
#X restore 134 194 pd nonlinear;
#X connect 0 0 9 0;
#X connect 1 0 6 0;
#X connect 3 0 4 0;
#X connect 4 0 14 0;
#X connect 5 0 1 0;
#X connect 5 0 2 0;
#X connect 6 0 11 0;
#X connect 6 0 7 0;
#X connect 9 0 5 0;
#X connect 9 0 10 0;
#X connect 12 0 3 0;
#X connect 12 0 5 1;
#X connect 12 0 1 1;
#X connect 12 0 6 1;
#X connect 12 0 7 1;
#X connect 13 0 4 1;
#X connect 14 0 9 1;
#X restore 347 285 pd ladder;
#X f 37;
#N canvas 1 57 450 584 wrap 0;
#X obj 242 52 samplerate~;
#X obj 242 77 expr 1/$f1;
#X obj 240 387 -~;
#X obj 240 364 sig~ 1;
#X obj 240 433 *~;
#X obj 105 21 inlet~;
#X text 148 22 freq;
#X obj 366 24 inlet~;
#X text 409 24 q;
#X obj 241 477 outlet~;
#X obj 141 475 outlet~;
#X obj 242 27 r pd-dsp-started;
#X obj 105 68 *~ 3.14159;
#X obj 142 95 *~;
#X obj 142 118 *~ 0.5;
#X obj 143 144 expr~ tan($v1);
#X obj 173 167 expr 2/$f1;
#X obj 143 167 *~;
#X obj 142 207 *~;
#X obj 167 249 +~ 1;
#X obj 141 248 /~;
#X obj 171 206 / 2;
#X connect 0 0 1 0;
#X connect 1 0 13 1;
#X connect 1 0 16 0;
#X connect 1 0 21 0;
#X connect 2 0 4 0;
#X connect 3 0 2 0;
#X connect 4 0 9 0;
#X connect 5 0 12 0;
#X connect 7 0 4 1;
#X connect 11 0 0 0;
#X connect 12 0 13 0;
#X connect 13 0 14 0;
#X connect 14 0 15 0;
#X connect 15 0 17 0;
#X connect 16 0 17 1;
#X connect 17 0 18 0;
#X connect 18 0 19 0;
#X connect 18 0 20 0;
#X connect 19 0 20 1;
#X connect 20 0 2 1;
#X connect 20 0 10 0;
#X connect 21 0 18 1;
#X restore 457 253 pd wrap cutoff;
#X f 20;
#X obj 799 58 inlet;
#N canvas 714 231 450 300 in 0;
#X obj 70 10 inlet;
#X obj 70 149 s \$0-filtertyper;
#X msg 70 117 0;
#X msg 98 119 1;
#X msg 130 119 2;
#X obj 72 219 s \$0-freqr;
#X obj 114 244 s \$0-qr;
#N canvas 698 546 200 251 route 0;
#X obj 20 20 inlet;
#X obj 30 60 route save recall;
#X obj 30 85 route float;
#X obj 97 111 route float;
#X obj 30 136 s \$0-save;
#X obj 30 108 i;
#X obj 98 133 i;
#X obj 98 161 s \$0-recall;
#X connect 0 0 1 0;
#X connect 1 0 2 0;
#X connect 1 1 3 0;
#X connect 2 0 5 0;
#X connect 3 0 6 0;
#X connect 5 0 4 0;
#X connect 6 0 7 0;
#X restore 162 36 pd route save-recall;
#N canvas 362 125 450 479 recall 0;
#X obj 49 145 outlet;
#N canvas 3 54 450 600 listsplit 0;
#X obj 158 23 inlet;
#X obj 220 87 list length;
#X obj 220 113 until;
#X obj 182 150 f;
#X obj 278 150 + 1;
#X msg 265 111 0;
#X obj 182 226 list store;
#X msg 182 202 get \$1 1;
#X obj 154 367 list split;
#X obj 222 342 f;
#X obj 154 334 list;
#X obj 98 124 list;
#X obj 182 389 list split 1;
#X obj 154 274 t bang bang bang;
#X obj 182 179 t f f;
#X obj 158 48 t l l l b;
#X obj 154 473 outlet;
#X obj 154 440 list trim;
#X obj 163 248 sel |;
#X text 275 197 hacky split list at "|";
#X connect 0 0 15 0;
#X connect 1 0 2 0;
#X connect 2 0 3 0;
#X connect 3 0 4 0;
#X connect 3 0 14 0;
#X connect 4 0 3 1;
#X connect 5 0 3 1;
#X connect 6 0 18 0;
#X connect 7 0 6 0;
#X connect 8 0 17 0;
#X connect 8 1 12 0;
#X connect 9 0 8 1;
#X connect 10 0 8 0;
#X connect 11 0 15 0;
#X connect 12 1 11 0;
#X connect 13 0 10 0;
#X connect 13 1 9 0;
#X connect 13 2 2 1;
#X connect 14 0 7 0;
#X connect 14 1 9 1;
#X connect 15 0 1 0;
#X connect 15 1 10 1;
#X connect 15 2 6 1;
#X connect 15 3 5 0;
#X connect 17 0 16 0;
#X connect 18 0 13 0;
#X restore 49 117 pd listsplit;
#X obj 49 24 r \$0-recall;
#X obj 49 54 pipe 1;
#X obj 221 409 text fromlist \$0-savestates;
#X obj 49 77 text get \$0-savestates;
#X msg 253 246 21;
#X obj 253 269 until;
#X obj 253 292 f;
#X obj 300 295 + 1;
#X obj 253 315 t b f;
#X obj 253 367 text set \$0-savestates;
#X obj 221 114 text tolist \$0-savestates;
#X msg 253 342 list empty_slot;
#X obj 221 160 t a b;
#X obj 151 166 loadbang;
#X obj 221 137 savestate;
#X obj 221 33 text define \$0-savestates;
#X obj 151 189 del 0;
#X msg 298 199 0;
#X obj 253 220 spigot 1;
#X connect 1 0 0 0;
#X connect 2 0 3 0;
#X connect 3 0 5 0;
#X connect 5 0 1 0;
#X connect 6 0 7 0;
#X connect 7 0 8 0;
#X connect 8 0 9 0;
#X connect 8 0 10 0;
#X connect 9 0 8 1;
#X connect 10 0 13 0;
#X connect 10 1 11 1;
#X connect 12 0 16 0;
#X connect 13 0 11 0;
#X connect 14 0 4 0;
#X connect 14 1 19 0;
#X connect 15 0 18 0;
#X connect 16 0 14 0;
#X connect 16 1 12 0;
#X connect 18 0 20 0;
#X connect 19 0 20 1;
#X connect 20 0 6 0;
#X restore 161 58 pd recall;
#X obj 70 91 route lowpass highpass reson;
#X obj 240 240 i;
#X obj 240 220 clip 0 3;
#X obj 240 263 s \$0-clip-func;
#X obj 72 191 route frequency q saturation func;
#X obj 169 222 s \$0-satr;
#X connect 0 0 7 0;
#X connect 0 0 9 0;
#X connect 2 0 1 0;
#X connect 3 0 1 0;
#X connect 4 0 1 0;
#X connect 8 0 9 0;
#X connect 9 0 2 0;
#X connect 9 1 3 0;
#X connect 9 2 4 0;
#X connect 9 3 13 0;
#X connect 10 0 12 0;
#X connect 11 0 10 0;
#X connect 13 0 5 0;
#X connect 13 1 6 0;
#X connect 13 2 14 0;
#X connect 13 3 11 0;
#X restore 799 79 pd in;
#X obj 796 435 outlet;
#N canvas 306 126 781 543 outlet-message 0;
#N canvas 155 411 986 300 bang_once.......................................
0;
#X obj 132 87 t b f;
#X obj 89 139 del 0;
#X obj 89 87 t b f;
#X obj 89 41 inlet;
#X obj 132 40 inlet;
#X obj 318 41 inlet;
#X obj 89 247 outlet;
#X obj 89 173 f;
#X obj 318 88 t b a;
#X obj 174 86 t b f;
#X obj 174 39 inlet;
#X obj 217 85 t b f;
#X obj 217 38 inlet;
#X obj 89 203 pack 0 0 0 0 s;
#X connect 0 0 1 0;
#X connect 0 1 13 1;
#X connect 1 0 7 0;
#X connect 2 0 1 0;
#X connect 2 1 7 1;
#X connect 3 0 2 0;
#X connect 4 0 0 0;
#X connect 5 0 8 0;
#X connect 7 0 13 0;
#X connect 8 0 1 0;
#X connect 8 1 13 4;
#X connect 9 0 1 0;
#X connect 9 1 13 2;
#X connect 10 0 9 0;
#X connect 11 0 1 0;
#X connect 11 1 13 3;
#X connect 12 0 11 0;
#X connect 13 0 6 0;
#X restore 222 244 pd bang_once.......................................
;
#X obj 290 427 list trim;
#X msg 209 395 addcomma;
#X msg 145 402 set;
#X obj 290 404 list prepend add2;
#X obj 289 482 outlet;
#X obj 222 79 r \$0-freq;
#X obj 296 105 r \$0-q;
#X obj 525 62 r \$0-filtertype;
#X obj 525 222 symbol;
#X msg 525 117 lowpass;
#X msg 539 138 highpass;
#X obj 525 96 sel 0 1 2;
#X obj 221 264 t b a b;
#X obj 243 350 t b a a;
#N canvas 497 319 297 264 save 0;
#X obj 48 16 inlet;
#N canvas 690 259 481 384 collect 0;
#X obj 47 60 inlet;
#X obj 47 274 outlet;
#X obj 98 180 list;
#X obj 166 181 t l;
#X obj 47 225 list;
#X obj 98 139 list append |;
#X obj 47 126 del 0;
#X obj 47 82 t b a;
#X text 119 75 hacky thing... replaycing " \, " with "|";
#X connect 0 0 7 0;
#X connect 2 0 3 0;
#X connect 2 0 4 1;
#X connect 3 0 2 1;
#X connect 4 0 1 0;
#X connect 5 0 2 0;
#X connect 6 0 2 1;
#X connect 6 0 4 0;
#X connect 7 0 6 0;
#X connect 7 1 5 0;
#X restore 48 38 pd collect;
#X obj 117 16 r \$0-save;
#X obj 27 130 text set \$0-savestates;
#X obj 27 104 list;
#X obj 117 62 t b f;
#X obj 117 39 clip 0 20;
#X connect 0 0 1 0;
#X connect 1 0 4 1;
#X connect 2 0 6 0;
#X connect 4 0 3 0;
#X connect 5 0 4 0;
#X connect 5 1 3 1;
#X connect 6 0 5 0;
#X restore 291 374 pd save;
#X msg 557 162 reson;
#X obj 449 28 r \$0-clip-func;
#X obj 373 126 r \$0-sat;
#X msg 243 323 \$5 \, frequency \$1 \, q \$2 \, saturation \$3 \, func
\$4;
#X connect 0 0 13 0;
#X connect 1 0 5 0;
#X connect 2 0 5 0;
#X connect 3 0 5 0;
#X connect 4 0 1 0;
#X connect 6 0 0 0;
#X connect 7 0 0 1;
#X connect 8 0 12 0;
#X connect 9 0 0 4;
#X connect 10 0 9 0;
#X connect 11 0 9 0;
#X connect 12 0 10 0;
#X connect 12 1 11 0;
#X connect 12 2 16 0;
#X connect 13 0 5 0;
#X connect 13 1 19 0;
#X connect 13 2 3 0;
#X connect 14 0 2 0;
#X connect 14 1 4 0;
#X connect 14 2 15 0;
#X connect 16 0 9 0;
#X connect 17 0 0 3;
#X connect 18 0 0 2;
#X connect 19 0 14 0;
#X restore 796 406 pd outlet-message;
#X obj 103 115 hsl 150 15 0 127 0 0 \$0-visbng \$0-visbngr Lowpass
50 8 2 10 -233017 -233017 -1 0 1;
#N canvas 50 100 235 130 \$0-ladder 1;
#N canvas 124 220 714 345 mask 0;
#X obj 100 100 cnv 15 219 119 empty empty empty 20 12 0 14 -262144
-66577 0;
#X obj 107 108 hradio 11 1 0 3 \$0-filtertype \$0-filtertyper Lowpass
39 6 2 10 -262144 -1 -1 0;
#X obj 110 138 hsl 128 12 0 135.076 0 0 \$0-fgui \$0-fguir Frequency
-2 -6 2 10 -262144 -1 -1 5200 1;
#X obj 244 138 nbx 5 12 0 20050 0 0 \$0-freq \$0-freqr hz 47 7 2 10
-262144 -1 -1 200 256;
#N canvas 1 57 450 300 map 0;
#X obj 103 37 inlet;
#X obj 192 54 inlet;
#X obj 103 173 outlet;
#X obj 192 127 outlet;
#X obj 103 76 mtof;
#X obj 103 127 i;
#X obj 192 81 ftom;
#X msg 192 102 set \$1;
#X msg 103 153 set \$1;
#X obj 62 207 s \$0-freq;
#X obj 103 98 + 0.5;
#X connect 0 0 4 0;
#X connect 1 0 6 0;
#X connect 4 0 10 0;
#X connect 5 0 8 0;
#X connect 5 0 9 0;
#X connect 6 0 7 0;
#X connect 7 0 3 0;
#X connect 8 0 2 0;
#X connect 10 0 5 0;
#X restore 47 136 pd map;
#X obj 110 165 hsl 128 12 0 5 0 0 \$0-qgui \$0-qguir Q -2 -7 2 10 -262144
-1 -1 9500 1;
#X obj 244 165 nbx 5 12 -99 100 0 0 \$0-q \$0-qr empty 47 7 2 10 -262144
-1 -1 3.74016 256;
#X obj 239 113 cnv 10 10 10 empty empty ladder~ 0 5 2 14 -262144 -162280
0;
#X msg 47 163 set \$1;
#X obj 110 193 hsl 128 12 0 5 0 0 \$0-satgui \$0-satguir Saturation
-2 -7 2 10 -262144 -1 -1 5300 1;
#X obj 244 193 nbx 5 12 0 100 0 0 \$0-sat \$0-satr empty 47 7 2 10
-262144 -1 -1 2.08661 256;
#X msg 47 186 set \$1;
#X connect 2 0 4 0;
#X connect 3 0 4 1;
#X connect 4 0 3 0;
#X connect 4 1 2 0;
#X connect 5 0 6 0;
#X connect 6 0 8 0;
#X connect 8 0 5 0;
#X connect 9 0 10 0;
#X connect 10 0 11 0;
#X connect 11 0 9 0;
#X coords 0 -1 1 1 220 120 2 100 100;
#X restore 5 2 pd mask;
#X restore 797 222 pd \$0-ladder;
#N canvas 298 96 514 596 stuff 0;
#X obj 132 59 r \$0-filtertype;
#X obj 132 304 s \$0-filtertyper;
#X msg 133 105 Lowpass;
#X msg 147 126 Highpass;
#X obj 132 262 symbol;
#X msg 132 283 label \$1;
#X obj 250 57 loadbang;
#X obj 249 160 pack 0 \$0;
#X obj 249 77 symbol \$1;
#X msg 249 119 0;
#X msg 277 121 1;
#X msg 309 121 2;
#X obj 148 328 s \$0-visbngr;
#X obj 170 476 s \$0-visbngr;
#X obj 152 371 r \$0-visbng;
#X msg 150 448 color 0 0;
#X msg 234 448 color 10 10;
#X obj 152 393 t b;
#X obj 232 423 del 250;
#X obj 366 123 t b;
#X obj 133 84 sel 0 1 2;
#X obj 116 525 s pd-\$0-ladder;
#X msg 249 181 \; \$2-filtertyper \$1 \;;
#X msg 165 150 Reson;
#X obj 249 98 sel lowpass highpass reson;
#X obj 266 239 loadbang;
#X msg 266 262 0;
#X obj 266 285 s \$0-clip-func;
#X msg 116 503 relocate 235x130+1+1 1x1+50+70 \, vis 1;
#X connect 0 0 20 0;
#X connect 2 0 4 0;
#X connect 3 0 4 0;
#X connect 4 0 5 0;
#X connect 5 0 1 0;
#X connect 5 0 12 0;
#X connect 6 0 8 0;
#X connect 7 0 22 0;
#X connect 8 0 24 0;
#X connect 9 0 7 0;
#X connect 10 0 7 0;
#X connect 11 0 7 0;
#X connect 14 0 17 0;
#X connect 15 0 13 0;
#X connect 16 0 13 0;
#X connect 17 0 15 0;
#X connect 17 0 18 0;
#X connect 17 0 28 0;
#X connect 18 0 16 0;
#X connect 19 0 7 0;
#X connect 20 0 2 0;
#X connect 20 1 3 0;
#X connect 20 2 23 0;
#X connect 23 0 4 0;
#X connect 24 0 9 0;
#X connect 24 1 10 0;
#X connect 24 2 11 0;
#X connect 24 3 19 0;
#X connect 25 0 26 0;
#X connect 26 0 27 0;
#X connect 28 0 21 0;
#X restore 797 245 pd stuff;
#X obj 405 67 pack f 20;
#X obj 405 92 line~;
#X obj 574 90 pack f 20;
#X obj 574 119 line~;
#X obj 405 46 r \$0-freq;
#X obj 574 46 r \$0-q;
#X obj 404 134 +~;
#X obj 574 166 +~;
#N canvas 1 57 450 300 samplerate 0;
#X obj 230 123 outlet;
#X obj 268 72 loadbang;
#X obj 230 96 samplerate~;
#X obj 230 52 r pd-dsp-started;
#X connect 1 0 2 0;
#X connect 2 0 0 0;
#X connect 3 0 2 0;
#X restore 478 143 pd samplerate;
#X obj 478 164 / 2;
#X obj 491 55 inlet~;
#X text 534 55 freq;
#X obj 689 56 inlet~;
#X text 730 58 q;
#X obj 403 190 clip~ 0 20050;
#X obj 574 195 clip~ 0 100;
#X obj 574 67 clip 0 100;
#X obj 347 56 inlet~;
#X obj 582 361 == 0;
#X obj 567 387 *~;
#X obj 346 388 *~;
#X obj 456 391 *~;
#X obj 361 362 == 1;
#X obj 471 367 == 2;
#X obj 346 441 outlet~;
#X text 934 451 philipp schmalfuß \, 2020;
#X obj 582 320 r \$0-filtertype;
#X obj 289 224 noise~;
#X obj 289 247 *~ 1e-12;
#X obj 347 330 -~;
#X obj 457 332 -~;
#X text 592 387 lop;
#X text 372 387 hip;
#X text 480 388 bp;
#X connect 0 0 38 0;
#X connect 0 1 39 0;
#X connect 0 2 28 0;
#X connect 0 2 38 1;
#X connect 0 2 39 1;
#X connect 1 0 0 1;
#X connect 1 1 0 2;
#X connect 2 0 3 0;
#X connect 5 0 4 0;
#X connect 9 0 10 0;
#X connect 10 0 15 0;
#X connect 11 0 12 0;
#X connect 12 0 16 0;
#X connect 13 0 9 0;
#X connect 14 0 25 0;
#X connect 15 0 23 0;
#X connect 16 0 24 0;
#X connect 17 0 18 0;
#X connect 18 0 23 2;
#X connect 19 0 15 1;
#X connect 21 0 16 1;
#X connect 23 0 1 0;
#X connect 24 0 1 1;
#X connect 25 0 11 0;
#X connect 26 0 0 0;
#X connect 27 0 28 1;
#X connect 28 0 33 0;
#X connect 29 0 33 0;
#X connect 30 0 33 0;
#X connect 31 0 29 1;
#X connect 32 0 30 1;
#X connect 35 0 27 0;
#X connect 35 0 31 0;
#X connect 35 0 32 0;
#X connect 36 0 37 0;
#X connect 37 0 0 0;
#X connect 38 0 29 0;
#X connect 39 0 30 0;
#X coords 0 -1 1 1 155 33 1 100 100;
