#N canvas 168 238 929 459 10;
#X obj 1 2 cnv 15 420 450 empty empty empty 20 12 0 14 #e0e0e0 #404040 0;
#X text 13 152 Inlets:;
#X text 13 213 Outlets:;
#X obj 14 16 cnv 15 10 10 empty empty pp.limit-st~ 0 0 2 16 #e0e0e0 #fcfcfc 0;
#X obj 439 385 pp.out~;
#A saved;
#N canvas 740 417 503 292 message-out 0;
#X obj 30 33 inlet;
#X msg 30 60 decay 500 \, lookahead 64 \,;
#X connect 0 0 1 0;
#X restore 587 300 pd message-out;
#X obj 438 224 *~;
#X obj 466 223 vline~;
#X obj 466 176 dbtorms;
#X obj 466 153 + 100;
#X msg 499 91 6;
#X msg 533 91 24;
#N canvas 0 50 450 250 (subpatch) 0;
#X array \$0-scope 48000 float 0;
#X coords 0 1 47999 -1 240 140 1 0 0;
#X restore 631 60 graph;
#X obj 526 348 tabwrite~ \$0-scope;
#X obj 466 129 t f b;
#X obj 511 152 s \$0-draw;
#X obj 526 322 r \$0-draw;
#X obj 438 20 osc~ 440;
#X msg 466 91 0;
#X msg 466 200 \$1 0 \, 0 1000 0;
#N canvas 1218 415 450 300 init 0;
#X obj 120 32 loadbang;
#X obj 120 55 samplerate~;
#X msg 120 78 resize \$1;
#X obj 120 101 s \$0-scope;
#X connect 0 0 1 0;
#X connect 1 0 2 0;
#X connect 2 0 3 0;
#X restore 328 7 pd init;
#X text 566 91 dBFS;
#X text 465 62 test tone;
#X text 13 68 Creation arguments: \$1: decay time in ms (default 500);
#X text 13 41 limit the range of incoming signal to -1 \, 1;
#X obj 439 259 pp.limit-st~;
#A saved empty_slot \; empty_slot \; empty_slot \; empty_slot \; empty_slot \; empty_slot \; empty_slot \; empty_slot \; empty_slot \; empty_slot \; empty_slot \; empty_slot \; empty_slot \; empty_slot \; empty_slot \; empty_slot \; empty_slot \; empty_slot \; empty_slot \; empty_slot \; empty_slot \;;
#X text 71 151 1:(~)signal left;
#X text 71 167 2:(~)signal right;
#X text 71 184 3:control-messages;
#X text 71 248 3:message;
#X text 71 213 1:(~)limited signal left;
#X text 71 230 2:(~)limited signal rigth;
#X obj 587 234 cnv 15 118 17 empty empty empty 20 12 0 14 #fc8000 #404040 0;
#N canvas 859 272 338 209 control-messages 0;
#X obj 57 180 outlet;
#X floatatom 57 34 5 0 0 0 - - - 0;
#X obj 101 147 cnv 16 87 16 empty empty empty 20 12 0 14 #fc8000 #404040 0;
#N canvas 864 246 634 307 save&recall 0;
#X obj 93 233 outlet;
#X msg 93 60 0;
#X msg 125 60 1;
#X msg 158 60 2;
#X msg 93 99 save \$1;
#X text 185 63 ...;
#X msg 207 60 20;
#X msg 149 154 0;
#X msg 181 154 1;
#X msg 214 154 2;
#X text 241 157 ...;
#X msg 263 154 20;
#X msg 149 193 recall \$1;
#X text 249 93 save & recall up to 20 presets \, presets will be saved with the parrent patch;
#X connect 1 0 4 0;
#X connect 2 0 4 0;
#X connect 3 0 4 0;
#X connect 4 0 0 0;
#X connect 6 0 4 0;
#X connect 7 0 12 0;
#X connect 8 0 12 0;
#X connect 9 0 12 0;
#X connect 11 0 12 0;
#X connect 12 0 0 0;
#X restore 101 146 pd save&recall;
#X msg 57 54 decay \$1;
#X text 98 35 decay time in ms;
#X floatatom 84 80 5 0 0 0 - - - 0;
#X msg 84 102 lookahead \$1;
#X text 122 81 "lookahead" delay in samps;
#X connect 1 0 4 0;
#X connect 3 0 0 0;
#X connect 4 0 0 0;
#X connect 6 0 7 0;
#X connect 7 0 0 0;
#X restore 587 234 pd control-messages;
#X text 132 85 \$2: "lookahead" delay in samps (default 64);
#X connect 6 0 25 0;
#X connect 6 0 25 1;
#X connect 7 0 6 1;
#X connect 8 0 19 0;
#X connect 9 0 8 0;
#X connect 10 0 14 0;
#X connect 11 0 14 0;
#X connect 14 0 9 0;
#X connect 14 1 15 0;
#X connect 16 0 13 0;
#X connect 17 0 6 0;
#X connect 18 0 14 0;
#X connect 19 0 7 0;
#X connect 25 0 4 0;
#X connect 25 1 13 0;
#X connect 25 1 4 1;
#X connect 25 2 5 0;
#X connect 33 0 25 2;
