#N canvas 537 172 1141 755 10;
#X obj 905 61 inlet;
#X obj 891 661 outlet;
#N canvas 447 268 752 354 in 0;
#X obj 31 56 inlet;
#N canvas 698 546 200 251 route 0;
#X obj 20 20 inlet;
#X obj 30 60 route save recall;
#X obj 30 85 route float;
#X obj 97 111 route float;
#X obj 30 136 s \$0-save;
#X obj 30 108 i;
#X obj 98 133 i;
#X obj 98 161 s \$0-recall;
#X connect 0 0 1 0;
#X connect 1 0 2 0;
#X connect 1 1 3 0;
#X connect 2 0 5 0;
#X connect 3 0 6 0;
#X connect 5 0 4 0;
#X connect 6 0 7 0;
#X restore 43 82 pd route save-recall;
#N canvas 362 125 450 479 recall 0;
#X obj 49 145 outlet;
#N canvas 3 54 450 600 listsplit 0;
#X obj 158 23 inlet;
#X obj 220 87 list length;
#X obj 220 113 until;
#X obj 182 150 f;
#X obj 278 150 + 1;
#X msg 265 111 0;
#X obj 182 226 list store;
#X msg 182 202 get \$1 1;
#X obj 154 367 list split;
#X obj 222 342 f;
#X obj 154 334 list;
#X obj 98 124 list;
#X obj 182 389 list split 1;
#X obj 154 274 t bang bang bang;
#X obj 182 179 t f f;
#X obj 158 48 t l l l b;
#X obj 154 473 outlet;
#X obj 154 440 list trim;
#X obj 163 248 sel |;
#X text 275 197 hacky split list at "|";
#X connect 0 0 15 0;
#X connect 1 0 2 0;
#X connect 2 0 3 0;
#X connect 3 0 4 0;
#X connect 3 0 14 0;
#X connect 4 0 3 1;
#X connect 5 0 3 1;
#X connect 6 0 18 0;
#X connect 7 0 6 0;
#X connect 8 0 17 0;
#X connect 8 1 12 0;
#X connect 9 0 8 1;
#X connect 10 0 8 0;
#X connect 11 0 15 0;
#X connect 12 1 11 0;
#X connect 13 0 10 0;
#X connect 13 1 9 0;
#X connect 13 2 2 1;
#X connect 14 0 7 0;
#X connect 14 1 9 1;
#X connect 15 0 1 0;
#X connect 15 1 10 1;
#X connect 15 2 6 1;
#X connect 15 3 5 0;
#X connect 17 0 16 0;
#X connect 18 0 13 0;
#X restore 49 117 pd listsplit;
#X obj 49 24 r \$0-recall;
#X obj 49 54 pipe 1;
#X obj 221 409 text fromlist \$0-savestates;
#X obj 49 77 text get \$0-savestates;
#X msg 253 246 21;
#X obj 253 269 until;
#X obj 253 292 f;
#X obj 300 295 + 1;
#X obj 253 315 t b f;
#X obj 253 367 text set \$0-savestates;
#X obj 221 114 text tolist \$0-savestates;
#X msg 253 342 list empty_slot;
#X obj 221 160 t a b;
#X obj 151 166 loadbang;
#X obj 221 137 savestate;
#X obj 221 33 text define \$0-savestates;
#X obj 151 189 del 0;
#X msg 298 199 0;
#X obj 253 220 spigot 1;
#X connect 1 0 0 0;
#X connect 2 0 3 0;
#X connect 3 0 5 0;
#X connect 5 0 1 0;
#X connect 6 0 7 0;
#X connect 7 0 8 0;
#X connect 8 0 9 0;
#X connect 8 0 10 0;
#X connect 9 0 8 1;
#X connect 10 0 13 0;
#X connect 10 1 11 1;
#X connect 12 0 16 0;
#X connect 13 0 11 0;
#X connect 14 0 4 0;
#X connect 14 1 19 0;
#X connect 15 0 18 0;
#X connect 16 0 14 0;
#X connect 16 1 12 0;
#X connect 18 0 20 0;
#X connect 19 0 20 1;
#X connect 20 0 6 0;
#X restore 109 104 pd recall;
#X obj 83 275 s \$0-clear;
#X obj 83 253 t b;
#X obj 135 232 s \$1-rec;
#X obj 240 182 clip 0 100;
#X obj 31 186 max 0;
#X obj 575 179 != 0;
#X obj 135 184 i;
#X obj 135 207 clip 0 3;
#X obj 474 179 max 0;
#X obj 31 213 s \$0-lengthr;
#X obj 212 235 s \$0-feedbackr;
#X obj 240 204 s \$0-dampingr;
#X obj 340 201 s \$0-lopr;
#X obj 403 201 s \$0-hipr;
#X obj 474 202 s \$0-flutterr;
#X obj 575 202 s \$0-softclipr;
#X obj 31 136 route length clear rec feedback damping lop hip flutter softclip, f 71;
#X connect 0 0 1 0;
#X connect 0 0 19 0;
#X connect 2 0 19 0;
#X connect 4 0 3 0;
#X connect 6 0 14 0;
#X connect 7 0 12 0;
#X connect 8 0 18 0;
#X connect 9 0 10 0;
#X connect 10 0 5 0;
#X connect 11 0 17 0;
#X connect 19 0 7 0;
#X connect 19 1 4 0;
#X connect 19 2 9 0;
#X connect 19 3 13 0;
#X connect 19 4 6 0;
#X connect 19 5 15 0;
#X connect 19 6 16 0;
#X connect 19 7 11 0;
#X connect 19 8 8 0;
#X restore 905 86 pd in;
#N canvas 301 498 1161 411 stuff 0;
#X obj 338 194 s \$0-visbngr;
#X obj 320 89 r \$0-visbng;
#X msg 318 166 color 0 0;
#X msg 402 166 color 10 10;
#X obj 320 111 t b;
#X obj 400 141 del 250;
#X obj 284 243 s pd-\$0-loop.play;
#X obj 567 74 r \$0-rec;
#X obj 567 96 sel 1 2 3;
#X msg 567 121 2 3;
#X msg 596 122 1 3;
#X msg 627 123 1 2;
#X obj 567 161 pack f f \$0;
#X msg 566 186 \; \$3-recr\$1 set 0 \; \$3-recr\$2 set 0;
#X obj 871 73 r \$0-rec;
#X msg 284 221 relocate 265x210+1+1 1x1+50+60 \, vis 1;
#X obj 871 96 s \$1-rec;
#X obj 741 129 pack 0 \$0;
#X msg 741 154 \; \$2-recr\$1 set \$1 \;;
#X obj 695 101 sel 0;
#X obj 695 76 r \$1-rec;
#X obj 695 127 f;
#X obj 695 194 pack 0 \$0;
#X msg 695 219 \; \$2-recr\$1 set 0 \;;
#X connect 1 0 4 0;
#X connect 2 0 0 0;
#X connect 3 0 0 0;
#X connect 4 0 2 0;
#X connect 4 0 5 0;
#X connect 4 0 15 0;
#X connect 5 0 3 0;
#X connect 7 0 8 0;
#X connect 8 0 9 0;
#X connect 8 1 10 0;
#X connect 8 2 11 0;
#X connect 9 0 12 0;
#X connect 10 0 12 0;
#X connect 11 0 12 0;
#X connect 12 0 13 0;
#X connect 14 0 16 0;
#X connect 15 0 6 0;
#X connect 17 0 18 0;
#X connect 19 0 21 0;
#X connect 19 1 17 0;
#X connect 19 1 21 1;
#X connect 20 0 19 0;
#X connect 21 0 22 0;
#X connect 22 0 23 0;
#X restore 903 165 pd stuff;
#X obj 103 115 hsl 175 15 0 127 0 0 \$0-visbng \$0-visbngr empty 50 8 2 10 #e0e0e0 #e0e0e0 #000000 0 1;
#N canvas 621 189 893 431 outlet-message 0;
#X obj 100 37 t b f;
#X obj 100 85 del 0;
#X obj 150 334 list trim;
#X msg 61 330 addcomma;
#X msg 21 328 set;
#X obj 150 311 list prepend add2;
#X obj 150 402 outlet;
#X obj 100 112 f;
#X obj 177 37 t b f;
#X obj 265 35 t b f;
#X obj 101 158 t b a b;
#X obj 131 258 t b a a;
#N canvas 497 319 297 264 save 0;
#X obj 48 16 inlet;
#N canvas 690 259 481 384 collect 0;
#X obj 47 60 inlet;
#X obj 47 274 outlet;
#X obj 98 180 list;
#X obj 166 181 t l;
#X obj 47 225 list;
#X obj 98 139 list append |;
#X obj 47 126 del 0;
#X obj 47 82 t b a;
#X text 119 75 hacky thing... replaycing " \, " with "|";
#X connect 0 0 7 0;
#X connect 2 0 3 0;
#X connect 2 0 4 1;
#X connect 3 0 2 1;
#X connect 4 0 1 0;
#X connect 5 0 2 0;
#X connect 6 0 2 1;
#X connect 6 0 4 0;
#X connect 7 0 6 0;
#X connect 7 1 5 0;
#X restore 48 38 pd collect;
#X obj 117 16 r \$0-save;
#X obj 27 130 text set \$0-savestates;
#X obj 27 104 list;
#X obj 117 62 t b f;
#X obj 117 39 clip 0 20;
#X connect 0 0 1 0;
#X connect 1 0 4 1;
#X connect 2 0 6 0;
#X connect 4 0 3 0;
#X connect 5 0 4 0;
#X connect 5 1 3 1;
#X connect 6 0 5 0;
#X restore 171 284 pd save;
#X obj 177 13 r \$0-feedback;
#X obj 265 13 r \$0-damping;
#X obj 350 35 t b f;
#X obj 350 13 r \$0-lop;
#X obj 412 35 t b f;
#X obj 412 13 r \$0-hip;
#X obj 475 35 t b f;
#X obj 475 13 r \$0-flutter;
#X obj 556 35 t b f;
#X obj 556 13 r \$0-softclip;
#X obj 68 11 r \$0-lengthout;
#X obj 643 35 t b f;
#X obj 643 13 r \$0-rec;
#X msg 131 216 length \$1 \, feedback \$2 \, damping \$3 \, lop \$4 \, hip \$5 \, flutter \$6 \, softclip \$7 \, rec \$8;
#X obj 101 134 pack 0 0 0 0 0 0 0 0, f 82;
#X connect 0 0 1 0;
#X connect 0 1 7 1;
#X connect 1 0 7 0;
#X connect 2 0 6 0;
#X connect 3 0 6 0;
#X connect 4 0 6 0;
#X connect 5 0 2 0;
#X connect 7 0 27 0;
#X connect 8 0 1 0;
#X connect 8 1 27 1;
#X connect 9 0 1 0;
#X connect 9 1 27 2;
#X connect 10 0 6 0;
#X connect 10 1 26 0;
#X connect 10 2 4 0;
#X connect 11 0 3 0;
#X connect 11 1 5 0;
#X connect 11 2 12 0;
#X connect 13 0 8 0;
#X connect 14 0 9 0;
#X connect 15 0 1 0;
#X connect 15 1 27 3;
#X connect 16 0 15 0;
#X connect 17 0 1 0;
#X connect 17 1 27 4;
#X connect 18 0 17 0;
#X connect 19 0 1 0;
#X connect 19 1 27 5;
#X connect 20 0 19 0;
#X connect 21 0 1 0;
#X connect 21 1 27 6;
#X connect 22 0 21 0;
#X connect 23 0 0 0;
#X connect 24 0 1 0;
#X connect 24 1 27 7;
#X connect 25 0 24 0;
#X connect 26 0 11 0;
#X connect 27 0 10 0;
#X restore 891 637 pd outlet-message;
#N canvas 50 60 265 210 \$0-loop.play 1;
#N canvas 277 51 1124 402 mask 0;
#X obj 100 100 cnv 15 254 199 empty empty empty 20 12 0 14 #fcfcfc #404040 0;
#X obj 108 117 cnv 10 10 10 empty \$0-name loop.rec~\ \ no_buffer 0 5 2 16 #fcfcfc #9c9c9c 0;
#X obj 117 146 tgl 14 0 \$0-rec \$0-recr1 Record 19 10 2 10 #fcfcfc #000000 #000000 0 1;
#X obj 117 168 tgl 14 0 \$0-rec \$0-recr2 Overwrite 19 10 2 10 #fcfcfc #000000 #000000 0 2;
#X obj 117 190 tgl 14 0 \$0-rec \$0-recr3 Overdub 19 10 2 10 #fcfcfc #000000 #000000 0 3;
#X obj 209 148 nbx 7 12 0 1e+17 0 0 \$0-length \$0-lengthr Length\ (ms) 65 7 2 10 #fcfcfc #000000 #000000 0 256;
#X obj 223 168 nbx 5 12 0 1e+06 0 0 \$0-feedback \$0-feedbackr Feedback\ (%) 51 7 2 10 #fcfcfc #000000 #000000 0 256;
#X obj 117 223 nbx 5 12 0 100 0 0 \$0-damping \$0-dampingr Damping\ (%) 51 7 2 10 #fcfcfc #000000 #000000 0 256;
#X obj 117 244 nbx 5 12 0 20000 0 0 \$0-lop \$0-lopr Lop\ (hz) 51 7 2 10 #fcfcfc #000000 #000000 0 256;
#X obj 117 265 nbx 5 12 0 20000 0 0 \$0-hip \$0-hipr Hip\ (hz) 51 7 2 10 #fcfcfc #000000 #000000 0 256;
#X obj 252 223 nbx 5 12 0 100000 0 0 \$0-flutter \$0-flutterr Flutter 51 7 2 10 #fcfcfc #000000 #000000 0 256;
#X obj 252 263 tgl 14 0 \$0-softclip \$0-softclipr Softclip 19 10 2 10 #fcfcfc #000000 #000000 0 1;
#X coords 0 -1 1 1 255 200 2 100 100;
#X restore 5 2 pd mask;
#X restore 903 192 pd \$0-loop.play;
#X obj 338 217 *~;
#X obj 365 211 line~;
#X obj 338 662 delwrite~ \$1 \$2;
#X msg 428 615 clear;
#X obj 471 587 r \$0-clear;
#X obj 365 139 r \$1-rec;
#X msg 365 188 \$1 5;
#X obj 644 142 +~;
#X obj 337 479 +~;
#X obj 645 79 inlet~;
#X obj 365 164 != 0;
#X obj 644 187 clip~ 0 \$2;
#X obj 644 210 s~ \$1-setsize;
#X obj 487 329 r~ \$1-setsize;
#X obj 352 446 *~;
#X obj 352 320 r \$0-feedback;
#X obj 352 413 line~;
#N canvas 421 2 374 393 damping 0;
#X obj 64 120 inlet~;
#X obj 64 227 outlet~;
#N canvas 1 2 556 300 pass 0;
#X obj 173 83 inlet~;
#X obj 173 106 outlet~;
#X obj 293 52 r \$0-damping;
#X obj 293 75 == 0;
#X obj 293 103 switch~ 1;
#X connect 0 0 1 0;
#X connect 2 0 3 0;
#X connect 3 0 4 0;
#X restore 63 181 pd pass;
#N canvas 1171 -102 553 682 filter 0;
#X obj 136 547 +~;
#X obj 257 418 r \$0-lop;
#X obj 150 229 -~;
#X obj 150 294 *~;
#X obj 135 323 +~;
#X obj 190 148 r \$0-hip;
#X obj 189 499 -~;
#X obj 206 529 *~;
#X obj 135 114 +~;
#X obj 221 231 / 100;
#X obj 221 254 clip 0 1;
#X obj 206 442 lop~ 4000;
#X obj 206 466 lop~ 4000;
#X obj 221 208 r \$0-damping;
#X obj 151 173 hip~ 20;
#X obj 150 195 hip~ 20;
#X obj 135 76 inlet~;
#X obj 137 642 outlet~;
#X obj 463 32 r \$0-damping;
#X obj 463 55 != 0;
#X obj 463 78 switch~;
#X connect 0 0 17 0;
#X connect 1 0 11 1;
#X connect 1 0 12 1;
#X connect 2 0 3 0;
#X connect 3 0 4 1;
#X connect 4 0 6 1;
#X connect 4 0 0 0;
#X connect 4 0 11 0;
#X connect 5 0 14 1;
#X connect 5 0 15 1;
#X connect 6 0 7 0;
#X connect 7 0 0 1;
#X connect 8 0 2 1;
#X connect 8 0 4 0;
#X connect 8 0 14 0;
#X connect 9 0 10 0;
#X connect 10 0 7 1;
#X connect 10 0 3 1;
#X connect 11 0 12 0;
#X connect 12 0 6 0;
#X connect 13 0 9 0;
#X connect 14 0 15 0;
#X connect 15 0 2 0;
#X connect 16 0 8 0;
#X connect 18 0 19 0;
#X connect 19 0 20 0;
#X restore 134 182 pd filter;
#X connect 0 0 2 0;
#X connect 0 0 3 0;
#X connect 2 0 1 0;
#X connect 3 0 1 0;
#X restore 338 554 pd damping;
#X obj 488 355 delread4~ \$1;
#X obj 428 539 r \$1-rec;
#X obj 428 562 == 1;
#X obj 428 585 sel 1;
#X msg 352 390 \$1 5;
#N canvas 0 0 450 300 logic 0;
#X obj 114 134 / 100;
#X obj 114 246 f;
#X obj 210 135 t f f;
#X obj 237 160 sel 1;
#X obj 114 10 inlet;
#X obj 210 9 inlet;
#X obj 114 163 list prepend 0;
#X obj 114 186 list trim;
#X obj 134 274 outlet;
#X obj 210 60 != 1;
#X obj 252 60 != 2;
#X obj 210 34 t f f;
#X obj 210 86 &&;
#X obj 114 209 route 1 0;
#X text 194 243 a little logic to save one *~;
#X connect 0 0 6 0;
#X connect 1 0 8 0;
#X connect 2 0 6 1;
#X connect 2 1 3 0;
#X connect 3 0 1 0;
#X connect 3 1 8 0;
#X connect 4 0 0 0;
#X connect 5 0 11 0;
#X connect 6 0 7 0;
#X connect 7 0 13 0;
#X connect 9 0 12 0;
#X connect 10 0 12 1;
#X connect 11 0 9 0;
#X connect 11 1 10 0;
#X connect 12 0 2 0;
#X connect 13 0 1 0;
#X connect 13 1 1 1;
#X restore 352 367 pd logic;
#X obj 397 342 r \$1-rec;
#N canvas 441 159 622 441 flutter 0;
#X obj 91 72 noise~;
#X obj 91 99 samphold~;
#X obj 93 331 outlet~;
#X obj 93 242 *~;
#X msg 124 196 \$1 100;
#X obj 124 219 line~;
#X obj 143 72 phasor~ 12.6;
#X obj 124 149 r \$0-flutter;
#X obj 92 121 lop~ 10;
#X obj 92 285 -~;
#X obj 124 173 / 100;
#X connect 0 0 1 0;
#X connect 1 0 8 0;
#X connect 3 0 9 0;
#X connect 4 0 5 0;
#X connect 5 0 3 1;
#X connect 5 0 9 1;
#X connect 6 0 1 1;
#X connect 7 0 10 0;
#X connect 8 0 3 0;
#X connect 9 0 2 0;
#X connect 10 0 4 0;
#X restore 677 162 pd flutter;
#X obj 645 163 +~;
#N canvas 1014 569 370 381 softclip 0;
#X obj 37 120 inlet~;
#X obj 37 227 outlet~;
#N canvas 1 2 556 300 pass 0;
#X obj 173 83 inlet~;
#X obj 173 106 outlet~;
#X obj 293 75 == 0;
#X obj 293 103 switch~ 1;
#X obj 293 52 r \$0-softclip;
#X connect 0 0 1 0;
#X connect 2 0 3 0;
#X connect 4 0 2 0;
#X restore 36 181 pd pass;
#N canvas 1259 519 553 403 softclip 0;
#X obj 394 58 != 0;
#X obj 394 81 switch~;
#X obj 178 38 inlet~;
#X obj 178 353 outlet~;
#X obj 246 91 *~;
#X obj 179 188 *~;
#X obj 179 288 *~;
#X obj 232 175 sig~ 1;
#X obj 232 200 /~;
#X obj 246 138 sqrt~;
#N canvas 846 232 992 414 softclip 0;
#X obj 104 33 inlet~;
#X obj 103 330 outlet~;
#X obj 104 56 clip~ -3 3;
#X obj 139 93 *~;
#X obj 140 266 /~;
#X obj 103 301 *~;
#X obj 195 170 *~;
#X obj 139 234 +~ 9;
#X obj 194 233 +~ 9;
#X obj 211 137 +~ 3;
#X obj 210 110 *~ 9;
#N canvas 0 0 450 300 noise 0;
#X obj 173 48 noise~;
#X obj 173 71 outlet~;
#X obj 305 69 block~ 4 1 0.0625;
#X connect 0 0 1 0;
#X restore 210 54 pd noise downsample;
#X obj 210 83 lop~ 10;
#X connect 0 0 2 0;
#X connect 2 0 3 0;
#X connect 2 0 3 1;
#X connect 2 0 5 0;
#X connect 3 0 6 0;
#X connect 3 0 7 0;
#X connect 4 0 5 1;
#X connect 5 0 1 0;
#X connect 6 0 8 0;
#X connect 7 0 4 0;
#X connect 8 0 4 1;
#X connect 9 0 6 1;
#X connect 10 0 9 0;
#X connect 11 0 12 0;
#X connect 12 0 10 0;
#X restore 178 241 pd softclip;
#X obj 394 35 r \$0-softclip;
#X obj 246 113 lop~ 1;
#X connect 0 0 1 0;
#X connect 2 0 4 0;
#X connect 2 0 4 1;
#X connect 2 0 5 0;
#X connect 4 0 12 0;
#X connect 5 0 10 0;
#X connect 6 0 3 0;
#X connect 7 0 8 0;
#X connect 8 0 6 1;
#X connect 9 0 8 1;
#X connect 9 0 5 1;
#X connect 10 0 6 0;
#X connect 11 0 0 0;
#X connect 12 0 9 0;
#X restore 103 181 pd softclip;
#X connect 0 0 2 0;
#X connect 0 0 3 0;
#X connect 2 0 1 0;
#X connect 3 0 1 0;
#X restore 338 519 pd softclip;
#X obj 337 81 inlet~;
#N canvas 955 180 735 573 set-length 0;
#X obj 205 167 sel 1 0;
#X obj 205 251 timer;
#X obj 260 411 f;
#X obj 205 97 r \$1-rec;
#X obj 260 501 outlet;
#X obj 205 120 == 1;
#X obj 205 143 change;
#X obj 260 253 f 1e+24;
#X obj 276 387 t b f;
#X obj 33 359 r \$0-length;
#X msg 32 291 set \$1;
#X obj 32 314 s \$0-lengthr;
#X obj 88 446 s \$0-lengthout;
#X obj 88 419 min \$2;
#X obj 260 452 min;
#X obj 276 357 r \$0-init_looplength;
#X connect 0 0 1 0;
#X connect 0 0 7 0;
#X connect 0 1 1 1;
#X connect 1 0 2 0;
#X connect 1 0 10 0;
#X connect 1 0 13 0;
#X connect 2 0 14 0;
#X connect 3 0 5 0;
#X connect 5 0 6 0;
#X connect 6 0 0 0;
#X connect 7 0 2 0;
#X connect 8 0 2 0;
#X connect 8 1 14 1;
#X connect 9 0 2 0;
#X connect 9 0 13 0;
#X connect 10 0 11 0;
#X connect 13 0 12 0;
#X connect 14 0 4 0;
#X connect 15 0 8 0;
#X connect 15 0 13 1;
#X restore 699 79 pd set-length;
#X obj 647 634 r \$0-lengthout;
#X obj 647 657 outlet;
#X text 1000 682 p.s. 2023;
#N canvas 700 257 855 571 init 0;
#X obj 45 14 loadbang;
#X msg 45 439 \; \$1-feedbackr 100 \; \$1-lopr 5000 \; \$1-hipr 50 \; \$1-damping 0 \; \$1-softclip 0 \; \$1-name label loop.rec~\\\ \\\ \$2;
#X obj 102 85 pdcontrol;
#X msg 102 61 args;
#X obj 45 37 t b b;
#X msg 119 313 no_buffer;
#X msg 235 261 max. loop length \$1 ms;
#X obj 210 230 / 1.5;
#X obj 210 311 s \$0-init_looplength;
#X obj 45 412 pack \$0 s, f 10;
#X obj 102 348 symbol;
#X obj 102 161 list split 1;
#X msg 414 222 missing arguments for buffer name and size;
#X obj 210 201 route float;
#X msg 414 252 missing argument for maximum loop length;
#X obj 102 110 route list symbol bang;
#X obj 414 313 print pp.loop.rec~ \$1;
#X connect 0 0 4 0;
#X connect 2 0 15 0;
#X connect 3 0 2 0;
#X connect 4 0 9 0;
#X connect 4 1 3 0;
#X connect 5 0 10 0;
#X connect 6 0 16 0;
#X connect 7 0 6 0;
#X connect 7 0 8 0;
#X connect 9 0 1 0;
#X connect 10 0 9 1;
#X connect 11 0 10 0;
#X connect 11 1 13 0;
#X connect 12 0 16 0;
#X connect 13 0 7 0;
#X connect 13 1 14 0;
#X connect 14 0 16 0;
#X connect 15 0 11 0;
#X connect 15 1 14 0;
#X connect 15 1 5 0;
#X connect 15 2 5 0;
#X connect 15 2 12 0;
#X connect 15 3 12 0;
#X restore 904 135 pd init;
#X connect 0 0 2 0;
#X connect 5 0 1 0;
#X connect 7 0 15 0;
#X connect 8 0 7 1;
#X connect 10 0 9 0;
#X connect 11 0 10 0;
#X connect 12 0 17 0;
#X connect 13 0 8 0;
#X connect 14 0 33 0;
#X connect 15 0 34 0;
#X connect 16 0 14 0;
#X connect 17 0 13 0;
#X connect 18 0 19 0;
#X connect 20 0 25 0;
#X connect 21 0 15 1;
#X connect 22 0 30 0;
#X connect 23 0 21 0;
#X connect 24 0 9 0;
#X connect 25 0 21 1;
#X connect 26 0 27 0;
#X connect 27 0 28 0;
#X connect 28 0 10 0;
#X connect 29 0 23 0;
#X connect 30 0 29 0;
#X connect 31 0 30 1;
#X connect 32 0 33 1;
#X connect 33 0 18 0;
#X connect 34 0 24 0;
#X connect 35 0 7 0;
#X connect 36 0 14 1;
#X connect 37 0 38 0;
#X coords 0 -1 1 1 180 33 1 100 100;
