#N canvas 252 44 1091 954 10;
#X obj 905 61 inlet;
#X obj 891 886 outlet;
#N canvas 186 269 494 300 in 0;
#X obj 31 56 inlet;
#N canvas 698 546 200 251 route 0;
#X obj 20 20 inlet;
#X obj 30 60 route save recall;
#X obj 30 85 route float;
#X obj 97 111 route float;
#X obj 30 136 s \$0-save;
#X obj 30 108 i;
#X obj 98 133 i;
#X obj 98 161 s \$0-recall;
#X connect 0 0 1 0;
#X connect 1 0 2 0;
#X connect 1 1 3 0;
#X connect 2 0 5 0;
#X connect 3 0 6 0;
#X connect 5 0 4 0;
#X connect 6 0 7 0;
#X restore 43 82 pd route save-recall;
#N canvas 362 125 450 479 recall 0;
#X obj 49 145 outlet;
#N canvas 3 54 450 600 listsplit 0;
#X obj 158 23 inlet;
#X obj 220 87 list length;
#X obj 220 113 until;
#X obj 182 150 f;
#X obj 278 150 + 1;
#X msg 265 111 0;
#X obj 182 226 list store;
#X msg 182 202 get \$1 1;
#X obj 154 367 list split;
#X obj 222 342 f;
#X obj 154 334 list;
#X obj 98 124 list;
#X obj 182 389 list split 1;
#X obj 154 274 t bang bang bang;
#X obj 182 179 t f f;
#X obj 158 48 t l l l b;
#X obj 154 473 outlet;
#X obj 154 440 list trim;
#X obj 163 248 sel |;
#X text 275 197 hacky split list at "|";
#X connect 0 0 15 0;
#X connect 1 0 2 0;
#X connect 2 0 3 0;
#X connect 3 0 4 0;
#X connect 3 0 14 0;
#X connect 4 0 3 1;
#X connect 5 0 3 1;
#X connect 6 0 18 0;
#X connect 7 0 6 0;
#X connect 8 0 17 0;
#X connect 8 1 12 0;
#X connect 9 0 8 1;
#X connect 10 0 8 0;
#X connect 11 0 15 0;
#X connect 12 1 11 0;
#X connect 13 0 10 0;
#X connect 13 1 9 0;
#X connect 13 2 2 1;
#X connect 14 0 7 0;
#X connect 14 1 9 1;
#X connect 15 0 1 0;
#X connect 15 1 10 1;
#X connect 15 2 6 1;
#X connect 15 3 5 0;
#X connect 17 0 16 0;
#X connect 18 0 13 0;
#X restore 49 117 pd listsplit;
#X obj 49 24 r \$0-recall;
#X obj 49 54 pipe 1;
#X obj 221 409 text fromlist \$0-savestates;
#X obj 49 77 text get \$0-savestates;
#X msg 253 246 21;
#X obj 253 269 until;
#X obj 253 292 f;
#X obj 300 295 + 1;
#X obj 253 315 t b f;
#X obj 253 367 text set \$0-savestates;
#X obj 221 114 text tolist \$0-savestates;
#X msg 253 342 list empty_slot;
#X obj 221 160 t a b;
#X obj 151 166 loadbang;
#X obj 221 137 savestate;
#X obj 221 33 text define \$0-savestates;
#X obj 151 189 del 0;
#X msg 298 199 0;
#X obj 253 220 spigot 1;
#X connect 1 0 0 0;
#X connect 2 0 3 0;
#X connect 3 0 5 0;
#X connect 5 0 1 0;
#X connect 6 0 7 0;
#X connect 7 0 8 0;
#X connect 8 0 9 0;
#X connect 8 0 10 0;
#X connect 9 0 8 1;
#X connect 10 0 13 0;
#X connect 10 1 11 1;
#X connect 12 0 16 0;
#X connect 13 0 11 0;
#X connect 14 0 4 0;
#X connect 14 1 19 0;
#X connect 15 0 18 0;
#X connect 16 0 14 0;
#X connect 16 1 12 0;
#X connect 18 0 20 0;
#X connect 19 0 20 1;
#X connect 20 0 6 0;
#X restore 109 104 pd recall;
#X obj 31 181 s \$0-speedr;
#X obj 111 188 s \$0-positionr;
#X obj 202 188 s \$0-phaser;
#X obj 111 159 wrap;
#X obj 202 160 wrap;
#X obj 31 127 route speed position phase reset;
#X obj 282 163 t b;
#X obj 282 186 s \$0-reset;
#X connect 0 0 1 0;
#X connect 0 0 8 0;
#X connect 2 0 8 0;
#X connect 6 0 4 0;
#X connect 7 0 5 0;
#X connect 8 0 3 0;
#X connect 8 1 6 0;
#X connect 8 2 7 0;
#X connect 8 3 9 0;
#X connect 9 0 10 0;
#X restore 905 86 pd in;
#N canvas 673 185 1129 368 stuff 0;
#X obj 146 184 s \$0-visbngr;
#X obj 128 79 r \$0-visbng;
#X msg 126 156 color 0 0;
#X msg 210 156 color 10 10;
#X obj 128 101 t b;
#X obj 208 131 del 250;
#X obj 92 233 s pd-\$0-loop.play;
#X obj 400 74 r \$0-reset;
#X obj 400 97 f \$0;
#X msg 400 120 \; \$1-speedr 1 \; \$1-positionr 0 \; \$1-phaser 0 \;;
#X msg 92 211 relocate 230x149+1+1 1x1+50+60 \, vis 1 \, editmode 0;
#X connect 1 0 4 0;
#X connect 2 0 0 0;
#X connect 3 0 0 0;
#X connect 4 0 2 0;
#X connect 4 0 5 0;
#X connect 4 0 10 0;
#X connect 5 0 3 0;
#X connect 7 0 8 0;
#X connect 8 0 9 0;
#X connect 10 0 6 0;
#X restore 904 168 pd stuff;
#X obj 103 115 hsl 150 15 0 127 0 0 \$0-visbng \$0-visbngr empty 50 8 2 10 #e0e0e0 #e0e0e0 #000000 0 1;
#N canvas 118 64 893 431 outlet-message 0;
#X obj 100 37 t b f;
#X obj 100 85 del 0;
#X obj 150 314 list trim;
#X msg 61 310 addcomma;
#X msg 21 308 set;
#X obj 150 291 list prepend add2;
#X obj 150 382 outlet;
#X obj 100 112 f;
#X obj 172 35 t b f;
#X obj 260 33 t b f;
#X obj 101 158 t b a b;
#X obj 131 238 t b a a;
#N canvas 497 319 297 264 save 0;
#X obj 48 16 inlet;
#N canvas 690 259 481 384 collect 0;
#X obj 47 60 inlet;
#X obj 47 274 outlet;
#X obj 98 180 list;
#X obj 166 181 t l;
#X obj 47 225 list;
#X obj 98 139 list append |;
#X obj 47 126 del 0;
#X obj 47 82 t b a;
#X text 119 75 hacky thing... replaycing " \, " with "|";
#X connect 0 0 7 0;
#X connect 2 0 3 0;
#X connect 2 0 4 1;
#X connect 3 0 2 1;
#X connect 4 0 1 0;
#X connect 5 0 2 0;
#X connect 6 0 2 1;
#X connect 6 0 4 0;
#X connect 7 0 6 0;
#X connect 7 1 5 0;
#X restore 48 38 pd collect;
#X obj 117 16 r \$0-save;
#X obj 27 130 text set \$0-savestates;
#X obj 27 104 list;
#X obj 117 62 t b f;
#X obj 117 39 clip 0 20;
#X connect 0 0 1 0;
#X connect 1 0 4 1;
#X connect 2 0 6 0;
#X connect 4 0 3 0;
#X connect 5 0 4 0;
#X connect 5 1 3 1;
#X connect 6 0 5 0;
#X restore 171 264 pd save;
#X obj 172 11 r \$0-position;
#X obj 260 11 r \$0-phase;
#X obj 101 132 pack 1 1 0;
#X msg 130 216 speed \$1 \, position \$2 \, phase \$3;
#X obj 100 12 r \$0-speed;
#X connect 0 0 1 0;
#X connect 0 1 7 1;
#X connect 1 0 7 0;
#X connect 2 0 6 0;
#X connect 3 0 6 0;
#X connect 4 0 6 0;
#X connect 5 0 2 0;
#X connect 7 0 15 0;
#X connect 8 0 1 0;
#X connect 8 1 15 1;
#X connect 9 0 1 0;
#X connect 9 1 15 2;
#X connect 10 0 6 0;
#X connect 10 1 16 0;
#X connect 10 2 4 0;
#X connect 11 0 3 0;
#X connect 11 1 5 0;
#X connect 11 2 12 0;
#X connect 13 0 8 0;
#X connect 14 0 9 0;
#X connect 15 0 10 0;
#X connect 16 0 11 0;
#X connect 17 0 0 0;
#X restore 891 857 pd outlet-message;
#X obj 501 891 outlet~;
#X obj 432 386 phasor~;
#X obj 558 778 *~;
#X obj 419 777 *~;
#X obj 375 730 cos~;
#X obj 375 688 -~ 0.5;
#X obj 375 709 *~ 0.5;
#X obj 557 730 cos~;
#X obj 557 688 -~ 0.5;
#X obj 557 709 *~ 0.5;
#X obj 500 819 +~;
#X obj 432 238 -~ 1;
#X obj 432 640 *~;
#X obj 433 279 *~;
#X obj 644 675 *~;
#X obj 644 705 +~;
#X obj 432 417 +~, f 28;
#X obj 596 79 inlet~;
#X obj 432 451 wrap~;
#X obj 538 834 r \$1-rec;
#X obj 538 857 != 1;
#X obj 676 680 *~ 0.5;
#X obj 484 210 r~ \$1-setsize;
#X obj 468 257 *~ -1;
#X obj 468 236 /~;
#X obj 467 183 sig~ 1000;
#X obj 501 858 *~ 1;
#X obj 433 691 delread4~ \$1;
#X obj 643 741 delread4~ \$1;
#X obj 432 155 +~;
#X obj 447 130 r \$0-speed;
#X obj 471 364 f;
#X obj 481 314 r \$1-rec;
#X obj 481 337 sel 1;
#X obj 558 524 wrap~;
#X obj 677 623 r~ \$1-setsize;
#X obj 558 498 +~ 0.5;
#N canvas 50 60 230 149 \$0-loop.play 0;
#N canvas 77 173 714 345 mask 0;
#X obj 100 100 cnv 15 219 143 empty empty empty 20 12 0 14 #fcfcfc #404040 0;
#X obj 114 159 hsl 128 12 -1 2 0 0 \$0-speedgui \$0-speedguir Speed -2 -6 2 10 #ffe3c6 #000000 #000000 0 1;
#X obj 248 159 nbx 5 12 -1e+27 1e+17 0 0 \$0-speed \$0-speedr empty 47 7 2 10 #ffe3c6 #000000 #000000 0 256;
#X obj 113 217 hsl 128 12 0 1 0 0 \$0-phasegui \$0-phaseguir Phase -2 -6 2 10 #fcfcfc #000000 #000000 0 1;
#X obj 247 217 nbx 5 12 0 1 0 0 \$0-phase \$0-phaser empty 47 7 2 10 #fcfcfc #000000 #000000 0 256;
#X obj 114 188 hsl 128 12 0 1 0 0 \$0-positiongui \$0-positionguir Position -2 -6 2 10 #fcfcfc #000000 #000000 0 1;
#X obj 248 188 nbx 5 12 0 1 0 0 \$0-position \$0-positionr empty 47 7 2 10 #fcfcfc #000000 #000000 0 256;
#X msg 35 149 set \$1;
#X msg 38 212 set \$1;
#X msg 37 181 set \$1;
#X obj 108 117 cnv 10 10 10 empty \$0-name loop.play~\ \ name 0 5 2 16 #fcfcfc #9c9c9c 0;
#X obj 275 133 bng 14 250 50 0 \$0-reset \$0-resetr Reset -27 9 2 10 #fcfcfc #000000 #000000;
#X connect 1 0 2 0;
#X connect 2 0 7 0;
#X connect 3 0 4 0;
#X connect 4 0 8 0;
#X connect 5 0 6 0;
#X connect 6 0 9 0;
#X connect 7 0 1 0;
#X connect 8 0 3 0;
#X connect 9 0 5 0;
#X coords 0 -1 1 1 220 144 2 100 100;
#X restore 5 2 pd mask;
#X restore 903 193 pd \$0-loop.play;
#X obj 431 79 inlet~;
#X obj 658 546 r \$0-phase;
#X obj 471 292 r \$0-position;
#X obj 643 597 -~;
#X obj 658 569 * 0.5;
#X text 1000 903 p.s. 2023;
#N canvas 688 284 615 528 init 0;
#X obj 85 44 loadbang;
#X obj 142 115 pdcontrol;
#X msg 142 91 args;
#X obj 85 67 t b b;
#X msg 210 258 no_buffer;
#X obj 85 359 pack \$0 s, f 10;
#X obj 142 295 symbol;
#X msg 85 384 \; \$1-speedr 1 \; \$1-name label loop.play~\\\ \\\ \$2;
#X obj 224 213 print pp.loop.play~ \$1;
#X msg 224 188 missing arguments for buffer name;
#X obj 142 141 route symbol;
#X connect 0 0 3 0;
#X connect 1 0 10 0;
#X connect 2 0 1 0;
#X connect 3 0 5 0;
#X connect 3 1 2 0;
#X connect 4 0 6 0;
#X connect 5 0 7 0;
#X connect 6 0 5 1;
#X connect 9 0 8 0;
#X connect 10 0 6 0;
#X connect 10 1 4 0;
#X connect 10 1 9 0;
#X restore 904 141 pd init;
#X connect 0 0 2 0;
#X connect 5 0 1 0;
#X connect 7 0 22 0;
#X connect 8 0 16 1;
#X connect 9 0 16 0;
#X connect 10 0 9 0;
#X connect 11 0 12 0;
#X connect 12 0 10 0;
#X connect 13 0 8 0;
#X connect 14 0 15 0;
#X connect 15 0 13 0;
#X connect 16 0 32 0;
#X connect 17 0 19 0;
#X connect 18 0 33 0;
#X connect 19 0 7 0;
#X connect 20 0 21 0;
#X connect 21 0 34 0;
#X connect 22 0 24 0;
#X connect 23 0 22 1;
#X connect 24 0 11 0;
#X connect 24 0 42 0;
#X connect 24 0 18 0;
#X connect 25 0 26 0;
#X connect 26 0 32 1;
#X connect 27 0 21 1;
#X connect 28 0 30 1;
#X connect 29 0 19 1;
#X connect 30 0 29 0;
#X connect 31 0 30 0;
#X connect 32 0 6 0;
#X connect 33 0 9 1;
#X connect 34 0 8 1;
#X connect 35 0 17 0;
#X connect 36 0 35 1;
#X connect 37 0 7 1;
#X connect 38 0 39 0;
#X connect 39 0 37 0;
#X connect 40 0 14 0;
#X connect 40 0 47 0;
#X connect 41 0 27 0;
#X connect 41 0 20 1;
#X connect 41 0 18 1;
#X connect 42 0 40 0;
#X connect 44 0 35 0;
#X connect 45 0 48 0;
#X connect 46 0 37 0;
#X connect 47 0 20 0;
#X connect 48 0 47 1;
#X coords 0 -1 1 1 155 33 1 100 100;
