#N canvas 172 113 1072 538 10;
#X obj 103 115 hsl 105 15 -1 1 0 0 \$0-gui \$0-guir Width 3 8 2 10
-233017 -1 -1 7800 1;
#X obj 251 115 hsl 2 8 0 1 0 0 \$0-gui \$0-guir empty 3 8 2 10 -233017
-228856 -1 0 1;
#X obj 210 115 nbx 5 15 -1 1 0 0 \$0-width \$0-widthr empty 0 -8 2
10 -228856 -1 -1 0.5 256;
#X msg 164 157 set \$1;
#X obj 41 56 loadbang;
#X obj 739 67 inlet;
#N canvas 852 271 335 295 in 0;
#X obj 30 29 inlet;
#N canvas 937 111 450 300 recall 0;
#N canvas 156 162 1004 423 recall 0;
#X obj 106 5 savestate;
#X obj 106 28 t a b;
#X obj 205 60 + 1;
#X obj 106 78 list prepend;
#X obj 106 101 list trim;
#X obj 95 275 list;
#X obj 130 275 list;
#X obj 166 275 list;
#X obj 202 275 list;
#X obj 240 275 list;
#X obj 275 275 list;
#X obj 311 275 list;
#X obj 440 380 outlet;
#X obj 30 78 r \$0-lists;
#X obj 500 43 inlet;
#X obj 345 275 list;
#X obj 380 275 list;
#X obj 416 275 list;
#X obj 453 275 list;
#X obj 490 275 list;
#X obj 525 275 list;
#X obj 561 275 list;
#X obj 594 275 list;
#X obj 630 275 list;
#X obj 667 275 list;
#X obj 704 275 list;
#X obj 739 275 list;
#X obj 775 275 list;
#X obj 106 124 route 0 1 2 3 4 5 6 7 8 9 10 11 12 13 14 15 16 17 18
19 20;
#X obj 500 121 sel 0 1 2 3 4 5 6 7 8 9 10 11 12 13 14 15 16 17 18 19
20;
#X obj 812 275 list;
#X obj 175 56 f;
#X connect 0 0 1 0;
#X connect 1 0 3 0;
#X connect 1 1 31 0;
#X connect 2 0 31 1;
#X connect 3 0 4 0;
#X connect 4 0 28 0;
#X connect 5 0 12 0;
#X connect 6 0 12 0;
#X connect 7 0 12 0;
#X connect 8 0 12 0;
#X connect 9 0 12 0;
#X connect 10 0 12 0;
#X connect 11 0 12 0;
#X connect 13 0 28 0;
#X connect 14 0 29 0;
#X connect 15 0 12 0;
#X connect 16 0 12 0;
#X connect 17 0 12 0;
#X connect 18 0 12 0;
#X connect 19 0 12 0;
#X connect 20 0 12 0;
#X connect 21 0 12 0;
#X connect 22 0 12 0;
#X connect 23 0 12 0;
#X connect 24 0 12 0;
#X connect 25 0 12 0;
#X connect 26 0 12 0;
#X connect 27 0 12 0;
#X connect 28 0 5 1;
#X connect 28 1 6 1;
#X connect 28 2 7 1;
#X connect 28 3 8 1;
#X connect 28 4 9 1;
#X connect 28 5 10 1;
#X connect 28 6 11 1;
#X connect 28 7 15 1;
#X connect 28 8 16 1;
#X connect 28 9 17 1;
#X connect 28 10 18 1;
#X connect 28 11 19 1;
#X connect 28 12 20 1;
#X connect 28 13 21 1;
#X connect 28 14 22 1;
#X connect 28 15 23 1;
#X connect 28 16 24 1;
#X connect 28 17 25 1;
#X connect 28 18 26 1;
#X connect 28 19 27 1;
#X connect 28 20 30 1;
#X connect 29 0 5 0;
#X connect 29 1 6 0;
#X connect 29 2 7 0;
#X connect 29 3 8 0;
#X connect 29 4 9 0;
#X connect 29 5 10 0;
#X connect 29 6 11 0;
#X connect 29 7 15 0;
#X connect 29 8 16 0;
#X connect 29 9 17 0;
#X connect 29 10 18 0;
#X connect 29 11 19 0;
#X connect 29 12 20 0;
#X connect 29 13 21 0;
#X connect 29 14 22 0;
#X connect 29 15 23 0;
#X connect 29 16 24 0;
#X connect 29 17 25 0;
#X connect 29 18 26 0;
#X connect 29 19 27 0;
#X connect 29 20 30 0;
#X connect 30 0 12 0;
#X connect 31 0 2 0;
#X connect 31 0 3 1;
#X restore 128 85 pd recall;
#X obj 128 130 outlet;
#N canvas 3 52 450 600 listsplit 0;
#X obj 158 23 inlet;
#X obj 220 87 list length;
#X obj 220 113 until;
#X obj 182 150 f;
#X obj 278 150 + 1;
#X msg 265 111 0;
#X obj 182 226 list store;
#X msg 182 202 get \$1 1;
#X obj 154 367 list split;
#X obj 222 342 f;
#X obj 154 334 list;
#X obj 98 124 list;
#X obj 182 389 list split 1;
#X obj 154 274 t bang bang bang;
#X obj 182 179 t f f;
#X obj 158 48 t l l l b;
#X obj 154 473 outlet;
#X obj 154 440 list trim;
#X obj 163 248 sel |;
#X connect 0 0 15 0;
#X connect 1 0 2 0;
#X connect 2 0 3 0;
#X connect 3 0 4 0;
#X connect 3 0 14 0;
#X connect 4 0 3 1;
#X connect 5 0 3 1;
#X connect 6 0 18 0;
#X connect 7 0 6 0;
#X connect 8 0 17 0;
#X connect 8 1 12 0;
#X connect 9 0 8 1;
#X connect 10 0 8 0;
#X connect 11 0 15 0;
#X connect 12 1 11 0;
#X connect 13 0 10 0;
#X connect 13 1 9 0;
#X connect 13 2 2 1;
#X connect 14 0 7 0;
#X connect 14 1 9 1;
#X connect 15 0 1 0;
#X connect 15 1 10 1;
#X connect 15 2 6 1;
#X connect 15 3 5 0;
#X connect 17 0 16 0;
#X connect 18 0 13 0;
#X restore 128 107 pd listsplit;
#X obj 128 25 r \$0-recall;
#X obj 128 55 pipe 1;
#X connect 0 0 2 0;
#X connect 2 0 1 0;
#X connect 3 0 4 0;
#X connect 4 0 0 0;
#X restore 47 75 pd recall;
#N canvas 698 514 200 251 route 0;
#X obj 20 20 inlet;
#X obj 30 60 route save recall;
#X obj 30 85 route float;
#X obj 97 111 route float;
#X obj 30 136 s \$0-save;
#X obj 30 108 i;
#X obj 98 133 i;
#X obj 98 161 s \$0-recall;
#X connect 0 0 1 0;
#X connect 1 0 2 0;
#X connect 1 1 3 0;
#X connect 2 0 5 0;
#X connect 3 0 6 0;
#X connect 5 0 4 0;
#X connect 6 0 7 0;
#X restore 47 53 pd route save-recall;
#X obj 30 231 s \$0-widthr;
#X obj 30 159 route width;
#X connect 0 0 2 0;
#X connect 0 0 4 0;
#X connect 1 0 4 0;
#X connect 4 0 3 0;
#X restore 739 92 pd in;
#X obj 282 446 outlet~;
#X obj 390 448 outlet~;
#X obj 281 206 +~;
#X obj 403 205 -~;
#X obj 282 351 +~;
#X obj 390 353 -~;
#X msg 625 78 \$1 100;
#X obj 625 99 line~;
#X obj 280 53 inlet~ left;
#X obj 419 50 inlet~ right;
#X obj 540 139 +~;
#X obj 540 51 inlet~;
#X obj 625 54 r \$0-width;
#X obj 280 229 *~ 0.707107;
#X obj 404 228 *~ 0.707107;
#X obj 281 271 *~;
#X obj 355 168 sig~ 1;
#X obj 355 191 -~;
#X obj 356 276 *~ 2;
#X obj 541 268 *~ 2;
#X obj 405 276 *~;
#X obj 541 237 clip~ 0 1;
#X obj 432 174 clip~ 0 1;
#X obj 540 208 +~ 1;
#X msg 41 77 0;
#X obj 740 448 outlet;
#N canvas 165 118 567 486 outlet-message 0;
#X obj 205 328 list trim;
#X msg 142 306 addcomma;
#X msg 77 227 set;
#X obj 205 305 list prepend add2;
#X obj 205 413 outlet;
#X obj 164 179 t b a b;
#X obj 184 246 t b a a;
#N canvas 1009 187 450 300 save 0;
#X obj 108 107 inlet;
#X obj 129 217 list;
#X obj 129 264 list trim;
#X obj 129 286 s \$0-lists;
#X obj 128 319 r \$0-lists;
#X obj 129 242 list prepend;
#N canvas 531 82 335 384 collect 0;
#X obj 138 70 inlet;
#X obj 138 284 outlet;
#X obj 189 190 list;
#X obj 257 191 t l;
#X obj 138 235 list;
#X obj 189 149 list append |;
#X obj 138 136 del 0;
#X obj 138 92 t b a;
#X connect 0 0 7 0;
#X connect 2 0 3 0;
#X connect 2 0 4 1;
#X connect 3 0 2 1;
#X connect 4 0 1 0;
#X connect 5 0 2 0;
#X connect 6 0 2 1;
#X connect 6 0 4 0;
#X connect 7 0 6 0;
#X connect 7 1 5 0;
#X restore 108 129 pd collect;
#X obj 195 101 r \$0-save;
#X obj 195 123 t b f;
#N canvas 68 198 1432 552 savestates 0;
#X obj 767 137 inlet;
#X obj 26 422 savestate;
#X obj 26 398 list;
#X obj 91 422 savestate;
#X obj 91 398 list;
#X obj 157 422 savestate;
#X obj 157 398 list;
#X obj 220 420 savestate;
#X obj 220 396 list;
#X obj 283 419 savestate;
#X obj 283 395 list;
#X obj 345 418 savestate;
#X obj 345 394 list;
#X obj 409 418 savestate;
#X obj 409 394 list;
#X obj 472 421 savestate;
#X obj 472 397 list;
#X obj 537 421 savestate;
#X obj 537 397 list;
#X obj 603 421 savestate;
#X obj 603 397 list;
#X obj 666 419 savestate;
#X obj 666 395 list;
#X obj 729 418 savestate;
#X obj 729 394 list;
#X obj 791 417 savestate;
#X obj 791 393 list;
#X obj 855 417 savestate;
#X obj 855 393 list;
#X obj 922 418 savestate;
#X obj 922 394 list;
#X obj 988 418 savestate;
#X obj 988 394 list;
#X obj 1051 416 savestate;
#X obj 1051 392 list;
#X obj 1114 415 savestate;
#X obj 1114 391 list;
#X obj 1176 414 savestate;
#X obj 1176 390 list;
#X obj 1240 414 savestate;
#X obj 1240 390 list;
#X obj 767 166 route 0 1 2 3 4 5 6 7 8 9 10 11 12 13 14 15 16 17 18
19 20;
#X obj 1304 412 savestate;
#X obj 1304 388 list;
#X obj 201 64 savestate;
#X obj 201 87 t a b;
#X obj 300 119 + 1;
#X obj 201 137 list prepend;
#X obj 201 160 list trim;
#X obj 201 183 route 0 1 2 3 4 5 6 7 8 9 10 11 12 13 14 15 16 17 18
19 20;
#X obj 270 115 f;
#X connect 0 0 41 0;
#X connect 1 1 2 0;
#X connect 2 0 1 0;
#X connect 3 1 4 0;
#X connect 4 0 3 0;
#X connect 5 1 6 0;
#X connect 6 0 5 0;
#X connect 7 1 8 0;
#X connect 8 0 7 0;
#X connect 9 1 10 0;
#X connect 10 0 9 0;
#X connect 11 1 12 0;
#X connect 12 0 11 0;
#X connect 13 1 14 0;
#X connect 14 0 13 0;
#X connect 15 1 16 0;
#X connect 16 0 15 0;
#X connect 17 1 18 0;
#X connect 18 0 17 0;
#X connect 19 1 20 0;
#X connect 20 0 19 0;
#X connect 21 1 22 0;
#X connect 22 0 21 0;
#X connect 23 1 24 0;
#X connect 24 0 23 0;
#X connect 25 1 26 0;
#X connect 26 0 25 0;
#X connect 27 1 28 0;
#X connect 28 0 27 0;
#X connect 29 1 30 0;
#X connect 30 0 29 0;
#X connect 31 1 32 0;
#X connect 32 0 31 0;
#X connect 33 1 34 0;
#X connect 34 0 33 0;
#X connect 35 1 36 0;
#X connect 36 0 35 0;
#X connect 37 1 38 0;
#X connect 38 0 37 0;
#X connect 39 1 40 0;
#X connect 40 0 39 0;
#X connect 41 0 2 1;
#X connect 41 1 4 1;
#X connect 41 2 6 1;
#X connect 41 3 8 1;
#X connect 41 4 10 1;
#X connect 41 5 12 1;
#X connect 41 6 14 1;
#X connect 41 7 16 1;
#X connect 41 8 18 1;
#X connect 41 9 20 1;
#X connect 41 10 22 1;
#X connect 41 11 24 1;
#X connect 41 12 26 1;
#X connect 41 13 28 1;
#X connect 41 14 30 1;
#X connect 41 15 32 1;
#X connect 41 16 34 1;
#X connect 41 17 36 1;
#X connect 41 18 38 1;
#X connect 41 19 40 1;
#X connect 41 20 43 1;
#X connect 42 1 43 0;
#X connect 43 0 42 0;
#X connect 44 0 45 0;
#X connect 45 0 47 0;
#X connect 45 1 50 0;
#X connect 46 0 50 1;
#X connect 47 0 48 0;
#X connect 48 0 49 0;
#X connect 49 0 2 1;
#X connect 49 1 4 1;
#X connect 49 2 6 1;
#X connect 49 3 8 1;
#X connect 49 4 10 1;
#X connect 49 5 12 1;
#X connect 49 6 14 1;
#X connect 49 7 16 1;
#X connect 49 8 18 1;
#X connect 49 9 20 1;
#X connect 49 10 22 1;
#X connect 49 11 24 1;
#X connect 49 12 26 1;
#X connect 49 13 28 1;
#X connect 49 14 30 1;
#X connect 49 15 32 1;
#X connect 49 16 34 1;
#X connect 49 17 36 1;
#X connect 49 18 38 1;
#X connect 49 19 40 1;
#X connect 49 20 43 1;
#X connect 50 0 46 0;
#X connect 50 0 47 1;
#X restore 128 341 pd savestates;
#X connect 0 0 6 0;
#X connect 1 0 5 0;
#X connect 2 0 3 0;
#X connect 4 0 9 0;
#X connect 5 0 2 0;
#X connect 6 0 1 1;
#X connect 7 0 8 0;
#X connect 8 0 1 0;
#X connect 8 1 5 1;
#X restore 238 274 pd save;
#X obj 164 144 r \$0-width;
#X msg 183 213 width \$1;
#X connect 0 0 4 0;
#X connect 1 0 4 0;
#X connect 2 0 4 0;
#X connect 3 0 0 0;
#X connect 5 0 4 0;
#X connect 5 1 9 0;
#X connect 5 2 2 0;
#X connect 6 0 1 0;
#X connect 6 1 3 0;
#X connect 6 2 7 0;
#X connect 8 0 5 0;
#X connect 9 0 6 0;
#X restore 740 425 pd outlet-message;
#X text 501 436 philipp schmalfuß \, 2019;
#X text 498 346 based on Robin Schmidt's stereo processing tutorial:
http://www.rs-met.com/documents/tutorials/StereoProcessing.pdf, f
63;
#X obj 283 373 *~ 0.353554;
#X obj 391 376 *~ 0.353554;
#X connect 0 0 2 0;
#X connect 2 0 3 0;
#X connect 3 0 0 0;
#X connect 4 0 31 0;
#X connect 5 0 6 0;
#X connect 9 0 20 0;
#X connect 10 0 21 0;
#X connect 11 0 36 0;
#X connect 12 0 37 0;
#X connect 13 0 14 0;
#X connect 14 0 17 1;
#X connect 15 0 9 0;
#X connect 15 0 10 0;
#X connect 16 0 9 1;
#X connect 16 0 10 1;
#X connect 17 0 30 0;
#X connect 17 0 29 0;
#X connect 18 0 17 0;
#X connect 19 0 13 0;
#X connect 20 0 22 0;
#X connect 21 0 27 0;
#X connect 22 0 11 0;
#X connect 22 0 12 0;
#X connect 23 0 24 0;
#X connect 24 0 25 0;
#X connect 25 0 22 1;
#X connect 26 0 27 1;
#X connect 27 0 11 1;
#X connect 27 0 12 1;
#X connect 28 0 26 0;
#X connect 29 0 24 1;
#X connect 30 0 28 0;
#X connect 31 0 0 0;
#X connect 33 0 32 0;
#X connect 36 0 7 0;
#X connect 37 0 8 0;
#X coords 0 -1 1 1 155 33 1 100 100;
