#N canvas 528 87 679 390 10;
#N canvas 130 158 1037 617 create 0;
#X obj 219 518 s \$0-this;
#X obj 446 230 until;
#X obj 484 258 + 1;
#X msg 548 303 0;
#X obj 549 323 makefilename $%s-amp;
#X obj 496 326 + 20;
#X obj 496 304 * -80;
#X obj 446 310 * -80;
#X obj 430 349 pack f f s;
#X msg 429 374 obj \$1 50 inlet~ \, obj \$1 180 *~ \, obj \$1 250 outlet~
\, obj \$2 150 +~;
#X obj 446 252 f;
#X obj 126 277 loadbang;
#X msg 126 298 0;
#X obj 126 319 s \$0-amp;
#X obj 446 277 t f f b;
#X obj 222 244 until;
#X obj 222 223 - 1;
#X obj 222 204 f \$1;
#X obj 269 339 + 1;
#X obj 241 316 until;
#X obj 241 336 f;
#X obj 240 388 list prepend;
#X obj 324 405 t l;
#X obj 219 408 list;
#X obj 222 266 t b b b;
#X obj 241 295 f 4;
#X obj 446 209 - 1;
#X obj 446 190 f \$1;
#X obj 241 359 + 14;
#X msg 219 429 connect \$1 0 \$2 0 \, connect \$2 0 \$3 0 \, connect
11 0 \$4 0 \, connect 13 0 \$4 1 \, connect \$4 0 \$2 1;
#X obj 222 121 t b b;
#X obj 222 18 r _initbang;
#X obj 222 93 spigot 1;
#X msg 275 72 0;
#X obj 222 47 t b b;
#X connect 1 0 10 0;
#X connect 2 0 10 1;
#X connect 3 0 4 0;
#X connect 4 0 8 2;
#X connect 5 0 8 1;
#X connect 6 0 5 0;
#X connect 7 0 8 0;
#X connect 8 0 9 0;
#X connect 9 0 0 0;
#X connect 10 0 2 0;
#X connect 10 0 14 0;
#X connect 11 0 12 0;
#X connect 12 0 13 0;
#X connect 14 0 7 0;
#X connect 14 1 6 0;
#X connect 14 2 3 0;
#X connect 15 0 24 0;
#X connect 16 0 15 0;
#X connect 17 0 16 0;
#X connect 18 0 20 1;
#X connect 19 0 20 0;
#X connect 20 0 18 0;
#X connect 20 0 28 0;
#X connect 21 0 22 0;
#X connect 21 0 23 1;
#X connect 22 0 21 1;
#X connect 23 0 29 0;
#X connect 24 0 23 0;
#X connect 24 1 25 0;
#X connect 24 2 21 1;
#X connect 25 0 19 0;
#X connect 26 0 1 0;
#X connect 27 0 26 0;
#X connect 28 0 21 0;
#X connect 29 0 0 0;
#X connect 30 0 17 0;
#X connect 30 1 27 0;
#X connect 31 0 34 0;
#X connect 32 0 30 0;
#X connect 33 0 32 1;
#X connect 34 0 33 0;
#X connect 34 1 32 0;
#X restore 482 42 pd create;
#X obj 419 17 namecanvas \$0-this;
#X obj 134 48 inlet~;
#X obj 134 202 *~;
#X obj 134 248 outlet~;
#X obj 154 72 r \$0-amp;
#X obj 154 132 pack 0 100;
#X obj 303 115 hsl 120 15 0.01 1 1 0 \$0-gui \$0-guir empty 3 8 2 10
-233017 -1 -1 0 1;
#X obj 466 115 hsl 2 8 0 1 0 0 \$0-gui \$0-guir empty 3 8 2 10 -233017
-228856 -1 0 1;
#X obj 425 115 nbx 5 15 -1e+08 1e+09 0 0 \$0-amp \$0-ampr empty 0 -8
2 10 -228856 -1 -1 0 256;
#N canvas 0 50 600 300 map 0;
#X obj 100 146 inlet;
#X obj 110 249 outlet;
#X obj 281 150 inlet;
#X obj 281 223 outlet;
#X msg 281 201 set \$1;
#X obj 100 200 sel 0.01;
#X msg 100 221 0;
#X connect 0 0 5 0;
#X connect 2 0 4 0;
#X connect 4 0 3 0;
#X connect 5 0 6 0;
#X connect 5 1 1 0;
#X connect 6 0 1 0;
#X restore 392 151 pd map;
#X obj 248 46 inlet~;
#X obj 155 178 +~;
#X obj 155 155 line~;
#X connect 2 0 3 0;
#X connect 3 0 4 0;
#X connect 5 0 6 0;
#X connect 6 0 13 0;
#X connect 7 0 10 0;
#X connect 9 0 10 1;
#X connect 10 0 9 0;
#X connect 10 1 7 0;
#X connect 11 0 12 1;
#X connect 12 0 3 1;
#X connect 13 0 12 0;
#X coords 0 -1 1 1 170 33 1 300 100;
_initbang bang;
