#N canvas 172 113 1072 538 10;
#X obj 103 115 hsl 105 15 -1 1 0 0 \$0-gui \$0-guir Width 3 8 2 10
-233017 -1 -1 5200 1;
#X obj 251 115 hsl 2 8 0 1 0 0 \$0-gui \$0-guir empty 3 8 2 10 -233017
-228856 -1 0 1;
#X obj 210 115 nbx 5 15 -1 1 0 0 \$0-width \$0-widthr empty 0 -8 2
10 -228856 -1 -1 0 256;
#X msg 164 157 set \$1;
#X obj 41 56 loadbang;
#X obj 739 67 inlet;
#N canvas 852 271 335 295 in 0;
#X obj 30 29 inlet;
#N canvas 698 514 200 251 route 0;
#X obj 20 20 inlet;
#X obj 30 60 route save recall;
#X obj 30 85 route float;
#X obj 97 111 route float;
#X obj 30 136 s \$0-save;
#X obj 30 108 i;
#X obj 98 133 i;
#X obj 98 161 s \$0-recall;
#X connect 0 0 1 0;
#X connect 1 0 2 0;
#X connect 1 1 3 0;
#X connect 2 0 5 0;
#X connect 3 0 6 0;
#X connect 5 0 4 0;
#X connect 6 0 7 0;
#X restore 47 53 pd route save-recall;
#X obj 30 231 s \$0-widthr;
#X obj 30 159 route width;
#N canvas 362 125 450 479 recall 0;
#X obj 49 145 outlet;
#N canvas 3 54 450 600 listsplit 0;
#X obj 158 23 inlet;
#X obj 220 87 list length;
#X obj 220 113 until;
#X obj 182 150 f;
#X obj 278 150 + 1;
#X msg 265 111 0;
#X obj 182 226 list store;
#X msg 182 202 get \$1 1;
#X obj 154 367 list split;
#X obj 222 342 f;
#X obj 154 334 list;
#X obj 98 124 list;
#X obj 182 389 list split 1;
#X obj 154 274 t bang bang bang;
#X obj 182 179 t f f;
#X obj 158 48 t l l l b;
#X obj 154 473 outlet;
#X obj 154 440 list trim;
#X obj 163 248 sel |;
#X text 275 197 hacky split list at "|";
#X connect 0 0 15 0;
#X connect 1 0 2 0;
#X connect 2 0 3 0;
#X connect 3 0 4 0;
#X connect 3 0 14 0;
#X connect 4 0 3 1;
#X connect 5 0 3 1;
#X connect 6 0 18 0;
#X connect 7 0 6 0;
#X connect 8 0 17 0;
#X connect 8 1 12 0;
#X connect 9 0 8 1;
#X connect 10 0 8 0;
#X connect 11 0 15 0;
#X connect 12 1 11 0;
#X connect 13 0 10 0;
#X connect 13 1 9 0;
#X connect 13 2 2 1;
#X connect 14 0 7 0;
#X connect 14 1 9 1;
#X connect 15 0 1 0;
#X connect 15 1 10 1;
#X connect 15 2 6 1;
#X connect 15 3 5 0;
#X connect 17 0 16 0;
#X connect 18 0 13 0;
#X restore 49 117 pd listsplit;
#X obj 49 24 r \$0-recall;
#X obj 49 54 pipe 1;
#X obj 221 409 text fromlist \$0-savestates;
#X obj 49 77 text get \$0-savestates;
#X msg 253 246 21;
#X obj 253 269 until;
#X obj 253 292 f;
#X obj 300 295 + 1;
#X obj 253 315 t b f;
#X obj 253 367 text set \$0-savestates;
#X obj 221 114 text tolist \$0-savestates;
#X msg 253 342 list empty_slot;
#X obj 221 160 t a b;
#X obj 151 166 loadbang;
#X obj 221 137 savestate;
#X obj 221 33 text define \$0-savestates;
#X obj 151 189 del 0;
#X msg 298 199 0;
#X obj 253 220 spigot 1;
#X connect 1 0 0 0;
#X connect 2 0 3 0;
#X connect 3 0 5 0;
#X connect 5 0 1 0;
#X connect 6 0 7 0;
#X connect 7 0 8 0;
#X connect 8 0 9 0;
#X connect 8 0 10 0;
#X connect 9 0 8 1;
#X connect 10 0 13 0;
#X connect 10 1 11 1;
#X connect 12 0 16 0;
#X connect 13 0 11 0;
#X connect 14 0 4 0;
#X connect 14 1 19 0;
#X connect 15 0 18 0;
#X connect 16 0 14 0;
#X connect 16 1 12 0;
#X connect 18 0 20 0;
#X connect 19 0 20 1;
#X connect 20 0 6 0;
#X restore 47 81 pd recall;
#X connect 0 0 1 0;
#X connect 0 0 3 0;
#X connect 3 0 2 0;
#X connect 4 0 3 0;
#X restore 739 92 pd in;
#X obj 282 446 outlet~;
#X obj 390 448 outlet~;
#X obj 281 206 +~;
#X obj 403 205 -~;
#X obj 282 351 +~;
#X obj 390 353 -~;
#X msg 625 78 \$1 100;
#X obj 625 99 line~;
#X obj 280 53 inlet~ left;
#X obj 419 50 inlet~ right;
#X obj 540 139 +~;
#X obj 540 51 inlet~;
#X obj 625 54 r \$0-width;
#X obj 280 229 *~ 0.707107;
#X obj 404 228 *~ 0.707107;
#X obj 281 271 *~;
#X obj 355 168 sig~ 1;
#X obj 355 191 -~;
#X obj 356 276 *~ 2;
#X obj 541 268 *~ 2;
#X obj 405 276 *~;
#X obj 541 237 clip~ 0 1;
#X obj 432 174 clip~ 0 1;
#X obj 540 208 +~ 1;
#X msg 41 77 0;
#X obj 740 448 outlet;
#N canvas 165 118 567 486 outlet-message 0;
#X obj 205 328 list trim;
#X msg 142 306 addcomma;
#X msg 77 227 set;
#X obj 205 305 list prepend add2;
#X obj 205 413 outlet;
#X obj 164 179 t b a b;
#X obj 184 246 t b a a;
#X obj 164 144 r \$0-width;
#X msg 183 213 width \$1;
#N canvas 497 319 297 264 save 0;
#X obj 48 16 inlet;
#N canvas 690 259 481 384 collect 0;
#X obj 47 60 inlet;
#X obj 47 274 outlet;
#X obj 98 180 list;
#X obj 166 181 t l;
#X obj 47 225 list;
#X obj 98 139 list append |;
#X obj 47 126 del 0;
#X obj 47 82 t b a;
#X text 119 75 hacky thing... replaycing " \, " with "|";
#X connect 0 0 7 0;
#X connect 2 0 3 0;
#X connect 2 0 4 1;
#X connect 3 0 2 1;
#X connect 4 0 1 0;
#X connect 5 0 2 0;
#X connect 6 0 2 1;
#X connect 6 0 4 0;
#X connect 7 0 6 0;
#X connect 7 1 5 0;
#X restore 48 38 pd collect;
#X obj 117 16 r \$0-save;
#X obj 27 130 text set \$0-savestates;
#X obj 27 104 list;
#X obj 117 62 t b f;
#X obj 117 39 clip 0 20;
#X connect 0 0 1 0;
#X connect 1 0 4 1;
#X connect 2 0 6 0;
#X connect 4 0 3 0;
#X connect 5 0 4 0;
#X connect 5 1 3 1;
#X connect 6 0 5 0;
#X restore 223 271 pd save;
#X connect 0 0 4 0;
#X connect 1 0 4 0;
#X connect 2 0 4 0;
#X connect 3 0 0 0;
#X connect 5 0 4 0;
#X connect 5 1 8 0;
#X connect 5 2 2 0;
#X connect 6 0 1 0;
#X connect 6 1 3 0;
#X connect 6 2 9 0;
#X connect 7 0 5 0;
#X connect 8 0 6 0;
#X restore 740 425 pd outlet-message;
#X text 501 436 philipp schmalfuß \, 2019;
#X text 498 346 based on Robin Schmidt's stereo processing tutorial:
http://www.rs-met.com/documents/tutorials/StereoProcessing.pdf, f
63;
#X obj 283 373 *~ 0.353554;
#X obj 391 376 *~ 0.353554;
#X connect 0 0 2 0;
#X connect 2 0 3 0;
#X connect 3 0 0 0;
#X connect 4 0 31 0;
#X connect 5 0 6 0;
#X connect 9 0 20 0;
#X connect 10 0 21 0;
#X connect 11 0 36 0;
#X connect 12 0 37 0;
#X connect 13 0 14 0;
#X connect 14 0 17 1;
#X connect 15 0 9 0;
#X connect 15 0 10 0;
#X connect 16 0 9 1;
#X connect 16 0 10 1;
#X connect 17 0 30 0;
#X connect 17 0 29 0;
#X connect 18 0 17 0;
#X connect 19 0 13 0;
#X connect 20 0 22 0;
#X connect 21 0 27 0;
#X connect 22 0 11 0;
#X connect 22 0 12 0;
#X connect 23 0 24 0;
#X connect 24 0 25 0;
#X connect 25 0 22 1;
#X connect 26 0 27 1;
#X connect 27 0 11 1;
#X connect 27 0 12 1;
#X connect 28 0 26 0;
#X connect 29 0 24 1;
#X connect 30 0 28 0;
#X connect 31 0 0 0;
#X connect 33 0 32 0;
#X connect 36 0 7 0;
#X connect 37 0 8 0;
#X coords 0 -1 1 1 155 33 1 100 100;
