#N canvas 387 125 814 312 10;
#X obj 1 2 cnv 15 380 300 empty empty empty 20 12 0 14 -233017 -66577
0;
#X text 20 143 Inlets:;
#X text 20 189 Outlets:;
#X obj 12 20 cnv 15 10 10 empty empty pp.out~ 0 0 2 16 -233017 -262144
0;
#X obj 410 152 pp.out~;
#A saved;
#X text 78 144 1:(~)signal left;
#X text 78 157 2:(~)signal right;
#X text 78 170 3:control-messages;
#X text 78 190 1:message;
#X obj 411 54 osc~ 440;
#N canvas 740 417 503 292 message-out 0;
#X obj 30 33 inlet;
#X msg 30 60 volume 0 \, set 1 2 \,;
#X connect 0 0 1 0;
#X restore 410 212 pd message-out;
#X obj 558 129 cnv 15 118 17 empty empty empty 20 12 0 14 -260097 -66577
0;
#N canvas 561 87 483 477 control-messages 0;
#X obj 59 476 outlet;
#X obj 128 439 cnv 16 87 16 empty empty empty 20 12 0 14 -260097 -66577
0;
#N canvas 864 246 634 307 save&recall 0;
#X obj 93 233 outlet;
#X msg 93 60 0;
#X msg 125 60 1;
#X msg 158 60 2;
#X msg 93 99 save \$1;
#X text 185 63 ...;
#X msg 207 60 20;
#X msg 149 154 0;
#X msg 181 154 1;
#X msg 214 154 2;
#X text 241 157 ...;
#X msg 263 154 20;
#X msg 149 193 recall \$1;
#X text 249 93 save & recall up to 20 presets \, presets will be saved
with the parrent patch;
#X connect 1 0 4 0;
#X connect 2 0 4 0;
#X connect 3 0 4 0;
#X connect 4 0 0 0;
#X connect 6 0 4 0;
#X connect 7 0 12 0;
#X connect 8 0 12 0;
#X connect 9 0 12 0;
#X connect 11 0 12 0;
#X connect 12 0 0 0;
#X restore 128 438 pd save&recall;
#X floatatom 57 31 5 0 1e+06 0 - - -;
#X msg 57 55 volume \$1;
#X text 96 34 db;
#X msg 87 102 set 2 3;
#X text 145 88 The "set" message resets the channels. This requires
Pd to restart DSP and so should only be done at setup time \, not while
audio is being computed., f 51;
#X obj 118 170 cnv 15 270 240 empty empty empty 20 12 0 14 -233017
-66577 0;
#X text 190 205 open savepanel;
#X msg 154 289 start;
#X text 190 289 start recording;
#X msg 159 319 stop;
#X text 193 318 stop recording;
#X msg 159 381 bitsize \$1;
#X msg 159 350 16;
#X msg 189 350 24;
#X msg 222 350 32;
#X msg 142 205 save_as;
#X text 125 176 record to soundfile (.wav);
#X msg 151 233 pre;
#X msg 151 258 post;
#X text 178 232 set record pre-fader;
#X text 182 259 set record post-fader (default);
#X text 225 383 set bitsize (default: 24);
#X connect 2 0 0 0;
#X connect 3 0 4 0;
#X connect 4 0 0 0;
#X connect 6 0 0 0;
#X connect 10 0 0 0;
#X connect 12 0 0 0;
#X connect 14 0 0 0;
#X connect 15 0 14 0;
#X connect 16 0 14 0;
#X connect 17 0 14 0;
#X connect 18 0 0 0;
#X connect 20 0 0 0;
#X connect 21 0 0 0;
#X restore 558 129 pd control-messages;
#X text 11 34 stereo speaker output & soundfile recorder;
#X text 570 185 <-- click to open savepanel;
#X text 20 86 Creation arguments: \$1: first output channel (default:
1);
#X text 140 103 \$2: second output channel (default: 2);
#X connect 4 0 10 0;
#X connect 9 0 4 0;
#X connect 9 0 4 1;
#X connect 12 0 4 2;
