#N canvas 221 63 921 570 10;
#X obj 439 144 inlet~;
#X obj 508 144 inlet~;
#X obj 510 384 *~;
#X msg 577 322 \$1 50;
#X obj 577 344 line~;
#X obj 439 384 *~;
#X obj 439 491 dac~;
#X obj 120 115 hsl 133 17 0 1 0 0 \$0-vol \$0-volr 0db 5 8 2 10 -228856
-1 -1 0 1;
#X obj 100 115 tgl 17 0 \$0-dsp \$0-dspr dsp 1 8 2 10 -228856 -258113
-1 0 1;
#X obj 578 217 r \$0-vol;
#X obj 439 166 hip~ 5;
#X obj 509 167 hip~ 5;
#X obj 577 279 * 100;
#X obj 578 238 sqrt;
#X obj 578 259 sqrt;
#X obj 577 300 dbtorms;
#X obj 757 53 inlet;
#X obj 372 432 r \$0-set;
#X msg 372 455 set \$1 \$2;
#X obj 756 483 outlet;
#N canvas 3 78 781 543 outlet-message 0;
#X obj 331 387 list trim;
#X msg 251 385 addcomma;
#X msg 187 392 set;
#X obj 331 364 list prepend add2;
#X obj 338 434 outlet;
#X obj 251 187 t b a b;
#X obj 304 290 t b a a;
#N canvas 1009 187 450 300 save 0;
#X obj 108 107 inlet;
#X obj 129 217 list;
#X obj 129 264 list trim;
#X obj 129 286 s \$0-lists;
#X obj 128 319 r \$0-lists;
#X obj 129 242 list prepend;
#N canvas 531 82 335 384 collect 0;
#X obj 138 70 inlet;
#X obj 138 284 outlet;
#X obj 189 190 list;
#X obj 257 191 t l;
#X obj 138 235 list;
#X obj 189 149 list append |;
#X obj 138 136 del 0;
#X obj 138 92 t b a;
#X connect 0 0 7 0;
#X connect 2 0 3 0;
#X connect 2 0 4 1;
#X connect 3 0 2 1;
#X connect 4 0 1 0;
#X connect 5 0 2 0;
#X connect 6 0 2 1;
#X connect 6 0 4 0;
#X connect 7 0 6 0;
#X connect 7 1 5 0;
#X restore 108 129 pd collect;
#X obj 195 101 r \$0-save;
#X obj 195 123 t b f;
#N canvas 68 198 1432 552 savestates 0;
#X obj 767 137 inlet;
#X obj 26 422 savestate;
#X obj 26 398 list;
#X obj 91 422 savestate;
#X obj 91 398 list;
#X obj 157 422 savestate;
#X obj 157 398 list;
#X obj 220 420 savestate;
#X obj 220 396 list;
#X obj 283 419 savestate;
#X obj 283 395 list;
#X obj 345 418 savestate;
#X obj 345 394 list;
#X obj 409 418 savestate;
#X obj 409 394 list;
#X obj 472 421 savestate;
#X obj 472 397 list;
#X obj 537 421 savestate;
#X obj 537 397 list;
#X obj 603 421 savestate;
#X obj 603 397 list;
#X obj 666 419 savestate;
#X obj 666 395 list;
#X obj 729 418 savestate;
#X obj 729 394 list;
#X obj 791 417 savestate;
#X obj 791 393 list;
#X obj 855 417 savestate;
#X obj 855 393 list;
#X obj 922 418 savestate;
#X obj 922 394 list;
#X obj 988 418 savestate;
#X obj 988 394 list;
#X obj 1051 416 savestate;
#X obj 1051 392 list;
#X obj 1114 415 savestate;
#X obj 1114 391 list;
#X obj 1176 414 savestate;
#X obj 1176 390 list;
#X obj 1240 414 savestate;
#X obj 1240 390 list;
#X obj 767 166 route 0 1 2 3 4 5 6 7 8 9 10 11 12 13 14 15 16 17 18
19 20;
#X obj 1304 412 savestate;
#X obj 1304 388 list;
#X obj 201 64 savestate;
#X obj 201 87 t a b;
#X obj 300 119 + 1;
#X obj 201 137 list prepend;
#X obj 201 160 list trim;
#X obj 201 183 route 0 1 2 3 4 5 6 7 8 9 10 11 12 13 14 15 16 17 18
19 20;
#X obj 270 115 f;
#X connect 0 0 41 0;
#X connect 1 1 2 0;
#X connect 2 0 1 0;
#X connect 3 1 4 0;
#X connect 4 0 3 0;
#X connect 5 1 6 0;
#X connect 6 0 5 0;
#X connect 7 1 8 0;
#X connect 8 0 7 0;
#X connect 9 1 10 0;
#X connect 10 0 9 0;
#X connect 11 1 12 0;
#X connect 12 0 11 0;
#X connect 13 1 14 0;
#X connect 14 0 13 0;
#X connect 15 1 16 0;
#X connect 16 0 15 0;
#X connect 17 1 18 0;
#X connect 18 0 17 0;
#X connect 19 1 20 0;
#X connect 20 0 19 0;
#X connect 21 1 22 0;
#X connect 22 0 21 0;
#X connect 23 1 24 0;
#X connect 24 0 23 0;
#X connect 25 1 26 0;
#X connect 26 0 25 0;
#X connect 27 1 28 0;
#X connect 28 0 27 0;
#X connect 29 1 30 0;
#X connect 30 0 29 0;
#X connect 31 1 32 0;
#X connect 32 0 31 0;
#X connect 33 1 34 0;
#X connect 34 0 33 0;
#X connect 35 1 36 0;
#X connect 36 0 35 0;
#X connect 37 1 38 0;
#X connect 38 0 37 0;
#X connect 39 1 40 0;
#X connect 40 0 39 0;
#X connect 41 0 2 1;
#X connect 41 1 4 1;
#X connect 41 2 6 1;
#X connect 41 3 8 1;
#X connect 41 4 10 1;
#X connect 41 5 12 1;
#X connect 41 6 14 1;
#X connect 41 7 16 1;
#X connect 41 8 18 1;
#X connect 41 9 20 1;
#X connect 41 10 22 1;
#X connect 41 11 24 1;
#X connect 41 12 26 1;
#X connect 41 13 28 1;
#X connect 41 14 30 1;
#X connect 41 15 32 1;
#X connect 41 16 34 1;
#X connect 41 17 36 1;
#X connect 41 18 38 1;
#X connect 41 19 40 1;
#X connect 41 20 43 1;
#X connect 42 1 43 0;
#X connect 43 0 42 0;
#X connect 44 0 45 0;
#X connect 45 0 47 0;
#X connect 45 1 50 0;
#X connect 46 0 50 1;
#X connect 47 0 48 0;
#X connect 48 0 49 0;
#X connect 49 0 2 1;
#X connect 49 1 4 1;
#X connect 49 2 6 1;
#X connect 49 3 8 1;
#X connect 49 4 10 1;
#X connect 49 5 12 1;
#X connect 49 6 14 1;
#X connect 49 7 16 1;
#X connect 49 8 18 1;
#X connect 49 9 20 1;
#X connect 49 10 22 1;
#X connect 49 11 24 1;
#X connect 49 12 26 1;
#X connect 49 13 28 1;
#X connect 49 14 30 1;
#X connect 49 15 32 1;
#X connect 49 16 34 1;
#X connect 49 17 36 1;
#X connect 49 18 38 1;
#X connect 49 19 40 1;
#X connect 49 20 43 1;
#X connect 50 0 46 0;
#X connect 50 0 47 1;
#X restore 128 341 pd savestates;
#X connect 0 0 6 0;
#X connect 1 0 5 0;
#X connect 2 0 3 0;
#X connect 4 0 9 0;
#X connect 5 0 2 0;
#X connect 6 0 1 1;
#X connect 7 0 8 0;
#X connect 8 0 1 0;
#X connect 8 1 5 1;
#X restore 347 320 pd save;
#X msg 288 250 volume \$1 \, set \$2 \$3;
#N canvas 105 314 986 300 bang_once..... 0;
#X obj 89 139 del 0;
#X obj 89 87 t b f;
#X obj 89 41 inlet;
#X obj 146 40 inlet;
#X obj 89 247 outlet;
#X obj 89 173 f;
#X obj 89 203 pack 0 0 0;
#X obj 146 72 unpack;
#X obj 132 100 t b f;
#X connect 0 0 5 0;
#X connect 1 0 0 0;
#X connect 1 1 5 1;
#X connect 2 0 1 0;
#X connect 3 0 7 0;
#X connect 5 0 6 0;
#X connect 6 0 4 0;
#X connect 7 0 8 0;
#X connect 7 1 6 2;
#X connect 8 0 0 0;
#X connect 8 1 6 1;
#X restore 251 166 pd bang_once.....;
#X obj 350 142 r \$0-set;
#X obj 252 75 r \$0-vol;
#X obj 251 140 * 100;
#X obj 252 99 sqrt;
#X obj 252 120 sqrt;
#X connect 0 0 4 0;
#X connect 1 0 4 0;
#X connect 2 0 4 0;
#X connect 3 0 0 0;
#X connect 5 0 4 0;
#X connect 5 1 8 0;
#X connect 5 2 2 0;
#X connect 6 0 1 0;
#X connect 6 1 3 0;
#X connect 6 2 7 0;
#X connect 8 0 6 0;
#X connect 9 0 5 0;
#X connect 10 0 9 1;
#X connect 11 0 13 0;
#X connect 12 0 9 0;
#X connect 13 0 14 0;
#X connect 14 0 12 0;
#X restore 756 458 pd outlet-message;
#N canvas 72 63 1199 671 stuff 0;
#X obj 76 262 s \$0-volr;
#X msg 76 240 label \$1db;
#X obj 77 16 r \$0-vol;
#X obj 128 104 t b;
#X obj 128 83 change;
#X obj 128 169 s \$0-dspr;
#X msg 128 126 1;
#X obj 258 86 r \$0-dsp;
#X msg 258 139 \; pd dsp \$1;
#X obj 182 26 r pd;
#X obj 182 48 route dsp;
#X obj 182 77 t b f b;
#X msg 272 60 0;
#X msg 219 131 1;
#X obj 258 113 spigot 1;
#X obj 76 154 * 100;
#X obj 77 113 sqrt;
#X obj 77 134 sqrt;
#X obj 76 179 * 10;
#X obj 76 199 i;
#X obj 76 220 / 10;
#X msg 388 304 stop;
#X obj 504 131 savepanel;
#X obj 388 130 r \$0-recguitgl;
#X msg 673 440 label \$1;
#X obj 687 394 loadbang;
#X obj 504 40 r \$0-open;
#X obj 388 160 sel 0 1;
#N canvas 0 50 573 452 filename 0;
#N canvas 0 50 450 300 listget 0;
#X obj 153 146 list split;
#X obj 210 193 list length;
#X obj 153 170 t l l;
#X obj 153 237 list split;
#X obj 210 216 - 1;
#X obj 151 116 list;
#X obj 319 37 inlet list;
#X obj 181 266 outlet element;
#X obj 143 24 inlet n;
#X obj 152 54 t b f;
#X obj 220 121 max 1;
#X connect 0 0 2 0;
#X connect 1 0 4 0;
#X connect 2 0 3 0;
#X connect 2 1 1 0;
#X connect 3 1 7 0;
#X connect 4 0 3 1;
#X connect 5 0 0 0;
#X connect 6 0 5 1;
#X connect 8 0 9 0;
#X connect 9 0 5 0;
#X connect 9 1 10 0;
#X connect 10 0 0 1;
#X restore 163 237 pd listget;
#X obj 155 67 list fromsymbol;
#X obj 155 89 trigger list list bang;
#X obj 155 111 list length;
#X obj 155 167 until;
#X obj 155 189 f;
#X obj 187 201 - 1;
#X obj 163 259 t f f;
#X obj 155 134 t f f;
#X obj 215 303 t l;
#X obj 246 348 list;
#X obj 319 287 sel;
#X obj 319 309 t b b;
#X obj 246 370 list tosymbol;
#X obj 337 221 loadbang;
#X obj 337 243 symbol /;
#X obj 337 265 list fromsymbol;
#X obj 155 45 inlet symbol path;
#X obj 246 392 outlet symbol filename;
#X obj 163 294 list;
#X connect 0 0 7 0;
#X connect 1 0 2 0;
#X connect 2 0 3 0;
#X connect 2 1 0 1;
#X connect 2 2 19 1;
#X connect 3 0 8 0;
#X connect 4 0 5 0;
#X connect 5 0 6 0;
#X connect 5 0 0 0;
#X connect 6 0 5 1;
#X connect 7 0 19 0;
#X connect 7 1 11 0;
#X connect 8 0 4 0;
#X connect 8 1 5 1;
#X connect 9 0 19 1;
#X connect 10 0 13 0;
#X connect 11 0 12 0;
#X connect 12 0 10 0;
#X connect 12 1 4 1;
#X connect 13 0 18 0;
#X connect 14 0 15 0;
#X connect 15 0 16 0;
#X connect 16 0 11 1;
#X connect 17 0 1 0;
#X connect 19 0 9 0;
#X connect 19 0 10 1;
#X restore 673 364 pd filename;
#X obj 686 415 symbol empty...;
#X obj 484 242 symbol;
#X msg 485 311 set \$1_%d;
#X obj 479 336 makefilename;
#X obj 484 264 t b s;
#X obj 450 311 + 1;
#X obj 450 289 f;
#X msg 449 251 0;
#X obj 491 219 t b s;
#X obj 673 462 s \$0-openr;
#X msg 654 115 color 0 0;
#X msg 594 202 color 10 10;
#X obj 654 226 s \$0-openr;
#X obj 662 249 s \$0-filelength;
#X obj 504 87 t b b;
#X obj 594 178 del 250;
#X obj 479 498 list prepend 2;
#X msg 478 523 open -bytes \$1 \$2 \, start;
#X obj 530 431 sel 16 24 32;
#X msg 530 463 2;
#X msg 560 463 3;
#X msg 590 464 4;
#X obj 75 317 r \$0-recguitgl;
#X obj 75 347 sel 0 1;
#X msg 75 376 color 10 10;
#X obj 75 413 s \$0-recguitglr;
#X msg 162 376 color 13 13;
#X obj 388 557 s \$0-writemsg;
#X obj 1033 214 / 60;
#X obj 1033 234 i;
#X obj 872 202 mod 60;
#X obj 899 247 < 10;
#X obj 842 329 makefilename 0%d;
#X obj 872 226 t f f;
#X obj 817 266 list prepend;
#X obj 817 285 route 0 1;
#X obj 816 308 makefilename %d;
#X obj 876 174 t f f;
#X obj 844 466 s \$0-filelength;
#X obj 844 414 pack s s;
#X msg 844 436 label \$2:\$1;
#X obj 1060 281 < 10;
#X obj 1003 362 makefilename 0%d;
#X obj 1033 258 t f f;
#X obj 978 302 list prepend;
#X obj 978 321 route 0 1;
#X obj 977 341 makefilename %d;
#X obj 877 67 t f f;
#X obj 877 101 metro 1000;
#X obj 878 42 r \$0-recguitgl;
#X obj 877 146 f;
#X obj 914 158 + 1;
#X obj 956 92 sel 1;
#X msg 955 112 0;
#X obj 824 121 loadbang;
#X msg 824 141 0;
#X obj 530 407 r \$0-bitsize;
#X obj 504 65 t b;
#X connect 1 0 0 0;
#X connect 2 0 4 0;
#X connect 2 0 16 0;
#X connect 3 0 6 0;
#X connect 4 0 3 0;
#X connect 6 0 5 0;
#X connect 7 0 14 0;
#X connect 9 0 10 0;
#X connect 10 0 11 0;
#X connect 11 0 13 0;
#X connect 11 1 5 0;
#X connect 11 2 12 0;
#X connect 12 0 14 1;
#X connect 13 0 14 1;
#X connect 14 0 8 0;
#X connect 15 0 18 0;
#X connect 16 0 17 0;
#X connect 17 0 15 0;
#X connect 18 0 19 0;
#X connect 19 0 20 0;
#X connect 20 0 1 0;
#X connect 21 0 56 0;
#X connect 22 0 28 0;
#X connect 22 0 37 0;
#X connect 23 0 27 0;
#X connect 24 0 38 0;
#X connect 25 0 29 0;
#X connect 26 0 86 0;
#X connect 27 0 21 0;
#X connect 27 1 30 0;
#X connect 28 0 24 0;
#X connect 29 0 24 0;
#X connect 30 0 33 0;
#X connect 31 0 32 0;
#X connect 32 0 28 0;
#X connect 32 0 45 0;
#X connect 33 0 35 0;
#X connect 33 1 31 0;
#X connect 34 0 35 1;
#X connect 34 0 32 0;
#X connect 35 0 34 0;
#X connect 36 0 35 1;
#X connect 37 0 36 0;
#X connect 37 1 30 1;
#X connect 39 0 41 0;
#X connect 39 0 42 0;
#X connect 40 0 41 0;
#X connect 40 0 42 0;
#X connect 43 0 22 0;
#X connect 43 1 39 0;
#X connect 43 1 44 0;
#X connect 44 0 40 0;
#X connect 45 0 46 0;
#X connect 46 0 56 0;
#X connect 47 0 48 0;
#X connect 47 1 49 0;
#X connect 47 2 50 0;
#X connect 48 0 45 1;
#X connect 49 0 45 1;
#X connect 50 0 45 1;
#X connect 51 0 52 0;
#X connect 52 0 53 0;
#X connect 52 1 55 0;
#X connect 53 0 54 0;
#X connect 55 0 54 0;
#X connect 57 0 58 0;
#X connect 58 0 72 0;
#X connect 59 0 62 0;
#X connect 60 0 63 1;
#X connect 61 0 68 0;
#X connect 62 0 63 0;
#X connect 62 1 60 0;
#X connect 63 0 64 0;
#X connect 64 0 65 0;
#X connect 64 1 61 0;
#X connect 65 0 68 0;
#X connect 66 0 59 0;
#X connect 66 1 57 0;
#X connect 68 0 69 0;
#X connect 69 0 67 0;
#X connect 70 0 73 1;
#X connect 71 0 68 1;
#X connect 72 0 73 0;
#X connect 72 1 70 0;
#X connect 73 0 74 0;
#X connect 74 0 75 0;
#X connect 74 1 71 0;
#X connect 75 0 68 1;
#X connect 76 0 77 0;
#X connect 76 1 81 0;
#X connect 77 0 79 0;
#X connect 78 0 76 0;
#X connect 79 0 80 0;
#X connect 79 0 66 0;
#X connect 80 0 79 1;
#X connect 81 0 82 0;
#X connect 82 0 79 1;
#X connect 83 0 84 0;
#X connect 84 0 66 0;
#X connect 85 0 47 0;
#X connect 86 0 43 0;
#X restore 758 133 pd stuff;
#N canvas 565 210 396 300 in 0;
#X obj 20 20 inlet;
#X obj 30 138 / 100;
#X obj 30 159 pow 4;
#X obj 30 180 s \$0-volr;
#N canvas 937 111 450 300 recall 0;
#N canvas 156 162 1004 423 recall 0;
#X obj 106 5 savestate;
#X obj 106 28 t a b;
#X obj 205 60 + 1;
#X obj 106 78 list prepend;
#X obj 106 101 list trim;
#X obj 95 275 list;
#X obj 130 275 list;
#X obj 166 275 list;
#X obj 202 275 list;
#X obj 240 275 list;
#X obj 275 275 list;
#X obj 311 275 list;
#X obj 440 380 outlet;
#X obj 30 78 r \$0-lists;
#X obj 500 43 inlet;
#X obj 345 275 list;
#X obj 380 275 list;
#X obj 416 275 list;
#X obj 453 275 list;
#X obj 490 275 list;
#X obj 525 275 list;
#X obj 561 275 list;
#X obj 594 275 list;
#X obj 630 275 list;
#X obj 667 275 list;
#X obj 704 275 list;
#X obj 739 275 list;
#X obj 775 275 list;
#X obj 106 124 route 0 1 2 3 4 5 6 7 8 9 10 11 12 13 14 15 16 17 18
19 20;
#X obj 500 121 sel 0 1 2 3 4 5 6 7 8 9 10 11 12 13 14 15 16 17 18 19
20;
#X obj 812 275 list;
#X obj 175 56 f;
#X connect 0 0 1 0;
#X connect 1 0 3 0;
#X connect 1 1 31 0;
#X connect 2 0 31 1;
#X connect 3 0 4 0;
#X connect 4 0 28 0;
#X connect 5 0 12 0;
#X connect 6 0 12 0;
#X connect 7 0 12 0;
#X connect 8 0 12 0;
#X connect 9 0 12 0;
#X connect 10 0 12 0;
#X connect 11 0 12 0;
#X connect 13 0 28 0;
#X connect 14 0 29 0;
#X connect 15 0 12 0;
#X connect 16 0 12 0;
#X connect 17 0 12 0;
#X connect 18 0 12 0;
#X connect 19 0 12 0;
#X connect 20 0 12 0;
#X connect 21 0 12 0;
#X connect 22 0 12 0;
#X connect 23 0 12 0;
#X connect 24 0 12 0;
#X connect 25 0 12 0;
#X connect 26 0 12 0;
#X connect 27 0 12 0;
#X connect 28 0 5 1;
#X connect 28 1 6 1;
#X connect 28 2 7 1;
#X connect 28 3 8 1;
#X connect 28 4 9 1;
#X connect 28 5 10 1;
#X connect 28 6 11 1;
#X connect 28 7 15 1;
#X connect 28 8 16 1;
#X connect 28 9 17 1;
#X connect 28 10 18 1;
#X connect 28 11 19 1;
#X connect 28 12 20 1;
#X connect 28 13 21 1;
#X connect 28 14 22 1;
#X connect 28 15 23 1;
#X connect 28 16 24 1;
#X connect 28 17 25 1;
#X connect 28 18 26 1;
#X connect 28 19 27 1;
#X connect 28 20 30 1;
#X connect 29 0 5 0;
#X connect 29 1 6 0;
#X connect 29 2 7 0;
#X connect 29 3 8 0;
#X connect 29 4 9 0;
#X connect 29 5 10 0;
#X connect 29 6 11 0;
#X connect 29 7 15 0;
#X connect 29 8 16 0;
#X connect 29 9 17 0;
#X connect 29 10 18 0;
#X connect 29 11 19 0;
#X connect 29 12 20 0;
#X connect 29 13 21 0;
#X connect 29 14 22 0;
#X connect 29 15 23 0;
#X connect 29 16 24 0;
#X connect 29 17 25 0;
#X connect 29 18 26 0;
#X connect 29 19 27 0;
#X connect 29 20 30 0;
#X connect 30 0 12 0;
#X connect 31 0 2 0;
#X connect 31 0 3 1;
#X restore 128 85 pd recall;
#X obj 128 130 outlet;
#N canvas 3 52 450 600 listsplit 0;
#X obj 158 23 inlet;
#X obj 220 87 list length;
#X obj 220 113 until;
#X obj 182 150 f;
#X obj 278 150 + 1;
#X msg 265 111 0;
#X obj 182 226 list store;
#X msg 182 202 get \$1 1;
#X obj 154 367 list split;
#X obj 222 342 f;
#X obj 154 334 list;
#X obj 98 124 list;
#X obj 182 389 list split 1;
#X obj 154 274 t bang bang bang;
#X obj 182 179 t f f;
#X obj 158 48 t l l l b;
#X obj 154 473 outlet;
#X obj 154 440 list trim;
#X obj 163 248 sel |;
#X connect 0 0 15 0;
#X connect 1 0 2 0;
#X connect 2 0 3 0;
#X connect 3 0 4 0;
#X connect 3 0 14 0;
#X connect 4 0 3 1;
#X connect 5 0 3 1;
#X connect 6 0 18 0;
#X connect 7 0 6 0;
#X connect 8 0 17 0;
#X connect 8 1 12 0;
#X connect 9 0 8 1;
#X connect 10 0 8 0;
#X connect 11 0 15 0;
#X connect 12 1 11 0;
#X connect 13 0 10 0;
#X connect 13 1 9 0;
#X connect 13 2 2 1;
#X connect 14 0 7 0;
#X connect 14 1 9 1;
#X connect 15 0 1 0;
#X connect 15 1 10 1;
#X connect 15 2 6 1;
#X connect 15 3 5 0;
#X connect 17 0 16 0;
#X connect 18 0 13 0;
#X restore 128 107 pd listsplit;
#X obj 128 25 r \$0-recall;
#X obj 128 55 pipe 1;
#X connect 0 0 2 0;
#X connect 2 0 1 0;
#X connect 3 0 4 0;
#X connect 4 0 0 0;
#X restore 107 81 pd recall;
#N canvas 698 546 200 251 route 0;
#X obj 20 20 inlet;
#X obj 30 60 route save recall;
#X obj 30 85 route float;
#X obj 97 111 route float;
#X obj 30 136 s \$0-save;
#X obj 30 108 i;
#X obj 98 133 i;
#X obj 98 161 s \$0-recall;
#X connect 0 0 1 0;
#X connect 1 0 2 0;
#X connect 1 1 3 0;
#X connect 2 0 5 0;
#X connect 3 0 6 0;
#X connect 5 0 4 0;
#X connect 6 0 7 0;
#X restore 45 60 pd route save-recall;
#X obj 30 115 route volume set;
#X obj 76 141 s \$0-set;
#X obj 148 169 t b;
#X obj 148 191 s \$0-open;
#X msg 217 170 1;
#X msg 250 170 0;
#X obj 217 198 s \$0-recguitglr;
#X obj 148 145 route save_as start stop bitsize;
#X obj 289 170 s \$0-bitsize;
#X connect 0 0 5 0;
#X connect 0 0 6 0;
#X connect 1 0 2 0;
#X connect 2 0 3 0;
#X connect 4 0 6 0;
#X connect 6 0 1 0;
#X connect 6 1 7 0;
#X connect 6 2 13 0;
#X connect 8 0 9 0;
#X connect 10 0 12 0;
#X connect 11 0 12 0;
#X connect 13 0 8 0;
#X connect 13 1 10 0;
#X connect 13 2 11 0;
#X connect 13 3 14 0;
#X restore 757 77 pd in;
#X text 538 496 philipp schmalfuß \, 2019;
#X obj 100 132 tgl 17 0 \$0-recguitgl \$0-recguitglr rec 2 8 2 10 -233017
-233017 -1 0 1;
#X obj 513 467 writesf~ 2;
#X obj 513 439 r \$0-writemsg;
#X obj 119 134 bng 15 250 50 0 \$0-open \$0-openbng empty 17 7 0 10
-233017 -233017 -1;
#X obj 134 134 bng 15 250 50 0 \$0-open \$0-openbng empty 17 7 0 10
-233017 -233017 -1;
#X obj 149 134 bng 15 250 50 0 \$0-open \$0-openbng empty 17 7 0 10
-233017 -233017 -1;
#X obj 164 134 bng 15 250 50 0 \$0-open \$0-openbng empty 17 7 0 10
-233017 -233017 -1;
#X obj 179 134 bng 15 250 50 0 \$0-open \$0-openbng empty 17 7 0 10
-233017 -233017 -1;
#X obj 194 134 bng 15 250 50 0 \$0-open \$0-openbng empty 17 7 0 10
-233017 -233017 -1;
#X obj 209 134 bng 15 250 50 0 \$0-open \$0-openbng empty 17 7 0 10
-233017 -233017 -1;
#X obj 222 134 bng 15 250 50 0 \$0-open \$0-openbng empty 17 7 0 10
-233017 -233017 -1;
#X obj 239 134 bng 15 250 50 0 \$0-open \$0-openbng empty 17 7 0 10
-233017 -233017 -1;
#X obj 120 132 hsl 133 17 0 127 0 0 \$0-opensl \$0-openr empty... 3
7 2 10 -233017 -233017 -1 0 1;
#X obj 229 141 cnv 3 3 3 empty \$0-filelength 00:00 0 2 2 10 -233017
-1 0;
#X connect 0 0 10 0;
#X connect 1 0 11 0;
#X connect 2 0 6 1;
#X connect 2 0 25 1;
#X connect 3 0 4 0;
#X connect 4 0 2 1;
#X connect 4 0 5 1;
#X connect 5 0 6 0;
#X connect 5 0 25 0;
#X connect 9 0 13 0;
#X connect 10 0 5 0;
#X connect 11 0 2 0;
#X connect 12 0 15 0;
#X connect 13 0 14 0;
#X connect 14 0 12 0;
#X connect 15 0 3 0;
#X connect 16 0 22 0;
#X connect 17 0 18 0;
#X connect 18 0 6 0;
#X connect 20 0 19 0;
#X connect 26 0 25 0;
#X coords 0 -1 1 1 155 52 1 100 100;
