#N struct 1041-xt float x float y;
#N struct 1041-yt float x float y;
#N struct 1041-numbers0 float x float y float n;
#N struct 1041-numbers1 float x float y float n;
#N struct 1041-numbers2 float x float y float n;
#N struct 1041-numbers3 float x float y float n;
#N struct 1041-numbers4 float x float y float n;
#N struct 1041-numbers5 float x float y float n;
#N struct 1041-control-array float x float y array 1041-c-array 1041-control-template
;
#N struct 1041-control-template float x float y float c float n;
#N struct 1041-filter-template float x float y float c float s float
th array 1041-filter0 1041-template-y array 1041-filter1 1041-template-y
array 1041-filter2 1041-template-y array 1041-filter3 1041-template-y
array 1041-filter4 1041-template-y array 1041-filter5 1041-template-y
array 1041-filter6 1041-template-y;
#N struct 1041-template-y float y float c;
#N canvas 116 100 915 519 10;
#X obj 347 185 biquad~;
#N canvas 70 251 374 268 read&draw 0;
#N canvas 155 52 940 599 cascade 0;
#X obj 209 431 list append;
#X obj 209 403 list;
#X obj 245 379 t b l;
#X obj 245 355 list append;
#X obj 245 327 list;
#X obj 281 303 t b l;
#X obj 281 280 list append;
#X obj 281 252 list;
#X obj 317 228 t b l;
#X obj 317 203 list append;
#X obj 317 175 list;
#X obj 353 151 t b l;
#X obj 353 129 list append;
#X obj 353 101 list;
#X obj 389 77 t b l;
#X obj 210 550 * 150;
#X obj 209 574 set \$0-template-y y, f 45;
#X obj 583 527 r \$0-filter-pointer;
#X obj 475 549 element \$0-filter-template \$0-filter6;
#X obj 76 340 r \$0-filtercoeff-0;
#X obj 106 273 r \$0-filtercoeff-1;
#X obj 148 192 r \$0-filtercoeff-2;
#X obj 184 115 r \$0-filtercoeff-3;
#X obj 220 41 r \$0-filtercoeff-4;
#X obj 389 41 r \$0-filtercoeff-5;
#N canvas 1 50 591 487 filterplot 0;
#X obj 195 63 inlet;
#X text 244 64 a1 a2 b0 b1 b2;
#N canvas 237 50 1032 717 frequencies 0;
#X msg 741 279 resize \$1;
#X obj 710 335 s \$0-real.freqs1;
#X obj 720 355 s \$0-real.freqs2;
#X obj 730 375 s \$0-imag.freqs1;
#X obj 740 395 s \$0-imag.freqs2;
#X obj 48 50 table \$0-real.freqs1 10;
#X obj 48 70 table \$0-real.freqs2 10;
#X obj 48 90 table \$0-imag.freqs1 10;
#X obj 48 110 table \$0-imag.freqs2 10;
#X msg 334 92 bang;
#X obj 736 237 s \$0-table.size;
#X obj 50 148 table \$0-mag.temp 10;
#X obj 838 335 s \$0-mag.temp;
#X text 34 257 This makes tables of complex frequencies from 0 to pi.
It should only have to do this once \, unless the size of the table
has been changed.;
#X obj 401 199 t f f;
#X obj 401 574 tabwrite \$0-real.freqs1;
#X obj 434 595 tabwrite \$0-real.freqs2;
#X obj 467 617 tabwrite \$0-imag.freqs1;
#X obj 500 637 tabwrite \$0-imag.freqs2;
#X obj 401 512 expr cos(-1*$f1) \; cos(-2*$f1) \; sin(-1*$f1) \; sin(-2*$f1)
;
#X obj 635 535 r \$0-freq.index;
#X obj 401 47 inlet;
#X obj 401 123 f 700;
#X obj 417 155 change -1;
#X obj 401 89 loadbang;
#N canvas 533 50 832 717 mtof-scale 0;
#X obj 138 536 / 44100;
#X obj 207 351 s \$0-freq.index;
#X obj 106 150 inlet;
#X obj 138 645 outlet;
#X obj 106 232 until;
#X obj 106 276 f 0;
#X obj 132 276 + 1;
#X msg 122 254 0;
#X obj 106 308 t f f;
#X obj 106 179 t f b f b;
#X obj 177 227 samplerate~;
#X obj 106 365 / 700;
#X obj 106 481 mtof;
#X obj 106 459 * 135;
#X obj 138 609 * 6.28319;
#X obj 106 412 pow 0.6;
#X connect 0 0 14 0;
#X connect 2 0 9 0;
#X connect 4 0 5 0;
#X connect 5 0 6 0;
#X connect 5 0 8 0;
#X connect 6 0 5 1;
#X connect 7 0 5 1;
#X connect 8 0 11 0;
#X connect 8 1 1 0;
#X connect 9 0 4 0;
#X connect 9 1 7 0;
#X connect 9 2 11 1;
#X connect 9 3 10 0;
#X connect 10 0 0 1;
#X connect 11 0 15 0;
#X connect 12 0 0 0;
#X connect 13 0 12 0;
#X connect 14 0 3 0;
#X connect 15 0 13 0;
#X restore 401 398 pd mtof-scale;
#X connect 0 0 1 0;
#X connect 0 0 2 0;
#X connect 0 0 3 0;
#X connect 0 0 4 0;
#X connect 0 0 12 0;
#X connect 9 0 22 0;
#X connect 14 0 25 0;
#X connect 14 1 10 0;
#X connect 14 1 0 0;
#X connect 19 0 15 0;
#X connect 19 1 16 0;
#X connect 19 2 17 0;
#X connect 19 3 18 0;
#X connect 20 0 15 1;
#X connect 20 0 16 1;
#X connect 20 0 17 1;
#X connect 20 0 18 1;
#X connect 22 0 23 0;
#X connect 22 0 14 0;
#X connect 24 0 22 0;
#X connect 25 0 19 0;
#X restore 246 203 pd frequencies;
#N canvas 507 -4 681 717 calculate 0;
#X obj 492 -28 inlet;
#X text 778 390 z-Transform:;
#X text 827 417 H(z) = b0 + b1*z^-1 + b2*z^-2;
#X text 869 426 ----------------------;
#X text 873 437 1 + a1*z^-1 + a2*z^-2;
#X obj 492 -2 t b l;
#X obj 259 22 r \$0-table.size;
#X obj 244 65 f;
#X obj 278 112 until;
#X obj 278 156 f 0;
#X obj 304 156 + 1;
#X msg 293 133 0;
#X obj 278 179 t f f f f f;
#X obj 216 257 tabread \$0-real.freqs1;
#X obj 285 285 tabread \$0-imag.freqs1;
#X obj 405 304 tabread \$0-real.freqs2;
#X obj 472 326 tabread \$0-imag.freqs2;
#X obj 618 328 unpack f f f f f;
#X obj 415 508 /;
#X obj 415 402 expr $f7 + $f8*$f1 + $f9*$f3 \; $f8*$f2 + $f9*$f4 \;
1 - $f5*$f1 - $f6*$f3 \; 0 - $f5*$f2 - $f6*$f4 \;;
#X obj 43 665 outlet;
#X obj 368 678 tabwrite \$0-mag.temp;
#X text 95 665 done;
#X obj 244 88 t b b f b;
#X obj 431 614 tabread \$0-mag.temp;
#X obj 415 646 *;
#X obj 391 211 s \$0-temp.index;
#X obj 485 592 r \$0-temp.index;
#X obj 448 516 r \$0-first;
#X obj 448 538 == 0;
#X obj 368 575 spigot;
#X obj 415 574 spigot;
#N canvas 97 203 450 300 magnitude 0;
#X obj 105 49 inlet;
#X obj 188 49 inlet;
#X text 143 50 real;
#X text 223 49 imag;
#X obj 142 174 outlet;
#X text 187 174 magnitude;
#X obj 105 91 pow 2;
#X obj 188 92 pow 2;
#X obj 142 123 +;
#X obj 142 146 sqrt;
#X connect 0 0 6 0;
#X connect 1 0 7 0;
#X connect 6 0 8 0;
#X connect 7 0 8 1;
#X connect 8 0 9 0;
#X connect 9 0 4 0;
#X restore 415 472 pd magnitude;
#N canvas 97 203 450 300 magnitude 0;
#X obj 105 49 inlet;
#X obj 188 49 inlet;
#X text 143 50 real;
#X text 223 49 imag;
#X obj 142 174 outlet;
#X text 187 174 magnitude;
#X obj 105 91 pow 2;
#X obj 188 92 pow 2;
#X obj 142 123 +;
#X obj 142 146 sqrt;
#X connect 0 0 6 0;
#X connect 1 0 7 0;
#X connect 6 0 8 0;
#X connect 7 0 8 1;
#X connect 8 0 9 0;
#X connect 9 0 4 0;
#X restore 517 471 pd magnitude;
#X msg 124 175 0;
#X obj 124 203 s \$0-first;
#X connect 0 0 5 0;
#X connect 5 0 7 0;
#X connect 5 1 17 0;
#X connect 6 0 7 1;
#X connect 7 0 23 0;
#X connect 8 0 9 0;
#X connect 9 0 10 0;
#X connect 9 0 12 0;
#X connect 10 0 9 1;
#X connect 11 0 9 1;
#X connect 12 0 13 0;
#X connect 12 1 14 0;
#X connect 12 2 15 0;
#X connect 12 3 16 0;
#X connect 12 4 26 0;
#X connect 13 0 19 0;
#X connect 14 0 19 1;
#X connect 15 0 19 2;
#X connect 16 0 19 3;
#X connect 17 0 19 4;
#X connect 17 1 19 5;
#X connect 17 2 19 6;
#X connect 17 3 19 7;
#X connect 17 4 19 8;
#X connect 18 0 30 0;
#X connect 18 0 31 0;
#X connect 19 0 32 0;
#X connect 19 1 32 1;
#X connect 19 2 33 0;
#X connect 19 3 33 1;
#X connect 23 0 20 0;
#X connect 23 1 34 0;
#X connect 23 2 8 0;
#X connect 23 3 11 0;
#X connect 24 0 25 1;
#X connect 25 0 21 0;
#X connect 27 0 24 0;
#X connect 27 0 21 1;
#X connect 28 0 29 0;
#X connect 28 0 30 1;
#X connect 29 0 31 1;
#X connect 30 0 21 0;
#X connect 31 0 25 0;
#X connect 32 0 18 0;
#X connect 33 0 18 1;
#X connect 34 0 35 0;
#X restore 212 348 pd calculate;
#X obj 212 291 list split 5;
#X obj 455 63 inlet;
#N canvas 1 50 490 468 messages 0;
#X obj 124 88 inlet;
#X obj 151 206 s \$0-dbrange;
#X obj 124 230 s \$0-redraw;
#X obj 124 183 t b f;
#X obj 124 158 expr abs($f1);
#X obj 124 135 route dbrange;
#X connect 0 0 5 0;
#X connect 3 0 2 0;
#X connect 3 1 1 0;
#X connect 4 0 3 0;
#X connect 5 0 4 0;
#X restore 455 87 pd messages;
#X obj 169 319 list;
#N canvas 450 50 506 627 scale.and.draw 0;
#X obj 134 88 r \$0-table.size;
#X obj 119 140 t f b;
#X obj 119 168 until;
#X obj 119 112 f;
#X obj 119 211 f 0;
#X obj 145 211 + 1;
#X msg 160 169 0;
#X obj 119 237 t f f;
#X obj 146 261 s \$0-plot.index;
#X obj 290 481 r \$0-plot.index;
#X obj 119 331 rmstodb;
#X obj 119 436 clip -24 24;
#X obj 119 466 / 24;
#X obj 119 40 inlet;
#X obj 119 302 tabread \$0-mag.temp;
#X obj 119 360 - 100;
#X obj 182 369 r \$0-dbrange;
#X obj 152 406 * -1;
#X obj 31 72 r \$0-redraw;
#X obj 119 505 outlet;
#X obj 290 504 outlet;
#X connect 0 0 3 1;
#X connect 1 0 2 0;
#X connect 1 1 6 0;
#X connect 2 0 4 0;
#X connect 3 0 1 0;
#X connect 4 0 5 0;
#X connect 4 0 7 0;
#X connect 5 0 4 1;
#X connect 6 0 4 1;
#X connect 7 0 14 0;
#X connect 7 1 8 0;
#X connect 9 0 20 0;
#X connect 10 0 15 0;
#X connect 11 0 12 0;
#X connect 12 0 19 0;
#X connect 13 0 3 0;
#X connect 14 0 10 0;
#X connect 15 0 11 0;
#X connect 16 0 11 2;
#X connect 16 0 12 1;
#X connect 16 0 17 0;
#X connect 17 0 11 1;
#X connect 18 0 3 0;
#X restore 105 388 pd scale.and.draw;
#X obj 134 134 list;
#X obj 96 98 r \$0-replot;
#X obj 105 411 outlet;
#X obj 204 412 outlet;
#X text 252 415 index;
#X obj 229 250 s \$0-first;
#X msg 229 227 1;
#X obj 195 180 t b l b b;
#N canvas 1 50 450 300 init 0;
#X obj 133 33 loadbang;
#X obj 286 147 samplerate~;
#X obj 286 170 s \$0-sample.rate;
#X msg 228 144 1;
#X obj 228 166 atan;
#X obj 228 188 * 4;
#X obj 228 111 t b b;
#X obj 228 208 s \$0-pi;
#X obj 133 61 t b b;
#X obj 133 137 expr abs($f1);
#X obj 133 165 s \$0-dbrange;
#X msg 133 113 24;
#X connect 0 0 8 0;
#X connect 1 0 2 0;
#X connect 3 0 4 0;
#X connect 4 0 5 0;
#X connect 5 0 7 0;
#X connect 6 0 3 0;
#X connect 6 1 1 0;
#X connect 8 0 11 0;
#X connect 8 1 6 0;
#X connect 9 0 10 0;
#X connect 11 0 9 0;
#X restore 454 123 pd init;
#X text 327 429 striped-down version of filterplot.mmb;
#X text 366 451 https://github.com/dotmmb/mmb;
#X connect 0 0 9 1;
#X connect 0 0 16 0;
#X connect 3 0 7 0;
#X connect 4 0 3 0;
#X connect 4 1 7 1;
#X connect 5 0 6 0;
#X connect 7 0 4 0;
#X connect 8 0 11 0;
#X connect 8 1 12 0;
#X connect 9 0 16 0;
#X connect 10 0 9 0;
#X connect 15 0 14 0;
#X connect 16 0 8 0;
#X connect 16 1 4 0;
#X connect 16 2 15 0;
#X connect 16 3 2 0;
#X restore 209 524 pd filterplot;
#X obj 209 503 spigot 1;
#X obj 321 436 r \$0-draw-sum;
#X obj 321 468 t f f;
#X obj 234 466 list;
#X obj 273 468 sel 1;
#X msg 374 506 dbrange \$1;
#X obj 374 486 r \$0-dbrange-gui;
#X connect 0 0 26 0;
#X connect 0 0 29 1;
#X connect 1 0 0 0;
#X connect 2 0 1 0;
#X connect 2 1 0 1;
#X connect 3 0 2 0;
#X connect 4 0 3 0;
#X connect 5 0 4 0;
#X connect 5 1 3 1;
#X connect 6 0 5 0;
#X connect 7 0 6 0;
#X connect 8 0 7 0;
#X connect 8 1 6 1;
#X connect 9 0 8 0;
#X connect 10 0 9 0;
#X connect 11 0 10 0;
#X connect 11 1 9 1;
#X connect 12 0 11 0;
#X connect 13 0 12 0;
#X connect 14 0 13 0;
#X connect 14 1 12 1;
#X connect 15 0 16 0;
#X connect 17 0 18 1;
#X connect 18 0 16 1;
#X connect 19 0 1 1;
#X connect 19 0 0 0;
#X connect 20 0 3 0;
#X connect 20 0 4 1;
#X connect 21 0 6 0;
#X connect 21 0 7 1;
#X connect 22 0 9 0;
#X connect 22 0 10 1;
#X connect 23 0 12 0;
#X connect 23 0 13 1;
#X connect 24 0 14 0;
#X connect 25 0 15 0;
#X connect 25 1 18 0;
#X connect 26 0 25 0;
#X connect 27 0 28 0;
#X connect 28 0 30 0;
#X connect 28 1 26 1;
#X connect 29 0 26 0;
#X connect 30 0 29 0;
#X connect 31 0 25 1;
#X connect 32 0 31 0;
#X restore 84 187 pd cascade;
#X obj 84 48 pp.parameq-draw 1 \$0 peaking;
#X obj 84 72 pp.parameq-draw 2 \$0 peaking;
#X obj 84 97 pp.parameq-draw 3 \$0 peaking;
#X obj 84 121 pp.parameq-draw 4 \$0 peaking;
#X obj 84 144 pp.parameq-draw 5 \$0 highshelf;
#X obj 84 24 pp.parameq-draw 0 \$0 lowshelf;
#X restore 634 283 pd read&draw;
#X obj 347 206 biquad~;
#X obj 347 228 biquad~;
#X obj 347 249 biquad~;
#X obj 347 270 biquad~;
#X obj 347 292 biquad~;
#X obj 409 146 r \$0-filtercoeff-0;
#X obj 409 168 r \$0-filtercoeff-1;
#X obj 408 191 r \$0-filtercoeff-2;
#X obj 409 213 r \$0-filtercoeff-3;
#X obj 410 237 r \$0-filtercoeff-4;
#X obj 410 260 r \$0-filtercoeff-5;
#X obj 634 217 bng 15 250 50 0 empty empty empty 17 7 0 10 -262144
-1 -1;
#N canvas 195 50 1115 717 setup 0;
#X obj 47 132 until;
#X obj 47 337 set \$0-control-template x y;
#X obj 194 31 r \$0-control-array-pointer;
#X obj 47 155 f;
#X obj 89 146 + 1;
#X obj 47 180 t f f;
#X obj 47 261 pack f 0 f;
#X obj 47 288 unpack f f f;
#X obj 194 53 t b p;
#X msg 451 171 700;
#X obj 451 149 t b p;
#X msg 451 263 700;
#X obj 451 241 t b p;
#X msg 452 355 700;
#X obj 452 333 t b p;
#X obj 451 195 setsize \$0-filter-template \$0-filter1;
#X obj 451 285 setsize \$0-filter-template \$0-filter2;
#X obj 452 377 setsize \$0-filter-template \$0-filter3;
#X obj 451 126 r \$0-filter-pointer;
#X obj 451 218 r \$0-filter-pointer;
#X obj 452 310 r \$0-filter-pointer;
#X msg 450 81 700;
#X obj 450 59 t b p;
#X obj 450 36 r \$0-filter-pointer;
#X obj 450 105 setsize \$0-filter-template \$0-filter0;
#X msg 726 164 700;
#X obj 726 142 t b p;
#X msg 726 256 700;
#X obj 726 234 t b p;
#X msg 727 348 700;
#X obj 727 326 t b p;
#X obj 726 119 r \$0-filter-pointer;
#X obj 726 211 r \$0-filter-pointer;
#X obj 727 303 r \$0-filter-pointer;
#X obj 726 188 setsize \$0-filter-template \$0-filter4;
#X obj 726 278 setsize \$0-filter-template \$0-filter5;
#X obj 727 370 setsize \$0-filter-template \$0-filter6;
#X msg 47 109 6;
#X msg 195 130 700;
#X floatatom 195 176 5 0 0 0 - - -;
#X obj 195 153 / 6;
#X obj 47 211 * 116.6;
#X obj 89 169 mod 6;
#X obj 195 198 / 2;
#X floatatom 195 221 5 0 0 0 - - -;
#X obj 47 234 + 58.33;
#X obj 803 429 r \$0-control-array-pointer;
#X obj 476 572 set \$0-control-template c;
#X obj 206 315 element \$0-control-array \$0-c-array;
#X obj 623 551 element \$0-control-array \$0-c-array;
#X obj 476 526 unpack;
#X obj 803 452 t b p;
#X msg 476 504 950 0 \, 900 1 \, 70 2 \, 9 3 \, 770 4 \, 707 5;
#X obj 45 412 t b p;
#X msg 45 435 58.33 0;
#X obj 45 458 set \$0-numbers0 x y;
#X obj 45 390 r \$0-numbers0-pointer;
#X obj 45 504 t b p;
#X obj 45 595 t b p;
#X obj 183 414 t b p;
#X obj 183 506 t b p;
#X obj 183 597 t b p;
#X msg 45 527 174.93 0;
#X msg 45 618 291.53 0;
#X msg 183 437 408.13 0;
#X msg 183 529 524.73 0;
#X msg 183 620 641.33 0;
#X obj 45 482 r \$0-numbers1-pointer;
#X obj 45 550 set \$0-numbers1 x y;
#X obj 45 573 r \$0-numbers2-pointer;
#X obj 45 641 set \$0-numbers2 x y;
#X obj 183 392 r \$0-numbers3-pointer;
#X obj 183 460 set \$0-numbers3 x y;
#X obj 183 552 set \$0-numbers4 x y;
#X obj 183 484 r \$0-numbers4-pointer;
#X obj 183 575 r \$0-numbers5-pointer;
#X obj 183 643 set \$0-numbers5 x y;
#X connect 0 0 3 0;
#X connect 2 0 8 0;
#X connect 3 0 4 0;
#X connect 3 0 5 0;
#X connect 4 0 42 0;
#X connect 5 0 41 0;
#X connect 5 1 6 2;
#X connect 6 0 7 0;
#X connect 7 0 1 0;
#X connect 7 1 1 1;
#X connect 7 2 48 0;
#X connect 8 0 37 0;
#X connect 8 1 48 1;
#X connect 9 0 15 0;
#X connect 10 0 9 0;
#X connect 10 1 15 1;
#X connect 11 0 16 0;
#X connect 12 0 11 0;
#X connect 12 1 16 1;
#X connect 13 0 17 0;
#X connect 14 0 13 0;
#X connect 14 1 17 1;
#X connect 18 0 10 0;
#X connect 19 0 12 0;
#X connect 20 0 14 0;
#X connect 21 0 24 0;
#X connect 22 0 21 0;
#X connect 22 1 24 1;
#X connect 23 0 22 0;
#X connect 25 0 34 0;
#X connect 26 0 25 0;
#X connect 26 1 34 1;
#X connect 27 0 35 0;
#X connect 28 0 27 0;
#X connect 28 1 35 1;
#X connect 29 0 36 0;
#X connect 30 0 29 0;
#X connect 30 1 36 1;
#X connect 31 0 26 0;
#X connect 32 0 28 0;
#X connect 33 0 30 0;
#X connect 37 0 0 0;
#X connect 38 0 40 0;
#X connect 39 0 43 0;
#X connect 40 0 39 0;
#X connect 41 0 45 0;
#X connect 42 0 3 1;
#X connect 43 0 44 0;
#X connect 45 0 6 0;
#X connect 46 0 51 0;
#X connect 48 0 1 2;
#X connect 49 0 47 1;
#X connect 50 0 47 0;
#X connect 50 1 49 0;
#X connect 51 0 52 0;
#X connect 51 1 49 1;
#X connect 52 0 50 0;
#X connect 53 0 54 0;
#X connect 53 1 55 2;
#X connect 54 0 55 0;
#X connect 56 0 53 0;
#X connect 57 0 62 0;
#X connect 57 1 68 2;
#X connect 58 0 63 0;
#X connect 58 1 70 2;
#X connect 59 0 64 0;
#X connect 59 1 72 2;
#X connect 60 0 65 0;
#X connect 60 1 73 2;
#X connect 61 0 66 0;
#X connect 61 1 76 2;
#X connect 62 0 68 0;
#X connect 63 0 70 0;
#X connect 64 0 72 0;
#X connect 65 0 73 0;
#X connect 66 0 76 0;
#X connect 67 0 57 0;
#X connect 69 0 58 0;
#X connect 71 0 59 0;
#X connect 74 0 60 0;
#X connect 75 0 61 0;
#X restore 634 260 pd setup struct;
#N canvas 13 84 1268 628 stuff 0;
#X obj 44 63 tgl 15 0 empty empty empty 17 7 0 10 -262144 -1 -1 1 1
;
#X obj 44 128 metro 100;
#X floatatom 108 129 5 0 0 0 - - -;
#X obj 203 57 route 0;
#X obj 203 34 r \$0-freq-from-array;
#X obj 203 220 s \$0-freq-to-filter;
#X obj 203 174 list prepend 0;
#X obj 203 197 list trim;
#X msg 203 91 set \$1;
#X obj 331 33 r \$0-touch;
#X obj 331 56 change;
#X obj 203 123 s \$0-freq-guir;
#X obj 203 150 r \$0-freq-gui;
#X obj 803 188 list trim;
#X obj 409 56 route 0;
#X obj 409 33 r \$0-gain-from-array;
#X obj 409 172 list prepend 0;
#X obj 409 195 list trim;
#X obj 409 218 s \$0-gain-to-filter;
#X msg 409 94 set \$1;
#X obj 615 58 route 0;
#X obj 615 172 list prepend 0;
#X obj 615 195 list trim;
#X msg 615 86 set \$1;
#X obj 615 34 r \$0-q-from-array;
#X obj 615 218 s \$0-q-to-filter;
#X obj 538 33 r \$0-touch;
#X obj 538 56 change;
#X obj 726 34 r \$0-touch;
#X obj 726 57 change;
#X obj 943 34 r \$0-touch;
#X obj 943 57 change;
#X obj 803 34 r \$0-filtertype-to-gui;
#X msg 803 80 set \$1;
#X obj 803 165 list prepend 0;
#X obj 803 57 route 0;
#X obj 803 216 s \$0-filtertype-to-filter;
#X obj 409 122 s \$0-gain-guir;
#X obj 409 148 r \$0-gain-gui;
#X obj 615 109 s \$0-q-guir;
#X obj 615 149 r \$0-q-gui;
#X msg 216 345 Highpass;
#X obj 199 467 symbol;
#X msg 199 488 label \$1;
#X msg 331 398 color 0;
#X msg 356 418 color 1;
#X obj 803 103 s \$0-filtertype-guir;
#X obj 803 141 r \$0-filtertype-gui;
#X obj 202 279 r \$0-filtertype-gui;
#X msg 202 324 Peaking;
#X msg 234 369 Lowpass;
#X msg 251 394 Lowshelf;
#X msg 260 418 Highshelf;
#X msg 274 441 Notch;
#X obj 199 509 s \$0-filtertype-guir;
#X obj 202 303 sel 0 1 2 3 4 5;
#X obj 467 277 r \$0-touch;
#X obj 467 300 change;
#X obj 327 277 r \$0-filtertype-to-gui;
#X obj 327 300 route 0;
#X obj 356 445 s \$0-gain-guir;
#X obj 803 288 r \$0-touch;
#X obj 803 310 change;
#X msg 803 382 set \$1;
#X obj 803 442 s \$0-touch-guir;
#X obj 600 348 sel 0 1 2 3 4 5;
#X msg 630 374 13;
#X msg 661 374 16;
#X msg 691 374 18;
#X msg 722 374 15;
#X msg 752 374 19;
#X msg 600 374 14;
#X msg 691 408 color \$1;
#X obj 803 466 r \$0-touch-gui;
#X obj 803 489 s \$0-touch;
#X obj 44 151 s \$0-updatebng;
#X obj 553 538 s \$0-visbngr;
#X obj 535 433 r \$0-visbng;
#X msg 533 510 color 0 0;
#X msg 617 510 color 10 10;
#X obj 535 455 t b;
#X obj 615 485 del 250;
#X obj 499 587 s pd-\$0-parameq;
#X obj 44 40 r \$0-update-metro;
#X msg 499 565 relocate 733x370+1+1 1x1+50+70 \, vis 1 \, editmode
0;
#N canvas 1 50 845 386 isvisible 0;
#X obj 418 47 r \$0-draw-sum-gui;
#X obj 434 71 r \$0-draw-colfilter-gui;
#X obj 344 108 f;
#X obj 360 134 f 1;
#X obj 369 10 r \$0-isvisible;
#X obj 325 43 sel 0 1;
#X obj 310 107 f 0;
#X obj 48 43 loadbang;
#X obj 48 85 metro 300;
#X obj 48 65 tgl 15 0 empty empty empty 17 7 0 10 -262144 -1 -1 1 1
;
#X obj 48 108 s \$0-isvisible-check;
#X obj 394 153 spigot;
#X obj 434 183 spigot;
#X obj 359 287 s \$0-draw-colfilter;
#X obj 310 230 s \$0-draw-sum;
#X obj 359 265 change;
#X obj 310 207 change;
#X connect 0 0 2 1;
#X connect 0 0 11 0;
#X connect 1 0 3 1;
#X connect 1 0 12 0;
#X connect 2 0 16 0;
#X connect 3 0 15 0;
#X connect 4 0 5 0;
#X connect 4 0 11 1;
#X connect 4 0 12 1;
#X connect 5 0 6 0;
#X connect 5 1 2 0;
#X connect 5 1 3 0;
#X connect 6 0 15 0;
#X connect 6 0 16 0;
#X connect 7 0 9 0;
#X connect 8 0 10 0;
#X connect 9 0 8 0;
#X connect 11 0 16 0;
#X connect 12 0 15 0;
#X connect 15 0 13 0;
#X connect 16 0 14 0;
#X restore 528 412 pd isvisible;
#X obj 967 219 r \$0-dbrange-gui;
#X obj 967 253 * 0.5;
#X obj 1009 252 * 0.25;
#X obj 967 276 * -1;
#X obj 1009 279 * -1;
#X msg 978 366 label \$1;
#X obj 978 387 s \$0-dbzeiger-minus1;
#X msg 967 432 label \$1;
#X obj 967 453 s \$0-dbzeiger-minus2;
#X msg 1118 365 label \$1;
#X msg 1117 435 label \$1;
#X obj 1118 387 s \$0-dbzeiger-plus1;
#X obj 1117 456 s \$0-dbzeiger-plus2;
#X obj 967 410 makefilename %d;
#X obj 978 345 makefilename %d;
#X obj 1118 344 makefilename %d;
#X obj 1117 413 makefilename %d;
#X obj 74 103 r \$0-update-rate;
#X connect 0 0 1 0;
#X connect 1 0 75 0;
#X connect 2 0 1 1;
#X connect 3 0 8 0;
#X connect 4 0 3 0;
#X connect 6 0 7 0;
#X connect 7 0 5 0;
#X connect 8 0 11 0;
#X connect 9 0 10 0;
#X connect 10 0 6 1;
#X connect 10 0 3 1;
#X connect 12 0 6 0;
#X connect 13 0 36 0;
#X connect 14 0 19 0;
#X connect 15 0 14 0;
#X connect 16 0 17 0;
#X connect 17 0 18 0;
#X connect 19 0 37 0;
#X connect 20 0 23 0;
#X connect 21 0 22 0;
#X connect 22 0 25 0;
#X connect 23 0 39 0;
#X connect 24 0 20 0;
#X connect 26 0 27 0;
#X connect 27 0 16 1;
#X connect 27 0 14 1;
#X connect 28 0 29 0;
#X connect 29 0 21 1;
#X connect 29 0 20 1;
#X connect 30 0 31 0;
#X connect 31 0 34 1;
#X connect 31 0 35 1;
#X connect 32 0 35 0;
#X connect 33 0 46 0;
#X connect 34 0 13 0;
#X connect 35 0 33 0;
#X connect 38 0 16 0;
#X connect 40 0 21 0;
#X connect 41 0 42 0;
#X connect 42 0 43 0;
#X connect 43 0 54 0;
#X connect 44 0 60 0;
#X connect 45 0 60 0;
#X connect 47 0 34 0;
#X connect 48 0 55 0;
#X connect 49 0 42 0;
#X connect 50 0 42 0;
#X connect 51 0 42 0;
#X connect 52 0 42 0;
#X connect 53 0 42 0;
#X connect 55 0 49 0;
#X connect 55 0 44 0;
#X connect 55 1 41 0;
#X connect 55 1 45 0;
#X connect 55 2 50 0;
#X connect 55 2 45 0;
#X connect 55 3 51 0;
#X connect 55 3 44 0;
#X connect 55 4 52 0;
#X connect 55 4 44 0;
#X connect 55 5 53 0;
#X connect 55 5 45 0;
#X connect 56 0 57 0;
#X connect 57 0 59 1;
#X connect 58 0 59 0;
#X connect 59 0 55 0;
#X connect 61 0 62 0;
#X connect 62 0 63 0;
#X connect 62 0 65 0;
#X connect 63 0 64 0;
#X connect 65 0 71 0;
#X connect 65 1 66 0;
#X connect 65 2 67 0;
#X connect 65 3 68 0;
#X connect 65 4 69 0;
#X connect 65 5 70 0;
#X connect 66 0 72 0;
#X connect 67 0 72 0;
#X connect 68 0 72 0;
#X connect 69 0 72 0;
#X connect 70 0 72 0;
#X connect 71 0 72 0;
#X connect 72 0 64 0;
#X connect 73 0 74 0;
#X connect 77 0 80 0;
#X connect 78 0 76 0;
#X connect 79 0 76 0;
#X connect 80 0 78 0;
#X connect 80 0 81 0;
#X connect 80 0 84 0;
#X connect 81 0 79 0;
#X connect 83 0 0 0;
#X connect 84 0 82 0;
#X connect 86 0 88 0;
#X connect 86 0 87 0;
#X connect 87 0 89 0;
#X connect 87 0 102 0;
#X connect 88 0 90 0;
#X connect 88 0 101 0;
#X connect 89 0 99 0;
#X connect 90 0 100 0;
#X connect 91 0 92 0;
#X connect 93 0 94 0;
#X connect 95 0 97 0;
#X connect 96 0 98 0;
#X connect 99 0 93 0;
#X connect 100 0 91 0;
#X connect 101 0 95 0;
#X connect 102 0 96 0;
#X connect 103 0 1 1;
#X restore 634 314 pd stuff;
#N canvas 50 70 733 370 \$0-parameq 0;
#N canvas 32 57 1033 544 mask 0;
#X obj 100 100 cnv 15 719 354 empty empty empty 20 12 0 14 -262144
-66577 0;
#X obj 109 108 cnv 15 702 302 empty empty empty 20 12 0 14 -128992
-66577 0;
#X obj 110 109 cnv 15 700 300 empty empty empty 20 12 0 14 -262144
-66577 0;
#X obj 213 432 nbx 5 12 0 20000 0 0 \$0-freq-gui \$0-freq-guir Frequency
0 -8 2 10 -262144 -1 -1 3242.9 256;
#X obj 306 432 nbx 4 12 -1e+37 1e+37 0 0 \$0-gain-gui \$0-gain-guir
Gain 0 -8 2 10 -262144 -1 -1 4.96 256;
#X obj 263 432 nbx 4 12 -1e+37 1e+37 0 0 \$0-q-gui \$0-q-guir Q 2 -8
2 10 -262144 -1 -1 12 256;
#X obj 135 432 hradio 12 1 0 6 \$0-filtertype-gui \$0-filtertype-guir
Peaking 0 -8 2 10 -262144 -1 -1 0;
#X obj 523 416 tgl 12 0 \$0-draw-colfilter-gui \$0-draw-colfilter-guir
draw_Filter 17 7 2 10 -262144 -1 -1 1 1;
#X obj 596 416 tgl 12 0 \$0-draw-sum-gui \$0-draw-sum-guir draw_Sum
17 7 2 10 -262144 -1 -1 0 1;
#X obj 112 432 nbx 1 12 0 5 0 0 \$0-touch-gui \$0-touch-guir empty
2 -9 2 10 -62784 -1 -1 3 256;
#N canvas 537 267 450 300 \$0-grid 0;
#X scalar 1041-xt 1.57974 -150 \;;
#X scalar 1041-xt 18.9587 -150 \;;
#X scalar 1041-xt 35.3494 -150 \;;
#X scalar 1041-xt 49.3265 -150 \;;
#X scalar 1041-xt 61.4141 -150 \;;
#X scalar 1041-xt 72.0618 -150 \;;
#X scalar 1041-xt 81.588 -150 \;;
#X scalar 1041-xt 90.2181 -150 \;;
#X scalar 1041-xt 98.1158 -150 \;;
#X scalar 1041-xt 105.403 -150 \;;
#X scalar 1041-xt 158.393 -150 \;;
#X scalar 1041-xt 193.269 -150 \;;
#X scalar 1041-xt 219.669 -150 \;;
#X scalar 1041-xt 241.069 -150 \;;
#X scalar 1041-xt 259.139 -150 \;;
#X scalar 1041-xt 274.822 -150 \;;
#X scalar 1041-xt 288.704 -150 \;;
#X scalar 1041-xt 301.174 -150 \;;
#X scalar 1041-xt 312.508 -150 \;;
#X scalar 1041-xt 391.173 -150 \;;
#X scalar 1041-xt 440.41 -150 \;;
#X scalar 1041-xt 476.747 -150 \;;
#X scalar 1041-xt 505.72 -150 \;;
#X scalar 1041-xt 529.898 -150 \;;
#X scalar 1041-xt 550.69 -150 \;;
#X scalar 1041-xt 568.96 -150 \;;
#X scalar 1041-xt 585.272 -150 \;;
#X scalar 1041-xt 600.019 -150 \;;
#X scalar 1041-yt 1 -37.5 \;;
#X scalar 1041-yt 1 37.5 \;;
#X scalar 1041-yt 1 -75 \;;
#X scalar 1041-yt 1 75 \;;
#X coords 0 -150 700 150 700 300 2 100 100;
#X restore 110 109 pd \$0-grid;
#N canvas 340 269 450 300 \$0-graph 0;
#X scalar 1041-numbers0 58.3297 0 0 \;;
#X scalar 1041-numbers1 172.93 51 0 \;;
#X scalar 1041-numbers2 327.53 -66 0 \;;
#X scalar 1041-numbers3 450.13 31 12 \;;
#X scalar 1041-numbers4 524.73 0 0 \;;
#X scalar 1041-numbers5 641.33 0 0 \;;
#X scalar 1041-control-array 0 0 \; 58.3297 0 950 0 \; 172.93 51 900
0 \; 327.53 -66 70 0 \; 450.13 31 9 0 \; 524.73 0 770 0 \; 641.33 0
707 0 \; \;;
#X scalar 1041-filter-template 1 0 900 0 1 \; 0 0 \; 0 0 \; 0 0 \;
0 0 \; 0 0 \; 0 0 \; 0 0 \; 0 0 \; 0 0 \; 0 0 \; 0 0 \; 0 0 \; 0 0
\; 0 0 \; 0 0 \; 0 0 \; 0 0 \; 0 0 \; 0 0 \; 0 0 \; 0 0 \; 0 0 \; 0
0 \; 0 0 \; 0 0 \; 0 0 \; 0 0 \; 0 0 \; 0 0 \; 0 0 \; 0 0 \; 0 0 \;
0 0 \; 0 0 \; 0 0 \; 0 0 \; 0 0 \; 0 0 \; 0 0 \; 0 0 \; 0 0 \; 0 0
\; 0 0 \; 0 0 \; 0 0 \; 0 0 \; 0 0 \; 0 0 \; 0 0 \; 0 0 \; 0 0 \; 0
0 \; 0 0 \; 0 0 \; 0 0 \; 0 0 \; 0 0 \; 0 0 \; 0 0 \; 0 0 \; 0 0 \;
0 0 \; 0 0 \; 0 0 \; 0 0 \; 0 0 \; 0 0 \; 0 0 \; 0 0 \; 0 0 \; 0 0
\; 0 0 \; 0 0 \; 0 0 \; 0 0 \; 0 0 \; 0 0 \; 0 0 \; 0 0 \; 0 0 \; 0
0 \; 0 0 \; 0 0 \; 0 0 \; 0 0 \; 0 0 \; 0 0 \; 0 0 \; 0 0 \; 0 0 \;
0 0 \; 0 0 \; 0 0 \; 0 0 \; 0 0 \; 0 0 \; 0 0 \; 0 0 \; 0 0 \; 0 0
\; 0 0 \; 0 0 \; 0 0 \; 0 0 \; 0 0 \; 0 0 \; 0 0 \; 0 0 \; 0 0 \; 0
0 \; 0 0 \; 0 0 \; 0 0 \; 0 0 \; 0 0 \; 0 0 \; 0 0 \; 0 0 \; 0 0 \;
0 0 \; 0 0 \; 0 0 \; 0 0 \; 0 0 \; 0 0 \; 0 0 \; 0 0 \; 0 0 \; 0 0
\; 0 0 \; 0 0 \; 0 0 \; 0 0 \; 0 0 \; 0 0 \; 0 0 \; 0 0 \; 0 0 \; 0
0 \; 0 0 \; 0 0 \; 0 0 \; 0 0 \; 0 0 \; 0 0 \; 0 0 \; 0 0 \; 0 0 \;
0 0 \; 0 0 \; 0 0 \; 0 0 \; 0 0 \; 0 0 \; 0 0 \; 0 0 \; 0 0 \; 0 0
\; 0 0 \; 0 0 \; 0 0 \; 0 0 \; 0 0 \; 0 0 \; 0 0 \; 0 0 \; 0 0 \; 0
0 \; 0 0 \; 0 0 \; 0 0 \; 0 0 \; 0 0 \; 0 0 \; 0 0 \; 0 0 \; 0 0 \;
0 0 \; 0 0 \; 0 0 \; 0 0 \; 0 0 \; 0 0 \; 0 0 \; 0 0 \; 0 0 \; 0 0
\; 0 0 \; 0 0 \; 0 0 \; 0 0 \; 0 0 \; 0 0 \; 0 0 \; 0 0 \; 0 0 \; 0
0 \; 0 0 \; 0 0 \; 0 0 \; 0 0 \; 0 0 \; 0 0 \; 0 0 \; 0 0 \; 0 0 \;
0 0 \; 0 0 \; 0 0 \; 0 0 \; 0 0 \; 0 0 \; 0 0 \; 0 0 \; 0 0 \; 0 0
\; 0 0 \; 0 0 \; 0 0 \; 0 0 \; 0 0 \; 0 0 \; 0 0 \; 0 0 \; 0 0 \; 0
0 \; 0 0 \; 0 0 \; 0 0 \; 0 0 \; 0 0 \; 0 0 \; 0 0 \; 0 0 \; 0 0 \;
0 0 \; 0 0 \; 0 0 \; 0 0 \; 0 0 \; 0 0 \; 0 0 \; 0 0 \; 0 0 \; 0 0
\; 0 0 \; 0 0 \; 0 0 \; 0 0 \; 0 0 \; 0 0 \; 0 0 \; 0 0 \; 0 0 \; 0
0 \; 0 0 \; 0 0 \; 0 0 \; 0 0 \; 0 0 \; 0 0 \; 0 0 \; 0 0 \; 0 0 \;
0 0 \; 0 0 \; 0 0 \; 0 0 \; 0 0 \; 0 0 \; 0 0 \; 0 0 \; 0 0 \; 0 0
\; 0 0 \; 0 0 \; 0 0 \; 0 0 \; 0 0 \; 0 0 \; 0 0 \; 0 0 \; 0 0 \; 0
0 \; 0 0 \; 0 0 \; 0 0 \; 0 0 \; 0 0 \; 0 0 \; 0 0 \; 0 0 \; 0 0 \;
0 0 \; 0 0 \; 0 0 \; 0 0 \; 0 0 \; 0 0 \; 0 0 \; 0 0 \; 0 0 \; 0 0
\; 0 0 \; 0 0 \; 0 0 \; 0 0 \; 0 0 \; 0 0 \; 0 0 \; 0 0 \; 0 0 \; 0
0 \; 0 0 \; 0 0 \; 0 0 \; 0 0 \; 0 0 \; 0 0 \; 0 0 \; 0 0 \; 0 0 \;
0 0 \; 0 0 \; 0 0 \; 0 0 \; 0 0 \; 0 0 \; 0 0 \; 0 0 \; 0 0 \; 0 0
\; 0 0 \; 0 0 \; 0 0 \; 0 0 \; 0 0 \; 0 0 \; 0 0 \; 0 0 \; 0 0 \; 0
0 \; 0 0 \; 0 0 \; 0 0 \; 0 0 \; 0 0 \; 0 0 \; 0 0 \; 0 0 \; 0 0 \;
0 0 \; 0 0 \; 0 0 \; 0 0 \; 0 0 \; 0 0 \; 0 0 \; 0 0 \; 0 0 \; 0 0
\; 0 0 \; 0 0 \; 0 0 \; 0 0 \; 0 0 \; 0 0 \; 0 0 \; 0 0 \; 0 0 \; 0
0 \; 0 0 \; 0 0 \; 0 0 \; 0 0 \; 0 0 \; 0 0 \; 0 0 \; 0 0 \; 0 0 \;
0 0 \; 0 0 \; 0 0 \; 0 0 \; 0 0 \; 0 0 \; 0 0 \; 0 0 \; 0 0 \; 0 0
\; 0 0 \; 0 0 \; 0 0 \; 0 0 \; 0 0 \; 0 0 \; 0 0 \; 0 0 \; 0 0 \; 0
0 \; 0 0 \; 0 0 \; 0 0 \; 0 0 \; 0 0 \; 0 0 \; 0 0 \; 0 0 \; 0 0 \;
0 0 \; 0 0 \; 0 0 \; 0 0 \; 0 0 \; 0 0 \; 0 0 \; 0 0 \; 0 0 \; 0 0
\; 0 0 \; 0 0 \; 0 0 \; 0 0 \; 0 0 \; 0 0 \; 0 0 \; 0 0 \; 0 0 \; 0
0 \; 0 0 \; 0 0 \; 0 0 \; 0 0 \; 0 0 \; 0 0 \; 0 0 \; 0 0 \; 0 0 \;
0 0 \; 0 0 \; 0 0 \; 0 0 \; 0 0 \; 0 0 \; 0 0 \; 0 0 \; 0 0 \; 0 0
\; 0 0 \; 0 0 \; 0 0 \; 0 0 \; 0 0 \; 0 0 \; 0 0 \; 0 0 \; 0 0 \; 0
0 \; 0 0 \; 0 0 \; 0 0 \; 0 0 \; 0 0 \; 0 0 \; 0 0 \; 0 0 \; 0 0 \;
0 0 \; 0 0 \; 0 0 \; 0 0 \; 0 0 \; 0 0 \; 0 0 \; 0 0 \; 0 0 \; 0 0
\; 0 0 \; 0 0 \; 0 0 \; 0 0 \; 0 0 \; 0 0 \; 0 0 \; 0 0 \; 0 0 \; 0
0 \; 0 0 \; 0 0 \; 0 0 \; 0 0 \; 0 0 \; 0 0 \; 0 0 \; 0 0 \; 0 0 \;
0 0 \; 0 0 \; 0 0 \; 0 0 \; 0 0 \; 0 0 \; 0 0 \; 0 0 \; 0 0 \; 0 0
\; 0 0 \; 0 0 \; 0 0 \; 0 0 \; 0 0 \; 0 0 \; 0 0 \; 0 0 \; 0 0 \; 0
0 \; 0 0 \; 0 0 \; 0 0 \; 0 0 \; 0 0 \; 0 0 \; 0 0 \; 0 0 \; 0 0 \;
0 0 \; 0 0 \; 0 0 \; 0 0 \; 0 0 \; 0 0 \; 0 0 \; 0 0 \; 0 0 \; 0 0
\; 0 0 \; 0 0 \; 0 0 \; 0 0 \; 0 0 \; 0 0 \; 0 0 \; 0 0 \; 0 0 \; 0
0 \; 0 0 \; 0 0 \; 0 0 \; 0 0 \; 0 0 \; 0 0 \; 0 0 \; 0 0 \; 0 0 \;
0 0 \; 0 0 \; 0 0 \; 0 0 \; 0 0 \; 0 0 \; 0 0 \; 0 0 \; 0 0 \; 0 0
\; 0 0 \; 0 0 \; 0 0 \; 0 0 \; 0 0 \; 0 0 \; 0 0 \; 0 0 \; 0 0 \; 0
0 \; 0 0 \; 0 0 \; 0 0 \; 0 0 \; 0 0 \; 0 0 \; 0 0 \; 0 0 \; 0 0 \;
0 0 \; 0 0 \; 0 0 \; 0 0 \; 0 0 \; 0 0 \; 0 0 \; 0 0 \; 0 0 \; 0 0
\; 0 0 \; 0 0 \; 0 0 \; 0 0 \; 0 0 \; 0 0 \; 0 0 \; 0 0 \; 0 0 \; 0
0 \; 0 0 \; 0 0 \; 0 0 \; 0 0 \; 0 0 \; 0 0 \; 0 0 \; 0 0 \; 0 0 \;
0 0 \; 0 0 \; 0 0 \; 0 0 \; 0 0 \; 0 0 \; 0 0 \; 0 0 \; 0 0 \; 0 0
\; 0 0 \; 0 0 \; 0 0 \; 0 0 \; 0 0 \; 0 0 \; 0 0 \; 0 0 \; 0 0 \; 0
0 \; 0 0 \; 0 0 \; 0 0 \; 0 0 \; 0 0 \; 0 0 \; 0 0 \; 0 0 \; 0 0 \;
0 0 \; 0 0 \; 0 0 \; 0 0 \; 0 0 \; 0 0 \; 0 0 \; 0 0 \; 0 0 \; 0 0
\; 0 0 \; 0 0 \; 0 0 \; 0 0 \; 0 0 \; 0 0 \; 0 0 \; 0 0 \; 0 0 \; 0
0 \; 0 0 \; 0 0 \; 0 0 \; 0 0 \; 0 0 \; 0 0 \; 0 0 \; 0 0 \; 0 0 \;
0 0 \; 0 0 \; 0 0 \; 0 0 \; 0 0 \; 0 0 \; 0 0 \; 0 0 \; 0 0 \; 0 0
\; 0 0 \; 0 0 \; 0 0 \; 0 0 \; 0 0 \; 0 0 \; 0 0 \; 0 0 \; 0 0 \; 0
0 \; 0 0 \; 0 0 \; 0 0 \; 0 0 \; 0 0 \; 0 0 \; 0 0 \; 0 0 \; 0 0 \;
0 0 \; \; 0.0361919 0 \; 0.0509739 0 \; 0.0587463 0 \; 0.0659943 0
\; 0.0731468 0 \; 0.0803471 0 \; 0.0876427 0 \; 0.0950813 0 \; 0.102758
0 \; 0.113535 0 \; 0.121737 0 \; 0.130177 0 \; 0.13895 0 \; 0.148058
0 \; 0.157452 0 \; 0.17004 0 \; 0.180197 0 \; 0.187826 0 \; 0.201607
0 \; 0.212908 0 \; 0.227499 0 \; 0.236797 0 \; 0.252247 0 \; 0.265312
0 \; 0.278902 0 \; 0.292921 0 \; 0.307465 0 \; 0.325441 0 \; 0.343943
0 \; 0.357246 0 \; 0.376892 0 \; 0.394297 0 \; 0.412321 0 \; 0.433874
0 \; 0.450373 0 \; 0.473213 0 \; 0.496769 0 \; 0.515366 0 \; 0.540447
0 \; 0.563431 0 \; 0.590038 0 \; 0.614738 0 \; 0.64311 0 \; 0.666523
0 \; 0.696611 0 \; 0.724745 0 \; 0.756836 0 \; 0.786829 0 \; 0.820875
0 \; 0.853109 0 \; 0.889111 0 \; 0.926447 0 \; 0.962019 0 \; 0.999069
0 \; 1.04003 0 \; 1.08199 0 \; 1.12276 0 \; 1.16472 0 \; 1.21374 0
\; 1.25852 0 \; 1.30773 0 \; 1.35555 0 \; 1.40781 0 \; 1.46232 0 \;
1.5152 0 \; 1.57228 0 \; 1.63155 0 \; 1.69287 0 \; 1.75576 0 \; 1.82104
0 \; 1.88861 0 \; 1.95775 0 \; 2.02928 0 \; 2.10028 0 \; 2.17624 0
\; 2.25525 0 \; 2.33932 0 \; 2.42019 0 \; 2.50998 0 \; 2.59652 0 \;
2.69165 0 \; 2.78702 0 \; 2.88568 0 \; 2.9871 0 \; 3.09181 0 \; 3.20354
0 \; 3.31559 0 \; 3.43399 0 \; 3.5533 0 \; 3.68018 0 \; 3.81103 0 \;
3.94316 0 \; 4.08268 0 \; 4.22378 0 \; 4.37026 0 \; 4.52409 0 \; 4.68259
0 \; 4.8481 0 \; 5.01447 0 \; 5.19409 0 \; 5.37333 0 \; 5.56412 0 \;
5.75542 0 \; 5.95665 0 \; 6.16798 0 \; 6.3838 0 \; 6.60706 0 \; 6.84047
0 \; 7.08065 0 \; 7.32908 0 \; 7.58934 0 \; 7.85413 0 \; 8.13217 0
\; 8.42133 0 \; 8.71668 0 \; 9.0291 0 \; 9.34572 0 \; 9.6786 0 \; 10.0215
0 \; 10.3814 0 \; 10.7486 0 \; 11.1362 0 \; 11.5365 0 \; 11.9449 0
\; 12.3782 0 \; 12.819 0 \; 13.2862 0 \; 13.7655 0 \; 14.2612 0 \;
14.7751 0 \; 15.3143 0 \; 15.8696 0 \; 16.442 0 \; 17.0439 0 \; 17.6604
0 \; 18.3009 0 \; 18.9655 0 \; 19.6591 0 \; 20.3743 0 \; 21.1153 0
\; 21.8761 0 \; 22.6674 0 \; 23.4855 0 \; 24.3324 0 \; 25.2094 0 \;
26.1098 0 \; 27.0417 0 \; 27.9968 0 \; 28.9753 0 \; 29.9822 0 \; 31.0156
0 \; 32.077 0 \; 33.1614 0 \; 34.2589 0 \; 35.3679 0 \; 36.4991 0 \;
37.6387 0 \; 38.7894 0 \; 39.9268 0 \; 41.0536 0 \; 42.1752 0 \; 43.2755
0 \; 44.3323 0 \; 45.3621 0 \; 46.3295 0 \; 47.2367 0 \; 48.0664 0
\; 48.8155 0 \; 49.4676 0 \; 50.0156 0 \; 50.4476 0 \; 50.7579 0 \;
50.9425 0 \; 51 0 \; 50.9286 0 \; 50.7308 0 \; 50.4114 0 \; 49.9768
0 \; 49.4324 0 \; 48.7928 0 \; 48.0677 0 \; 47.2636 0 \; 46.3977 0
\; 45.4703 0 \; 44.506 0 \; 43.4982 0 \; 42.4713 0 \; 41.4253 0 \;
40.3653 0 \; 39.3067 0 \; 38.2422 0 \; 37.1879 0 \; 36.1465 0 \; 35.114
0 \; 34.1029 0 \; 33.1079 0 \; 32.1311 0 \; 31.1787 0 \; 30.2503 0
\; 29.3424 0 \; 28.4607 0 \; 27.6016 0 \; 26.7675 0 \; 25.9616 0 \;
25.1787 0 \; 24.4161 0 \; 23.6845 0 \; 22.9707 0 \; 22.2807 0 \; 21.614
0 \; 20.9705 0 \; 20.3462 0 \; 19.7437 0 \; 19.1603 0 \; 18.5992 0
\; 18.0541 0 \; 17.5269 0 \; 17.0188 0 \; 16.5287 0 \; 16.0543 0 \;
15.5943 0 \; 15.152 0 \; 14.7215 0 \; 14.3083 0 \; 13.9076 0 \; 13.519
0 \; 13.1454 0 \; 12.7828 0 \; 12.432 0 \; 12.0946 0 \; 11.7654 0 \;
11.447 0 \; 11.1418 0 \; 10.8426 0 \; 10.5555 0 \; 10.2766 0 \; 10.0063
0 \; 9.74531 0 \; 9.49249 0 \; 9.24697 0 \; 9.0095 0 \; 8.77905 0 \;
8.55536 0 \; 8.33874 0 \; 8.12807 0 \; 7.92451 0 \; 7.727 0 \; 7.53512
0 \; 7.34887 0 \; 7.16915 0 \; 6.99315 0 \; 6.82335 0 \; 6.65822 0
\; 6.49695 0 \; 6.34117 0 \; 6.1903 0 \; 6.04229 0 \; 5.89967 0 \;
5.76062 0 \; 5.62553 0 \; 5.49383 0 \; 5.36642 0 \; 5.24216 0 \; 5.12128
0 \; 5.00345 0 \; 4.88949 0 \; 4.77786 0 \; 4.66952 0 \; 4.5639 0 \;
4.46153 0 \; 4.36139 0 \; 4.26416 0 \; 4.16937 0 \; 4.07696 0 \; 3.98684
0 \; 3.89938 0 \; 3.81365 0 \; 3.73077 0 \; 3.64933 0 \; 3.57051 0
\; 3.4935 0 \; 3.41811 0 \; 3.34458 0 \; 3.27315 0 \; 3.20354 0 \;
3.13554 0 \; 3.06902 0 \; 3.0045 0 \; 2.94108 0 \; 2.87948 0 \; 2.81944
0 \; 2.76065 0 \; 2.70338 0 \; 2.6474 0 \; 2.59285 0 \; 2.5393 0 \;
2.48733 0 \; 2.43626 0 \; 2.38657 0 \; 2.33803 0 \; 2.29058 0 \; 2.24423
0 \; 2.19879 0 \; 2.15468 0 \; 2.11134 0 \; 2.06909 0 \; 2.02785 0
\; 1.98741 0 \; 1.94774 0 \; 1.90935 0 \; 1.87154 0 \; 1.83468 0 \;
1.79853 0 \; 1.76334 0 \; 1.72868 0 \; 1.69506 0 \; 1.66197 0 \; 1.62969
0 \; 1.59812 0 \; 1.56698 0 \; 1.5368 0 \; 1.50723 0 \; 1.47815 0 \;
1.44978 0 \; 1.42202 0 \; 1.39494 0 \; 1.36828 0 \; 1.3422 0 \; 1.31683
0 \; 1.2918 0 \; 1.26739 0 \; 1.2435 0 \; 1.22008 0 \; 1.1971 0 \;
1.17464 0 \; 1.15266 0 \; 1.13111 0 \; 1.11003 0 \; 1.08943 0 \; 1.06907
0 \; 1.04923 0 \; 1.02987 0 \; 1.01075 0 \; 0.992107 0 \; 0.973845
0 \; 0.955915 0 \; 0.938368 0 \; 0.921154 0 \; 0.904369 0 \; 0.887871
0 \; 0.871611 0 \; 0.855732 0 \; 0.840187 0 \; 0.824928 0 \; 0.809956
0 \; 0.795317 0 \; 0.780964 0 \; 0.76685 0 \; 0.753069 0 \; 0.739527
0 \; 0.726223 0 \; 0.713205 0 \; 0.700426 0 \; 0.687885 0 \; 0.675631
0 \; 0.663519 0 \; 0.651741 0 \; 0.640154 0 \; 0.628805 0 \; 0.617647
0 \; 0.60668 0 \; 0.595999 0 \; 0.585413 0 \; 0.575161 0 \; 0.565004
0 \; 0.555086 0 \; 0.545311 0 \; 0.535727 0 \; 0.526333 0 \; 0.517178
0 \; 0.50807 0 \; 0.499201 0 \; 0.490475 0 \; 0.481939 0 \; 0.473595
0 \; 0.465345 0 \; 0.457287 0 \; 0.449324 0 \; 0.441599 0 \; 0.433922
0 \; 0.426388 0 \; 0.419044 0 \; 0.411844 0 \; 0.404739 0 \; 0.397778
0 \; 0.390911 0 \; 0.384188 0 \; 0.377607 0 \; 0.37117 0 \; 0.364828
0 \; 0.358534 0 \; 0.35243 0 \; 0.346422 0 \; 0.340509 0 \; 0.334692
0 \; 0.329018 0 \; 0.323439 0 \; 0.317907 0 \; 0.312519 0 \; 0.307226
0 \; 0.302029 0 \; 0.296879 0 \; 0.291872 0 \; 0.286961 0 \; 0.282097
0 \; 0.277328 0 \; 0.272655 0 \; 0.268078 0 \; 0.263548 0 \; 0.259113
0 \; 0.254774 0 \; 0.250483 0 \; 0.246286 0 \; 0.242138 0 \; 0.238085
0 \; 0.234127 0 \; 0.230169 0 \; 0.226355 0 \; 0.22254 0 \; 0.218868
0 \; 0.215197 0 \; 0.21162 0 \; 0.208092 0 \; 0.204611 0 \; 0.201225
0 \; 0.19784 0 \; 0.19455 0 \; 0.191355 0 \; 0.18816 0 \; 0.185013
0 \; 0.181961 0 \; 0.178957 0 \; 0.176001 0 \; 0.173044 0 \; 0.170183
0 \; 0.16737 0 \; 0.164604 0 \; 0.161886 0 \; 0.159216 0 \; 0.156593
0 \; 0.154018 0 \; 0.151491 0 \; 0.148964 0 \; 0.146532 0 \; 0.1441
0 \; 0.141716 0 \; 0.13938 0 \; 0.137091 0 \; 0.13485 0 \; 0.132608
0 \; 0.130463 0 \; 0.128317 0 \; 0.126171 0 \; 0.124121 0 \; 0.12207
0 \; 0.120068 0 \; 0.118113 0 \; 0.116158 0 \; 0.11425 0 \; 0.112391
0 \; 0.110531 0 \; 0.108719 0 \; 0.106955 0 \; 0.10519 0 \; 0.103474
0 \; 0.101757 0 \; 0.100088 0 \; 0.0984669 0 \; 0.0968456 0 \; 0.0952721
0 \; 0.0936985 0 \; 0.0921249 0 \; 0.0906467 0 \; 0.0891685 0 \; 0.0876904
0 \; 0.0862598 0 \; 0.0848293 0 \; 0.0834465 0 \; 0.0820637 0 \; 0.0807285
0 \; 0.0793934 0 \; 0.0781059 0 \; 0.0768185 0 \; 0.0755787 0 \; 0.0743389
0 \; 0.0730991 0 \; 0.071907 0 \; 0.070715 0 \; 0.0695705 0 \; 0.0684261
0 \; 0.0672817 0 \; 0.066185 0 \; 0.0650883 0 \; 0.0639915 0 \; 0.0629425
0 \; 0.0618935 0 \; 0.0608921 0 \; 0.0598907 0 \; 0.0588894 0 \; 0.0579357
0 \; 0.056982 0 \; 0.0560284 0 \; 0.0551224 0 \; 0.0541687 0 \; 0.0533104
0 \; 0.0524044 0 \; 0.0515461 0 \; 0.0506878 0 \; 0.0498295 0 \; 0.0490189
0 \; 0.0482082 0 \; 0.0473976 0 \; 0.046587 0 \; 0.0458241 0 \; 0.0450611
0 \; 0.0442982 0 \; 0.0435829 0 \; 0.04282 0 \; 0.0421047 0 \; 0.0414371
0 \; 0.0407219 0 \; 0.0400066 0 \; 0.0393391 0 \; 0.0386715 0 \; 0.0380516
0 \; 0.037384 0 \; 0.0367641 0 \; 0.0361443 0 \; 0.0355244 0 \; 0.0349045
0 \; 0.0343323 0 \; 0.0337601 0 \; 0.0331402 0 \; 0.0326157 0 \; 0.0320435
0 \; 0.0314713 0 \; 0.0309467 0 \; 0.0304222 0 \; 0.0298977 0 \; 0.0293732
0 \; 0.0288486 0 \; 0.0283718 0 \; 0.027895 0 \; 0.0273705 0 \; 0.0268936
0 \; 0.0264645 0 \; 0.0259876 0 \; 0.0255108 0 \; 0.0250816 0 \; 0.0246525
0 \; 0.0241756 0 \; 0.0237465 0 \; 0.023365 0 \; 0.0229359 0 \; 0.0225067
0 \; 0.0221252 0 \; 0.0217438 0 \; 0.0213146 0 \; 0.0209808 0 \; 0.0205517
0 \; 0.0202179 0 \; 0.0198364 0 \; 0.019455 0 \; 0.0191212 0 \; 0.0187874
0 \; 0.0184059 0 \; 0.0180721 0 \; 0.0177383 0 \; 0.0174046 0 \; 0.0171185
0 \; 0.0167847 0 \; 0.0164509 0 \; 0.0161648 0 \; 0.015831 0 \; 0.0155449
0 \; 0.0152588 0 \; 0.0149727 0 \; 0.0146866 0 \; 0.0144005 0 \; 0.0141144
0 \; 0.0138283 0 \; 0.0135899 0 \; 0.0133038 0 \; 0.0130653 0 \; 0.0127792
0 \; 0.0125408 0 \; 0.0123024 0 \; 0.012064 0 \; 0.0118256 0 \; 0.0115871
0 \; 0.0113487 0 \; 0.0111103 0 \; 0.0108719 0 \; 0.0106335 0 \; 0.0104427
0 \; 0.0102043 0 \; 0.0100136 0 \; 0.00977516 0 \; 0.00958443 0 \;
0.00939369 0 \; 0.00920296 0 \; 0.00896454 0 \; 0.0087738 0 \; 0.00858307
0 \; 0.00839233 0 \; 0.00824928 0 \; 0.00805855 0 \; 0.00786781 0 \;
0.00767708 0 \; 0.00753403 0 \; 0.00734329 0 \; 0.00715256 0 \; 0.00700951
0 \; 0.00686646 0 \; 0.00667572 0 \; 0.00653267 0 \; 0.00638962 0 \;
0.00624657 0 \; 0.00605583 0 \; 0.00591278 0 \; 0.00576973 0 \; 0.00562668
0 \; 0.00548363 0 \; 0.00534058 0 \; 0.00524521 0 \; 0.00510216 0 \;
0.00495911 0 \; 0.00481606 0 \; 0.004673 0 \; 0.00457764 0 \; 0.00448227
0 \; 0.00433922 0 \; 0.00419617 0 \; 0.0041008 0 \; 0.00395775 0 \;
0.00386238 0 \; 0.00376701 0 \; 0.00362396 0 \; 0.00352859 0 \; 0.00343323
0 \; 0.00333786 0 \; 0.00324249 0 \; 0.00309944 0 \; 0.00305176 0 \;
0.00290871 0 \; 0.00281334 0 \; 0.00276566 0 \; 0.00267029 0 \; 0.00257492
0 \; 0.00247955 0 \; 0.00238419 0 \; 0.00228882 0 \; 0.00224113 0 \;
0.00214577 0 \; 0.0020504 0 \; 0.00200272 0 \; 0.00190735 0 \; 0.00181198
0 \; 0.0017643 0 \; 0.00166893 0 \; 0.00162125 0 \; 0.00152588 0 \;
0.0014782 0 \; 0.00143051 0 \; 0.00133514 0 \; 0.00128746 0 \; 0.00123978
0 \; 0.00114441 0 \; 0.00109673 0 \; 0.00104904 0 \; 0.00100136 0 \;
0.000953674 0 \; 0.000905991 0 \; 0.000858307 0 \; 0.000810623 0 \;
0.000762939 0 \; 0.000715256 0 \; 0.000667572 0 \; 0.000619888 0 \;
0.000572205 0 \; 0.000524521 0 \; 0.000476837 0 \; 0.000476837 0 \;
0.000429153 0 \; 0.00038147 0 \; 0.000333786 0 \; 0.000333786 0 \;
0.000286102 0 \; 0.000238419 0 \; 0.000238419 0 \; \; -0.00200272 0
\; -0.00271797 0 \; -0.00324249 0 \; -0.00376701 0 \; -0.00429153 0
\; -0.00462532 0 \; -0.00500679 0 \; -0.00553131 0 \; -0.00605583 0
\; -0.00648499 0 \; -0.00715256 0 \; -0.00758171 0 \; -0.00815392 0
\; -0.00863075 0 \; -0.00934601 0 \; -0.00987053 0 \; -0.0106335 0
\; -0.011301 0 \; -0.0118732 0 \; -0.0125885 0 \; -0.0133038 0 \; -0.0141621
0 \; -0.0149727 0 \; -0.0157356 0 \; -0.0165462 0 \; -0.0174046 0 \;
-0.0184059 0 \; -0.0193119 0 \; -0.0203609 0 \; -0.0213146 0 \; -0.0222683
0 \; -0.0232697 0 \; -0.0244617 0 \; -0.0256538 0 \; -0.0268936 0 \;
-0.0281334 0 \; -0.0294209 0 \; -0.0306129 0 \; -0.0319958 0 \; -0.0335217
0 \; -0.0349522 0 \; -0.0364304 0 \; -0.0379562 0 \; -0.0396252 0 \;
-0.0411034 0 \; -0.0428677 0 \; -0.0446796 0 \; -0.0464439 0 \; -0.0483513
0 \; -0.0501633 0 \; -0.052166 0 \; -0.0542164 0 \; -0.0564575 0 \;
-0.0584602 0 \; -0.0607967 0 \; -0.0630856 0 \; -0.0655174 0 \; -0.0679016
0 \; -0.0704765 0 \; -0.0730991 0 \; -0.0758171 0 \; -0.0784397 0 \;
-0.0812531 0 \; -0.0841618 0 \; -0.0872612 0 \; -0.0902653 0 \; -0.0933647
0 \; -0.0968456 0 \; -0.100088 0 \; -0.103664 0 \; -0.107098 0 \; -0.110865
0 \; -0.114584 0 \; -0.118351 0 \; -0.122404 0 \; -0.126505 0 \; -0.130701
0 \; -0.135136 0 \; -0.139523 0 \; -0.144148 0 \; -0.148773 0 \; -0.153589
0 \; -0.158548 0 \; -0.163555 0 \; -0.168896 0 \; -0.174141 0 \; -0.179672
0 \; -0.18549 0 \; -0.191116 0 \; -0.197268 0 \; -0.203323 0 \; -0.209618
0 \; -0.216007 0 \; -0.222588 0 \; -0.229549 0 \; -0.236416 0 \; -0.243568
0 \; -0.251007 0 \; -0.258589 0 \; -0.266314 0 \; -0.274229 0 \; -0.282383
0 \; -0.290775 0 \; -0.299311 0 \; -0.308037 0 \; -0.31724 0 \; -0.326347
0 \; -0.335884 0 \; -0.345516 0 \; -0.355577 0 \; -0.365734 0 \; -0.376225
0 \; -0.386953 0 \; -0.397873 0 \; -0.409317 0 \; -0.420856 0 \; -0.43273
0 \; -0.444841 0 \; -0.457382 0 \; -0.470161 0 \; -0.483179 0 \; -0.496578
0 \; -0.510263 0 \; -0.524378 0 \; -0.538778 0 \; -0.55356 0 \; -0.568676
0 \; -0.584221 0 \; -0.600052 0 \; -0.61636 0 \; -0.632954 0 \; -0.650072
0 \; -0.667477 0 \; -0.685406 0 \; -0.703764 0 \; -0.722504 0 \; -0.741673
0 \; -0.761414 0 \; -0.781584 0 \; -0.802279 0 \; -0.823355 0 \; -0.84486
0 \; -0.867224 0 \; -0.889874 0 \; -0.913095 0 \; -0.936747 0 \; -0.961161
0 \; -0.986052 0 \; -1.01156 0 \; -1.03769 0 \; -1.06435 0 \; -1.09181
0 \; -1.1199 0 \; -1.14861 0 \; -1.17793 0 \; -1.20797 0 \; -1.23863
0 \; -1.27015 0 \; -1.30229 0 \; -1.33529 0 \; -1.36909 0 \; -1.40357
0 \; -1.43881 0 \; -1.47519 0 \; -1.51215 0 \; -1.55005 0 \; -1.58887
0 \; -1.6284 0 \; -1.66912 0 \; -1.7107 0 \; -1.75319 0 \; -1.79672
0 \; -1.84135 0 \; -1.88689 0 \; -1.93353 0 \; -1.98145 0 \; -2.03028
0 \; -2.08025 0 \; -2.13151 0 \; -2.18382 0 \; -2.23751 0 \; -2.29235
0 \; -2.34842 0 \; -2.40588 0 \; -2.46477 0 \; -2.52495 0 \; -2.58651
0 \; -2.64955 0 \; -2.71406 0 \; -2.78015 0 \; -2.84781 0 \; -2.9171
0 \; -2.98777 0 \; -3.06044 0 \; -3.13439 0 \; -3.21054 0 \; -3.28832
0 \; -3.36785 0 \; -3.44925 0 \; -3.5327 0 \; -3.61814 0 \; -3.7056
0 \; -3.79515 0 \; -3.8867 0 \; -3.98049 0 \; -4.07662 0 \; -4.1749
0 \; -4.27561 0 \; -4.37894 0 \; -4.48437 0 \; -4.59256 0 \; -4.70338
0 \; -4.81672 0 \; -4.93312 0 \; -5.05199 0 \; -5.17392 0 \; -5.29866
0 \; -5.42645 0 \; -5.55754 0 \; -5.69177 0 \; -5.82905 0 \; -5.97
0 \; -6.11429 0 \; -6.2623 0 \; -6.4137 0 \; -6.56891 0 \; -6.72808
0 \; -6.89111 0 \; -7.05824 0 \; -7.22933 0 \; -7.40504 0 \; -7.585
0 \; -7.7693 0 \; -7.95836 0 \; -8.15239 0 \; -8.35114 0 \; -8.55489
0 \; -8.76389 0 \; -8.97808 0 \; -9.19785 0 \; -9.42321 0 \; -9.65428
0 \; -9.89122 0 \; -10.1345 0 \; -10.3839 0 \; -10.6397 0 \; -10.9021
0 \; -11.1715 0 \; -11.4477 0 \; -11.7311 0 \; -12.022 0 \; -12.3206
0 \; -12.6268 0 \; -12.9415 0 \; -13.2639 0 \; -13.5953 0 \; -13.9353
0 \; -14.2842 0 \; -14.6425 0 \; -15.0102 0 \; -15.3877 0 \; -15.7753
0 \; -16.1733 0 \; -16.5819 0 \; -17.0015 0 \; -17.4324 0 \; -17.8746
0 \; -18.329 0 \; -18.7954 0 \; -19.2744 0 \; -19.7665 0 \; -20.2713
0 \; -20.7901 0 \; -21.3226 0 \; -21.8697 0 \; -22.4313 0 \; -23.008
0 \; -23.6001 0 \; -24.2081 0 \; -24.8321 0 \; -25.4728 0 \; -26.1302
0 \; -26.8051 0 \; -27.4977 0 \; -28.2082 0 \; -28.9375 0 \; -29.6851
0 \; -30.452 0 \; -31.2383 0 \; -32.0439 0 \; -32.8693 0 \; -33.7147
0 \; -34.5807 0 \; -35.4666 0 \; -36.3732 0 \; -37.3 0 \; -38.2466
0 \; -39.2136 0 \; -40.1997 0 \; -41.2049 0 \; -42.2281 0 \; -43.2693
0 \; -44.3271 0 \; -45.4004 0 \; -46.4866 0 \; -47.5855 0 \; -48.6941
0 \; -49.8098 0 \; -50.93 0 \; -52.0515 0 \; -53.1698 0 \; -54.281
0 \; -55.3808 0 \; -56.4631 0 \; -57.5225 0 \; -58.5521 0 \; -59.5457
0 \; -60.4952 0 \; -61.3929 0 \; -62.2319 0 \; -63.003 0 \; -63.6994
0 \; -64.3125 0 \; -64.8359 0 \; -65.2629 0 \; -65.5891 0 \; -65.8096
0 \; -65.9221 0 \; -65.9256 0 \; -65.8197 0 \; -65.6071 0 \; -65.2906
0 \; -64.8747 0 \; -64.3653 0 \; -63.769 0 \; -63.093 0 \; -62.3448
0 \; -61.5324 0 \; -60.6638 0 \; -59.7467 0 \; -58.7888 0 \; -57.797
0 \; -56.778 0 \; -55.7377 0 \; -54.6823 0 \; -53.6163 0 \; -52.5447
0 \; -51.471 0 \; -50.3992 0 \; -49.332 0 \; -48.2728 0 \; -47.2233
0 \; -46.1853 0 \; -45.161 0 \; -44.1516 0 \; -43.158 0 \; -42.1814
0 \; -41.2221 0 \; -40.2813 0 \; -39.3592 0 \; -38.4557 0 \; -37.5713
0 \; -36.7064 0 \; -35.8605 0 \; -35.0338 0 \; -34.2261 0 \; -33.4374
0 \; -32.6671 0 \; -31.9156 0 \; -31.1818 0 \; -30.4662 0 \; -29.7678
0 \; -29.0868 0 \; -28.4228 0 \; -27.7752 0 \; -27.1439 0 \; -26.5283
0 \; -25.9281 0 \; -25.343 0 \; -24.7726 0 \; -24.2167 0 \; -23.6747
0 \; -23.1465 0 \; -22.6314 0 \; -22.1294 0 \; -21.6399 0 \; -21.1627
0 \; -20.6976 0 \; -20.2442 0 \; -19.802 0 \; -19.3709 0 \; -18.9505
0 \; -18.5406 0 \; -18.1408 0 \; -17.7509 0 \; -17.3707 0 \; -16.9998
0 \; -16.638 0 \; -16.285 0 \; -15.9407 0 \; -15.6047 0 \; -15.277
0 \; -14.957 0 \; -14.6449 0 \; -14.3401 0 \; -14.0428 0 \; -13.7525
0 \; -13.469 0 \; -13.1923 0 \; -12.9222 0 \; -12.6585 0 \; -12.4008
0 \; -12.1492 0 \; -11.9035 0 \; -11.6634 0 \; -11.4289 0 \; -11.1998
0 \; -10.976 0 \; -10.7573 0 \; -10.5435 0 \; -10.3347 0 \; -10.1305
0 \; -9.93094 0 \; -9.73587 0 \; -9.54514 0 \; -9.35869 0 \; -9.1764
0 \; -8.99806 0 \; -8.82373 0 \; -8.65316 0 \; -8.48637 0 \; -8.32324
0 \; -8.1636 0 \; -8.00743 0 \; -7.8546 0 \; -7.70516 0 \; -7.55887
0 \; -7.41563 0 \; -7.27549 0 \; -7.13835 0 \; -7.00407 0 \; -6.87261
0 \; -6.74396 0 \; -6.61793 0 \; -6.49457 0 \; -6.37374 0 \; -6.25544
0 \; -6.13956 0 \; -6.02603 0 \; -5.91488 0 \; -5.80597 0 \; -5.6993
0 \; -5.59478 0 \; -5.4924 0 \; -5.39203 0 \; -5.2937 0 \; -5.19733
0 \; -5.10292 0 \; -5.01037 0 \; -4.91962 0 \; -4.83069 0 \; -4.74353
0 \; -4.65803 0 \; -4.57425 0 \; -4.49209 0 \; -4.41155 0 \; -4.33259
0 \; -4.2551 0 \; -4.17914 0 \; -4.10461 0 \; -4.03156 0 \; -3.95989
0 \; -3.88956 0 \; -3.82061 0 \; -3.75295 0 \; -3.68657 0 \; -3.62144
0 \; -3.55754 0 \; -3.49483 0 \; -3.43328 0 \; -3.37291 0 \; -3.31364
0 \; -3.25546 0 \; -3.19839 0 \; -3.1424 0 \; -3.08738 0 \; -3.0334
0 \; -2.98042 0 \; -2.9284 0 \; -2.87733 0 \; -2.82717 0 \; -2.77791
0 \; -2.72961 0 \; -2.68211 0 \; -2.63548 0 \; -2.5897 0 \; -2.54478
0 \; -2.50063 0 \; -2.45724 0 \; -2.41466 0 \; -2.37284 0 \; -2.33173
0 \; -2.29139 0 \; -2.25172 0 \; -2.21276 0 \; -2.17452 0 \; -2.13695
0 \; -2.09999 0 \; -2.0637 0 \; -2.02804 0 \; -1.99299 0 \; -1.95856
0 \; -1.92475 0 \; -1.89152 0 \; -1.85885 0 \; -1.82672 0 \; -1.7952
0 \; -1.76415 0 \; -1.73368 0 \; -1.70374 0 \; -1.67427 0 \; -1.64533
0 \; -1.61686 0 \; -1.58892 0 \; -1.5614 0 \; -1.53437 0 \; -1.50781
0 \; -1.48168 0 \; -1.45597 0 \; -1.43075 0 \; -1.40591 0 \; -1.38149
0 \; -1.35751 0 \; -1.3339 0 \; -1.31068 0 \; -1.28784 0 \; -1.26543
0 \; -1.24335 0 \; -1.22166 0 \; -1.20029 0 \; -1.17931 0 \; -1.15867
0 \; -1.13835 0 \; -1.11837 0 \; -1.09873 0 \; -1.07942 0 \; -1.06039
0 \; -1.0417 0 \; -1.02329 0 \; -1.00522 0 \; -0.987434 0 \; -0.969934
0 \; -0.952721 0 \; -0.935745 0 \; -0.919104 0 \; -0.9027 0 \; -0.886583
0 \; -0.870705 0 \; -0.855112 0 \; -0.839758 0 \; -0.824642 0 \; -0.809765
0 \; -0.795126 0 \; -0.780725 0 \; -0.766563 0 \; -0.75264 0 \; -0.738907
0 \; -0.725412 0 \; -0.712156 0 \; -0.699091 0 \; -0.686216 0 \; -0.67358
0 \; -0.661135 0 \; -0.64888 0 \; -0.636816 0 \; -0.624943 0 \; -0.61326
0 \; -0.601768 0 \; -0.590467 0 \; -0.579357 0 \; -0.56839 0 \; -0.557613
0 \; -0.547028 0 \; -0.536585 0 \; -0.526285 0 \; -0.516176 0 \; -0.50621
0 \; -0.496435 0 \; -0.486803 0 \; -0.477314 0 \; -0.467968 0 \; -0.458765
0 \; -0.449705 0 \; -0.440836 0 \; -0.432062 0 \; -0.423431 0 \; -0.414944
0 \; -0.406599 0 \; -0.39835 0 \; -0.390291 0 \; -0.382328 0 \; -0.37446
0 \; -0.366735 0 \; -0.359154 0 \; -0.351667 0 \; -0.344324 0 \; -0.337076
0 \; -0.329971 0 \; -0.322962 0 \; -0.316048 0 \; -0.309277 0 \; -0.302553
0 \; -0.295973 0 \; -0.289536 0 \; -0.283146 0 \; -0.276899 0 \; -0.2707
0 \; -0.264645 0 \; -0.258684 0 \; -0.252771 0 \; -0.247002 0 \; -0.241327
0 \; -0.235701 0 \; -0.230217 0 \; -0.224781 0 \; -0.21944 0 \; -0.214195
0 \; -0.209045 0 \; -0.203991 0 \; -0.198984 0 \; -0.194073 0 \; -0.189257
0 \; -0.184488 0 \; -0.179815 0 \; -0.175238 0 \; -0.170708 0 \; -0.166273
0 \; -0.161886 0 \; -0.157595 0 \; -0.153351 0 \; -0.149202 0 \; -0.145149
0 \; -0.141096 0 \; -0.137186 0 \; -0.133276 0 \; -0.129461 0 \; -0.125742
0 \; -0.12207 0 \; -0.118446 0 \; -0.114918 0 \; -0.111437 0 \; -0.108004
0 \; -0.104618 0 \; -0.101328 0 \; -0.0980854 0 \; -0.0949383 0 \;
-0.0917912 0 \; -0.0887394 0 \; -0.0857353 0 \; -0.0827789 0 \; -0.0799179
0 \; -0.0770569 0 \; -0.0742912 0 \; -0.0715733 0 \; -0.068903 0 \;
-0.0662804 0 \; -0.0637054 0 \; -0.0612259 0 \; -0.0587463 0 \; -0.0563622
0 \; -0.0540257 0 \; -0.0516891 0 \; -0.049448 0 \; -0.0472546 0 \;
-0.0451088 0 \; -0.0430107 0 \; -0.041008 0 \; -0.0390053 0 \; -0.0370502
0 \; -0.0351429 0 \; -0.0333309 0 \; -0.0315189 0 \; -0.0297546 0 \;
-0.0280857 0 \; -0.0264168 0 \; -0.0248432 0 \; -0.0232697 0 \; -0.0217438
0 \; -0.0203133 0 \; -0.0188828 0 \; -0.0175476 0 \; -0.0162601 0 \;
-0.0149727 0 \; -0.0137806 0 \; -0.0125885 0 \; -0.0114918 0 \; -0.0103951
0 \; -0.00939369 0 \; -0.00844002 0 \; -0.00753403 0 \; \; -4.76837e-05
0 \; -4.76837e-05 0 \; -4.76837e-05 0 \; -4.76837e-05 0 \; -4.76837e-05
0 \; -4.76837e-05 0 \; -4.76837e-05 0 \; 0 0 \; -4.76837e-05 0 \; 0
0 \; 0 0 \; -4.76837e-05 0 \; -4.76837e-05 0 \; -4.76837e-05 0 \; -4.76837e-05
0 \; 0 0 \; 0 0 \; 0 0 \; 0 0 \; 0 0 \; 0 0 \; 0 0 \; 0 0 \; 0 0 \;
0 0 \; 0 0 \; 0 0 \; 0 0 \; 0 0 \; 0 0 \; 0 0 \; 0 0 \; 4.76837e-05
0 \; 4.76837e-05 0 \; 4.76837e-05 0 \; 4.76837e-05 0 \; 4.76837e-05
0 \; 4.76837e-05 0 \; 4.76837e-05 0 \; 4.76837e-05 0 \; 4.76837e-05
0 \; 4.76837e-05 0 \; 4.76837e-05 0 \; 4.76837e-05 0 \; 9.53674e-05
0 \; 9.53674e-05 0 \; 9.53674e-05 0 \; 9.53674e-05 0 \; 9.53674e-05
0 \; 9.53674e-05 0 \; 9.53674e-05 0 \; 0.000143051 0 \; 0.000143051
0 \; 0.000143051 0 \; 0.000143051 0 \; 0.000143051 0 \; 0.000143051
0 \; 0.000143051 0 \; 0.000190735 0 \; 0.000190735 0 \; 0.000190735
0 \; 0.000190735 0 \; 0.000190735 0 \; 0.000190735 0 \; 0.000238419
0 \; 0.000238419 0 \; 0.000238419 0 \; 0.000238419 0 \; 0.000238419
0 \; 0.000286102 0 \; 0.000286102 0 \; 0.000286102 0 \; 0.000286102
0 \; 0.000333786 0 \; 0.000333786 0 \; 0.000333786 0 \; 0.000333786
0 \; 0.00038147 0 \; 0.00038147 0 \; 0.00038147 0 \; 0.00038147 0 \;
0.000429153 0 \; 0.000429153 0 \; 0.000476837 0 \; 0.000476837 0 \;
0.000476837 0 \; 0.000524521 0 \; 0.000524521 0 \; 0.000572205 0 \;
0.000572205 0 \; 0.000572205 0 \; 0.000572205 0 \; 0.000619888 0 \;
0.000619888 0 \; 0.000667572 0 \; 0.000667572 0 \; 0.000715256 0 \;
0.000715256 0 \; 0.000762939 0 \; 0.000762939 0 \; 0.000762939 0 \;
0.000810623 0 \; 0.000858307 0 \; 0.000858307 0 \; 0.000905991 0 \;
0.000905991 0 \; 0.000953674 0 \; 0.000953674 0 \; 0.00100136 0 \;
0.00104904 0 \; 0.00104904 0 \; 0.00109673 0 \; 0.00114441 0 \; 0.00114441
0 \; 0.00123978 0 \; 0.00123978 0 \; 0.00128746 0 \; 0.00128746 0 \;
0.00133514 0 \; 0.00138283 0 \; 0.00143051 0 \; 0.0014782 0 \; 0.0014782
0 \; 0.00152588 0 \; 0.00162125 0 \; 0.00166893 0 \; 0.00166893 0 \;
0.00171661 0 \; 0.0017643 0 \; 0.00181198 0 \; 0.00185966 0 \; 0.00190735
0 \; 0.00200272 0 \; 0.0020504 0 \; 0.00209808 0 \; 0.00214577 0 \;
0.00219345 0 \; 0.00224113 0 \; 0.0023365 0 \; 0.00238419 0 \; 0.00243187
0 \; 0.00252724 0 \; 0.00257492 0 \; 0.00267029 0 \; 0.00271797 0 \;
0.00276566 0 \; 0.00286102 0 \; 0.00290871 0 \; 0.00300407 0 \; 0.00309944
0 \; 0.00314713 0 \; 0.00324249 0 \; 0.00333786 0 \; 0.00343323 0 \;
0.00348091 0 \; 0.00357628 0 \; 0.00367165 0 \; 0.00376701 0 \; 0.00386238
0 \; 0.00395775 0 \; 0.00405312 0 \; 0.00414848 0 \; 0.00424385 0 \;
0.0043869 0 \; 0.00448227 0 \; 0.00457764 0 \; 0.00472069 0 \; 0.00481606
0 \; 0.00495911 0 \; 0.00505447 0 \; 0.00514984 0 \; 0.00529289 0 \;
0.00543594 0 \; 0.00553131 0 \; 0.00567436 0 \; 0.00581741 0 \; 0.00596046
0 \; 0.00610352 0 \; 0.00624657 0 \; 0.00638962 0 \; 0.00653267 0 \;
0.0067234 0 \; 0.00686646 0 \; 0.00705719 0 \; 0.00720024 0 \; 0.00734329
0 \; 0.00753403 0 \; 0.00772476 0 \; 0.0079155 0 \; 0.00810623 0 \;
0.00824928 0 \; 0.0084877 0 \; 0.00863075 0 \; 0.00886917 0 \; 0.00905991
0 \; 0.00929832 0 \; 0.00948906 0 \; 0.00972748 0 \; 0.00991821 0 \;
0.0101566 0 \; 0.0103951 0 \; 0.0106335 0 \; 0.0108719 0 \; 0.0111103
0 \; 0.0113487 0 \; 0.0116348 0 \; 0.0118732 0 \; 0.0121593 0 \; 0.0124454
0 \; 0.0127316 0 \; 0.01297 0 \; 0.0133038 0 \; 0.0135899 0 \; 0.013876
0 \; 0.0142097 0 \; 0.0145435 0 \; 0.0148296 0 \; 0.0152111 0 \; 0.0155449
0 \; 0.0158787 0 \; 0.0162125 0 \; 0.0165939 0 \; 0.0169277 0 \; 0.0173092
0 \; 0.0176907 0 \; 0.0180721 0 \; 0.0185013 0 \; 0.0188828 0 \; 0.0193119
0 \; 0.0197411 0 \; 0.0201702 0 \; 0.0205994 0 \; 0.0210762 0 \; 0.021553
0 \; 0.0219822 0 \; 0.0225067 0 \; 0.0229359 0 \; 0.0234604 0 \; 0.0239849
0 \; 0.0245094 0 \; 0.025034 0 \; 0.0255585 0 \; 0.0261307 0 \; 0.0267029
0 \; 0.0272751 0 \; 0.027895 0 \; 0.0284672 0 \; 0.0290871 0 \; 0.029707
0 \; 0.0303268 0 \; 0.0309944 0 \; 0.031662 0 \; 0.0323772 0 \; 0.0330448
0 \; 0.0337601 0 \; 0.0344753 0 \; 0.0352383 0 \; 0.0360012 0 \; 0.0367641
0 \; 0.0375271 0 \; 0.0383377 0 \; 0.039196 0 \; 0.0400543 0 \; 0.0409126
0 \; 0.0417709 0 \; 0.0426769 0 \; 0.0435829 0 \; 0.0445366 0 \; 0.0454903
0 \; 0.0464439 0 \; 0.0474453 0 \; 0.0484943 0 \; 0.0494957 0 \; 0.0505924
0 \; 0.0516415 0 \; 0.0527859 0 \; 0.0539303 0 \; 0.0550747 0 \; 0.0562668
0 \; 0.0574589 0 \; 0.0587463 0 \; 0.0599861 0 \; 0.0612736 0 \; 0.0626087
0 \; 0.0639439 0 \; 0.0653267 0 \; 0.0667095 0 \; 0.0681877 0 \; 0.0696659
0 \; 0.0711441 0 \; 0.0727177 0 \; 0.0742912 0 \; 0.0759125 0 \; 0.0775337
0 \; 0.0792503 0 \; 0.0809669 0 \; 0.0827312 0 \; 0.0845432 0 \; 0.0864029
0 \; 0.0882626 0 \; 0.0902176 0 \; 0.0922203 0 \; 0.094223 0 \; 0.0963211
0 \; 0.0984192 0 \; 0.100613 0 \; 0.102854 0 \; 0.105095 0 \; 0.107431
0 \; 0.109863 0 \; 0.112295 0 \; 0.114822 0 \; 0.11735 0 \; 0.119972
0 \; 0.12269 0 \; 0.125456 0 \; 0.128317 0 \; 0.131226 0 \; 0.134182
0 \; 0.137234 0 \; 0.140381 0 \; 0.143576 0 \; 0.146866 0 \; 0.150251
0 \; 0.153732 0 \; 0.157261 0 \; 0.160933 0 \; 0.1647 0 \; 0.168514
0 \; 0.172472 0 \; 0.176525 0 \; 0.180674 0 \; 0.184965 0 \; 0.189352
0 \; 0.193882 0 \; 0.198507 0 \; 0.203276 0 \; 0.208187 0 \; 0.213242
0 \; 0.218391 0 \; 0.223732 0 \; 0.229216 0 \; 0.234842 0 \; 0.240707
0 \; 0.246668 0 \; 0.252819 0 \; 0.259161 0 \; 0.265741 0 \; 0.272465
0 \; 0.279427 0 \; 0.286579 0 \; 0.29397 0 \; 0.301552 0 \; 0.309467
0 \; 0.317574 0 \; 0.325918 0 \; 0.334549 0 \; 0.343513 0 \; 0.352764
0 \; 0.362301 0 \; 0.372171 0 \; 0.382328 0 \; 0.392914 0 \; 0.403833
0 \; 0.415134 0 \; 0.426817 0 \; 0.438929 0 \; 0.451517 0 \; 0.464535
0 \; 0.478077 0 \; 0.492048 0 \; 0.506639 0 \; 0.521708 0 \; 0.537443
0 \; 0.553751 0 \; 0.570679 0 \; 0.588322 0 \; 0.60668 0 \; 0.625753
0 \; 0.645685 0 \; 0.666428 0 \; 0.688076 0 \; 0.71063 0 \; 0.734186
0 \; 0.758791 0 \; 0.78454 0 \; 0.811434 0 \; 0.83952 0 \; 0.868988
0 \; 0.899887 0 \; 0.932217 0 \; 0.966167 0 \; 1.00179 0 \; 1.03927
0 \; 1.07861 0 \; 1.12004 0 \; 1.16367 0 \; 1.20959 0 \; 1.25809 0
\; 1.3093 0 \; 1.36337 0 \; 1.42059 0 \; 1.48115 0 \; 1.54533 0 \;
1.61343 0 \; 1.68576 0 \; 1.76263 0 \; 1.84445 0 \; 1.93167 0 \; 2.02465
0 \; 2.12402 0 \; 2.23026 0 \; 2.34408 0 \; 2.46615 0 \; 2.59724 0
\; 2.73824 0 \; 2.89011 0 \; 3.054 0 \; 3.2311 0 \; 3.42274 0 \; 3.63059
0 \; 3.85633 0 \; 4.10194 0 \; 4.36969 0 \; 4.66213 0 \; 4.98204 0
\; 5.3328 0 \; 5.71804 0 \; 6.142 0 \; 6.6093 0 \; 7.12533 0 \; 7.69625
0 \; 8.32858 0 \; 9.02996 0 \; 9.80844 0 \; 10.673 0 \; 11.633 0 \;
12.6976 0 \; 13.876 0 \; 15.1756 0 \; 16.6012 0 \; 18.152 0 \; 19.8199
0 \; 21.5845 0 \; 23.4087 0 \; 25.2357 0 \; 26.983 0 \; 28.5468 0 \;
29.8089 0 \; 30.6542 0 \; 30.9954 0 \; 30.7945 0 \; 30.075 0 \; 28.9138
0 \; 27.4212 0 \; 25.7164 0 \; 23.9081 0 \; 22.0837 0 \; 20.3062 0
\; 18.6171 0 \; 17.0403 0 \; 15.5869 0 \; 14.2591 0 \; 13.0532 0 \;
11.9626 0 \; 10.9784 0 \; 10.0914 0 \; 9.29241 0 \; 8.57244 0 \; 7.92308
0 \; 7.3369 0 \; 6.80685 0 \; 6.32691 0 \; 5.89156 0 \; 5.49588 0 \;
5.13563 0 \; 4.80709 0 \; 4.50678 0 \; 4.23183 0 \; 3.97959 0 \; 3.7478
0 \; 3.53441 0 \; 3.33757 0 \; 3.15576 0 \; 2.98743 0 \; 2.83146 0
\; 2.6866 0 \; 2.55198 0 \; 2.42662 0 \; 2.3097 0 \; 2.20051 0 \; 2.09842
0 \; 2.00281 0 \; 1.91321 0 \; 1.8291 0 \; 1.75009 0 \; 1.6757 0 \;
1.60565 0 \; 1.53961 0 \; 1.47734 0 \; 1.41845 0 \; 1.36275 0 \; 1.31006
0 \; 1.26014 0 \; 1.21279 0 \; 1.16782 0 \; 1.12514 0 \; 1.08457 0
\; 1.04594 0 \; 1.00918 0 \; 0.974131 0 \; 0.940752 0 \; 0.908852 0
\; 0.878429 0 \; 0.849342 0 \; 0.821543 0 \; 0.794983 0 \; 0.76952
0 \; 0.745106 0 \; 0.721741 0 \; 0.699377 0 \; 0.677872 0 \; 0.657225
0 \; 0.637388 0 \; 0.618362 0 \; 0.600052 0 \; 0.582457 0 \; 0.565481
0 \; 0.549173 0 \; 0.533485 0 \; 0.518322 0 \; 0.503731 0 \; 0.489664
0 \; 0.476074 0 \; 0.462961 0 \; 0.450325 0 \; 0.43807 0 \; 0.426292
0 \; 0.414848 0 \; 0.403833 0 \; 0.393152 0 \; 0.382805 0 \; 0.372791
0 \; 0.363111 0 \; 0.353765 0 \; 0.344658 0 \; 0.335884 0 \; 0.327349
0 \; 0.319052 0 \; 0.311041 0 \; 0.303268 0 \; 0.295687 0 \; 0.288343
0 \; 0.281239 0 \; 0.274324 0 \; 0.267601 0 \; 0.261068 0 \; 0.254726
0 \; 0.248528 0 \; 0.242567 0 \; 0.236702 0 \; 0.231028 0 \; 0.225544
0 \; 0.220156 0 \; 0.214911 0 \; 0.209808 0 \; 0.204849 0 \; 0.200033
0 \; 0.195312 0 \; 0.190735 0 \; 0.186253 0 \; 0.181913 0 \; 0.17767
0 \; 0.173521 0 \; 0.169516 0 \; 0.165558 0 \; 0.161695 0 \; 0.157976
0 \; 0.154305 0 \; 0.150728 0 \; 0.147247 0 \; 0.143862 0 \; 0.140524
0 \; 0.137281 0 \; 0.134134 0 \; 0.131035 0 \; 0.127983 0 \; 0.125074
0 \; 0.122166 0 \; 0.119352 0 \; 0.116587 0 \; 0.113916 0 \; 0.111246
0 \; 0.108671 0 \; 0.106192 0 \; 0.103712 0 \; 0.10128 0 \; 0.0989437
0 \; 0.0966549 0 \; 0.0943661 0 \; 0.0921726 0 \; 0.0900269 0 \; 0.0878811
0 \; 0.0858307 0 \; 0.083828 0 \; 0.0818253 0 \; 0.0798702 0 \; 0.0780106
0 \; 0.0761509 0 \; 0.0742912 0 \; 0.0725269 0 \; 0.0708103 0 \; 0.0690937
0 \; 0.0673771 0 \; 0.0657558 0 \; 0.0641346 0 \; 0.062561 0 \; 0.0610352
0 \; 0.0595093 0 \; 0.0580311 0 \; 0.0566006 0 \; 0.0551701 0 \; 0.0537872
0 \; 0.0524044 0 \; 0.0510693 0 \; 0.0497818 0 \; 0.0484943 0 \; 0.0472546
0 \; 0.0460148 0 \; 0.044775 0 \; 0.0436306 0 \; 0.0424385 0 \; 0.0412941
0 \; 0.0401974 0 \; 0.0391006 0 \; 0.0380039 0 \; 0.0369549 0 \; 0.0359535
0 \; 0.0349522 0 \; 0.0339508 0 \; 0.0329494 0 \; 0.0320435 0 \; 0.0310898
0 \; 0.0301838 0 \; 0.0292778 0 \; 0.0284195 0 \; 0.0275612 0 \; 0.0267029
0 \; 0.0258923 0 \; 0.0250816 0 \; 0.024271 0 \; 0.0235081 0 \; 0.0227451
0 \; 0.0219822 0 \; 0.0212669 0 \; 0.0205517 0 \; 0.0198841 0 \; 0.0191689
0 \; 0.0185013 0 \; 0.0178337 0 \; 0.0172138 0 \; 0.0165939 0 \; 0.015974
0 \; 0.0153542 0 \; 0.014782 0 \; 0.0142097 0 \; 0.0136375 0 \; 0.013113
0 \; 0.0125408 0 \; 0.012064 0 \; 0.0115395 0 \; 0.0110149 0 \; 0.0105381
0 \; 0.0100613 0 \; 0.00958443 0 \; 0.00915527 0 \; 0.00872612 0 \;
0.00829697 0 \; 0.00786781 0 \; 0.00743866 0 \; 0.00705719 0 \; 0.00667572
0 \; 0.00629425 0 \; 0.00591278 0 \; 0.00557899 0 \; 0.00524521 0 \;
0.00491142 0 \; 0.00457764 0 \; 0.00429153 0 \; 0.00400543 0 \; 0.00367165
0 \; 0.00343323 0 \; 0.00314713 0 \; 0.00290871 0 \; 0.00267029 0 \;
0.00238419 0 \; 0.00219345 0 \; 0.00195503 0 \; 0.0017643 0 \; 0.00157356
0 \; \; 0 0 \; 0 0 \; 0 0 \; 0 0 \; 0 0 \; 0 0 \; 0 0 \; 0 0 \; 0 0
\; 0 0 \; 0 0 \; 0 0 \; 0 0 \; 0 0 \; 0 0 \; 0 0 \; 0 0 \; 0 0 \; 0
0 \; 0 0 \; 0 0 \; 0 0 \; 0 0 \; 0 0 \; 0 0 \; 0 0 \; 0 0 \; 0 0 \;
0 0 \; 0 0 \; 0 0 \; 0 0 \; 0 0 \; 0 0 \; 0 0 \; 0 0 \; 0 0 \; 0 0
\; 0 0 \; 0 0 \; 0 0 \; 0 0 \; 0 0 \; 0 0 \; 0 0 \; 0 0 \; 0 0 \; 0
0 \; 0 0 \; 0 0 \; 0 0 \; 0 0 \; 0 0 \; 0 0 \; 0 0 \; 0 0 \; 0 0 \;
0 0 \; 0 0 \; 0 0 \; 0 0 \; 0 0 \; 0 0 \; 0 0 \; 0 0 \; 0 0 \; 0 0
\; 0 0 \; 0 0 \; 0 0 \; 0 0 \; 0 0 \; 0 0 \; 0 0 \; 0 0 \; 0 0 \; 0
0 \; 0 0 \; 0 0 \; 0 0 \; 0 0 \; 0 0 \; 0 0 \; 0 0 \; 0 0 \; 0 0 \;
0 0 \; 0 0 \; 0 0 \; 0 0 \; 0 0 \; 0 0 \; 0 0 \; 0 0 \; 0 0 \; 0 0
\; 0 0 \; 0 0 \; 0 0 \; 0 0 \; 0 0 \; 0 0 \; 0 0 \; 0 0 \; 0 0 \; 0
0 \; 0 0 \; 0 0 \; 0 0 \; 0 0 \; 0 0 \; 0 0 \; 0 0 \; 0 0 \; 0 0 \;
0 0 \; 0 0 \; 0 0 \; 0 0 \; 0 0 \; 0 0 \; 0 0 \; 0 0 \; 0 0 \; 0 0
\; 0 0 \; 0 0 \; 0 0 \; 0 0 \; 0 0 \; 0 0 \; 0 0 \; 0 0 \; 0 0 \; 0
0 \; 0 0 \; 0 0 \; 0 0 \; 0 0 \; 0 0 \; 0 0 \; 0 0 \; 0 0 \; 0 0 \;
0 0 \; 0 0 \; 0 0 \; 0 0 \; 0 0 \; 0 0 \; 0 0 \; 0 0 \; 0 0 \; 0 0
\; 0 0 \; 0 0 \; 0 0 \; 0 0 \; 0 0 \; 0 0 \; 0 0 \; 0 0 \; 0 0 \; 0
0 \; 0 0 \; 0 0 \; 0 0 \; 0 0 \; 0 0 \; 0 0 \; 0 0 \; 0 0 \; 0 0 \;
0 0 \; 0 0 \; 0 0 \; 0 0 \; 0 0 \; 0 0 \; 0 0 \; 0 0 \; 0 0 \; 0 0
\; 0 0 \; 0 0 \; 0 0 \; 0 0 \; 0 0 \; 0 0 \; 0 0 \; 0 0 \; 0 0 \; 0
0 \; 0 0 \; 0 0 \; 0 0 \; 0 0 \; 0 0 \; 0 0 \; 0 0 \; 0 0 \; 0 0 \;
0 0 \; 0 0 \; 0 0 \; 0 0 \; 0 0 \; 0 0 \; 0 0 \; 0 0 \; 0 0 \; 0 0
\; 0 0 \; 0 0 \; 0 0 \; 0 0 \; 0 0 \; 0 0 \; 0 0 \; 0 0 \; 0 0 \; 0
0 \; 0 0 \; 0 0 \; 0 0 \; 0 0 \; 0 0 \; 0 0 \; 0 0 \; 0 0 \; 0 0 \;
0 0 \; 0 0 \; 0 0 \; 0 0 \; 0 0 \; 0 0 \; 0 0 \; 0 0 \; 0 0 \; 0 0
\; 0 0 \; 0 0 \; 0 0 \; 0 0 \; 0 0 \; 0 0 \; 0 0 \; 0 0 \; 0 0 \; 0
0 \; 0 0 \; 0 0 \; 0 0 \; 0 0 \; 0 0 \; 0 0 \; 0 0 \; 0 0 \; 0 0 \;
0 0 \; 0 0 \; 0 0 \; 0 0 \; 0 0 \; 0 0 \; 0 0 \; 0 0 \; 0 0 \; 0 0
\; 0 0 \; 0 0 \; 0 0 \; 0 0 \; 0 0 \; 0 0 \; 0 0 \; 0 0 \; 0 0 \; 0
0 \; 0 0 \; 0 0 \; 0 0 \; 0 0 \; 0 0 \; 0 0 \; 0 0 \; 0 0 \; 0 0 \;
0 0 \; 0 0 \; 0 0 \; 0 0 \; 0 0 \; 0 0 \; 0 0 \; 0 0 \; 0 0 \; 0 0
\; 0 0 \; 0 0 \; 0 0 \; 0 0 \; 0 0 \; 0 0 \; 0 0 \; 0 0 \; 0 0 \; 0
0 \; 0 0 \; 0 0 \; 0 0 \; 0 0 \; 0 0 \; 0 0 \; 0 0 \; 0 0 \; 0 0 \;
0 0 \; 0 0 \; 0 0 \; 0 0 \; 0 0 \; 0 0 \; 0 0 \; 0 0 \; 0 0 \; 0 0
\; 0 0 \; 0 0 \; 0 0 \; 0 0 \; 0 0 \; 0 0 \; 0 0 \; 0 0 \; 0 0 \; 0
0 \; 0 0 \; 0 0 \; 0 0 \; 0 0 \; 0 0 \; 0 0 \; 0 0 \; 0 0 \; 0 0 \;
0 0 \; 0 0 \; 0 0 \; 0 0 \; 0 0 \; 0 0 \; 0 0 \; 0 0 \; 0 0 \; 0 0
\; 0 0 \; 0 0 \; 0 0 \; 0 0 \; 0 0 \; 0 0 \; 0 0 \; 0 0 \; 0 0 \; 0
0 \; 0 0 \; 0 0 \; 0 0 \; 0 0 \; 0 0 \; 0 0 \; 0 0 \; 0 0 \; 0 0 \;
0 0 \; 0 0 \; 0 0 \; 0 0 \; 0 0 \; 0 0 \; 0 0 \; 0 0 \; 0 0 \; 0 0
\; 0 0 \; 0 0 \; 0 0 \; 0 0 \; 0 0 \; 0 0 \; 0 0 \; 0 0 \; 0 0 \; 0
0 \; 0 0 \; 0 0 \; 0 0 \; 0 0 \; 0 0 \; 0 0 \; 0 0 \; 0 0 \; 0 0 \;
0 0 \; 0 0 \; 0 0 \; 0 0 \; 0 0 \; 0 0 \; 0 0 \; 0 0 \; 0 0 \; 0 0
\; 0 0 \; 0 0 \; 0 0 \; 0 0 \; 0 0 \; 0 0 \; 0 0 \; 0 0 \; 0 0 \; 0
0 \; 0 0 \; 0 0 \; 0 0 \; 0 0 \; 0 0 \; 0 0 \; 0 0 \; 0 0 \; 0 0 \;
0 0 \; 0 0 \; 0 0 \; 0 0 \; 0 0 \; 0 0 \; 0 0 \; 0 0 \; 0 0 \; 0 0
\; 0 0 \; 0 0 \; 0 0 \; 0 0 \; 0 0 \; 0 0 \; 0 0 \; 0 0 \; 0 0 \; 0
0 \; 0 0 \; 0 0 \; 0 0 \; 0 0 \; 0 0 \; 0 0 \; 0 0 \; 0 0 \; 0 0 \;
0 0 \; 0 0 \; 0 0 \; 0 0 \; 0 0 \; 0 0 \; 0 0 \; 0 0 \; 0 0 \; 0 0
\; 0 0 \; 0 0 \; 0 0 \; 0 0 \; 0 0 \; 0 0 \; 0 0 \; 0 0 \; 0 0 \; 0
0 \; 0 0 \; 0 0 \; 0 0 \; 0 0 \; 0 0 \; 0 0 \; 0 0 \; 0 0 \; 0 0 \;
0 0 \; 0 0 \; 0 0 \; 0 0 \; 0 0 \; 0 0 \; 0 0 \; 0 0 \; 0 0 \; 0 0
\; 0 0 \; 0 0 \; 0 0 \; 0 0 \; 0 0 \; 0 0 \; 0 0 \; 0 0 \; 0 0 \; 0
0 \; 0 0 \; 0 0 \; 0 0 \; 0 0 \; 0 0 \; 0 0 \; 0 0 \; 0 0 \; 0 0 \;
0 0 \; 0 0 \; 0 0 \; 0 0 \; 0 0 \; 0 0 \; 0 0 \; 0 0 \; 0 0 \; 0 0
\; 0 0 \; 0 0 \; 0 0 \; 0 0 \; 0 0 \; 0 0 \; 0 0 \; 0 0 \; 0 0 \; 0
0 \; 0 0 \; 0 0 \; 0 0 \; 0 0 \; 0 0 \; 0 0 \; 0 0 \; 0 0 \; 0 0 \;
0 0 \; 0 0 \; 0 0 \; 0 0 \; 0 0 \; 0 0 \; 0 0 \; 0 0 \; 0 0 \; 0 0
\; 0 0 \; 0 0 \; 0 0 \; 0 0 \; 0 0 \; 0 0 \; 0 0 \; 0 0 \; 0 0 \; 0
0 \; 0 0 \; 0 0 \; 0 0 \; 0 0 \; 0 0 \; 0 0 \; 0 0 \; 0 0 \; 0 0 \;
0 0 \; 0 0 \; 0 0 \; 0 0 \; 0 0 \; 0 0 \; 0 0 \; 0 0 \; 0 0 \; 0 0
\; 0 0 \; 0 0 \; 0 0 \; 0 0 \; 0 0 \; 0 0 \; 0 0 \; 0 0 \; 0 0 \; 0
0 \; 0 0 \; 0 0 \; 0 0 \; 0 0 \; 0 0 \; 0 0 \; 0 0 \; 0 0 \; 0 0 \;
0 0 \; 0 0 \; 0 0 \; 0 0 \; 0 0 \; 0 0 \; 0 0 \; 0 0 \; 0 0 \; 0 0
\; 0 0 \; 0 0 \; 0 0 \; 0 0 \; 0 0 \; 0 0 \; 0 0 \; 0 0 \; 0 0 \; 0
0 \; 0 0 \; 0 0 \; 0 0 \; 0 0 \; 0 0 \; 0 0 \; 0 0 \; 0 0 \; 0 0 \;
0 0 \; 0 0 \; 0 0 \; 0 0 \; 0 0 \; 0 0 \; 0 0 \; 0 0 \; 0 0 \; 0 0
\; 0 0 \; 0 0 \; 0 0 \; 0 0 \; 0 0 \; 0 0 \; 0 0 \; 0 0 \; 0 0 \; 0
0 \; 0 0 \; 0 0 \; 0 0 \; 0 0 \; 0 0 \; 0 0 \; 0 0 \; 0 0 \; 0 0 \;
0 0 \; 0 0 \; 0 0 \; 0 0 \; 0 0 \; 0 0 \; 0 0 \; 0 0 \; 0 0 \; 0 0
\; 0 0 \; 0 0 \; 0 0 \; 0 0 \; 0 0 \; 0 0 \; 0 0 \; 0 0 \; 0 0 \; 0
0 \; 0 0 \; 0 0 \; 0 0 \; 0 0 \; 0 0 \; 0 0 \; 0 0 \; 0 0 \; 0 0 \;
0 0 \; 0 0 \; 0 0 \; 0 0 \; 0 0 \; \; 0 0 \; 0 0 \; 0 0 \; 0 0 \; 0
0 \; 0 0 \; 0 0 \; 0 0 \; 0 0 \; 0 0 \; 0 0 \; 0 0 \; 0 0 \; 0 0 \;
0 0 \; 0 0 \; 0 0 \; 0 0 \; 0 0 \; 0 0 \; 0 0 \; 0 0 \; 0 0 \; 0 0
\; 0 0 \; 0 0 \; 0 0 \; 0 0 \; 0 0 \; 0 0 \; 0 0 \; 0 0 \; 0 0 \; 0
0 \; 0 0 \; 0 0 \; 0 0 \; 0 0 \; 0 0 \; 0 0 \; 0 0 \; 0 0 \; 0 0 \;
0 0 \; 0 0 \; 0 0 \; 0 0 \; 0 0 \; 0 0 \; 0 0 \; 0 0 \; 0 0 \; 0 0
\; 0 0 \; 0 0 \; 0 0 \; 0 0 \; 0 0 \; 0 0 \; 0 0 \; 0 0 \; 0 0 \; 0
0 \; 0 0 \; 0 0 \; 0 0 \; 0 0 \; 0 0 \; 0 0 \; 0 0 \; 0 0 \; 0 0 \;
0 0 \; 0 0 \; 0 0 \; 0 0 \; 0 0 \; 0 0 \; 0 0 \; 0 0 \; 0 0 \; 0 0
\; 0 0 \; 0 0 \; 0 0 \; 0 0 \; 0 0 \; 0 0 \; 0 0 \; 0 0 \; 0 0 \; 0
0 \; 0 0 \; 0 0 \; 0 0 \; 0 0 \; 0 0 \; 0 0 \; 0 0 \; 0 0 \; 0 0 \;
0 0 \; 0 0 \; 0 0 \; 0 0 \; 0 0 \; 0 0 \; 0 0 \; 0 0 \; 0 0 \; 0 0
\; 0 0 \; 0 0 \; 0 0 \; 0 0 \; 0 0 \; 0 0 \; 0 0 \; 0 0 \; 0 0 \; 0
0 \; 0 0 \; 0 0 \; 0 0 \; 0 0 \; 0 0 \; 0 0 \; 0 0 \; 0 0 \; 0 0 \;
0 0 \; 0 0 \; 0 0 \; 0 0 \; 0 0 \; 0 0 \; 0 0 \; 0 0 \; 0 0 \; 0 0
\; 0 0 \; 0 0 \; 0 0 \; 0 0 \; 0 0 \; 0 0 \; 0 0 \; 0 0 \; 0 0 \; 0
0 \; 0 0 \; 0 0 \; 0 0 \; 0 0 \; 0 0 \; 0 0 \; 0 0 \; 0 0 \; 0 0 \;
0 0 \; 0 0 \; 0 0 \; 0 0 \; 0 0 \; 0 0 \; 0 0 \; 0 0 \; 0 0 \; 0 0
\; 0 0 \; 0 0 \; 0 0 \; 0 0 \; 0 0 \; 0 0 \; 0 0 \; 0 0 \; 0 0 \; 0
0 \; 0 0 \; 0 0 \; 0 0 \; 0 0 \; 0 0 \; 0 0 \; 0 0 \; 0 0 \; 0 0 \;
0 0 \; 0 0 \; 0 0 \; 0 0 \; 0 0 \; 0 0 \; 0 0 \; 0 0 \; 0 0 \; 0 0
\; 0 0 \; 0 0 \; 0 0 \; 0 0 \; 0 0 \; 0 0 \; 0 0 \; 0 0 \; 0 0 \; 0
0 \; 0 0 \; 0 0 \; 0 0 \; 0 0 \; 0 0 \; 0 0 \; 0 0 \; 0 0 \; 0 0 \;
0 0 \; 0 0 \; 0 0 \; 0 0 \; 0 0 \; 0 0 \; 0 0 \; 0 0 \; 0 0 \; 0 0
\; 0 0 \; 0 0 \; 0 0 \; 0 0 \; 0 0 \; 0 0 \; 0 0 \; 0 0 \; 0 0 \; 0
0 \; 0 0 \; 0 0 \; 0 0 \; 0 0 \; 0 0 \; 0 0 \; 0 0 \; 0 0 \; 0 0 \;
0 0 \; 0 0 \; 0 0 \; 0 0 \; 0 0 \; 0 0 \; 0 0 \; 0 0 \; 0 0 \; 0 0
\; 0 0 \; 0 0 \; 0 0 \; 0 0 \; 0 0 \; 0 0 \; 0 0 \; 0 0 \; 0 0 \; 0
0 \; 0 0 \; 0 0 \; 0 0 \; 0 0 \; 0 0 \; 0 0 \; 0 0 \; 0 0 \; 0 0 \;
0 0 \; 0 0 \; 0 0 \; 0 0 \; 0 0 \; 0 0 \; 0 0 \; 0 0 \; 0 0 \; 0 0
\; 0 0 \; 0 0 \; 0 0 \; 0 0 \; 0 0 \; 0 0 \; 0 0 \; 0 0 \; 0 0 \; 0
0 \; 0 0 \; 0 0 \; 0 0 \; 0 0 \; 0 0 \; 0 0 \; 0 0 \; 0 0 \; 0 0 \;
0 0 \; 0 0 \; 0 0 \; 0 0 \; 0 0 \; 0 0 \; 0 0 \; 0 0 \; 0 0 \; 0 0
\; 0 0 \; 0 0 \; 0 0 \; 0 0 \; 0 0 \; 0 0 \; 0 0 \; 0 0 \; 0 0 \; 0
0 \; 0 0 \; 0 0 \; 0 0 \; 0 0 \; 0 0 \; 0 0 \; 0 0 \; 0 0 \; 0 0 \;
0 0 \; 0 0 \; 0 0 \; 0 0 \; 0 0 \; 0 0 \; 0 0 \; 0 0 \; 0 0 \; 0 0
\; 0 0 \; 0 0 \; 0 0 \; 0 0 \; 0 0 \; 0 0 \; 0 0 \; 0 0 \; 0 0 \; 0
0 \; 0 0 \; 0 0 \; 0 0 \; 0 0 \; 0 0 \; 0 0 \; 0 0 \; 0 0 \; 0 0 \;
0 0 \; 0 0 \; 0 0 \; 0 0 \; 0 0 \; 0 0 \; 0 0 \; 0 0 \; 0 0 \; 0 0
\; 0 0 \; 0 0 \; 0 0 \; 0 0 \; 0 0 \; 0 0 \; 0 0 \; 0 0 \; 0 0 \; 0
0 \; 0 0 \; 0 0 \; 0 0 \; 0 0 \; 0 0 \; 0 0 \; 0 0 \; 0 0 \; 0 0 \;
0 0 \; 0 0 \; 0 0 \; 0 0 \; 0 0 \; 0 0 \; 0 0 \; 0 0 \; 0 0 \; 0 0
\; 0 0 \; 0 0 \; 0 0 \; 0 0 \; 0 0 \; 0 0 \; 0 0 \; 0 0 \; 0 0 \; 0
0 \; 0 0 \; 0 0 \; 0 0 \; 0 0 \; 0 0 \; 0 0 \; 0 0 \; 0 0 \; 0 0 \;
0 0 \; 0 0 \; 0 0 \; 0 0 \; 0 0 \; 0 0 \; 0 0 \; 0 0 \; 0 0 \; 0 0
\; 0 0 \; 0 0 \; 0 0 \; 0 0 \; 0 0 \; 0 0 \; 0 0 \; 0 0 \; 0 0 \; 0
0 \; 0 0 \; 0 0 \; 0 0 \; 0 0 \; 0 0 \; 0 0 \; 0 0 \; 0 0 \; 0 0 \;
0 0 \; 0 0 \; 0 0 \; 0 0 \; 0 0 \; 0 0 \; 0 0 \; 0 0 \; 0 0 \; 0 0
\; 0 0 \; 0 0 \; 0 0 \; 0 0 \; 0 0 \; 0 0 \; 0 0 \; 0 0 \; 0 0 \; 0
0 \; 0 0 \; 0 0 \; 0 0 \; 0 0 \; 0 0 \; 0 0 \; 0 0 \; 0 0 \; 0 0 \;
0 0 \; 0 0 \; 0 0 \; 0 0 \; 0 0 \; 0 0 \; 0 0 \; 0 0 \; 0 0 \; 0 0
\; 0 0 \; 0 0 \; 0 0 \; 0 0 \; 0 0 \; 0 0 \; 0 0 \; 0 0 \; 0 0 \; 0
0 \; 0 0 \; 0 0 \; 0 0 \; 0 0 \; 0 0 \; 0 0 \; 0 0 \; 0 0 \; 0 0 \;
0 0 \; 0 0 \; 0 0 \; 0 0 \; 0 0 \; 0 0 \; 0 0 \; 0 0 \; 0 0 \; 0 0
\; 0 0 \; 0 0 \; 0 0 \; 0 0 \; 0 0 \; 0 0 \; 0 0 \; 0 0 \; 0 0 \; 0
0 \; 0 0 \; 0 0 \; 0 0 \; 0 0 \; 0 0 \; 0 0 \; 0 0 \; 0 0 \; 0 0 \;
0 0 \; 0 0 \; 0 0 \; 0 0 \; 0 0 \; 0 0 \; 0 0 \; 0 0 \; 0 0 \; 0 0
\; 0 0 \; 0 0 \; 0 0 \; 0 0 \; 0 0 \; 0 0 \; 0 0 \; 0 0 \; 0 0 \; 0
0 \; 0 0 \; 0 0 \; 0 0 \; 0 0 \; 0 0 \; 0 0 \; 0 0 \; 0 0 \; 0 0 \;
0 0 \; 0 0 \; 0 0 \; 0 0 \; 0 0 \; 0 0 \; 0 0 \; 0 0 \; 0 0 \; 0 0
\; 0 0 \; 0 0 \; 0 0 \; 0 0 \; 0 0 \; 0 0 \; 0 0 \; 0 0 \; 0 0 \; 0
0 \; 0 0 \; 0 0 \; 0 0 \; 0 0 \; 0 0 \; 0 0 \; 0 0 \; 0 0 \; 0 0 \;
0 0 \; 0 0 \; 0 0 \; 0 0 \; 0 0 \; 0 0 \; 0 0 \; 0 0 \; 0 0 \; 0 0
\; 0 0 \; 0 0 \; 0 0 \; 0 0 \; 0 0 \; 0 0 \; 0 0 \; 0 0 \; 0 0 \; 0
0 \; 0 0 \; 0 0 \; 0 0 \; 0 0 \; 0 0 \; 0 0 \; 0 0 \; 0 0 \; 0 0 \;
0 0 \; 0 0 \; 0 0 \; 0 0 \; 0 0 \; 0 0 \; 0 0 \; 0 0 \; 0 0 \; 0 0
\; 0 0 \; 0 0 \; 0 0 \; 0 0 \; 0 0 \; 0 0 \; 0 0 \; 0 0 \; 0 0 \; 0
0 \; 0 0 \; 0 0 \; 0 0 \; 0 0 \; 0 0 \; 0 0 \; 0 0 \; 0 0 \; 0 0 \;
0 0 \; 0 0 \; 0 0 \; 0 0 \; 0 0 \; 0 0 \; 0 0 \; 0 0 \; 0 0 \; 0 0
\; 0 0 \; 0 0 \; 0 0 \; 0 0 \; 0 0 \; 0 0 \; 0 0 \; 0 0 \; 0 0 \; 0
0 \; 0 0 \; 0 0 \; 0 0 \; 0 0 \; 0 0 \; 0 0 \; 0 0 \; 0 0 \; 0 0 \;
0 0 \; 0 0 \; 0 0 \; 0 0 \; 0 0 \; 0 0 \; 0 0 \; 0 0 \; 0 0 \; 0 0
\; 0 0 \; 0 0 \; 0 0 \; 0 0 \; 0 0 \; 0 0 \; 0 0 \; 0 0 \; 0 0 \; \;
0 0 \; 0 0 \; 0 0 \; 0 0 \; 0 0 \; 0 0 \; 0 0 \; 0 0 \; 0 0 \; 0 0
\; 0 0 \; 0 0 \; 0 0 \; 0 0 \; 0 0 \; 0 0 \; 0 0 \; 0 0 \; 0 0 \; 0
0 \; 0 0 \; 0 0 \; 0 0 \; 0 0 \; 0 0 \; 0 0 \; 0 0 \; 0 0 \; 0 0 \;
0 0 \; 0 0 \; 0 0 \; 0 0 \; 0 0 \; 0 0 \; 0 0 \; 0 0 \; 0 0 \; 0 0
\; 0 0 \; 0 0 \; 0 0 \; 0 0 \; 0 0 \; 0 0 \; 0 0 \; 0 0 \; 0 0 \; 0
0 \; 0 0 \; 0 0 \; 0 0 \; 0 0 \; 0 0 \; 0 0 \; 0 0 \; 0 0 \; 0 0 \;
0 0 \; 0 0 \; 0 0 \; 0 0 \; 0 0 \; 0 0 \; 0 0 \; 0 0 \; 0 0 \; 0 0
\; 0 0 \; 0 0 \; 0 0 \; 0 0 \; 0 0 \; 0 0 \; 0 0 \; 0 0 \; 0 0 \; 0
0 \; 0 0 \; 0 0 \; 0 0 \; 0 0 \; 0 0 \; 0 0 \; 0 0 \; 0 0 \; 0 0 \;
0 0 \; 0 0 \; 0 0 \; 0 0 \; 0 0 \; 0 0 \; 0 0 \; 0 0 \; 0 0 \; 0 0
\; 0 0 \; 0 0 \; 0 0 \; 0 0 \; 0 0 \; 0 0 \; 0 0 \; 0 0 \; 0 0 \; 0
0 \; 0 0 \; 0 0 \; 0 0 \; 0 0 \; 0 0 \; 0 0 \; 0 0 \; 0 0 \; 0 0 \;
0 0 \; 0 0 \; 0 0 \; 0 0 \; 0 0 \; 0 0 \; 0 0 \; 0 0 \; 0 0 \; 0 0
\; 0 0 \; 0 0 \; 0 0 \; 0 0 \; 0 0 \; 0 0 \; 0 0 \; 0 0 \; 0 0 \; 0
0 \; 0 0 \; 0 0 \; 0 0 \; 0 0 \; 0 0 \; 0 0 \; 0 0 \; 0 0 \; 0 0 \;
0 0 \; 0 0 \; 0 0 \; 0 0 \; 0 0 \; 0 0 \; 0 0 \; 0 0 \; 0 0 \; 0 0
\; 0 0 \; 0 0 \; 0 0 \; 0 0 \; 0 0 \; 0 0 \; 0 0 \; 0 0 \; 0 0 \; 0
0 \; 0 0 \; 0 0 \; 0 0 \; 0 0 \; 0 0 \; 0 0 \; 0 0 \; 0 0 \; 0 0 \;
0 0 \; 0 0 \; 0 0 \; 0 0 \; 0 0 \; 0 0 \; 0 0 \; 0 0 \; 0 0 \; 0 0
\; 0 0 \; 0 0 \; 0 0 \; 0 0 \; 0 0 \; 0 0 \; 0 0 \; 0 0 \; 0 0 \; 0
0 \; 0 0 \; 0 0 \; 0 0 \; 0 0 \; 0 0 \; 0 0 \; 0 0 \; 0 0 \; 0 0 \;
0 0 \; 0 0 \; 0 0 \; 0 0 \; 0 0 \; 0 0 \; 0 0 \; 0 0 \; 0 0 \; 0 0
\; 0 0 \; 0 0 \; 0 0 \; 0 0 \; 0 0 \; 0 0 \; 0 0 \; 0 0 \; 0 0 \; 0
0 \; 0 0 \; 0 0 \; 0 0 \; 0 0 \; 0 0 \; 0 0 \; 0 0 \; 0 0 \; 0 0 \;
0 0 \; 0 0 \; 0 0 \; 0 0 \; 0 0 \; 0 0 \; 0 0 \; 0 0 \; 0 0 \; 0 0
\; 0 0 \; 0 0 \; 0 0 \; 0 0 \; 0 0 \; 0 0 \; 0 0 \; 0 0 \; 0 0 \; 0
0 \; 0 0 \; 0 0 \; 0 0 \; 0 0 \; 0 0 \; 0 0 \; 0 0 \; 0 0 \; 0 0 \;
0 0 \; 0 0 \; 0 0 \; 0 0 \; 0 0 \; 0 0 \; 0 0 \; 0 0 \; 0 0 \; 0 0
\; 0 0 \; 0 0 \; 0 0 \; 0 0 \; 0 0 \; 0 0 \; 0 0 \; 0 0 \; 0 0 \; 0
0 \; 0 0 \; 0 0 \; 0 0 \; 0 0 \; 0 0 \; 0 0 \; 0 0 \; 0 0 \; 0 0 \;
0 0 \; 0 0 \; 0 0 \; 0 0 \; 0 0 \; 0 0 \; 0 0 \; 0 0 \; 0 0 \; 0 0
\; 0 0 \; 0 0 \; 0 0 \; 0 0 \; 0 0 \; 0 0 \; 0 0 \; 0 0 \; 0 0 \; 0
0 \; 0 0 \; 0 0 \; 0 0 \; 0 0 \; 0 0 \; 0 0 \; 0 0 \; 0 0 \; 0 0 \;
0 0 \; 0 0 \; 0 0 \; 0 0 \; 0 0 \; 0 0 \; 0 0 \; 0 0 \; 0 0 \; 0 0
\; 0 0 \; 0 0 \; 0 0 \; 0 0 \; 0 0 \; 0 0 \; 0 0 \; 0 0 \; 0 0 \; 0
0 \; 0 0 \; 0 0 \; 0 0 \; 0 0 \; 0 0 \; 0 0 \; 0 0 \; 0 0 \; 0 0 \;
0 0 \; 0 0 \; 0 0 \; 0 0 \; 0 0 \; 0 0 \; 0 0 \; 0 0 \; 0 0 \; 0 0
\; 0 0 \; 0 0 \; 0 0 \; 0 0 \; 0 0 \; 0 0 \; 0 0 \; 0 0 \; 0 0 \; 0
0 \; 0 0 \; 0 0 \; 0 0 \; 0 0 \; 0 0 \; 0 0 \; 0 0 \; 0 0 \; 0 0 \;
0 0 \; 0 0 \; 0 0 \; 0 0 \; 0 0 \; 0 0 \; 0 0 \; 0 0 \; 0 0 \; 0 0
\; 0 0 \; 0 0 \; 0 0 \; 0 0 \; 0 0 \; 0 0 \; 0 0 \; 0 0 \; 0 0 \; 0
0 \; 0 0 \; 0 0 \; 0 0 \; 0 0 \; 0 0 \; 0 0 \; 0 0 \; 0 0 \; 0 0 \;
0 0 \; 0 0 \; 0 0 \; 0 0 \; 0 0 \; 0 0 \; 0 0 \; 0 0 \; 0 0 \; 0 0
\; 0 0 \; 0 0 \; 0 0 \; 0 0 \; 0 0 \; 0 0 \; 0 0 \; 0 0 \; 0 0 \; 0
0 \; 0 0 \; 0 0 \; 0 0 \; 0 0 \; 0 0 \; 0 0 \; 0 0 \; 0 0 \; 0 0 \;
0 0 \; 0 0 \; 0 0 \; 0 0 \; 0 0 \; 0 0 \; 0 0 \; 0 0 \; 0 0 \; 0 0
\; 0 0 \; 0 0 \; 0 0 \; 0 0 \; 0 0 \; 0 0 \; 0 0 \; 0 0 \; 0 0 \; 0
0 \; 0 0 \; 0 0 \; 0 0 \; 0 0 \; 0 0 \; 0 0 \; 0 0 \; 0 0 \; 0 0 \;
0 0 \; 0 0 \; 0 0 \; 0 0 \; 0 0 \; 0 0 \; 0 0 \; 0 0 \; 0 0 \; 0 0
\; 0 0 \; 0 0 \; 0 0 \; 0 0 \; 0 0 \; 0 0 \; 0 0 \; 0 0 \; 0 0 \; 0
0 \; 0 0 \; 0 0 \; 0 0 \; 0 0 \; 0 0 \; 0 0 \; 0 0 \; 0 0 \; 0 0 \;
0 0 \; 0 0 \; 0 0 \; 0 0 \; 0 0 \; 0 0 \; 0 0 \; 0 0 \; 0 0 \; 0 0
\; 0 0 \; 0 0 \; 0 0 \; 0 0 \; 0 0 \; 0 0 \; 0 0 \; 0 0 \; 0 0 \; 0
0 \; 0 0 \; 0 0 \; 0 0 \; 0 0 \; 0 0 \; 0 0 \; 0 0 \; 0 0 \; 0 0 \;
0 0 \; 0 0 \; 0 0 \; 0 0 \; 0 0 \; 0 0 \; 0 0 \; 0 0 \; 0 0 \; 0 0
\; 0 0 \; 0 0 \; 0 0 \; 0 0 \; 0 0 \; 0 0 \; 0 0 \; 0 0 \; 0 0 \; 0
0 \; 0 0 \; 0 0 \; 0 0 \; 0 0 \; 0 0 \; 0 0 \; 0 0 \; 0 0 \; 0 0 \;
0 0 \; 0 0 \; 0 0 \; 0 0 \; 0 0 \; 0 0 \; 0 0 \; 0 0 \; 0 0 \; 0 0
\; 0 0 \; 0 0 \; 0 0 \; 0 0 \; 0 0 \; 0 0 \; 0 0 \; 0 0 \; 0 0 \; 0
0 \; 0 0 \; 0 0 \; 0 0 \; 0 0 \; 0 0 \; 0 0 \; 0 0 \; 0 0 \; 0 0 \;
0 0 \; 0 0 \; 0 0 \; 0 0 \; 0 0 \; 0 0 \; 0 0 \; 0 0 \; 0 0 \; 0 0
\; 0 0 \; 0 0 \; 0 0 \; 0 0 \; 0 0 \; 0 0 \; 0 0 \; 0 0 \; 0 0 \; 0
0 \; 0 0 \; 0 0 \; 0 0 \; 0 0 \; 0 0 \; 0 0 \; 0 0 \; 0 0 \; 0 0 \;
0 0 \; 0 0 \; 0 0 \; 0 0 \; 0 0 \; 0 0 \; 0 0 \; 0 0 \; 0 0 \; 0 0
\; 0 0 \; 0 0 \; 0 0 \; 0 0 \; 0 0 \; 0 0 \; 0 0 \; 0 0 \; 0 0 \; 0
0 \; 0 0 \; 0 0 \; 0 0 \; 0 0 \; 0 0 \; 0 0 \; 0 0 \; 0 0 \; 0 0 \;
0 0 \; 0 0 \; 0 0 \; 0 0 \; 0 0 \; 0 0 \; 0 0 \; 0 0 \; 0 0 \; 0 0
\; 0 0 \; 0 0 \; 0 0 \; 0 0 \; 0 0 \; 0 0 \; 0 0 \; 0 0 \; 0 0 \; 0
0 \; 0 0 \; 0 0 \; 0 0 \; 0 0 \; 0 0 \; 0 0 \; 0 0 \; 0 0 \; 0 0 \;
0 0 \; 0 0 \; 0 0 \; 0 0 \; 0 0 \; 0 0 \; 0 0 \; 0 0 \; 0 0 \; 0 0
\; 0 0 \; 0 0 \; 0 0 \; 0 0 \; 0 0 \; 0 0 \; 0 0 \; 0 0 \; 0 0 \; 0
0 \; 0 0 \; 0 0 \; 0 0 \; 0 0 \; 0 0 \; 0 0 \; 0 0 \; 0 0 \; 0 0 \;
0 0 \; 0 0 \; 0 0 \; 0 0 \; \;;
#X coords 0 150 700 -150 700 300 2 100 100;
#X restore 110 109 pd \$0-graph;
#X obj 795 393 cnv 9 9 9 empty empty hz. 0 10 2 11 -262144 -128992
0;
#X obj 713 398 cnv 9 9 9 empty empty 10000 0 5 2 11 -262144 -128992
0;
#X obj 425 398 cnv 9 9 9 empty empty 1000 0 5 2 11 -262144 -128992
0;
#X obj 218 398 cnv 9 9 9 empty empty 100 0 5 2 11 -262144 -128992 0
;
#X obj 739 416 nbx 3 12 3 120 0 0 \$0-dbrange-gui \$0-dbrange-guir
dbrange 35 7 2 10 -262144 -1 -1 24 256;
#X obj 666 416 tgl 12 0 \$0-draw-grid \$0-draw-gridr draw_Grid 17 7
2 10 -262144 -1 -1 1 1;
#X obj 770 437 bng 12 250 50 0 \$0-resetbng \$0-resetbngr Reset 17
7 2 10 -258113 -1 -1;
#X obj 793 337 cnv 9 9 9 empty \$0-dbzeiger-minus2 -12 0 5 2 11 -262144
-128992 0;
#X obj 793 299 cnv 9 9 9 empty \$0-dbzeiger-minus1 -6 0 5 2 11 -262144
-128992 0;
#X obj 797 224 cnv 9 9 9 empty \$0-dbzeiger-plus1 6 0 5 2 11 -262144
-128992 0;
#X obj 797 187 cnv 9 9 9 empty \$0-dbzeiger-plus2 12 0 5 2 11 -262144
-128992 0;
#X obj 797 114 cnv 9 9 9 empty empty db 0 4 2 11 -262144 -128992 0
;
#X msg 848 238 isvisible;
#X obj 848 261 pdcontrol;
#X obj 848 284 s \$0-isvisible;
#X obj 848 216 r \$0-isvisible-check;
#X connect 24 0 25 0;
#X connect 25 0 26 0;
#X connect 27 0 24 0;
#X coords 0 -1 1 1 720 355 2 100 100;
#X restore 6 4 pd mask;
#X restore 636 110 pd \$0-parameq;
#N canvas 160 92 741 595 outlet-message 0;
#X obj 230 451 list trim;
#X msg 170 450 addcomma;
#X obj 230 428 list prepend add2;
#N canvas 134 336 1158 393 bang_once................. 0;
#X obj 70 80 t b f;
#X obj 27 178 del 0;
#X obj 27 80 t b f;
#X obj 113 82 t b f;
#X obj 27 52 inlet;
#X obj 70 51 inlet;
#X obj 113 51 inlet;
#X obj 157 52 inlet;
#X obj 27 282 outlet;
#X obj 27 208 f;
#X obj 157 82 t b f;
#X obj 239 80 t b f;
#X obj 196 80 t b f;
#X obj 282 82 t b f;
#X obj 196 52 inlet;
#X obj 239 51 inlet;
#X obj 282 51 inlet;
#X obj 326 52 inlet;
#X obj 326 82 t b f;
#X obj 373 82 t b f;
#X obj 373 51 inlet;
#X obj 417 52 inlet;
#X obj 417 82 t b f;
#X obj 499 81 t b f;
#X obj 456 81 t b f;
#X obj 542 83 t b f;
#X obj 456 53 inlet;
#X obj 499 52 inlet;
#X obj 542 52 inlet;
#X obj 586 53 inlet;
#X obj 586 83 t b f;
#X obj 629 84 t b f;
#X obj 629 53 inlet;
#X obj 673 54 inlet;
#X obj 673 84 t b f;
#X obj 755 83 t b f;
#X obj 712 83 t b f;
#X obj 712 55 inlet;
#X obj 755 54 inlet;
#X obj 798 54 inlet;
#X obj 842 55 inlet;
#X obj 882 54 inlet;
#X obj 926 55 inlet;
#X obj 965 56 inlet;
#X obj 1008 55 inlet;
#X obj 882 85 t b a;
#X obj 926 85 t b a;
#X obj 965 84 t b a;
#X obj 1008 84 t b a;
#X obj 842 85 t b a;
#X obj 798 85 t b a;
#X obj 27 238 pack 0 0 0 0 0 0 0 0 0 0 0 0 0 0 0 0 0 0 s s s s s s
0, f 125;
#X obj 1048 84 t b f;
#X obj 1048 55 inlet;
#X connect 0 0 1 0;
#X connect 0 1 51 1;
#X connect 1 0 9 0;
#X connect 2 0 1 0;
#X connect 2 1 9 1;
#X connect 3 0 1 0;
#X connect 3 1 51 2;
#X connect 4 0 2 0;
#X connect 5 0 0 0;
#X connect 6 0 3 0;
#X connect 7 0 10 0;
#X connect 9 0 51 0;
#X connect 10 0 1 0;
#X connect 10 1 51 3;
#X connect 11 0 1 0;
#X connect 11 1 51 5;
#X connect 12 0 1 0;
#X connect 12 1 51 4;
#X connect 13 0 1 0;
#X connect 13 1 51 6;
#X connect 14 0 12 0;
#X connect 15 0 11 0;
#X connect 16 0 13 0;
#X connect 17 0 18 0;
#X connect 18 0 1 0;
#X connect 18 1 51 7;
#X connect 19 0 1 0;
#X connect 19 1 51 8;
#X connect 20 0 19 0;
#X connect 21 0 22 0;
#X connect 22 0 1 0;
#X connect 22 1 51 9;
#X connect 23 0 1 0;
#X connect 23 1 51 11;
#X connect 24 0 1 0;
#X connect 24 1 51 10;
#X connect 25 0 1 0;
#X connect 25 1 51 12;
#X connect 26 0 24 0;
#X connect 27 0 23 0;
#X connect 28 0 25 0;
#X connect 29 0 30 0;
#X connect 30 0 1 0;
#X connect 30 1 51 13;
#X connect 31 0 1 0;
#X connect 31 1 51 14;
#X connect 32 0 31 0;
#X connect 33 0 34 0;
#X connect 34 0 1 0;
#X connect 34 1 51 15;
#X connect 35 0 1 0;
#X connect 35 1 51 17;
#X connect 36 0 1 0;
#X connect 36 1 51 16;
#X connect 37 0 36 0;
#X connect 38 0 35 0;
#X connect 39 0 50 0;
#X connect 40 0 49 0;
#X connect 41 0 45 0;
#X connect 42 0 46 0;
#X connect 43 0 47 0;
#X connect 44 0 48 0;
#X connect 45 0 1 0;
#X connect 45 1 51 20;
#X connect 46 0 1 0;
#X connect 46 1 51 21;
#X connect 47 0 1 0;
#X connect 47 1 51 22;
#X connect 48 0 1 0;
#X connect 48 1 51 23;
#X connect 49 0 1 0;
#X connect 49 1 51 19;
#X connect 50 0 1 0;
#X connect 50 1 51 18;
#X connect 51 0 8 0;
#X connect 52 0 1 0;
#X connect 52 1 51 24;
#X connect 53 0 52 0;
#X restore 179 177 pd bang_once.................;
#X f 57;
#X obj 179 131 route 0 1 2 3 4 5;
#X msg 141 451 set;
#X obj 219 351 t b a a;
#N canvas 7 50 444 442 commaseperated 0;
#X obj 35 33 inlet;
#X obj 35 406 outlet;
#X msg 35 58 frequency 0 \$1 \, frequency 1 \$2 \, frequency 2 \$3
\, frequency 3 \$4 \, frequency 4 \$5 \, frequency 5 \$6 \, q 0 \$7
\, q 1 \$8 \, q 2 \$9 \, q 3 \$10 \, q 4 \$11 \, q 5 \$12 \, gain 0
\$13 \, gain 1 \$14 \, gain 2 \$15 \, gain 3 \$16 \, gain 4 \$17 \,
gain 5 \$18 \, filtertype 0 \$19 \, filtertype 1 \$20 \, filtertype
2 \$21 \, filtertype 3 \$22 \, filtertype 4 \$23 \, filtertype 5 \$24
\, dbrange \$25;
#X connect 0 0 2 0;
#X connect 2 0 1 0;
#X restore 219 314 pd commaseperated;
#X obj 289 132 route 0 1 2 3 4 5;
#X obj 404 131 route 0 1 2 3 4 5;
#X obj 517 106 route 0 1 2 3 4 5;
#N canvas 497 319 297 264 save 0;
#X obj 48 16 inlet;
#N canvas 690 259 481 384 collect 0;
#X obj 47 60 inlet;
#X obj 47 274 outlet;
#X obj 98 180 list;
#X obj 166 181 t l;
#X obj 47 225 list;
#X obj 98 139 list append |;
#X obj 47 126 del 0;
#X obj 47 82 t b a;
#X text 119 75 hacky thing... replaycing " \, " with "|";
#X connect 0 0 7 0;
#X connect 2 0 3 0;
#X connect 2 0 4 1;
#X connect 3 0 2 1;
#X connect 4 0 1 0;
#X connect 5 0 2 0;
#X connect 6 0 2 1;
#X connect 6 0 4 0;
#X connect 7 0 6 0;
#X connect 7 1 5 0;
#X restore 48 38 pd collect;
#X obj 117 16 r \$0-save;
#X obj 27 130 text set \$0-savestates;
#X obj 27 104 list;
#X obj 117 62 t b f;
#X obj 117 39 clip 0 20;
#X connect 0 0 1 0;
#X connect 1 0 4 1;
#X connect 2 0 6 0;
#X connect 4 0 3 0;
#X connect 5 0 4 0;
#X connect 5 1 3 1;
#X connect 6 0 5 0;
#X restore 258 375 pd save;
#X obj 200 231 t b a b;
#X obj 143 79 r \$0-freq-from-array;
#X obj 273 80 r \$0-q-from-array;
#X obj 388 80 r \$0-gain-from-array;
#N canvas 1 50 1071 526 name 0;
#X obj 111 348 symbol;
#X obj 110 121 sel 0 1 2 3 4 5;
#X msg 110 146 peaking;
#X msg 125 167 highpass;
#X msg 143 191 lowpass;
#X msg 160 216 lowshelf;
#X msg 169 240 highshelf;
#X msg 183 263 notch;
#X obj 110 94 inlet;
#X obj 111 371 outlet;
#X obj 235 348 symbol;
#X obj 234 121 sel 0 1 2 3 4 5;
#X msg 234 146 peaking;
#X msg 249 167 highpass;
#X msg 267 191 lowpass;
#X msg 284 216 lowshelf;
#X msg 293 240 highshelf;
#X msg 307 263 notch;
#X obj 234 94 inlet;
#X obj 235 371 outlet;
#X obj 359 350 symbol;
#X obj 358 123 sel 0 1 2 3 4 5;
#X msg 358 148 peaking;
#X msg 373 169 highpass;
#X msg 391 193 lowpass;
#X msg 408 218 lowshelf;
#X msg 417 242 highshelf;
#X msg 431 265 notch;
#X obj 358 96 inlet;
#X obj 359 373 outlet;
#X obj 485 351 symbol;
#X obj 484 124 sel 0 1 2 3 4 5;
#X msg 484 149 peaking;
#X msg 499 170 highpass;
#X msg 517 194 lowpass;
#X msg 534 219 lowshelf;
#X msg 543 243 highshelf;
#X msg 557 266 notch;
#X obj 484 97 inlet;
#X obj 485 374 outlet;
#X obj 609 351 symbol;
#X obj 608 124 sel 0 1 2 3 4 5;
#X msg 608 149 peaking;
#X msg 623 170 highpass;
#X msg 641 194 lowpass;
#X msg 658 219 lowshelf;
#X msg 667 243 highshelf;
#X msg 681 266 notch;
#X obj 608 97 inlet;
#X obj 609 374 outlet;
#X obj 733 353 symbol;
#X obj 732 126 sel 0 1 2 3 4 5;
#X msg 732 151 peaking;
#X msg 747 172 highpass;
#X msg 765 196 lowpass;
#X msg 782 221 lowshelf;
#X msg 791 245 highshelf;
#X msg 805 268 notch;
#X obj 732 99 inlet;
#X obj 733 376 outlet;
#X connect 0 0 9 0;
#X connect 1 0 2 0;
#X connect 1 1 3 0;
#X connect 1 2 4 0;
#X connect 1 3 5 0;
#X connect 1 4 6 0;
#X connect 1 5 7 0;
#X connect 2 0 0 0;
#X connect 3 0 0 0;
#X connect 4 0 0 0;
#X connect 5 0 0 0;
#X connect 6 0 0 0;
#X connect 7 0 0 0;
#X connect 8 0 1 0;
#X connect 10 0 19 0;
#X connect 11 0 12 0;
#X connect 11 1 13 0;
#X connect 11 2 14 0;
#X connect 11 3 15 0;
#X connect 11 4 16 0;
#X connect 11 5 17 0;
#X connect 12 0 10 0;
#X connect 13 0 10 0;
#X connect 14 0 10 0;
#X connect 15 0 10 0;
#X connect 16 0 10 0;
#X connect 17 0 10 0;
#X connect 18 0 11 0;
#X connect 20 0 29 0;
#X connect 21 0 22 0;
#X connect 21 1 23 0;
#X connect 21 2 24 0;
#X connect 21 3 25 0;
#X connect 21 4 26 0;
#X connect 21 5 27 0;
#X connect 22 0 20 0;
#X connect 23 0 20 0;
#X connect 24 0 20 0;
#X connect 25 0 20 0;
#X connect 26 0 20 0;
#X connect 27 0 20 0;
#X connect 28 0 21 0;
#X connect 30 0 39 0;
#X connect 31 0 32 0;
#X connect 31 1 33 0;
#X connect 31 2 34 0;
#X connect 31 3 35 0;
#X connect 31 4 36 0;
#X connect 31 5 37 0;
#X connect 32 0 30 0;
#X connect 33 0 30 0;
#X connect 34 0 30 0;
#X connect 35 0 30 0;
#X connect 36 0 30 0;
#X connect 37 0 30 0;
#X connect 38 0 31 0;
#X connect 40 0 49 0;
#X connect 41 0 42 0;
#X connect 41 1 43 0;
#X connect 41 2 44 0;
#X connect 41 3 45 0;
#X connect 41 4 46 0;
#X connect 41 5 47 0;
#X connect 42 0 40 0;
#X connect 43 0 40 0;
#X connect 44 0 40 0;
#X connect 45 0 40 0;
#X connect 46 0 40 0;
#X connect 47 0 40 0;
#X connect 48 0 41 0;
#X connect 50 0 59 0;
#X connect 51 0 52 0;
#X connect 51 1 53 0;
#X connect 51 2 54 0;
#X connect 51 3 55 0;
#X connect 51 4 56 0;
#X connect 51 5 57 0;
#X connect 52 0 50 0;
#X connect 53 0 50 0;
#X connect 54 0 50 0;
#X connect 55 0 50 0;
#X connect 56 0 50 0;
#X connect 57 0 50 0;
#X connect 58 0 51 0;
#X restore 517 130 pd name;
#X f 17;
#X obj 618 316 r \$0-touch;
#X obj 523 292 r \$0-filtertype-gui;
#X obj 523 337 list trim;
#X obj 523 316 list prepend 0;
#X text 317 221 there might be a better method to do this i couldn't
come up with;
#X obj 200 531 outlet;
#X obj 633 133 r \$0-dbrange-gui;
#X obj 518 80 r \$0-filtertype-to-filter;
#X connect 0 0 22 0;
#X connect 1 0 22 0;
#X connect 2 0 0 0;
#X connect 3 0 12 0;
#X connect 4 0 3 0;
#X connect 4 1 3 1;
#X connect 4 2 3 2;
#X connect 4 3 3 3;
#X connect 4 4 3 4;
#X connect 4 5 3 5;
#X connect 5 0 22 0;
#X connect 6 0 1 0;
#X connect 6 1 2 0;
#X connect 6 2 11 0;
#X connect 7 0 6 0;
#X connect 8 0 3 6;
#X connect 8 1 3 7;
#X connect 8 2 3 8;
#X connect 8 3 3 9;
#X connect 8 4 3 10;
#X connect 8 5 3 11;
#X connect 9 0 3 12;
#X connect 9 1 3 13;
#X connect 9 2 3 14;
#X connect 9 3 3 15;
#X connect 9 4 3 16;
#X connect 9 5 3 17;
#X connect 10 0 16 0;
#X connect 10 1 16 1;
#X connect 10 2 16 2;
#X connect 10 3 16 3;
#X connect 10 4 16 4;
#X connect 10 5 16 5;
#X connect 12 0 22 0;
#X connect 12 1 7 0;
#X connect 12 2 5 0;
#X connect 13 0 4 0;
#X connect 14 0 8 0;
#X connect 15 0 9 0;
#X connect 16 0 3 18;
#X connect 16 1 3 19;
#X connect 16 2 3 20;
#X connect 16 3 3 21;
#X connect 16 4 3 22;
#X connect 16 5 3 23;
#X connect 17 0 20 1;
#X connect 18 0 20 0;
#X connect 20 0 19 0;
#X connect 23 0 3 24;
#X connect 24 0 10 0;
#X restore 633 346 pd outlet-message;
#X obj 636 55 inlet;
#N canvas 371 228 544 369 in 0;
#X obj 70 10 inlet;
#N canvas 698 546 200 251 route 0;
#X obj 20 20 inlet;
#X obj 30 60 route save recall;
#X obj 30 85 route float;
#X obj 97 111 route float;
#X obj 30 136 s \$0-save;
#X obj 30 108 i;
#X obj 98 133 i;
#X obj 98 161 s \$0-recall;
#X connect 0 0 1 0;
#X connect 1 0 2 0;
#X connect 1 1 3 0;
#X connect 2 0 5 0;
#X connect 3 0 6 0;
#X connect 5 0 4 0;
#X connect 6 0 7 0;
#X restore 162 36 pd route save-recall;
#N canvas 362 125 450 479 recall 0;
#X obj 49 145 outlet;
#N canvas 3 54 450 600 listsplit 0;
#X obj 158 23 inlet;
#X obj 220 87 list length;
#X obj 220 113 until;
#X obj 182 150 f;
#X obj 278 150 + 1;
#X msg 265 111 0;
#X obj 182 226 list store;
#X msg 182 202 get \$1 1;
#X obj 154 367 list split;
#X obj 222 342 f;
#X obj 154 334 list;
#X obj 98 124 list;
#X obj 182 389 list split 1;
#X obj 154 274 t bang bang bang;
#X obj 182 179 t f f;
#X obj 158 48 t l l l b;
#X obj 154 473 outlet;
#X obj 154 440 list trim;
#X obj 163 248 sel |;
#X text 275 197 hacky split list at "|";
#X connect 0 0 15 0;
#X connect 1 0 2 0;
#X connect 2 0 3 0;
#X connect 3 0 4 0;
#X connect 3 0 14 0;
#X connect 4 0 3 1;
#X connect 5 0 3 1;
#X connect 6 0 18 0;
#X connect 7 0 6 0;
#X connect 8 0 17 0;
#X connect 8 1 12 0;
#X connect 9 0 8 1;
#X connect 10 0 8 0;
#X connect 11 0 15 0;
#X connect 12 1 11 0;
#X connect 13 0 10 0;
#X connect 13 1 9 0;
#X connect 13 2 2 1;
#X connect 14 0 7 0;
#X connect 14 1 9 1;
#X connect 15 0 1 0;
#X connect 15 1 10 1;
#X connect 15 2 6 1;
#X connect 15 3 5 0;
#X connect 17 0 16 0;
#X connect 18 0 13 0;
#X restore 49 117 pd listsplit;
#X obj 49 24 r \$0-recall;
#X obj 49 54 pipe 1;
#X obj 221 409 text fromlist \$0-savestates;
#X obj 49 77 text get \$0-savestates;
#X msg 253 246 21;
#X obj 253 269 until;
#X obj 253 292 f;
#X obj 300 295 + 1;
#X obj 253 315 t b f;
#X obj 253 367 text set \$0-savestates;
#X obj 221 114 text tolist \$0-savestates;
#X msg 253 342 list empty_slot;
#X obj 221 160 t a b;
#X obj 151 166 loadbang;
#X obj 221 137 savestate;
#X obj 221 33 text define \$0-savestates;
#X obj 151 189 del 0;
#X msg 298 199 0;
#X obj 253 220 spigot 1;
#X connect 1 0 0 0;
#X connect 2 0 3 0;
#X connect 3 0 5 0;
#X connect 5 0 1 0;
#X connect 6 0 7 0;
#X connect 7 0 8 0;
#X connect 8 0 9 0;
#X connect 8 0 10 0;
#X connect 9 0 8 1;
#X connect 10 0 13 0;
#X connect 10 1 11 1;
#X connect 12 0 16 0;
#X connect 13 0 11 0;
#X connect 14 0 4 0;
#X connect 14 1 19 0;
#X connect 15 0 18 0;
#X connect 16 0 14 0;
#X connect 16 1 12 0;
#X connect 18 0 20 0;
#X connect 19 0 20 1;
#X connect 20 0 6 0;
#X restore 161 58 pd recall;
#X obj 70 204 s \$0-freq-to-filter;
#X obj 167 252 s \$0-gain-to-filter;
#X obj 118 228 s \$0-q-to-filter;
#X obj 215 305 s \$0-filtertype-to-filter;
#N canvas 1 50 450 300 name 0;
#X obj 51 18 inlet;
#X msg 107 113 0;
#X msg 138 113 1;
#X msg 169 113 2;
#X msg 199 113 3;
#X msg 229 113 4;
#X msg 259 113 5;
#X obj 51 216 outlet;
#X obj 51 164 pack;
#X obj 51 41 unpack f s;
#X obj 107 76 sel peaking highpass lowpass lowshelf highshelf notch
;
#X connect 0 0 9 0;
#X connect 1 0 8 1;
#X connect 2 0 8 1;
#X connect 3 0 8 1;
#X connect 4 0 8 1;
#X connect 5 0 8 1;
#X connect 6 0 8 1;
#X connect 8 0 7 0;
#X connect 9 0 8 0;
#X connect 9 1 10 0;
#X connect 10 0 1 0;
#X connect 10 1 2 0;
#X connect 10 2 3 0;
#X connect 10 3 4 0;
#X connect 10 4 5 0;
#X connect 10 5 6 0;
#X restore 215 280 pd name;
#N canvas 816 105 450 300 init 0;
#X obj 44 210 outlet;
#X obj 44 80 r \$0-lbang;
#X msg 45 105 frequency 0 47.3182 \, frequency 1 243.374 \, frequency
2 821.784 \, frequency 3 2304.75 \, frequency 4 5772.32 \, frequency
5 13361 \, q 0 0 \, q 1 0 \, q 2 0 \, q 3 0 \, q 4 0 \, q 5 0 \, gain
0 0 \, gain 1 0 \, gain 2 0 \, gain 3 0 \, gain 4 0 \, gain 5 0 \,
filtertype 0 lowshelf \, filtertype 1 peaking \, filtertype 2 peaking
\, filtertype 3 peaking \, filtertype 4 peaking \, filtertype 5 highshelf
\, dbrange 24;
#X connect 1 0 2 0;
#X connect 2 0 0 0;
#X restore 154 128 pd init;
#X obj 270 223 s \$0-dbrange-guir;
#X obj 270 197 pipe 200;
#X obj 334 255 s \$0-update-rate;
#X obj 70 172 route frequency q gain filtertype dbrange update-rate
reset;
#X obj 370 196 s \$0-resetbng;
#X connect 0 0 1 0;
#X connect 0 0 12 0;
#X connect 2 0 12 0;
#X connect 7 0 6 0;
#X connect 8 0 12 0;
#X connect 10 0 9 0;
#X connect 12 0 3 0;
#X connect 12 1 5 0;
#X connect 12 2 4 0;
#X connect 12 3 7 0;
#X connect 12 4 10 0;
#X connect 12 5 11 0;
#X connect 12 6 13 0;
#X restore 636 76 pd in;
#X obj 633 371 outlet;
#X obj 658 215 r \$0-resetbng;
#X obj 103 115 hsl 150 15 0 127 0 0 \$0-visbng \$0-visbngr empty 50
8 2 10 -233017 -233017 -1 0 1;
#X obj 347 374 outlet~;
#N canvas 59 50 1265 678 init 0;
#X msg 901 188 traverse \$1 \, bang;
#X obj 901 208 pointer;
#X obj 702 449 s \$0-control-array-pointer;
#X obj 162 31 loadbang;
#X obj 702 384 t p b p;
#X msg 787 240 1 0 900 1;
#X obj 787 263 unpack f f f f;
#X msg 216 149 \; \$1 clear;
#X obj 702 360 append \$0-control-array x y;
#X obj 702 332 unpack f f;
#X msg 702 307 0 0;
#X msg 616 472 0 0 1;
#X obj 616 498 unpack f f f;
#X obj 901 230 s \$0-pointer;
#X obj 991 271 r \$0-pointer;
#X obj 861 340 r \$0-pointer;
#X obj 704 497 r \$0-pointer;
#X msg 530 360 0 0 1;
#X obj 530 386 unpack f f f;
#X obj 618 385 r \$0-pointer;
#X msg 444 250 0 0 1;
#X obj 444 276 unpack f f f;
#X obj 532 275 r \$0-pointer;
#X msg 359 348 0 0 1;
#X obj 359 374 unpack f f f;
#X obj 447 373 r \$0-pointer;
#X obj 444 327 s \$0-numbers3-pointer;
#X obj 444 304 append \$0-numbers3 x y n;
#X obj 787 292 append \$0-filter-template x y c th;
#X obj 787 314 s \$0-filter-pointer;
#X msg 274 438 0 0 1;
#X obj 274 464 unpack f f f;
#X obj 362 463 r \$0-pointer;
#X msg 189 336 0 0 1;
#X obj 189 362 unpack f f f;
#X obj 277 361 r \$0-pointer;
#X obj 189 413 s \$0-numbers0-pointer;
#X obj 189 390 append \$0-numbers0 x y n;
#X obj 274 515 s \$0-numbers1-pointer;
#X obj 359 425 s \$0-numbers2-pointer;
#X obj 530 437 s \$0-numbers4-pointer;
#X obj 616 549 s \$0-numbers5-pointer;
#X obj 616 526 append \$0-numbers5 x y n;
#X obj 530 414 append \$0-numbers4 x y n;
#X obj 359 402 append \$0-numbers2 x y n;
#X obj 274 492 append \$0-numbers1 x y n;
#X msg 720 406 6;
#X obj 720 426 setsize \$0-control-array \$0-c-array;
#X obj 233 30 inlet;
#X obj 887 460 loadbang;
#X obj 887 486 symbol pd-\$0-grid;
#X obj 887 629 append \$0-xt x y;
#N canvas 1 50 602 536 scale 0;
#X obj 191 31 inlet;
#X obj 257 308 ftom;
#X obj 257 331 / 135;
#X obj 257 377 * 700;
#X obj 257 354 pow 1.66667;
#X obj 257 400 outlet;
#X obj 257 145 f;
#X obj 257 167 + 1;
#X obj 324 270 * 10;
#X obj 257 189 t f f;
#X msg 272 118 0;
#X msg 340 144 10;
#X obj 289 158 mod 9;
#X obj 284 223 sel 1;
#X obj 176 217 sel 10000;
#X obj 257 281 * 10;
#X obj 284 250 f 10;
#X obj 191 118 until;
#X obj 191 54 t b b b;
#X connect 0 0 18 0;
#X connect 1 0 2 0;
#X connect 2 0 4 0;
#X connect 3 0 5 0;
#X connect 4 0 3 0;
#X connect 6 0 7 0;
#X connect 7 0 9 0;
#X connect 7 0 12 0;
#X connect 8 0 16 1;
#X connect 9 0 15 0;
#X connect 9 1 13 0;
#X connect 10 0 6 1;
#X connect 11 0 15 1;
#X connect 11 0 16 1;
#X connect 12 0 6 1;
#X connect 13 0 16 0;
#X connect 14 0 17 1;
#X connect 15 0 14 0;
#X connect 15 0 1 0;
#X connect 16 0 8 0;
#X connect 16 0 15 1;
#X connect 17 0 6 0;
#X connect 18 0 17 0;
#X connect 18 1 10 0;
#X connect 18 2 11 0;
#X restore 887 573 pd scale;
#X text 937 601 freq;
#X obj 1011 629 append \$0-yt x y;
#X text 1059 603 db;
#X msg 887 600 \$1 -150;
#N canvas 1 50 602 536 db 0;
#X obj 191 31 inlet;
#X obj 218 325 outlet;
#X obj 191 54 t b b b;
#X msg 193 105 75;
#X msg 206 128 37.5;
#X obj 193 156 t f f;
#X obj 227 176 * -1;
#X connect 0 0 2 0;
#X connect 2 0 3 0;
#X connect 2 1 4 0;
#X connect 3 0 5 0;
#X connect 4 0 5 0;
#X connect 5 0 1 0;
#X connect 5 1 6 0;
#X connect 6 0 1 0;
#X restore 1011 574 pd db;
#X msg 1011 601 1 \$1;
#X msg 1104 581 traverse \$1 \, bang;
#X obj 1104 601 pointer;
#X obj 189 186 t b b b b b b b b s, f 114;
#X msg 1045 527 \; \$1 clear;
#X obj 887 509 t b b s s;
#X obj 189 124 t s s;
#X obj 189 103 symbol pd-\$0-graph;
#X obj 16 161 f \$0;
#X obj 162 80 t b b;
#X msg 16 185 \; \$1-update-metro 1 \; \$1-draw-colfilter-guir 1 \;
\$1-draw-gridr 1 \; \$1-draw-sum-guir 0 \; \$1-draw-sum 0 \; \$1-lbang
bang \;;
#X connect 0 0 1 0;
#X connect 1 0 13 0;
#X connect 3 0 67 0;
#X connect 4 0 2 0;
#X connect 4 1 46 0;
#X connect 4 2 47 1;
#X connect 5 0 6 0;
#X connect 6 0 28 0;
#X connect 6 1 28 1;
#X connect 6 2 28 2;
#X connect 6 3 28 3;
#X connect 8 0 4 0;
#X connect 9 0 8 0;
#X connect 9 1 8 1;
#X connect 10 0 9 0;
#X connect 11 0 12 0;
#X connect 12 0 42 0;
#X connect 12 1 42 1;
#X connect 12 2 42 2;
#X connect 14 0 28 4;
#X connect 15 0 8 2;
#X connect 16 0 42 3;
#X connect 17 0 18 0;
#X connect 18 0 43 0;
#X connect 18 1 43 1;
#X connect 18 2 43 2;
#X connect 19 0 43 3;
#X connect 20 0 21 0;
#X connect 21 0 27 0;
#X connect 21 1 27 1;
#X connect 21 2 27 2;
#X connect 22 0 27 3;
#X connect 23 0 24 0;
#X connect 24 0 44 0;
#X connect 24 1 44 1;
#X connect 24 2 44 2;
#X connect 25 0 44 3;
#X connect 27 0 26 0;
#X connect 28 0 29 0;
#X connect 30 0 31 0;
#X connect 31 0 45 0;
#X connect 31 1 45 1;
#X connect 31 2 45 2;
#X connect 32 0 45 3;
#X connect 33 0 34 0;
#X connect 34 0 37 0;
#X connect 34 1 37 1;
#X connect 34 2 37 2;
#X connect 35 0 37 3;
#X connect 37 0 36 0;
#X connect 42 0 41 0;
#X connect 43 0 40 0;
#X connect 44 0 39 0;
#X connect 45 0 38 0;
#X connect 46 0 47 0;
#X connect 48 0 67 0;
#X connect 49 0 50 0;
#X connect 50 0 63 0;
#X connect 52 0 56 0;
#X connect 56 0 51 0;
#X connect 57 0 58 0;
#X connect 58 0 54 0;
#X connect 59 0 60 0;
#X connect 60 0 54 2;
#X connect 60 0 51 2;
#X connect 61 0 33 0;
#X connect 61 1 30 0;
#X connect 61 2 23 0;
#X connect 61 3 20 0;
#X connect 61 4 17 0;
#X connect 61 5 11 0;
#X connect 61 6 10 0;
#X connect 61 7 5 0;
#X connect 61 8 0 0;
#X connect 63 0 52 0;
#X connect 63 1 57 0;
#X connect 63 2 59 0;
#X connect 63 3 62 0;
#X connect 64 0 61 0;
#X connect 64 1 7 0;
#X connect 65 0 64 0;
#X connect 66 0 68 0;
#X connect 67 0 66 0;
#X connect 67 1 65 0;
#X restore 634 237 pd init pointers;
#N canvas 236 304 450 300 templates 0;
#N canvas 753 458 567 184 control-array 0;
#X obj 19 66 plot \$0-c-array 0 0 0 0 1;
#X obj 17 20 struct \$0-control-array float x float y array \$0-c-array
\$0-control-template;
#X restore 88 46 pd control-array;
#N canvas 626 185 455 147 control-template 0;
#X obj 24 15 struct \$0-control-template float x float y float c float
n;
#X obj 24 50 filledpolygon c 0 0 -5 0 0 5 5 0 0 -5;
#X restore 88 68 pd control-template;
#N canvas 1 50 450 300 numbers1-template 0;
#X obj 61 42 struct \$0-numbers1 float x float y float n;
#X obj 60 67 drawnumber n 6 12 900 Q:;
#X restore 87 115 pd numbers1-template;
#N canvas 396 167 735 461 plot-template 0;
#X obj 203 243 plot \$0-filter3 9 th -1 0 1;
#X obj 203 192 plot \$0-filter1 900 th -1 0 1;
#X obj 203 292 plot \$0-filter5 707 th -1 0 1;
#X obj 203 216 plot \$0-filter2 70 th -1 0 1;
#X obj 167 332 tgl 15 0 empty empty empty 17 7 0 10 -262144 -1 -1 0
1;
#X obj 44 16 struct \$0-filter-template float x float y float c float
s float th array \$0-filter0 \$0-template-y array \$0-filter1 \$0-template-y
array \$0-filter2 \$0-template-y array \$0-filter3 \$0-template-y array
\$0-filter4 \$0-template-y array \$0-filter5 \$0-template-y array \$0-filter6
\$0-template-y;
#X obj 203 268 plot \$0-filter4 770 th -1 0 1;
#X obj 129 129 r \$0-draw-colfilter;
#X obj 107 288 r \$0-draw-sum;
#X obj 203 169 plot \$0-filter0 950 th -1 0 1;
#X obj 203 317 plot \$0-filter6 0 th -1 0 1;
#X connect 4 0 10 0;
#X connect 7 0 2 0;
#X connect 7 0 6 0;
#X connect 7 0 0 0;
#X connect 7 0 3 0;
#X connect 7 0 1 0;
#X connect 7 0 9 0;
#X connect 8 0 10 0;
#X restore 245 33 pd plot-template;
#N canvas 597 140 416 79 plot-template-y 0;
#X obj 23 13 struct \$0-template-y float y float c;
#X restore 245 54 pd plot-template-y;
#N canvas 1 50 450 300 numbers2-template 0;
#X obj 61 41 struct \$0-numbers2 float x float y float n;
#X obj 60 67 drawnumber n 6 12 70 Q:;
#X restore 87 136 pd numbers2-template;
#N canvas 1 50 450 300 numbers3-template 0;
#X obj 61 42 struct \$0-numbers3 float x float y float n;
#X obj 60 67 drawnumber n 6 12 9 Q:;
#X restore 87 157 pd numbers3-template;
#N canvas 1 50 450 300 numbers4-template 0;
#X obj 61 42 struct \$0-numbers4 float x float y float n;
#X obj 60 67 drawnumber n 6 12 660 Q:;
#X restore 87 179 pd numbers4-template;
#N canvas 842 296 450 300 numbers0-template 0;
#X obj 61 42 struct \$0-numbers0 float x float y float n;
#X obj 62 68 drawnumber n 6 12 950 Q:;
#X restore 87 93 pd numbers0-template;
#N canvas 25 50 450 300 numbers5-template 0;
#X obj 61 42 struct \$0-numbers5 float x float y float n;
#X obj 60 67 drawnumber n 6 12 707 Q:;
#X restore 87 201 pd numbers5-template;
#N canvas 1 50 450 300 gridY-template 0;
#X obj 79 61 struct \$0-yt float x float y;
#X obj 78 113 drawpolygon 777 1 0 0 699;
#X obj 78 89 r \$0-draw-grid;
#X connect 2 0 1 0;
#X restore 241 178 pd gridY-template;
#N canvas 835 226 360 247 gridX-template 0;
#X obj 79 61 struct \$0-xt float x float y;
#X obj 79 112 drawpolygon 777 1 0 299 0;
#X obj 79 89 r \$0-draw-grid;
#X connect 2 0 1 0;
#X restore 241 201 pd gridX-template;
#X restore 636 142 pd templates;
#X obj 348 68 inlet~;
#X text 739 469 p.s. 2021;
#X connect 0 0 2 0;
#X connect 2 0 3 0;
#X connect 3 0 4 0;
#X connect 4 0 5 0;
#X connect 5 0 6 0;
#X connect 6 0 23 0;
#X connect 7 0 0 0;
#X connect 8 0 2 0;
#X connect 9 0 3 0;
#X connect 10 0 4 0;
#X connect 11 0 5 0;
#X connect 12 0 6 0;
#X connect 13 0 24 0;
#X connect 17 0 20 0;
#X connect 18 0 19 0;
#X connect 21 0 24 0;
#X connect 26 0 0 0;
#X coords 0 -1 1 1 155 33 1 100 100;
