#N canvas 236 139 1194 692 10;
#X obj 341 559 outlet~;
#X obj 400 557 outlet~;
#X obj 420 246 cos~;
#X obj 501 254 cos~;
#X obj 502 232 +~ 0.75;
#X obj 421 291 -~;
#X obj 487 292 +~;
#X obj 467 195 *~ 0.125;
#X obj 103 115 hsl 105 15 -1 1 0 0 \$0-gui \$0-guir Panorama 3 8 2 10 #e0e0e0 #000000 #000000 0 1;
#X obj 251 115 hsl 2 8 0 1 0 0 \$0-gui \$0-guir empty 3 8 2 10 #e0e0e0 #dcdcdc #000000 0 1;
#X obj 210 115 nbx 5 15 -100 100 0 0 \$0-pan \$0-panr empty 0 -8 2 10 #dcdcdc #000000 #000000 0 256;
#X msg 164 157 set \$1;
#X obj 467 112 +~;
#X obj 537 83 r \$0-pan;
#X obj 655 552 outlet;
#X obj 644 72 inlet;
#X obj 468 162 clip~ -1 1;
#N canvas 3 50 450 300 delwrite 0;
#X obj 130 55 inlet~;
#X obj 130 116 outlet~;
#X obj 174 83 delwrite~ \$0-del 100;
#X connect 0 0 1 0;
#X connect 0 0 2 0;
#X restore 341 115 pd delwrite;
#N canvas 526 157 625 314 delread 0;
#X obj 294 34 r \$0-distance;
#X obj 157 296 outlet~;
#X obj 279 297 outlet~;
#X obj 279 273 delread4~ \$0-del;
#X obj 157 275 delread4~ \$0-del;
#X obj 157 250 max~ 0;
#X obj 294 59 / 0.343;
#X obj 157 30 inlet~;
#X obj 40 51 inlet~;
#X text 345 59 speed of sound 343m/s;
#X obj 279 228 min~ 0;
#X obj 280 251 abs~;
#X obj 294 113 / 2;
#X obj 157 163 *~;
#X obj 157 217 +~;
#X obj 279 204 -~;
#X obj 294 88 clip 0 100;
#X connect 0 0 6 0;
#X connect 3 0 2 0;
#X connect 4 0 1 0;
#X connect 5 0 4 0;
#X connect 6 0 16 0;
#X connect 7 0 13 0;
#X connect 10 0 11 0;
#X connect 11 0 3 0;
#X connect 12 0 14 1;
#X connect 12 0 15 1;
#X connect 12 0 13 1;
#X connect 13 0 14 0;
#X connect 13 0 15 0;
#X connect 14 0 5 0;
#X connect 15 0 10 0;
#X connect 16 0 12 0;
#X restore 342 147 pd delread;
#X obj 340 83 inlet~;
#X obj 467 84 inlet~;
#X text 465 65 pan;
#N canvas 0 0 450 300 init 0;
#X obj 73 12 loadbang;
#X msg 124 63 args;
#X obj 124 86 pdcontrol;
#X obj 73 35 t b b;
#X obj 124 109 route float bang list;
#X obj 73 197 pack \$0 0.17 1;
#X obj 174 150 unpack;
#X obj 247 148 print pp.pantd~: no method for;
#X msg 73 223 \; \$1-panr 0 \; \$1-distance \$2 \; \$1-amp \$3 \;;
#X obj 207 173 clip 0 1;
#X connect 0 0 3 0;
#X connect 1 0 2 0;
#X connect 2 0 4 0;
#X connect 3 0 5 0;
#X connect 3 1 1 0;
#X connect 4 0 5 1;
#X connect 4 2 6 0;
#X connect 4 3 7 0;
#X connect 5 0 8 0;
#X connect 6 0 5 1;
#X connect 6 1 9 0;
#X connect 9 0 5 2;
#X restore 653 270 pd init;
#X msg 537 106 \$1 50;
#X obj 537 129 line~;
#N canvas 165 118 567 472 outlet-message 0;
#X obj 215 336 list trim;
#X msg 152 314 addcomma;
#X msg 83 290 set;
#X obj 215 313 list prepend add2;
#X obj 215 421 outlet;
#X obj 159 45 r \$0-pan;
#X obj 170 185 t b a b;
#X obj 196 255 t b a a;
#X obj 159 114 del 0;
#X obj 159 68 t b f;
#X obj 171 140 f;
#N canvas 497 319 297 264 save 0;
#X obj 48 16 inlet;
#N canvas 690 259 481 384 collect 0;
#X obj 47 60 inlet;
#X obj 47 274 outlet;
#X obj 98 180 list;
#X obj 166 181 t l;
#X obj 47 225 list;
#X obj 98 139 list append |;
#X obj 47 126 del 0;
#X obj 47 82 t b a;
#X text 119 75 hacky thing... replaycing " \, " with "|";
#X connect 0 0 7 0;
#X connect 2 0 3 0;
#X connect 2 0 4 1;
#X connect 3 0 2 1;
#X connect 4 0 1 0;
#X connect 5 0 2 0;
#X connect 6 0 2 1;
#X connect 6 0 4 0;
#X connect 7 0 6 0;
#X connect 7 1 5 0;
#X restore 48 38 pd collect;
#X obj 117 16 r \$0-save;
#X obj 27 130 text set \$0-savestates;
#X obj 27 104 list;
#X obj 117 62 t b f;
#X obj 117 39 clip 0 20;
#X connect 0 0 1 0;
#X connect 1 0 4 1;
#X connect 2 0 6 0;
#X connect 4 0 3 0;
#X connect 5 0 4 0;
#X connect 5 1 3 1;
#X connect 6 0 5 0;
#X restore 235 279 pd save;
#X obj 224 47 r \$0-distance;
#X obj 224 68 t b f;
#X obj 317 45 r \$0-amp;
#X obj 317 68 t b f;
#X obj 171 161 pack 0 0 0;
#X msg 196 230 panorama \$1 \, distance \$2 \, amp \$3;
#X connect 0 0 4 0;
#X connect 1 0 4 0;
#X connect 2 0 4 0;
#X connect 3 0 0 0;
#X connect 5 0 9 0;
#X connect 6 0 4 0;
#X connect 6 1 17 0;
#X connect 6 2 2 0;
#X connect 7 0 1 0;
#X connect 7 1 3 0;
#X connect 7 2 11 0;
#X connect 8 0 10 0;
#X connect 9 0 8 0;
#X connect 9 1 10 1;
#X connect 10 0 16 0;
#X connect 12 0 13 0;
#X connect 13 0 8 0;
#X connect 13 1 16 1;
#X connect 14 0 15 0;
#X connect 15 0 8 0;
#X connect 15 1 16 2;
#X connect 16 0 6 0;
#X connect 17 0 7 0;
#X restore 655 526 pd outlet-message;
#X obj 400 537 *~;
#X obj 341 537 *~;
#X obj 422 383 *~ 0.7071;
#X obj 488 382 *~ 0.7071;
#X obj 422 499 +~;
#X obj 488 499 +~;
#X obj 539 330 f 0.7071;
#X obj 539 351 *;
#X obj 539 281 r \$0-amp;
#X obj 539 304 t b f;
#X obj 503 421 r \$0-amp;
#X obj 503 444 swap 1;
#X obj 503 467 -;
#N canvas 535 351 339 437 in 0;
#X obj 30 14 inlet;
#N canvas 698 516 200 251 route 0;
#X obj 20 20 inlet;
#X obj 30 60 route save recall;
#X obj 30 85 route float;
#X obj 97 111 route float;
#X obj 30 136 s \$0-save;
#X obj 30 108 i;
#X obj 98 133 i;
#X obj 98 161 s \$0-recall;
#X connect 0 0 1 0;
#X connect 1 0 2 0;
#X connect 1 1 3 0;
#X connect 2 0 5 0;
#X connect 3 0 6 0;
#X connect 5 0 4 0;
#X connect 6 0 7 0;
#X restore 47 53 pd route save-recall;
#N canvas 362 125 450 479 recall 0;
#X obj 49 145 outlet;
#N canvas 3 54 450 600 listsplit 0;
#X obj 158 23 inlet;
#X obj 220 87 list length;
#X obj 220 113 until;
#X obj 182 150 f;
#X obj 278 150 + 1;
#X msg 265 111 0;
#X obj 182 226 list store;
#X msg 182 202 get \$1 1;
#X obj 154 367 list split;
#X obj 222 342 f;
#X obj 154 334 list;
#X obj 98 124 list;
#X obj 182 389 list split 1;
#X obj 154 274 t bang bang bang;
#X obj 182 179 t f f;
#X obj 158 48 t l l l b;
#X obj 154 473 outlet;
#X obj 154 440 list trim;
#X obj 163 248 sel |;
#X text 275 197 hacky split list at "|";
#X connect 0 0 15 0;
#X connect 1 0 2 0;
#X connect 2 0 3 0;
#X connect 3 0 4 0;
#X connect 3 0 14 0;
#X connect 4 0 3 1;
#X connect 5 0 3 1;
#X connect 6 0 18 0;
#X connect 7 0 6 0;
#X connect 8 0 17 0;
#X connect 8 1 12 0;
#X connect 9 0 8 1;
#X connect 10 0 8 0;
#X connect 11 0 15 0;
#X connect 12 1 11 0;
#X connect 13 0 10 0;
#X connect 13 1 9 0;
#X connect 13 2 2 1;
#X connect 14 0 7 0;
#X connect 14 1 9 1;
#X connect 15 0 1 0;
#X connect 15 1 10 1;
#X connect 15 2 6 1;
#X connect 15 3 5 0;
#X connect 17 0 16 0;
#X connect 18 0 13 0;
#X restore 49 117 pd listsplit;
#X obj 49 24 r \$0-recall;
#X obj 49 54 pipe 1;
#X obj 221 409 text fromlist \$0-savestates;
#X obj 49 77 text get \$0-savestates;
#X msg 253 246 21;
#X obj 253 269 until;
#X obj 253 292 f;
#X obj 300 295 + 1;
#X obj 253 315 t b f;
#X obj 253 367 text set \$0-savestates;
#X obj 221 114 text tolist \$0-savestates;
#X msg 253 342 list empty_slot;
#X obj 221 160 t a b;
#X obj 151 166 loadbang;
#X obj 221 137 savestate;
#X obj 221 33 text define \$0-savestates;
#X obj 151 189 del 0;
#X msg 298 199 0;
#X obj 253 220 spigot 1;
#X connect 1 0 0 0;
#X connect 2 0 3 0;
#X connect 3 0 5 0;
#X connect 5 0 1 0;
#X connect 6 0 7 0;
#X connect 7 0 8 0;
#X connect 8 0 9 0;
#X connect 8 0 10 0;
#X connect 9 0 8 1;
#X connect 10 0 13 0;
#X connect 10 1 11 1;
#X connect 12 0 16 0;
#X connect 13 0 11 0;
#X connect 14 0 4 0;
#X connect 14 1 19 0;
#X connect 15 0 18 0;
#X connect 16 0 14 0;
#X connect 16 1 12 0;
#X connect 18 0 20 0;
#X connect 19 0 20 1;
#X connect 20 0 6 0;
#X restore 48 79 pd recall;
#X obj 31 137 s \$0-panr;
#X obj 84 163 s \$0-distance;
#X obj 31 112 route panorama distance amp;
#X obj 137 209 s \$0-amp;
#X obj 137 184 clip 0 1;
#X connect 0 0 1 0;
#X connect 0 0 5 0;
#X connect 2 0 5 0;
#X connect 5 0 3 0;
#X connect 5 1 4 0;
#X connect 5 2 7 0;
#X connect 7 0 6 0;
#X restore 644 94 pd in;
#X connect 2 0 5 0;
#X connect 2 0 6 0;
#X connect 3 0 5 1;
#X connect 3 0 6 1;
#X connect 4 0 3 0;
#X connect 5 0 28 0;
#X connect 6 0 29 0;
#X connect 7 0 2 0;
#X connect 7 0 4 0;
#X connect 8 0 10 0;
#X connect 10 0 11 0;
#X connect 11 0 8 0;
#X connect 12 0 16 0;
#X connect 12 0 18 1;
#X connect 13 0 23 0;
#X connect 15 0 39 0;
#X connect 16 0 7 0;
#X connect 17 0 18 0;
#X connect 18 0 27 0;
#X connect 18 1 26 0;
#X connect 19 0 17 0;
#X connect 20 0 12 0;
#X connect 23 0 24 0;
#X connect 24 0 12 1;
#X connect 25 0 14 0;
#X connect 26 0 1 0;
#X connect 27 0 0 0;
#X connect 28 0 30 0;
#X connect 29 0 31 0;
#X connect 30 0 27 1;
#X connect 31 0 26 1;
#X connect 32 0 33 0;
#X connect 33 0 29 1;
#X connect 33 0 28 1;
#X connect 34 0 35 0;
#X connect 35 0 32 0;
#X connect 35 1 33 1;
#X connect 36 0 37 0;
#X connect 37 0 38 0;
#X connect 37 1 38 1;
#X connect 38 0 31 1;
#X connect 38 0 30 1;
#X coords 0 -1 1 1 155 33 1 100 100;
