#N canvas 0 0 624 300 10;
#N canvas 0 0 450 300 write 0;
#X obj 100 49 inlet~;
#X obj 110 122 outlet~;
#X obj 100 72 delwrite~ \$0-del \$3;
#X connect 0 0 2 0;
#X restore 155 92 pd write;
#N canvas 116 108 614 723 read 0;
#X obj 93 47 inlet~;
#X obj 189 648 outlet~;
#X obj 256 348 t f b;
#X obj 283 371 samplerate~;
#X obj 283 394 / 1000;
#X obj 256 530 /, f 5;
#X obj 189 625 delread4~ \$0-del;
#X obj 189 595 +~;
#X obj 256 585 line~;
#X obj 188 47 inlet~;
#X obj 256 562 pack 0 100;
#X obj 313 537 r \$2-transition;
#X obj 256 323 tabread \$2-primetab;
#X obj 256 94 f \$1;
#X obj 256 298 i;
#X obj 256 274 + 0.5;
#X obj 256 49 loadbang;
#X obj 256 117 tabread \$4;
#X obj 256 174 / 200;
#X obj 256 197 * 150;
#X obj 256 247 + \$1;
#X obj 256 221 * \$5;
#X msg 313 463 48;
#X obj 283 417 t f f;
#X obj 313 438 t b f;
#X obj 283 507 *;
#X obj 313 486 / 48;
#X obj 256 72 metro 200;
#X obj 256 140 change;
#X connect 2 0 5 0;
#X connect 2 1 3 0;
#X connect 3 0 4 0;
#X connect 4 0 23 0;
#X connect 5 0 10 0;
#X connect 6 0 1 0;
#X connect 7 0 6 0;
#X connect 8 0 7 1;
#X connect 9 0 7 0;
#X connect 10 0 8 0;
#X connect 11 0 10 1;
#X connect 12 0 2 0;
#X connect 13 0 17 0;
#X connect 14 0 12 0;
#X connect 15 0 14 0;
#X connect 16 0 27 0;
#X connect 17 0 28 0;
#X connect 18 0 19 0;
#X connect 19 0 21 0;
#X connect 20 0 15 0;
#X connect 21 0 20 0;
#X connect 22 0 26 0;
#X connect 23 0 25 0;
#X connect 23 1 24 0;
#X connect 24 0 22 0;
#X connect 24 1 26 1;
#X connect 25 0 5 1;
#X connect 26 0 25 1;
#X connect 27 0 13 0;
#X connect 28 0 18 0;
#X restore 155 140 pd read;
#X obj 156 49 inlet~;
#X obj 154 258 outlet~;
#X obj 237 87 inlet~;
#X connect 0 0 1 0;
#X connect 1 0 3 0;
#X connect 2 0 0 0;
#X connect 4 0 1 1;
