#N struct 1149-template float x float y float c float s float th float stretch array 1149-plus 1149-template-y array 1149-minus 1149-template-y;
#N struct 1149-template-y float y;
#N struct 1150-template float x float y float c float s float th float stretch array 1150-plus 1150-template-y array 1150-minus 1150-template-y;
#N struct 1150-template-y float y;
#N canvas 100 66 1043 660 10;
#X declare -path ./Examples/audio;
#X obj 397 596 pp.out~;
#A saved;
#X obj 3 1 cnv 15 380 650 empty empty empty 20 12 0 14 #e0e0e0 #404040 0;
#X obj 12 16 cnv 15 10 10 empty empty pp.phiverb~ 0 0 2 16 #e0e0e0 #fcfcfc 0;
#X obj 566 405 cnv 15 118 17 empty empty empty 20 12 0 14 #fc8000 #404040 0;
#N canvas 174 23 1112 963 control-messages 0;
#X obj 71 914 outlet;
#X floatatom 78 16 5 0 100 0 - - - 0;
#X floatatom 80 235 5 0 100 0 - - - 0;
#X msg 71 36 dry/wet \$1;
#X msg 71 256 feedback \$1;
#X text 143 37 (%);
#X obj 147 885 cnv 16 87 16 empty empty empty 20 12 0 14 #fc8000 #404040 0;
#N canvas 864 246 634 307 save&recall 0;
#X obj 93 233 outlet;
#X msg 93 60 0;
#X msg 125 60 1;
#X msg 158 60 2;
#X msg 93 99 save \$1;
#X text 185 63 ...;
#X msg 207 60 20;
#X msg 149 154 0;
#X msg 181 154 1;
#X msg 214 154 2;
#X text 241 157 ...;
#X msg 263 154 20;
#X msg 149 193 recall \$1;
#X text 249 93 save & recall up to 20 presets \, presets will be saved with the parrent patch;
#X connect 1 0 4 0;
#X connect 2 0 4 0;
#X connect 3 0 4 0;
#X connect 4 0 0 0;
#X connect 6 0 4 0;
#X connect 7 0 12 0;
#X connect 8 0 12 0;
#X connect 9 0 12 0;
#X connect 11 0 12 0;
#X connect 12 0 0 0;
#X restore 147 884 pd save&recall;
#X floatatom 147 822 5 0 1e+08 0 - - - 0;
#X msg 147 844 transition-time \$1;
#X msg 71 86 predelay \$1;
#X floatatom 78 63 5 0 200 0 - - - 0;
#X text 147 86 (ms);
#X text 143 255 (%)late reflections feedback;
#X floatatom 78 286 5 0 200 0 - - - 0;
#X msg 71 309 lop \$1;
#X text 115 310 (hz) late reflections crossover lowpass;
#X floatatom 77 338 5 0 1e+33 0 - - - 0;
#X msg 71 358 hf-damping \$1;
#X text 157 360 (%) high frequency damping;
#X floatatom 78 388 5 0 200 0 - - - 0;
#X floatatom 77 440 5 0 1e+33 0 - - - 0;
#X msg 71 411 hip \$1;
#X msg 71 460 lf-damping \$1;
#X text 157 462 (%) low frequency damping;
#X text 115 412 (hz) late reflections crossover highpass;
#X msg 71 514 mixdown \$1;
#X obj 83 492 hradio 15 1 0 3 empty empty empty 0 -9 0 10 #fcfcfc #000000 #000000 0;
#X text 142 514 (0 \, 1 \, 2) mixdown of 16 fdn channels to stereo output;
#X msg 128 629 filter 117 109 101 95 92 91 92 97;
#X msg 129 737 early 10 15 25 38 53 70 89 110;
#X text 318 737 (ms) early reflections;
#X msg 129 771 late 30 58 100 125 124 114 88 42 48 60 64 60 50 44 28 24;
#X text 474 770 (ms) late reflections;
#X text 126 580 send a list of values to set input filter \, early reflections & late refletions;
#X obj 529 268 cnv 15 250 160 empty empty empty 20 12 0 14 #e0e0e0 #404040 0;
#X floatatom 541 282 5 0 0 0 - - - 0;
#X floatatom 541 365 5 0 0 0 - - - 0;
#X floatatom 540 323 5 0 0 0 - - - 0;
#X floatatom 663 283 5 0 0 0 - - - 0;
#X floatatom 663 366 5 0 0 0 - - - 0;
#X floatatom 662 324 5 0 0 0 - - - 0;
#X text 529 248 set early & late curve parameters;
#X msg 541 302 early-center \$1;
#X msg 540 343 early-slope \$1;
#X msg 541 385 early-curve \$1;
#X msg 663 303 late-center \$1;
#X msg 662 344 late-slope \$1;
#X msg 663 386 late-curve \$1;
#X floatatom 80 118 5 0 0 0 - - - 0;
#X text 187 140 modulate early reflections;
#X text 339 629 (55-127) midi pitch - 8 lowpass filter for input;
#X text 139 690 approximate delay times. pp.phiverb~ uses an internal table with prime numbers for delay times.;
#X msg 71 140 modulate-early \$1;
#X floatatom 80 173 5 0 0 0 - - - 0;
#X msg 71 195 modulate-late \$1;
#X text 187 195 modulate late reflections;
#X connect 1 0 3 0;
#X connect 2 0 4 0;
#X connect 3 0 0 0;
#X connect 4 0 0 0;
#X connect 7 0 0 0;
#X connect 8 0 9 0;
#X connect 9 0 0 0;
#X connect 10 0 0 0;
#X connect 11 0 10 0;
#X connect 14 0 15 0;
#X connect 15 0 0 0;
#X connect 17 0 18 0;
#X connect 18 0 0 0;
#X connect 20 0 22 0;
#X connect 21 0 23 0;
#X connect 22 0 0 0;
#X connect 23 0 0 0;
#X connect 26 0 0 0;
#X connect 27 0 26 0;
#X connect 29 0 0 0;
#X connect 30 0 0 0;
#X connect 32 0 0 0;
#X connect 36 0 43 0;
#X connect 37 0 45 0;
#X connect 38 0 44 0;
#X connect 39 0 46 0;
#X connect 40 0 48 0;
#X connect 41 0 47 0;
#X connect 49 0 53 0;
#X connect 53 0 0 0;
#X connect 54 0 55 0;
#X connect 55 0 0 0;
#X restore 566 404 pd control-messages;
#X text 582 444 <-- click to open GUI;
#X text 10 128 Inlets:;
#X text 10 213 Outlets:;
#X text 11 92 Creation arguments: none;
#X obj 191 9 declare -path ./Examples/audio;
#X text 67 127 1:(~)signal left;
#X text 67 141 2:(~)signal right;
#X text 67 183 5:control-messages;
#X obj 397 30 bng 15 250 50 0 empty empty empty 17 7 0 10 #fcfcfc #000000 #000000;
#N canvas 543 445 454 180 message-out 0;
#X obj 20 20 inlet;
#X msg 20 45 dry/wet 100 \, predelay 9.66 \, modulate-early 0.1 \, modulate-late 0.1 \, feedback 66.6 \, lop 1666 \, hf-damping 66.6667 \, hip 66.6 \, lf-damping 16.6 \, mixdown 1 \, early-center 21 \, early-slope 8 \, early-curve -34 \, late-center 28 \, late-slope 39 \, late-curve 8 \, transition-time 20 \, filter 110.8 97 104.2 100.6 94.6 104.2 100.6 112.6 \, early 18.3333 43.3333 26.6667 45 30 20 43.3333 21.6666 \, late 101.667 28.3333 78.3333 51.6667 87.775 46.6667 105 26.6667 69.8411 48.3333 93.3333 60 106.667 50 33.3333 96.6667 \,;
#X connect 0 0 1 0;
#X restore 566 478 pd message-out;
#X obj 398 431 pp.phiverb~;
#A saved empty_slot \; empty_slot \; empty_slot \; empty_slot \; empty_slot \; empty_slot \; empty_slot \; empty_slot \; empty_slot \; empty_slot \; empty_slot \; empty_slot \; empty_slot \; empty_slot \; empty_slot \; empty_slot \; empty_slot \; empty_slot \; empty_slot \; empty_slot \; empty_slot \;;
#X text 66 213 1:(~)signal out left;
#X text 66 228 2:(~)signal out right;
#X text 66 244 3:message;
#N canvas 102 154 450 300 examples 0;
#X obj 94 104 s pd;
#X obj 94 9 r \$0-example1;
#X msg 94 32 dir;
#X obj 94 55 pdcontrol;
#X msg 94 81 open 08-chaotic_movement.pd \$1/Examples;
#X connect 1 0 2 0;
#X connect 2 0 3 0;
#X connect 3 0 4 0;
#X connect 4 0 0 0;
#X restore 309 628 pd examples;
#X obj 912 5 cnv 15 120 30 empty empty empty 20 12 0 14 #fc8000 #404040 0;
#X obj 918 13 bng 15 250 50 0 \$0-example1 \$0-example1r empty 17 7 0 10 #fcfcfc #000000 #000000;
#X text 937 11 open example-1;
#X text 12 45 phiverb~ "algorithmic" fdn based reverb;
#X obj 482 191 snake~ in 8, f 15;
#X obj 520 102 osc~ 1;
#X obj 520 125 +~ 1;
#X obj 520 148 *~;
#X floatatom 548 149 5 0 0 0 - - - 0;
#X obj 586 225 osc~ 1;
#X obj 586 248 +~ 1;
#X obj 586 271 *~;
#X floatatom 614 272 5 0 0 0 - - - 0;
#X obj 523 319 snake~ in 16, f 27;
#X text 587 188 modulate early refletions delay times via multichannel input;
#X text 647 294 modulate late refletions delay times via multichannel input;
#X text 67 155 3:(~ mc 8) early reflections mod;
#X text 67 169 4:(~ mc 16) late relactions mod;
#N canvas 234 70 477 438 test 0;
#X obj 32 18 inlet;
#X obj 32 62 line~;
#X obj 32 83 *~;
#X obj 159 161 noise~;
#X obj 144 185 *~;
#X obj 32 212 +~;
#X obj 46 117 noise~;
#X obj 32 166 *~;
#X obj 46 140 lop~ 500;
#X obj 33 242 clip~ -1 1;
#X obj 144 125 *~ 0.5;
#X msg 32 41 4 \, 0 2;
#X obj 239 23 inlet;
#X obj 223 67 pp.sfplayer~;
#A saved;
#X obj 224 200 *~;
#N canvas 3 52 450 300 init 0;
#X obj 146 118 outlet;
#X obj 146 72 loadbang;
#X msg 146 95 open Trumpet.wav \, play 1 \, loop 1;
#X connect 1 0 2 0;
#X connect 2 0 0 0;
#X restore 396 46 pd init;
#X obj 32 353 pp.pan~ sqrt;
#A saved;
#X obj 33 400 outlet~;
#X obj 107 398 outlet~;
#X obj 106 305 osc~ 0.1;
#X obj 106 328 *~ 1.3;
#X connect 0 0 11 0;
#X connect 1 0 2 0;
#X connect 1 0 2 1;
#X connect 2 0 7 0;
#X connect 2 0 10 0;
#X connect 3 0 4 1;
#X connect 4 0 5 1;
#X connect 5 0 9 0;
#X connect 6 0 8 0;
#X connect 7 0 5 0;
#X connect 8 0 7 1;
#X connect 9 0 16 0;
#X connect 10 0 4 0;
#X connect 11 0 1 0;
#X connect 12 0 14 1;
#X connect 13 0 14 0;
#X connect 14 0 16 0;
#X connect 15 0 13 3;
#X connect 16 0 17 0;
#X connect 16 1 18 0;
#X connect 19 0 20 0;
#X connect 20 0 16 1;
#X restore 397 72 pd test;
#X f 8;
#X text 460 49 soundfile;
#X obj 442 52 tgl 15 0 empty empty empty 17 7 0 10 #fcfcfc #000000 #000000 0 1;
#X text 417 29 <-- impulse;
#X connect 4 0 15 4;
#X connect 13 0 38 0;
#X connect 15 0 0 0;
#X connect 15 1 0 1;
#X connect 15 2 14 0;
#X connect 24 0 15 2;
#X connect 25 0 26 0;
#X connect 26 0 27 0;
#X connect 27 0 24 1;
#X connect 27 0 24 3;
#X connect 27 0 24 6;
#X connect 28 0 27 1;
#X connect 29 0 30 0;
#X connect 30 0 31 0;
#X connect 31 0 33 1;
#X connect 31 0 33 6;
#X connect 31 0 33 12;
#X connect 32 0 31 1;
#X connect 33 0 15 3;
#X connect 38 0 15 0;
#X connect 38 1 15 1;
#X connect 40 0 38 1;
