#N canvas 249 150 993 538 10;
#X obj 341 444 outlet~;
#X obj 410 444 outlet~;
#X obj 341 392 *~;
#X obj 103 115 hsl 105 15 -1 1 0 0 \$0-gui \$0-guir Panorama 3 8 2
10 -233017 -1 -1 5200 1;
#X obj 251 115 hsl 2 8 0 1 0 0 \$0-gui \$0-guir empty 3 8 2 10 -233017
-228856 -1 0 1;
#X obj 210 115 nbx 5 15 -1 1 0 0 \$0-pan \$0-panr empty 0 -8 2 10 -228856
-1 -1 0 256;
#X msg 164 157 set \$1;
#X obj 467 145 +~;
#X obj 557 39 r \$0-pan;
#X obj 41 56 loadbang;
#X obj 673 417 outlet;
#X obj 680 58 inlet;
#X text 771 473 philipp schmalfuß \, 2018;
#X obj 557 80 + 0.5;
#X obj 557 59 * 0.5;
#X obj 466 74 *~ 0.5;
#X obj 468 173 clip~ 0 1;
#N canvas 722 513 320 230 sqrt 0;
#X obj 94 18 inlet~;
#X obj 31 168 outlet~;
#X obj 93 169 outlet~;
#X obj 31 109 sqrt~;
#X obj 94 110 sqrt~;
#X obj 30 60 sig~ 1;
#X obj 30 83 -~;
#X obj 157 39 r \$0-panlaw;
#X obj 157 85 switch~;
#X obj 239 46 loadbang;
#X obj 157 62 != 0;
#X msg 239 69 0;
#X connect 0 0 6 1;
#X connect 0 0 4 0;
#X connect 3 0 1 0;
#X connect 4 0 2 0;
#X connect 5 0 6 0;
#X connect 6 0 3 0;
#X connect 7 0 10 0;
#X connect 9 0 11 0;
#X connect 10 0 8 0;
#X connect 11 0 8 0;
#X restore 523 249 pd sqrt;
#N canvas 573 424 481 235 cos 0;
#X obj 115 25 inlet~;
#X obj 29 175 outlet~;
#X obj 115 172 outlet~;
#X obj 30 107 cos~;
#X obj 114 115 cos~;
#X obj 116 60 *~ 0.25;
#X obj 115 93 -~ 0.25;
#X obj 234 44 r \$0-panlaw;
#X obj 234 67 == 0;
#X obj 234 90 switch~;
#X obj 316 51 loadbang;
#X msg 316 74 1;
#X connect 0 0 5 0;
#X connect 3 0 1 0;
#X connect 4 0 2 0;
#X connect 5 0 6 0;
#X connect 5 0 3 0;
#X connect 6 0 4 0;
#X connect 7 0 8 0;
#X connect 8 0 9 0;
#X connect 10 0 11 0;
#X connect 11 0 9 0;
#X restore 469 247 pd cos;
#N canvas 165 118 567 472 outlet-message 0;
#X obj 215 336 list trim;
#X msg 152 314 addcomma;
#X msg 83 290 set;
#X obj 215 313 list prepend add2;
#X obj 215 421 outlet;
#X obj 159 67 r \$0-pan;
#X obj 227 32 r \$0-panlaw;
#X obj 227 55 sel 0 1;
#X obj 171 161 pack 0 s;
#X msg 227 80 cos;
#X msg 257 80 sqrt;
#X obj 227 104 symbol;
#X obj 227 127 t b s;
#X msg 196 230 panorama \$1 \, \$2;
#X obj 170 185 t b a b;
#X obj 196 255 t b a a;
#X obj 159 114 del 0;
#X obj 159 90 t b f;
#X obj 171 140 f;
#N canvas 497 319 297 264 save 0;
#X obj 48 16 inlet;
#N canvas 690 259 481 384 collect 0;
#X obj 47 60 inlet;
#X obj 47 274 outlet;
#X obj 98 180 list;
#X obj 166 181 t l;
#X obj 47 225 list;
#X obj 98 139 list append |;
#X obj 47 126 del 0;
#X obj 47 82 t b a;
#X text 119 75 hacky thing... replaycing " \, " with "|";
#X connect 0 0 7 0;
#X connect 2 0 3 0;
#X connect 2 0 4 1;
#X connect 3 0 2 1;
#X connect 4 0 1 0;
#X connect 5 0 2 0;
#X connect 6 0 2 1;
#X connect 6 0 4 0;
#X connect 7 0 6 0;
#X connect 7 1 5 0;
#X restore 48 38 pd collect;
#X obj 117 16 r \$0-save;
#X obj 27 130 text set \$0-savestates;
#X obj 27 104 list;
#X obj 117 62 t b f;
#X obj 117 39 clip 0 20;
#X connect 0 0 1 0;
#X connect 1 0 4 1;
#X connect 2 0 6 0;
#X connect 4 0 3 0;
#X connect 5 0 4 0;
#X connect 5 1 3 1;
#X connect 6 0 5 0;
#X restore 235 279 pd save;
#X connect 0 0 4 0;
#X connect 1 0 4 0;
#X connect 2 0 4 0;
#X connect 3 0 0 0;
#X connect 5 0 17 0;
#X connect 6 0 7 0;
#X connect 7 0 9 0;
#X connect 7 1 10 0;
#X connect 8 0 14 0;
#X connect 9 0 11 0;
#X connect 10 0 11 0;
#X connect 11 0 12 0;
#X connect 12 0 16 0;
#X connect 12 1 8 1;
#X connect 13 0 15 0;
#X connect 14 0 4 0;
#X connect 14 1 13 0;
#X connect 14 2 2 0;
#X connect 15 0 1 0;
#X connect 15 1 3 0;
#X connect 15 2 19 0;
#X connect 16 0 18 0;
#X connect 17 0 16 0;
#X connect 17 1 18 1;
#X connect 18 0 8 0;
#X restore 673 367 pd outlet-message;
#N canvas 852 271 335 295 in 0;
#X obj 30 14 inlet;
#X obj 30 250 s \$0-panr;
#X obj 30 204 route panorama cos sqrt;
#X obj 153 289 s \$0-panlaw;
#X obj 102 243 t b;
#X msg 102 264 0;
#X obj 184 245 t b;
#X msg 184 266 1;
#N canvas 698 516 200 251 route 0;
#X obj 20 20 inlet;
#X obj 30 60 route save recall;
#X obj 30 85 route float;
#X obj 97 111 route float;
#X obj 30 136 s \$0-save;
#X obj 30 108 i;
#X obj 98 133 i;
#X obj 98 161 s \$0-recall;
#X connect 0 0 1 0;
#X connect 1 0 2 0;
#X connect 1 1 3 0;
#X connect 2 0 5 0;
#X connect 3 0 6 0;
#X connect 5 0 4 0;
#X connect 6 0 7 0;
#X restore 47 53 pd route save-recall;
#X obj 126 79 loadbang;
#X obj 91 178 list trim;
#X obj 91 155 list;
#X obj 91 133 symbol \$1;
#X obj 126 102 t b b;
#N canvas 362 125 450 479 recall 0;
#X obj 49 145 outlet;
#N canvas 3 54 450 600 listsplit 0;
#X obj 158 23 inlet;
#X obj 220 87 list length;
#X obj 220 113 until;
#X obj 182 150 f;
#X obj 278 150 + 1;
#X msg 265 111 0;
#X obj 182 226 list store;
#X msg 182 202 get \$1 1;
#X obj 154 367 list split;
#X obj 222 342 f;
#X obj 154 334 list;
#X obj 98 124 list;
#X obj 182 389 list split 1;
#X obj 154 274 t bang bang bang;
#X obj 182 179 t f f;
#X obj 158 48 t l l l b;
#X obj 154 473 outlet;
#X obj 154 440 list trim;
#X obj 163 248 sel |;
#X text 275 197 hacky split list at "|";
#X connect 0 0 15 0;
#X connect 1 0 2 0;
#X connect 2 0 3 0;
#X connect 3 0 4 0;
#X connect 3 0 14 0;
#X connect 4 0 3 1;
#X connect 5 0 3 1;
#X connect 6 0 18 0;
#X connect 7 0 6 0;
#X connect 8 0 17 0;
#X connect 8 1 12 0;
#X connect 9 0 8 1;
#X connect 10 0 8 0;
#X connect 11 0 15 0;
#X connect 12 1 11 0;
#X connect 13 0 10 0;
#X connect 13 1 9 0;
#X connect 13 2 2 1;
#X connect 14 0 7 0;
#X connect 14 1 9 1;
#X connect 15 0 1 0;
#X connect 15 1 10 1;
#X connect 15 2 6 1;
#X connect 15 3 5 0;
#X connect 17 0 16 0;
#X connect 18 0 13 0;
#X restore 49 117 pd listsplit;
#X obj 49 24 r \$0-recall;
#X obj 49 54 pipe 1;
#X obj 221 409 text fromlist \$0-savestates;
#X obj 49 77 text get \$0-savestates;
#X msg 253 246 21;
#X obj 253 269 until;
#X obj 253 292 f;
#X obj 300 295 + 1;
#X obj 253 315 t b f;
#X obj 253 367 text set \$0-savestates;
#X obj 221 114 text tolist \$0-savestates;
#X msg 253 342 list empty_slot;
#X obj 221 160 t a b;
#X obj 151 166 loadbang;
#X obj 221 137 savestate;
#X obj 221 33 text define \$0-savestates;
#X obj 151 189 del 0;
#X msg 298 199 0;
#X obj 253 220 spigot 1;
#X connect 1 0 0 0;
#X connect 2 0 3 0;
#X connect 3 0 5 0;
#X connect 5 0 1 0;
#X connect 6 0 7 0;
#X connect 7 0 8 0;
#X connect 8 0 9 0;
#X connect 8 0 10 0;
#X connect 9 0 8 1;
#X connect 10 0 13 0;
#X connect 10 1 11 1;
#X connect 12 0 16 0;
#X connect 13 0 11 0;
#X connect 14 0 4 0;
#X connect 14 1 19 0;
#X connect 15 0 18 0;
#X connect 16 0 14 0;
#X connect 16 1 12 0;
#X connect 18 0 20 0;
#X connect 19 0 20 1;
#X connect 20 0 6 0;
#X restore 48 79 pd recall;
#X connect 0 0 2 0;
#X connect 0 0 8 0;
#X connect 2 0 1 0;
#X connect 2 1 4 0;
#X connect 2 2 6 0;
#X connect 4 0 5 0;
#X connect 5 0 3 0;
#X connect 6 0 7 0;
#X connect 7 0 3 0;
#X connect 9 0 13 0;
#X connect 10 0 2 0;
#X connect 11 0 10 0;
#X connect 12 0 11 0;
#X connect 13 0 12 0;
#X connect 13 1 5 0;
#X connect 14 0 2 0;
#X restore 680 83 pd in;
#X msg 41 77 0;
#X obj 340 83 inlet~;
#X obj 465 54 inlet~;
#X text 486 36 pan.;
#X obj 410 394 *~;
#X obj 557 126 line~;
#X msg 557 103 \$1 50;
#X connect 2 0 0 0;
#X connect 3 0 5 0;
#X connect 5 0 6 0;
#X connect 6 0 3 0;
#X connect 7 0 16 0;
#X connect 8 0 14 0;
#X connect 9 0 21 0;
#X connect 11 0 20 0;
#X connect 13 0 27 0;
#X connect 14 0 13 0;
#X connect 15 0 7 0;
#X connect 16 0 17 0;
#X connect 16 0 18 0;
#X connect 17 0 2 1;
#X connect 17 1 25 1;
#X connect 18 0 2 1;
#X connect 18 1 25 1;
#X connect 19 0 10 0;
#X connect 21 0 3 0;
#X connect 22 0 2 0;
#X connect 22 0 25 0;
#X connect 23 0 15 0;
#X connect 25 0 1 0;
#X connect 26 0 7 1;
#X connect 27 0 26 0;
#X coords 0 -1 1 1 155 33 1 100 100;
