#N canvas 295 55 850 699 10;
#X obj 469 141 change;
#X obj 309 144 change;
#X obj 56 89 pointer;
#X obj 56 135 change;
#X obj 309 643 * 150;
#X obj 510 173 t b f;
#X obj 689 621 r \$2-filter-pointer;
#X obj 309 115 get \$2-control-template x y;
#X obj 309 93 element \$2-control-array \$2-c-array;
#X obj 309 668 set \$2-template-y y, f 45;
#X obj 106 89 r \$2-numbers\$1-pointer;
#X obj 56 112 get \$2-numbers\$1 n;
#X obj 59 631 s \$2-filtercoeff-\$1;
#X obj 627 177 r \$2-numbers\$1-pointer;
#X obj 510 199 set \$2-numbers\$1 x y;
#N canvas 825 81 450 300 filtercoeff 0;
#N canvas 379 63 1076 432 filtercoef 0;
#X obj 66 42 r \$0-do;
#X text 251 370 a1 a2 b0 b1 b2 a0;
#X obj 66 85 expr -2*cos(w\$0) \; 1-alpha\$0 \; (1-cos(w\$0))/2 \;
1-cos(w\$0) \; (1-cos(w\$0))/2 \; 1+alpha\$0;
#X obj 201 81 expr -2*cos(w\$0) \; 1-alpha\$0 \; (1+cos(w\$0))/2 \;
-(1+cos(w\$0)) \; (1+cos(w\$0))/2 \; 1+alpha\$0;
#X text 130 67 lop;
#X text 274 61 hip;
#X obj 336 82 expr -2*cos(w\$0) \; 1-alpha\$0 \; sin(w\$0)/2 \; 0 \;
-1*sin(w\$0)/2 \; 1+alpha\$0;
#X text 393 60 reson;
#X text 520 58 bp;
#X obj 462 80 expr -2*cos(w\$0) \; 1-alpha\$0 \; alpha\$0 \; 0 \; -1*alpha\$0
\; 1+alpha\$0;
#X obj 591 77 expr -2*cos(w\$0) \; 1-alpha\$0 \; 1 \; -2*cos(w\$0)
\; 1 \; 1+alpha\$0;
#X text 649 55 notch;
#X text 779 58 peakEQ;
#X obj 721 80 expr -2*cos(w\$0) \; 1-alpha\$0/A\$0 \; 1+alpha\$0*A\$0
\; -2*cos(w\$0) \; 1-alpha\$0*A\$0 \; 1+alpha\$0/A\$0;
#X obj 850 82 expr -2*cos(w\$0) \; 1-alpha\$0 \; 1-alpha\$0 \; -2*cos(w\$0)
\; 1+alpha\$0 \; 1+alpha\$0;
#X text 916 62 allpass;
#X text 206 258 lowshelf;
#X text 949 175 a1 a2 b0 b1 b2 a0;
#X text 537 254 highshelf;
#X obj 68 232 r \$0-do;
#X obj 66 197 s \$0-filtercoef;
#X obj 201 193 s \$0-filtercoef;
#X obj 336 193 s \$0-filtercoef;
#X obj 462 191 s \$0-filtercoef;
#X obj 591 189 s \$0-filtercoef;
#X obj 721 191 s \$0-filtercoef;
#X obj 850 194 s \$0-filtercoef;
#X obj 201 38 r \$0-do;
#X obj 336 39 r \$0-do;
#X obj 463 37 r \$0-do;
#X obj 590 34 r \$0-do;
#X obj 720 37 r \$0-do;
#X obj 849 40 r \$0-do;
#X obj 400 231 r \$0-do;
#X obj 68 401 s \$0-filtercoef;
#X obj 201 59 sel 1;
#X text 583 366 a1 a2 b0 b1 b2 a0;
#X obj 400 384 s \$0-filtercoef;
#N canvas 3 52 450 300 normalize 0;
#X obj 84 149 /;
#X obj 121 148 /;
#X obj 159 146 /;
#X obj 196 145 /;
#X obj 235 145 /;
#X obj 154 191 pack 0 0 0 0 0;
#X obj 84 101 * -1;
#X obj 121 101 * -1;
#X obj 84 71 inlet;
#X obj 121 71 inlet;
#X obj 159 71 inlet;
#X obj 196 71 inlet;
#X obj 235 71 inlet;
#X obj 272 71 inlet;
#X obj 154 212 outlet;
#X connect 0 0 5 0;
#X connect 1 0 5 1;
#X connect 2 0 5 2;
#X connect 3 0 5 3;
#X connect 4 0 5 4;
#X connect 5 0 14 0;
#X connect 6 0 0 0;
#X connect 7 0 1 0;
#X connect 8 0 6 0;
#X connect 9 0 7 0;
#X connect 10 0 2 0;
#X connect 11 0 3 0;
#X connect 12 0 4 0;
#X connect 13 0 4 1;
#X connect 13 0 3 1;
#X connect 13 0 2 1;
#X connect 13 0 1 1;
#X connect 13 0 0 1;
#X restore 66 174 pd normalize;
#N canvas 3 50 450 300 normalize 0;
#X obj 84 149 /;
#X obj 121 148 /;
#X obj 159 146 /;
#X obj 196 145 /;
#X obj 235 145 /;
#X obj 154 191 pack 0 0 0 0 0;
#X obj 84 101 * -1;
#X obj 121 101 * -1;
#X obj 84 71 inlet;
#X obj 121 71 inlet;
#X obj 159 71 inlet;
#X obj 196 71 inlet;
#X obj 235 71 inlet;
#X obj 272 71 inlet;
#X obj 154 212 outlet;
#X connect 0 0 5 0;
#X connect 1 0 5 1;
#X connect 2 0 5 2;
#X connect 3 0 5 3;
#X connect 4 0 5 4;
#X connect 5 0 14 0;
#X connect 6 0 0 0;
#X connect 7 0 1 0;
#X connect 8 0 6 0;
#X connect 9 0 7 0;
#X connect 10 0 2 0;
#X connect 11 0 3 0;
#X connect 12 0 4 0;
#X connect 13 0 4 1;
#X connect 13 0 3 1;
#X connect 13 0 2 1;
#X connect 13 0 1 1;
#X connect 13 0 0 1;
#X restore 201 171 pd normalize;
#N canvas 0 50 450 300 normalize 0;
#X obj 84 149 /;
#X obj 121 148 /;
#X obj 159 146 /;
#X obj 196 145 /;
#X obj 235 145 /;
#X obj 154 191 pack 0 0 0 0 0;
#X obj 84 101 * -1;
#X obj 121 101 * -1;
#X obj 84 71 inlet;
#X obj 121 71 inlet;
#X obj 159 71 inlet;
#X obj 196 71 inlet;
#X obj 235 71 inlet;
#X obj 272 71 inlet;
#X obj 154 212 outlet;
#X connect 0 0 5 0;
#X connect 1 0 5 1;
#X connect 2 0 5 2;
#X connect 3 0 5 3;
#X connect 4 0 5 4;
#X connect 5 0 14 0;
#X connect 6 0 0 0;
#X connect 7 0 1 0;
#X connect 8 0 6 0;
#X connect 9 0 7 0;
#X connect 10 0 2 0;
#X connect 11 0 3 0;
#X connect 12 0 4 0;
#X connect 13 0 4 1;
#X connect 13 0 3 1;
#X connect 13 0 2 1;
#X connect 13 0 1 1;
#X connect 13 0 0 1;
#X restore 336 172 pd normalize;
#N canvas 0 50 450 300 normalize 0;
#X obj 84 149 /;
#X obj 121 148 /;
#X obj 159 146 /;
#X obj 196 145 /;
#X obj 235 145 /;
#X obj 154 191 pack 0 0 0 0 0;
#X obj 84 101 * -1;
#X obj 121 101 * -1;
#X obj 84 71 inlet;
#X obj 121 71 inlet;
#X obj 159 71 inlet;
#X obj 196 71 inlet;
#X obj 235 71 inlet;
#X obj 272 71 inlet;
#X obj 154 212 outlet;
#X connect 0 0 5 0;
#X connect 1 0 5 1;
#X connect 2 0 5 2;
#X connect 3 0 5 3;
#X connect 4 0 5 4;
#X connect 5 0 14 0;
#X connect 6 0 0 0;
#X connect 7 0 1 0;
#X connect 8 0 6 0;
#X connect 9 0 7 0;
#X connect 10 0 2 0;
#X connect 11 0 3 0;
#X connect 12 0 4 0;
#X connect 13 0 4 1;
#X connect 13 0 3 1;
#X connect 13 0 2 1;
#X connect 13 0 1 1;
#X connect 13 0 0 1;
#X restore 462 170 pd normalize;
#N canvas 0 50 450 300 normalize 0;
#X obj 84 149 /;
#X obj 121 148 /;
#X obj 159 146 /;
#X obj 196 145 /;
#X obj 235 145 /;
#X obj 154 191 pack 0 0 0 0 0;
#X obj 84 101 * -1;
#X obj 121 101 * -1;
#X obj 84 71 inlet;
#X obj 121 71 inlet;
#X obj 159 71 inlet;
#X obj 196 71 inlet;
#X obj 235 71 inlet;
#X obj 272 71 inlet;
#X obj 154 212 outlet;
#X connect 0 0 5 0;
#X connect 1 0 5 1;
#X connect 2 0 5 2;
#X connect 3 0 5 3;
#X connect 4 0 5 4;
#X connect 5 0 14 0;
#X connect 6 0 0 0;
#X connect 7 0 1 0;
#X connect 8 0 6 0;
#X connect 9 0 7 0;
#X connect 10 0 2 0;
#X connect 11 0 3 0;
#X connect 12 0 4 0;
#X connect 13 0 4 1;
#X connect 13 0 3 1;
#X connect 13 0 2 1;
#X connect 13 0 1 1;
#X connect 13 0 0 1;
#X restore 591 167 pd normalize;
#N canvas 0 50 450 300 normalize 0;
#X obj 84 149 /;
#X obj 121 148 /;
#X obj 159 146 /;
#X obj 196 145 /;
#X obj 235 145 /;
#X obj 154 191 pack 0 0 0 0 0;
#X obj 84 101 * -1;
#X obj 121 101 * -1;
#X obj 84 71 inlet;
#X obj 121 71 inlet;
#X obj 159 71 inlet;
#X obj 196 71 inlet;
#X obj 235 71 inlet;
#X obj 272 71 inlet;
#X obj 154 212 outlet;
#X connect 0 0 5 0;
#X connect 1 0 5 1;
#X connect 2 0 5 2;
#X connect 3 0 5 3;
#X connect 4 0 5 4;
#X connect 5 0 14 0;
#X connect 6 0 0 0;
#X connect 7 0 1 0;
#X connect 8 0 6 0;
#X connect 9 0 7 0;
#X connect 10 0 2 0;
#X connect 11 0 3 0;
#X connect 12 0 4 0;
#X connect 13 0 4 1;
#X connect 13 0 3 1;
#X connect 13 0 2 1;
#X connect 13 0 1 1;
#X connect 13 0 0 1;
#X restore 721 170 pd normalize;
#N canvas 0 50 450 300 normalize 0;
#X obj 84 149 /;
#X obj 121 148 /;
#X obj 159 146 /;
#X obj 196 145 /;
#X obj 235 145 /;
#X obj 154 191 pack 0 0 0 0 0;
#X obj 84 101 * -1;
#X obj 121 101 * -1;
#X obj 84 71 inlet;
#X obj 121 71 inlet;
#X obj 159 71 inlet;
#X obj 196 71 inlet;
#X obj 235 71 inlet;
#X obj 272 71 inlet;
#X obj 154 212 outlet;
#X connect 0 0 5 0;
#X connect 1 0 5 1;
#X connect 2 0 5 2;
#X connect 3 0 5 3;
#X connect 4 0 5 4;
#X connect 5 0 14 0;
#X connect 6 0 0 0;
#X connect 7 0 1 0;
#X connect 8 0 6 0;
#X connect 9 0 7 0;
#X connect 10 0 2 0;
#X connect 11 0 3 0;
#X connect 12 0 4 0;
#X connect 13 0 4 1;
#X connect 13 0 3 1;
#X connect 13 0 2 1;
#X connect 13 0 1 1;
#X connect 13 0 0 1;
#X restore 850 172 pd normalize;
#N canvas 3 52 450 300 normalize 0;
#X obj 84 149 /;
#X obj 121 148 /;
#X obj 159 146 /;
#X obj 196 145 /;
#X obj 235 145 /;
#X obj 154 191 pack 0 0 0 0 0;
#X obj 84 101 * -1;
#X obj 121 101 * -1;
#X obj 84 71 inlet;
#X obj 121 71 inlet;
#X obj 159 71 inlet;
#X obj 196 71 inlet;
#X obj 235 71 inlet;
#X obj 272 71 inlet;
#X obj 154 212 outlet;
#X connect 0 0 5 0;
#X connect 1 0 5 1;
#X connect 2 0 5 2;
#X connect 3 0 5 3;
#X connect 4 0 5 4;
#X connect 5 0 14 0;
#X connect 6 0 0 0;
#X connect 7 0 1 0;
#X connect 8 0 6 0;
#X connect 9 0 7 0;
#X connect 10 0 2 0;
#X connect 11 0 3 0;
#X connect 12 0 4 0;
#X connect 13 0 4 1;
#X connect 13 0 3 1;
#X connect 13 0 2 1;
#X connect 13 0 1 1;
#X connect 13 0 0 1;
#X restore 68 380 pd normalize;
#N canvas 0 50 450 300 normalize 0;
#X obj 84 149 /;
#X obj 121 148 /;
#X obj 159 146 /;
#X obj 196 145 /;
#X obj 235 145 /;
#X obj 154 191 pack 0 0 0 0 0;
#X obj 84 101 * -1;
#X obj 121 101 * -1;
#X obj 84 71 inlet;
#X obj 121 71 inlet;
#X obj 159 71 inlet;
#X obj 196 71 inlet;
#X obj 235 71 inlet;
#X obj 272 71 inlet;
#X obj 154 212 outlet;
#X connect 0 0 5 0;
#X connect 1 0 5 1;
#X connect 2 0 5 2;
#X connect 3 0 5 3;
#X connect 4 0 5 4;
#X connect 5 0 14 0;
#X connect 6 0 0 0;
#X connect 7 0 1 0;
#X connect 8 0 6 0;
#X connect 9 0 7 0;
#X connect 10 0 2 0;
#X connect 11 0 3 0;
#X connect 12 0 4 0;
#X connect 13 0 4 1;
#X connect 13 0 3 1;
#X connect 13 0 2 1;
#X connect 13 0 1 1;
#X connect 13 0 0 1;
#X restore 400 363 pd normalize;
#X obj 849 62 sel 8;
#X obj 720 58 sel 0;
#X obj 66 62 sel 2;
#X obj 68 252 sel 3;
#X obj 400 251 sel 4;
#X obj 590 55 sel 5;
#X obj 336 60 sel 6;
#X obj 463 58 sel 7;
#X obj 68 276 expr -2*((A\$0-1)+(A\$0+1)*cos(w\$0)) \; (A\$0+1)+(A\$0-1)*cos(w\$0)-alpha\$0
\; A\$0*((A\$0+1)-(A\$0-1)*cos(w\$0)+alpha\$0) \; 2*A\$0*((A\$0-1)-(A\$0+1)*cos(w\$0))
\; A\$0*((A\$0+1)-(A\$0-1)*cos(w\$0)-alpha\$0) \; (A\$0+1)+(A\$0-1)*cos(w\$0)+alpha\$0
\;;
#X obj 400 272 expr 2*((A\$0-1)-(A\$0+1)*cos(w\$0)) \; (A\$0+1)-(A\$0-1)*cos(w\$0)-alpha\$0
\; A\$0*((A\$0+1)+(A\$0-1)*cos(w\$0)+alpha\$0) \; -2*A\$0*((A\$0-1)+(A\$0+1)*cos(w\$0))
\; A\$0*((A\$0+1)+(A\$0-1)*cos(w\$0)-alpha\$0) \; (A\$0+1)-(A\$0-1)*cos(w\$0)+alpha\$0
\;;
#X connect 0 0 49 0;
#X connect 2 0 38 0;
#X connect 2 1 38 1;
#X connect 2 2 38 2;
#X connect 2 3 38 3;
#X connect 2 4 38 4;
#X connect 2 5 38 5;
#X connect 3 0 39 0;
#X connect 3 1 39 1;
#X connect 3 2 39 2;
#X connect 3 3 39 3;
#X connect 3 4 39 4;
#X connect 3 5 39 5;
#X connect 6 0 40 0;
#X connect 6 1 40 1;
#X connect 6 2 40 2;
#X connect 6 3 40 3;
#X connect 6 4 40 4;
#X connect 6 5 40 5;
#X connect 9 0 41 0;
#X connect 9 1 41 1;
#X connect 9 2 41 2;
#X connect 9 3 41 3;
#X connect 9 4 41 4;
#X connect 9 5 41 5;
#X connect 10 0 42 0;
#X connect 10 1 42 1;
#X connect 10 2 42 2;
#X connect 10 3 42 3;
#X connect 10 4 42 4;
#X connect 10 5 42 5;
#X connect 13 0 43 0;
#X connect 13 1 43 1;
#X connect 13 2 43 2;
#X connect 13 3 43 3;
#X connect 13 4 43 4;
#X connect 13 5 43 5;
#X connect 14 0 44 0;
#X connect 14 1 44 1;
#X connect 14 2 44 2;
#X connect 14 3 44 3;
#X connect 14 4 44 4;
#X connect 14 5 44 5;
#X connect 19 0 50 0;
#X connect 27 0 35 0;
#X connect 28 0 53 0;
#X connect 29 0 54 0;
#X connect 30 0 52 0;
#X connect 31 0 48 0;
#X connect 32 0 47 0;
#X connect 33 0 51 0;
#X connect 35 0 3 0;
#X connect 38 0 20 0;
#X connect 39 0 21 0;
#X connect 40 0 22 0;
#X connect 41 0 23 0;
#X connect 42 0 24 0;
#X connect 43 0 25 0;
#X connect 44 0 26 0;
#X connect 45 0 34 0;
#X connect 46 0 37 0;
#X connect 47 0 14 0;
#X connect 48 0 13 0;
#X connect 49 0 2 0;
#X connect 50 0 55 0;
#X connect 51 0 56 0;
#X connect 52 0 10 0;
#X connect 53 0 6 0;
#X connect 54 0 9 0;
#X connect 55 0 45 0;
#X connect 55 1 45 1;
#X connect 55 2 45 2;
#X connect 55 3 45 3;
#X connect 55 4 45 4;
#X connect 55 5 45 5;
#X connect 56 0 46 0;
#X connect 56 1 46 1;
#X connect 56 2 46 2;
#X connect 56 3 46 3;
#X connect 56 4 46 4;
#X connect 56 5 46 5;
#X restore 140 186 pd filtercoef;
#N canvas 286 166 1036 411 variables 0;
#X obj 179 334 expr sin(w\$0)/(2*$f1);
#X obj 179 355 v alpha\$0;
#X text 242 353 calculate alpha->Q;
#X obj 428 349 v alpha\$0;
#X text 490 348 calculate alpha->BW;
#X obj 428 327 expr sin(w\$0)*sinh(ln(2)/2*$f1*w\$0/sin(w\$0));
#X text 429 369 (for notch \, peak);
#X text 250 365 (for lop \, hip \, reson \, bp);
#X obj 616 168 v A\$0;
#X obj 616 145 expr pow(10 \, $f1/40);
#X obj 248 128 r \$0-filtertype;
#X obj 179 154 list prepend;
#X obj 402 264 v alpha\$0;
#X text 656 171 calculate A -> Gain for peak \, shelf;
#X obj 179 11 r \$0-list;
#X obj 179 178 route 0 1 2 3 4 5 6 7 8;
#X obj 220 287 max 1e-05;
#X obj 291 261 max 0.005;
#X obj 260 153 r \$0-filtertype-init;
#X obj 291 282 swap 1;
#X obj 291 305 /;
#X obj 421 113 t f b;
#X obj 430 135 samplerate~;
#X obj 421 181 v w\$0;
#X obj 538 120 atan;
#X msg 538 102 1;
#X obj 538 80 loadbang;
#X obj 538 140 * 8;
#X text 461 181 calculate omega;
#X obj 179 34 unpack f f f;
#X text 266 32 q \, freq \, gain;
#X obj 421 160 expr ($f3*$f1)/$f2;
#X obj 402 243 expr sin(w\$0)*(sqrt(A\$0)/$f1);
#X text 465 266 calculate alpha*sin -> q (for shelving);
#X connect 0 0 1 0;
#X connect 5 0 3 0;
#X connect 9 0 8 0;
#X connect 10 0 11 1;
#X connect 11 0 15 0;
#X connect 14 0 29 0;
#X connect 15 0 17 0;
#X connect 15 1 0 0;
#X connect 15 2 0 0;
#X connect 15 3 32 0;
#X connect 15 4 32 0;
#X connect 15 5 17 0;
#X connect 15 6 0 0;
#X connect 15 7 16 0;
#X connect 16 0 0 0;
#X connect 17 0 19 0;
#X connect 18 0 11 1;
#X connect 19 0 20 0;
#X connect 19 1 20 1;
#X connect 20 0 5 0;
#X connect 21 0 31 0;
#X connect 21 1 22 0;
#X connect 22 0 31 1;
#X connect 24 0 27 0;
#X connect 25 0 24 0;
#X connect 26 0 25 0;
#X connect 27 0 31 2;
#X connect 29 0 11 0;
#X connect 29 1 21 0;
#X connect 29 2 9 0;
#X connect 31 0 23 0;
#X connect 32 0 12 0;
#X restore 140 163 pd variables;
#N canvas 831 134 488 450 create 0;
#X obj 173 388 s \$0-do;
#X obj 297 203 r \$0-filtertype;
#X obj 297 224 t b f;
#X obj 248 200 t b f;
#X obj 215 42 t f b;
#X obj 243 85 / 2;
#X obj 243 64 samplerate~;
#X obj 51 196 clip -99 100;
#X obj 214 20 r \$0-freq;
#X obj 51 174 r \$0-q;
#X obj 248 178 r \$0-gain;
#X obj 173 109 clip 1e-24 20050;
#X obj 173 364 f 0;
#X obj 173 273 del 0;
#X obj 173 133 t b f;
#X obj 173 322 t b a;
#X obj 227 388 s \$0-list;
#X obj 239 360 r \$0-filtertype-init;
#X obj 173 299 pack 1e-24 1e-24 1e-24;
#X floatatom 333 253 5 0 0 0 - - -;
#X floatatom 250 227 5 0 0 0 - - -;
#X floatatom 222 151 5 0 0 0 - - -;
#X connect 1 0 2 0;
#X connect 2 0 13 0;
#X connect 2 1 12 1;
#X connect 2 1 19 0;
#X connect 3 0 13 0;
#X connect 3 1 18 2;
#X connect 3 1 20 0;
#X connect 4 0 11 0;
#X connect 4 1 6 0;
#X connect 5 0 11 2;
#X connect 6 0 5 0;
#X connect 7 0 18 0;
#X connect 8 0 4 0;
#X connect 9 0 7 0;
#X connect 10 0 3 0;
#X connect 11 0 14 0;
#X connect 12 0 0 0;
#X connect 13 0 18 0;
#X connect 14 0 13 0;
#X connect 14 1 18 1;
#X connect 14 1 21 0;
#X connect 15 0 12 0;
#X connect 15 1 16 0;
#X connect 17 0 12 1;
#X connect 18 0 15 0;
#X restore 140 141 pd create list;
#N canvas 1 50 450 300 init 0;
#X obj 32 8 loadbang;
#X msg 32 112 0;
#X msg 64 112 1;
#X msg 96 112 2;
#X msg 130 112 3;
#X msg 163 112 4;
#X msg 195 112 5;
#X msg 229 113 6;
#X msg 266 113 7;
#X msg 314 114 8;
#X obj 32 29 symbol \$3;
#X obj 32 67 sel peaking highpass lowpass lowshelf highshelf notch
reson bandpass allpass;
#X obj 32 169 s \$0-filtertype-init;
#X connect 0 0 10 0;
#X connect 1 0 12 0;
#X connect 2 0 12 0;
#X connect 3 0 12 0;
#X connect 4 0 12 0;
#X connect 5 0 12 0;
#X connect 6 0 12 0;
#X connect 7 0 12 0;
#X connect 8 0 12 0;
#X connect 9 0 12 0;
#X connect 10 0 11 0;
#X connect 11 0 1 0;
#X connect 11 1 2 0;
#X connect 11 2 3 0;
#X connect 11 3 4 0;
#X connect 11 4 5 0;
#X connect 11 5 6 0;
#X connect 11 6 7 0;
#X connect 11 7 8 0;
#X connect 11 8 9 0;
#X restore 140 115 pd init;
#X obj 142 229 r \$0-filtercoef;
#X obj 142 252 outlet;
#X obj 39 40 inlet;
#X obj 216 65 s \$0-freq;
#X obj 39 68 s \$0-q;
#X obj 291 65 s \$0-gain;
#X obj 106 66 s \$0-filtertype;
#X obj 106 40 inlet;
#X obj 216 39 inlet;
#X obj 291 39 inlet;
#X connect 4 0 5 0;
#X connect 6 0 8 0;
#X connect 11 0 10 0;
#X connect 12 0 7 0;
#X connect 13 0 9 0;
#X restore 131 506 pd filtercoeff;
#X f 45;
#N canvas 484 83 633 511 filterplot 0;
#X obj 195 63 inlet;
#X text 244 64 a1 a2 b0 b1 b2;
#N canvas 237 50 1032 717 frequencies 0;
#X msg 741 279 resize \$1;
#X obj 710 335 s \$0-real.freqs1;
#X obj 720 355 s \$0-real.freqs2;
#X obj 730 375 s \$0-imag.freqs1;
#X obj 740 395 s \$0-imag.freqs2;
#X obj 48 50 table \$0-real.freqs1 10;
#X obj 48 70 table \$0-real.freqs2 10;
#X obj 48 90 table \$0-imag.freqs1 10;
#X obj 48 110 table \$0-imag.freqs2 10;
#X msg 334 92 bang;
#X obj 737 217 s \$0-table.size;
#X obj 50 148 table \$0-mag.temp 10;
#X obj 838 335 s \$0-mag.temp;
#X text 34 257 This makes tables of complex frequencies from 0 to pi.
It should only have to do this once \, unless the size of the table
has been changed.;
#X obj 401 199 t f f;
#X obj 401 574 tabwrite \$0-real.freqs1;
#X obj 434 595 tabwrite \$0-real.freqs2;
#X obj 467 617 tabwrite \$0-imag.freqs1;
#X obj 500 637 tabwrite \$0-imag.freqs2;
#X obj 401 512 expr cos(-1*$f1) \; cos(-2*$f1) \; sin(-1*$f1) \; sin(-2*$f1)
;
#X obj 635 535 r \$0-freq.index;
#X obj 401 47 inlet;
#X obj 401 123 f 700;
#N canvas 533 50 832 717 mtof-scale 0;
#X obj 138 536 / 44100;
#X obj 207 351 s \$0-freq.index;
#X obj 106 150 inlet;
#X obj 138 645 outlet;
#X obj 106 232 until;
#X obj 106 276 f 0;
#X obj 132 276 + 1;
#X msg 122 254 0;
#X obj 106 308 t f f;
#X obj 106 179 t f b f b;
#X obj 177 227 samplerate~;
#X obj 106 365 / 700;
#X obj 106 481 mtof;
#X obj 106 459 * 135;
#X obj 138 609 * 6.28319;
#X obj 106 417 pow 0.6;
#X connect 0 0 14 0;
#X connect 2 0 9 0;
#X connect 4 0 5 0;
#X connect 5 0 6 0;
#X connect 5 0 8 0;
#X connect 6 0 5 1;
#X connect 7 0 5 1;
#X connect 8 0 11 0;
#X connect 8 1 1 0;
#X connect 9 0 4 0;
#X connect 9 1 7 0;
#X connect 9 2 11 1;
#X connect 9 3 10 0;
#X connect 10 0 0 1;
#X connect 11 0 15 0;
#X connect 12 0 0 0;
#X connect 13 0 12 0;
#X connect 14 0 3 0;
#X connect 15 0 13 0;
#X restore 401 413 pd mtof-scale;
#X obj 401 155 change -1;
#X connect 0 0 1 0;
#X connect 0 0 2 0;
#X connect 0 0 3 0;
#X connect 0 0 4 0;
#X connect 0 0 12 0;
#X connect 9 0 22 0;
#X connect 14 0 23 0;
#X connect 14 1 10 0;
#X connect 14 1 0 0;
#X connect 19 0 15 0;
#X connect 19 1 16 0;
#X connect 19 2 17 0;
#X connect 19 3 18 0;
#X connect 20 0 15 1;
#X connect 20 0 16 1;
#X connect 20 0 17 1;
#X connect 20 0 18 1;
#X connect 21 0 22 0;
#X connect 22 0 24 0;
#X connect 23 0 19 0;
#X connect 24 0 14 0;
#X restore 234 205 pd frequencies;
#N canvas 409 50 681 717 calculate 0;
#X obj 492 -28 inlet;
#X text 778 390 z-Transform:;
#X text 827 417 H(z) = b0 + b1*z^-1 + b2*z^-2;
#X text 869 426 ----------------------;
#X text 873 437 1 + a1*z^-1 + a2*z^-2;
#X obj 492 -2 t b l;
#X obj 293 23 r \$0-table.size;
#X obj 278 66 f;
#X obj 278 112 until;
#X obj 278 156 f 0;
#X obj 304 156 + 1;
#X msg 293 133 0;
#X obj 278 179 t f f f f f;
#X obj 216 257 tabread \$0-real.freqs1;
#X obj 285 285 tabread \$0-imag.freqs1;
#X obj 405 304 tabread \$0-real.freqs2;
#X obj 472 326 tabread \$0-imag.freqs2;
#X obj 618 328 unpack f f f f f;
#X obj 415 508 /;
#X obj 415 402 expr $f7 + $f8*$f1 + $f9*$f3 \; $f8*$f2 + $f9*$f4 \;
1 - $f5*$f1 - $f6*$f3 \; 0 - $f5*$f2 - $f6*$f4 \;;
#X obj 415 544 tabwrite \$0-mag.temp;
#X obj 391 211 s \$0-temp.index;
#X obj 532 523 r \$0-temp.index;
#N canvas 97 203 450 300 magnitude 0;
#X obj 105 49 inlet;
#X obj 188 49 inlet;
#X text 143 50 real;
#X text 223 49 imag;
#X obj 142 174 outlet;
#X text 187 174 magnitude;
#X obj 105 91 pow 2;
#X obj 188 92 pow 2;
#X obj 142 123 +;
#X obj 142 146 sqrt;
#X connect 0 0 6 0;
#X connect 1 0 7 0;
#X connect 6 0 8 0;
#X connect 7 0 8 1;
#X connect 8 0 9 0;
#X connect 9 0 4 0;
#X restore 415 472 pd magnitude;
#N canvas 97 203 450 300 magnitude 0;
#X obj 105 49 inlet;
#X obj 188 49 inlet;
#X text 143 50 real;
#X text 223 49 imag;
#X obj 142 174 outlet;
#X text 187 174 magnitude;
#X obj 105 91 pow 2;
#X obj 188 92 pow 2;
#X obj 142 123 +;
#X obj 142 146 sqrt;
#X connect 0 0 6 0;
#X connect 1 0 7 0;
#X connect 6 0 8 0;
#X connect 7 0 8 1;
#X connect 8 0 9 0;
#X connect 9 0 4 0;
#X restore 517 471 pd magnitude;
#X obj 278 89 t f b;
#X connect 0 0 5 0;
#X connect 5 0 7 0;
#X connect 5 1 17 0;
#X connect 6 0 7 1;
#X connect 7 0 25 0;
#X connect 8 0 9 0;
#X connect 9 0 10 0;
#X connect 9 0 12 0;
#X connect 10 0 9 1;
#X connect 11 0 9 1;
#X connect 12 0 13 0;
#X connect 12 1 14 0;
#X connect 12 2 15 0;
#X connect 12 3 16 0;
#X connect 12 4 21 0;
#X connect 13 0 19 0;
#X connect 14 0 19 1;
#X connect 15 0 19 2;
#X connect 16 0 19 3;
#X connect 17 0 19 4;
#X connect 17 1 19 5;
#X connect 17 2 19 6;
#X connect 17 3 19 7;
#X connect 17 4 19 8;
#X connect 18 0 20 0;
#X connect 19 0 23 0;
#X connect 19 1 23 1;
#X connect 19 2 24 0;
#X connect 19 3 24 1;
#X connect 22 0 20 1;
#X connect 23 0 18 0;
#X connect 24 0 18 1;
#X connect 25 0 8 0;
#X connect 25 1 11 0;
#X restore 214 342 pd calculate;
#X obj 455 63 inlet;
#N canvas 1 50 992 468 messages 0;
#X obj 124 88 inlet;
#X obj 151 217 s \$0-dbrange;
#X obj 124 241 s \$0-redraw;
#X obj 124 194 t b f;
#X obj 124 114 route dbrange;
#X obj 124 169 abs;
#X obj 124 143 change;
#X connect 0 0 4 0;
#X connect 3 0 2 0;
#X connect 3 1 1 0;
#X connect 4 0 6 0;
#X connect 5 0 3 0;
#X connect 6 0 5 0;
#X restore 455 87 pd messages;
#N canvas 450 50 506 627 scale.and.draw 0;
#X obj 134 88 r \$0-table.size;
#X obj 119 140 t f b;
#X obj 119 168 until;
#X obj 119 112 f;
#X obj 119 211 f 0;
#X obj 145 211 + 1;
#X msg 160 169 0;
#X obj 119 237 t f f;
#X obj 146 261 s \$0-plot.index;
#X obj 290 481 r \$0-plot.index;
#X obj 119 331 rmstodb;
#X obj 119 436 clip -24 24;
#X obj 119 466 / 24;
#X obj 119 40 inlet;
#X obj 119 302 tabread \$0-mag.temp;
#X obj 119 360 - 100;
#X obj 182 369 r \$0-dbrange;
#X obj 152 406 * -1;
#X obj 31 72 r \$0-redraw;
#X obj 119 505 outlet;
#X obj 290 504 outlet;
#X connect 0 0 3 1;
#X connect 1 0 2 0;
#X connect 1 1 6 0;
#X connect 2 0 4 0;
#X connect 3 0 1 0;
#X connect 4 0 5 0;
#X connect 4 0 7 0;
#X connect 5 0 4 1;
#X connect 6 0 4 1;
#X connect 7 0 14 0;
#X connect 7 1 8 0;
#X connect 9 0 20 0;
#X connect 10 0 15 0;
#X connect 11 0 12 0;
#X connect 12 0 19 0;
#X connect 13 0 3 0;
#X connect 14 0 10 0;
#X connect 15 0 11 0;
#X connect 16 0 11 2;
#X connect 16 0 12 1;
#X connect 16 0 17 0;
#X connect 17 0 11 1;
#X connect 18 0 3 0;
#X restore 105 388 pd scale.and.draw;
#X obj 105 411 outlet;
#X obj 204 412 outlet;
#X text 252 415 index;
#N canvas 1 50 450 300 init 0;
#X obj 133 33 loadbang;
#X obj 286 147 samplerate~;
#X obj 286 170 s \$0-sample.rate;
#X msg 228 144 1;
#X obj 228 166 atan;
#X obj 228 188 * 4;
#X obj 228 111 t b b;
#X obj 228 208 s \$0-pi;
#X obj 133 61 t b b;
#X obj 133 137 expr abs($f1);
#X obj 133 165 s \$0-dbrange;
#X msg 133 113 24;
#X connect 0 0 8 0;
#X connect 1 0 2 0;
#X connect 3 0 4 0;
#X connect 4 0 5 0;
#X connect 5 0 7 0;
#X connect 6 0 3 0;
#X connect 6 1 1 0;
#X connect 8 0 11 0;
#X connect 8 1 6 0;
#X connect 9 0 10 0;
#X connect 11 0 9 0;
#X restore 454 123 pd init;
#X obj 195 180 t b l b;
#X text 333 449 striped-down version of filterplot.mmb;
#X text 362 474 https://github.com/dotmmb/mmb;
#X connect 0 0 11 0;
#X connect 4 0 5 0;
#X connect 6 0 7 0;
#X connect 6 1 8 0;
#X connect 11 0 6 0;
#X connect 11 1 3 0;
#X connect 11 2 2 0;
#X restore 309 619 pd filterplot;
#X obj 364 71 r \$2-control-array-pointer;
#X obj 576 645 element \$2-filter-template \$2-filter\$1;
#X obj 309 65 f \$1;
#X obj 392 537 r \$2-draw-colfilter;
#X obj 346 560 sel 1;
#X obj 392 558 t f f;
#X obj 309 560 list;
#X obj 309 594 spigot 1;
#N canvas 286 87 625 474 sendreceive 0;
#X obj 112 37 inlet;
#X obj 185 138 list prepend \$1;
#X obj 185 161 list trim;
#X obj 185 185 s \$2-q-from-array;
#X obj 112 405 outlet;
#X obj 182 227 r \$2-q-to-filter;
#X obj 287 300 r \$2-numbers\$1-pointer;
#X obj 182 325 set \$2-numbers\$1 n;
#X obj 182 250 route \$1;
#X obj 200 36 r \$2-touch;
#X obj 200 59 sel \$1;
#X obj 185 109 f;
#X obj 182 273 change -1;
#X connect 0 0 4 0;
#X connect 0 0 11 0;
#X connect 1 0 2 0;
#X connect 2 0 3 0;
#X connect 5 0 8 0;
#X connect 6 0 7 1;
#X connect 8 0 12 0;
#X connect 9 0 10 0;
#X connect 10 0 11 0;
#X connect 11 0 1 0;
#X connect 12 0 7 0;
#X restore 56 431 pd sendreceive;
#N canvas 615 154 705 585 sendreceive 0;
#X obj 111 59 inlet;
#X obj 171 212 list prepend \$1;
#X obj 171 235 list trim;
#X obj 110 466 outlet;
#X obj 172 313 route \$1;
#X obj 171 259 s \$2-freq-from-array;
#X obj 172 290 r \$2-freq-to-filter;
#X obj 319 444 element \$2-control-array \$2-c-array;
#X obj 320 373 r \$2-control-array-pointer;
#X obj 172 345 ftom;
#X obj 172 368 / 135;
#X obj 172 414 * 700;
#X obj 319 420 f \$1;
#X obj 319 396 t b p;
#X obj 172 467 set \$2-control-template x;
#X obj 172 391 pow 1.66667;
#X obj 193 116 r \$2-touch;
#X obj 193 139 sel \$1;
#X obj 111 81 * 10;
#X obj 111 103 + 0.5;
#X obj 110 124 i;
#X obj 110 147 / 10;
#X obj 171 186 f;
#X obj 172 443 change;
#X connect 0 0 18 0;
#X connect 1 0 2 0;
#X connect 2 0 5 0;
#X connect 4 0 9 0;
#X connect 6 0 4 0;
#X connect 7 0 14 1;
#X connect 8 0 13 0;
#X connect 9 0 10 0;
#X connect 10 0 15 0;
#X connect 11 0 23 0;
#X connect 12 0 7 0;
#X connect 13 0 12 0;
#X connect 13 1 7 1;
#X connect 15 0 11 0;
#X connect 16 0 17 0;
#X connect 17 0 22 0;
#X connect 18 0 19 0;
#X connect 19 0 20 0;
#X connect 20 0 21 0;
#X connect 21 0 22 0;
#X connect 21 0 3 0;
#X connect 22 0 1 0;
#X connect 23 0 14 0;
#X restore 309 447 pd sendreceive;
#N canvas 507 87 858 496 sendreceive 0;
#X obj 112 37 inlet;
#X obj 176 130 list prepend \$1;
#X obj 176 153 list trim;
#X obj 112 360 outlet;
#X obj 176 253 route \$1;
#X obj 176 179 s \$2-gain-from-array;
#X obj 176 215 r \$2-gain-to-filter;
#X obj 323 337 element \$2-control-array \$2-c-array;
#X obj 324 266 r \$2-control-array-pointer;
#X obj 323 313 f \$1;
#X obj 323 289 t b p;
#X obj 176 363 set \$2-control-template y;
#X obj 176 290 / 24;
#X obj 176 313 * 150;
#X obj 204 29 r \$2-touch;
#X obj 204 52 sel \$1;
#X obj 176 80 f;
#X obj 176 336 change;
#X obj 212 278 r \$0-dbrange-set;
#X connect 0 0 3 0;
#X connect 0 0 16 0;
#X connect 1 0 2 0;
#X connect 2 0 5 0;
#X connect 4 0 12 0;
#X connect 6 0 4 0;
#X connect 7 0 11 1;
#X connect 8 0 10 0;
#X connect 9 0 7 0;
#X connect 10 0 9 0;
#X connect 10 1 7 1;
#X connect 12 0 13 0;
#X connect 13 0 17 0;
#X connect 14 0 15 0;
#X connect 15 0 16 0;
#X connect 16 0 1 0;
#X connect 17 0 11 0;
#X connect 18 0 12 1;
#X restore 469 471 pd sendreceive;
#N canvas 426 205 504 340 sendreceive 0;
#X obj 58 54 inlet;
#X obj 51 264 outlet;
#X obj 151 138 route \$1;
#X obj 112 241 list;
#X obj 112 264 s \$2-filtertype-to-gui;
#X obj 151 192 list prepend \$1;
#X obj 151 215 list trim;
#X obj 151 116 r \$2-filtertype-to-filter;
#X obj 162 170 r \$0-filtertype-init;
#X obj 113 63 r \$2-touch;
#X obj 112 84 sel \$1;
#X connect 0 0 3 0;
#X connect 2 0 5 0;
#X connect 2 0 1 0;
#X connect 3 0 4 0;
#X connect 5 0 6 0;
#X connect 6 0 3 1;
#X connect 7 0 2 0;
#X connect 8 0 5 0;
#X connect 9 0 10 0;
#X connect 10 0 3 0;
#X restore 174 458 pd sendreceive;
#X obj 56 388 max -20;
#X obj 56 457 + 100;
#X obj 56 480 dbtorms;
#X text 113 466 Q;
#X text 201 437 filtertype;
#X text 378 421 freq;
#X text 542 451 gain;
#X msg 444 590 dbrange \$1;
#X obj 508 347 s \$2-touch;
#X obj 507 322 f \$1;
#X obj 348 332 s \$2-touch;
#X obj 348 311 f \$1;
#X obj 469 299 t f b b;
#X obj 309 289 t f b b;
#X obj 95 333 s \$2-touch;
#X obj 95 308 f \$1;
#X obj 56 285 t f b b;
#X obj 444 570 r \$2-dbrange-gui;
#N canvas 653 108 579 639 dbrange 0;
#X obj 285 560 element \$2-control-array \$2-c-array;
#X obj 350 483 r \$2-control-array-pointer;
#X obj 225 585 set \$2-control-template y;
#X obj 285 536 f \$1;
#X obj 62 14 inlet;
#X obj 62 302 / 150;
#X obj 241 21 r \$2-dbrange-gui;
#X obj 62 587 outlet;
#X obj 225 416 / 24;
#X obj 225 439 * 150;
#X obj 62 376 * 24;
#X obj 350 504 t b p;
#X obj 122 140 f;
#X obj 122 161 + 1;
#X obj 121 184 s \$2-dbrange-guir;
#X obj 225 387 f;
#X obj 305 376 expr $f1<150&&$f1>-150;
#X obj 122 67 expr $f1>150||$f1<-150;
#X obj 225 462 t f f;
#X obj 151 319 spigot 1;
#X obj 225 512 spigot 1;
#X obj 62 435 * 100;
#X obj 62 487 i;
#X obj 62 510 / 100;
#X obj 62 462 + 0.5;
#X obj 241 163 t f b f;
#X obj 62 37 t f f;
#X obj 141 348 s \$0-dbrange-set;
#X obj 122 90 sel 1;
#X text 378 229 ugly;
#X connect 0 0 2 1;
#X connect 1 0 11 0;
#X connect 3 0 0 0;
#X connect 4 0 26 0;
#X connect 5 0 10 0;
#X connect 6 0 12 1;
#X connect 6 0 25 0;
#X connect 8 0 9 0;
#X connect 9 0 18 0;
#X connect 10 0 15 1;
#X connect 10 0 21 0;
#X connect 11 0 3 0;
#X connect 11 1 0 1;
#X connect 12 0 13 0;
#X connect 13 0 12 1;
#X connect 13 0 14 0;
#X connect 15 0 8 0;
#X connect 16 0 20 1;
#X connect 16 0 19 1;
#X connect 17 0 28 0;
#X connect 18 0 20 0;
#X connect 18 1 16 0;
#X connect 19 0 10 1;
#X connect 19 0 27 0;
#X connect 20 0 2 0;
#X connect 21 0 24 0;
#X connect 22 0 23 0;
#X connect 23 0 7 0;
#X connect 24 0 22 0;
#X connect 25 0 19 0;
#X connect 25 1 15 0;
#X connect 25 2 8 1;
#X connect 26 1 5 0;
#X connect 28 0 12 0;
#X restore 469 253 pd dbrange;
#N canvas 652 82 450 300 mtof-scale 0;
#X obj 217 76 inlet;
#X obj 217 100 / 700;
#X obj 217 198 mtof;
#X obj 217 176 * 135;
#X obj 217 221 outlet;
#X obj 217 130 pow 0.6;
#X connect 0 0 1 0;
#X connect 1 0 5 0;
#X connect 2 0 4 0;
#X connect 3 0 2 0;
#X connect 5 0 3 0;
#X restore 309 257 pd mtof-scale;
#X obj 174 416 del 0;
#X obj 309 20 r \$2-updatebng;
#X obj 469 276 change;
#X obj 309 479 change;
#X connect 0 0 47 0;
#X connect 0 0 5 0;
#X connect 1 0 48 0;
#X connect 1 0 14 0;
#X connect 2 0 11 0;
#X connect 3 0 45 0;
#X connect 4 0 9 0;
#X connect 5 0 14 0;
#X connect 5 1 14 1;
#X connect 6 0 18 1;
#X connect 7 0 1 0;
#X connect 7 1 0 0;
#X connect 8 0 7 0;
#X connect 10 0 2 1;
#X connect 11 0 3 0;
#X connect 13 0 14 2;
#X connect 15 0 12 0;
#X connect 15 0 23 1;
#X connect 15 0 24 0;
#X connect 16 0 4 0;
#X connect 16 1 18 0;
#X connect 17 0 8 1;
#X connect 18 0 9 1;
#X connect 19 0 8 0;
#X connect 20 0 22 0;
#X connect 21 0 23 0;
#X connect 22 0 21 0;
#X connect 22 1 24 1;
#X connect 23 0 24 0;
#X connect 24 0 16 0;
#X connect 25 0 30 0;
#X connect 26 0 52 0;
#X connect 27 0 15 3;
#X connect 28 0 15 1;
#X connect 29 0 25 0;
#X connect 30 0 31 0;
#X connect 31 0 15 0;
#X connect 36 0 16 1;
#X connect 38 0 37 0;
#X connect 40 0 39 0;
#X connect 41 0 27 0;
#X connect 41 1 49 0;
#X connect 41 2 38 0;
#X connect 42 0 26 0;
#X connect 42 1 49 0;
#X connect 42 2 40 0;
#X connect 44 0 43 0;
#X connect 45 0 29 0;
#X connect 45 1 49 0;
#X connect 45 2 44 0;
#X connect 46 0 36 0;
#X connect 47 0 51 0;
#X connect 48 0 42 0;
#X connect 49 0 28 0;
#X connect 50 0 2 0;
#X connect 50 0 19 0;
#X connect 51 0 41 0;
#X connect 52 0 15 2;
