#N canvas 119 249 736 306 10;
#X obj 1 2 cnv 15 380 300 empty empty empty 20 12 0 14 -233017 -66577
0;
#X obj 4 281 cnv 15 81 17 empty empty empty 20 12 0 14 -260097 -66577
0;
#N canvas 596 106 504 105 references 0;
#X obj 2 1 cnv 15 500 100 empty empty empty 20 12 0 14 -1 -66577 0
;
#X obj 3 2 cnv 15 498 98 empty empty empty 20 12 0 14 -233017 -66577
0;
#X text 21 46 help -> browser -> PureData/audio-examples/G09.pitchshift.pd
;
#X text 21 12 this abstraction is based on the rotating-tape-heads
pitch shifter from the pd-examples.;
#X restore 4 281 pd references;
#X obj 393 250 pp.out~;
#A saved;
#A saved;
#A saved;
#A saved;
#A saved;
#A saved;
#A saved;
#A saved;
#A saved;
#A saved;
#A saved;
#A saved;
#A saved;
#A saved;
#A saved;
#A saved;
#A saved;
#A saved;
#A saved;
#A saved;
#A saved;
#X obj 490 131 sig~;
#X floatatom 490 109 5 0 0 0 - - -;
#X obj 540 145 cnv 15 118 17 empty empty empty 20 12 0 14 -260097 -66577
0;
#N canvas 561 87 338 209 control-messages 0;
#X obj 57 127 outlet;
#X floatatom 57 34 5 0 0 0 - - -;
#X text 98 35 frequency shift in hz;
#X msg 101 97 window \$1;
#X floatatom 101 77 5 0 0 0 - - -;
#X text 168 99 window size in ms;
#X msg 57 54 transposition \$1;
#X connect 1 0 6 0;
#X connect 3 0 0 0;
#X connect 4 0 3 0;
#X connect 6 0 0 0;
#X restore 540 145 pd control-messages;
#X obj 449 15 osc~ 440;
#X obj 392 15 osc~ 220;
#X obj 449 36 *~ 0.5;
#X obj 507 15 osc~ 880;
#X obj 507 35 *~ 0.25;
#X obj 392 79 *~ 0.33;
#X text 524 110 transposition in cents;
#X obj 392 173 pp.pitchshift-st~ 100;
#A saved;
#A saved;
#A saved;
#A saved;
#A saved;
#A saved;
#A saved;
#A saved;
#A saved;
#A saved;
#A saved;
#A saved;
#A saved;
#A saved;
#A saved;
#A saved;
#A saved;
#A saved;
#A saved;
#A saved;
#A saved;
#X text 13 71 Inlets:;
#X text 12 128 Outlets:;
#X obj 13 14 cnv 15 10 10 empty empty pp.pitchshift-st~ 0 0 2 16 -233017
-262144 0;
#X text 13 54 Creation arguments: \$1: Window-size in ms. default:
50;
#X text 13 30 stereo version of [pp.pitchshift~];
#X text 70 70 1:(~)signal left;
#X text 70 82 2:(~)signal right;
#X text 70 93 3:(~)transposition in cents;
#X text 70 128 1:(~)transposed signal left;
#X text 70 140 2:(~)transposed signal right;
#X text 70 152 3:message;
#X text 70 105 4:control-messages;
#N canvas 740 417 503 292 message-out 0;
#X obj 30 33 inlet;
#X msg 30 60 transposition 0 \, window 100 \,;
#X connect 0 0 1 0;
#X restore 540 214 pd message-out;
#X connect 4 0 15 2;
#X connect 5 0 4 0;
#X connect 7 0 15 3;
#X connect 8 0 10 0;
#X connect 9 0 13 0;
#X connect 10 0 13 0;
#X connect 11 0 12 0;
#X connect 12 0 13 0;
#X connect 13 0 15 0;
#X connect 13 0 15 1;
#X connect 15 0 3 0;
#X connect 15 1 3 1;
#X connect 15 2 28 0;
