#N canvas 225 109 840 309 10;
#X obj 480 248 pp.out~;
#A saved;
#X obj 1 2 cnv 15 420 300 empty empty empty 20 12 0 14 #e0e0e0 #404040 0;
#X text 102 182 1:(~)signal;
#X text 44 183 Inlets:;
#X text 44 233 Outlets:;
#X obj 12 20 cnv 15 10 10 empty empty pp.pantd~ 0 0 2 16 #e0e0e0 #fcfcfc 0;
#X floatatom 554 24 5 0 0 0 - - - 0;
#X obj 480 14 noise~;
#X text 102 195 2:(~)panorama;
#X text 102 233 1:(~)signal left;
#X text 102 245 2:(~)signal right;
#X obj 554 44 osc~ 1;
#X obj 554 125 *~;
#X floatatom 569 78 5 0 100 0 - - - 0;
#X obj 569 100 / 100;
#N canvas 740 417 503 292 message-out 0;
#X obj 30 33 inlet;
#X msg 30 60 panorama 0 \, distance 0.17 \, amp 1 \,;
#X connect 0 0 1 0;
#X restore 629 196 pd message-out;
#X obj 629 126 cnv 15 118 17 empty empty empty 20 12 0 14 #fc8000 #404040 0;
#N canvas 1023 138 629 330 control-messages 0;
#X obj 54 299 outlet;
#X obj 101 266 cnv 16 87 16 empty empty empty 20 12 0 14 #fc8000 #404040 0;
#N canvas 864 246 634 307 save&recall 0;
#X obj 93 233 outlet;
#X msg 93 60 0;
#X msg 125 60 1;
#X msg 158 60 2;
#X msg 93 99 save \$1;
#X text 185 63 ...;
#X msg 207 60 20;
#X msg 149 154 0;
#X msg 181 154 1;
#X msg 214 154 2;
#X text 241 157 ...;
#X msg 263 154 20;
#X msg 149 193 recall \$1;
#X text 249 93 save & recall up to 20 presets \, presets will be saved with the parrent patch;
#X connect 1 0 4 0;
#X connect 2 0 4 0;
#X connect 3 0 4 0;
#X connect 4 0 0 0;
#X connect 6 0 4 0;
#X connect 7 0 12 0;
#X connect 8 0 12 0;
#X connect 9 0 12 0;
#X connect 11 0 12 0;
#X connect 12 0 0 0;
#X restore 101 265 pd save&recall;
#X floatatom 54 11 5 0 0 0 - - - 0;
#X msg 54 33 panorama \$1;
#X text 93 9 -1 left \, 1 right;
#X msg 91 95 distance \$1;
#X floatatom 91 72 5 0 30 0 - - - 0;
#X msg 120 183 amp \$1;
#X floatatom 120 159 5 0 1 0 - - - 0;
#X text 173 182 Amount of amplitude panning (0-1). Default is 1;
#X text 172 65 Distance in meter between two microphone capsules in an imaginary stereo recording setup (left and right output). Default setting is 0.17m as in a typical ORTF setup. This results in a default time difference (delay) between the two capsules of about 0.49 milliseconds.;
#X connect 2 0 0 0;
#X connect 3 0 4 0;
#X connect 4 0 0 0;
#X connect 6 0 0 0;
#X connect 7 0 6 0;
#X connect 8 0 0 0;
#X connect 9 0 8 0;
#X restore 629 126 pd control-messages;
#N canvas 102 154 450 300 examples 0;
#X obj 94 118 s pd;
#X obj 94 24 r \$0-example1;
#X msg 94 47 dir;
#X obj 94 70 pdcontrol;
#X msg 95 95 open 06-circular_doppler.pd \$1/Examples;
#X connect 1 0 2 0;
#X connect 2 0 3 0;
#X connect 3 0 4 0;
#X connect 4 0 0 0;
#X restore 346 280 pd examples;
#X obj 712 7 cnv 15 120 30 empty empty empty 20 12 0 14 #fc8000 #404040 0;
#X obj 718 15 bng 15 250 50 0 \$0-example1 \$0-example1r empty 17 7 0 10 #fcfcfc #000000 #000000;
#X text 737 13 open example-1;
#X text 102 257 3:message;
#X text 102 208 3:control-message;
#X obj 481 151 pp.pantd~;
#A saved empty_slot \; empty_slot \; empty_slot \; empty_slot \; empty_slot \; empty_slot \; empty_slot \; empty_slot \; empty_slot \; empty_slot \; empty_slot \; empty_slot \; empty_slot \; empty_slot \; empty_slot \; empty_slot \; empty_slot \; empty_slot \; empty_slot \; empty_slot \; empty_slot \;;
#X text 132 118 \$2: amplitude panning amount (0-1) \, default 1;
#X text 24 38 panning of a signal with amplitude and time difference;
#X text 12 102 Creation arguments: \$1: distance (meter) \, default 0.17;
#X connect 6 0 11 0;
#X connect 7 0 24 0;
#X connect 11 0 12 0;
#X connect 12 0 24 1;
#X connect 13 0 14 0;
#X connect 14 0 12 1;
#X connect 17 0 24 2;
#X connect 24 0 0 0;
#X connect 24 1 0 1;
#X connect 24 2 15 0;
