#N canvas 172 173 993 538 10;
#X obj 341 414 outlet~;
#X obj 410 414 outlet~;
#X obj 341 392 *~;
#X obj 410 394 *~;
#X obj 340 83 inlet~ sig;
#X obj 465 54 inlet~ angle;
#X obj 103 115 hsl 105 15 -1 1 0 0 \$0-gui \$0-guir Panorama 3 8 2
10 -233017 -1 -1 5200 1;
#X obj 251 115 hsl 2 8 0 1 0 0 \$0-gui \$0-guir empty 3 8 2 10 -233017
-228856 -1 0 1;
#X obj 210 115 nbx 5 15 -1 1 0 0 \$0-pan \$0-panr empty 0 -8 2 10 -228856
-1 -1 0 256;
#X msg 164 157 set \$1;
#X obj 467 140 +~;
#X obj 557 39 r \$0-pan;
#X obj 557 103 sig~;
#X obj 557 124 lop~ 20;
#X obj 41 56 loadbang;
#X msg 41 77 0;
#X obj 673 417 outlet;
#X obj 680 58 inlet;
#X obj 673 389 t b a;
#X text 771 473 philipp schmalfuß \, 2018;
#X obj 557 80 + 0.5;
#X obj 557 59 * 0.5;
#X obj 466 74 *~ 0.5;
#X obj 468 168 clip~ 0 1;
#N canvas 722 513 320 230 sqrt 0;
#X obj 94 18 inlet~;
#X obj 31 168 outlet~;
#X obj 93 169 outlet~;
#X obj 31 109 sqrt~;
#X obj 94 110 sqrt~;
#X obj 30 60 sig~ 1;
#X obj 30 83 -~;
#X obj 157 39 r \$0-panlaw;
#X obj 157 85 switch~;
#X obj 239 46 loadbang;
#X obj 157 62 != 0;
#X msg 239 69 0;
#X connect 0 0 6 1;
#X connect 0 0 4 0;
#X connect 3 0 1 0;
#X connect 4 0 2 0;
#X connect 5 0 6 0;
#X connect 6 0 3 0;
#X connect 7 0 10 0;
#X connect 9 0 11 0;
#X connect 10 0 8 0;
#X connect 11 0 8 0;
#X restore 549 247 pd sqrt;
#N canvas 573 424 481 235 cos 0;
#X obj 115 25 inlet~;
#X obj 29 175 outlet~;
#X obj 115 172 outlet~;
#X obj 30 107 cos~;
#X obj 114 115 cos~;
#X obj 116 60 *~ 0.25;
#X obj 115 93 -~ 0.25;
#X obj 30 87 -~ 0.5;
#X obj 234 44 r \$0-panlaw;
#X obj 234 67 == 0;
#X obj 234 90 switch~;
#X obj 316 51 loadbang;
#X msg 316 74 1;
#X obj 29 136 *~ -1;
#X connect 0 0 5 0;
#X connect 3 0 13 0;
#X connect 4 0 2 0;
#X connect 5 0 6 0;
#X connect 5 0 7 0;
#X connect 6 0 4 0;
#X connect 7 0 3 0;
#X connect 8 0 9 0;
#X connect 9 0 10 0;
#X connect 11 0 12 0;
#X connect 12 0 10 0;
#X connect 13 0 1 0;
#X restore 469 247 pd cos;
#N canvas 165 118 567 429 outlet-message 0;
#X obj 159 239 list trim;
#X msg 96 217 addcomma;
#X msg 26 162 set;
#X obj 159 216 list prepend add2;
#X obj 159 324 outlet;
#X obj 113 184 t b a;
#X obj 114 -7 r \$0-pan;
#X obj 179 -40 r \$0-panlaw;
#X obj 179 -17 sel 0 1;
#X obj 114 91 pack 0 s;
#X msg 179 8 cos;
#X msg 209 8 sqrt;
#X obj 179 32 symbol;
#X obj 179 55 t b s;
#X msg 113 151 panorama \$1 \, \$2;
#X obj 113 114 t b a b;
#X connect 0 0 4 0;
#X connect 1 0 4 0;
#X connect 2 0 4 0;
#X connect 3 0 0 0;
#X connect 5 0 1 0;
#X connect 5 1 3 0;
#X connect 6 0 9 0;
#X connect 7 0 8 0;
#X connect 8 0 10 0;
#X connect 8 1 11 0;
#X connect 9 0 15 0;
#X connect 10 0 12 0;
#X connect 11 0 12 0;
#X connect 12 0 13 0;
#X connect 13 0 9 0;
#X connect 13 1 9 1;
#X connect 14 0 5 0;
#X connect 15 0 4 0;
#X connect 15 1 14 0;
#X connect 15 2 2 0;
#X restore 673 367 pd outlet-message;
#N canvas 852 271 335 295 in 0;
#X obj 30 29 inlet;
#X obj 30 152 s \$0-panr;
#X obj 30 106 route panorama cos sqrt;
#X obj 105 175 s \$0-panlaw;
#X obj 105 130 t b;
#X msg 105 151 0;
#X obj 136 131 t b;
#X msg 136 152 1;
#X obj 120 16 loadbang;
#X obj 120 83 list trim;
#X obj 120 60 list;
#X obj 120 38 symbol \$1;
#X connect 0 0 2 0;
#X connect 2 0 1 0;
#X connect 2 1 4 0;
#X connect 2 2 6 0;
#X connect 4 0 5 0;
#X connect 5 0 3 0;
#X connect 6 0 7 0;
#X connect 7 0 3 0;
#X connect 8 0 11 0;
#X connect 9 0 2 0;
#X connect 10 0 9 0;
#X connect 11 0 10 0;
#X restore 680 83 pd in;
#X connect 2 0 0 0;
#X connect 3 0 1 0;
#X connect 4 0 2 0;
#X connect 4 0 3 0;
#X connect 5 0 22 0;
#X connect 6 0 8 0;
#X connect 8 0 9 0;
#X connect 9 0 6 0;
#X connect 10 0 23 0;
#X connect 11 0 21 0;
#X connect 12 0 13 0;
#X connect 13 0 10 1;
#X connect 14 0 15 0;
#X connect 15 0 6 0;
#X connect 17 0 27 0;
#X connect 18 0 16 0;
#X connect 18 1 16 0;
#X connect 20 0 12 0;
#X connect 21 0 20 0;
#X connect 22 0 10 0;
#X connect 23 0 24 0;
#X connect 23 0 25 0;
#X connect 24 0 2 1;
#X connect 24 1 3 1;
#X connect 25 0 2 1;
#X connect 25 1 3 1;
#X connect 26 0 18 0;
#X coords 0 -1 1 1 155 33 1 100 100;
