#N canvas 168 66 1195 699 10;
#X obj 250 316 tgl 21 0 \$0-recguitgl \$0-recguitglr empty 0 -7 2 10
-228856 -228856 -86853 0 1;
#X obj 257 321 cnv 1 1 12 empty \$0-recguicnv empty 20 12 0 14 -128992
-262144 0;
#X obj 263 321 cnv 1 1 12 empty \$0-recguicnv empty 20 12 0 14 -128992
-262144 0;
#X obj 264 322 cnv 1 1 10 empty \$0-recguicnv empty 20 12 0 14 -128992
-262144 0;
#X obj 265 323 cnv 1 1 8 empty \$0-recguicnv empty 20 12 0 14 -128992
-262144 0;
#X obj 256 322 cnv 1 1 10 empty \$0-recguicnv empty 20 12 0 14 -128992
-262144 0;
#X obj 255 323 cnv 1 1 8 empty \$0-recguicnv empty 20 12 0 14 -128992
-262144 0;
#X obj 254 325 cnv 1 1 4 empty \$0-recguicnv empty 20 12 0 14 -128992
-262144 0;
#X obj 266 325 cnv 1 1 4 empty \$0-recguicnv empty 20 12 0 14 -128992
-262144 0;
#X obj 261 320 cnv 1 1 14 empty \$0-recguicnv empty 20 12 0 14 -128992
-262144 0;
#X obj 259 320 cnv 1 1 14 empty \$0-recguicnv empty 20 12 0 14 -128992
-262144 0;
#X obj 301 50 namecanvas \$0-recordcnv;
#X obj 480 51 inlet;
#N canvas 3 52 1363 719 stuff 0;
#X obj 303 144 s \$0-recguicnv;
#X msg 322 99 color 13;
#X msg 333 123 color 11;
#X obj 291 69 sel 1 0;
#X obj 292 47 r \$0-recguitgl;
#X obj 270 218 / 60;
#X obj 270 238 i;
#X obj 109 202 mod 60;
#X obj 136 245 < 10;
#X obj 79 326 makefilename 0%d;
#X obj 109 226 t f f;
#X obj 54 266 list prepend;
#X obj 54 285 route 0 1;
#X obj 53 305 makefilename %d;
#X obj 113 174 t f f;
#X obj 81 466 s \$0-filelength;
#X obj 81 414 pack s s;
#X msg 81 436 label \$2:\$1;
#X obj 297 281 < 10;
#X obj 240 362 makefilename 0%d;
#X obj 270 262 t f f;
#X obj 215 302 list prepend;
#X obj 215 321 route 0 1;
#X obj 214 341 makefilename %d;
#X obj 114 67 t f f;
#X obj 114 101 metro 1000;
#X obj 115 42 r \$0-recguitgl;
#X obj 114 146 f;
#X obj 151 158 + 1;
#X obj 193 92 sel 1;
#X msg 192 112 0;
#X obj 31 137 loadbang;
#X msg 31 157 0;
#X msg 385 443 stop;
#X obj 628 258 savepanel;
#X obj 385 269 r \$0-recguitgl;
#X msg 771 539 label \$1;
#X obj 785 493 loadbang;
#X obj 628 167 r \$0-open;
#X obj 385 299 sel 0 1;
#X obj 385 669 outlet;
#N canvas 154 63 614 416 create 0;
#X obj 121 45 f \$1;
#X obj 161 177 until;
#X obj 161 206 f;
#X obj 189 213 + 1;
#X obj 296 565 s \$0-recordcnv;
#X msg 305 371 obj 200 200 writesf~ \$1;
#X obj 147 436 pack;
#X obj 147 238 t f f f;
#X obj 121 -5 r _initbang;
#X obj 121 21 spigot 1;
#X msg 335 86 0;
#X obj 119 110 sel 0;
#X msg 89 129 1;
#X obj 185 62 bng 15 250 50 0 empty empty empty 17 7 0 10 -262144 -1
-1;
#X msg 205 189 0;
#X obj 339 259 f \$1;
#X obj 229 299 -;
#X obj 339 282 * 50;
#X obj 229 324 + 320;
#X msg 229 345 obj \$1 120 inlet~;
#X obj 136 151 t bang float float bang;
#X obj 147 378 -;
#X obj 147 355 swap;
#X obj 147 320 + 1;
#X obj 120 87 min 64;
#X obj 120 67 max 0;
#X obj 229 280 * -1;
#X obj 229 260 * 50;
#X obj 206 419 + 18;
#X msg 147 459 connect \$2 0 17 \$1;
#X msg 115 502 connect 13 0 17 0;
#X connect 0 0 25 0;
#X connect 1 0 2 0;
#X connect 2 0 3 0;
#X connect 2 0 7 0;
#X connect 3 0 2 1;
#X connect 5 0 4 0;
#X connect 6 0 29 0;
#X connect 7 0 23 0;
#X connect 7 1 28 0;
#X connect 7 2 27 0;
#X connect 8 0 9 0;
#X connect 9 0 0 0;
#X connect 10 0 9 1;
#X connect 11 0 12 0;
#X connect 11 1 20 0;
#X connect 12 0 20 0;
#X connect 13 0 0 0;
#X connect 14 0 2 1;
#X connect 15 0 17 0;
#X connect 16 0 18 0;
#X connect 17 0 16 1;
#X connect 18 0 19 0;
#X connect 19 0 4 0;
#X connect 20 0 30 0;
#X connect 20 1 1 0;
#X connect 20 2 5 0;
#X connect 20 2 22 1;
#X connect 20 3 10 0;
#X connect 20 3 15 0;
#X connect 21 0 6 0;
#X connect 22 0 21 0;
#X connect 22 1 21 1;
#X connect 23 0 22 0;
#X connect 24 0 11 0;
#X connect 25 0 24 0;
#X connect 26 0 16 0;
#X connect 27 0 26 0;
#X connect 28 0 6 1;
#X connect 29 0 4 0;
#X connect 30 0 4 0;
#X restore 620 35 pd create;
#X obj 450 39 inlet;
#X obj 450 88 t b;
#X obj 450 110 s \$0-open;
#X msg 519 91 1;
#X msg 552 91 0;
#X obj 519 119 s \$0-recguitglr;
#N canvas 0 50 573 452 filename 0;
#N canvas 0 50 450 300 listget 0;
#X obj 153 146 list split;
#X obj 210 193 list length;
#X obj 153 170 t l l;
#X obj 153 237 list split;
#X obj 210 216 - 1;
#X obj 151 116 list;
#X obj 319 37 inlet list;
#X obj 181 266 outlet element;
#X obj 143 24 inlet n;
#X obj 152 54 t b f;
#X obj 220 121 max 1;
#X connect 0 0 2 0;
#X connect 1 0 4 0;
#X connect 2 0 3 0;
#X connect 2 1 1 0;
#X connect 3 1 7 0;
#X connect 4 0 3 1;
#X connect 5 0 0 0;
#X connect 6 0 5 1;
#X connect 8 0 9 0;
#X connect 9 0 5 0;
#X connect 9 1 10 0;
#X connect 10 0 0 1;
#X restore 163 237 pd listget;
#X obj 155 67 list fromsymbol;
#X obj 155 89 trigger list list bang;
#X obj 155 111 list length;
#X obj 155 167 until;
#X obj 155 189 f;
#X obj 187 201 - 1;
#X obj 163 259 t f f;
#X obj 155 134 t f f;
#X obj 215 303 t l;
#X obj 246 348 list;
#X obj 319 287 sel;
#X obj 319 309 t b b;
#X obj 246 370 list tosymbol;
#X obj 337 221 loadbang;
#X obj 337 243 symbol /;
#X obj 337 265 list fromsymbol;
#X obj 155 45 inlet symbol path;
#X obj 246 392 outlet symbol filename;
#X obj 163 294 list;
#X connect 0 0 7 0;
#X connect 1 0 2 0;
#X connect 2 0 3 0;
#X connect 2 1 0 1;
#X connect 2 2 19 1;
#X connect 3 0 8 0;
#X connect 4 0 5 0;
#X connect 5 0 6 0;
#X connect 5 0 0 0;
#X connect 6 0 5 1;
#X connect 7 0 19 0;
#X connect 7 1 11 0;
#X connect 8 0 4 0;
#X connect 8 1 5 1;
#X connect 9 0 19 1;
#X connect 10 0 13 0;
#X connect 11 0 12 0;
#X connect 12 0 10 0;
#X connect 12 1 4 1;
#X connect 13 0 18 0;
#X connect 14 0 15 0;
#X connect 15 0 16 0;
#X connect 16 0 11 1;
#X connect 17 0 1 0;
#X connect 19 0 9 0;
#X connect 19 0 10 1;
#X restore 771 454 pd filename;
#X obj 784 514 symbol empty...;
#X obj 608 369 symbol;
#X msg 609 438 set \$1_%d;
#X obj 603 463 makefilename;
#X obj 608 391 t b s;
#X obj 574 438 + 1;
#X obj 574 416 f;
#X msg 573 378 0;
#X obj 615 346 t b s;
#X obj 628 192 b;
#X obj 771 561 s \$0-openr;
#X msg 823 252 color 0 0;
#X msg 763 339 color 10 10;
#X obj 823 363 s \$0-openr;
#X obj 831 383 s \$0-filelength;
#X obj 628 214 t b b;
#X obj 763 315 del 250;
#X obj 428 622 list prepend 2;
#X msg 427 647 open -bytes \$1 \$2 \, start;
#X obj 554 546 f \$2;
#X obj 525 570 sel 16 24 32;
#X msg 523 591 2;
#X msg 553 602 3;
#X msg 591 611 4;
#X obj 554 526 loadbang;
#X obj 450 66 route save_as start stop bitsize;
#X connect 1 0 0 0;
#X connect 2 0 0 0;
#X connect 3 0 1 0;
#X connect 3 1 2 0;
#X connect 4 0 3 0;
#X connect 5 0 6 0;
#X connect 6 0 20 0;
#X connect 7 0 10 0;
#X connect 8 0 11 1;
#X connect 9 0 16 0;
#X connect 10 0 11 0;
#X connect 10 1 8 0;
#X connect 11 0 12 0;
#X connect 12 0 13 0;
#X connect 12 1 9 0;
#X connect 13 0 16 0;
#X connect 14 0 7 0;
#X connect 14 1 5 0;
#X connect 16 0 17 0;
#X connect 17 0 15 0;
#X connect 18 0 21 1;
#X connect 19 0 16 1;
#X connect 20 0 21 0;
#X connect 20 1 18 0;
#X connect 21 0 22 0;
#X connect 22 0 23 0;
#X connect 22 1 19 0;
#X connect 23 0 16 1;
#X connect 24 0 25 0;
#X connect 24 1 29 0;
#X connect 25 0 27 0;
#X connect 26 0 24 0;
#X connect 27 0 28 0;
#X connect 27 0 14 0;
#X connect 28 0 27 1;
#X connect 29 0 30 0;
#X connect 30 0 27 1;
#X connect 31 0 32 0;
#X connect 32 0 14 0;
#X connect 33 0 40 0;
#X connect 34 0 48 0;
#X connect 34 0 57 0;
#X connect 35 0 39 0;
#X connect 36 0 59 0;
#X connect 37 0 49 0;
#X connect 38 0 58 0;
#X connect 39 0 33 0;
#X connect 39 1 50 0;
#X connect 42 0 74 0;
#X connect 43 0 44 0;
#X connect 45 0 47 0;
#X connect 46 0 47 0;
#X connect 48 0 36 0;
#X connect 49 0 36 0;
#X connect 50 0 53 0;
#X connect 51 0 52 0;
#X connect 52 0 48 0;
#X connect 52 0 66 0;
#X connect 53 0 55 0;
#X connect 53 1 51 0;
#X connect 54 0 55 1;
#X connect 54 0 52 0;
#X connect 55 0 54 0;
#X connect 56 0 55 1;
#X connect 57 0 56 0;
#X connect 57 1 50 1;
#X connect 58 0 64 0;
#X connect 60 0 62 0;
#X connect 60 0 63 0;
#X connect 61 0 62 0;
#X connect 61 0 63 0;
#X connect 64 0 34 0;
#X connect 64 1 60 0;
#X connect 64 1 65 0;
#X connect 65 0 61 0;
#X connect 66 0 67 0;
#X connect 67 0 40 0;
#X connect 68 0 69 0;
#X connect 69 0 70 0;
#X connect 69 1 71 0;
#X connect 69 2 72 0;
#X connect 70 0 66 1;
#X connect 71 0 66 1;
#X connect 72 0 66 1;
#X connect 73 0 68 0;
#X connect 74 0 43 0;
#X connect 74 1 45 0;
#X connect 74 2 46 0;
#X connect 74 3 69 0;
#X restore 480 84 pd stuff;
#X obj 274 316 hsl 154 21 0 127 0 0 \$0-open \$0-openr empty... 3 6
2 10 -233017 -233017 -1 0 1;
#X obj 277 330 cnv 5 5 5 empty \$0-filelength 00:00 0 2 2 10 -233017
-1 0;
#X text 134 402 initbang-hack: [r _initbang] (in pd stuff -> pd create)
+ edit line: _initbang bang \; will get lost if abstraction is saved
in pd again. tested with pd 0.48 and pd 0.43.4-extended.;
#X connect 12 0 13 0;
#X coords 0 -1 1 1 180 37 1 250 300;
_initbang bang;
