#N canvas 158 351 988 585 10;
#X obj 103 115 hsl 150 15 0 127 0 0 \$0-visbng \$0-visbngr empty 50
8 2 10 -233017 -233017 -1 0 1;
#X obj 537 349 line~;
#X obj 537 323 pack 0 30;
#X obj 454 390 *~;
#X obj 521 391 *~;
#X obj 302 458 outlet~;
#X obj 373 460 outlet~;
#N canvas 0 52 1363 716 doit 0;
#X obj 250 673 *~;
#X obj 373 683 *~;
#X obj 299 676 *~;
#X obj 337 679 *~;
#X obj 60 479 lop~;
#X obj 59 508 -~;
#X obj 58 576 *~;
#X obj 47 604 +~;
#X obj 107 479 lop~;
#X obj 108 511 -~;
#X obj 108 579 *~;
#X obj 98 603 +~;
#X obj 156 481 lop~;
#X obj 156 508 -~;
#X obj 156 582 *~;
#X obj 147 607 +~;
#X obj 208 481 lop~;
#X obj 207 508 -~;
#X obj 206 586 *~;
#X obj 199 611 +~;
#X obj 47 661 *~;
#X obj 201 670 *~;
#X obj 99 667 *~;
#X obj 147 667 *~;
#X obj 229 455 r \$0-lop;
#X obj 214 556 line~;
#X obj 556 694 *~;
#X obj 663 696 *~;
#X obj 592 695 *~;
#X obj 627 696 *~;
#X obj 409 686 *~;
#X obj 520 693 *~;
#X obj 446 689 *~;
#X obj 483 692 *~;
#X obj 57 633 inlet~;
#X obj 119 633 inlet~;
#X obj 101 727 +~;
#X obj 137 727 -~;
#X obj 173 727 +~;
#X obj 209 727 -~;
#X obj 246 727 +~;
#X obj 282 727 -~;
#X obj 318 727 +~;
#X obj 354 727 -~;
#X obj 391 727 +~;
#X obj 427 727 -~;
#X obj 463 727 +~;
#X obj 499 727 -~;
#X obj 536 727 +~;
#X obj 572 727 -~;
#X obj 608 727 +~;
#X obj 644 727 -~;
#X obj 101 761 +~;
#X obj 209 761 -~;
#X obj 137 761 +~;
#X obj 173 761 -~;
#X obj 246 761 +~;
#X obj 354 761 -~;
#X obj 282 761 +~;
#X obj 318 761 -~;
#X obj 391 761 +~;
#X obj 499 761 -~;
#X obj 427 761 +~;
#X obj 463 761 -~;
#X obj 536 761 +~;
#X obj 644 761 -~;
#X obj 572 761 +~;
#X obj 608 761 -~;
#X obj 101 805 +~;
#X obj 137 805 +~;
#X obj 354 805 -~;
#X obj 318 805 -~;
#X obj 173 805 +~;
#X obj 209 805 +~;
#X obj 246 805 -~;
#X obj 282 805 -~;
#X obj 392 805 +~;
#X obj 428 805 +~;
#X obj 645 805 -~;
#X obj 609 805 -~;
#X obj 464 805 +~;
#X obj 500 805 +~;
#X obj 537 805 -~;
#X obj 573 805 -~;
#X obj 102 862 +~;
#X obj 138 862 +~;
#X obj 501 862 -~;
#X obj 465 862 -~;
#X obj 174 862 +~;
#X obj 210 862 +~;
#X obj 393 862 -~;
#X obj 429 862 -~;
#X obj 247 862 +~;
#X obj 283 862 +~;
#X obj 319 862 +~;
#X obj 355 862 +~;
#X obj 646 862 -~;
#X obj 610 862 -~;
#X obj 538 862 -~;
#X obj 574 862 -~;
#X obj 828 907 outlet~;
#X obj 898 907 outlet~;
#X obj 103 1048 delwrite~ \$0-del1 200;
#X obj 138 1024 delwrite~ \$0-del2 200;
#X obj 173 1002 delwrite~ \$0-del3 200;
#X obj 211 980 delwrite~ \$0-del4 200;
#X obj 247 959 delwrite~ \$0-del5 200;
#X obj 284 937 delwrite~ \$0-del6 200;
#X obj 319 915 delwrite~ \$0-del7 200;
#X obj 355 893 delwrite~ \$0-del8 200;
#X obj 393 1063 delwrite~ \$0-del9 200;
#X obj 430 1042 delwrite~ \$0-del10 200;
#X obj 466 1021 delwrite~ \$0-del11 200;
#X obj 502 1000 delwrite~ \$0-del12 200;
#X obj 538 979 delwrite~ \$0-del13 200;
#X obj 574 958 delwrite~ \$0-del14 200;
#X obj 611 937 delwrite~ \$0-del15 200;
#X obj 646 916 delwrite~ \$0-del16 200;
#X obj 48 20 sig~ 0;
#X obj 48 66 lop~ 20;
#X obj 49 180 delread4~ \$0-del1 10;
#X obj 100 201 delread4~ \$0-del2 11.6356;
#X obj 149 222 delread4~ \$0-del3 13.4567;
#X obj 203 243 delread4~ \$0-del4 16.7345;
#X obj 250 266 delread4~ \$0-del5 20.1862;
#X obj 299 287 delread4~ \$0-del6 25.7417;
#X obj 336 308 delread4~ \$0-del7 31.4693;
#X obj 373 329 delread4~ \$0-del8 38.2944;
#X obj 408 350 delread4~ \$0-del9 46.6838;
#X obj 446 371 delread4~ \$0-del10 55.4567;
#X obj 483 392 delread4~ \$0-del11 65.1755;
#X obj 520 413 delread4~ \$0-del12 76.8243;
#X obj 556 435 delread4~ \$0-del13 88.5623;
#X obj 593 455 delread4~ \$0-del14 101.278;
#X obj 627 476 delread4~ \$0-del15 115.397;
#X obj 664 497 delread4~ \$0-del16 130.502;
#X obj 106 112 lop~ 20;
#X obj 175 65 lop~ 20;
#X obj 233 111 lop~ 20;
#X obj 300 63 lop~ 20;
#X obj 358 109 lop~ 20;
#X obj 427 62 lop~ 20;
#X obj 485 108 lop~ 20;
#X obj 599 68 lop~ 20;
#X obj 657 114 lop~ 20;
#X obj 726 67 lop~ 20;
#X obj 784 113 lop~ 20;
#X obj 851 65 lop~ 20;
#X obj 909 111 lop~ 20;
#X obj 978 64 lop~ 20;
#X obj 1036 110 lop~ 20;
#X obj 106 66 sig~ 1;
#X obj 175 19 sig~ 2;
#X obj 233 65 sig~ 3;
#X obj 300 17 sig~ 4;
#X obj 358 64 sig~ 5;
#X obj 427 16 sig~ 6;
#X obj 485 62 sig~ 7;
#X obj 599 22 sig~ 8;
#X obj 657 68 sig~ 9;
#X obj 726 21 sig~ 10;
#X obj 784 67 sig~ 11;
#X obj 851 19 sig~ 12;
#X obj 909 65 sig~ 13;
#X obj 978 18 sig~ 14;
#X obj 1036 64 sig~ 15;
#X obj 686 641 inlet~;
#X obj 48 43 tabread~ \$0-tail;
#X obj 106 89 tabread~ \$0-tail;
#X obj 175 42 tabread~ \$0-tail;
#X obj 233 88 tabread~ \$0-tail;
#X obj 300 40 tabread~ \$0-tail;
#X obj 358 86 tabread~ \$0-tail;
#X obj 427 39 tabread~ \$0-tail;
#X obj 485 85 tabread~ \$0-tail;
#X obj 599 45 tabread~ \$0-tail;
#X obj 726 44 tabread~ \$0-tail;
#X obj 851 42 tabread~ \$0-tail;
#X obj 978 41 tabread~ \$0-tail;
#X obj 657 91 tabread~ \$0-tail;
#X obj 784 90 tabread~ \$0-tail;
#X obj 909 88 tabread~ \$0-tail;
#X obj 1036 87 tabread~ \$0-tail;
#X obj 60 350 -~;
#X obj 59 413 *~;
#X obj 48 438 +~;
#X obj 109 355 -~;
#X obj 109 416 *~;
#X obj 99 437 +~;
#X obj 157 352 -~;
#X obj 157 419 *~;
#X obj 148 441 +~;
#X obj 208 353 -~;
#X obj 207 420 *~;
#X obj 200 440 +~;
#X obj 222 396 line~;
#X obj 230 300 r \$0-hip;
#X obj 222 377 r \$0-hdamp;
#X obj 61 321 hip~;
#X obj 108 323 hip~;
#X obj 157 325 hip~;
#X obj 209 326 hip~;
#X obj 214 531 r \$0-ldamp;
#X connect 0 0 40 0;
#X connect 0 0 41 0;
#X connect 1 0 42 1;
#X connect 1 0 43 1;
#X connect 2 0 40 1;
#X connect 2 0 41 1;
#X connect 3 0 42 0;
#X connect 3 0 43 0;
#X connect 4 0 5 0;
#X connect 5 0 6 0;
#X connect 6 0 7 1;
#X connect 7 0 20 0;
#X connect 8 0 9 0;
#X connect 9 0 10 0;
#X connect 10 0 11 1;
#X connect 11 0 22 0;
#X connect 12 0 13 0;
#X connect 13 0 14 0;
#X connect 14 0 15 1;
#X connect 15 0 23 0;
#X connect 16 0 17 0;
#X connect 17 0 18 0;
#X connect 18 0 19 1;
#X connect 19 0 21 0;
#X connect 20 0 36 0;
#X connect 20 0 37 0;
#X connect 21 0 38 1;
#X connect 21 0 39 1;
#X connect 22 0 37 1;
#X connect 22 0 36 1;
#X connect 23 0 38 0;
#X connect 23 0 39 0;
#X connect 24 0 16 1;
#X connect 24 0 12 1;
#X connect 24 0 8 1;
#X connect 24 0 4 1;
#X connect 25 0 18 1;
#X connect 25 0 14 1;
#X connect 25 0 10 1;
#X connect 25 0 6 1;
#X connect 26 0 48 0;
#X connect 26 0 49 0;
#X connect 27 0 50 1;
#X connect 27 0 51 1;
#X connect 28 0 48 1;
#X connect 28 0 49 1;
#X connect 29 0 50 0;
#X connect 29 0 51 0;
#X connect 30 0 44 0;
#X connect 30 0 45 0;
#X connect 31 0 46 1;
#X connect 31 0 47 1;
#X connect 32 0 44 1;
#X connect 32 0 45 1;
#X connect 33 0 46 0;
#X connect 33 0 47 0;
#X connect 34 0 20 0;
#X connect 35 0 22 0;
#X connect 36 0 52 0;
#X connect 36 0 55 0;
#X connect 37 0 54 0;
#X connect 37 0 53 0;
#X connect 38 0 52 1;
#X connect 38 0 55 1;
#X connect 39 0 54 1;
#X connect 39 0 53 1;
#X connect 40 0 56 0;
#X connect 40 0 59 0;
#X connect 41 0 58 0;
#X connect 41 0 57 0;
#X connect 42 0 56 1;
#X connect 42 0 59 1;
#X connect 43 0 58 1;
#X connect 43 0 57 1;
#X connect 44 0 60 0;
#X connect 44 0 63 0;
#X connect 45 0 62 0;
#X connect 45 0 61 0;
#X connect 46 0 60 1;
#X connect 46 0 63 1;
#X connect 47 0 62 1;
#X connect 47 0 61 1;
#X connect 48 0 64 0;
#X connect 48 0 67 0;
#X connect 49 0 66 0;
#X connect 49 0 65 0;
#X connect 50 0 64 1;
#X connect 50 0 67 1;
#X connect 51 0 66 1;
#X connect 51 0 65 1;
#X connect 52 0 68 0;
#X connect 52 0 74 0;
#X connect 53 0 73 0;
#X connect 53 0 70 0;
#X connect 54 0 69 0;
#X connect 54 0 75 0;
#X connect 55 0 72 0;
#X connect 55 0 71 0;
#X connect 56 0 68 1;
#X connect 56 0 74 1;
#X connect 57 0 73 1;
#X connect 57 0 70 1;
#X connect 58 0 69 1;
#X connect 58 0 75 1;
#X connect 59 0 72 1;
#X connect 59 0 71 1;
#X connect 60 0 76 0;
#X connect 60 0 82 0;
#X connect 61 0 81 0;
#X connect 61 0 78 0;
#X connect 62 0 77 0;
#X connect 62 0 83 0;
#X connect 63 0 80 0;
#X connect 63 0 79 0;
#X connect 64 0 76 1;
#X connect 64 0 82 1;
#X connect 65 0 81 1;
#X connect 65 0 78 1;
#X connect 66 0 77 1;
#X connect 66 0 83 1;
#X connect 67 0 80 1;
#X connect 67 0 79 1;
#X connect 68 0 84 0;
#X connect 68 0 90 0;
#X connect 69 0 85 0;
#X connect 69 0 91 0;
#X connect 70 0 95 0;
#X connect 70 0 96 0;
#X connect 71 0 94 0;
#X connect 71 0 97 0;
#X connect 72 0 88 0;
#X connect 72 0 87 0;
#X connect 73 0 89 0;
#X connect 73 0 86 0;
#X connect 74 0 92 0;
#X connect 74 0 98 0;
#X connect 75 0 93 0;
#X connect 75 0 99 0;
#X connect 76 0 90 1;
#X connect 76 0 84 1;
#X connect 77 0 91 1;
#X connect 77 0 85 1;
#X connect 78 0 96 1;
#X connect 78 0 95 1;
#X connect 79 0 97 1;
#X connect 79 0 94 1;
#X connect 80 0 87 1;
#X connect 80 0 88 1;
#X connect 81 0 86 1;
#X connect 81 0 89 1;
#X connect 82 0 98 1;
#X connect 82 0 92 1;
#X connect 83 0 99 1;
#X connect 83 0 93 1;
#X connect 84 0 102 0;
#X connect 85 0 103 0;
#X connect 86 0 113 0;
#X connect 87 0 112 0;
#X connect 88 0 104 0;
#X connect 89 0 105 0;
#X connect 90 0 110 0;
#X connect 91 0 111 0;
#X connect 92 0 106 0;
#X connect 93 0 107 0;
#X connect 94 0 108 0;
#X connect 95 0 109 0;
#X connect 96 0 101 0;
#X connect 96 0 117 0;
#X connect 97 0 100 0;
#X connect 97 0 116 0;
#X connect 98 0 114 0;
#X connect 99 0 115 0;
#X connect 118 0 167 0;
#X connect 119 0 120 0;
#X connect 120 0 198 0;
#X connect 120 0 183 1;
#X connect 120 0 185 0;
#X connect 121 0 199 0;
#X connect 121 0 186 1;
#X connect 121 0 188 0;
#X connect 122 0 189 1;
#X connect 122 0 200 0;
#X connect 122 0 191 0;
#X connect 123 0 201 0;
#X connect 123 0 192 1;
#X connect 123 0 194 0;
#X connect 124 0 0 0;
#X connect 125 0 2 0;
#X connect 126 0 3 0;
#X connect 127 0 1 0;
#X connect 128 0 30 0;
#X connect 129 0 32 0;
#X connect 130 0 33 0;
#X connect 131 0 31 0;
#X connect 132 0 26 0;
#X connect 133 0 28 0;
#X connect 134 0 29 0;
#X connect 135 0 27 0;
#X connect 136 0 121 0;
#X connect 137 0 122 0;
#X connect 138 0 123 0;
#X connect 139 0 124 0;
#X connect 140 0 125 0;
#X connect 141 0 126 0;
#X connect 142 0 127 0;
#X connect 143 0 128 0;
#X connect 144 0 129 0;
#X connect 145 0 130 0;
#X connect 146 0 131 0;
#X connect 147 0 132 0;
#X connect 148 0 133 0;
#X connect 149 0 134 0;
#X connect 150 0 135 0;
#X connect 151 0 168 0;
#X connect 152 0 169 0;
#X connect 153 0 170 0;
#X connect 154 0 171 0;
#X connect 155 0 172 0;
#X connect 156 0 173 0;
#X connect 157 0 174 0;
#X connect 158 0 175 0;
#X connect 159 0 179 0;
#X connect 160 0 176 0;
#X connect 161 0 180 0;
#X connect 162 0 177 0;
#X connect 163 0 181 0;
#X connect 164 0 178 0;
#X connect 165 0 182 0;
#X connect 166 0 2 1;
#X connect 166 0 0 1;
#X connect 166 0 3 1;
#X connect 166 0 1 1;
#X connect 166 0 21 1;
#X connect 166 0 23 1;
#X connect 166 0 22 1;
#X connect 166 0 20 1;
#X connect 166 0 30 1;
#X connect 166 0 33 1;
#X connect 166 0 31 1;
#X connect 166 0 26 1;
#X connect 166 0 28 1;
#X connect 166 0 29 1;
#X connect 166 0 27 1;
#X connect 166 0 32 1;
#X connect 167 0 119 0;
#X connect 168 0 136 0;
#X connect 169 0 137 0;
#X connect 170 0 138 0;
#X connect 171 0 139 0;
#X connect 172 0 140 0;
#X connect 173 0 141 0;
#X connect 174 0 142 0;
#X connect 175 0 143 0;
#X connect 176 0 145 0;
#X connect 177 0 147 0;
#X connect 178 0 149 0;
#X connect 179 0 144 0;
#X connect 180 0 146 0;
#X connect 181 0 148 0;
#X connect 182 0 150 0;
#X connect 183 0 184 0;
#X connect 184 0 185 1;
#X connect 185 0 5 1;
#X connect 185 0 4 0;
#X connect 185 0 7 0;
#X connect 186 0 187 0;
#X connect 187 0 188 1;
#X connect 188 0 8 0;
#X connect 188 0 9 1;
#X connect 188 0 11 0;
#X connect 189 0 190 0;
#X connect 190 0 191 1;
#X connect 191 0 13 1;
#X connect 191 0 12 0;
#X connect 191 0 15 0;
#X connect 192 0 193 0;
#X connect 193 0 194 1;
#X connect 194 0 16 0;
#X connect 194 0 17 1;
#X connect 194 0 19 0;
#X connect 195 0 193 1;
#X connect 195 0 190 1;
#X connect 195 0 187 1;
#X connect 195 0 184 1;
#X connect 196 0 198 1;
#X connect 196 0 199 1;
#X connect 196 0 200 1;
#X connect 196 0 201 1;
#X connect 197 0 195 0;
#X connect 198 0 183 0;
#X connect 199 0 186 0;
#X connect 200 0 189 0;
#X connect 201 0 192 0;
#X connect 202 0 25 0;
#X restore 456 202 pd doit;
#X obj 303 98 inlet~;
#X obj 372 96 inlet~;
#N canvas 45 146 400 576 early 0;
#X obj 84 10 inlet~;
#X obj 159 10 inlet~;
#N canvas 19 394 468 181 write1 0;
#X obj 83 25 inlet~;
#X obj 84 99 outlet~;
#X obj 116 66 delwrite~ \$0-early1 200;
#X connect 0 0 1 0;
#X connect 0 0 2 0;
#X restore 160 111 pd write1;
#N canvas 323 263 472 159 read1 0;
#X obj 77 12 inlet~;
#X obj 77 114 outlet~;
#X obj 165 36 tabread~ \$0-early;
#X obj 165 61 lop~ 20;
#X obj 77 89 delread4~ \$0-early1 1.42763;
#X obj 165 11 sig~ 1;
#X connect 2 0 3 0;
#X connect 3 0 4 0;
#X connect 4 0 1 0;
#X connect 5 0 2 0;
#X restore 160 136 pd read1;
#X obj 84 165 +~;
#X obj 138 166 -~;
#X obj 82 249 +~;
#X obj 136 250 -~;
#X obj 84 333 +~;
#X obj 138 334 -~;
#N canvas 20 395 468 181 write2 0;
#X obj 83 25 inlet~;
#X obj 84 99 outlet~;
#X obj 116 65 delwrite~ \$0-early2 200;
#X connect 0 0 1 0;
#X connect 0 0 2 0;
#X restore 158 195 pd write2;
#N canvas 322 262 472 159 read2 0;
#X obj 77 12 inlet~;
#X obj 77 119 outlet~;
#X obj 165 36 tabread~ \$0-early;
#X obj 165 61 lop~ 20;
#X obj 77 94 delread4~ \$0-early2 3.23873;
#X obj 165 11 sig~ 2;
#X connect 2 0 3 0;
#X connect 3 0 4 0;
#X connect 4 0 1 0;
#X connect 5 0 2 0;
#X restore 158 220 pd read2;
#N canvas 19 394 468 181 write3 0;
#X obj 83 25 inlet~;
#X obj 84 99 outlet~;
#X obj 116 66 delwrite~ \$0-early3 200;
#X connect 0 0 1 0;
#X connect 0 0 2 0;
#X restore 160 280 pd write3;
#N canvas 322 262 472 159 read3 0;
#X obj 77 12 inlet~;
#X obj 78 122 outlet~;
#X obj 165 36 tabread~ \$0-early;
#X obj 165 61 lop~ 20;
#X obj 78 97 delread4~ \$0-early3 5.2345;
#X obj 165 11 sig~ 3;
#X connect 2 0 3 0;
#X connect 3 0 4 0;
#X connect 4 0 1 0;
#X connect 5 0 2 0;
#X restore 160 304 pd read3;
#N canvas 20 395 468 181 write4 0;
#X obj 83 25 inlet~;
#X obj 84 99 outlet~;
#X obj 117 66 delwrite~ \$0-early4 200;
#X connect 0 0 1 0;
#X connect 0 0 2 0;
#X restore 153 364 pd write4;
#N canvas 321 261 472 159 read4 0;
#X obj 77 12 inlet~;
#X obj 78 122 outlet~;
#X obj 165 36 tabread~ \$0-early;
#X obj 165 61 lop~ 20;
#X obj 78 97 delread4~ \$0-early4 7.82312;
#X obj 165 11 sig~ 4;
#X connect 2 0 3 0;
#X connect 3 0 4 0;
#X connect 4 0 1 0;
#X connect 5 0 2 0;
#X restore 153 389 pd read4;
#X obj 84 450 outlet~;
#X obj 174 453 outlet~;
#X obj 84 425 *~ 0.3535;
#X obj 173 428 *~ 0.3535;
#N canvas 61 282 468 181 writepre 0;
#X obj 83 25 inlet~;
#X obj 84 115 outlet~;
#X obj 247 26 inlet~;
#X obj 247 118 outlet~;
#X obj 116 66 delwrite~ \$0-pre-l 200;
#X obj 280 67 delwrite~ \$0-pre-r 200;
#X connect 0 0 1 0;
#X connect 0 0 4 0;
#X connect 2 0 3 0;
#X connect 2 0 5 0;
#X restore 84 46 pd writepre;
#N canvas 323 263 472 159 readpre 0;
#X obj 77 12 inlet~;
#X obj 77 114 outlet~;
#X obj 219 -3 sig~ 0;
#X obj 219 22 tabread~ \$0-early;
#X obj 218 48 lop~ 20;
#X obj 247 118 outlet~;
#X obj 77 89 delread4~ \$0-pre-l 0;
#X obj 247 93 delread4~ \$0-pre-r 0;
#X obj 121 12 inlet~;
#X connect 2 0 3 0;
#X connect 3 0 4 0;
#X connect 4 0 6 0;
#X connect 4 0 7 0;
#X connect 6 0 1 0;
#X connect 7 0 5 0;
#X restore 84 71 pd readpre;
#X connect 0 0 20 0;
#X connect 1 0 20 1;
#X connect 2 0 3 0;
#X connect 3 0 5 1;
#X connect 3 0 4 1;
#X connect 4 0 6 0;
#X connect 4 0 7 0;
#X connect 5 0 10 0;
#X connect 6 0 8 0;
#X connect 6 0 9 0;
#X connect 7 0 12 0;
#X connect 8 0 18 0;
#X connect 9 0 14 0;
#X connect 10 0 11 0;
#X connect 11 0 7 1;
#X connect 11 0 6 1;
#X connect 12 0 13 0;
#X connect 13 0 9 1;
#X connect 13 0 8 1;
#X connect 14 0 15 0;
#X connect 15 0 19 0;
#X connect 18 0 16 0;
#X connect 19 0 17 0;
#X connect 20 0 21 0;
#X connect 20 1 21 1;
#X connect 21 0 4 0;
#X connect 21 0 5 0;
#X connect 21 1 2 0;
#X restore 456 168 pd early;
#X obj 537 300 / 100;
#X obj 303 403 *~;
#X obj 372 404 *~;
#X obj 388 352 sig~ 1;
#X obj 388 377 -~;
#X obj 537 277 r \$0-drywet;
#X obj 514 172 +~;
#X obj 514 196 clip~ 0 0.25;
#X obj 530 97 inlet~ feedback;
#N canvas 662 149 567 515 delaycurve 0;
#X msg 70 183 16;
#X obj 61 208 until;
#X obj 71 382 * 200;
#X obj 70 234 f;
#X obj 108 236 + 1;
#X msg 122 189 0;
#X obj 71 290 / 15;
#X obj 71 337 pow;
#X obj 227 74 t b f;
#X obj 70 152 t b b;
#X obj 70 81 t b f;
#X obj 71 407 + 8;
#X obj 433 78 t b f;
#X obj 71 431 clip 0 200;
#X obj 70 260 t float float;
#X obj 259 237 moses;
#X obj 291 281 + 1;
#X obj 259 294 abs;
#X obj 259 319 expr 1/$f1;
#X obj 259 270 - 1;
#X obj 259 207 / 10;
#X obj 227 40 r \$0-curve;
#X obj 433 45 r \$0-rise;
#X obj 70 45 r \$0-slope;
#X obj 71 455 tabwrite \$0-tail;
#X obj 70 127 del 0;
#X connect 0 0 1 0;
#X connect 1 0 3 0;
#X connect 2 0 11 0;
#X connect 3 0 4 0;
#X connect 3 0 14 0;
#X connect 4 0 3 1;
#X connect 5 0 3 1;
#X connect 6 0 7 0;
#X connect 7 0 2 0;
#X connect 8 0 25 0;
#X connect 8 1 20 0;
#X connect 9 0 0 0;
#X connect 9 1 5 0;
#X connect 10 0 25 0;
#X connect 10 1 2 1;
#X connect 11 0 13 0;
#X connect 12 0 25 0;
#X connect 12 1 11 1;
#X connect 13 0 24 0;
#X connect 14 0 6 0;
#X connect 14 1 24 1;
#X connect 15 0 19 0;
#X connect 15 1 16 0;
#X connect 16 0 7 1;
#X connect 17 0 18 0;
#X connect 18 0 7 1;
#X connect 19 0 17 0;
#X connect 20 0 15 0;
#X connect 21 0 8 0;
#X connect 22 0 12 0;
#X connect 23 0 10 0;
#X connect 25 0 9 0;
#X restore 740 210 pd delaycurve;
#X obj 530 122 *~ 0.01;
#N canvas 220 279 662 300 in 0;
#X obj 138 12 inlet;
#X obj 216 170 s \$0-drywetr;
#X obj 254 195 s \$0-lopr;
#X obj 225 217 s \$0-feedbackr;
#X obj 368 173 s \$0-riser;
#X obj 396 195 s \$0-curver;
#X obj 437 219 s \$0-sloper;
#X obj 138 249 array set \$0-early;
#X obj 187 276 array set \$0-tail;
#X obj 170 98 r \$0-preset;
#X obj 187 214 list;
#X obj 175 171 t b a;
#X obj 175 194 del 1;
#X obj 454 166 s \$0-widthr;
#N canvas 937 111 450 300 recall 0;
#N canvas 156 162 1004 423 recall 0;
#X obj 106 5 savestate;
#X obj 106 28 t a b;
#X obj 205 60 + 1;
#X obj 106 78 list prepend;
#X obj 106 101 list trim;
#X obj 95 275 list;
#X obj 130 275 list;
#X obj 166 275 list;
#X obj 202 275 list;
#X obj 240 275 list;
#X obj 275 275 list;
#X obj 311 275 list;
#X obj 440 380 outlet;
#X obj 30 78 r \$0-lists;
#X obj 500 43 inlet;
#X obj 345 275 list;
#X obj 380 275 list;
#X obj 416 275 list;
#X obj 453 275 list;
#X obj 490 275 list;
#X obj 525 275 list;
#X obj 561 275 list;
#X obj 594 275 list;
#X obj 630 275 list;
#X obj 667 275 list;
#X obj 704 275 list;
#X obj 739 275 list;
#X obj 775 275 list;
#X obj 106 124 route 0 1 2 3 4 5 6 7 8 9 10 11 12 13 14 15 16 17 18
19 20;
#X obj 500 121 sel 0 1 2 3 4 5 6 7 8 9 10 11 12 13 14 15 16 17 18 19
20;
#X obj 812 275 list;
#X obj 175 56 f;
#X connect 0 0 1 0;
#X connect 1 0 3 0;
#X connect 1 1 31 0;
#X connect 2 0 31 1;
#X connect 3 0 4 0;
#X connect 4 0 28 0;
#X connect 5 0 12 0;
#X connect 6 0 12 0;
#X connect 7 0 12 0;
#X connect 8 0 12 0;
#X connect 9 0 12 0;
#X connect 10 0 12 0;
#X connect 11 0 12 0;
#X connect 13 0 28 0;
#X connect 14 0 29 0;
#X connect 15 0 12 0;
#X connect 16 0 12 0;
#X connect 17 0 12 0;
#X connect 18 0 12 0;
#X connect 19 0 12 0;
#X connect 20 0 12 0;
#X connect 21 0 12 0;
#X connect 22 0 12 0;
#X connect 23 0 12 0;
#X connect 24 0 12 0;
#X connect 25 0 12 0;
#X connect 26 0 12 0;
#X connect 27 0 12 0;
#X connect 28 0 5 1;
#X connect 28 1 6 1;
#X connect 28 2 7 1;
#X connect 28 3 8 1;
#X connect 28 4 9 1;
#X connect 28 5 10 1;
#X connect 28 6 11 1;
#X connect 28 7 15 1;
#X connect 28 8 16 1;
#X connect 28 9 17 1;
#X connect 28 10 18 1;
#X connect 28 11 19 1;
#X connect 28 12 20 1;
#X connect 28 13 21 1;
#X connect 28 14 22 1;
#X connect 28 15 23 1;
#X connect 28 16 24 1;
#X connect 28 17 25 1;
#X connect 28 18 26 1;
#X connect 28 19 27 1;
#X connect 28 20 30 1;
#X connect 29 0 5 0;
#X connect 29 1 6 0;
#X connect 29 2 7 0;
#X connect 29 3 8 0;
#X connect 29 4 9 0;
#X connect 29 5 10 0;
#X connect 29 6 11 0;
#X connect 29 7 15 0;
#X connect 29 8 16 0;
#X connect 29 9 17 0;
#X connect 29 10 18 0;
#X connect 29 11 19 0;
#X connect 29 12 20 0;
#X connect 29 13 21 0;
#X connect 29 14 22 0;
#X connect 29 15 23 0;
#X connect 29 16 24 0;
#X connect 29 17 25 0;
#X connect 29 18 26 0;
#X connect 29 19 27 0;
#X connect 29 20 30 0;
#X connect 30 0 12 0;
#X connect 31 0 2 0;
#X connect 31 0 3 1;
#X restore 128 85 pd recall;
#X obj 128 130 outlet;
#N canvas 3 52 450 600 listsplit 0;
#X obj 158 23 inlet;
#X obj 220 87 list length;
#X obj 220 113 until;
#X obj 182 150 f;
#X obj 278 150 + 1;
#X msg 265 111 0;
#X obj 182 226 list store;
#X msg 182 202 get \$1 1;
#X obj 154 367 list split;
#X obj 222 342 f;
#X obj 154 334 list;
#X obj 98 124 list;
#X obj 182 389 list split 1;
#X obj 154 274 t bang bang bang;
#X obj 182 179 t f f;
#X obj 158 48 t l l l b;
#X obj 154 473 outlet;
#X obj 154 440 list trim;
#X obj 163 248 sel |;
#X connect 0 0 15 0;
#X connect 1 0 2 0;
#X connect 2 0 3 0;
#X connect 3 0 4 0;
#X connect 3 0 14 0;
#X connect 4 0 3 1;
#X connect 5 0 3 1;
#X connect 6 0 18 0;
#X connect 7 0 6 0;
#X connect 8 0 17 0;
#X connect 8 1 12 0;
#X connect 9 0 8 1;
#X connect 10 0 8 0;
#X connect 11 0 15 0;
#X connect 12 1 11 0;
#X connect 13 0 10 0;
#X connect 13 1 9 0;
#X connect 13 2 2 1;
#X connect 14 0 7 0;
#X connect 14 1 9 1;
#X connect 15 0 1 0;
#X connect 15 1 10 1;
#X connect 15 2 6 1;
#X connect 15 3 5 0;
#X connect 17 0 16 0;
#X connect 18 0 13 0;
#X restore 128 107 pd listsplit;
#X obj 128 25 r \$0-recall;
#X obj 128 55 pipe 1;
#X connect 0 0 2 0;
#X connect 2 0 1 0;
#X connect 3 0 4 0;
#X connect 4 0 0 0;
#X restore 166 65 pd recall;
#N canvas 698 546 200 251 route 0;
#X obj 20 20 inlet;
#X obj 30 60 route save recall;
#X obj 30 85 route float;
#X obj 97 111 route float;
#X obj 30 136 s \$0-save;
#X obj 30 108 i;
#X obj 98 133 i;
#X obj 98 161 s \$0-recall;
#X connect 0 0 1 0;
#X connect 1 0 2 0;
#X connect 1 1 3 0;
#X connect 2 0 5 0;
#X connect 3 0 6 0;
#X connect 5 0 4 0;
#X connect 6 0 7 0;
#X restore 166 40 pd route save-recall;
#X obj 316 218 s \$0-hf-dampingr;
#X obj 138 123 route early tail dry/wet feedback lop-frequency hip-frequency
hf-damping lf-damping rise curve slope width;
#X obj 280 241 s \$0-hipr;
#X obj 349 244 s \$0-lf-dampingr;
#X connect 0 0 15 0;
#X connect 0 0 17 0;
#X connect 9 0 17 0;
#X connect 10 0 8 0;
#X connect 11 0 12 0;
#X connect 11 1 10 1;
#X connect 12 0 10 0;
#X connect 14 0 17 0;
#X connect 17 0 7 0;
#X connect 17 1 11 0;
#X connect 17 2 1 0;
#X connect 17 3 3 0;
#X connect 17 4 2 0;
#X connect 17 5 18 0;
#X connect 17 6 16 0;
#X connect 17 7 19 0;
#X connect 17 8 4 0;
#X connect 17 9 5 0;
#X connect 17 10 6 0;
#X connect 17 11 13 0;
#X restore 743 167 pd in;
#N canvas 50 60 475 205 \$0-rev~ 1;
#N canvas 423 168 866 485 mask 0;
#X obj 100 100 cnv 15 459 189 empty empty empty 2 2 0 14 -262144 -66577
0;
#X obj 218 179 nbx 4 12 0 100 0 0 \$0-hf-damping \$0-hf-dampingr %
41 7 2 10 -262144 -1 -1 50 256;
#X obj 112 179 hsl 100 12 0 100 0 0 \$0-hfdgui \$0-hfdguir HF-Damping
-2 -6 2 10 -262144 -1 -1 4950 1;
#X msg 46 175 set \$1;
#X obj 218 154 nbx 5 12 0 20000 0 0 \$0-lop \$0-lopr hz. 50 7 2 10
-262144 -1 -1 3000 256;
#X obj 112 154 hsl 100 12 0 1 0 0 \$0-lopgui \$0-lopguir Lop-Frequency
-2 -6 2 10 -262144 -1 -1 4427 1;
#N canvas 439 215 450 300 map 0;
#X obj 105 33 inlet;
#X msg 105 180 set \$1;
#X obj 105 205 outlet;
#X obj 200 207 outlet;
#X obj 200 41 inlet;
#X obj 105 92 sqrt;
#X obj 104 66 / 15000;
#X obj 200 102 pow 2;
#X obj 200 128 * 15000;
#X connect 0 0 6 0;
#X connect 1 0 2 0;
#X connect 4 0 7 0;
#X connect 5 0 1 0;
#X connect 6 0 5 0;
#X connect 7 0 8 0;
#X connect 8 0 3 0;
#X restore 45 151 pd map;
#X obj 218 128 nbx 4 12 0 100 0 0 \$0-feedback \$0-feedbackr % 41 7
2 10 -262144 -1 -1 50 256;
#X obj 112 128 hsl 100 12 0 100 0 0 \$0-fbgui \$0-fbuir Feedback -2
-6 2 10 -262144 -1 -1 4950 1;
#X msg 45 125 set \$1;
#X obj 378 129 cnv 15 152 102 empty empty empty 20 12 0 14 -128992
-66577 0;
#N canvas 3 52 450 300 mask 0;
#X obj 100 100 cnv 15 150 100 empty empty empty 20 12 0 14 -262144
-66577 0;
#N canvas 0 50 450 250 (subpatch) 0;
#X array \$0-tail 16 float 3;
#A 0 10 11.6356 13.4567 16.7345 20.1862 25.7417 31.4693 38.2944 46.6838
55.4567 65.1755 76.8243 88.5623 101.278 115.397 130.502;
#X coords 0 200 16 0 150 100 1 0 0;
#X restore 100 100 graph;
#X coords 0 -1 1 1 150 100 1 100 100;
#X restore 379 130 pd mask;
#X obj 532 126 cnv 10 10 10 empty empty 200 0 5 2 10 -262144 -1 0;
#X obj 532 221 cnv 10 10 10 empty empty 0ms 0 5 2 10 -262144 -1 0;
#X obj 379 113 cnv 10 100 15 empty empty Tail 0 5 2 10 -262144 -1 0
;
#X obj 341 238 nbx 4 12 -1e+24 1e+24 0 0 \$0-rise \$0-riser Rise 41
7 2 10 -262144 -1 -1 10 256;
#X obj 481 238 nbx 4 12 -1e+24 1e+24 0 0 \$0-slope \$0-sloper Slope
41 7 2 10 -262144 -1 -1 130 256;
#X obj 407 238 nbx 4 12 -1e+24 1e+24 0 0 \$0-curve \$0-curver Curve
41 7 2 10 -262144 -1 -1 10 256;
#X obj 285 129 cnv 15 72 102 empty empty empty 20 12 0 14 -128992 -66577
0;
#N canvas 3 52 450 300 mask 0;
#X obj 100 100 cnv 15 70 100 empty empty empty 20 12 0 14 -262144 -66577
0;
#N canvas 0 50 450 250 (subpatch) 0;
#X array \$0-early 5 float 3;
#A 0 0 1.42763 3.23873 5.2345 7.82312;
#X coords 0 40 5 0 70 100 1 0 0;
#X restore 100 100 graph;
#X coords 0 -1 1 1 70 100 1 100 100;
#X restore 286 130 pd mask;
#X obj 359 222 cnv 10 10 10 empty empty 0ms 0 5 2 10 -262144 -1 0;
#X obj 286 113 cnv 10 60 15 empty empty Early 0 5 2 10 -262144 -1 0
;
#X obj 182 109 cnv 10 10 10 empty empty rev~ 0 5 2 17 -262144 -162280
0;
#X obj 359 124 cnv 10 10 10 empty empty 40 0 5 2 10 -262144 -1 0;
#X obj 397 271 hradio 11 1 0 8 \$0-presetrd \$0-presetrdr Preset:Miller
0 -8 2 10 -262144 -1 -1 0;
#X obj 217 256 nbx 4 12 0 200 0 0 \$0-width \$0-widthr % 41 7 2 10
-262144 -1 -1 100 256;
#X obj 111 256 hsl 100 12 0 100 0 0 \$0-wgui \$0-wguir Width -2 -6
2 10 -262144 -1 -1 9900 1;
#X msg 53 253 set \$1;
#X obj 499 270 nbx 4 12 0 100 0 0 \$0-drywet \$0-drywetr % 41 7 2 10
-262144 -1 -1 60 256;
#X obj 499 258 cnv 10 10 10 empty empty Dry/Wet 0 5 2 10 -262144 -1
0;
#X obj 217 230 nbx 4 12 0 100 0 0 \$0-lf-damping \$0-lf-dampingr %
41 7 2 10 -262144 -1 -1 0 256;
#X obj 111 230 hsl 100 12 0 100 0 0 \$0-lfdgui \$0-lfdguir LF-Damping
-2 -6 2 10 -262144 -1 -1 0 1;
#X obj 217 205 nbx 5 12 0 20000 0 0 \$0-hip \$0-hipr hz. 50 7 2 10
-262144 -1 -1 0 256;
#X obj 111 205 hsl 100 12 0 1 0 0 \$0-hipgui \$0-hipguir Hip-Frequency
-2 -6 2 10 -262144 -1 -1 0 1;
#X msg 47 230 set \$1;
#N canvas 439 215 450 300 map 0;
#X obj 105 33 inlet;
#X msg 105 180 set \$1;
#X obj 105 205 outlet;
#X obj 200 207 outlet;
#X obj 200 41 inlet;
#X obj 105 92 sqrt;
#X obj 104 66 / 15000;
#X obj 200 102 pow 2;
#X obj 200 128 * 15000;
#X connect 0 0 6 0;
#X connect 1 0 2 0;
#X connect 4 0 7 0;
#X connect 5 0 1 0;
#X connect 6 0 5 0;
#X connect 7 0 8 0;
#X connect 8 0 3 0;
#X restore 46 202 pd map;
#X connect 1 0 3 0;
#X connect 2 0 1 0;
#X connect 3 0 2 0;
#X connect 4 0 6 0;
#X connect 5 0 6 1;
#X connect 6 0 5 0;
#X connect 6 1 4 0;
#X connect 7 0 9 0;
#X connect 8 0 7 0;
#X connect 9 0 8 0;
#X connect 25 0 27 0;
#X connect 26 0 25 0;
#X connect 27 0 26 0;
#X connect 30 0 34 0;
#X connect 31 0 30 0;
#X connect 32 0 35 0;
#X connect 33 0 32 0;
#X connect 33 0 35 1;
#X connect 34 0 31 0;
#X connect 35 0 33 0;
#X connect 35 1 32 0;
#X coords 0 -1 1 1 460 190 2 100 100;
#X restore 7 8 pd mask;
#X restore 740 235 pd \$0-rev~;
#X obj 743 100 inlet;
#X obj 739 472 outlet;
#N canvas 307 172 996 559 outlet-message 0;
#N canvas 105 314 986 300 bang_once.......................................
0;
#X obj 174 87 t b f;
#X obj 132 87 t b f;
#X obj 89 139 del 0;
#X obj 89 87 t b f;
#X obj 217 87 t b f;
#X obj 261 87 t b f;
#X obj 303 87 t b f;
#X obj 89 41 inlet;
#X obj 132 40 inlet;
#X obj 174 40 inlet;
#X obj 217 40 inlet;
#X obj 261 41 inlet;
#X obj 304 41 inlet;
#X obj 89 247 outlet;
#X obj 89 173 f;
#X obj 345 87 t b f;
#X obj 346 41 inlet;
#X obj 389 88 t b f;
#X obj 390 42 inlet;
#X obj 428 87 t b f;
#X obj 429 41 inlet;
#X obj 28 49 inlet;
#X obj 469 88 t b f;
#X obj 470 42 inlet;
#X obj 89 206 pack 0 0 0 0 0 0 0 0 0 0 0;
#X connect 0 0 2 0;
#X connect 0 1 24 2;
#X connect 1 0 2 0;
#X connect 1 1 24 1;
#X connect 2 0 14 0;
#X connect 3 0 2 0;
#X connect 3 1 14 1;
#X connect 4 0 2 0;
#X connect 4 1 24 3;
#X connect 5 0 2 0;
#X connect 5 1 24 4;
#X connect 6 0 2 0;
#X connect 6 1 24 5;
#X connect 7 0 3 0;
#X connect 8 0 1 0;
#X connect 9 0 0 0;
#X connect 10 0 4 0;
#X connect 11 0 5 0;
#X connect 12 0 6 0;
#X connect 14 0 24 0;
#X connect 15 0 2 0;
#X connect 15 1 24 6;
#X connect 16 0 15 0;
#X connect 17 0 2 0;
#X connect 17 1 24 7;
#X connect 18 0 17 0;
#X connect 19 0 2 0;
#X connect 19 1 24 8;
#X connect 20 0 19 0;
#X connect 21 0 14 0;
#X connect 22 0 2 0;
#X connect 22 1 24 9;
#X connect 23 0 22 0;
#X connect 24 0 13 0;
#X restore 241 182 pd bang_once.......................................
;
#X obj 326 543 list trim;
#X msg 246 541 addcomma;
#X msg 148 480 set;
#X obj 326 520 list prepend add2;
#X obj 292 600 outlet;
#X obj 241 207 t a b b;
#X obj 384 248 array get \$0-early;
#X obj 314 294 list prepend;
#X obj 245 319 list prepend;
#X obj 195 20 r \$0-drywet;
#X obj 232 40 r \$0-feedback;
#X obj 270 61 r \$0-lop;
#X obj 434 53 r \$0-rise;
#X obj 471 74 r \$0-curve;
#X obj 509 97 r \$0-slope;
#X obj 93 27 r \$0-visbng;
#X obj 93 73 metro 1000;
#X obj 314 271 array get \$0-tail;
#X obj 93 50 t b;
#X obj 550 125 r \$0-width;
#X obj 245 349 t b a b;
#X obj 279 466 t b a a;
#N canvas 1009 187 450 300 save 0;
#X obj 108 107 inlet;
#X obj 129 217 list;
#X obj 129 264 list trim;
#X obj 129 286 s \$0-lists;
#X obj 128 319 r \$0-lists;
#X obj 129 242 list prepend;
#N canvas 531 82 335 384 collect 0;
#X obj 138 70 inlet;
#X obj 138 284 outlet;
#X obj 189 190 list;
#X obj 257 191 t l;
#X obj 138 235 list;
#X obj 189 149 list append |;
#X obj 138 136 del 0;
#X obj 138 92 t b a;
#X connect 0 0 7 0;
#X connect 2 0 3 0;
#X connect 2 0 4 1;
#X connect 3 0 2 1;
#X connect 4 0 1 0;
#X connect 5 0 2 0;
#X connect 6 0 2 1;
#X connect 6 0 4 0;
#X connect 7 0 6 0;
#X connect 7 1 5 0;
#X restore 108 129 pd collect;
#X obj 195 101 r \$0-save;
#X obj 195 123 t b f;
#N canvas 68 198 1432 552 savestates 0;
#X obj 767 137 inlet;
#X obj 26 422 savestate;
#X obj 26 398 list;
#X obj 91 422 savestate;
#X obj 91 398 list;
#X obj 157 422 savestate;
#X obj 157 398 list;
#X obj 220 420 savestate;
#X obj 220 396 list;
#X obj 283 419 savestate;
#X obj 283 395 list;
#X obj 345 418 savestate;
#X obj 345 394 list;
#X obj 409 418 savestate;
#X obj 409 394 list;
#X obj 472 421 savestate;
#X obj 472 397 list;
#X obj 537 421 savestate;
#X obj 537 397 list;
#X obj 603 421 savestate;
#X obj 603 397 list;
#X obj 666 419 savestate;
#X obj 666 395 list;
#X obj 729 418 savestate;
#X obj 729 394 list;
#X obj 791 417 savestate;
#X obj 791 393 list;
#X obj 855 417 savestate;
#X obj 855 393 list;
#X obj 922 418 savestate;
#X obj 922 394 list;
#X obj 988 418 savestate;
#X obj 988 394 list;
#X obj 1051 416 savestate;
#X obj 1051 392 list;
#X obj 1114 415 savestate;
#X obj 1114 391 list;
#X obj 1176 414 savestate;
#X obj 1176 390 list;
#X obj 1240 414 savestate;
#X obj 1240 390 list;
#X obj 767 166 route 0 1 2 3 4 5 6 7 8 9 10 11 12 13 14 15 16 17 18
19 20;
#X obj 1304 412 savestate;
#X obj 1304 388 list;
#X obj 201 64 savestate;
#X obj 201 87 t a b;
#X obj 300 119 + 1;
#X obj 201 137 list prepend;
#X obj 201 160 list trim;
#X obj 201 183 route 0 1 2 3 4 5 6 7 8 9 10 11 12 13 14 15 16 17 18
19 20;
#X obj 270 115 f;
#X connect 0 0 41 0;
#X connect 1 1 2 0;
#X connect 2 0 1 0;
#X connect 3 1 4 0;
#X connect 4 0 3 0;
#X connect 5 1 6 0;
#X connect 6 0 5 0;
#X connect 7 1 8 0;
#X connect 8 0 7 0;
#X connect 9 1 10 0;
#X connect 10 0 9 0;
#X connect 11 1 12 0;
#X connect 12 0 11 0;
#X connect 13 1 14 0;
#X connect 14 0 13 0;
#X connect 15 1 16 0;
#X connect 16 0 15 0;
#X connect 17 1 18 0;
#X connect 18 0 17 0;
#X connect 19 1 20 0;
#X connect 20 0 19 0;
#X connect 21 1 22 0;
#X connect 22 0 21 0;
#X connect 23 1 24 0;
#X connect 24 0 23 0;
#X connect 25 1 26 0;
#X connect 26 0 25 0;
#X connect 27 1 28 0;
#X connect 28 0 27 0;
#X connect 29 1 30 0;
#X connect 30 0 29 0;
#X connect 31 1 32 0;
#X connect 32 0 31 0;
#X connect 33 1 34 0;
#X connect 34 0 33 0;
#X connect 35 1 36 0;
#X connect 36 0 35 0;
#X connect 37 1 38 0;
#X connect 38 0 37 0;
#X connect 39 1 40 0;
#X connect 40 0 39 0;
#X connect 41 0 2 1;
#X connect 41 1 4 1;
#X connect 41 2 6 1;
#X connect 41 3 8 1;
#X connect 41 4 10 1;
#X connect 41 5 12 1;
#X connect 41 6 14 1;
#X connect 41 7 16 1;
#X connect 41 8 18 1;
#X connect 41 9 20 1;
#X connect 41 10 22 1;
#X connect 41 11 24 1;
#X connect 41 12 26 1;
#X connect 41 13 28 1;
#X connect 41 14 30 1;
#X connect 41 15 32 1;
#X connect 41 16 34 1;
#X connect 41 17 36 1;
#X connect 41 18 38 1;
#X connect 41 19 40 1;
#X connect 41 20 43 1;
#X connect 42 1 43 0;
#X connect 43 0 42 0;
#X connect 44 0 45 0;
#X connect 45 0 47 0;
#X connect 45 1 50 0;
#X connect 46 0 50 1;
#X connect 47 0 48 0;
#X connect 48 0 49 0;
#X connect 49 0 2 1;
#X connect 49 1 4 1;
#X connect 49 2 6 1;
#X connect 49 3 8 1;
#X connect 49 4 10 1;
#X connect 49 5 12 1;
#X connect 49 6 14 1;
#X connect 49 7 16 1;
#X connect 49 8 18 1;
#X connect 49 9 20 1;
#X connect 49 10 22 1;
#X connect 49 11 24 1;
#X connect 49 12 26 1;
#X connect 49 13 28 1;
#X connect 49 14 30 1;
#X connect 49 15 32 1;
#X connect 49 16 34 1;
#X connect 49 17 36 1;
#X connect 49 18 38 1;
#X connect 49 19 40 1;
#X connect 49 20 43 1;
#X connect 50 0 46 0;
#X connect 50 0 47 1;
#X restore 128 341 pd savestates;
#X connect 0 0 6 0;
#X connect 1 0 5 0;
#X connect 2 0 3 0;
#X connect 4 0 9 0;
#X connect 5 0 2 0;
#X connect 6 0 1 1;
#X connect 7 0 8 0;
#X connect 8 0 1 0;
#X connect 8 1 5 1;
#X restore 336 489 pd save;
#X obj 308 82 r \$0-hf-damping;
#X obj 357 103 r \$0-hip;
#X obj 403 124 r \$0-lf-damping;
#X msg 278 400 dry/wet \$22 \, feedback \$23 \, lop-frequency \$24
\, hf-damping \$25 \, hip-frequency \$26 \, lf-damping \$27 \, rise
\$28 \, curve \$29 \, slope \$30 \, width \$31 \, early \$1 \$2 \$3
\$4 \$5 \, tail \$6 \$7 \$8 \$9 \$10 \$11 \$12 \$13 \$14 \$15 \$16
\$17 \$18 \$19 \$20 \$21;
#X connect 0 0 6 0;
#X connect 1 0 5 0;
#X connect 2 0 5 0;
#X connect 3 0 5 0;
#X connect 4 0 1 0;
#X connect 6 0 9 0;
#X connect 6 1 18 0;
#X connect 6 2 7 0;
#X connect 7 0 8 1;
#X connect 8 0 9 1;
#X connect 9 0 21 0;
#X connect 10 0 0 1;
#X connect 11 0 0 2;
#X connect 12 0 0 3;
#X connect 13 0 0 7;
#X connect 14 0 0 8;
#X connect 15 0 0 9;
#X connect 16 0 19 0;
#X connect 17 0 0 0;
#X connect 18 0 8 0;
#X connect 19 0 17 0;
#X connect 20 0 0 10;
#X connect 21 0 5 0;
#X connect 21 1 27 0;
#X connect 21 2 3 0;
#X connect 22 0 2 0;
#X connect 22 1 4 0;
#X connect 22 2 23 0;
#X connect 24 0 0 4;
#X connect 25 0 0 5;
#X connect 26 0 0 6;
#X connect 27 0 22 0;
#X restore 739 446 pd outlet-message;
#N canvas 146 237 1035 349 stuff 0;
#X obj 153 168 s \$0-visbngr;
#X obj 135 63 r \$0-visbng;
#X msg 133 140 color 0 0;
#X msg 217 140 color 10 10;
#X obj 135 85 t b;
#X obj 215 115 del 250;
#X obj 99 213 s pd-\$0-rev~;
#X obj 368 97 / 100;
#X obj 368 120 clip 0 1;
#X obj 507 74 r \$0-feedback;
#X obj 507 97 / 100;
#X obj 507 120 sqrt;
#X obj 507 143 sqrt;
#X obj 507 166 / 4;
#X obj 507 189 s \$0-feed;
#X obj 627 85 r \$0-presetrd;
#X obj 627 108 sel 0 1 2 3 4 5 6 7;
#X obj 627 311 s \$0-presetrdr;
#X msg 627 135 label Preset:Miller;
#X msg 640 158 label Preset:Room;
#X msg 655 181 label Preset:Large;
#X msg 665 206 label Preset:Vessel;
#X msg 680 229 label Preset:Reflections;
#X msg 696 251 label Preset:Vibrant;
#X msg 707 271 label Preset:Bathroom;
#X msg 722 291 label Preset:Plate;
#X obj 368 143 s \$0-ldamp;
#X obj 366 203 / 100;
#X obj 366 226 clip 0 1;
#X obj 366 249 s \$0-hdamp;
#X obj 368 74 r \$0-hf-damping;
#X obj 366 180 r \$0-lf-damping;
#X msg 99 191 relocate 475x205+1+1 1x1+50+60 \, vis 1;
#X connect 1 0 4 0;
#X connect 2 0 0 0;
#X connect 3 0 0 0;
#X connect 4 0 2 0;
#X connect 4 0 5 0;
#X connect 4 0 32 0;
#X connect 5 0 3 0;
#X connect 7 0 8 0;
#X connect 8 0 26 0;
#X connect 9 0 10 0;
#X connect 10 0 11 0;
#X connect 11 0 12 0;
#X connect 12 0 13 0;
#X connect 13 0 14 0;
#X connect 15 0 16 0;
#X connect 16 0 18 0;
#X connect 16 1 19 0;
#X connect 16 2 20 0;
#X connect 16 3 21 0;
#X connect 16 4 22 0;
#X connect 16 5 23 0;
#X connect 16 6 24 0;
#X connect 16 7 25 0;
#X connect 18 0 17 0;
#X connect 19 0 17 0;
#X connect 20 0 17 0;
#X connect 21 0 17 0;
#X connect 22 0 17 0;
#X connect 23 0 17 0;
#X connect 24 0 17 0;
#X connect 25 0 17 0;
#X connect 27 0 28 0;
#X connect 28 0 29 0;
#X connect 30 0 7 0;
#X connect 31 0 27 0;
#X connect 32 0 6 0;
#X restore 739 259 pd stuff;
#N canvas 82 190 888 623 init&presets 0;
#X obj 362 615 s \$0-preset;
#X obj 33 125 loadbang;
#X text 464 -17 room;
#X text 471 170 large vessel;
#X text 469 76 large;
#X text 473 350 vibrant;
#X text 469 441 bathroom;
#X text 471 522 plate;
#X obj 161 41 sel 0 1 2 3 4 5 6 7;
#X text 162 206 miller's original rev3~;
#X obj 161 4 r \$0-presetrd;
#X msg 95 171 dry/wet 60;
#X text 470 265 reflections;
#X msg 33 226 feedback 50 \, lop-frequency 3000 \, hf-damping 50 \,
hip-frequency 0 \, lf-damping 0 \, rise 10 \, curve 10 \, slope 130
\, width 100 \, early 0 1.42763 3.23873 5.2345 7.82312 \, tail 10 11.6356
13.4567 16.7345 20.1862 25.7417 31.4693 38.2944 46.6838 55.4567 65.1755
76.8243 88.5623 101.278 115.397 130.502 \,;
#X msg 467 5 feedback 50 \, lop-frequency 300 \, hf-damping 98 \, hip-frequency
0 \, lf-damping 0 \, rise 5 \, curve 10 \, slope 60 \, width 100 \,
early 0 1.19999 1.6 1.2 1.6 \, tail 5 5.26667 6.06667 7.4 9.26667 11.6667
14.6 18.0667 22.0667 26.6 31.6667 37.2667 43.4 50.0667 57.2667 65 \,
;
#X msg 468 94 feedback 65 \, lop-frequency 2500 \, hf-damping 72.7273
\, hip-frequency 200 \, lf-damping 50 \, rise 199 \, curve -7 \, slope
-180 \, width 100 \, early 37.6 6 8.80001 12 16.4 \, tail 199 162.402
143.979 129.158 116.281 104.678 93.9998 84.0337 74.6392 65.7175 57.1957
49.0184 41.142 33.5317 26.1589 19 \,;
#X msg 466 189 feedback 90 \, lop-frequency 500 \, hf-damping 98 \,
hip-frequency 60 \, lf-damping 50 \, rise 85 \, curve -10 \, slope
-65 \, width 100 \, early 10 7.59999 9.6 7.19999 5.19999 \, tail 85
68.2171 61.2654 55.9311 51.4341 47.4722 43.8904 40.5965 37.5307 34.6512
31.9277 29.3373 26.8622 24.4883 22.204 20 \,;
#X msg 470 280 feedback 60 \, lop-frequency 600 \, hf-damping 98 \,
hip-frequency 60 \, lf-damping 100 \, rise 125 \, curve 12 \, slope
229 \, width 100 \, early 30 0.799999 1.6 2.4 3.6 \, tail 125 125.592
127.721 131.639 137.502 145.425 155.505 167.82 180 180 170 150 144
126 118 114 \,;
#X msg 469 368 feedback 45 \, lop-frequency 150 \, hf-damping 98 \,
hip-frequency 60 \, lf-damping 0 \, rise 99 \, curve 12 \, slope -12
\, width 100 \, early 33 0.799999 1.2 0.400002 1.6 \, tail 99 98.969
98.8574 98.6521 98.3449 97.9297 97.4015 96.7561 95.9899 95.0996 94.0821
92.9348 91.6552 90.241 88.6899 87 \,;
#X msg 470 453 feedback 50 \, lop-frequency 3000 \, hf-damping 98 \,
hip-frequency 60 \, lf-damping 0 \, rise 23 \, curve 11 \, slope -13
\, width 100 \, early 0 2.8 4.4 4 2.4 \, tail 23 22.9559 22.8111 22.5573
22.19 21.7058 21.1021 20.3766 19.5275 18.5531 17.4518 16.2224 14.8636
13.3743 11.7534 10 \,;
#X msg 469 539 feedback 86.8687 \, lop-frequency 1770 \, hf-damping
100 \, hip-frequency 100 \, lf-damping 90 \, rise 46 \, curve -22 \,
slope -37 \, width 100 \, early 4 -3.8147e-06 -7.62939e-06 0.400002
0 \, tail 46 30.1265 26.2873 23.6245 21.5197 19.7517 18.2128 16.8414
15.5989 14.4591 13.4033 12.4179 11.4922 10.6182 9.78919 20 \,;
#X connect 1 0 13 0;
#X connect 1 0 11 0;
#X connect 8 0 13 0;
#X connect 8 1 14 0;
#X connect 8 2 15 0;
#X connect 8 3 16 0;
#X connect 8 4 17 0;
#X connect 8 5 18 0;
#X connect 8 6 19 0;
#X connect 8 7 20 0;
#X connect 10 0 8 0;
#X connect 11 0 0 0;
#X connect 13 0 0 0;
#X connect 14 0 0 0;
#X connect 15 0 0 0;
#X connect 16 0 0 0;
#X connect 17 0 0 0;
#X connect 18 0 0 0;
#X connect 19 0 0 0;
#X connect 20 0 0 0;
#X restore 739 282 pd init&presets;
#X obj 514 149 r \$0-feed;
#N canvas 244 228 868 428 width 0;
#X obj 72 22 inlet~ left;
#X obj 189 18 inlet~ right;
#X obj 329 18 inlet~;
#X obj 404 18 r \$0-width;
#X obj 404 41 / 100;
#X obj 330 44 *~ 0.01;
#X obj 404 66 - 1;
#X obj 72 195 +~;
#X obj 194 194 -~;
#X obj 73 340 +~;
#X obj 181 342 -~;
#X msg 404 90 \$1 100;
#X obj 404 111 line~;
#X obj 331 128 +~;
#X obj 71 218 *~ 0.707107;
#X obj 195 217 *~ 0.707107;
#X obj 72 260 *~;
#X obj 146 157 sig~ 1;
#X obj 146 180 -~;
#X obj 147 265 *~ 2;
#X obj 332 257 *~ 2;
#X obj 196 265 *~;
#X obj 332 226 clip~ 0 1;
#X obj 223 163 clip~ 0 1;
#X obj 331 197 +~ 1;
#X text 289 335 based on Robin Schmidt's stereo processing tutorial:
http://www.rs-met.com/documents/tutorials/StereoProcessing.pdf, f
63;
#X obj 74 362 *~ 0.353554;
#X obj 182 365 *~ 0.353554;
#X obj 74 385 outlet~;
#X obj 183 388 outlet~;
#X connect 0 0 8 0;
#X connect 0 0 7 0;
#X connect 1 0 8 1;
#X connect 1 0 7 1;
#X connect 2 0 5 0;
#X connect 3 0 4 0;
#X connect 4 0 6 0;
#X connect 5 0 13 0;
#X connect 6 0 11 0;
#X connect 7 0 14 0;
#X connect 8 0 15 0;
#X connect 9 0 26 0;
#X connect 10 0 27 0;
#X connect 11 0 12 0;
#X connect 12 0 13 1;
#X connect 13 0 24 0;
#X connect 13 0 23 0;
#X connect 14 0 16 0;
#X connect 15 0 21 0;
#X connect 16 0 9 0;
#X connect 16 0 10 0;
#X connect 17 0 18 0;
#X connect 18 0 19 0;
#X connect 19 0 16 1;
#X connect 20 0 21 1;
#X connect 21 0 9 1;
#X connect 21 0 10 1;
#X connect 22 0 20 0;
#X connect 23 0 18 1;
#X connect 24 0 22 0;
#X connect 26 0 28 0;
#X connect 27 0 29 0;
#X restore 455 244 pd width;
#X obj 644 97 inlet~ width;
#X text 742 521 philipp schmalfuß \, 2018/19;
#X connect 1 0 3 1;
#X connect 1 0 4 1;
#X connect 1 0 15 1;
#X connect 2 0 1 0;
#X connect 3 0 5 0;
#X connect 4 0 6 0;
#X connect 7 0 30 0;
#X connect 7 1 30 1;
#X connect 8 0 10 0;
#X connect 8 0 12 0;
#X connect 9 0 10 1;
#X connect 9 0 13 0;
#X connect 10 0 7 0;
#X connect 10 1 7 1;
#X connect 11 0 2 0;
#X connect 12 0 5 0;
#X connect 13 0 6 0;
#X connect 14 0 15 0;
#X connect 15 0 13 1;
#X connect 15 0 12 1;
#X connect 16 0 11 0;
#X connect 17 0 18 0;
#X connect 18 0 7 2;
#X connect 19 0 21 0;
#X connect 21 0 17 1;
#X connect 24 0 22 0;
#X connect 26 0 25 0;
#X connect 29 0 17 0;
#X connect 30 0 3 0;
#X connect 30 1 4 0;
#X connect 31 0 30 2;
#X coords 0 -1 1 1 155 33 1 100 100;
