#N canvas 144 182 988 585 10;
#X obj 103 115 hsl 150 15 0 127 0 0 \$0-visbng \$0-visbngr empty 50
8 2 10 -233017 -233017 -1 0 1;
#X obj 417 433 outlet~;
#X obj 482 435 outlet~;
#N canvas 1 57 1363 710 doit 0;
#X obj 250 673 *~;
#X obj 373 683 *~;
#X obj 299 676 *~;
#X obj 337 679 *~;
#X obj 60 479 lop~;
#X obj 59 508 -~;
#X obj 58 576 *~;
#X obj 47 604 +~;
#X obj 107 479 lop~;
#X obj 108 511 -~;
#X obj 108 579 *~;
#X obj 98 603 +~;
#X obj 156 481 lop~;
#X obj 156 508 -~;
#X obj 156 582 *~;
#X obj 147 607 +~;
#X obj 208 481 lop~;
#X obj 207 508 -~;
#X obj 206 586 *~;
#X obj 199 611 +~;
#X obj 47 661 *~;
#X obj 201 670 *~;
#X obj 99 667 *~;
#X obj 147 667 *~;
#X obj 229 455 r \$0-lop;
#X obj 214 556 line~;
#X obj 556 694 *~;
#X obj 663 696 *~;
#X obj 592 695 *~;
#X obj 627 696 *~;
#X obj 409 686 *~;
#X obj 520 693 *~;
#X obj 446 689 *~;
#X obj 483 692 *~;
#X obj 57 633 inlet~;
#X obj 119 633 inlet~;
#X obj 101 727 +~;
#X obj 137 727 -~;
#X obj 173 727 +~;
#X obj 209 727 -~;
#X obj 246 727 +~;
#X obj 282 727 -~;
#X obj 318 727 +~;
#X obj 354 727 -~;
#X obj 391 727 +~;
#X obj 427 727 -~;
#X obj 463 727 +~;
#X obj 499 727 -~;
#X obj 536 727 +~;
#X obj 572 727 -~;
#X obj 608 727 +~;
#X obj 644 727 -~;
#X obj 101 761 +~;
#X obj 209 761 -~;
#X obj 137 761 +~;
#X obj 173 761 -~;
#X obj 246 761 +~;
#X obj 354 761 -~;
#X obj 282 761 +~;
#X obj 318 761 -~;
#X obj 391 761 +~;
#X obj 499 761 -~;
#X obj 427 761 +~;
#X obj 463 761 -~;
#X obj 536 761 +~;
#X obj 644 761 -~;
#X obj 572 761 +~;
#X obj 608 761 -~;
#X obj 101 805 +~;
#X obj 137 805 +~;
#X obj 354 805 -~;
#X obj 318 805 -~;
#X obj 173 805 +~;
#X obj 209 805 +~;
#X obj 246 805 -~;
#X obj 282 805 -~;
#X obj 392 805 +~;
#X obj 428 805 +~;
#X obj 645 805 -~;
#X obj 609 805 -~;
#X obj 464 805 +~;
#X obj 500 805 +~;
#X obj 537 805 -~;
#X obj 573 805 -~;
#X obj 102 862 +~;
#X obj 138 862 +~;
#X obj 501 862 -~;
#X obj 465 862 -~;
#X obj 174 862 +~;
#X obj 210 862 +~;
#X obj 393 862 -~;
#X obj 429 862 -~;
#X obj 247 862 +~;
#X obj 283 862 +~;
#X obj 319 862 +~;
#X obj 355 862 +~;
#X obj 646 862 -~;
#X obj 610 862 -~;
#X obj 538 862 -~;
#X obj 574 862 -~;
#X obj 828 907 outlet~;
#X obj 898 907 outlet~;
#X obj 103 1048 delwrite~ \$0-del1 200;
#X obj 138 1024 delwrite~ \$0-del2 200;
#X obj 173 1002 delwrite~ \$0-del3 200;
#X obj 211 980 delwrite~ \$0-del4 200;
#X obj 247 959 delwrite~ \$0-del5 200;
#X obj 284 937 delwrite~ \$0-del6 200;
#X obj 319 915 delwrite~ \$0-del7 200;
#X obj 355 893 delwrite~ \$0-del8 200;
#X obj 393 1063 delwrite~ \$0-del9 200;
#X obj 430 1042 delwrite~ \$0-del10 200;
#X obj 466 1021 delwrite~ \$0-del11 200;
#X obj 502 1000 delwrite~ \$0-del12 200;
#X obj 538 979 delwrite~ \$0-del13 200;
#X obj 574 958 delwrite~ \$0-del14 200;
#X obj 611 937 delwrite~ \$0-del15 200;
#X obj 646 916 delwrite~ \$0-del16 200;
#X obj 49 180 delread4~ \$0-del1 10;
#X obj 100 201 delread4~ \$0-del2 11.6356;
#X obj 149 222 delread4~ \$0-del3 13.4567;
#X obj 203 243 delread4~ \$0-del4 16.7345;
#X obj 250 266 delread4~ \$0-del5 20.1862;
#X obj 299 287 delread4~ \$0-del6 25.7417;
#X obj 336 308 delread4~ \$0-del7 31.4693;
#X obj 373 329 delread4~ \$0-del8 38.2944;
#X obj 408 350 delread4~ \$0-del9 46.6838;
#X obj 446 371 delread4~ \$0-del10 55.4567;
#X obj 483 392 delread4~ \$0-del11 65.1755;
#X obj 520 413 delread4~ \$0-del12 76.8243;
#X obj 556 435 delread4~ \$0-del13 88.5623;
#X obj 593 455 delread4~ \$0-del14 101.278;
#X obj 627 476 delread4~ \$0-del15 115.397;
#X obj 664 497 delread4~ \$0-del16 130.502;
#X obj 686 641 inlet~;
#X obj 60 350 -~;
#X obj 59 413 *~;
#X obj 48 438 +~;
#X obj 109 355 -~;
#X obj 109 416 *~;
#X obj 99 437 +~;
#X obj 157 352 -~;
#X obj 157 419 *~;
#X obj 148 441 +~;
#X obj 208 353 -~;
#X obj 207 420 *~;
#X obj 200 440 +~;
#X obj 222 396 line~;
#X obj 230 300 r \$0-hip;
#X obj 222 377 r \$0-hdamp;
#X obj 61 321 hip~;
#X obj 108 323 hip~;
#X obj 157 325 hip~;
#X obj 209 326 hip~;
#X obj 214 531 r \$0-ldamp;
#X obj 714 1020 outlet~;
#X obj 784 1020 outlet~;
#N canvas 358 263 450 300 read 0;
#X obj 115 82 tabread \$0-tail;
#X obj 115 105 change;
#X obj 115 128 pack 0 50;
#X obj 115 151 line~;
#X obj 115 174 outlet~;
#X obj 115 59 inlet;
#X obj 177 127 r \$0-transition;
#X connect 0 0 1 0;
#X connect 1 0 2 0;
#X connect 2 0 3 0;
#X connect 3 0 4 0;
#X connect 5 0 0 0;
#X connect 6 0 2 1;
#X restore 49 118 pd read;
#X obj 48 15 bang~;
#X obj 49 97 f 0;
#N canvas 358 263 450 300 read 0;
#X obj 115 82 tabread \$0-tail;
#X obj 115 105 change;
#X obj 115 128 pack 0 50;
#X obj 115 151 line~;
#X obj 115 174 outlet~;
#X obj 115 59 inlet;
#X obj 177 127 r \$0-transition;
#X connect 0 0 1 0;
#X connect 1 0 2 0;
#X connect 2 0 3 0;
#X connect 3 0 4 0;
#X connect 5 0 0 0;
#X connect 6 0 2 1;
#X restore 101 117 pd read;
#N canvas 358 263 450 300 read 0;
#X obj 115 82 tabread \$0-tail;
#X obj 115 105 change;
#X obj 115 128 pack 0 50;
#X obj 115 151 line~;
#X obj 115 174 outlet~;
#X obj 115 59 inlet;
#X obj 177 127 r \$0-transition;
#X connect 0 0 1 0;
#X connect 1 0 2 0;
#X connect 2 0 3 0;
#X connect 3 0 4 0;
#X connect 5 0 0 0;
#X connect 6 0 2 1;
#X restore 151 117 pd read;
#N canvas 358 263 450 300 read 0;
#X obj 115 82 tabread \$0-tail;
#X obj 115 105 change;
#X obj 115 128 pack 0 50;
#X obj 115 151 line~;
#X obj 115 174 outlet~;
#X obj 115 59 inlet;
#X obj 177 127 r \$0-transition;
#X connect 0 0 1 0;
#X connect 1 0 2 0;
#X connect 2 0 3 0;
#X connect 3 0 4 0;
#X connect 5 0 0 0;
#X connect 6 0 2 1;
#X restore 203 116 pd read;
#N canvas 358 263 450 300 read 0;
#X obj 115 82 tabread \$0-tail;
#X obj 115 105 change;
#X obj 115 128 pack 0 50;
#X obj 115 151 line~;
#X obj 115 174 outlet~;
#X obj 115 59 inlet;
#X obj 177 127 r \$0-transition;
#X connect 0 0 1 0;
#X connect 1 0 2 0;
#X connect 2 0 3 0;
#X connect 3 0 4 0;
#X connect 5 0 0 0;
#X connect 6 0 2 1;
#X restore 252 115 pd read;
#N canvas 358 263 450 300 read 0;
#X obj 115 82 tabread \$0-tail;
#X obj 115 105 change;
#X obj 115 128 pack 0 50;
#X obj 115 151 line~;
#X obj 115 174 outlet~;
#X obj 115 59 inlet;
#X obj 177 127 r \$0-transition;
#X connect 0 0 1 0;
#X connect 1 0 2 0;
#X connect 2 0 3 0;
#X connect 3 0 4 0;
#X connect 5 0 0 0;
#X connect 6 0 2 1;
#X restore 300 115 pd read;
#N canvas 358 263 450 300 read 0;
#X obj 115 82 tabread \$0-tail;
#X obj 115 105 change;
#X obj 115 128 pack 0 50;
#X obj 115 151 line~;
#X obj 115 174 outlet~;
#X obj 115 59 inlet;
#X obj 177 127 r \$0-transition;
#X connect 0 0 1 0;
#X connect 1 0 2 0;
#X connect 2 0 3 0;
#X connect 3 0 4 0;
#X connect 5 0 0 0;
#X connect 6 0 2 1;
#X restore 349 114 pd read;
#N canvas 358 263 450 300 read 0;
#X obj 115 82 tabread \$0-tail;
#X obj 115 105 change;
#X obj 115 128 pack 0 50;
#X obj 115 151 line~;
#X obj 115 174 outlet~;
#X obj 115 59 inlet;
#X obj 177 127 r \$0-transition;
#X connect 0 0 1 0;
#X connect 1 0 2 0;
#X connect 2 0 3 0;
#X connect 3 0 4 0;
#X connect 5 0 0 0;
#X connect 6 0 2 1;
#X restore 399 115 pd read;
#N canvas 358 263 450 300 read 0;
#X obj 115 82 tabread \$0-tail;
#X obj 115 105 change;
#X obj 115 128 pack 0 50;
#X obj 115 151 line~;
#X obj 115 174 outlet~;
#X obj 115 59 inlet;
#X obj 177 127 r \$0-transition;
#X connect 0 0 1 0;
#X connect 1 0 2 0;
#X connect 2 0 3 0;
#X connect 3 0 4 0;
#X connect 5 0 0 0;
#X connect 6 0 2 1;
#X restore 449 115 pd read;
#N canvas 358 263 450 300 read 0;
#X obj 115 82 tabread \$0-tail;
#X obj 115 105 change;
#X obj 115 128 pack 0 50;
#X obj 115 151 line~;
#X obj 115 174 outlet~;
#X obj 115 59 inlet;
#X obj 177 127 r \$0-transition;
#X connect 0 0 1 0;
#X connect 1 0 2 0;
#X connect 2 0 3 0;
#X connect 3 0 4 0;
#X connect 5 0 0 0;
#X connect 6 0 2 1;
#X restore 501 114 pd read;
#N canvas 358 263 450 300 read 0;
#X obj 115 82 tabread \$0-tail;
#X obj 115 105 change;
#X obj 115 128 pack 0 50;
#X obj 115 151 line~;
#X obj 115 174 outlet~;
#X obj 115 59 inlet;
#X obj 177 127 r \$0-transition;
#X connect 0 0 1 0;
#X connect 1 0 2 0;
#X connect 2 0 3 0;
#X connect 3 0 4 0;
#X connect 5 0 0 0;
#X connect 6 0 2 1;
#X restore 551 114 pd read;
#N canvas 358 263 450 300 read 0;
#X obj 115 82 tabread \$0-tail;
#X obj 115 105 change;
#X obj 115 128 pack 0 50;
#X obj 115 151 line~;
#X obj 115 174 outlet~;
#X obj 115 59 inlet;
#X obj 177 127 r \$0-transition;
#X connect 0 0 1 0;
#X connect 1 0 2 0;
#X connect 2 0 3 0;
#X connect 3 0 4 0;
#X connect 5 0 0 0;
#X connect 6 0 2 1;
#X restore 603 113 pd read;
#N canvas 358 263 450 300 read 0;
#X obj 115 82 tabread \$0-tail;
#X obj 115 105 change;
#X obj 115 128 pack 0 50;
#X obj 115 151 line~;
#X obj 115 174 outlet~;
#X obj 115 59 inlet;
#X obj 177 127 r \$0-transition;
#X connect 0 0 1 0;
#X connect 1 0 2 0;
#X connect 2 0 3 0;
#X connect 3 0 4 0;
#X connect 5 0 0 0;
#X connect 6 0 2 1;
#X restore 652 113 pd read;
#N canvas 358 263 450 300 read 0;
#X obj 115 82 tabread \$0-tail;
#X obj 115 105 change;
#X obj 115 128 pack 0 50;
#X obj 115 151 line~;
#X obj 115 174 outlet~;
#X obj 115 59 inlet;
#X obj 177 127 r \$0-transition;
#X connect 0 0 1 0;
#X connect 1 0 2 0;
#X connect 2 0 3 0;
#X connect 3 0 4 0;
#X connect 5 0 0 0;
#X connect 6 0 2 1;
#X restore 700 113 pd read;
#N canvas 358 263 450 300 read 0;
#X obj 115 82 tabread \$0-tail;
#X obj 115 105 change;
#X obj 115 128 pack 0 50;
#X obj 115 151 line~;
#X obj 115 174 outlet~;
#X obj 115 59 inlet;
#X obj 177 127 r \$0-transition;
#X connect 0 0 1 0;
#X connect 1 0 2 0;
#X connect 2 0 3 0;
#X connect 3 0 4 0;
#X connect 5 0 0 0;
#X connect 6 0 2 1;
#X restore 749 112 pd read;
#N canvas 358 263 450 300 read 0;
#X obj 115 82 tabread \$0-tail;
#X obj 115 105 change;
#X obj 115 128 pack 0 50;
#X obj 115 151 line~;
#X obj 115 174 outlet~;
#X obj 115 59 inlet;
#X obj 177 127 r \$0-transition;
#X connect 0 0 1 0;
#X connect 1 0 2 0;
#X connect 2 0 3 0;
#X connect 3 0 4 0;
#X connect 5 0 0 0;
#X connect 6 0 2 1;
#X restore 799 111 pd read;
#X obj 101 96 f 1;
#X obj 151 96 f 2;
#X obj 203 95 f 3;
#X obj 252 94 f 4;
#X obj 300 94 f 5;
#X obj 349 93 f 6;
#X obj 399 94 f 7;
#X obj 449 94 f 8;
#X obj 501 93 f 9;
#X obj 551 93 f 10;
#X obj 603 92 f 11;
#X obj 652 92 f 12;
#X obj 700 92 f 13;
#X obj 749 91 f 14;
#X obj 799 90 f 15;
#X obj 48 38 t b b b b b b b b b b b b b b b b, f 118;
#X connect 0 0 40 0;
#X connect 0 0 41 0;
#X connect 1 0 42 1;
#X connect 1 0 43 1;
#X connect 2 0 40 1;
#X connect 2 0 41 1;
#X connect 3 0 42 0;
#X connect 3 0 43 0;
#X connect 4 0 5 0;
#X connect 5 0 6 0;
#X connect 6 0 7 1;
#X connect 7 0 20 0;
#X connect 8 0 9 0;
#X connect 9 0 10 0;
#X connect 10 0 11 1;
#X connect 11 0 22 0;
#X connect 12 0 13 0;
#X connect 13 0 14 0;
#X connect 14 0 15 1;
#X connect 15 0 23 0;
#X connect 16 0 17 0;
#X connect 17 0 18 0;
#X connect 18 0 19 1;
#X connect 19 0 21 0;
#X connect 20 0 36 0;
#X connect 20 0 37 0;
#X connect 21 0 38 1;
#X connect 21 0 39 1;
#X connect 22 0 37 1;
#X connect 22 0 36 1;
#X connect 23 0 38 0;
#X connect 23 0 39 0;
#X connect 24 0 16 1;
#X connect 24 0 12 1;
#X connect 24 0 8 1;
#X connect 24 0 4 1;
#X connect 25 0 18 1;
#X connect 25 0 14 1;
#X connect 25 0 10 1;
#X connect 25 0 6 1;
#X connect 26 0 48 0;
#X connect 26 0 49 0;
#X connect 27 0 50 1;
#X connect 27 0 51 1;
#X connect 28 0 48 1;
#X connect 28 0 49 1;
#X connect 29 0 50 0;
#X connect 29 0 51 0;
#X connect 30 0 44 0;
#X connect 30 0 45 0;
#X connect 31 0 46 1;
#X connect 31 0 47 1;
#X connect 32 0 44 1;
#X connect 32 0 45 1;
#X connect 33 0 46 0;
#X connect 33 0 47 0;
#X connect 34 0 20 0;
#X connect 35 0 22 0;
#X connect 36 0 52 0;
#X connect 36 0 55 0;
#X connect 37 0 54 0;
#X connect 37 0 53 0;
#X connect 38 0 52 1;
#X connect 38 0 55 1;
#X connect 39 0 54 1;
#X connect 39 0 53 1;
#X connect 40 0 56 0;
#X connect 40 0 59 0;
#X connect 41 0 58 0;
#X connect 41 0 57 0;
#X connect 42 0 56 1;
#X connect 42 0 59 1;
#X connect 43 0 58 1;
#X connect 43 0 57 1;
#X connect 44 0 60 0;
#X connect 44 0 63 0;
#X connect 45 0 62 0;
#X connect 45 0 61 0;
#X connect 46 0 60 1;
#X connect 46 0 63 1;
#X connect 47 0 62 1;
#X connect 47 0 61 1;
#X connect 48 0 64 0;
#X connect 48 0 67 0;
#X connect 49 0 66 0;
#X connect 49 0 65 0;
#X connect 50 0 64 1;
#X connect 50 0 67 1;
#X connect 51 0 66 1;
#X connect 51 0 65 1;
#X connect 52 0 68 0;
#X connect 52 0 74 0;
#X connect 53 0 73 0;
#X connect 53 0 70 0;
#X connect 54 0 69 0;
#X connect 54 0 75 0;
#X connect 55 0 72 0;
#X connect 55 0 71 0;
#X connect 56 0 68 1;
#X connect 56 0 74 1;
#X connect 57 0 73 1;
#X connect 57 0 70 1;
#X connect 58 0 69 1;
#X connect 58 0 75 1;
#X connect 59 0 72 1;
#X connect 59 0 71 1;
#X connect 60 0 76 0;
#X connect 60 0 82 0;
#X connect 61 0 81 0;
#X connect 61 0 78 0;
#X connect 62 0 77 0;
#X connect 62 0 83 0;
#X connect 63 0 80 0;
#X connect 63 0 79 0;
#X connect 64 0 76 1;
#X connect 64 0 82 1;
#X connect 65 0 81 1;
#X connect 65 0 78 1;
#X connect 66 0 77 1;
#X connect 66 0 83 1;
#X connect 67 0 80 1;
#X connect 67 0 79 1;
#X connect 68 0 84 0;
#X connect 68 0 90 0;
#X connect 69 0 85 0;
#X connect 69 0 91 0;
#X connect 70 0 95 0;
#X connect 70 0 96 0;
#X connect 71 0 94 0;
#X connect 71 0 97 0;
#X connect 72 0 88 0;
#X connect 72 0 87 0;
#X connect 73 0 89 0;
#X connect 73 0 86 0;
#X connect 74 0 92 0;
#X connect 74 0 98 0;
#X connect 75 0 93 0;
#X connect 75 0 99 0;
#X connect 76 0 90 1;
#X connect 76 0 84 1;
#X connect 77 0 91 1;
#X connect 77 0 85 1;
#X connect 78 0 96 1;
#X connect 78 0 95 1;
#X connect 79 0 97 1;
#X connect 79 0 94 1;
#X connect 80 0 87 1;
#X connect 80 0 88 1;
#X connect 81 0 86 1;
#X connect 81 0 89 1;
#X connect 82 0 98 1;
#X connect 82 0 92 1;
#X connect 83 0 99 1;
#X connect 83 0 93 1;
#X connect 84 0 102 0;
#X connect 85 0 103 0;
#X connect 86 0 113 0;
#X connect 87 0 112 0;
#X connect 88 0 104 0;
#X connect 89 0 105 0;
#X connect 90 0 110 0;
#X connect 91 0 111 0;
#X connect 92 0 106 0;
#X connect 93 0 107 0;
#X connect 94 0 108 0;
#X connect 95 0 109 0;
#X connect 96 0 101 0;
#X connect 96 0 117 0;
#X connect 97 0 100 0;
#X connect 97 0 116 0;
#X connect 98 0 114 0;
#X connect 98 0 155 0;
#X connect 99 0 115 0;
#X connect 99 0 156 0;
#X connect 118 0 150 0;
#X connect 118 0 135 1;
#X connect 118 0 137 0;
#X connect 119 0 151 0;
#X connect 119 0 138 1;
#X connect 119 0 140 0;
#X connect 120 0 141 1;
#X connect 120 0 152 0;
#X connect 120 0 143 0;
#X connect 121 0 153 0;
#X connect 121 0 144 1;
#X connect 121 0 146 0;
#X connect 122 0 0 0;
#X connect 123 0 2 0;
#X connect 124 0 3 0;
#X connect 125 0 1 0;
#X connect 126 0 30 0;
#X connect 127 0 32 0;
#X connect 128 0 33 0;
#X connect 129 0 31 0;
#X connect 130 0 26 0;
#X connect 131 0 28 0;
#X connect 132 0 29 0;
#X connect 133 0 27 0;
#X connect 134 0 2 1;
#X connect 134 0 0 1;
#X connect 134 0 3 1;
#X connect 134 0 1 1;
#X connect 134 0 21 1;
#X connect 134 0 23 1;
#X connect 134 0 22 1;
#X connect 134 0 20 1;
#X connect 134 0 30 1;
#X connect 134 0 33 1;
#X connect 134 0 31 1;
#X connect 134 0 26 1;
#X connect 134 0 28 1;
#X connect 134 0 29 1;
#X connect 134 0 27 1;
#X connect 134 0 32 1;
#X connect 135 0 136 0;
#X connect 136 0 137 1;
#X connect 137 0 5 1;
#X connect 137 0 4 0;
#X connect 137 0 7 0;
#X connect 138 0 139 0;
#X connect 139 0 140 1;
#X connect 140 0 8 0;
#X connect 140 0 9 1;
#X connect 140 0 11 0;
#X connect 141 0 142 0;
#X connect 142 0 143 1;
#X connect 143 0 13 1;
#X connect 143 0 12 0;
#X connect 143 0 15 0;
#X connect 144 0 145 0;
#X connect 145 0 146 1;
#X connect 146 0 16 0;
#X connect 146 0 17 1;
#X connect 146 0 19 0;
#X connect 147 0 145 1;
#X connect 147 0 142 1;
#X connect 147 0 139 1;
#X connect 147 0 136 1;
#X connect 148 0 150 1;
#X connect 148 0 151 1;
#X connect 148 0 152 1;
#X connect 148 0 153 1;
#X connect 149 0 147 0;
#X connect 150 0 135 0;
#X connect 151 0 138 0;
#X connect 152 0 141 0;
#X connect 153 0 144 0;
#X connect 154 0 25 0;
#X connect 157 0 118 0;
#X connect 158 0 190 0;
#X connect 159 0 157 0;
#X connect 160 0 119 0;
#X connect 161 0 120 0;
#X connect 162 0 121 0;
#X connect 163 0 122 0;
#X connect 164 0 123 0;
#X connect 165 0 124 0;
#X connect 166 0 125 0;
#X connect 167 0 126 0;
#X connect 168 0 127 0;
#X connect 169 0 128 0;
#X connect 170 0 129 0;
#X connect 171 0 130 0;
#X connect 172 0 131 0;
#X connect 173 0 132 0;
#X connect 174 0 133 0;
#X connect 175 0 160 0;
#X connect 176 0 161 0;
#X connect 177 0 162 0;
#X connect 178 0 163 0;
#X connect 179 0 164 0;
#X connect 180 0 165 0;
#X connect 181 0 166 0;
#X connect 182 0 167 0;
#X connect 183 0 168 0;
#X connect 184 0 169 0;
#X connect 185 0 170 0;
#X connect 186 0 171 0;
#X connect 187 0 172 0;
#X connect 188 0 173 0;
#X connect 189 0 174 0;
#X connect 190 0 159 0;
#X connect 190 1 175 0;
#X connect 190 2 176 0;
#X connect 190 3 177 0;
#X connect 190 4 178 0;
#X connect 190 5 179 0;
#X connect 190 6 180 0;
#X connect 190 7 181 0;
#X connect 190 8 182 0;
#X connect 190 9 183 0;
#X connect 190 10 184 0;
#X connect 190 11 185 0;
#X connect 190 12 186 0;
#X connect 190 13 187 0;
#X connect 190 14 188 0;
#X connect 190 15 189 0;
#X restore 413 200 pd doit;
#X f 9;
#X obj 286 42 inlet~;
#X obj 355 40 inlet~;
#N canvas 45 146 400 576 early 0;
#X obj 84 10 inlet~;
#X obj 159 10 inlet~;
#N canvas 19 394 468 181 write1 0;
#X obj 83 25 inlet~;
#X obj 84 99 outlet~;
#X obj 116 66 delwrite~ \$0-early1 200;
#X connect 0 0 1 0;
#X connect 0 0 2 0;
#X restore 160 111 pd write1;
#N canvas 323 263 472 159 read1 0;
#X obj 77 12 inlet~;
#X obj 77 114 outlet~;
#X obj 77 89 delread4~ \$0-early1 1.42763;
#N canvas 681 303 450 300 read 0;
#X obj 115 105 change;
#X obj 115 128 pack 0 50;
#X obj 115 151 line~;
#X obj 115 174 outlet~;
#X obj 115 59 inlet;
#X obj 177 127 r \$0-transition;
#X obj 115 82 tabread \$0-early;
#X connect 0 0 1 0;
#X connect 1 0 2 0;
#X connect 2 0 3 0;
#X connect 4 0 6 0;
#X connect 5 0 1 1;
#X connect 6 0 0 0;
#X restore 147 57 pd read;
#X obj 147 36 f 1;
#X obj 147 13 bang~;
#X connect 2 0 1 0;
#X connect 3 0 2 0;
#X connect 4 0 3 0;
#X connect 5 0 4 0;
#X restore 160 136 pd read1;
#X obj 84 165 +~;
#X obj 138 166 -~;
#X obj 82 249 +~;
#X obj 136 250 -~;
#X obj 84 333 +~;
#X obj 138 334 -~;
#N canvas 20 395 468 181 write2 0;
#X obj 83 25 inlet~;
#X obj 84 99 outlet~;
#X obj 116 65 delwrite~ \$0-early2 200;
#X connect 0 0 1 0;
#X connect 0 0 2 0;
#X restore 158 195 pd write2;
#N canvas 322 262 472 159 read2 0;
#X obj 77 12 inlet~;
#X obj 77 119 outlet~;
#X obj 77 94 delread4~ \$0-early2 3.23873;
#N canvas 681 303 450 300 read 0;
#X obj 115 105 change;
#X obj 115 128 pack 0 50;
#X obj 115 151 line~;
#X obj 115 174 outlet~;
#X obj 115 59 inlet;
#X obj 177 127 r \$0-transition;
#X obj 115 82 tabread \$0-early;
#X connect 0 0 1 0;
#X connect 1 0 2 0;
#X connect 2 0 3 0;
#X connect 4 0 6 0;
#X connect 5 0 1 1;
#X connect 6 0 0 0;
#X restore 147 57 pd read;
#X obj 147 13 bang~;
#X obj 147 36 f 2;
#X connect 2 0 1 0;
#X connect 3 0 2 0;
#X connect 4 0 5 0;
#X connect 5 0 3 0;
#X restore 158 220 pd read2;
#N canvas 19 394 468 181 write3 0;
#X obj 83 25 inlet~;
#X obj 84 99 outlet~;
#X obj 116 66 delwrite~ \$0-early3 200;
#X connect 0 0 1 0;
#X connect 0 0 2 0;
#X restore 160 280 pd write3;
#N canvas 322 262 472 159 read3 0;
#X obj 77 12 inlet~;
#X obj 78 122 outlet~;
#X obj 78 97 delread4~ \$0-early3 5.2345;
#N canvas 681 303 450 300 read 0;
#X obj 115 105 change;
#X obj 115 128 pack 0 50;
#X obj 115 151 line~;
#X obj 115 174 outlet~;
#X obj 115 59 inlet;
#X obj 177 127 r \$0-transition;
#X obj 115 82 tabread \$0-early;
#X connect 0 0 1 0;
#X connect 1 0 2 0;
#X connect 2 0 3 0;
#X connect 4 0 6 0;
#X connect 5 0 1 1;
#X connect 6 0 0 0;
#X restore 147 57 pd read;
#X obj 147 13 bang~;
#X obj 147 36 f 3;
#X connect 2 0 1 0;
#X connect 3 0 2 0;
#X connect 4 0 5 0;
#X connect 5 0 3 0;
#X restore 160 304 pd read3;
#N canvas 20 395 468 181 write4 0;
#X obj 83 25 inlet~;
#X obj 84 99 outlet~;
#X obj 117 66 delwrite~ \$0-early4 200;
#X connect 0 0 1 0;
#X connect 0 0 2 0;
#X restore 153 364 pd write4;
#N canvas 321 261 472 159 read4 0;
#X obj 77 12 inlet~;
#X obj 78 122 outlet~;
#X obj 78 97 delread4~ \$0-early4 7.82312;
#N canvas 681 303 450 300 read 0;
#X obj 115 105 change;
#X obj 115 128 pack 0 50;
#X obj 115 151 line~;
#X obj 115 174 outlet~;
#X obj 115 59 inlet;
#X obj 177 127 r \$0-transition;
#X obj 115 82 tabread \$0-early;
#X connect 0 0 1 0;
#X connect 1 0 2 0;
#X connect 2 0 3 0;
#X connect 4 0 6 0;
#X connect 5 0 1 1;
#X connect 6 0 0 0;
#X restore 147 57 pd read;
#X obj 147 13 bang~;
#X obj 147 36 f 4;
#X connect 2 0 1 0;
#X connect 3 0 2 0;
#X connect 4 0 5 0;
#X connect 5 0 3 0;
#X restore 153 389 pd read4;
#X obj 84 450 outlet~;
#X obj 174 453 outlet~;
#X obj 84 425 *~ 0.3535;
#X obj 173 428 *~ 0.3535;
#N canvas 61 282 468 181 writepre 0;
#X obj 83 25 inlet~;
#X obj 84 115 outlet~;
#X obj 247 26 inlet~;
#X obj 247 118 outlet~;
#X obj 116 66 delwrite~ \$0-pre-l 200;
#X obj 280 67 delwrite~ \$0-pre-r 200;
#X connect 0 0 1 0;
#X connect 0 0 4 0;
#X connect 2 0 3 0;
#X connect 2 0 5 0;
#X restore 84 46 pd writepre;
#N canvas 323 263 472 159 readpre 0;
#X obj 77 12 inlet~;
#X obj 77 121 outlet~;
#X obj 247 123 outlet~;
#X obj 77 96 delread4~ \$0-pre-l 0;
#X obj 247 98 delread4~ \$0-pre-r 0;
#X obj 121 12 inlet~;
#N canvas 681 303 450 300 read 0;
#X obj 115 105 change;
#X obj 115 128 pack 0 50;
#X obj 115 151 line~;
#X obj 115 174 outlet~;
#X obj 115 59 inlet;
#X obj 177 127 r \$0-transition;
#X obj 115 82 tabread \$0-early;
#X connect 0 0 1 0;
#X connect 1 0 2 0;
#X connect 2 0 3 0;
#X connect 4 0 6 0;
#X connect 5 0 1 1;
#X connect 6 0 0 0;
#X restore 247 52 pd read;
#X obj 247 8 bang~;
#X obj 247 31 f 0;
#X connect 3 0 1 0;
#X connect 4 0 2 0;
#X connect 6 0 4 0;
#X connect 6 0 3 0;
#X connect 7 0 8 0;
#X connect 8 0 6 0;
#X restore 84 71 pd readpre;
#X connect 0 0 20 0;
#X connect 1 0 20 1;
#X connect 2 0 3 0;
#X connect 3 0 5 1;
#X connect 3 0 4 1;
#X connect 4 0 6 0;
#X connect 4 0 7 0;
#X connect 5 0 10 0;
#X connect 6 0 8 0;
#X connect 6 0 9 0;
#X connect 7 0 12 0;
#X connect 8 0 18 0;
#X connect 9 0 14 0;
#X connect 10 0 11 0;
#X connect 11 0 7 1;
#X connect 11 0 6 1;
#X connect 12 0 13 0;
#X connect 13 0 9 1;
#X connect 13 0 8 1;
#X connect 14 0 15 0;
#X connect 15 0 19 0;
#X connect 18 0 16 0;
#X connect 19 0 17 0;
#X connect 20 0 21 0;
#X connect 20 1 21 1;
#X connect 21 0 4 0;
#X connect 21 0 5 0;
#X connect 21 1 2 0;
#X restore 413 167 pd early;
#X obj 464 118 +~;
#X obj 465 140 clip~ 0 0.25;
#X obj 517 58 *~ 0.01;
#N canvas 220 279 662 300 in 0;
#X obj 112 0 inlet;
#X obj 202 200 s \$0-drywetr;
#X obj 240 225 s \$0-lopr;
#X obj 211 247 s \$0-feedbackr;
#X obj 420 227 s \$0-curver;
#X obj 461 251 s \$0-sloper;
#X obj 124 279 array set \$0-early;
#X obj 173 306 array set \$0-tail;
#X obj 144 77 r \$0-preset;
#X obj 173 244 list;
#X obj 161 201 t b a;
#X obj 161 224 del 1;
#X obj 495 214 s \$0-widthr;
#N canvas 698 546 200 251 route 0;
#X obj 20 20 inlet;
#X obj 30 60 route save recall;
#X obj 30 85 route float;
#X obj 97 111 route float;
#X obj 30 136 s \$0-save;
#X obj 30 108 i;
#X obj 98 133 i;
#X obj 98 161 s \$0-recall;
#X connect 0 0 1 0;
#X connect 1 0 2 0;
#X connect 1 1 3 0;
#X connect 2 0 5 0;
#X connect 3 0 6 0;
#X connect 5 0 4 0;
#X connect 6 0 7 0;
#X restore 140 28 pd route save-recall;
#X obj 321 247 s \$0-hf-dampingr;
#X obj 266 271 s \$0-hipr;
#X obj 335 274 s \$0-lf-dampingr;
#N canvas 362 125 450 479 recall 0;
#X obj 49 145 outlet;
#N canvas 3 54 450 600 listsplit 0;
#X obj 158 23 inlet;
#X obj 220 87 list length;
#X obj 220 113 until;
#X obj 182 150 f;
#X obj 278 150 + 1;
#X msg 265 111 0;
#X obj 182 226 list store;
#X msg 182 202 get \$1 1;
#X obj 154 367 list split;
#X obj 222 342 f;
#X obj 154 334 list;
#X obj 98 124 list;
#X obj 182 389 list split 1;
#X obj 154 274 t bang bang bang;
#X obj 182 179 t f f;
#X obj 158 48 t l l l b;
#X obj 154 473 outlet;
#X obj 154 440 list trim;
#X obj 163 248 sel |;
#X text 275 197 hacky split list at "|";
#X connect 0 0 15 0;
#X connect 1 0 2 0;
#X connect 2 0 3 0;
#X connect 3 0 4 0;
#X connect 3 0 14 0;
#X connect 4 0 3 1;
#X connect 5 0 3 1;
#X connect 6 0 18 0;
#X connect 7 0 6 0;
#X connect 8 0 17 0;
#X connect 8 1 12 0;
#X connect 9 0 8 1;
#X connect 10 0 8 0;
#X connect 11 0 15 0;
#X connect 12 1 11 0;
#X connect 13 0 10 0;
#X connect 13 1 9 0;
#X connect 13 2 2 1;
#X connect 14 0 7 0;
#X connect 14 1 9 1;
#X connect 15 0 1 0;
#X connect 15 1 10 1;
#X connect 15 2 6 1;
#X connect 15 3 5 0;
#X connect 17 0 16 0;
#X connect 18 0 13 0;
#X restore 49 117 pd listsplit;
#X obj 49 24 r \$0-recall;
#X obj 49 54 pipe 1;
#X obj 221 409 text fromlist \$0-savestates;
#X obj 49 77 text get \$0-savestates;
#X msg 253 246 21;
#X obj 253 269 until;
#X obj 253 292 f;
#X obj 300 295 + 1;
#X obj 253 315 t b f;
#X obj 253 367 text set \$0-savestates;
#X obj 221 114 text tolist \$0-savestates;
#X msg 253 342 list empty_slot;
#X obj 221 160 t a b;
#X obj 151 166 loadbang;
#X obj 221 137 savestate;
#X obj 221 33 text define \$0-savestates;
#X obj 151 189 del 0;
#X msg 298 199 0;
#X obj 253 220 spigot 1;
#X connect 1 0 0 0;
#X connect 2 0 3 0;
#X connect 3 0 5 0;
#X connect 5 0 1 0;
#X connect 6 0 7 0;
#X connect 7 0 8 0;
#X connect 8 0 9 0;
#X connect 8 0 10 0;
#X connect 9 0 8 1;
#X connect 10 0 13 0;
#X connect 10 1 11 1;
#X connect 12 0 16 0;
#X connect 13 0 11 0;
#X connect 14 0 4 0;
#X connect 14 1 19 0;
#X connect 15 0 18 0;
#X connect 16 0 14 0;
#X connect 16 1 12 0;
#X connect 18 0 20 0;
#X connect 19 0 20 1;
#X connect 20 0 6 0;
#X restore 140 50 pd recall;
#X obj 124 244 list;
#X obj 112 201 t b a;
#X obj 112 224 del 1;
#X obj 386 204 s \$0-centerr;
#X obj 112 102 route early tail dry/wet feedback lop-frequency hip-frequency
hf-damping lf-damping center curve slope width transition-time, f
76;
#X obj 530 165 s \$0-transition;
#X obj 530 142 max 0;
#X obj 495 194 clip 0 200;
#X connect 0 0 13 0;
#X connect 0 0 22 0;
#X connect 8 0 22 0;
#X connect 9 0 7 0;
#X connect 10 0 11 0;
#X connect 10 1 9 1;
#X connect 11 0 9 0;
#X connect 17 0 22 0;
#X connect 18 0 6 0;
#X connect 19 0 20 0;
#X connect 19 1 18 1;
#X connect 20 0 18 0;
#X connect 22 0 19 0;
#X connect 22 1 10 0;
#X connect 22 2 1 0;
#X connect 22 3 3 0;
#X connect 22 4 2 0;
#X connect 22 5 15 0;
#X connect 22 6 14 0;
#X connect 22 7 16 0;
#X connect 22 8 21 0;
#X connect 22 9 4 0;
#X connect 22 10 5 0;
#X connect 22 11 25 0;
#X connect 22 12 24 0;
#X connect 24 0 23 0;
#X connect 25 0 12 0;
#X restore 739 104 pd in;
#N canvas 50 60 475 205 \$0-rev~ 0;
#N canvas 423 168 866 485 mask 0;
#X obj 100 100 cnv 15 459 189 empty empty empty 2 2 0 14 -262144 -66577
0;
#X obj 218 179 nbx 4 12 0 100 0 0 \$0-hf-damping \$0-hf-dampingr %
41 7 2 10 -262144 -1 -1 50 256;
#X obj 112 179 hsl 100 12 0 100 0 0 \$0-hfdgui \$0-hfdguir HF-Damping
-2 -6 2 10 -262144 -1 -1 4950 1;
#X msg 46 175 set \$1;
#X obj 218 154 nbx 5 12 0 20000 0 0 \$0-lop \$0-lopr hz. 50 7 2 10
-262144 -1 -1 3000 256;
#X obj 112 154 hsl 100 12 0 1 0 0 \$0-lopgui \$0-lopguir Lop-Frequency
-2 -6 2 10 -262144 -1 -1 4427 1;
#N canvas 439 215 450 300 map 0;
#X obj 105 33 inlet;
#X msg 105 180 set \$1;
#X obj 105 205 outlet;
#X obj 200 207 outlet;
#X obj 200 41 inlet;
#X obj 105 92 sqrt;
#X obj 104 66 / 15000;
#X obj 200 102 pow 2;
#X obj 200 128 * 15000;
#X connect 0 0 6 0;
#X connect 1 0 2 0;
#X connect 4 0 7 0;
#X connect 5 0 1 0;
#X connect 6 0 5 0;
#X connect 7 0 8 0;
#X connect 8 0 3 0;
#X restore 45 151 pd map;
#X obj 218 128 nbx 4 12 0 100 0 0 \$0-feedback \$0-feedbackr % 41 7
2 10 -262144 -1 -1 50 256;
#X obj 112 128 hsl 100 12 0 100 0 0 \$0-fbgui \$0-fbuir Feedback -2
-6 2 10 -262144 -1 -1 4950 1;
#X msg 45 125 set \$1;
#X obj 378 129 cnv 15 152 102 empty empty empty 20 12 0 14 -128992
-66577 0;
#N canvas 3 54 450 300 mask 0;
#X obj 100 100 cnv 15 150 100 empty empty empty 20 12 0 14 -262144
-66577 0;
#N canvas 0 50 450 250 (subpatch) 0;
#X array \$0-tail 16 float 3;
#A 0 10 11.6356 13.4567 16.7345 20.1862 25.7417 31.4693 38.2944 46.6838
55.4567 65.1755 76.8243 88.5623 101.278 115.397 130.502;
#X coords 0 200 16 0 150 100 1 0 0;
#X restore 100 100 graph;
#X coords 0 -1 1 1 150 100 1 100 100;
#X restore 379 130 pd mask;
#X obj 532 126 cnv 10 10 10 empty empty 200 0 5 2 10 -262144 -1 0;
#X obj 532 221 cnv 10 10 10 empty empty 0ms 0 5 2 10 -262144 -1 0;
#X obj 379 113 cnv 10 100 15 empty empty Tail 0 5 2 10 -262144 -1 0
;
#X obj 342 238 nbx 4 12 -1e+24 1e+24 0 0 \$0-center \$0-centerr Center
41 7 2 10 -262144 -1 -1 75 256;
#X obj 487 238 nbx 4 12 -1e+24 1e+24 0 0 \$0-slope \$0-sloper Slope
41 7 2 10 -262144 -1 -1 130 256;
#X obj 416 238 nbx 4 12 -1e+24 1e+24 0 0 \$0-curve \$0-curver Curve
41 7 2 10 -262144 -1 -1 10 256;
#X obj 285 129 cnv 15 72 102 empty empty empty 20 12 0 14 -128992 -66577
0;
#N canvas 3 52 450 300 mask 0;
#X obj 100 100 cnv 15 70 100 empty empty empty 20 12 0 14 -262144 -66577
0;
#N canvas 0 50 450 250 (subpatch) 0;
#X array \$0-early 5 float 3;
#A 0 0 1.42763 3.23873 5.2345 7.82312;
#X coords 0 40 5 0 70 100 1 0 0;
#X restore 100 100 graph;
#X coords 0 -1 1 1 70 100 1 100 100;
#X restore 286 130 pd mask;
#X obj 359 222 cnv 10 10 10 empty empty 0ms 0 5 2 10 -262144 -1 0;
#X obj 286 113 cnv 10 60 15 empty empty Early 0 5 2 10 -262144 -1 0
;
#X obj 182 109 cnv 10 10 10 empty empty rev~ 0 5 2 17 -262144 -162280
0;
#X obj 359 124 cnv 10 10 10 empty empty 40 0 5 2 10 -262144 -1 0;
#X obj 397 271 hradio 11 1 0 8 \$0-presetrd \$0-presetrdr Preset:Miller
0 -8 2 10 -262144 -1 -1 0;
#X obj 217 256 nbx 4 12 0 200 0 0 \$0-width \$0-widthr % 41 7 2 10
-262144 -1 -1 100 256;
#X obj 111 256 hsl 100 12 0 100 0 0 \$0-wgui \$0-wguir Width -2 -6
2 10 -262144 -1 -1 9900 1;
#X msg 53 253 set \$1;
#X obj 499 270 nbx 4 12 0 100 0 0 \$0-drywet \$0-drywetr % 41 7 2 10
-262144 -1 -1 100 256;
#X obj 499 258 cnv 10 10 10 empty empty Dry/Wet 0 5 2 10 -262144 -1
0;
#X obj 217 230 nbx 4 12 0 100 0 0 \$0-lf-damping \$0-lf-dampingr %
41 7 2 10 -262144 -1 -1 0 256;
#X obj 111 230 hsl 100 12 0 100 0 0 \$0-lfdgui \$0-lfdguir LF-Damping
-2 -6 2 10 -262144 -1 -1 0 1;
#X obj 217 205 nbx 5 12 0 20000 0 0 \$0-hip \$0-hipr hz. 50 7 2 10
-262144 -1 -1 0 256;
#X obj 111 205 hsl 100 12 0 1 0 0 \$0-hipgui \$0-hipguir Hip-Frequency
-2 -6 2 10 -262144 -1 -1 0 1;
#X msg 47 230 set \$1;
#N canvas 439 215 450 300 map 0;
#X obj 105 33 inlet;
#X msg 105 180 set \$1;
#X obj 105 205 outlet;
#X obj 200 207 outlet;
#X obj 200 41 inlet;
#X obj 105 92 sqrt;
#X obj 104 66 / 15000;
#X obj 200 102 pow 2;
#X obj 200 128 * 15000;
#X connect 0 0 6 0;
#X connect 1 0 2 0;
#X connect 4 0 7 0;
#X connect 5 0 1 0;
#X connect 6 0 5 0;
#X connect 7 0 8 0;
#X connect 8 0 3 0;
#X restore 46 202 pd map;
#X connect 1 0 3 0;
#X connect 2 0 1 0;
#X connect 3 0 2 0;
#X connect 4 0 6 0;
#X connect 5 0 6 1;
#X connect 6 0 5 0;
#X connect 6 1 4 0;
#X connect 7 0 9 0;
#X connect 8 0 7 0;
#X connect 9 0 8 0;
#X connect 25 0 27 0;
#X connect 26 0 25 0;
#X connect 27 0 26 0;
#X connect 30 0 34 0;
#X connect 31 0 30 0;
#X connect 32 0 35 0;
#X connect 33 0 32 0;
#X connect 33 0 35 1;
#X connect 34 0 31 0;
#X connect 35 0 33 0;
#X connect 35 1 32 0;
#X coords 0 -1 1 1 460 190 2 100 100;
#X restore 7 8 pd mask;
#X restore 739 292 pd \$0-rev~;
#X obj 739 37 inlet;
#X obj 736 413 outlet;
#N canvas 307 172 996 559 outlet-message 0;
#N canvas 105 314 986 300 bang_once.......................................
0;
#X obj 174 87 t b f;
#X obj 132 87 t b f;
#X obj 89 139 del 0;
#X obj 89 87 t b f;
#X obj 217 87 t b f;
#X obj 261 87 t b f;
#X obj 303 87 t b f;
#X obj 89 41 inlet;
#X obj 132 40 inlet;
#X obj 174 40 inlet;
#X obj 217 40 inlet;
#X obj 261 41 inlet;
#X obj 304 41 inlet;
#X obj 89 247 outlet;
#X obj 89 173 f;
#X obj 345 87 t b f;
#X obj 346 41 inlet;
#X obj 389 88 t b f;
#X obj 390 42 inlet;
#X obj 428 87 t b f;
#X obj 429 41 inlet;
#X obj 28 49 inlet;
#X obj 469 88 t b f;
#X obj 470 42 inlet;
#X obj 89 206 pack 0 0 0 0 0 0 0 0 0 0 0, f 49;
#X obj 512 89 t b f;
#X obj 513 43 inlet;
#X connect 0 0 2 0;
#X connect 0 1 24 2;
#X connect 1 0 2 0;
#X connect 1 1 24 1;
#X connect 2 0 14 0;
#X connect 3 0 2 0;
#X connect 3 1 14 1;
#X connect 4 0 2 0;
#X connect 4 1 24 3;
#X connect 5 0 2 0;
#X connect 5 1 24 4;
#X connect 6 0 2 0;
#X connect 6 1 24 5;
#X connect 7 0 3 0;
#X connect 8 0 1 0;
#X connect 9 0 0 0;
#X connect 10 0 4 0;
#X connect 11 0 5 0;
#X connect 12 0 6 0;
#X connect 14 0 24 0;
#X connect 15 0 2 0;
#X connect 15 1 24 6;
#X connect 16 0 15 0;
#X connect 17 0 2 0;
#X connect 17 1 24 7;
#X connect 18 0 17 0;
#X connect 19 0 2 0;
#X connect 19 1 24 8;
#X connect 20 0 19 0;
#X connect 21 0 14 0;
#X connect 22 0 2 0;
#X connect 22 1 24 9;
#X connect 23 0 22 0;
#X connect 24 0 13 0;
#X connect 25 0 2 0;
#X connect 25 1 24 10;
#X connect 26 0 25 0;
#X restore 241 182 pd bang_once.......................................
;
#X obj 326 543 list trim;
#X msg 246 541 addcomma;
#X msg 148 480 set;
#X obj 326 520 list prepend add2;
#X obj 292 600 outlet;
#X obj 241 207 t a b b;
#X obj 384 248 array get \$0-early;
#X obj 314 294 list prepend;
#X obj 245 319 list prepend;
#X obj 195 20 r \$0-drywet;
#X obj 232 40 r \$0-feedback;
#X obj 270 61 r \$0-lop;
#X obj 471 74 r \$0-curve;
#X obj 509 97 r \$0-slope;
#X obj 93 73 metro 1000;
#X obj 314 271 array get \$0-tail;
#X obj 550 125 r \$0-width;
#X obj 245 349 t b a b;
#X obj 279 466 t b a a;
#X obj 308 82 r \$0-hf-damping;
#X obj 357 103 r \$0-hip;
#X obj 403 124 r \$0-lf-damping;
#N canvas 497 319 297 264 save 0;
#X obj 48 16 inlet;
#N canvas 690 259 481 384 collect 0;
#X obj 47 60 inlet;
#X obj 47 274 outlet;
#X obj 98 180 list;
#X obj 166 181 t l;
#X obj 47 225 list;
#X obj 98 139 list append |;
#X obj 47 126 del 0;
#X obj 47 82 t b a;
#X text 119 75 hacky thing... replaycing " \, " with "|";
#X connect 0 0 7 0;
#X connect 2 0 3 0;
#X connect 2 0 4 1;
#X connect 3 0 2 1;
#X connect 4 0 1 0;
#X connect 5 0 2 0;
#X connect 6 0 2 1;
#X connect 6 0 4 0;
#X connect 7 0 6 0;
#X connect 7 1 5 0;
#X restore 48 38 pd collect;
#X obj 117 16 r \$0-save;
#X obj 27 130 text set \$0-savestates;
#X obj 27 104 list;
#X obj 117 62 t b f;
#X obj 117 39 clip 0 20;
#X connect 0 0 1 0;
#X connect 1 0 4 1;
#X connect 2 0 6 0;
#X connect 4 0 3 0;
#X connect 5 0 4 0;
#X connect 5 1 3 1;
#X connect 6 0 5 0;
#X restore 346 489 pd save;
#X obj 434 53 r \$0-center;
#X obj 93 50 loadbang;
#X obj 557 159 r \$0-transition;
#X msg 278 387 dry/wet \$22 \, feedback \$23 \, lop-frequency \$24
\, hf-damping \$25 \, hip-frequency \$26 \, lf-damping \$27 \, center
\$28 \, curve \$29 \, slope \$30 \, width \$31 \, transition-time \$32
\, early \$1 \$2 \$3 \$4 \$5 \, tail \$6 \$7 \$8 \$9 \$10 \$11 \$12
\$13 \$14 \$15 \$16 \$17 \$18 \$19 \$20 \$21;
#X connect 0 0 6 0;
#X connect 1 0 5 0;
#X connect 2 0 5 0;
#X connect 3 0 5 0;
#X connect 4 0 1 0;
#X connect 6 0 9 0;
#X connect 6 1 16 0;
#X connect 6 2 7 0;
#X connect 7 0 8 1;
#X connect 8 0 9 1;
#X connect 9 0 18 0;
#X connect 10 0 0 1;
#X connect 11 0 0 2;
#X connect 12 0 0 3;
#X connect 13 0 0 8;
#X connect 14 0 0 9;
#X connect 15 0 0 0;
#X connect 16 0 8 0;
#X connect 17 0 0 10;
#X connect 18 0 5 0;
#X connect 18 1 27 0;
#X connect 18 2 3 0;
#X connect 19 0 2 0;
#X connect 19 1 4 0;
#X connect 19 2 23 0;
#X connect 20 0 0 4;
#X connect 21 0 0 5;
#X connect 22 0 0 6;
#X connect 24 0 0 7;
#X connect 25 0 15 0;
#X connect 26 0 0 11;
#X connect 27 0 19 0;
#X restore 736 387 pd outlet-message;
#N canvas 146 237 1035 349 stuff 0;
#X obj 153 168 s \$0-visbngr;
#X obj 135 63 r \$0-visbng;
#X msg 133 140 color 0 0;
#X msg 217 140 color 10 10;
#X obj 135 85 t b;
#X obj 215 115 del 250;
#X obj 99 213 s pd-\$0-rev~;
#X obj 368 62 / 100;
#X obj 368 85 clip 0 1;
#X obj 574 36 r \$0-feedback;
#X obj 574 59 / 100;
#X obj 574 82 sqrt;
#X obj 574 105 sqrt;
#X obj 574 128 / 4;
#X obj 574 187 s \$0-feed;
#X obj 784 35 r \$0-presetrd;
#X obj 784 58 sel 0 1 2 3 4 5 6 7;
#X obj 784 261 s \$0-presetrdr;
#X msg 784 85 label Preset:Miller;
#X msg 797 108 label Preset:Room;
#X msg 812 131 label Preset:Large;
#X msg 822 156 label Preset:Vessel;
#X msg 837 179 label Preset:Reflections;
#X msg 853 201 label Preset:Vibrant;
#X msg 864 221 label Preset:Bathroom;
#X msg 879 241 label Preset:Plate;
#X obj 368 143 s \$0-ldamp;
#X obj 366 203 / 100;
#X obj 366 226 clip 0 1;
#X obj 366 284 s \$0-hdamp;
#X obj 368 39 r \$0-hf-damping;
#X obj 366 180 r \$0-lf-damping;
#X msg 99 191 relocate 475x205+1+1 1x1+50+60 \, vis 1;
#X obj 366 257 pack 0 50;
#X obj 428 257 r \$0-transition;
#X obj 368 114 pack 0 50;
#X obj 430 114 r \$0-transition;
#X obj 574 158 pack 0 50;
#X obj 636 158 r \$0-transition;
#X connect 1 0 4 0;
#X connect 2 0 0 0;
#X connect 3 0 0 0;
#X connect 4 0 2 0;
#X connect 4 0 5 0;
#X connect 4 0 32 0;
#X connect 5 0 3 0;
#X connect 7 0 8 0;
#X connect 8 0 35 0;
#X connect 9 0 10 0;
#X connect 10 0 11 0;
#X connect 11 0 12 0;
#X connect 12 0 13 0;
#X connect 13 0 37 0;
#X connect 15 0 16 0;
#X connect 16 0 18 0;
#X connect 16 1 19 0;
#X connect 16 2 20 0;
#X connect 16 3 21 0;
#X connect 16 4 22 0;
#X connect 16 5 23 0;
#X connect 16 6 24 0;
#X connect 16 7 25 0;
#X connect 18 0 17 0;
#X connect 19 0 17 0;
#X connect 20 0 17 0;
#X connect 21 0 17 0;
#X connect 22 0 17 0;
#X connect 23 0 17 0;
#X connect 24 0 17 0;
#X connect 25 0 17 0;
#X connect 27 0 28 0;
#X connect 28 0 33 0;
#X connect 30 0 7 0;
#X connect 31 0 27 0;
#X connect 32 0 6 0;
#X connect 33 0 29 0;
#X connect 34 0 33 1;
#X connect 35 0 26 0;
#X connect 36 0 35 1;
#X connect 37 0 14 0;
#X connect 38 0 37 1;
#X restore 739 247 pd stuff;
#N canvas 247 128 888 623 init&presets 0;
#X obj 362 615 s \$0-preset;
#X obj 33 125 loadbang;
#X text 465 -15 room;
#X text 467 74 large;
#X text 473 350 vibrant;
#X text 469 439 bathroom;
#X text 471 522 plate;
#X obj 161 41 sel 0 1 2 3 4 5 6 7;
#X text 162 206 miller's original rev3~;
#X obj 161 4 r \$0-presetrd;
#X text 470 265 reflections;
#X msg 467 5 feedback 50 \, lop-frequency 300 \, hf-damping 98 \, hip-frequency
0 \, lf-damping 0 \, center 35 \, curve 10 \, slope 60 \, width 100
\, early 0 1.19999 1.6 1.2 1.6 \, tail 5 5.26667 6.06667 7.4 9.26667
11.6667 14.6 18.0667 22.0667 26.6 31.6667 37.2667 43.4 50.0667 57.2667
65 \,;
#X text 471 175 vessel;
#X msg 466 191 feedback 90 \, lop-frequency 500 \, hf-damping 98 \,
hip-frequency 60 \, lf-damping 50 \, center 55 \, curve -10 \, slope
-65 \, width 100 \, early 10 7.59999 9.6 7.19999 5.19999 \, tail 85
68.2171 61.2654 55.9311 51.4341 47.4722 43.8904 40.5965 37.5307 34.6512
31.9277 29.3373 26.8622 24.4883 22.204 20 \,;
#X msg 470 280 feedback 60 \, lop-frequency 600 \, hf-damping 98 \,
hip-frequency 60 \, lf-damping 100 \, center 125 \, curve 0 \, slope
0 \, width 100 \, early 30 0.399994 0.399994 0.399994 0.399994 \, tail
0 7.57399 29.1429 61.423 99.5 137.577 169.857 191.426 199 191.426 169.857
137.577 99.5 61.423 29.1429 0 \,;
#X msg 469 368 feedback 45 \, lop-frequency 150 \, hf-damping 98 \,
hip-frequency 60 \, lf-damping 0 \, center 100 \, curve 12 \, slope
-12 \, width 100 \, early 33 0.799999 1.2 0.400002 1.6 \, tail 99 98.969
98.8574 98.6521 98.3449 97.9297 97.4015 96.7561 95.9899 95.0996 94.0821
92.9348 91.6552 90.241 88.6899 87 \,;
#X msg 470 453 feedback 50 \, lop-frequency 3000 \, hf-damping 98 \,
hip-frequency 60 \, lf-damping 0 \, center 17 \, curve 11 \, slope
-13 \, width 100 \, early 0 2.8 4.4 4 2.4 \, tail 23 22.9559 22.8111
22.5573 22.19 21.7058 21.1021 20.3766 19.5275 18.5531 17.4518 16.2224
14.8636 13.3743 11.7534 10 \,;
#X msg 469 539 feedback 86.8687 \, lop-frequency 1770 \, hf-damping
100 \, hip-frequency 100 \, lf-damping 90 \, center 30 \, curve -22
\, slope -37 \, width 100 \, early 4 -3.8147e-06 -7.62939e-06 0.400002
0 \, tail 46 30.1265 26.2873 23.6245 21.5197 19.7517 18.2128 16.8414
15.5989 14.4591 13.4033 12.4179 11.4922 10.6182 9.78919 20 \,;
#X msg 33 226 feedback 50 \, lop-frequency 3000 \, hf-damping 50 \,
hip-frequency 0 \, lf-damping 0 \, center 75 \, curve 10 \, slope 130
\, width 100 \, early 0 1.42763 3.23873 5.2345 7.82312 \, tail 10 11.6356
13.4567 16.7345 20.1862 25.7417 31.4693 38.2944 46.6838 55.4567 65.1755
76.8243 88.5623 101.278 115.397 130.502 \,;
#X msg 95 171 dry/wet 100 \, transition-time 50;
#X msg 467 92 feedback 65 \, lop-frequency 2500 \, hf-damping 72.7273
\, hip-frequency 200 \, lf-damping 50 \, center 100 \, curve 7 \, slope
180 \, width 100 \, early 40 7.59999 17.2 25.2 32.3 \, tail 10 11.8027
15.8569 21.6687 29.0292 37.8078 47.9118 59.2702 71.8259 85.5318 100.348
116.239 133.176 151.131 170.079 190 \,;
#X connect 1 0 18 0;
#X connect 1 0 19 0;
#X connect 7 0 18 0;
#X connect 7 1 11 0;
#X connect 7 2 20 0;
#X connect 7 3 13 0;
#X connect 7 4 14 0;
#X connect 7 5 15 0;
#X connect 7 6 16 0;
#X connect 7 7 17 0;
#X connect 9 0 7 0;
#X connect 11 0 0 0;
#X connect 13 0 0 0;
#X connect 14 0 0 0;
#X connect 15 0 0 0;
#X connect 16 0 0 0;
#X connect 17 0 0 0;
#X connect 18 0 0 0;
#X connect 19 0 0 0;
#X connect 20 0 0 0;
#X restore 739 270 pd init&presets;
#X obj 443 58 r \$0-feed;
#X text 739 462 philipp schmalfuß \, 2018/19;
#X obj 287 431 outlet~;
#X obj 353 432 outlet~;
#N canvas 2 57 450 300 4ch-width 0;
#N canvas 244 228 868 428 width 0;
#X obj 329 18 inlet~;
#X obj 404 18 r \$0-width;
#X obj 404 41 / 100;
#X obj 330 44 *~ 0.01;
#X obj 404 66 - 1;
#X obj 72 195 +~;
#X obj 194 194 -~;
#X obj 73 340 +~;
#X obj 181 342 -~;
#X obj 404 111 line~;
#X obj 331 128 +~;
#X obj 71 218 *~ 0.707107;
#X obj 195 217 *~ 0.707107;
#X obj 72 260 *~;
#X obj 146 157 sig~ 1;
#X obj 146 180 -~;
#X obj 147 265 *~ 2;
#X obj 332 257 *~ 2;
#X obj 196 265 *~;
#X obj 332 226 clip~ 0 1;
#X obj 223 163 clip~ 0 1;
#X obj 331 197 +~ 1;
#X text 289 335 based on Robin Schmidt's stereo processing tutorial:
http://www.rs-met.com/documents/tutorials/StereoProcessing.pdf, f
63;
#X obj 74 362 *~ 0.353554;
#X obj 182 365 *~ 0.353554;
#X obj 74 385 outlet~;
#X obj 183 388 outlet~;
#X obj 72 22 inlet~;
#X obj 189 18 inlet~;
#X obj 404 89 pack 0 50;
#X obj 466 89 r \$0-transition;
#X connect 0 0 3 0;
#X connect 1 0 2 0;
#X connect 2 0 4 0;
#X connect 3 0 10 0;
#X connect 4 0 29 0;
#X connect 5 0 11 0;
#X connect 6 0 12 0;
#X connect 7 0 23 0;
#X connect 8 0 24 0;
#X connect 9 0 10 1;
#X connect 10 0 21 0;
#X connect 10 0 20 0;
#X connect 11 0 13 0;
#X connect 12 0 18 0;
#X connect 13 0 7 0;
#X connect 13 0 8 0;
#X connect 14 0 15 0;
#X connect 15 0 16 0;
#X connect 16 0 13 1;
#X connect 17 0 18 1;
#X connect 18 0 7 1;
#X connect 18 0 8 1;
#X connect 19 0 17 0;
#X connect 20 0 15 1;
#X connect 21 0 19 0;
#X connect 23 0 25 0;
#X connect 24 0 26 0;
#X connect 27 0 6 0;
#X connect 27 0 5 0;
#X connect 28 0 6 1;
#X connect 28 0 5 1;
#X connect 29 0 9 0;
#X connect 30 0 29 1;
#X restore 82 98 pd width;
#N canvas 244 228 868 428 width 0;
#X obj 329 18 inlet~;
#X obj 404 18 r \$0-width;
#X obj 404 41 / 100;
#X obj 330 44 *~ 0.01;
#X obj 404 66 - 1;
#X obj 72 195 +~;
#X obj 194 194 -~;
#X obj 73 340 +~;
#X obj 181 342 -~;
#X obj 404 111 line~;
#X obj 331 128 +~;
#X obj 71 218 *~ 0.707107;
#X obj 195 217 *~ 0.707107;
#X obj 72 260 *~;
#X obj 146 157 sig~ 1;
#X obj 146 180 -~;
#X obj 147 265 *~ 2;
#X obj 332 257 *~ 2;
#X obj 196 265 *~;
#X obj 332 226 clip~ 0 1;
#X obj 223 163 clip~ 0 1;
#X obj 331 197 +~ 1;
#X text 289 335 based on Robin Schmidt's stereo processing tutorial:
http://www.rs-met.com/documents/tutorials/StereoProcessing.pdf, f
63;
#X obj 74 362 *~ 0.353554;
#X obj 182 365 *~ 0.353554;
#X obj 74 385 outlet~;
#X obj 183 388 outlet~;
#X obj 72 22 inlet~;
#X obj 209 19 inlet~;
#X obj 404 89 pack 0 50;
#X obj 466 89 r \$0-transition;
#X connect 0 0 3 0;
#X connect 1 0 2 0;
#X connect 2 0 4 0;
#X connect 3 0 10 0;
#X connect 4 0 29 0;
#X connect 5 0 11 0;
#X connect 6 0 12 0;
#X connect 7 0 23 0;
#X connect 8 0 24 0;
#X connect 9 0 10 1;
#X connect 10 0 21 0;
#X connect 10 0 20 0;
#X connect 11 0 13 0;
#X connect 12 0 18 0;
#X connect 13 0 7 0;
#X connect 13 0 8 0;
#X connect 14 0 15 0;
#X connect 15 0 16 0;
#X connect 16 0 13 1;
#X connect 17 0 18 1;
#X connect 18 0 7 1;
#X connect 18 0 8 1;
#X connect 19 0 17 0;
#X connect 20 0 15 1;
#X connect 21 0 19 0;
#X connect 23 0 25 0;
#X connect 24 0 26 0;
#X connect 27 0 6 0;
#X connect 27 0 5 0;
#X connect 28 0 6 1;
#X connect 28 0 5 1;
#X connect 29 0 9 0;
#X connect 30 0 29 1;
#X restore 177 98 pd width;
#N canvas 244 228 868 428 width 0;
#X obj 329 18 inlet~;
#X obj 404 18 r \$0-width;
#X obj 404 41 / 100;
#X obj 330 44 *~ 0.01;
#X obj 404 66 - 1;
#X obj 72 195 +~;
#X obj 194 194 -~;
#X obj 73 340 +~;
#X obj 181 342 -~;
#X obj 404 111 line~;
#X obj 331 128 +~;
#X obj 71 218 *~ 0.707107;
#X obj 195 217 *~ 0.707107;
#X obj 72 260 *~;
#X obj 146 157 sig~ 1;
#X obj 146 180 -~;
#X obj 147 265 *~ 2;
#X obj 332 257 *~ 2;
#X obj 196 265 *~;
#X obj 332 226 clip~ 0 1;
#X obj 223 163 clip~ 0 1;
#X obj 331 197 +~ 1;
#X text 289 335 based on Robin Schmidt's stereo processing tutorial:
http://www.rs-met.com/documents/tutorials/StereoProcessing.pdf, f
63;
#X obj 74 362 *~ 0.353554;
#X obj 182 365 *~ 0.353554;
#X obj 74 385 outlet~;
#X obj 183 388 outlet~;
#X obj 72 22 inlet~;
#X obj 189 18 inlet~;
#X obj 404 89 pack 0 50;
#X obj 466 89 r \$0-transition;
#X connect 0 0 3 0;
#X connect 1 0 2 0;
#X connect 2 0 4 0;
#X connect 3 0 10 0;
#X connect 4 0 29 0;
#X connect 5 0 11 0;
#X connect 6 0 12 0;
#X connect 7 0 23 0;
#X connect 8 0 24 0;
#X connect 9 0 10 1;
#X connect 10 0 21 0;
#X connect 10 0 20 0;
#X connect 11 0 13 0;
#X connect 12 0 18 0;
#X connect 13 0 7 0;
#X connect 13 0 8 0;
#X connect 14 0 15 0;
#X connect 15 0 16 0;
#X connect 16 0 13 1;
#X connect 17 0 18 1;
#X connect 18 0 7 1;
#X connect 18 0 8 1;
#X connect 19 0 17 0;
#X connect 20 0 15 1;
#X connect 21 0 19 0;
#X connect 23 0 25 0;
#X connect 24 0 26 0;
#X connect 27 0 6 0;
#X connect 27 0 5 0;
#X connect 28 0 6 1;
#X connect 28 0 5 1;
#X connect 29 0 9 0;
#X connect 30 0 29 1;
#X restore 83 148 pd width;
#X obj 81 45 inlet~;
#X obj 126 45 inlet~;
#X obj 176 46 inlet~;
#X obj 221 45 inlet~;
#X obj 298 45 inlet~;
#X obj 83 211 outlet~;
#X obj 140 212 outlet~;
#X obj 204 211 outlet~;
#X obj 261 212 outlet~;
#N canvas 244 228 868 428 width 0;
#X obj 329 18 inlet~;
#X obj 404 18 r \$0-width;
#X obj 404 41 / 100;
#X obj 330 44 *~ 0.01;
#X obj 404 66 - 1;
#X obj 72 195 +~;
#X obj 194 194 -~;
#X obj 73 340 +~;
#X obj 181 342 -~;
#X obj 404 111 line~;
#X obj 331 128 +~;
#X obj 71 218 *~ 0.707107;
#X obj 195 217 *~ 0.707107;
#X obj 72 260 *~;
#X obj 146 157 sig~ 1;
#X obj 146 180 -~;
#X obj 147 265 *~ 2;
#X obj 332 257 *~ 2;
#X obj 196 265 *~;
#X obj 332 226 clip~ 0 1;
#X obj 223 163 clip~ 0 1;
#X obj 331 197 +~ 1;
#X text 289 335 based on Robin Schmidt's stereo processing tutorial:
http://www.rs-met.com/documents/tutorials/StereoProcessing.pdf, f
63;
#X obj 74 362 *~ 0.353554;
#X obj 182 365 *~ 0.353554;
#X obj 74 385 outlet~;
#X obj 183 388 outlet~;
#X obj 72 22 inlet~;
#X obj 189 18 inlet~;
#X obj 404 89 pack 0 50;
#X obj 466 89 r \$0-transition;
#X connect 0 0 3 0;
#X connect 1 0 2 0;
#X connect 2 0 4 0;
#X connect 3 0 10 0;
#X connect 4 0 29 0;
#X connect 5 0 11 0;
#X connect 6 0 12 0;
#X connect 7 0 23 0;
#X connect 8 0 24 0;
#X connect 9 0 10 1;
#X connect 10 0 21 0;
#X connect 10 0 20 0;
#X connect 11 0 13 0;
#X connect 12 0 18 0;
#X connect 13 0 7 0;
#X connect 13 0 8 0;
#X connect 14 0 15 0;
#X connect 15 0 16 0;
#X connect 16 0 13 1;
#X connect 17 0 18 1;
#X connect 18 0 7 1;
#X connect 18 0 8 1;
#X connect 19 0 17 0;
#X connect 20 0 15 1;
#X connect 21 0 19 0;
#X connect 23 0 25 0;
#X connect 24 0 26 0;
#X connect 27 0 6 0;
#X connect 27 0 5 0;
#X connect 28 0 6 1;
#X connect 28 0 5 1;
#X connect 29 0 9 0;
#X connect 30 0 29 1;
#X restore 203 148 pd width;
#X connect 0 0 2 0;
#X connect 0 1 12 0;
#X connect 1 0 2 1;
#X connect 1 1 12 1;
#X connect 2 0 8 0;
#X connect 2 1 9 0;
#X connect 3 0 0 0;
#X connect 4 0 0 1;
#X connect 5 0 1 0;
#X connect 6 0 1 1;
#X connect 7 0 12 2;
#X connect 7 0 2 2;
#X connect 7 0 1 2;
#X connect 7 0 0 2;
#X connect 12 0 10 0;
#X connect 12 1 11 0;
#X restore 414 240 pd 4ch-width;
#N canvas 67 92 1003 537 dry/wet 0;
#X obj 53 26 inlet~;
#X obj 124 27 inlet~;
#X obj 304 19 inlet~;
#X obj 355 19 inlet~;
#X obj 409 264 *~;
#X obj 463 266 *~;
#X obj 183 330 outlet~;
#X obj 258 331 outlet~;
#X obj 52 326 outlet~;
#X obj 123 328 outlet~;
#X obj 52 257 *~;
#X obj 123 259 *~;
#X obj 305 263 *~;
#X obj 356 264 *~;
#X obj 409 19 inlet~;
#X obj 463 19 inlet~;
#X obj 184 260 *~;
#X obj 258 259 *~;
#X obj 478 139 line~;
#X obj 478 117 pack 0 30;
#X obj 274 207 -~;
#X obj 478 69 r \$0-drywet;
#X obj 478 92 / 50;
#X obj 288 183 clip~ 1 2;
#X obj 274 159 sig~ 2;
#X obj 478 167 clip~ 0 1;
#X connect 0 0 10 0;
#X connect 0 0 16 0;
#X connect 1 0 11 0;
#X connect 1 0 17 0;
#X connect 2 0 12 0;
#X connect 3 0 13 0;
#X connect 4 0 6 0;
#X connect 5 0 7 0;
#X connect 10 0 8 0;
#X connect 11 0 9 0;
#X connect 12 0 8 0;
#X connect 13 0 9 0;
#X connect 14 0 4 0;
#X connect 15 0 5 0;
#X connect 16 0 6 0;
#X connect 17 0 7 0;
#X connect 18 0 23 0;
#X connect 18 0 25 0;
#X connect 19 0 18 0;
#X connect 20 0 17 1;
#X connect 20 0 16 1;
#X connect 20 0 11 1;
#X connect 20 0 10 1;
#X connect 21 0 22 0;
#X connect 22 0 19 0;
#X connect 23 0 20 1;
#X connect 24 0 20 0;
#X connect 25 0 4 1;
#X connect 25 0 13 1;
#X connect 25 0 12 1;
#X connect 25 0 5 1;
#X restore 287 306 pd dry/wet;
#X f 33;
#X obj 660 44 inlet~;
#X text 662 25 width;
#N canvas 2 54 450 525 tail 0;
#X obj 61 208 until;
#X obj 70 234 f;
#X obj 108 236 + 1;
#X msg 122 189 0;
#X obj 71 345 pow;
#X obj 228 46 t b f;
#X obj 70 152 t b b;
#X obj 70 260 t float float;
#X obj 255 237 moses;
#X obj 287 273 + 1;
#X obj 255 286 abs;
#X obj 255 311 expr 1/$f1;
#X obj 255 262 - 1;
#X obj 255 213 / 10;
#X obj 70 127 del 0;
#X obj 264 135 + 50;
#X obj 264 106 * -0.5;
#X obj 71 382 * 1;
#X obj 384 37 t b b f;
#X obj 71 407 +;
#X obj 70 47 t b f f;
#X obj 228 12 r \$0-curve;
#X obj 70 11 r \$0-slope;
#X obj 384 11 r \$0-center;
#X obj 71 455 tabwrite \$0-tail;
#X obj 64 180 f 16;
#X obj 71 290 / 15;
#X obj 71 431 clip 0 200;
#X connect 0 0 1 0;
#X connect 1 0 2 0;
#X connect 1 0 7 0;
#X connect 2 0 1 1;
#X connect 3 0 1 1;
#X connect 4 0 17 0;
#X connect 5 0 14 0;
#X connect 5 1 13 0;
#X connect 6 0 25 0;
#X connect 6 1 3 0;
#X connect 7 0 26 0;
#X connect 7 1 24 1;
#X connect 8 0 12 0;
#X connect 8 1 9 0;
#X connect 9 0 4 1;
#X connect 10 0 11 0;
#X connect 11 0 4 1;
#X connect 12 0 10 0;
#X connect 13 0 8 0;
#X connect 14 0 6 0;
#X connect 15 0 19 1;
#X connect 16 0 15 0;
#X connect 17 0 19 0;
#X connect 18 0 14 0;
#X connect 18 1 15 0;
#X connect 18 2 15 1;
#X connect 19 0 27 0;
#X connect 20 0 14 0;
#X connect 20 1 17 1;
#X connect 20 2 16 0;
#X connect 21 0 5 0;
#X connect 22 0 20 0;
#X connect 23 0 18 0;
#X connect 25 0 0 0;
#X connect 26 0 4 0;
#X connect 27 0 24 0;
#X restore 739 225 pd tail;
#X obj 517 33 inlet~;
#X text 516 13 feedback;
#X obj 443 80 line~;
#X connect 3 0 21 0;
#X connect 3 1 21 1;
#X connect 3 2 21 2;
#X connect 3 3 21 3;
#X connect 4 0 6 0;
#X connect 4 0 22 0;
#X connect 5 0 6 1;
#X connect 5 0 22 1;
#X connect 6 0 3 0;
#X connect 6 1 3 1;
#X connect 7 0 8 0;
#X connect 8 0 3 2;
#X connect 9 0 7 1;
#X connect 12 0 10 0;
#X connect 14 0 13 0;
#X connect 17 0 28 0;
#X connect 21 0 22 2;
#X connect 21 1 22 3;
#X connect 21 2 22 4;
#X connect 21 3 22 5;
#X connect 22 0 19 0;
#X connect 22 1 20 0;
#X connect 22 2 1 0;
#X connect 22 3 2 0;
#X connect 23 0 21 4;
#X connect 26 0 9 0;
#X connect 28 0 7 0;
#X coords 0 -1 1 1 155 33 1 100 100;
