#N canvas 387 125 753 308 10;
#X obj 1 2 cnv 15 380 300 empty empty empty 20 12 0 14 -233017 -66577
0;
#X text 10 80 Inlets:;
#X obj 12 20 cnv 15 10 10 empty empty pp.record~ 0 0 2 16 -233017 -262144
0;
#X obj 388 168 pp.record~ 2;
#X obj 389 70 adc~ 1 2;
#X text 10 59 Creation arguments: number of input channels;
#X text 11 34 record to soundfile;
#X obj 561 147 cnv 15 118 17 empty empty empty 20 12 0 14 -260097 -66577
0;
#N canvas 152 124 348 356 control-messages 0;
#X obj 84 256 outlet;
#X msg 84 58 save;
#X text 119 58 open savepanel;
#X msg 124 99 start;
#X text 160 99 start recording;
#X msg 135 143 stop;
#X text 169 142 stop recording;
#X msg 141 213 bitsize \$1;
#X msg 141 182 16;
#X msg 173 181 24;
#X msg 209 180 32;
#X connect 1 0 0 0;
#X connect 3 0 0 0;
#X connect 5 0 0 0;
#X connect 7 0 0 0;
#X connect 8 0 7 0;
#X connect 9 0 7 0;
#X connect 10 0 7 0;
#X restore 561 147 pd control-messages;
#X text 574 183 <-- click to open savepanel;
#X text 68 81 1-n:(~)signal;
#X text 68 97 last:control-messages;
#X connect 4 0 3 0;
#X connect 4 1 3 1;
#X connect 8 0 3 2;
