#N struct 1012-template float x float y float c float s float th float
stretch array 1012-plus 1012-template-y array 1012-minus 1012-template-y
;
#N struct 1012-template-y float y;
#N struct 1013-template float x float y float c float s float th float
stretch array 1013-plus 1013-template-y array 1013-minus 1013-template-y
;
#N struct 1013-template-y float y;
#N canvas 428 168 785 461 10;
#X declare -path ./Examples/audio;
#X obj 398 397 pp.out~;
#A saved;
#A saved;
#A saved;
#A saved;
#A saved;
#A saved;
#A saved;
#A saved;
#A saved;
#A saved;
#A saved;
#A saved;
#A saved;
#A saved;
#A saved;
#A saved;
#A saved;
#A saved;
#A saved;
#A saved;
#A saved;
#X obj 2 2 cnv 15 380 450 empty empty empty 20 12 0 14 -233017 -66577
0;
#X obj 12 15 cnv 15 10 10 empty empty pp.rev~ 0 0 2 16 -233017 -262144
0;
#X obj 546 257 cnv 15 118 17 empty empty empty 20 12 0 14 -260097 -66577
0;
#N canvas 163 77 837 574 control-messages 0;
#X obj 202 506 outlet;
#X floatatom 209 103 5 0 1e+37 0 - - -;
#X floatatom 208 145 5 0 1e+33 0 - - -;
#X floatatom 233 287 5 -1e+07 1e+10 0 - - -;
#X floatatom 209 11 5 0 100 0 - - -;
#X floatatom 208 55 5 0 100 0 - - -;
#X msg 202 30 dry/wet \$1;
#X msg 202 75 feedback \$1;
#X text 274 74 (%)feedback;
#X text 312 122 hz.;
#X text 288 164 (%);
#X msg 226 306 rise \$1;
#X floatatom 257 329 5 -1e+07 1e+10 0 - - -;
#X msg 250 348 curve \$1;
#X floatatom 273 373 5 -1e+07 1e+10 0 - - -;
#X msg 266 392 slope \$1;
#X msg 326 404 early 4.8 5.99996 9.19997 11.6 15.6;
#X msg 326 434 tail 30 58 100 125 124 114 88 42 48 60 64 60 50 44 28
24;
#X text 362 379 send a list of values to set early & tail delay-times
;
#X text 289 291 use "rise" "curve" and "slope" to set tail delay times
;
#X text 274 31 (%);
#X obj 272 482 cnv 16 87 16 empty empty empty 20 12 0 14 -260097 -66577
0;
#N canvas 864 246 634 307 save&recall 0;
#X obj 93 233 outlet;
#X msg 93 60 0;
#X msg 125 60 1;
#X msg 158 60 2;
#X msg 93 99 save \$1;
#X text 185 63 ...;
#X msg 207 60 20;
#X msg 149 154 0;
#X msg 181 154 1;
#X msg 214 154 2;
#X text 241 157 ...;
#X msg 263 154 20;
#X msg 149 193 recall \$1;
#X text 249 93 save & recall up to 20 presets \, presets will be saved
with the parrent patch;
#X connect 1 0 4 0;
#X connect 2 0 4 0;
#X connect 3 0 4 0;
#X connect 4 0 0 0;
#X connect 6 0 4 0;
#X connect 7 0 12 0;
#X connect 8 0 12 0;
#X connect 9 0 12 0;
#X connect 11 0 12 0;
#X connect 12 0 0 0;
#X restore 272 481 pd save&recall;
#X msg 202 122 lop-frequency \$1;
#X msg 202 165 hf-damping \$1;
#X text 313 164 high frequency damping;
#X floatatom 209 189 5 0 1e+37 0 - - -;
#X floatatom 208 231 5 0 1e+33 0 - - -;
#X text 312 208 hz.;
#X text 288 250 (%);
#X msg 202 208 hip-frequency \$1;
#X msg 202 251 lf-damping \$1;
#X text 313 252 low frequency damping;
#X connect 1 0 23 0;
#X connect 2 0 24 0;
#X connect 3 0 11 0;
#X connect 4 0 6 0;
#X connect 5 0 7 0;
#X connect 6 0 0 0;
#X connect 7 0 0 0;
#X connect 11 0 0 0;
#X connect 12 0 13 0;
#X connect 13 0 0 0;
#X connect 14 0 15 0;
#X connect 15 0 0 0;
#X connect 16 0 0 0;
#X connect 17 0 0 0;
#X connect 22 0 0 0;
#X connect 23 0 0 0;
#X connect 24 0 0 0;
#X connect 26 0 30 0;
#X connect 27 0 31 0;
#X connect 30 0 0 0;
#X connect 31 0 0 0;
#X restore 546 256 pd control-messages;
#X text 556 297 <-- click to open GUI;
#X text 10 128 Inlets:;
#X text 10 205 Outlets:;
#X text 66 205 1:(~)left out;
#X text 66 218 2:(~)right out;
#X text 66 231 3:message;
#X text 11 92 Creation arguments: none;
#X obj 191 9 declare -path ./Examples/audio;
#X text 526 71 soundfile;
#X text 67 127 1:(~)signal left;
#X text 67 154 3:(~)feedback;
#X text 67 140 2:(~)signal right;
#X text 67 167 4:(~)width;
#X text 67 180 5:control-messages;
#X text 10 34 rev3~ extended;
#X obj 397 30 bng 15 250 50 0 empty empty empty 17 7 0 10 -262144 -1
-1;
#X text 417 29 <-- click;
#N canvas 581 380 306 385 st.burst 0;
#X obj 33 337 outlet~;
#X obj 106 336 outlet~;
#X obj 30 58 line~;
#X obj 30 79 *~;
#X obj 31 127 bp~ 1000 100;
#X msg 30 37 1 \, 0 10;
#X obj 31 148 *~ 30;
#X obj 71 147 noise~;
#X obj 56 170 *~;
#X obj 32 193 +~;
#X obj 30 -1 inlet;
#X obj 180 200 snapshot~;
#X msg 180 223 panorama \$1;
#X obj 108 31 random 1000;
#X obj 108 54 + 300;
#X obj 32 262 pp.pan~;
#A saved;
#A saved;
#A saved;
#A saved;
#A saved;
#A saved;
#A saved;
#A saved;
#A saved;
#A saved;
#A saved;
#A saved;
#A saved;
#A saved;
#A saved;
#A saved;
#A saved;
#A saved;
#A saved;
#A saved;
#A saved;
#X connect 2 0 3 0;
#X connect 2 0 3 1;
#X connect 3 0 4 0;
#X connect 3 0 8 0;
#X connect 4 0 6 0;
#X connect 5 0 2 0;
#X connect 6 0 9 0;
#X connect 7 0 8 1;
#X connect 7 0 11 0;
#X connect 8 0 9 1;
#X connect 9 0 15 0;
#X connect 10 0 5 0;
#X connect 10 0 11 0;
#X connect 10 0 13 0;
#X connect 11 0 12 0;
#X connect 12 0 15 2;
#X connect 13 0 14 0;
#X connect 14 0 4 1;
#X connect 15 0 0 0;
#X connect 15 1 1 0;
#X restore 397 72 pd st.burst;
#N canvas 267 321 450 300 soundfile 1;
#X obj 88 47 inlet;
#X obj 72 91 pp.sfplayer~;
#A saved;
#A saved;
#A saved;
#A saved;
#A saved;
#A saved;
#A saved;
#A saved;
#A saved;
#A saved;
#A saved;
#A saved;
#A saved;
#A saved;
#A saved;
#A saved;
#A saved;
#A saved;
#A saved;
#A saved;
#A saved;
#X obj 72 135 *~;
#N canvas 3 52 450 300 init 0;
#X obj 146 118 outlet;
#X obj 146 72 loadbang;
#X msg 146 95 open Trumpet.wav \, play 1 \, loop 1;
#X connect 1 0 2 0;
#X connect 2 0 0 0;
#X restore 245 70 pd init;
#X obj 72 158 pp.pan~ sqrt;
#A saved;
#A saved;
#A saved;
#A saved;
#A saved;
#A saved;
#A saved;
#A saved;
#A saved;
#A saved;
#A saved;
#A saved;
#A saved;
#A saved;
#A saved;
#A saved;
#A saved;
#A saved;
#A saved;
#A saved;
#A saved;
#X obj 73 205 outlet~;
#X obj 147 203 outlet~;
#X obj 145 136 osc~ 0.2;
#X connect 0 0 2 1;
#X connect 1 0 2 0;
#X connect 2 0 4 0;
#X connect 3 0 1 3;
#X connect 4 0 5 0;
#X connect 4 1 6 0;
#X connect 7 0 4 1;
#X restore 508 110 pd soundfile;
#X obj 508 74 tgl 15 0 empty empty empty 17 7 0 10 -262144 -1 -1 1
1;
#N canvas 686 449 454 180 message-out 0;
#X obj 20 20 inlet;
#X msg 20 45 dry/wet 60 \, feedback 50 \, lop-frequency 3000 \, hf-damping
50 \, hip-frequency 0 \, lf-damping 0 \, rise 10 \, curve 10 \, slope
130 \, width 100 \, early 0 1.42763 3.23873 5.2345 7.82312 \, tail
10 11.6356 13.4567 16.7345 20.1862 25.7417 31.4693 38.2944 46.6838
55.4567 65.1755 76.8243 88.5623 101.278 115.397 130.502 \,;
#X connect 0 0 1 0;
#X restore 546 332 pd message-out;
#X obj 9 427 cnv 15 82 17 empty empty empty 20 12 0 14 -260097 -66577
0;
#N canvas 133 281 450 99 references 0;
#X text 16 18 this abstraction is based on [rev3~];
#X text 18 41 stereo width is based on Robin Schmidt's stereo processing
tutorial: http://www.rs-met.com/documents/tutorials/StereoProcessing.pdf
, f 65;
#X restore 9 427 pd references;
#X obj 398 283 pp.rev~;
#A saved;
#A saved;
#A saved;
#A saved;
#A saved;
#A saved;
#A saved;
#A saved;
#A saved;
#A saved;
#A saved;
#A saved;
#A saved;
#A saved;
#A saved;
#A saved;
#A saved;
#A saved;
#A saved;
#A saved;
#A saved;
#X connect 4 0 28 4;
#X connect 20 0 22 0;
#X connect 22 0 28 0;
#X connect 22 1 28 1;
#X connect 23 0 28 0;
#X connect 23 1 28 1;
#X connect 24 0 23 0;
#X connect 28 0 0 0;
#X connect 28 1 0 1;
#X connect 28 2 25 0;
