#N canvas 224 172 1092 815 10;
#X obj 263 723 outlet~;
#X obj 345 73 r \$0-freq;
#X obj 329 36 inlet~;
#X obj 103 115 hsl 95 15 0 127 0 0 \$0-visbng \$0-visbngr empty 50 8 2 10 #e0e0e0 #e0e0e0 #000000 0 1;
#X obj 841 47 inlet;
#X obj 849 711 outlet;
#N canvas 528 258 781 543 outlet-message 0;
#X obj 315 433 list trim;
#X msg 235 431 addcomma;
#X msg 171 438 set;
#X obj 315 410 list prepend add2;
#X obj 316 486 outlet;
#X obj 251 37 r \$0-freq;
#X obj 251 187 t b a b;
#X obj 288 336 t b a a;
#N canvas 497 319 297 264 save 0;
#X obj 48 16 inlet;
#N canvas 690 259 481 384 collect 0;
#X obj 47 60 inlet;
#X obj 47 274 outlet;
#X obj 98 180 list;
#X obj 166 181 t l;
#X obj 47 225 list;
#X obj 98 139 list append |;
#X obj 47 126 del 0;
#X obj 47 82 t b a;
#X text 119 75 hacky thing... replaycing " \, " with "|";
#X connect 0 0 7 0;
#X connect 2 0 3 0;
#X connect 2 0 4 1;
#X connect 3 0 2 1;
#X connect 4 0 1 0;
#X connect 5 0 2 0;
#X connect 6 0 2 1;
#X connect 6 0 4 0;
#X connect 7 0 6 0;
#X connect 7 1 5 0;
#X restore 48 38 pd collect;
#X obj 117 16 r \$0-save;
#X obj 27 130 text set \$0-savestates;
#X obj 27 104 list;
#X obj 117 62 t b f;
#X obj 117 39 clip 0 20;
#X connect 0 0 1 0;
#X connect 1 0 4 1;
#X connect 2 0 6 0;
#X connect 4 0 3 0;
#X connect 5 0 4 0;
#X connect 5 1 3 1;
#X connect 6 0 5 0;
#X restore 327 362 pd save;
#N canvas 105 314 986 300 bang_once................ 0;
#X obj 174 87 t b f;
#X obj 132 87 t b f;
#X obj 89 139 del 0;
#X obj 89 87 t b f;
#X obj 89 41 inlet;
#X obj 132 40 inlet;
#X obj 174 40 inlet;
#X obj 89 247 outlet;
#X obj 89 173 f;
#X obj 219 88 t b f;
#X obj 219 41 inlet;
#X obj 89 203 pack 0 0 0 0 0 0 0;
#X obj 308 88 t b f;
#X obj 266 88 t b f;
#X obj 266 41 inlet;
#X obj 308 41 inlet;
#X obj 353 89 t b f;
#X obj 353 42 inlet;
#X connect 0 0 2 0;
#X connect 0 1 11 2;
#X connect 1 0 2 0;
#X connect 1 1 11 1;
#X connect 2 0 8 0;
#X connect 3 0 2 0;
#X connect 3 1 8 1;
#X connect 4 0 3 0;
#X connect 5 0 1 0;
#X connect 6 0 0 0;
#X connect 8 0 11 0;
#X connect 9 0 2 0;
#X connect 9 1 11 3;
#X connect 10 0 9 0;
#X connect 11 0 7 0;
#X connect 12 0 2 0;
#X connect 12 1 11 5;
#X connect 13 0 2 0;
#X connect 13 1 11 4;
#X connect 14 0 13 0;
#X connect 15 0 12 0;
#X connect 16 0 2 0;
#X connect 16 1 11 6;
#X connect 17 0 16 0;
#X restore 251 166 pd bang_once................;
#X f 39;
#X obj 328 90 r \$0-shift;
#X obj 289 62 r \$0-hold;
#X obj 366 114 r \$0-rise;
#X obj 405 137 r \$0-fall;
#X obj 443 99 r \$0-rise-curve;
#X obj 482 124 r \$0-fall-curve;
#X msg 288 250 frequency \$1 \, hold \$2 \, shift \$3 \, rise \$4 \, fall \$5 \, rise-curve \$6 \, fall-curve \$7;
#X connect 0 0 4 0;
#X connect 1 0 4 0;
#X connect 2 0 4 0;
#X connect 3 0 0 0;
#X connect 5 0 9 0;
#X connect 6 0 4 0;
#X connect 6 1 16 0;
#X connect 6 2 2 0;
#X connect 7 0 1 0;
#X connect 7 1 3 0;
#X connect 7 2 8 0;
#X connect 9 0 6 0;
#X connect 10 0 9 2;
#X connect 11 0 9 1;
#X connect 12 0 9 3;
#X connect 13 0 9 4;
#X connect 14 0 9 5;
#X connect 15 0 9 6;
#X connect 16 0 7 0;
#X restore 849 669 pd outlet-message;
#N canvas 3 54 450 300 gui 0;
#X obj 205 68 inlet~;
#X obj 206 110 snapshot~;
#X obj 206 135 t f b;
#N canvas 3 50 450 300 count 0;
#X obj 200 125 f;
#X obj 237 128 + 1;
#X obj 199 86 inlet;
#X obj 352 249 outlet;
#X msg 201 201 const 0;
#X obj 174 181 t b b;
#X msg 143 150 0;
#X obj 201 222 s \$0-scope;
#X obj 198 154 sel 221;
#X connect 0 0 1 0;
#X connect 0 0 8 0;
#X connect 1 0 0 1;
#X connect 2 0 0 0;
#X connect 4 0 7 0;
#X connect 5 0 6 0;
#X connect 5 1 4 0;
#X connect 6 0 0 0;
#X connect 8 0 5 0;
#X connect 8 1 3 0;
#X restore 304 174 pd count;
#X obj 206 199 tabwrite \$0-scope;
#X obj 276 59 tgl 15 0 empty empty empty 17 7 0 10 #fcfcfc #000000 #000000 0 1;
#X obj 276 32 r \$0-isvisible;
#X obj 276 83 metro 15;
#X obj 371 75 r \$0-freq;
#X obj 371 106 swap 1000;
#X obj 371 129 /;
#X obj 371 152 / 40;
#X floatatom 377 225 5 0 0 0 - - - 0;
#X obj 377 202 max 5;
#X connect 0 0 1 0;
#X connect 1 0 2 0;
#X connect 2 0 4 0;
#X connect 2 1 3 0;
#X connect 3 0 4 1;
#X connect 5 0 7 0;
#X connect 6 0 5 0;
#X connect 7 0 1 0;
#X connect 8 0 9 0;
#X connect 9 0 10 0;
#X connect 9 1 10 1;
#X connect 10 0 11 0;
#X connect 11 0 13 0;
#X connect 13 0 7 1;
#X connect 13 0 12 0;
#X restore 304 697 pd gui;
#N canvas 1309 122 499 337 in 0;
#X obj 20 13 inlet;
#X obj 20 138 s \$0-freqr;
#N canvas 698 546 200 251 route 0;
#X obj 20 20 inlet;
#X obj 30 60 route save recall;
#X obj 30 85 route float;
#X obj 97 111 route float;
#X obj 30 136 s \$0-save;
#X obj 30 108 i;
#X obj 98 133 i;
#X obj 98 161 s \$0-recall;
#X connect 0 0 1 0;
#X connect 1 0 2 0;
#X connect 1 1 3 0;
#X connect 2 0 5 0;
#X connect 3 0 6 0;
#X connect 5 0 4 0;
#X connect 6 0 7 0;
#X restore 43 43 pd route save-recall;
#N canvas 362 125 450 479 recall 0;
#X obj 49 145 outlet;
#N canvas 3 54 450 600 listsplit 0;
#X obj 158 23 inlet;
#X obj 220 87 list length;
#X obj 220 113 until;
#X obj 182 150 f;
#X obj 278 150 + 1;
#X msg 265 111 0;
#X obj 182 226 list store;
#X msg 182 202 get \$1 1;
#X obj 154 367 list split;
#X obj 222 342 f;
#X obj 154 334 list;
#X obj 98 124 list;
#X obj 182 389 list split 1;
#X obj 154 274 t bang bang bang;
#X obj 182 179 t f f;
#X obj 158 48 t l l l b;
#X obj 154 473 outlet;
#X obj 154 440 list trim;
#X obj 163 248 sel |;
#X text 275 197 hacky split list at "|";
#X connect 0 0 15 0;
#X connect 1 0 2 0;
#X connect 2 0 3 0;
#X connect 3 0 4 0;
#X connect 3 0 14 0;
#X connect 4 0 3 1;
#X connect 5 0 3 1;
#X connect 6 0 18 0;
#X connect 7 0 6 0;
#X connect 8 0 17 0;
#X connect 8 1 12 0;
#X connect 9 0 8 1;
#X connect 10 0 8 0;
#X connect 11 0 15 0;
#X connect 12 1 11 0;
#X connect 13 0 10 0;
#X connect 13 1 9 0;
#X connect 13 2 2 1;
#X connect 14 0 7 0;
#X connect 14 1 9 1;
#X connect 15 0 1 0;
#X connect 15 1 10 1;
#X connect 15 2 6 1;
#X connect 15 3 5 0;
#X connect 17 0 16 0;
#X connect 18 0 13 0;
#X restore 49 117 pd listsplit;
#X obj 49 24 r \$0-recall;
#X obj 49 54 pipe 1;
#X obj 221 409 text fromlist \$0-savestates;
#X obj 49 77 text get \$0-savestates;
#X msg 253 246 21;
#X obj 253 269 until;
#X obj 253 292 f;
#X obj 300 295 + 1;
#X obj 253 315 t b f;
#X obj 253 367 text set \$0-savestates;
#X obj 221 114 text tolist \$0-savestates;
#X msg 253 342 list empty_slot;
#X obj 221 160 t a b;
#X obj 151 166 loadbang;
#X obj 221 137 savestate;
#X obj 221 33 text define \$0-savestates;
#X obj 151 189 del 0;
#X msg 298 199 0;
#X obj 253 220 spigot 1;
#X connect 1 0 0 0;
#X connect 2 0 3 0;
#X connect 3 0 5 0;
#X connect 5 0 1 0;
#X connect 6 0 7 0;
#X connect 7 0 8 0;
#X connect 8 0 9 0;
#X connect 8 0 10 0;
#X connect 9 0 8 1;
#X connect 10 0 13 0;
#X connect 10 1 11 1;
#X connect 12 0 16 0;
#X connect 13 0 11 0;
#X connect 14 0 4 0;
#X connect 14 1 19 0;
#X connect 15 0 18 0;
#X connect 16 0 14 0;
#X connect 16 1 12 0;
#X connect 18 0 20 0;
#X connect 19 0 20 1;
#X connect 20 0 6 0;
#X restore 108 71 pd recall;
#X obj 20 97 route frequency hold shift rise fall rise-curve fall-curve;
#X obj 65 164 s \$0-holdr;
#X obj 111 189 s \$0-shiftr;
#X obj 157 218 s \$0-riser;
#X obj 203 244 s \$0-fallr;
#X obj 295 188 s \$0-fall-curver;
#X obj 249 152 s \$0-rise-curver;
#X connect 0 0 2 0;
#X connect 0 0 4 0;
#X connect 3 0 4 0;
#X connect 4 0 1 0;
#X connect 4 1 5 0;
#X connect 4 2 6 0;
#X connect 4 3 7 0;
#X connect 4 4 8 0;
#X connect 4 5 10 0;
#X connect 4 6 9 0;
#X restore 841 76 pd in;
#X obj 279 217 +~;
#X obj 279 240 wrap~;
#X obj 264 287 -~;
#X obj 264 495 +~;
#X obj 264 673 slop~, f 18;
#X obj 265 632 slop~ 1e+09 0 0 0 0;
#X obj 368 487 samplerate~;
#X obj 331 316 *~;
#X obj 332 371 phasor~;
#X obj 521 479 *~;
#X obj 309 605 *~;
#X obj 368 512 swap 1;
#X obj 368 535 /;
#X obj 368 463 r pd-dsp-started;
#X obj 601 477 *~;
#X obj 353 604 *~;
#X obj 265 168 phasor~;
#X obj 520 623 *~;
#X obj 600 629 *~;
#X obj 535 574 swap 1;
#X obj 535 597 /;
#X obj 535 551 + 1e-12;
#X obj 640 572 swap 1;
#X obj 640 595 /;
#X obj 640 549 + 1e-12;
#X obj 696 258 swap 1;
#X obj 696 281 /;
#X obj 696 235 + 1e-12;
#X obj 564 258 swap 1;
#X obj 564 281 /;
#X obj 564 236 + 1e-12;
#X obj 580 349 + 1;
#X obj 580 325 / 2;
#X obj 424 183 /~;
#X obj 713 351 + 1;
#X obj 713 328 / 2;
#X obj 596 150 clip~ 1e-12 1;
#X obj 330 123 +~;
#X text 709 715 ps 2025;
#X obj 610 73 r \$0-hold;
#X obj 696 193 r \$0-rise;
#X obj 696 421 *;
#X obj 696 400 f;
#X obj 713 374 t b f;
#X obj 564 417 *;
#X obj 564 396 f;
#X obj 581 370 t b f;
#N canvas 0 0 450 300 fall-rise-curve 0;
#X obj 380 103 pow 4;
#X obj 380 126 * 20;
#X obj 380 56 r \$0-rise-curve;
#X obj 238 101 pow 4;
#X obj 238 124 * 20;
#X obj 238 57 r \$0-fall-curve;
#X obj 380 149 outlet;
#X obj 238 147 outlet;
#X obj 238 79 / 100;
#X obj 380 80 / 100;
#X connect 0 0 1 0;
#X connect 1 0 6 0;
#X connect 2 0 9 0;
#X connect 3 0 4 0;
#X connect 4 0 7 0;
#X connect 5 0 8 0;
#X connect 8 0 3 0;
#X connect 9 0 0 0;
#X restore 580 302 pd fall-rise-curve;
#X obj 564 195 r \$0-fall;
#X obj 265 372 samphold~;
#X obj 265 527 clip~ 0 1;
#X obj 595 119 +~;
#X obj 424 51 r \$0-shift;
#N canvas 99 362 450 300 map 0;
#X obj 38 37 inlet;
#X obj 38 59 swap 1;
#X obj 38 82 -;
#X obj 38 105 moses 0.5;
#X obj 108 129 pow 4;
#X obj 108 153 / 0.03125;
#X obj 38 128 sqrt;
#X obj 38 152 / 0.353554;
#X obj 38 195 outlet;
#X connect 0 0 1 0;
#X connect 1 0 2 0;
#X connect 1 1 2 1;
#X connect 2 0 3 0;
#X connect 3 0 6 0;
#X connect 3 1 4 0;
#X connect 4 0 5 0;
#X connect 5 0 8 0;
#X connect 6 0 7 0;
#X connect 7 0 8 0;
#X restore 424 95 pd map;
#X obj 424 121 sig~ 32;
#X obj 595 33 inlet~;
#N canvas 963 521 611 328 stuff+init 0;
#X obj 113 151 s \$0-visbngr;
#X obj 95 46 r \$0-visbng;
#X msg 93 123 color 0 0;
#X msg 177 123 color 10 10;
#X obj 95 68 t b;
#X obj 175 98 del 250;
#X obj 369 46 loadbang;
#N canvas 89 132 345 180 isvisible 0;
#X obj 48 43 loadbang;
#X obj 48 65 tgl 15 0 empty empty empty 17 7 0 10 #fcfcfc #000000 #000000 0 1;
#X obj 48 108 s \$0-isvisible-check;
#X obj 48 85 metro 500;
#X connect 0 0 1 0;
#X connect 1 0 3 0;
#X connect 3 0 2 0;
#X restore 94 21 pd isvisible;
#X msg 59 173 relocate 390x262+1+1 1x1+50+50 \, vis 1;
#X obj 369 69 pack \$0 \$1;
#X obj 331 44 bng 18 250 50 0 empty empty empty 0 -9 0 10 #fcfcfc #000000 #000000;
#X obj 59 196 s pd-\$0-lfop;
#X msg 369 92 \; \$1-freqr \$2 \; \$1-holdr 0.5 \; \$1-shiftr 0 \; \$1-fallr 50 \; \$1-riser 50 \; \$1-fall-curver 50 \; \$1-rise-curver 50 \;;
#X connect 1 0 4 0;
#X connect 2 0 0 0;
#X connect 3 0 0 0;
#X connect 4 0 2 0;
#X connect 4 0 5 0;
#X connect 4 0 8 0;
#X connect 5 0 3 0;
#X connect 6 0 9 0;
#X connect 8 0 11 0;
#X connect 9 0 12 0;
#X connect 10 0 9 0;
#X restore 852 375 pd stuff+init;
#N canvas 50 50 390 262 \$0-lfop 1;
#N canvas 671 86 997 409 mask 0;
#X obj 50 40 cnv 15 379 249 empty empty empty 20 12 0 14 #fcfcfc #404040 0;
#X obj 191 70 nbx 4 12 0 1e+08 0 0 \$0-freq \$0-freqr empty 41 8 2 10 #ffe3c6 #000000 #000000 0 256;
#X obj 61 70 hsl 124 12 0 1 0 0 \$0-fgui \$0-fguir Frequency(hz) -2 -6 2 10 #ffe3c6 #000000 #000000 0 1;
#N canvas 436 142 450 300 map 0;
#X obj 124 65 pow 2;
#X obj 125 143 outlet;
#X obj 226 46 inlet nbx;
#X obj 124 44 inlet hsl;
#X obj 226 88 sqrt;
#X msg 226 109 set \$1;
#X obj 226 130 outlet;
#X obj 226 67 / 20;
#X obj 125 89 * 20;
#X connect 0 0 8 0;
#X connect 2 0 7 0;
#X connect 3 0 0 0;
#X connect 4 0 5 0;
#X connect 5 0 6 0;
#X connect 7 0 4 0;
#X connect 8 0 1 0;
#X restore 55 11 pd map;
#X obj 378 71 nbx 4 12 0 1e+07 0 0 \$0-rise \$0-riser empty 41 8 2 10 #ffe3c6 #000000 #000000 0 256;
#X obj 248 71 hsl 124 12 0 100 0 0 \$0-risegui \$0-riseguir Rise -2 -6 2 10 #ffe3c6 #000000 #000000 0 1;
#X msg 448 63 set \$1;
#X obj 408 273 cnv 10 10 10 empty empty 0 2 5 2 10 #fcfcfc #404040 0;
#X obj 408 192 cnv 10 10 10 empty empty 1 3 5 2 10 #fcfcfc #404040 0;
#X obj 313 51 cnv 10 10 10 empty empty lfop~ 3 5 2 14 #fcfcfc #9c9c9c 0;
#X obj 67 191 cnv 15 338 92 empty empty empty 20 12 0 14 #606060 #404040 0;
#X obj 69 193 cnv 15 335 88 empty empty empty 20 12 0 14 #dcdcdc #404040 0;
#N canvas 0 50 450 250 (subpatch) 0;
#X array \$0-scope 221 float 1;
#A 0 0 0 0 0 0 0 0 0 0 0 0 0 0 0 0 0 0 0 0 0 0 0 0 0 0 0 0 0 0 0 0 0 0 0 0 0 0 0 0 0 0 0 0 0 0 0 0 0 0 0 0 0 0 0 0 0 0 0 0 0 0 0 0 0 0 0 0 0 0 0 0 0 0 0 0 0 0 0 0 0 0 0 0 0 0 0 0 0 0 0 0 0 0 0 0 0 0 0 0 0 0 0 0 0 0 0 0 0 0 0 0 0 0 0 0 0 0 0 0 0 0 0 0 0 0 0 0 0 0 0 0 0 0 0 0 0 0 0 0 0 0 0 0 0 0 0 0 0 0 0 0 0 0 0 0 0 0 0 0 0 0 0 0 0 0 0 0 0 0 0 0 0 0 0 0 0 0 0 0 0 0 0 0 0 0 0 0 0 0 0 0 0 0 0 0 0 0 0 0 0 0 0 0 0 0 0 0 0 0 0 0 0 0 0 0 0 0 0 0 0 0;
#X coords 0 1 220 0 336 90 1 0 0;
#X restore 68 192 graph;
#X obj 67 180 cnv 10 100 10 empty empty empty 20 12 0 14 #fcfcfc #404040 0;
#X msg 690 86 isvisible;
#X obj 690 109 pdcontrol;
#X obj 690 132 s \$0-isvisible;
#X obj 690 64 r \$0-isvisible-check;
#X obj 378 99 nbx 4 12 0 1e+07 0 0 \$0-fall \$0-fallr empty 41 8 2 10 #ffe3c6 #000000 #000000 0 256;
#X obj 248 99 hsl 124 12 0 100 0 0 \$0-fallgui \$0-fallguir Fall -2 -6 2 10 #ffe3c6 #000000 #000000 0 1;
#X msg 448 91 set \$1;
#X obj 378 165 nbx 4 12 1 100 0 0 \$0-fall-curve \$0-fall-curver empty 41 8 2 10 #fcfcfc #000000 #000000 0 256;
#X obj 248 165 hsl 124 12 0 100 0 0 \$0-fallcgui \$0-fallcguir Fall-curve -2 -6 2 10 #fcfcfc #000000 #000000 0 1;
#X msg 448 157 set \$1;
#X obj 378 135 nbx 4 12 0 100 0 0 \$0-rise-curve \$0-rise-curver empty 41 8 2 10 #fcfcfc #000000 #000000 0 256;
#X obj 248 135 hsl 124 12 0 100 0 0 \$0-risecgui \$0-risecguir Rise-curve -2 -6 2 10 #fcfcfc #000000 #000000 0 1;
#X msg 448 127 set \$1;
#X obj 191 112 nbx 4 12 0 1 0 0 \$0-hold \$0-holdr empty 41 8 2 10 #fcfcfc #000000 #000000 0 256;
#X obj 61 112 hsl 124 12 0 1 0 0 \$0-holdgui \$0-holdguir Hold -2 -6 2 10 #ffffff #000000 #000000 0 1;
#X msg -11 107 set \$1;
#X obj 191 142 nbx 5 12 0 100 0 0 \$0-shift \$0-shiftr empty 41 8 2 10 #fcfcfc #000000 #000000 0 256;
#X obj 61 142 hsl 124 12 0 100 0 0 \$0-shiftgui \$0-shiftguir Shift -2 -6 2 10 #fcfcfc #000000 #000000 0 1;
#X msg -10 137 set \$1;
#X connect 1 0 3 1;
#X connect 2 0 3 0;
#X connect 3 0 1 0;
#X connect 3 1 2 0;
#X connect 4 0 6 0;
#X connect 5 0 4 0;
#X connect 6 0 5 0;
#X connect 14 0 15 0;
#X connect 15 0 16 0;
#X connect 17 0 14 0;
#X connect 18 0 20 0;
#X connect 19 0 18 0;
#X connect 20 0 19 0;
#X connect 21 0 23 0;
#X connect 22 0 21 0;
#X connect 23 0 22 0;
#X connect 24 0 26 0;
#X connect 25 0 24 0;
#X connect 26 0 25 0;
#X connect 27 0 29 0;
#X connect 28 0 27 0;
#X connect 29 0 28 0;
#X connect 30 0 32 0;
#X connect 31 0 30 0;
#X connect 32 0 31 0;
#X coords 0 -1 1 1 380 250 2 50 40;
#X restore 5 6 pd mask;
#X restore 852 396 pd \$0-lfop;
#X obj 696 214 / 100;
#X obj 564 215 / 100;
#X obj 424 72 / 100;
#N canvas 0 0 450 300 fall-rise-curve 0;
#X obj 380 103 pow 4;
#X obj 380 126 * 20;
#X obj 380 56 r \$0-rise-curve;
#X obj 238 101 pow 4;
#X obj 238 124 * 20;
#X obj 238 57 r \$0-fall-curve;
#X obj 380 149 outlet;
#X obj 238 147 outlet;
#X obj 238 79 / 100;
#X obj 380 80 / 100;
#X connect 0 0 1 0;
#X connect 1 0 6 0;
#X connect 2 0 9 0;
#X connect 3 0 4 0;
#X connect 4 0 7 0;
#X connect 5 0 8 0;
#X connect 8 0 3 0;
#X connect 9 0 0 0;
#X restore 535 527 pd fall-rise-curve;
#X connect 1 0 46 1;
#X connect 2 0 46 0;
#X connect 4 0 8 0;
#X connect 6 0 5 0;
#X connect 9 0 10 0;
#X connect 10 0 11 1;
#X connect 11 0 58 0;
#X connect 12 0 59 0;
#X connect 13 0 0 0;
#X connect 13 0 7 0;
#X connect 14 0 13 0;
#X connect 15 0 20 0;
#X connect 16 0 17 0;
#X connect 17 0 58 1;
#X connect 18 0 19 0;
#X connect 18 0 26 0;
#X connect 19 0 14 2;
#X connect 20 0 21 0;
#X connect 20 1 21 1;
#X connect 21 0 19 1;
#X connect 21 0 24 1;
#X connect 22 0 15 0;
#X connect 23 0 24 0;
#X connect 23 0 27 0;
#X connect 24 0 14 4;
#X connect 25 0 9 0;
#X connect 25 0 11 0;
#X connect 26 0 13 3;
#X connect 27 0 13 5;
#X connect 28 0 29 0;
#X connect 28 1 29 1;
#X connect 29 0 26 1;
#X connect 30 0 28 0;
#X connect 31 0 32 0;
#X connect 31 1 32 1;
#X connect 32 0 27 1;
#X connect 33 0 31 0;
#X connect 34 0 35 0;
#X connect 34 1 35 1;
#X connect 35 0 51 0;
#X connect 36 0 34 0;
#X connect 37 0 38 0;
#X connect 37 1 38 1;
#X connect 38 0 54 0;
#X connect 39 0 37 0;
#X connect 40 0 55 0;
#X connect 41 0 40 0;
#X connect 42 0 16 1;
#X connect 43 0 52 0;
#X connect 44 0 43 0;
#X connect 45 0 12 1;
#X connect 45 0 9 1;
#X connect 45 0 42 1;
#X connect 46 0 16 0;
#X connect 46 0 25 0;
#X connect 46 0 18 0;
#X connect 46 0 23 0;
#X connect 48 0 60 1;
#X connect 49 0 67 0;
#X connect 50 0 23 1;
#X connect 51 0 50 0;
#X connect 52 0 51 0;
#X connect 52 1 50 1;
#X connect 53 0 18 1;
#X connect 54 0 53 0;
#X connect 55 0 54 0;
#X connect 55 1 53 1;
#X connect 56 0 41 0;
#X connect 56 1 44 0;
#X connect 57 0 68 0;
#X connect 58 0 12 0;
#X connect 59 0 14 0;
#X connect 60 0 45 0;
#X connect 61 0 69 0;
#X connect 62 0 63 0;
#X connect 63 0 42 0;
#X connect 64 0 60 0;
#X connect 67 0 36 0;
#X connect 68 0 39 0;
#X connect 69 0 62 0;
#X connect 70 0 30 0;
#X connect 70 1 33 0;
#X coords 0 -1 1 1 100 33 1 100 100;
