#N struct 1147-template float x float y float c float s float th float
stretch array 1147-plus 1147-template-y array 1147-minus 1147-template-y
;
#N struct 1147-template-y float y;
#N struct 1148-template float x float y float c float s float th float
stretch array 1148-plus 1148-template-y array 1148-minus 1148-template-y
;
#N struct 1148-template-y float y;
#N canvas 534 138 591 448 10;
#N canvas 564 180 751 540 open 0;
#X obj 272 251 soundfiler;
#X obj 465 388 s \$0-samplerate;
#X obj 86 105 table \$0-links;
#X obj 86 128 table \$0-rechts;
#X msg 465 368 \$1;
#X obj 212 408 s waveform/\$0-links;
#X obj 239 431 s waveform/\$0-rechts;
#X obj 90 400 s \$0-stoptglr;
#X obj 500 21 r \$0-op;
#X obj 371 41 r \$0-open-sf;
#N canvas 423 90 797 561 sondfile-info 0;
#X obj 172 519 s \$0-wfbg;
#X msg 199 91 \$1;
#X obj 107 138 /;
#X obj 57 202 / 60;
#X obj 57 222 i;
#X obj 182 193 mod 60;
#X obj 436 322 sel 1 2;
#X obj 452 379 symbol Stereo;
#X obj 405 353 symbol Mono;
#X obj 214 265 < 10;
#X obj 187 346 makefilename 0%d;
#X obj 182 245 t f f;
#X obj 157 287 list prepend;
#X obj 157 306 route 0 1;
#X obj 156 326 makefilename %d;
#X obj 552 358 t b;
#X obj 552 380 symbol Multichanel_truncated_to_Stereo;
#X obj 105 563 print sfplayer~;
#X obj 107 158 t f f;
#X msg 436 233 \$3;
#X obj 114 261 < 10;
#X obj 36 350 makefilename 0%d;
#X obj 57 242 t f f;
#X obj 35 282 list prepend;
#X obj 35 301 route 0 1;
#X obj 2 330 makefilename %d;
#X obj 172 473 pack s s f s s;
#X msg 172 495 label \$4___\$1:\$2___\$3Hz___\$5;
#X msg 107 543 \$4 \$1:\$2 \$3Hz \$5;
#X msg 11 540 label \$4;
#X obj 11 562 s \$0-namecnv;
#X obj 39 446 r \$0-lbang;
#X msg 39 469 label empty..;
#N canvas 426 89 883 671 splitfilename 0;
#X obj 425 37 list fromsymbol;
#X obj 425 59 trigger list list bang;
#X obj 425 81 list length;
#X obj 310 169 until;
#X obj 310 195 f;
#X obj 325 218 - 1;
#X obj 457 339 t f f;
#X obj 425 104 t f f;
#X obj 488 414 t l;
#X obj 363 491 list;
#X obj 574 355 sel;
#X obj 363 513 list tosymbol;
#X obj 632 275 loadbang;
#X obj 632 297 symbol /;
#X obj 632 319 list fromsymbol;
#X obj 425 15 inlet symbol path;
#X obj 457 414 list;
#X obj 457 312 list store;
#X msg 457 287 get \$1 1;
#X obj 185 487 list tosymbol;
#X obj 185 463 list store;
#X msg 185 438 get 0 \$1;
#X obj 185 413 f;
#X obj 363 535 outlet;
#X text 407 538 filename;
#X obj 185 532 outlet;
#X text 226 532 path;
#X obj 617 383 t b b b;
#X obj 312 240 t f f f;
#X obj 363 353 sel 0;
#X obj 310 145 + 1;
#X obj 363 376 t b b;
#X connect 0 0 1 0;
#X connect 1 0 2 0;
#X connect 1 1 17 1;
#X connect 1 1 20 1;
#X connect 1 2 16 1;
#X connect 2 0 7 0;
#X connect 3 0 4 0;
#X connect 4 0 5 0;
#X connect 4 0 28 0;
#X connect 5 0 4 1;
#X connect 6 0 16 0;
#X connect 6 1 10 0;
#X connect 7 0 30 0;
#X connect 7 1 4 1;
#X connect 8 0 16 1;
#X connect 9 0 11 0;
#X connect 10 0 27 0;
#X connect 11 0 23 0;
#X connect 12 0 13 0;
#X connect 13 0 14 0;
#X connect 14 0 10 1;
#X connect 15 0 0 0;
#X connect 16 0 8 0;
#X connect 16 0 9 1;
#X connect 17 0 6 0;
#X connect 18 0 17 0;
#X connect 19 0 25 0;
#X connect 20 0 19 0;
#X connect 21 0 20 0;
#X connect 22 0 21 0;
#X connect 27 0 22 0;
#X connect 27 1 9 0;
#X connect 27 2 3 1;
#X connect 28 0 22 1;
#X connect 28 1 29 0;
#X connect 28 2 18 0;
#X connect 29 0 31 0;
#X connect 30 0 3 0;
#X connect 31 0 9 0;
#X connect 31 1 3 1;
#X restore 341 67 pd splitfilename;
#X obj 341 43 inlet;
#X text 381 43 path;
#X obj 199 36 inlet;
#X text 239 35 sfinfo;
#X obj 53 35 inlet;
#X text 92 36 samp.length;
#X connect 1 0 2 1;
#X connect 1 0 26 2;
#X connect 2 0 18 0;
#X connect 3 0 4 0;
#X connect 4 0 22 0;
#X connect 5 0 11 0;
#X connect 6 0 8 0;
#X connect 6 1 7 0;
#X connect 6 2 15 0;
#X connect 7 0 26 4;
#X connect 8 0 26 4;
#X connect 9 0 12 1;
#X connect 10 0 26 1;
#X connect 11 0 12 0;
#X connect 11 1 9 0;
#X connect 12 0 13 0;
#X connect 13 0 14 0;
#X connect 13 1 10 0;
#X connect 14 0 26 1;
#X connect 15 0 16 0;
#X connect 16 0 26 4;
#X connect 18 0 3 0;
#X connect 18 1 5 0;
#X connect 19 0 6 0;
#X connect 20 0 23 1;
#X connect 21 0 26 0;
#X connect 22 0 23 0;
#X connect 22 1 20 0;
#X connect 23 0 24 0;
#X connect 24 0 25 0;
#X connect 24 1 21 0;
#X connect 25 0 26 0;
#X connect 26 0 27 0;
#X connect 26 0 28 0;
#X connect 26 0 29 0;
#X connect 27 0 0 0;
#X connect 28 0 17 0;
#X connect 29 0 30 0;
#X connect 31 0 32 0;
#X connect 32 0 30 0;
#X connect 32 0 0 0;
#X connect 33 1 26 3;
#X connect 34 0 33 0;
#X connect 36 0 19 0;
#X connect 36 0 1 0;
#X connect 38 0 2 0;
#X restore 272 348 pd sondfile-info;
#X f 20;
#X obj 272 184 list \$0;
#X obj 343 387 s \$0-samplelenght;
#X obj 212 358 t b b;
#X obj 500 63 s \$0-open-sf;
#X obj 415 98 f \$0;
#X obj 371 76 t a a b;
#X msg 415 121 \; \$1-set-l symbol \$1-links \; \$1-set-r symbol \$1-rechts
;
#X msg 272 208 read -resize \$1 \$2-links \$2-rechts;
#N canvas 522 220 600 405 openpanel 0;
#N canvas 76 95 883 671 splitfilename 0;
#X obj 425 37 list fromsymbol;
#X obj 425 59 trigger list list bang;
#X obj 425 81 list length;
#X obj 310 169 until;
#X obj 310 195 f;
#X obj 338 210 - 1;
#X obj 383 339 t f f;
#X obj 425 104 t f f;
#X obj 414 413 t l;
#X obj 363 491 list;
#X obj 501 355 sel;
#X obj 363 513 list tosymbol;
#X obj 559 275 loadbang;
#X obj 559 297 symbol /;
#X obj 559 319 list fromsymbol;
#X obj 425 15 inlet symbol path;
#X obj 383 413 list;
#X obj 331 294 sel 1;
#X obj 383 312 list store;
#X msg 383 287 get \$1 1;
#X obj 185 487 list tosymbol;
#X obj 185 463 list store;
#X msg 185 438 get 0 \$1;
#X obj 185 413 f;
#X obj 363 535 outlet;
#X text 407 538 filename;
#X obj 185 532 outlet;
#X text 226 532 path;
#X obj 544 383 t b b b;
#X obj 312 240 t f f f;
#X connect 0 0 1 0;
#X connect 1 0 2 0;
#X connect 1 1 18 1;
#X connect 1 1 21 1;
#X connect 1 2 16 1;
#X connect 2 0 7 0;
#X connect 3 0 4 0;
#X connect 4 0 5 0;
#X connect 4 0 29 0;
#X connect 5 0 4 1;
#X connect 6 0 16 0;
#X connect 6 1 10 0;
#X connect 7 0 3 0;
#X connect 7 1 4 1;
#X connect 8 0 16 1;
#X connect 9 0 11 0;
#X connect 10 0 28 0;
#X connect 11 0 24 0;
#X connect 12 0 13 0;
#X connect 13 0 14 0;
#X connect 14 0 10 1;
#X connect 15 0 0 0;
#X connect 16 0 8 0;
#X connect 16 0 9 1;
#X connect 17 0 9 0;
#X connect 18 0 6 0;
#X connect 19 0 18 0;
#X connect 20 0 26 0;
#X connect 21 0 20 0;
#X connect 22 0 21 0;
#X connect 23 0 22 0;
#X connect 28 0 23 0;
#X connect 28 1 9 0;
#X connect 28 2 3 1;
#X connect 29 0 23 1;
#X connect 29 1 17 0;
#X connect 29 2 19 0;
#X restore 224 92 pd splitfilename;
#X obj 145 270 openpanel;
#X obj 145 47 f;
#X obj 175 48 + 1;
#X obj 145 70 sel 0;
#X obj 173 168 t b;
#X obj 145 20 inlet;
#X obj 145 293 outlet;
#X text 237 158 remember last directory;
#X obj 145 124 symbol ./;
#X obj 224 67 symbol;
#X obj 224 44 r \$0-open-sf;
#X obj 173 210 symbol ./;
#X connect 0 0 9 1;
#X connect 0 0 12 1;
#X connect 1 0 7 0;
#X connect 2 0 3 0;
#X connect 2 0 4 0;
#X connect 3 0 2 1;
#X connect 4 0 9 0;
#X connect 4 1 5 0;
#X connect 5 0 12 0;
#X connect 6 0 2 0;
#X connect 9 0 1 0;
#X connect 10 0 0 0;
#X connect 11 0 10 0;
#X connect 12 0 1 0;
#X restore 500 42 pd openpanel;
#N canvas 194 181 619 300 nofile 0;
#X obj 227 31 inlet;
#X obj 117 30 inlet;
#X obj 117 184 spigot 1;
#X obj 272 100 != 0;
#X obj 117 276 outlet;
#X obj 362 240 symbol empty..;
#X obj 443 29 inlet;
#X obj 227 55 t a a;
#X obj 227 277 outlet;
#X obj 362 280 outlet;
#X obj 227 184 spigot 1;
#X obj 362 138 sel 1 0;
#X obj 381 162 symbol;
#X msg 381 183 couldn't find \$1;
#X msg 272 78 \$1;
#X obj 381 206 print sfplayer~;
#X connect 0 0 7 0;
#X connect 1 0 2 0;
#X connect 2 0 4 0;
#X connect 3 0 2 1;
#X connect 3 0 10 1;
#X connect 3 0 11 0;
#X connect 5 0 9 0;
#X connect 6 0 5 1;
#X connect 6 0 12 1;
#X connect 7 0 10 0;
#X connect 7 1 14 0;
#X connect 10 0 8 0;
#X connect 11 0 5 0;
#X connect 11 1 12 0;
#X connect 12 0 13 0;
#X connect 13 0 15 0;
#X connect 14 0 3 0;
#X restore 272 276 pd nofile;
#X f 20;
#X connect 0 0 20 0;
#X connect 0 1 20 1;
#X connect 4 0 1 0;
#X connect 8 0 19 0;
#X connect 9 0 16 0;
#X connect 11 0 18 0;
#X connect 13 0 5 0;
#X connect 13 0 7 0;
#X connect 13 1 6 0;
#X connect 15 0 17 0;
#X connect 16 0 11 0;
#X connect 16 1 20 2;
#X connect 16 2 15 0;
#X connect 18 0 0 0;
#X connect 19 0 14 0;
#X connect 20 0 13 0;
#X connect 20 0 10 0;
#X connect 20 0 12 0;
#X connect 20 1 10 1;
#X connect 20 1 4 0;
#X connect 20 2 10 2;
#X restore 349 117 pd open;
#N canvas 451 316 450 300 init 0;
#X obj 90 108 s \$0-lbang;
#X msg 49 127 100;
#X obj 66 38 loadbang;
#X obj 47 148 s \$0-playbackspeedr;
#X connect 1 0 3 0;
#X connect 2 0 1 0;
#X connect 2 0 0 0;
#X restore 349 97 pd init;
#X obj 235 281 outlet~;
#X obj 174 279 outlet~;
#N canvas 64 334 1125 349 stuff 0;
#X obj 70 330 s \$0-playguicnv;
#X obj 69 69 sel 0 1;
#X obj 69 41 r \$0-playbacktgl;
#X msg 70 304 color 16;
#X msg 35 283 color 11;
#X msg 108 171 label Play;
#X obj 109 250 s \$0-playbacktglr;
#X msg 138 215 label Pause;
#X obj 281 52 r \$0-stoptgl;
#X msg 247 148 color 11;
#X obj 281 74 t b;
#X msg 282 169 color 13;
#X obj 282 195 s \$0-stopcnv;
#X obj 247 104 del 300;
#X msg 314 103 0;
#X obj 314 127 s \$0-playbacktglr;
#X obj 464 215 s waveform/\$0-links;
#X obj 476 240 s waveform/\$0-rechts;
#X obj 465 170 r \$0-lbang;
#X msg 465 194 color 0;
#X obj 597 15 r \$0-visbng;
#X obj 617 156 s \$0-visbngr;
#X msg 597 128 color 0 0;
#X msg 681 128 color 10 10;
#X obj 679 103 del 250;
#X obj 597 37 t b;
#X obj 452 98 s pd-\$0-sfplayer~;
#X obj 698 157 s \$0-namecnv;
#N canvas 204 66 853 400 normalize 0;
#X obj 111 128 array max \$0-links;
#X obj 194 149 array min \$0-links;
#X obj 276 73 t b b b b;
#X obj 310 117 array max \$0-rechts;
#X obj 363 137 array min \$0-rechts;
#X obj 310 198 expr if($f1<$f2 \, $f2 \, $f1);
#X obj 111 205 expr if($f1<$f2 \, $f2 \, $f1);
#X obj 194 170 abs;
#X obj 363 158 abs;
#X obj 111 233 expr if($f2<$f1 \, 1 \, $f1/$f2) \; if($f1<$f2 \, 1
\, $f2/$f1);
#X msg 215 466 normalize \$1;
#X msg 386 462 normalize \$1;
#X obj 216 490 s \$0-links;
#X obj 386 485 s \$0-rechts;
#X obj 528 19 r \$0-normalize;
#X obj 529 89 s waveform/\$0-links;
#X obj 548 112 s waveform/\$0-rechts;
#X obj 529 60 del 100;
#X obj 215 436 f;
#X obj 386 426 f;
#X obj 529 41 t b;
#X obj 97 387 f;
#X obj 292 403 f;
#X obj 196 273 r \$0-normalize;
#X obj 195 334 sel 1 0;
#X obj 276 3 r \$0-open-sf;
#X obj 276 46 del 10;
#X obj 297 25 t b;
#X obj 196 294 change;
#X obj 196 315 pipe 20;
#X msg 368 45 0;
#X obj 368 66 s \$0-normalizer;
#X connect 0 0 6 0;
#X connect 1 0 7 0;
#X connect 2 0 0 0;
#X connect 2 1 1 0;
#X connect 2 2 3 0;
#X connect 2 3 4 0;
#X connect 3 0 5 0;
#X connect 4 0 8 0;
#X connect 5 0 9 1;
#X connect 5 0 19 1;
#X connect 6 0 9 0;
#X connect 6 0 18 1;
#X connect 7 0 6 1;
#X connect 8 0 5 1;
#X connect 9 0 21 1;
#X connect 9 1 22 1;
#X connect 10 0 12 0;
#X connect 11 0 13 0;
#X connect 14 0 20 0;
#X connect 17 0 16 0;
#X connect 17 0 15 0;
#X connect 18 0 10 0;
#X connect 19 0 11 0;
#X connect 20 0 17 0;
#X connect 21 0 10 0;
#X connect 22 0 11 0;
#X connect 23 0 28 0;
#X connect 24 0 21 0;
#X connect 24 0 22 0;
#X connect 24 1 19 0;
#X connect 24 1 18 0;
#X connect 25 0 27 0;
#X connect 26 0 2 0;
#X connect 27 0 26 0;
#X connect 27 0 30 0;
#X connect 28 0 29 0;
#X connect 29 0 24 0;
#X connect 30 0 31 0;
#X restore 289 298 pd normalize;
#X obj 829 44 r \$0-open-sf;
#X obj 829 69 t b;
#X obj 844 119 r \$0-position;
#X obj 829 141 f;
#X obj 829 162 s \$0-positionr;
#X obj 829 93 del 10;
#X msg 452 74 relocate 620x180+1+1 1x1+50+60 \, vis 1 \, editmode 0
;
#X connect 1 0 4 0;
#X connect 1 0 5 0;
#X connect 1 1 3 0;
#X connect 1 1 7 0;
#X connect 2 0 1 0;
#X connect 3 0 0 0;
#X connect 4 0 0 0;
#X connect 5 0 6 0;
#X connect 7 0 6 0;
#X connect 8 0 10 0;
#X connect 9 0 12 0;
#X connect 10 0 11 0;
#X connect 10 0 13 0;
#X connect 10 0 14 0;
#X connect 11 0 12 0;
#X connect 13 0 9 0;
#X connect 14 0 15 0;
#X connect 18 0 19 0;
#X connect 19 0 16 0;
#X connect 19 0 17 0;
#X connect 20 0 25 0;
#X connect 22 0 21 0;
#X connect 22 0 27 0;
#X connect 23 0 21 0;
#X connect 23 0 27 0;
#X connect 24 0 23 0;
#X connect 25 0 35 0;
#X connect 25 0 24 0;
#X connect 25 0 22 0;
#X connect 29 0 30 0;
#X connect 30 0 34 0;
#X connect 31 0 32 1;
#X connect 32 0 33 0;
#X connect 34 0 32 0;
#X connect 35 0 26 0;
#X restore 349 138 pd stuff;
#X obj 172 165 inlet~;
#X obj 350 54 inlet;
#N canvas 302 57 919 710 playback 0;
#X obj 304 313 phasor~;
#X obj 410 510 snapshot~;
#X obj 304 338 -~ 0.5;
#X obj 304 363 *~ 10000;
#X text 181 332 convert phase to;
#X text 181 346 range +/-5000;
#X text 372 262 cycles/sec;
#X text 372 251 convert to;
#X obj 35 617 tabread4~ \$0-links;
#X obj 634 441 bang~;
#X obj 427 368 *~ 10000;
#X obj 410 389 +~;
#X obj 317 214 r \$0-samplerate;
#X obj 302 235 *~;
#X obj 207 616 tabread4~ \$0-rechts;
#X obj 303 261 /~ 10000;
#N canvas 181 54 990 628 onset+phase 0;
#X obj 123 100 inlet;
#X obj 149 770 outlet onset;
#X obj 291 773 outlet phase;
#X obj 291 337 t f f;
#X obj 309 610 t f b;
#X obj 342 639 f;
#X obj 309 639 -;
#X obj 291 708 -;
#X obj 291 750 + 0.5;
#X obj 291 729 / 10000;
#X obj 356 286 t b f;
#X msg 291 312 0;
#X obj 356 225 *;
#X obj 356 155 r \$0-position;
#N canvas 463 127 617 638 gui-position 0;
#X obj 195 39 inlet;
#X obj 317 195 /;
#X obj 349 196 r \$0-samplerate;
#X obj 295 440 s \$0-minutes;
#X obj 372 317 / 60;
#X obj 372 337 i;
#X obj 299 245 mod 60;
#X obj 325 285 < 10;
#X obj 295 366 makefilename 0%d;
#X obj 298 266 t f f;
#X obj 270 306 list prepend;
#X obj 270 325 route 0 1;
#X obj 269 345 makefilename %d;
#X obj 295 396 pack s f;
#X obj 317 224 t f f;
#X msg 295 417 label 0\$2:\$1;
#X obj 88 300 s \$0-zeiger;
#X msg 88 278 pos \$1 0;
#X obj 88 235 * 499;
#X obj 88 258 + 1;
#X obj 88 198 /;
#X obj 120 199 r \$0-samplelenght;
#X obj 29 61 metro 100;
#X obj 177 116 f;
#X obj 224 69 r \$0-samplelenght;
#X obj 195 71 min;
#X obj 195 93 max 0;
#X obj 110 46 r pd;
#X obj 110 66 route dsp;
#X obj 29 20 r \$0-visbng;
#X obj 29 41 t b;
#X obj 29 82 spigot 1;
#X connect 0 0 25 0;
#X connect 1 0 14 0;
#X connect 2 0 1 1;
#X connect 4 0 5 0;
#X connect 5 0 13 1;
#X connect 6 0 9 0;
#X connect 7 0 10 1;
#X connect 8 0 13 0;
#X connect 9 0 10 0;
#X connect 9 1 7 0;
#X connect 10 0 11 0;
#X connect 11 0 12 0;
#X connect 11 1 8 0;
#X connect 12 0 13 0;
#X connect 13 0 15 0;
#X connect 14 0 6 0;
#X connect 14 1 4 0;
#X connect 15 0 3 0;
#X connect 17 0 16 0;
#X connect 18 0 19 0;
#X connect 19 0 17 0;
#X connect 20 0 18 0;
#X connect 21 0 20 1;
#X connect 22 0 31 0;
#X connect 23 0 20 0;
#X connect 23 0 1 0;
#X connect 24 0 25 1;
#X connect 25 0 26 0;
#X connect 26 0 23 1;
#X connect 27 0 28 0;
#X connect 28 0 31 1;
#X connect 29 0 30 0;
#X connect 30 0 22 0;
#X connect 31 0 23 0;
#X restore 399 576 pd gui-position;
#X obj 310 124 r \$0-stoptgl;
#X obj 310 147 t b;
#X obj 399 429 +;
#X obj 437 432 f;
#X obj 388 208 r \$0-samplelenght;
#X obj 356 256 f;
#X text 464 435 new onset is phase plus old onset;
#X text 371 638 new onset minus old onset;
#X text 323 680 back up phasor output by amount the onset advanced
;
#X text 345 745 convert phase back to range 0-1;
#X text 321 693 (approximately zero but not exactly because of truncation
error!;
#N canvas 2 54 450 300 loop 0;
#X obj 171 39 inlet;
#X obj 171 60 t f f;
#X msg 233 239 0;
#X obj 255 65 r \$0-samplelenght;
#X obj 347 205 r \$0-looptgl;
#X obj 282 110 <=;
#X obj 282 130 sel 0;
#X obj 282 153 del 1;
#X obj 198 241 f;
#X obj 171 133 sel 0;
#X obj 171 156 del 1;
#X obj 171 113 >= 0;
#X obj 282 260 s \$0-stoptgl;
#X obj 347 227 != 1;
#X obj 282 176 t b b;
#X obj 171 177 t b b;
#X obj 282 227 spigot 1;
#X obj 198 269 outlet;
#X connect 0 0 1 0;
#X connect 1 0 11 0;
#X connect 1 1 5 0;
#X connect 2 0 17 0;
#X connect 3 0 5 1;
#X connect 3 0 8 1;
#X connect 4 0 13 0;
#X connect 5 0 6 0;
#X connect 6 0 7 0;
#X connect 7 0 14 0;
#X connect 8 0 17 0;
#X connect 9 0 10 0;
#X connect 10 0 15 0;
#X connect 11 0 9 0;
#X connect 13 0 16 1;
#X connect 14 0 16 0;
#X connect 14 1 2 0;
#X connect 15 0 16 0;
#X connect 15 1 8 0;
#X connect 16 0 12 0;
#X restore 539 472 pd loop;
#X obj 399 456 t f f;
#X connect 0 0 3 0;
#X connect 3 0 7 0;
#X connect 3 1 17 0;
#X connect 4 0 5 1;
#X connect 4 0 6 0;
#X connect 4 1 5 0;
#X connect 5 0 6 1;
#X connect 6 0 7 1;
#X connect 7 0 9 0;
#X connect 8 0 2 0;
#X connect 9 0 8 0;
#X connect 10 0 11 0;
#X connect 10 1 5 1;
#X connect 10 1 17 1;
#X connect 11 0 3 0;
#X connect 12 0 20 0;
#X connect 13 0 12 0;
#X connect 15 0 16 0;
#X connect 16 0 20 0;
#X connect 17 0 18 0;
#X connect 17 0 27 0;
#X connect 18 0 17 1;
#X connect 19 0 12 1;
#X connect 20 0 10 0;
#X connect 26 0 10 0;
#X connect 27 0 1 0;
#X connect 27 0 4 0;
#X connect 27 0 14 0;
#X connect 27 1 26 0;
#X restore 318 543 pd onset+phase;
#X obj 353 100 / 100;
#X obj 353 121 sig~;
#X obj 353 80 r \$0-playbackspeed;
#X obj 208 671 outlet~;
#X obj 36 674 outlet~;
#X text 415 422 sample to sync with next block;
#X text 415 409 extrapolate phase by one;
#X text 427 543 calculate phase + onset;
#X obj 687 169 switch~;
#X obj 687 63 r \$0-stoptgl;
#X obj 687 83 t b;
#X msg 687 105 0;
#X obj 698 130 r \$0-playbacktgl;
#X obj 703 427 r \$0-stoptgl;
#X obj 703 447 t b;
#X msg 703 469 0;
#X obj 698 407 r \$0-playbacktgl;
#X obj 303 137 +~;
#X obj 303 81 *~ 0.01;
#N canvas 1 57 450 300 samplerate 0;
#X obj 230 123 outlet;
#X obj 230 96 samplerate~;
#X obj 230 75 r pd-dsp-started;
#X connect 1 0 0 0;
#X connect 2 0 1 0;
#X restore 442 302 pd samplerate;
#X obj 442 322 expr 1/$f1;
#X obj 427 343 *~;
#X msg 35 554 set \$1;
#X obj 35 531 r \$0-set-l;
#X msg 158 552 set \$1;
#X obj 158 529 r \$0-set-r;
#X obj 634 469 spigot 0;
#X obj 303 51 inlet~;
#X text 349 49 playback speed;
#X connect 0 0 2 0;
#X connect 1 0 16 0;
#X connect 2 0 3 0;
#X connect 3 0 8 0;
#X connect 3 0 11 0;
#X connect 3 0 14 0;
#X connect 8 0 21 0;
#X connect 9 0 43 0;
#X connect 10 0 11 1;
#X connect 11 0 1 0;
#X connect 12 0 13 1;
#X connect 13 0 15 0;
#X connect 14 0 20 0;
#X connect 15 0 0 0;
#X connect 15 0 38 0;
#X connect 16 0 14 1;
#X connect 16 0 8 1;
#X connect 16 1 0 1;
#X connect 17 0 18 0;
#X connect 18 0 34 1;
#X connect 19 0 17 0;
#X connect 26 0 27 0;
#X connect 27 0 28 0;
#X connect 28 0 25 0;
#X connect 29 0 25 0;
#X connect 30 0 31 0;
#X connect 31 0 32 0;
#X connect 32 0 43 1;
#X connect 33 0 43 1;
#X connect 34 0 13 0;
#X connect 35 0 34 0;
#X connect 36 0 37 0;
#X connect 37 0 38 1;
#X connect 38 0 10 0;
#X connect 39 0 8 0;
#X connect 40 0 39 0;
#X connect 41 0 14 0;
#X connect 42 0 41 0;
#X connect 43 0 1 0;
#X connect 44 0 35 0;
#X restore 173 193 pd playback;
#X obj 103 115 hsl 175 15 0 127 0 0 \$0-visbng \$0-visbngr empty 2
8 2 10 -233017 -233017 -1 0 1;
#N canvas 3 57 888 439 record 0;
#X msg 243 237 start;
#X obj 464 97 sel 0 1;
#X obj 487 180 timer;
#X obj 487 218 * 44.1;
#X obj 541 174 samplerate~;
#X obj 541 199 / 1000;
#X msg 156 239 stop;
#X obj 437 68 t f f;
#X obj 301 164 sel 1 0;
#X obj 229 125 inlet~;
#X msg 721 200 resize 1.67772e+07;
#X msg 487 285 resize \$1;
#X obj 437 20 r \$0-record;
#X obj 135 124 inlet~;
#X obj 136 313 tabwrite~ \$0-links;
#X obj 228 289 tabwrite~ \$0-rechts;
#X obj 735 325 s \$0-rechts;
#X obj 721 348 s \$0-links;
#X obj 301 236 s waveform/\$0-links;
#X obj 320 259 s waveform/\$0-rechts;
#X obj 301 205 del 10;
#X obj 437 45 > 0;
#X obj 135 146 hip~ 5;
#X obj 229 148 hip~ 5;
#X obj 601 199 s \$0-samplerate;
#X obj 500 256 s \$0-samplelenght;
#N canvas 343 67 797 561 info 0;
#X obj 172 519 s \$0-wfbg;
#X obj 107 138 /;
#X obj 57 202 / 60;
#X obj 57 222 i;
#X obj 182 193 mod 60;
#X obj 214 265 < 10;
#X obj 187 346 makefilename 0%d;
#X obj 182 245 t f f;
#X obj 157 287 list prepend;
#X obj 157 306 route 0 1;
#X obj 156 326 makefilename %d;
#X obj 138 563 print sfplayer~;
#X obj 107 158 t f f;
#X obj 114 261 < 10;
#X obj 36 350 makefilename 0%d;
#X obj 57 242 t f f;
#X obj 35 282 list prepend;
#X obj 35 301 route 0 1;
#X obj 2 330 makefilename %d;
#X msg 172 495 label Recorded___\$1:\$2___\$3Hz;
#X obj 172 473 pack s s f;
#X obj 423 42 inlet;
#X obj 107 36 inlet;
#X msg 137 543 Recorded \$1:\$2 \$3Hz;
#X msg 11 540 label Recorded;
#X obj 11 562 s \$0-namecnv;
#X connect 1 0 12 0;
#X connect 2 0 3 0;
#X connect 3 0 15 0;
#X connect 4 0 7 0;
#X connect 5 0 8 1;
#X connect 6 0 20 1;
#X connect 7 0 8 0;
#X connect 7 1 5 0;
#X connect 8 0 9 0;
#X connect 9 0 10 0;
#X connect 9 1 6 0;
#X connect 10 0 20 1;
#X connect 12 0 2 0;
#X connect 12 1 4 0;
#X connect 13 0 16 1;
#X connect 14 0 20 0;
#X connect 15 0 16 0;
#X connect 15 1 13 0;
#X connect 16 0 17 0;
#X connect 17 0 18 0;
#X connect 17 1 14 0;
#X connect 18 0 20 0;
#X connect 19 0 0 0;
#X connect 20 0 19 0;
#X connect 20 0 23 0;
#X connect 20 0 24 0;
#X connect 21 0 20 2;
#X connect 21 0 1 1;
#X connect 22 0 1 0;
#X connect 23 0 11 0;
#X connect 24 0 25 0;
#X restore 637 256 pd info;
#X obj 443 330 f \$0;
#X msg 443 353 \; \$1-set-l symbol \$1-links \; \$1-set-r symbol \$1-rechts
;
#X obj 524 130 t b b b;
#X connect 0 0 15 0;
#X connect 0 0 14 0;
#X connect 1 0 2 1;
#X connect 1 0 27 0;
#X connect 1 1 29 0;
#X connect 2 0 3 0;
#X connect 3 0 11 0;
#X connect 3 0 25 0;
#X connect 3 0 26 0;
#X connect 4 0 5 0;
#X connect 4 0 24 0;
#X connect 4 0 26 1;
#X connect 5 0 3 1;
#X connect 6 0 15 0;
#X connect 6 0 14 0;
#X connect 7 0 8 0;
#X connect 7 1 1 0;
#X connect 8 0 0 0;
#X connect 8 1 6 0;
#X connect 8 1 20 0;
#X connect 9 0 23 0;
#X connect 10 0 16 0;
#X connect 10 0 17 0;
#X connect 11 0 16 0;
#X connect 11 0 17 0;
#X connect 12 0 21 0;
#X connect 13 0 22 0;
#X connect 20 0 18 0;
#X connect 20 0 19 0;
#X connect 21 0 7 0;
#X connect 22 0 14 0;
#X connect 23 0 15 0;
#X connect 27 0 28 0;
#X connect 29 0 2 0;
#X connect 29 1 4 0;
#X connect 29 2 10 0;
#X restore 55 196 pd record;
#X obj 54 167 inlet~;
#X obj 114 165 inlet~;
#N canvas 50 60 620 180 \$0-sfplayer~ 0;
#N canvas 411 112 715 391 maske 0;
#X obj 0 0 cnv 15 600 168 empty empty empty 20 12 0 14 -262144 -66577
0;
#X obj 10 25 bng 16 250 50 0 \$0-op \$0-opr Open 0 -7 2 10 -262144
-4034 -1;
#X obj 38 57 tgl 16 0 \$0-stoptgl \$0-stoptglr Stop 0 -7 2 10 -262144
-262144 -1 0 1;
#X obj 10 57 tgl 16 0 \$0-playbacktgl \$0-playbacktglr Play 0 -7 2
10 -262144 -262144 -1 0 1;
#X obj 16 60 cnv 1 1 10 empty \$0-playguicnv empty 20 12 0 14 -128992
-262144 0;
#X obj 17 61 cnv 1 1 8 empty \$0-playguicnv empty 20 12 0 14 -128992
-262144 0;
#X obj 18 62 cnv 1 1 6 empty \$0-playguicnv empty 20 12 0 14 -128992
-262144 0;
#X obj 19 63 cnv 1 1 4 empty \$0-playguicnv empty 20 12 0 14 -128992
-262144 0;
#X obj 20 64 cnv 1 1 2 empty \$0-playguicnv empty 20 12 0 14 -128992
-262144 0;
#X obj 10 91 nbx 4 12 -1e+37 1e+37 0 0 \$0-playbackspeed \$0-playbackspeedr
Playback-Speed 0 -8 2 10 -262144 -1 -1 100 256;
#X obj 49 87 cnv 15 10 15 empty empty % 1 10 2 10 -262144 -1 0;
#X obj 82 4 cnv 10 10 10 empty \$0-wfbg empty.. 1 5 2 10 -262144 -1
0;
#X obj 10 110 tgl 10 0 \$0-looptgl \$0-looptglr loop 14 6 2 10 -262144
-1 -1 0 1;
#X obj 82 15 cnv 15 502 122 empty empty empty 20 12 0 14 -128992 -66577
0;
#N canvas 641 183 532 272 waveform 0;
#X obj 0 1 cnv 15 500 119 empty empty empty 3 6 2 10 -228856 -1 0;
#X obj 1 0 cnv 1 1 120 empty \$0-zeiger empty 20 12 0 14 -258113 -66577
0;
#X obj 0 0 pp.waveform \$0-links 500 60 1 -1 999 1 1 100;
#X obj 0 60 pp.waveform \$0-rechts 500 60 1 -1 999 1 1 100;
#X coords 0 -1 1 1 500 120 1 0 0;
#X restore 83 16 pd waveform;
#X obj 555 119 cnv 3 3 3 empty \$0-minutes 00:00 1 10 2 10 -228856
-1 0;
#X obj 82 153 nbx 8 12 0 1e+37 0 0 \$0-positionms \$0-positionmsr Position(ms)
70 7 2 10 -262144 -1 -1 0 256;
#N canvas 0 50 450 300 map 0;
#X obj 188 127 r \$0-samplelenght;
#X obj 158 127 /;
#X obj 187 82 r \$0-samplerate;
#X obj 187 103 / 1000;
#X obj 158 103 *;
#X obj 158 42 inlet;
#X obj 158 173 outlet;
#X obj 330 88 *;
#X obj 330 42 inlet;
#X obj 330 120 /;
#X msg 329 179 set \$1;
#X obj 329 201 outlet;
#X obj 329 156 i;
#X connect 0 0 1 1;
#X connect 0 0 7 1;
#X connect 1 0 6 0;
#X connect 2 0 3 0;
#X connect 3 0 4 1;
#X connect 3 0 9 1;
#X connect 4 0 1 0;
#X connect 5 0 4 0;
#X connect 7 0 9 0;
#X connect 8 0 7 0;
#X connect 9 0 12 0;
#X connect 10 0 11 0;
#X connect 12 0 10 0;
#X restore 20 178 pd map;
#X obj 85 140 hsl 496 10 0 1 0 0 \$0-position \$0-positionr empty -2
-8 2 10 -262144 -1 -1 0 0;
#X obj 39 25 tgl 16 0 \$0-record \$0-recordr Record 0 -7 2 10 -262144
-258113 -1 0 1;
#X obj 42 61 cnv 8 7 7 empty \$0-stopcnv empty 20 12 0 14 -128992 -128992
0;
#X obj 10 127 tgl 10 0 \$0-normalize \$0-normalizer normalize 14 6
2 10 -262144 -1 -1 0 1;
#X connect 16 0 17 0;
#X connect 17 0 18 0;
#X connect 17 1 16 0;
#X connect 18 0 17 1;
#X coords 0 -1 1 1 601 169 1 0 0;
#X restore 5 4 pd maske \$0-maskeaveform;
#X restore 349 159 pd \$0-sfplayer~;
#X obj 345 301 outlet;
#N canvas 249 115 836 588 outlet-message 0;
#X obj 172 407 list trim;
#X msg 108 378 addcomma;
#X msg 44 356 set;
#X obj 172 384 list prepend add2;
#X obj 172 478 outlet;
#N canvas 78 393 736 292 bang_once...................................................
0;
#X obj 174 87 t b f;
#X obj 132 87 t b f;
#X obj 89 183 del 0;
#X obj 89 87 t b f;
#X obj 306 85 t b f;
#X obj 89 41 inlet;
#X obj 132 40 inlet;
#X obj 174 40 inlet;
#X obj 306 38 inlet;
#X obj 553 42 inlet;
#X obj 452 248 outlet;
#X obj 89 217 f;
#X obj 553 88 t b a;
#X obj 235 88 t b f;
#X obj 235 41 inlet;
#X obj 466 212 pack 0 0 0 0 0 0 s;
#X obj 424 86 t b f;
#X obj 424 39 inlet;
#X connect 0 0 2 0;
#X connect 0 1 15 2;
#X connect 1 0 2 0;
#X connect 1 1 15 1;
#X connect 2 0 11 0;
#X connect 3 0 2 0;
#X connect 3 1 11 1;
#X connect 4 0 2 0;
#X connect 4 1 15 4;
#X connect 5 0 3 0;
#X connect 6 0 1 0;
#X connect 7 0 0 0;
#X connect 8 0 4 0;
#X connect 9 0 12 0;
#X connect 11 0 15 0;
#X connect 12 0 2 0;
#X connect 12 1 15 6;
#X connect 13 0 2 0;
#X connect 13 1 15 3;
#X connect 14 0 13 0;
#X connect 15 0 10 0;
#X connect 16 0 2 0;
#X connect 16 1 15 5;
#X connect 17 0 16 0;
#X restore 123 200 pd bang_once...................................................
;
#X obj 480 155 r \$0-open-sf;
#X obj 480 177 symbol;
#X obj 182 68 r \$0-playbackspeed;
#X obj 361 162 r \$0-looptgl;
#X obj 123 35 r \$0-playbacktgl;
#X obj 323 38 r \$0-position;
#X obj 265 144 i;
#X obj 349 62 r \$0-samplelenght;
#X obj 359 85 r \$0-samplerate;
#X obj 359 106 / 1000;
#X obj 323 62 *;
#X obj 323 107 /;
#X obj 301 162 * 100;
#X obj 301 140 r \$0-position;
#X obj 421 132 r \$0-normalize;
#X msg 142 277 open \$7 \, play \$1 \, playback-speed \$2 \, position
\$3 \, position% \$4 \, loop \$5 \, normalize \$6;
#X obj 123 234 t b a b;
#X obj 142 325 t b a a;
#N canvas 497 375 297 264 save 0;
#X obj 48 16 inlet;
#N canvas 690 259 481 384 collect 0;
#X obj 47 60 inlet;
#X obj 47 274 outlet;
#X obj 98 180 list;
#X obj 166 181 t l;
#X obj 47 225 list;
#X obj 98 139 list append |;
#X obj 47 126 del 0;
#X obj 47 82 t b a;
#X text 119 75 hacky thing... replaycing " \, " with "|";
#X connect 0 0 7 0;
#X connect 2 0 3 0;
#X connect 2 0 4 1;
#X connect 3 0 2 1;
#X connect 4 0 1 0;
#X connect 5 0 2 0;
#X connect 6 0 2 1;
#X connect 6 0 4 0;
#X connect 7 0 6 0;
#X connect 7 1 5 0;
#X restore 48 38 pd collect;
#X obj 117 16 r \$0-save;
#X obj 27 150 text set \$0-savestates;
#X obj 27 104 list;
#X obj 117 62 t b f;
#X obj 117 39 clip 0 20;
#X connect 0 0 1 0;
#X connect 1 0 4 1;
#X connect 2 0 6 0;
#X connect 4 0 3 0;
#X connect 5 0 4 0;
#X connect 5 1 3 1;
#X connect 6 0 5 0;
#X restore 181 354 pd save;
#X connect 0 0 4 0;
#X connect 1 0 4 0;
#X connect 2 0 4 0;
#X connect 3 0 0 0;
#X connect 5 0 22 0;
#X connect 6 0 7 0;
#X connect 7 0 5 6;
#X connect 8 0 5 1;
#X connect 9 0 5 4;
#X connect 10 0 5 0;
#X connect 11 0 16 0;
#X connect 12 0 5 2;
#X connect 13 0 16 1;
#X connect 14 0 15 0;
#X connect 15 0 17 1;
#X connect 16 0 17 0;
#X connect 17 0 12 0;
#X connect 18 0 5 3;
#X connect 19 0 18 0;
#X connect 20 0 5 5;
#X connect 21 0 23 0;
#X connect 22 0 4 0;
#X connect 22 1 21 0;
#X connect 22 2 2 0;
#X connect 23 0 1 0;
#X connect 23 1 3 0;
#X connect 23 2 24 0;
#X restore 345 252 pd outlet-message;
#X obj 103 118 cnv 10 10 10 empty \$0-namecnv empty.. 0 5 2 10 -233017
-1 0;
#N canvas 392 281 686 380 in 0;
#X obj 128 16 inlet;
#X obj 183 274 s \$0-stoptglr;
#X msg 183 253 0;
#X obj 183 231 t b;
#X obj 127 305 s \$0-playbacktglr;
#X obj 298 267 s \$0-looptglr;
#X obj 394 327 r \$0-samplelenght;
#X obj 364 327 /;
#X obj 393 282 r \$0-samplerate;
#X obj 393 304 / 1000;
#X obj 364 303 *;
#X obj 412 365 s \$0-positionr;
#X obj 411 206 s \$0-recordr;
#X obj 234 236 s \$0-playbackspeedr;
#X obj 412 252 / 100;
#X obj 578 189 s \$0-open-sf;
#X obj 578 165 symbol;
#X obj 415 185 s \$0-normalizer;
#X obj 415 164 != 0;
#X obj 128 46 route play stop playback-speed loop position position%
record normalize set open;
#N canvas 196 182 728 433 set 0;
#X obj 344 50 inlet;
#X obj 451 96 list length;
#X obj 346 72 t a a;
#X obj 346 124 unpack s s;
#X obj 451 117 == 1;
#X obj 424 212 s \$0-set-r;
#X obj 346 212 s \$0-set-l;
#X obj 220 318 s \$0-samplerate;
#X obj 108 263 s \$0-samplelenght;
#X obj 99 241 array size;
#X obj 220 295 samplerate~;
#X obj 181 180 t b s b;
#X obj 346 263 r \$0-set-l;
#X obj 433 262 r \$0-set-r;
#X msg 346 289 set \$1 \, bang;
#X obj 346 340 s waveform/\$0-links;
#X obj 433 315 s waveform/\$0-rechts;
#X msg 433 290 set \$1 \, bang;
#X obj 451 140 sel 1;
#X obj 525 209 table \$0-dummy 64;
#X obj 451 163 f \$0;
#X msg 451 185 symbol \$1-dummy;
#N canvas 445 148 797 561 sondfile-info 0;
#X obj 172 519 s \$0-wfbg;
#X obj 107 135 /;
#X obj 57 202 / 60;
#X obj 57 222 i;
#X obj 162 202 mod 60;
#X obj 194 265 < 10;
#X obj 167 346 makefilename 0%d;
#X obj 162 240 t f f;
#X obj 137 287 list prepend;
#X obj 137 306 route 0 1;
#X obj 136 326 makefilename %d;
#X obj 105 563 print sfplayer~;
#X obj 107 158 t f f;
#X obj 80 36 inlet samp.length;
#X obj 114 261 < 10;
#X obj 36 350 makefilename 0%d;
#X obj 57 242 t f f;
#X obj 35 282 list prepend;
#X obj 35 301 route 0 1;
#X obj 2 330 makefilename %d;
#X msg 11 540 label \$4;
#X obj 11 562 s \$0-namecnv;
#X obj 80 60 t f b;
#X obj 252 105 samplerate~;
#X msg 172 495 label \$4___\$1:\$2___\$3Hz;
#X obj 172 473 pack s s f s;
#X obj 383 40 inlet set;
#X msg 105 542 \$4 \$1:\$2 \$3Hz;
#X connect 1 0 12 0;
#X connect 2 0 3 0;
#X connect 3 0 16 0;
#X connect 4 0 7 0;
#X connect 5 0 8 1;
#X connect 6 0 25 1;
#X connect 7 0 8 0;
#X connect 7 1 5 0;
#X connect 8 0 9 0;
#X connect 9 0 10 0;
#X connect 9 1 6 0;
#X connect 10 0 25 1;
#X connect 12 0 2 0;
#X connect 12 1 4 0;
#X connect 13 0 22 0;
#X connect 14 0 17 1;
#X connect 15 0 25 0;
#X connect 16 0 17 0;
#X connect 16 1 14 0;
#X connect 17 0 18 0;
#X connect 18 0 19 0;
#X connect 18 1 15 0;
#X connect 19 0 25 0;
#X connect 20 0 21 0;
#X connect 22 0 1 0;
#X connect 22 1 23 0;
#X connect 23 0 1 1;
#X connect 23 0 25 2;
#X connect 24 0 0 0;
#X connect 25 0 24 0;
#X connect 25 0 27 0;
#X connect 25 0 20 0;
#X connect 26 0 25 3;
#X connect 27 0 11 0;
#X restore 51 315 pd sondfile-info;
#X connect 0 0 2 0;
#X connect 1 0 4 0;
#X connect 2 0 3 0;
#X connect 2 1 1 0;
#X connect 3 0 6 0;
#X connect 3 0 11 0;
#X connect 3 1 5 0;
#X connect 4 0 18 0;
#X connect 9 0 8 0;
#X connect 9 0 22 0;
#X connect 10 0 7 0;
#X connect 11 0 9 0;
#X connect 11 1 9 1;
#X connect 11 1 22 1;
#X connect 11 2 10 0;
#X connect 12 0 14 0;
#X connect 13 0 17 0;
#X connect 14 0 15 0;
#X connect 17 0 16 0;
#X connect 18 0 20 0;
#X connect 20 0 21 0;
#X connect 21 0 5 0;
#X restore 520 184 pd set;
#N canvas 703 488 200 251 route 0;
#X obj 20 20 inlet;
#X obj 30 60 route save recall;
#X obj 30 85 route float;
#X obj 97 111 route float;
#X obj 30 136 s \$0-save;
#X obj 30 108 i;
#X obj 98 133 i;
#X obj 98 161 s \$0-recall;
#X connect 0 0 1 0;
#X connect 1 0 2 0;
#X connect 1 1 3 0;
#X connect 2 0 5 0;
#X connect 3 0 6 0;
#X connect 5 0 4 0;
#X connect 6 0 7 0;
#X restore 497 88 pd route save-recall;
#N canvas 362 125 450 479 recall 0;
#X obj 49 145 outlet;
#N canvas 3 54 450 600 listsplit 0;
#X obj 158 23 inlet;
#X obj 220 87 list length;
#X obj 220 113 until;
#X obj 182 150 f;
#X obj 278 150 + 1;
#X msg 265 111 0;
#X obj 182 226 list store;
#X msg 182 202 get \$1 1;
#X obj 154 367 list split;
#X obj 222 342 f;
#X obj 154 334 list;
#X obj 98 124 list;
#X obj 182 389 list split 1;
#X obj 154 274 t bang bang bang;
#X obj 182 179 t f f;
#X obj 158 48 t l l l b;
#X obj 154 473 outlet;
#X obj 154 440 list trim;
#X obj 163 248 sel |;
#X text 275 197 hacky split list at "|";
#X connect 0 0 15 0;
#X connect 1 0 2 0;
#X connect 2 0 3 0;
#X connect 3 0 4 0;
#X connect 3 0 14 0;
#X connect 4 0 3 1;
#X connect 5 0 3 1;
#X connect 6 0 18 0;
#X connect 7 0 6 0;
#X connect 8 0 17 0;
#X connect 8 1 12 0;
#X connect 9 0 8 1;
#X connect 10 0 8 0;
#X connect 11 0 15 0;
#X connect 12 1 11 0;
#X connect 13 0 10 0;
#X connect 13 1 9 0;
#X connect 13 2 2 1;
#X connect 14 0 7 0;
#X connect 14 1 9 1;
#X connect 15 0 1 0;
#X connect 15 1 10 1;
#X connect 15 2 6 1;
#X connect 15 3 5 0;
#X connect 17 0 16 0;
#X connect 18 0 13 0;
#X restore 49 117 pd listsplit;
#X obj 49 24 r \$0-recall;
#X obj 49 54 pipe 1;
#X obj 221 409 text fromlist \$0-savestates;
#X obj 49 77 text get \$0-savestates;
#X msg 253 246 21;
#X obj 253 269 until;
#X obj 253 292 f;
#X obj 300 295 + 1;
#X obj 253 315 t b f;
#X obj 253 367 text set \$0-savestates;
#X obj 221 114 text tolist \$0-savestates;
#X msg 253 342 list empty_slot;
#X obj 221 160 t a b;
#X obj 151 166 loadbang;
#X obj 221 137 savestate;
#X obj 221 33 text define \$0-savestates;
#X obj 151 189 del 0;
#X msg 298 199 0;
#X obj 253 220 spigot 1;
#X connect 1 0 0 0;
#X connect 2 0 3 0;
#X connect 3 0 5 0;
#X connect 5 0 1 0;
#X connect 6 0 7 0;
#X connect 7 0 8 0;
#X connect 8 0 9 0;
#X connect 8 0 10 0;
#X connect 9 0 8 1;
#X connect 10 0 13 0;
#X connect 10 1 11 1;
#X connect 12 0 16 0;
#X connect 13 0 11 0;
#X connect 14 0 4 0;
#X connect 14 1 19 0;
#X connect 15 0 18 0;
#X connect 16 0 14 0;
#X connect 16 1 12 0;
#X connect 18 0 20 0;
#X connect 19 0 20 1;
#X connect 20 0 6 0;
#X restore 175 22 pd recall;
#X connect 0 0 19 0;
#X connect 2 0 1 0;
#X connect 3 0 2 0;
#X connect 6 0 7 1;
#X connect 7 0 11 0;
#X connect 8 0 9 0;
#X connect 9 0 10 1;
#X connect 10 0 7 0;
#X connect 14 0 11 0;
#X connect 16 0 15 0;
#X connect 18 0 17 0;
#X connect 19 0 4 0;
#X connect 19 1 3 0;
#X connect 19 2 13 0;
#X connect 19 3 5 0;
#X connect 19 4 10 0;
#X connect 19 5 14 0;
#X connect 19 6 12 0;
#X connect 19 7 18 0;
#X connect 19 8 20 0;
#X connect 19 9 16 0;
#X connect 19 10 21 0;
#X connect 22 0 19 0;
#X restore 350 75 pd in;
#X text 383 392 philipp schmalfuß \, 2018;
#X connect 5 0 7 0;
#X connect 6 0 16 0;
#X connect 7 0 3 0;
#X connect 7 1 2 0;
#X connect 10 0 9 0;
#X connect 11 0 9 1;
#X connect 14 0 13 0;
#X coords 0 -1 1 1 180 33 1 100 100;
