#N canvas 54 142 1144 504 10;
#N struct \$0-control-array float x float y float x1 float y1 float x2 float y2 array c-array \$0-control-template;
#N struct \$0-control-template float x float y float c float n;
#X obj 433 416 outlet~;
#X obj 603 65 inlet~;
#X obj 690 64 inlet~;
#N canvas 3 52 376 342 amp 0;
#X obj 91 298 outlet~;
#X obj 91 264 *~;
#N canvas 417 176 450 300 cos 0;
#X obj 79 69 inlet~;
#X obj 78 134 cos~;
#X obj 78 92 *~ 0.25;
#X obj 77 180 outlet~;
#X obj 174 72 r \$0-panlaw;
#X obj 174 95 == 0;
#X obj 174 118 switch~;
#X obj 256 79 loadbang;
#X msg 256 102 1;
#X connect 0 0 2 0;
#X connect 1 0 3 0;
#X connect 2 0 1 0;
#X connect 4 0 5 0;
#X connect 5 0 6 0;
#X connect 7 0 8 0;
#X connect 8 0 6 0;
#X restore 107 182 pd cos;
#N canvas 232 277 290 199 sqrt 0;
#X obj 45 21 inlet~;
#X obj 30 154 outlet~;
#X obj 31 109 sqrt~;
#X obj 30 60 sig~ 1;
#X obj 30 83 -~;
#X obj 103 45 r \$0-panlaw;
#X obj 103 91 switch~;
#X obj 185 52 loadbang;
#X obj 103 68 != 0;
#X msg 185 75 0;
#X connect 0 0 4 1;
#X connect 2 0 1 0;
#X connect 3 0 4 0;
#X connect 4 0 2 0;
#X connect 5 0 8 0;
#X connect 7 0 9 0;
#X connect 8 0 6 0;
#X connect 9 0 6 0;
#X restore 245 179 pd sqrt;
#X obj 245 7 inlet~;
#X text 289 9 angle;
#X obj 92 10 inlet~;
#X connect 1 0 0 0;
#X connect 2 0 1 1;
#X connect 3 0 1 1;
#X connect 4 0 2 0;
#X connect 4 0 3 0;
#X connect 6 0 1 0;
#X restore 432 259 pd amp;
#X obj 491 415 outlet~;
#X obj 551 415 outlet~;
#X obj 608 416 outlet~;
#X obj 778 63 inlet~;
#X obj 970 60 inlet;
#N canvas 3 54 574 409 in 0;
#X obj 68 41 inlet;
#X obj 68 146 route speaker-1 speaker-2 speaker-3 speaker-4 speaker-5 speaker-6 speaker-7 speaker-8;
#X obj 447 77 loadbang;
#X obj 412 176 list trim;
#X obj 412 153 list;
#X obj 412 131 symbol \$1;
#X obj 474 292 s \$0-panlaw;
#X obj 436 232 t b;
#X msg 474 268 0;
#X obj 505 248 t b;
#X msg 505 269 1;
#N canvas 698 546 200 251 route 0;
#X obj 20 20 inlet;
#X obj 30 60 route save recall;
#X obj 30 85 route float;
#X obj 97 111 route float;
#X obj 30 136 s \$0-save;
#X obj 30 108 i;
#X obj 98 133 i;
#X obj 98 161 s \$0-recall;
#X connect 0 0 1 0;
#X connect 1 0 2 0;
#X connect 1 1 3 0;
#X connect 2 0 5 0;
#X connect 3 0 6 0;
#X connect 5 0 4 0;
#X connect 6 0 7 0;
#X restore 97 93 pd route save-recall;
#X obj 447 100 t b b;
#N canvas 362 125 450 479 recall 0;
#X obj 49 145 outlet;
#N canvas 3 54 450 600 listsplit 0;
#X obj 158 23 inlet;
#X obj 220 87 list length;
#X obj 220 113 until;
#X obj 182 150 f;
#X obj 278 150 + 1;
#X msg 265 111 0;
#X obj 182 226 list store;
#X msg 182 202 get \$1 1;
#X obj 154 367 list split;
#X obj 222 342 f;
#X obj 154 334 list;
#X obj 98 124 list;
#X obj 182 389 list split 1;
#X obj 154 274 t bang bang bang;
#X obj 182 179 t f f;
#X obj 158 48 t l l l b;
#X obj 154 473 outlet;
#X obj 154 440 list trim;
#X obj 163 248 sel |;
#X text 275 197 hacky split list at "|";
#X connect 0 0 15 0;
#X connect 1 0 2 0;
#X connect 2 0 3 0;
#X connect 3 0 4 0;
#X connect 3 0 14 0;
#X connect 4 0 3 1;
#X connect 5 0 3 1;
#X connect 6 0 18 0;
#X connect 7 0 6 0;
#X connect 8 0 17 0;
#X connect 8 1 12 0;
#X connect 9 0 8 1;
#X connect 10 0 8 0;
#X connect 11 0 15 0;
#X connect 12 1 11 0;
#X connect 13 0 10 0;
#X connect 13 1 9 0;
#X connect 13 2 2 1;
#X connect 14 0 7 0;
#X connect 14 1 9 1;
#X connect 15 0 1 0;
#X connect 15 1 10 1;
#X connect 15 2 6 1;
#X connect 15 3 5 0;
#X connect 17 0 16 0;
#X connect 18 0 13 0;
#X restore 49 117 pd listsplit;
#X obj 49 24 r \$0-recall;
#X obj 49 54 pipe 1;
#X obj 221 409 text fromlist \$0-savestates;
#X obj 49 77 text get \$0-savestates;
#X msg 253 246 21;
#X obj 253 269 until;
#X obj 253 292 f;
#X obj 300 295 + 1;
#X obj 253 315 t b f;
#X obj 253 367 text set \$0-savestates;
#X obj 221 114 text tolist \$0-savestates;
#X msg 253 342 list empty_slot;
#X obj 221 160 t a b;
#X obj 151 166 loadbang;
#X obj 221 137 savestate;
#X obj 221 33 text define \$0-savestates;
#X obj 151 189 del 0;
#X msg 298 199 0;
#X obj 253 220 spigot 1;
#X connect 1 0 0 0;
#X connect 2 0 3 0;
#X connect 3 0 5 0;
#X connect 5 0 1 0;
#X connect 6 0 7 0;
#X connect 7 0 8 0;
#X connect 8 0 9 0;
#X connect 8 0 10 0;
#X connect 9 0 8 1;
#X connect 10 0 13 0;
#X connect 10 1 11 1;
#X connect 12 0 16 0;
#X connect 13 0 11 0;
#X connect 14 0 4 0;
#X connect 14 1 19 0;
#X connect 15 0 18 0;
#X connect 16 0 14 0;
#X connect 16 1 12 0;
#X connect 18 0 20 0;
#X connect 19 0 20 1;
#X connect 20 0 6 0;
#X restore 159 114 pd recall;
#X obj 68 220 s \$0-pointslist;
#N canvas 118 127 799 226 set 0;
#X obj 32 9 inlet;
#X obj 32 32 unpack;
#X obj 32 55 * 150;
#X obj 68 55 * 150;
#X obj 32 78 pack 0 0 0;
#X obj 32 166 outlet;
#X obj 107 9 inlet;
#X obj 107 32 unpack;
#X obj 107 55 * 150;
#X obj 143 55 * 150;
#X obj 180 8 inlet;
#X obj 180 31 unpack;
#X obj 180 54 * 150;
#X obj 216 54 * 150;
#X obj 255 8 inlet;
#X obj 255 31 unpack;
#X obj 255 54 * 150;
#X obj 291 54 * 150;
#X obj 330 8 inlet;
#X obj 330 31 unpack;
#X obj 330 54 * 150;
#X obj 366 54 * 150;
#X obj 405 8 inlet;
#X obj 405 31 unpack;
#X obj 405 54 * 150;
#X obj 441 54 * 150;
#X obj 478 7 inlet;
#X obj 478 30 unpack;
#X obj 478 53 * 150;
#X obj 514 53 * 150;
#X obj 553 7 inlet;
#X obj 553 30 unpack;
#X obj 553 53 * 150;
#X obj 589 53 * 150;
#X obj 107 78 pack 0 0 1;
#X obj 180 77 pack 0 0 2;
#X obj 255 77 pack 0 0 3;
#X obj 330 77 pack 0 0 4;
#X obj 405 77 pack 0 0 5;
#X obj 478 76 pack 0 0 6;
#X obj 553 76 pack 0 0 7;
#X connect 0 0 1 0;
#X connect 1 0 2 0;
#X connect 1 1 3 0;
#X connect 2 0 4 0;
#X connect 3 0 4 1;
#X connect 4 0 5 0;
#X connect 6 0 7 0;
#X connect 7 0 8 0;
#X connect 7 1 9 0;
#X connect 8 0 34 0;
#X connect 9 0 34 1;
#X connect 10 0 11 0;
#X connect 11 0 12 0;
#X connect 11 1 13 0;
#X connect 12 0 35 0;
#X connect 13 0 35 1;
#X connect 14 0 15 0;
#X connect 15 0 16 0;
#X connect 15 1 17 0;
#X connect 16 0 36 0;
#X connect 17 0 36 1;
#X connect 18 0 19 0;
#X connect 19 0 20 0;
#X connect 19 1 21 0;
#X connect 20 0 37 0;
#X connect 21 0 37 1;
#X connect 22 0 23 0;
#X connect 23 0 24 0;
#X connect 23 1 25 0;
#X connect 24 0 38 0;
#X connect 25 0 38 1;
#X connect 26 0 27 0;
#X connect 27 0 28 0;
#X connect 27 1 29 0;
#X connect 28 0 39 0;
#X connect 29 0 39 1;
#X connect 30 0 31 0;
#X connect 31 0 32 0;
#X connect 31 1 33 0;
#X connect 32 0 40 0;
#X connect 33 0 40 1;
#X connect 34 0 5 0;
#X connect 35 0 5 0;
#X connect 36 0 5 0;
#X connect 37 0 5 0;
#X connect 38 0 5 0;
#X connect 39 0 5 0;
#X connect 40 0 5 0;
#X restore 68 188 pd set speakers;
#X f 48;
#X obj 395 281 s \$0-reset;
#X obj 395 258 t b;
#X obj 395 208 route reset cos sqrt;
#X connect 0 0 1 0;
#X connect 0 0 11 0;
#X connect 1 0 15 0;
#X connect 1 1 15 1;
#X connect 1 2 15 2;
#X connect 1 3 15 3;
#X connect 1 4 15 4;
#X connect 1 5 15 5;
#X connect 1 6 15 6;
#X connect 1 7 15 7;
#X connect 1 8 18 0;
#X connect 2 0 12 0;
#X connect 3 0 18 0;
#X connect 4 0 3 0;
#X connect 5 0 4 0;
#X connect 7 0 8 0;
#X connect 8 0 6 0;
#X connect 9 0 10 0;
#X connect 10 0 6 0;
#X connect 12 0 5 0;
#X connect 12 1 8 0;
#X connect 13 0 1 0;
#X connect 15 0 14 0;
#X connect 17 0 16 0;
#X connect 18 0 17 0;
#X connect 18 1 7 0;
#X connect 18 2 9 0;
#X restore 970 80 pd in;
#N canvas 33 92 1269 587 gui-color~~~~~~~~~~~~~~~~~~ 0;
#X obj 49 3 inlet~;
#X obj 49 25 env~ 16384;
#X obj 49 47 dbtorms;
#X obj 49 69 change;
#X obj 85 486 switch~;
#X obj 41 198 * 6.28319;
#X obj 41 156 * 0.25;
#X obj 41 177 - 0.5;
#X obj 49 90 list prepend 0;
#X obj 49 110 list trim;
#X obj 49 131 route 0 1;
#X obj 41 219 expr -cos($f1);
#X obj 141 164 expr 1-$f1;
#X obj 141 187 sqrt;
#X obj 130 68 r \$0-panlaw;
#X obj 41 408 set \$0-control-template c;
#X obj 105 361 r \$0-control-array-pointer;
#X obj 68 385 element \$0-control-array c-array;
#X obj 41 335 t f b;
#X msg 68 363 0;
#X obj 277 4 inlet~;
#X obj 277 26 env~ 16384;
#X obj 277 48 dbtorms;
#X obj 277 70 change;
#X obj 269 199 * 6.28319;
#X obj 269 157 * 0.25;
#X obj 269 178 - 0.5;
#X obj 277 91 list prepend 0;
#X obj 277 111 list trim;
#X obj 277 132 route 0 1;
#X obj 269 220 expr -cos($f1);
#X obj 369 165 expr 1-$f1;
#X obj 369 188 sqrt;
#X obj 358 69 r \$0-panlaw;
#X obj 509 3 inlet~;
#X obj 509 25 env~ 16384;
#X obj 509 47 dbtorms;
#X obj 509 69 change;
#X obj 501 198 * 6.28319;
#X obj 501 156 * 0.25;
#X obj 501 177 - 0.5;
#X obj 509 90 list prepend 0;
#X obj 509 110 list trim;
#X obj 509 131 route 0 1;
#X obj 501 219 expr -cos($f1);
#X obj 601 164 expr 1-$f1;
#X obj 601 187 sqrt;
#X obj 590 68 r \$0-panlaw;
#X obj 744 4 inlet~;
#X obj 744 26 env~ 16384;
#X obj 744 48 dbtorms;
#X obj 744 70 change;
#X obj 736 199 * 6.28319;
#X obj 736 157 * 0.25;
#X obj 736 178 - 0.5;
#X obj 744 91 list prepend 0;
#X obj 744 111 list trim;
#X obj 744 132 route 0 1;
#X obj 736 220 expr -cos($f1);
#X obj 836 165 expr 1-$f1;
#X obj 836 188 sqrt;
#X obj 825 69 r \$0-panlaw;
#X obj 736 270 i;
#X obj 501 267 i;
#X obj 269 268 i;
#X obj 41 267 i;
#X obj 41 245 * 9;
#X obj 41 290 * 100;
#X obj 41 313 change;
#X obj 269 246 * 9;
#X obj 501 245 * 9;
#X obj 736 249 * 9;
#X obj 269 409 set \$0-control-template c;
#X obj 333 362 r \$0-control-array-pointer;
#X obj 296 386 element \$0-control-array c-array;
#X obj 269 336 t f b;
#X obj 269 291 * 100;
#X obj 269 314 change;
#X obj 501 408 set \$0-control-template c;
#X obj 565 361 r \$0-control-array-pointer;
#X obj 528 385 element \$0-control-array c-array;
#X obj 501 335 t f b;
#X obj 501 290 * 100;
#X obj 501 313 change;
#X obj 736 410 set \$0-control-template c;
#X obj 800 363 r \$0-control-array-pointer;
#X obj 763 387 element \$0-control-array c-array;
#X obj 736 337 t f b;
#X obj 736 292 * 100;
#X obj 736 315 change;
#X msg 296 364 1;
#X msg 528 363 2;
#X msg 763 365 3;
#X obj 46 465 r \$0-isvisible;
#X floatatom 46 486 5 0 0 0 - - - 0;
#X connect 0 0 1 0;
#X connect 1 0 2 0;
#X connect 2 0 3 0;
#X connect 3 0 8 0;
#X connect 5 0 11 0;
#X connect 6 0 7 0;
#X connect 7 0 5 0;
#X connect 8 0 9 0;
#X connect 9 0 10 0;
#X connect 10 0 6 0;
#X connect 10 1 12 0;
#X connect 11 0 66 0;
#X connect 12 0 13 0;
#X connect 13 0 66 0;
#X connect 14 0 8 1;
#X connect 16 0 17 1;
#X connect 17 0 15 1;
#X connect 18 0 15 0;
#X connect 18 1 19 0;
#X connect 19 0 17 0;
#X connect 20 0 21 0;
#X connect 21 0 22 0;
#X connect 22 0 23 0;
#X connect 23 0 27 0;
#X connect 24 0 30 0;
#X connect 25 0 26 0;
#X connect 26 0 24 0;
#X connect 27 0 28 0;
#X connect 28 0 29 0;
#X connect 29 0 25 0;
#X connect 29 1 31 0;
#X connect 30 0 69 0;
#X connect 31 0 32 0;
#X connect 32 0 69 0;
#X connect 33 0 27 1;
#X connect 34 0 35 0;
#X connect 35 0 36 0;
#X connect 36 0 37 0;
#X connect 37 0 41 0;
#X connect 38 0 44 0;
#X connect 39 0 40 0;
#X connect 40 0 38 0;
#X connect 41 0 42 0;
#X connect 42 0 43 0;
#X connect 43 0 39 0;
#X connect 43 1 45 0;
#X connect 44 0 70 0;
#X connect 45 0 46 0;
#X connect 46 0 70 0;
#X connect 47 0 41 1;
#X connect 48 0 49 0;
#X connect 49 0 50 0;
#X connect 50 0 51 0;
#X connect 51 0 55 0;
#X connect 52 0 58 0;
#X connect 53 0 54 0;
#X connect 54 0 52 0;
#X connect 55 0 56 0;
#X connect 56 0 57 0;
#X connect 57 0 53 0;
#X connect 57 1 59 0;
#X connect 58 0 71 0;
#X connect 59 0 60 0;
#X connect 60 0 71 0;
#X connect 61 0 55 1;
#X connect 62 0 88 0;
#X connect 63 0 82 0;
#X connect 64 0 76 0;
#X connect 65 0 67 0;
#X connect 66 0 65 0;
#X connect 67 0 68 0;
#X connect 68 0 18 0;
#X connect 69 0 64 0;
#X connect 70 0 63 0;
#X connect 71 0 62 0;
#X connect 73 0 74 1;
#X connect 74 0 72 1;
#X connect 75 0 72 0;
#X connect 75 1 90 0;
#X connect 76 0 77 0;
#X connect 77 0 75 0;
#X connect 79 0 80 1;
#X connect 80 0 78 1;
#X connect 81 0 78 0;
#X connect 81 1 91 0;
#X connect 82 0 83 0;
#X connect 83 0 81 0;
#X connect 85 0 86 1;
#X connect 86 0 84 1;
#X connect 87 0 84 0;
#X connect 87 1 92 0;
#X connect 88 0 89 0;
#X connect 89 0 87 0;
#X connect 90 0 74 0;
#X connect 91 0 80 0;
#X connect 92 0 86 0;
#X connect 93 0 4 0;
#X connect 93 0 94 0;
#X restore 741 269 pd gui-color~~~~~~~~~~~~~~~~~~;
#N canvas 0 20 1363 714 pythagoras~~~~~~~~~~~~~~~~~ 0;
#X obj 58 348 -~;
#X obj 58 370 *~;
#X obj 128 424 sqrt~;
#X obj 128 404 +~;
#X obj 145 345 -~;
#X obj 145 367 *~;
#X obj 126 530 outlet~;
#X text 157 470 normalize to 0 \, 1;
#X obj 213 355 -~;
#X obj 213 377 *~;
#X obj 283 431 sqrt~;
#X obj 283 411 +~;
#X obj 300 352 -~;
#X obj 300 374 *~;
#X obj 354 352 -~;
#X obj 354 374 *~;
#X obj 424 428 sqrt~;
#X obj 424 408 +~;
#X obj 441 349 -~;
#X obj 441 371 *~;
#X obj 512 349 -~;
#X obj 512 371 *~;
#X obj 582 425 sqrt~;
#X obj 582 405 +~;
#X obj 599 346 -~;
#X obj 599 368 *~;
#X obj 283 531 outlet~;
#X obj 424 530 outlet~;
#X obj 582 528 outlet~;
#X obj 127 478 *~;
#X obj 127 500 clip~ 0 1;
#X obj 283 477 *~;
#X obj 283 499 clip~ 0 1;
#X obj 424 475 *~;
#X obj 424 497 clip~ 0 1;
#X obj 582 472 *~;
#X obj 582 494 clip~ 0 1;
#X obj 127 300 r \$0-speakerposition-1;
#X obj 127 322 unpack;
#X obj 282 324 unpack;
#X obj 282 302 r \$0-speakerposition-2;
#X obj 423 323 unpack;
#X obj 423 301 r \$0-speakerposition-3;
#X obj 581 319 unpack;
#X obj 581 297 r \$0-speakerposition-4;
#X obj 128 453 /~ 1.41421;
#X obj 284 455 /~ 1.41421;
#X obj 424 452 /~ 1.41421;
#X obj 583 448 /~ 1.41421;
#X obj 595 15 inlet~;
#X obj 144 12 inlet~;
#X obj 58 10 inlet~;
#X text 103 11 x;
#X text 189 11 y;
#X text 640 14 spread;
#X connect 0 0 1 0;
#X connect 0 0 1 1;
#X connect 1 0 3 0;
#X connect 2 0 45 0;
#X connect 3 0 2 0;
#X connect 4 0 5 0;
#X connect 4 0 5 1;
#X connect 5 0 3 1;
#X connect 8 0 9 0;
#X connect 8 0 9 1;
#X connect 9 0 11 0;
#X connect 10 0 46 0;
#X connect 11 0 10 0;
#X connect 12 0 13 0;
#X connect 12 0 13 1;
#X connect 13 0 11 1;
#X connect 14 0 15 0;
#X connect 14 0 15 1;
#X connect 15 0 17 0;
#X connect 16 0 47 0;
#X connect 17 0 16 0;
#X connect 18 0 19 0;
#X connect 18 0 19 1;
#X connect 19 0 17 1;
#X connect 20 0 21 0;
#X connect 20 0 21 1;
#X connect 21 0 23 0;
#X connect 22 0 48 0;
#X connect 23 0 22 0;
#X connect 24 0 25 0;
#X connect 24 0 25 1;
#X connect 25 0 23 1;
#X connect 29 0 30 0;
#X connect 30 0 6 0;
#X connect 31 0 32 0;
#X connect 32 0 26 0;
#X connect 33 0 34 0;
#X connect 34 0 27 0;
#X connect 35 0 36 0;
#X connect 36 0 28 0;
#X connect 37 0 38 0;
#X connect 38 0 0 1;
#X connect 38 1 4 1;
#X connect 39 0 8 1;
#X connect 39 1 12 1;
#X connect 40 0 39 0;
#X connect 41 0 14 1;
#X connect 41 1 18 1;
#X connect 42 0 41 0;
#X connect 43 0 20 1;
#X connect 43 1 24 1;
#X connect 44 0 43 0;
#X connect 45 0 29 0;
#X connect 46 0 31 0;
#X connect 47 0 33 0;
#X connect 48 0 35 0;
#X connect 49 0 29 1;
#X connect 49 0 35 1;
#X connect 49 0 33 1;
#X connect 49 0 31 1;
#X connect 50 0 12 0;
#X connect 50 0 18 0;
#X connect 50 0 24 0;
#X connect 50 0 4 0;
#X connect 51 0 14 0;
#X connect 51 0 20 0;
#X connect 51 0 8 0;
#X connect 51 0 0 0;
#X restore 602 140 pd pythagoras~~~~~~~~~~~~~~~~~;
#N canvas 585 138 430 297 stuff 0;
#X obj 139 139 s \$0-visbngr;
#X obj 121 34 r \$0-visbng;
#X msg 119 111 color 0 0;
#X msg 203 111 color 10 10;
#X obj 121 56 t b;
#X obj 201 86 del 250;
#N canvas 1 50 845 386 isvisible 0;
#X obj 48 43 loadbang;
#X obj 48 65 tgl 15 0 empty empty empty 17 7 0 10 #fcfcfc #000000 #000000 0 1;
#X obj 48 108 s \$0-isvisible-check;
#X obj 48 85 metro 1000;
#X connect 0 0 1 0;
#X connect 1 0 3 0;
#X connect 3 0 2 0;
#X restore 121 11 pd isvisible;
#X obj 99 185 s pd-\$0-spat4;
#X msg 99 163 relocate 320x320+1+1 1x1+50+50 \, vis 1 \, editmode 0;
#X connect 1 0 4 0;
#X connect 2 0 0 0;
#X connect 3 0 0 0;
#X connect 4 0 2 0;
#X connect 4 0 5 0;
#X connect 4 0 8 0;
#X connect 5 0 3 0;
#X connect 8 0 7 0;
#X restore 970 103 pd stuff;
#X obj 972 434 outlet;
#N canvas 129 81 781 614 outlet-message 0;
#N canvas 225 426 999 300 bang_once....................................... 0;
#X obj 174 34 t b f;
#X obj 132 34 t b f;
#X obj 89 173 del 0;
#X obj 89 34 t b f;
#X obj 217 34 t b f;
#X obj 89 -12 inlet;
#X obj 132 -13 inlet;
#X obj 174 -13 inlet;
#X obj 217 -13 inlet;
#X obj 261 -12 inlet;
#X obj 88 268 outlet;
#X obj 88 194 f;
#X obj 261 34 t b f;
#X obj 389 34 t b f;
#X obj 347 34 t b f;
#X obj 304 34 t b f;
#X obj 304 -12 inlet;
#X obj 347 -13 inlet;
#X obj 389 -13 inlet;
#X obj 441 -15 inlet;
#X obj 441 33 t b s;
#X obj 88 225 pack 0 0 0 0 0 0 0 0 s;
#X connect 0 0 2 0;
#X connect 0 1 21 2;
#X connect 1 0 2 0;
#X connect 1 1 21 1;
#X connect 2 0 11 0;
#X connect 3 0 2 0;
#X connect 3 1 11 1;
#X connect 4 0 2 0;
#X connect 4 1 21 3;
#X connect 5 0 3 0;
#X connect 6 0 1 0;
#X connect 7 0 0 0;
#X connect 8 0 4 0;
#X connect 9 0 12 0;
#X connect 11 0 21 0;
#X connect 12 0 2 0;
#X connect 12 1 21 4;
#X connect 13 0 2 0;
#X connect 13 1 21 7;
#X connect 14 0 2 0;
#X connect 14 1 21 6;
#X connect 15 0 2 0;
#X connect 15 1 21 5;
#X connect 16 0 15 0;
#X connect 17 0 14 0;
#X connect 18 0 13 0;
#X connect 19 0 20 0;
#X connect 20 0 2 0;
#X connect 20 1 21 8;
#X connect 21 0 10 0;
#X restore 249 282 pd bang_once.......................................;
#X obj 317 509 list trim;
#X msg 236 465 addcomma;
#X msg 172 438 set;
#X obj 317 486 list prepend add2;
#X obj 316 545 outlet;
#X obj 249 86 r \$0-speakerposition-1;
#X obj 249 107 unpack;
#X obj 324 133 unpack;
#X obj 392 154 unpack;
#X obj 462 177 unpack;
#X obj 324 112 r \$0-speakerposition-2;
#X obj 392 133 r \$0-speakerposition-3;
#X obj 462 156 r \$0-speakerposition-4;
#X obj 552 185 r \$0-panlaw;
#X obj 552 208 sel 0 1;
#X msg 552 233 cos;
#X msg 582 233 sqrt;
#X obj 552 257 symbol;
#X obj 248 302 t b a b;
#X obj 270 420 t b a a;
#N canvas 497 319 297 264 save 0;
#X obj 48 16 inlet;
#N canvas 690 259 481 384 collect 0;
#X obj 47 60 inlet;
#X obj 47 274 outlet;
#X obj 98 180 list;
#X obj 166 181 t l;
#X obj 47 225 list;
#X obj 98 139 list append |;
#X obj 47 126 del 0;
#X obj 47 82 t b a;
#X text 119 75 hacky thing... replaycing " \, " with "|";
#X connect 0 0 7 0;
#X connect 2 0 3 0;
#X connect 2 0 4 1;
#X connect 3 0 2 1;
#X connect 4 0 1 0;
#X connect 5 0 2 0;
#X connect 6 0 2 1;
#X connect 6 0 4 0;
#X connect 7 0 6 0;
#X connect 7 1 5 0;
#X restore 48 38 pd collect;
#X obj 117 16 r \$0-save;
#X obj 27 130 text set \$0-savestates;
#X obj 27 104 list;
#X obj 117 62 t b f;
#X obj 117 39 clip 0 20;
#X connect 0 0 1 0;
#X connect 1 0 4 1;
#X connect 2 0 6 0;
#X connect 4 0 3 0;
#X connect 5 0 4 0;
#X connect 5 1 3 1;
#X connect 6 0 5 0;
#X restore 309 445 pd save;
#X msg 270 359 speaker-1 \$1 \$2 \, speaker-2 \$3 \$4 \, speaker-3 \$5 \$6 \, speaker-4 \$7 \$8 \, \$9;
#X connect 0 0 19 0;
#X connect 1 0 5 0;
#X connect 2 0 5 0;
#X connect 3 0 5 0;
#X connect 4 0 1 0;
#X connect 6 0 7 0;
#X connect 7 0 0 0;
#X connect 7 1 0 1;
#X connect 8 0 0 2;
#X connect 8 1 0 3;
#X connect 9 0 0 4;
#X connect 9 1 0 5;
#X connect 10 0 0 6;
#X connect 10 1 0 7;
#X connect 11 0 8 0;
#X connect 12 0 9 0;
#X connect 13 0 10 0;
#X connect 14 0 15 0;
#X connect 15 0 16 0;
#X connect 15 1 17 0;
#X connect 16 0 18 0;
#X connect 17 0 18 0;
#X connect 18 0 0 8;
#X connect 19 0 5 0;
#X connect 19 1 22 0;
#X connect 19 2 3 0;
#X connect 20 0 2 0;
#X connect 20 1 4 0;
#X connect 20 2 21 0;
#X connect 22 0 20 0;
#X restore 972 403 pd outlet-message;
#X obj 103 115 hsl 150 15 0 127 0 0 \$0-visbng \$0-visbngr empty 50 8 2 10 #e0e0e0 #e0e0e0 #000000 0 1;
#N canvas 847 190 455 147 \$0-control-template 0;
#X obj 24 15 struct \$0-control-template float x float y float c float n;
#X obj 24 50 filledpolygon c 0 0 -7 7 7 7 7 -7 -7 -7;
#X obj 24 80 drawnumber n -2.5 6 999;
#X restore 971 290 pd \$0-control-template;
#N canvas 718 437 567 184 \$0-control-array 0;
#X obj 17 20 struct \$0-control-array float x float y float x1 float y1 float x2 float y2 array c-array \$0-control-template;
#X obj 15 67 plot c-array 0 0 0 0 1;
#X restore 971 268 pd \$0-control-array;
#X obj 433 60 inlet~;
#X text 645 65 x;
#X text 734 63 y;
#X text 825 70 spread;
#N canvas 316 91 1115 556 struct 0;
#X obj 34 54 bng 15 250 50 0 empty empty empty 17 7 0 10 #fcfcfc #000000 #000000;
#X obj 58 77 symbol pd-\$0-graph;
#X obj 85 124 f \$0;
#X obj 58 100 t s b;
#X msg 217 232 traverse \$1 \, bang;
#X obj 217 253 pointer;
#X obj 58 277 append \$0-control-array x y;
#X obj 58 249 unpack;
#X msg 85 146 \; pd-\$1-graph clear;
#X msg 58 226 0 0;
#X obj 77 346 setsize \$0-control-array c-array;
#X obj 58 368 s \$0-control-array-pointer;
#X obj 58 301 t p b p;
#X obj 578 39 r \$0-control-array-pointer;
#X obj 428 183 element \$0-control-array c-array;
#X obj 401 208 set \$0-control-template n;
#X obj 401 114 until;
#X obj 401 137 f;
#X obj 427 138 + 1;
#X obj 401 185 + 1;
#X obj 401 161 t f f;
#X obj 58 186 t b s;
#X obj 400 262 r \$0-control-array-pointer;
#X obj 58 52 loadbang;
#X obj 400 285 t b;
#X obj 398 473 set \$0-control-template x y;
#X obj 557 450 element \$0-control-array c-array;
#X obj 592 429 r \$0-control-array-pointer;
#X obj 398 389 unpack f f f;
#X obj 398 365 r \$0-pointslist;
#X obj 851 253 get \$0-control-template x y;
#X obj 887 209 r \$0-control-array-pointer;
#X obj 851 231 element \$0-control-array c-array;
#X obj 802 81 tgl 15 0 empty empty empty 17 7 0 10 #fcfcfc #000000 #000000 0 1;
#X obj 802 60 loadbang;
#X obj 802 100 metro 500;
#X obj 802 145 until;
#X obj 846 157 + 1;
#X obj 802 199 t f f;
#X obj 1010 274 / 150;
#X obj 851 278 / 150;
#X obj 802 316 pack f f f \$0, f 16;
#X obj 802 280 + 1;
#X msg 802 339 \; \$4-speakerposition-\$1 \$2 \$3;
#X obj 802 168 f;
#X msg 442 115 0;
#X obj 578 62 t b b p;
#X msg 401 91 4;
#X msg 77 326 4;
#X obj 802 122 f 4;
#X obj 846 180 mod 4;
#X obj 400 314 s \$0-reset;
#X connect 0 0 1 0;
#X connect 1 0 3 0;
#X connect 2 0 8 0;
#X connect 3 0 21 0;
#X connect 3 1 2 0;
#X connect 4 0 5 0;
#X connect 5 0 6 2;
#X connect 6 0 12 0;
#X connect 7 0 6 0;
#X connect 7 1 6 1;
#X connect 9 0 7 0;
#X connect 12 0 11 0;
#X connect 12 1 48 0;
#X connect 12 2 10 1;
#X connect 13 0 46 0;
#X connect 14 0 15 1;
#X connect 16 0 17 0;
#X connect 17 0 18 0;
#X connect 17 0 20 0;
#X connect 18 0 17 1;
#X connect 19 0 15 0;
#X connect 20 0 19 0;
#X connect 20 1 14 0;
#X connect 21 0 9 0;
#X connect 21 1 4 0;
#X connect 22 0 24 0;
#X connect 23 0 1 0;
#X connect 24 0 51 0;
#X connect 26 0 25 2;
#X connect 27 0 26 1;
#X connect 28 0 25 0;
#X connect 28 1 25 1;
#X connect 28 2 26 0;
#X connect 29 0 28 0;
#X connect 30 0 40 0;
#X connect 30 1 39 0;
#X connect 31 0 32 1;
#X connect 32 0 30 0;
#X connect 33 0 35 0;
#X connect 34 0 33 0;
#X connect 35 0 49 0;
#X connect 36 0 44 0;
#X connect 37 0 50 0;
#X connect 38 0 42 0;
#X connect 38 1 32 0;
#X connect 39 0 41 2;
#X connect 40 0 41 1;
#X connect 41 0 43 0;
#X connect 42 0 41 0;
#X connect 44 0 37 0;
#X connect 44 0 38 0;
#X connect 45 0 17 1;
#X connect 46 0 47 0;
#X connect 46 1 45 0;
#X connect 46 2 14 1;
#X connect 47 0 16 0;
#X connect 48 0 10 0;
#X connect 49 0 36 0;
#X connect 50 0 44 1;
#X restore 971 313 pd struct;
#X text 926 467 philipp schmalfuß \, 2018/21;
#X obj 778 97 *~ -0.5;
#X obj 778 119 +~ 1.5;
#N canvas 3 52 376 342 amp 0;
#X obj 91 298 outlet~;
#X obj 91 264 *~;
#N canvas 417 176 450 300 cos 0;
#X obj 79 69 inlet~;
#X obj 78 134 cos~;
#X obj 78 92 *~ 0.25;
#X obj 77 180 outlet~;
#X obj 174 72 r \$0-panlaw;
#X obj 174 95 == 0;
#X obj 174 118 switch~;
#X obj 256 79 loadbang;
#X msg 256 102 1;
#X connect 0 0 2 0;
#X connect 1 0 3 0;
#X connect 2 0 1 0;
#X connect 4 0 5 0;
#X connect 5 0 6 0;
#X connect 7 0 8 0;
#X connect 8 0 6 0;
#X restore 107 182 pd cos;
#N canvas 232 277 290 199 sqrt 0;
#X obj 45 21 inlet~;
#X obj 30 154 outlet~;
#X obj 31 109 sqrt~;
#X obj 30 60 sig~ 1;
#X obj 30 83 -~;
#X obj 103 45 r \$0-panlaw;
#X obj 103 91 switch~;
#X obj 185 52 loadbang;
#X obj 103 68 != 0;
#X msg 185 75 0;
#X connect 0 0 4 1;
#X connect 2 0 1 0;
#X connect 3 0 4 0;
#X connect 4 0 2 0;
#X connect 5 0 8 0;
#X connect 7 0 9 0;
#X connect 8 0 6 0;
#X connect 9 0 6 0;
#X restore 245 179 pd sqrt;
#X obj 245 7 inlet~;
#X text 289 9 angle;
#X obj 92 10 inlet~;
#X connect 1 0 0 0;
#X connect 2 0 1 1;
#X connect 3 0 1 1;
#X connect 4 0 2 0;
#X connect 4 0 3 0;
#X connect 6 0 1 0;
#X restore 491 259 pd amp;
#N canvas 3 52 376 342 amp 0;
#X obj 91 298 outlet~;
#X obj 91 264 *~;
#N canvas 417 176 450 300 cos 0;
#X obj 79 69 inlet~;
#X obj 78 134 cos~;
#X obj 78 92 *~ 0.25;
#X obj 77 180 outlet~;
#X obj 174 72 r \$0-panlaw;
#X obj 174 95 == 0;
#X obj 174 118 switch~;
#X obj 256 79 loadbang;
#X msg 256 102 1;
#X connect 0 0 2 0;
#X connect 1 0 3 0;
#X connect 2 0 1 0;
#X connect 4 0 5 0;
#X connect 5 0 6 0;
#X connect 7 0 8 0;
#X connect 8 0 6 0;
#X restore 107 182 pd cos;
#N canvas 232 277 290 199 sqrt 0;
#X obj 45 21 inlet~;
#X obj 30 154 outlet~;
#X obj 31 109 sqrt~;
#X obj 30 60 sig~ 1;
#X obj 30 83 -~;
#X obj 103 45 r \$0-panlaw;
#X obj 103 91 switch~;
#X obj 185 52 loadbang;
#X obj 103 68 != 0;
#X msg 185 75 0;
#X connect 0 0 4 1;
#X connect 2 0 1 0;
#X connect 3 0 4 0;
#X connect 4 0 2 0;
#X connect 5 0 8 0;
#X connect 7 0 9 0;
#X connect 8 0 6 0;
#X connect 9 0 6 0;
#X restore 245 179 pd sqrt;
#X obj 245 7 inlet~;
#X text 289 9 angle;
#X obj 92 10 inlet~;
#X connect 1 0 0 0;
#X connect 2 0 1 1;
#X connect 3 0 1 1;
#X connect 4 0 2 0;
#X connect 4 0 3 0;
#X connect 6 0 1 0;
#X restore 550 260 pd amp;
#N canvas 3 52 376 342 amp 0;
#X obj 91 298 outlet~;
#X obj 91 264 *~;
#N canvas 417 176 450 300 cos 0;
#X obj 79 69 inlet~;
#X obj 78 134 cos~;
#X obj 78 92 *~ 0.25;
#X obj 77 180 outlet~;
#X obj 174 72 r \$0-panlaw;
#X obj 174 95 == 0;
#X obj 174 118 switch~;
#X obj 256 79 loadbang;
#X msg 256 102 1;
#X connect 0 0 2 0;
#X connect 1 0 3 0;
#X connect 2 0 1 0;
#X connect 4 0 5 0;
#X connect 5 0 6 0;
#X connect 7 0 8 0;
#X connect 8 0 6 0;
#X restore 107 182 pd cos;
#N canvas 232 277 290 199 sqrt 0;
#X obj 45 21 inlet~;
#X obj 30 154 outlet~;
#X obj 31 109 sqrt~;
#X obj 30 60 sig~ 1;
#X obj 30 83 -~;
#X obj 103 45 r \$0-panlaw;
#X obj 103 91 switch~;
#X obj 185 52 loadbang;
#X obj 103 68 != 0;
#X msg 185 75 0;
#X connect 0 0 4 1;
#X connect 2 0 1 0;
#X connect 3 0 4 0;
#X connect 4 0 2 0;
#X connect 5 0 8 0;
#X connect 7 0 9 0;
#X connect 8 0 6 0;
#X connect 9 0 6 0;
#X restore 245 179 pd sqrt;
#X obj 245 7 inlet~;
#X text 289 9 angle;
#X obj 92 10 inlet~;
#X connect 1 0 0 0;
#X connect 2 0 1 1;
#X connect 3 0 1 1;
#X connect 4 0 2 0;
#X connect 4 0 3 0;
#X connect 6 0 1 0;
#X restore 609 260 pd amp;
#N canvas 50 50 320 320 \$0-spat4 0;
#N canvas 29 87 595 467 mask 0;
#X obj 100 100 cnv 15 309 309 empty empty empty 20 12 0 14 #fcfcfc #404040 0;
#X obj 104 104 cnv 10 302 302 empty empty empty 20 12 0 14 #7c7c7c #404040 0;
#X obj 106 106 cnv 10 298 298 empty empty empty 20 12 0 14 #dcdcdc #404040 0;
#X obj 107 253 cnv 1 298 1 empty empty empty 20 12 0 14 #fcfcfc #404040 0;
#X obj 254 107 cnv 1 1 298 empty empty empty 20 12 0 14 #fcfcfc #404040 0;
#X obj 398 249 cnv 1 1 1 empty empty 1 0 0 2 11 #e0e0e0 #fcfcfc 0;
#X obj 263 114 cnv 1 1 1 empty empty 1 0 0 2 11 #e0e0e0 #fcfcfc 0;
#X obj 260 400 cnv 1 1 1 empty empty -1 0 0 2 11 #e0e0e0 #fcfcfc 0;
#X obj 110 248 cnv 1 1 1 empty empty -1 0 0 2 11 #e0e0e0 #fcfcfc 0;
#N canvas 1 50 878 553 \$0-graph 0;
#X scalar \$0-control-array 0 0 0 0 0 0 \; -98 99 0 1 \; 99 99 0 2 \; 99 -98 0 3 \; -98 -98 0 4 \; \;;
#X coords -150 150 150 -150 300 300 2 100 100;
#X restore 105 105 pd \$0-graph;
#X msg 428 151 isvisible;
#X obj 428 174 pdcontrol;
#X obj 428 197 s \$0-isvisible;
#X obj 428 129 r \$0-isvisible-check;
#X connect 10 0 11 0;
#X connect 11 0 12 0;
#X connect 13 0 10 0;
#X coords 0 -1 1 1 310 310 2 100 100;
#X restore 3 2 pd mask;
#X restore 970 127 pd \$0-spat4;
#N canvas 468 129 517 484 resets 0;
#X obj 106 187 * 6.28319;
#X obj 106 167 / 360;
#X obj 106 229 cos;
#X obj 144 230 sin;
#X obj 106 207 t f f;
#X obj 106 325 pack;
#X obj 106 348 t b l;
#X obj 106 375 f;
#X obj 133 376 + 1;
#X obj 106 407 list prepend;
#X obj 212 338 f 0;
#X obj 106 89 t b b;
#X obj 106 430 s \$0-pointslist;
#X obj 106 251 * 140;
#X obj 144 251 * 140;
#X obj 106 299 i;
#X obj 106 279 + 0.5;
#X obj 145 300 i;
#X obj 145 280 + 0.5;
#X msg 106 145 135 \, 45 \, 315 \, 225;
#X obj 106 51 r \$0-reset;
#X obj 63 54 bng 15 250 50 0 empty empty empty 17 7 0 10 #fcfcfc #000000 #000000;
#X connect 0 0 4 0;
#X connect 1 0 0 0;
#X connect 2 0 13 0;
#X connect 3 0 14 0;
#X connect 4 0 2 0;
#X connect 4 1 3 0;
#X connect 5 0 6 0;
#X connect 6 0 7 0;
#X connect 6 1 9 1;
#X connect 7 0 8 0;
#X connect 7 0 9 0;
#X connect 8 0 7 1;
#X connect 9 0 12 0;
#X connect 10 0 7 1;
#X connect 11 0 19 0;
#X connect 11 1 10 0;
#X connect 13 0 16 0;
#X connect 14 0 18 0;
#X connect 15 0 5 0;
#X connect 16 0 15 0;
#X connect 17 0 5 1;
#X connect 18 0 17 0;
#X connect 19 0 1 0;
#X connect 20 0 11 0;
#X connect 21 0 11 0;
#X restore 970 151 pd resets;
#X connect 1 0 11 0;
#X connect 2 0 11 1;
#X connect 3 0 0 0;
#X connect 7 0 24 0;
#X connect 8 0 9 0;
#X connect 11 0 10 0;
#X connect 11 0 3 1;
#X connect 11 1 10 1;
#X connect 11 1 26 1;
#X connect 11 2 10 2;
#X connect 11 2 27 1;
#X connect 11 3 10 3;
#X connect 11 3 28 1;
#X connect 14 0 13 0;
#X connect 18 0 3 0;
#X connect 18 0 26 0;
#X connect 18 0 28 0;
#X connect 18 0 27 0;
#X connect 24 0 25 0;
#X connect 25 0 11 2;
#X connect 26 0 4 0;
#X connect 27 0 5 0;
#X connect 28 0 6 0;
#X coords 0 -1 1 1 155 33 1 100 100;
