#N canvas 3 52 576 395 10;
#X obj 136 198 inlet~;
#N canvas 310 207 450 300 delread 0;
#X obj 105 79 inlet~;
#X obj 105 163 outlet~;
#X obj 105 141 delread~ \$0-del;
#X obj 201 81 inlet;
#X connect 2 0 1 0;
#X connect 3 0 2 0;
#X restore 136 261 pd delread;
#N canvas 310 207 450 300 delwrite 0;
#X obj 109 85 inlet~;
#X obj 110 169 outlet~;
#X obj 149 113 delwrite~ \$0-del 100;
#X connect 0 0 2 0;
#X restore 137 227 pd delwrite;
#X obj 137 285 outlet~;
#X obj 308 232 / 44.1;
#X obj 464 71 inlet;
#X obj 336 185 samplerate~;
#X obj 336 206 / 1000;
#X obj 308 166 t f b;
#X obj 464 91 route delay;
#X obj 400 92 f \$1;
#X obj 400 73 loadbang;
#X obj 204 115 hsl 2 8 0 1 0 0 \$0-gui \$0-guir empty 3 8 2 10 -233017
-228856 -1 0 1;
#X obj 308 144 r \$0-del;
#X obj 100 115 nbx 14 15 0 1e+37 0 0 \$0-del \$0-delr empty 0 -8 2
10 -228856 -1 -1 0 256;
#X obj 464 112 s \$0-delr;
#X obj 465 186 r \$0-del;
#X msg 465 207 set delay \$1;
#X obj 465 228 t b a;
#X obj 465 249 outlet;
#X text 404 351 philipp schmalfuß \, 2018;
#X obj 220 196 inlet~;
#N canvas 310 207 450 300 delread 0;
#X obj 105 79 inlet~;
#X obj 105 163 outlet~;
#X obj 201 81 inlet;
#X obj 105 141 delread~ \$0-del2;
#X connect 2 0 3 0;
#X connect 3 0 1 0;
#X restore 220 259 pd delread;
#N canvas 310 207 450 300 delwrite 0;
#X obj 109 85 inlet~;
#X obj 110 169 outlet~;
#X obj 149 113 delwrite~ \$0-del2 100;
#X connect 0 0 2 0;
#X restore 221 225 pd delwrite;
#X obj 221 283 outlet~;
#X connect 0 0 2 0;
#X connect 1 0 3 0;
#X connect 2 0 1 0;
#X connect 4 0 1 1;
#X connect 4 0 22 1;
#X connect 5 0 9 0;
#X connect 6 0 7 0;
#X connect 7 0 4 1;
#X connect 8 0 4 0;
#X connect 8 1 6 0;
#X connect 9 0 15 0;
#X connect 10 0 15 0;
#X connect 11 0 10 0;
#X connect 13 0 8 0;
#X connect 16 0 17 0;
#X connect 17 0 18 0;
#X connect 18 0 19 0;
#X connect 18 1 19 0;
#X connect 21 0 23 0;
#X connect 22 0 24 0;
#X connect 23 0 22 0;
#X coords 0 -1 1 1 108 33 1 100 100;
