#N canvas 185 172 1083 567 10;
#X obj 814 29 inlet;
#X obj 354 342 outlet~;
#X obj 804 342 outlet;
#N canvas 5 319 810 300 in 0;
#X obj 31 56 inlet;
#X obj 31 181 s \$0-distancer;
#X obj 215 183 s \$0-pitchmodr;
#X obj 307 182 s \$0-panmodr;
#X obj 123 181 s \$0-ampmodr;
#X obj 399 183 s \$0-dampingr;
#N canvas 698 546 200 251 route 0;
#X obj 20 20 inlet;
#X obj 30 60 route save recall;
#X obj 30 85 route float;
#X obj 97 111 route float;
#X obj 30 136 s \$0-save;
#X obj 30 108 i;
#X obj 98 133 i;
#X obj 98 161 s \$0-recall;
#X connect 0 0 1 0;
#X connect 1 0 2 0;
#X connect 1 1 3 0;
#X connect 2 0 5 0;
#X connect 3 0 6 0;
#X connect 5 0 4 0;
#X connect 6 0 7 0;
#X restore 43 82 pd route save-recall;
#N canvas 362 125 450 479 recall 0;
#X obj 49 145 outlet;
#N canvas 3 54 450 600 listsplit 0;
#X obj 158 23 inlet;
#X obj 220 87 list length;
#X obj 220 113 until;
#X obj 182 150 f;
#X obj 278 150 + 1;
#X msg 265 111 0;
#X obj 182 226 list store;
#X msg 182 202 get \$1 1;
#X obj 154 367 list split;
#X obj 222 342 f;
#X obj 154 334 list;
#X obj 98 124 list;
#X obj 182 389 list split 1;
#X obj 154 274 t bang bang bang;
#X obj 182 179 t f f;
#X obj 158 48 t l l l b;
#X obj 154 473 outlet;
#X obj 154 440 list trim;
#X obj 163 248 sel |;
#X text 275 197 hacky split list at "|";
#X connect 0 0 15 0;
#X connect 1 0 2 0;
#X connect 2 0 3 0;
#X connect 3 0 4 0;
#X connect 3 0 14 0;
#X connect 4 0 3 1;
#X connect 5 0 3 1;
#X connect 6 0 18 0;
#X connect 7 0 6 0;
#X connect 8 0 17 0;
#X connect 8 1 12 0;
#X connect 9 0 8 1;
#X connect 10 0 8 0;
#X connect 11 0 15 0;
#X connect 12 1 11 0;
#X connect 13 0 10 0;
#X connect 13 1 9 0;
#X connect 13 2 2 1;
#X connect 14 0 7 0;
#X connect 14 1 9 1;
#X connect 15 0 1 0;
#X connect 15 1 10 1;
#X connect 15 2 6 1;
#X connect 15 3 5 0;
#X connect 17 0 16 0;
#X connect 18 0 13 0;
#X restore 49 117 pd listsplit;
#X obj 49 24 r \$0-recall;
#X obj 49 54 pipe 1;
#X obj 221 409 text fromlist \$0-savestates;
#X obj 49 77 text get \$0-savestates;
#X msg 253 246 21;
#X obj 253 269 until;
#X obj 253 292 f;
#X obj 300 295 + 1;
#X obj 253 315 t b f;
#X obj 253 367 text set \$0-savestates;
#X obj 221 114 text tolist \$0-savestates;
#X msg 253 342 list empty_slot;
#X obj 221 160 t a b;
#X obj 151 166 loadbang;
#X obj 221 137 savestate;
#X obj 221 33 text define \$0-savestates;
#X obj 151 189 del 0;
#X msg 298 199 0;
#X obj 253 220 spigot 1;
#X connect 1 0 0 0;
#X connect 2 0 3 0;
#X connect 3 0 5 0;
#X connect 5 0 1 0;
#X connect 6 0 7 0;
#X connect 7 0 8 0;
#X connect 8 0 9 0;
#X connect 8 0 10 0;
#X connect 9 0 8 1;
#X connect 10 0 13 0;
#X connect 10 1 11 1;
#X connect 12 0 16 0;
#X connect 13 0 11 0;
#X connect 14 0 4 0;
#X connect 14 1 19 0;
#X connect 15 0 18 0;
#X connect 16 0 14 0;
#X connect 16 1 12 0;
#X connect 18 0 20 0;
#X connect 19 0 20 1;
#X connect 20 0 6 0;
#X restore 109 104 pd recall;
#X obj 31 127 route distance amp-mod pitch-mod pan-mod damping amp-mod_wet
localize, f 108;
#X obj 491 184 s \$0-ampmod-wetr;
#X obj 583 209 s \$0-localr;
#X connect 0 0 6 0;
#X connect 0 0 8 0;
#X connect 7 0 8 0;
#X connect 8 0 1 0;
#X connect 8 1 4 0;
#X connect 8 2 2 0;
#X connect 8 3 3 0;
#X connect 8 4 5 0;
#X connect 8 5 9 0;
#X connect 8 6 10 0;
#X restore 814 54 pd in;
#N canvas 370 196 600 343 stuff 0;
#X obj 90 69 loadbang;
#X obj 90 90 f \$0;
#X obj 309 192 s \$0-visbngr;
#X obj 291 87 r \$0-visbng;
#X msg 289 164 color 0 0;
#X msg 373 164 color 10 10;
#X obj 291 109 t b;
#X obj 371 139 del 250;
#X obj 255 241 s pd-\$0-spacer~;
#X msg 255 219 relocate 230x210+1+1 1x1+50+60 \, vis 1;
#X msg 89 111 \; \$1-pitchmodr 100 \; \$1-panmodr 100 \; \$1-ampmodr
100 \; \$1-dampingr 100 \; \$1-ampmod-wetr 50 \; \$1-localr 50;
#X connect 0 0 1 0;
#X connect 1 0 10 0;
#X connect 3 0 6 0;
#X connect 4 0 2 0;
#X connect 5 0 2 0;
#X connect 6 0 4 0;
#X connect 6 0 7 0;
#X connect 6 0 9 0;
#X connect 7 0 5 0;
#X connect 9 0 8 0;
#X restore 814 85 pd stuff;
#X obj 103 115 hsl 150 15 0 127 0 0 \$0-visbng \$0-visbngr empty 50
8 2 10 -233017 -233017 -1 0 1;
#N canvas 377 133 893 431 outlet-message 0;
#X obj 176 319 list trim;
#X msg 98 300 addcomma;
#X msg 47 281 set;
#X obj 176 296 list prepend add2;
#X obj 168 387 outlet;
#X obj 127 43 r \$0-ampmod;
#X obj 202 42 r \$0-pitchmod;
#X obj 384 41 r \$0-damping;
#X obj 310 42 r \$0-panmod;
#X obj 127 165 t b a b;
#X obj 147 243 t b a a;
#N canvas 497 319 297 264 save 0;
#X obj 48 16 inlet;
#N canvas 690 259 481 384 collect 0;
#X obj 47 60 inlet;
#X obj 47 274 outlet;
#X obj 98 180 list;
#X obj 166 181 t l;
#X obj 47 225 list;
#X obj 98 139 list append |;
#X obj 47 126 del 0;
#X obj 47 82 t b a;
#X text 119 75 hacky thing... replaycing " \, " with "|";
#X connect 0 0 7 0;
#X connect 2 0 3 0;
#X connect 2 0 4 1;
#X connect 3 0 2 1;
#X connect 4 0 1 0;
#X connect 5 0 2 0;
#X connect 6 0 2 1;
#X connect 6 0 4 0;
#X connect 7 0 6 0;
#X connect 7 1 5 0;
#X restore 48 38 pd collect;
#X obj 117 16 r \$0-save;
#X obj 27 130 text set \$0-savestates;
#X obj 27 104 list;
#X obj 117 62 t b f;
#X obj 117 39 clip 0 20;
#X connect 0 0 1 0;
#X connect 1 0 4 1;
#X connect 2 0 6 0;
#X connect 4 0 3 0;
#X connect 5 0 4 0;
#X connect 5 1 3 1;
#X connect 6 0 5 0;
#X restore 187 269 pd save;
#X obj 575 42 r \$0-local;
#X obj 478 42 r \$0-ampmod-wet;
#N canvas 477 165 819 267 pack 0;
#X obj 30 24 inlet;
#X obj 76 24 inlet;
#X obj 127 27 inlet;
#X obj 175 30 inlet;
#X obj 222 31 inlet;
#X obj 268 31 inlet;
#X obj 31 229 outlet;
#X obj 30 52 t b f;
#X obj 31 130 del 0;
#X obj 31 151 f;
#X obj 76 49 t b f;
#X obj 127 51 t b f;
#X obj 175 54 t b f;
#X obj 222 53 t b f;
#X obj 268 55 t b f;
#X obj 31 177 pack 1 1 0 0 0 0;
#X connect 0 0 7 0;
#X connect 1 0 10 0;
#X connect 2 0 11 0;
#X connect 3 0 12 0;
#X connect 4 0 13 0;
#X connect 5 0 14 0;
#X connect 7 0 8 0;
#X connect 7 1 9 1;
#X connect 8 0 9 0;
#X connect 9 0 15 0;
#X connect 10 0 8 0;
#X connect 10 1 15 1;
#X connect 11 0 8 0;
#X connect 11 1 15 2;
#X connect 12 0 8 0;
#X connect 12 1 15 3;
#X connect 13 0 8 0;
#X connect 13 1 15 4;
#X connect 14 0 8 0;
#X connect 14 1 15 5;
#X connect 15 0 6 0;
#X restore 127 125 pd pack;
#X f 26;
#X msg 146 203 pitch-mod \$2 \, amp-mod \$1 \, pan-mod \$3 \, damping
\$4 \, amp-mod_wet \$5 \, localize \$6;
#X connect 0 0 4 0;
#X connect 1 0 4 0;
#X connect 2 0 4 0;
#X connect 3 0 0 0;
#X connect 5 0 14 0;
#X connect 6 0 14 1;
#X connect 7 0 14 3;
#X connect 8 0 14 2;
#X connect 9 0 4 0;
#X connect 9 1 15 0;
#X connect 9 2 2 0;
#X connect 10 0 1 0;
#X connect 10 1 3 0;
#X connect 10 2 11 0;
#X connect 12 0 14 5;
#X connect 13 0 14 4;
#X connect 14 0 9 0;
#X connect 15 0 10 0;
#X restore 804 313 pd outlet-message;
#X obj 450 32 inlet~;
#X obj 537 32 inlet~;
#X obj 421 342 outlet~;
#X obj 366 32 inlet~;
#X text 835 388 philipp schmalfuß \, 2019;
#N canvas 2 54 1067 683 effects 0;
#X text 509 222 speed of sound 343 m/s;
#X obj 456 223 /~ 0.343;
#X obj 469 111 r \$0-pitchmod;
#X obj 469 175 line~;
#X msg 469 154 \$1 100;
#X obj 589 370 *~;
#X obj 618 370 line~;
#X msg 618 349 \$1 10;
#X obj 618 308 r \$0-panmod;
#X obj 618 329 / 100;
#X obj 469 132 / 100;
#N canvas 797 291 450 300 magnitude+phase~~~~~~~~~~~ 0;
#X obj 105 130 *~;
#X obj 137 130 *~;
#X obj 104 165 sqrt~;
#X obj 104 45 inlet~;
#X obj 329 54 inlet~;
#X obj 103 196 outlet~;
#X obj 207 198 outlet~;
#X obj 328 91 abs~;
#X obj 206 132 expr~ atan2($v1 \, $v2);
#X connect 0 0 2 0;
#X connect 1 0 2 0;
#X connect 2 0 5 0;
#X connect 3 0 0 0;
#X connect 3 0 0 1;
#X connect 3 0 8 0;
#X connect 4 0 1 0;
#X connect 4 0 1 1;
#X connect 4 0 7 0;
#X connect 7 0 8 1;
#X connect 8 0 6 0;
#X restore 365 80 pd magnitude+phase~~~~~~~~~~~;
#X f 38;
#X obj 590 274 /~ 1.5708;
#X text 648 276 1/2pi;
#N canvas 3 54 450 300 delay 0;
#X obj 48 101 outlet~;
#X obj 49 3 inlet~;
#N canvas 251 202 450 300 delwrite 0;
#X obj 48 15 inlet~;
#X obj 49 81 outlet~;
#X obj 48 41 delwrite~ \$0-ddel 2000;
#X connect 0 0 2 0;
#X restore 49 28 pd delwrite;
#N canvas 276 120 450 300 delread 0;
#X obj 129 80 inlet~;
#X obj 127 134 outlet~;
#X obj 59 80 inlet~;
#X obj 128 111 vd~ \$0-ddel;
#X connect 0 0 3 0;
#X connect 3 0 1 0;
#X restore 49 75 pd delread;
#X obj 203 5 inlet~;
#X connect 1 0 2 0;
#X connect 2 0 3 0;
#X connect 3 0 0 0;
#X connect 4 0 3 1;
#X restore 435 271 pd delay;
#X obj 365 32 inlet~;
#X obj 590 28 inlet~;
#X obj 252 24 inlet~;
#X obj 455 198 *~;
#N canvas 125 69 442 375 damping 0;
#X obj 288 19 inlet~;
#X obj 63 26 inlet~;
#N canvas 3 54 450 300 clean 0;
#X obj 199 124 inlet~;
#X obj 199 145 outlet~;
#X obj 302 45 r \$0-damping;
#X obj 302 73 == 0;
#X obj 302 94 switch~ 1;
#X connect 0 0 1 0;
#X connect 2 0 3 0;
#X connect 3 0 4 0;
#X restore 289 260 pd clean;
#X obj 204 330 outlet~;
#X obj 146 57 r \$0-damping;
#X obj 85 218 clip~ 0 1;
#X obj 85 194 /~;
#X obj 113 169 pow~ 2;
#X obj 113 193 +~ 1e-12;
#X obj 146 123 line~;
#X msg 146 102 \$1 100;
#X obj 146 81 / 100;
#X obj 146 146 +~ 1;
#X obj 62 322 outlet~;
#N canvas 423 92 775 532 lowpass 0;
#X obj 499 73 r \$0-damping;
#X obj 499 101 != 0;
#X obj 499 122 switch~ 0;
#X obj 262 77 inlet~;
#X obj 262 481 outlet~;
#X obj 135 84 inlet~;
#X obj 164 351 sig~ 1;
#X obj 164 374 -~;
#X obj 134 373 *~;
#X obj 263 287 *~;
#N canvas 2 54 718 581 lop-2stages 0;
#X obj 375 305 clip~ 0 1;
#X obj 374 264 *~;
#N canvas 3 52 450 300 samplerate 0;
#X obj 230 123 outlet;
#X obj 230 26 r pd;
#X obj 230 46 route dsp audio-dialog;
#X obj 230 70 t b;
#X obj 268 72 loadbang;
#X obj 230 96 samplerate~;
#X connect 1 0 2 0;
#X connect 2 0 3 0;
#X connect 2 1 3 0;
#X connect 3 0 5 0;
#X connect 4 0 5 0;
#X connect 5 0 0 0;
#X restore 405 242 pd samplerate;
#X obj 405 263 expr 1/$f1;
#X obj 290 243 sig~ 1;
#X obj 290 266 -~;
#X obj 257 292 rpole~;
#X obj 374 285 *~ 6.28319;
#X obj 256 317 *~;
#X obj 374 190 *~ 20000;
#X obj 374 213 clip~ 1000 20000;
#X obj 289 335 sig~ 1;
#X obj 289 358 -~;
#X obj 256 385 rpole~;
#X obj 255 416 *~;
#X obj 257 97 inlet~;
#X obj 208 98 inlet~;
#X obj 255 439 outlet~;
#X connect 0 0 5 1;
#X connect 0 0 8 1;
#X connect 0 0 12 1;
#X connect 0 0 14 1;
#X connect 1 0 7 0;
#X connect 2 0 3 0;
#X connect 3 0 1 1;
#X connect 4 0 5 0;
#X connect 5 0 6 1;
#X connect 6 0 8 0;
#X connect 7 0 0 0;
#X connect 8 0 13 0;
#X connect 9 0 10 0;
#X connect 10 0 1 0;
#X connect 11 0 12 0;
#X connect 12 0 13 1;
#X connect 13 0 14 0;
#X connect 14 0 17 0;
#X connect 15 0 6 0;
#X connect 16 0 9 0;
#X restore 135 301 pd lop-2stages;
#X connect 0 0 1 0;
#X connect 1 0 2 0;
#X connect 3 0 9 0;
#X connect 3 0 10 1;
#X connect 5 0 7 1;
#X connect 5 0 9 1;
#X connect 5 0 10 0;
#X connect 6 0 7 0;
#X connect 7 0 8 1;
#X connect 8 0 4 0;
#X connect 9 0 4 0;
#X connect 10 0 8 0;
#X restore 86 260 pd lowpass;
#X connect 0 0 2 0;
#X connect 0 0 14 1;
#X connect 1 0 7 0;
#X connect 1 0 6 0;
#X connect 1 0 13 0;
#X connect 2 0 3 0;
#X connect 4 0 11 0;
#X connect 5 0 14 0;
#X connect 6 0 5 0;
#X connect 7 0 8 0;
#X connect 8 0 6 1;
#X connect 9 0 12 0;
#X connect 10 0 9 0;
#X connect 11 0 10 0;
#X connect 12 0 7 1;
#X connect 14 0 3 0;
#X restore 364 359 pd damping;
#X f 12;
#N canvas 2 54 752 504 pan 0;
#X obj 341 414 outlet~;
#X obj 410 414 outlet~;
#X obj 341 392 *~;
#X obj 410 394 *~;
#X obj 467 100 *~ 0.5;
#X obj 468 168 clip~ 0 1;
#N canvas 573 424 481 235 cos 0;
#X obj 115 25 inlet~;
#X obj 29 175 outlet~;
#X obj 115 172 outlet~;
#X obj 30 107 cos~;
#X obj 114 115 cos~;
#X obj 116 60 *~ 0.25;
#X obj 115 93 -~ 0.25;
#X obj 30 87 -~ 0.5;
#X obj 29 136 *~ -1;
#X connect 0 0 5 0;
#X connect 3 0 8 0;
#X connect 4 0 2 0;
#X connect 5 0 6 0;
#X connect 5 0 7 0;
#X connect 6 0 4 0;
#X connect 7 0 3 0;
#X connect 8 0 1 0;
#X restore 469 247 pd cos;
#X obj 340 83 inlet~;
#X obj 466 80 inlet~;
#X obj 468 133 +~ 0.5;
#X connect 2 0 0 0;
#X connect 3 0 1 0;
#X connect 4 0 9 0;
#X connect 5 0 6 0;
#X connect 6 0 2 1;
#X connect 6 1 3 1;
#X connect 7 0 2 0;
#X connect 7 0 3 0;
#X connect 8 0 4 0;
#X connect 9 0 5 0;
#X restore 473 417 pd pan;
#X f 20;
#N canvas 2 54 750 652 local-global_rev 0;
#X obj 136 165 /~;
#X obj 164 164 +~ 1e-12;
#X obj 316 300 *~;
#X obj 377 300 *~;
#X obj 136 188 clip~ 0 1;
#X obj 237 300 *~;
#X obj 101 44 inlet~;
#X obj 373 34 inlet~;
#X obj 441 34 inlet~;
#X obj 495 35 inlet~;
#X obj 198 119 line~;
#X msg 198 98 \$1 100;
#X obj 198 77 / 100;
#X obj 164 140 pow~;
#X obj 198 142 +~ 1;
#X obj 316 210 sig~ 1;
#X obj 316 233 -~;
#X obj 315 573 outlet~;
#X obj 238 570 outlet~;
#X obj 101 580 outlet~;
#X obj 198 55 r \$0-local;
#X connect 0 0 4 0;
#X connect 1 0 0 1;
#X connect 2 0 18 0;
#X connect 3 0 17 0;
#X connect 4 0 5 0;
#X connect 4 0 16 1;
#X connect 5 0 18 0;
#X connect 5 0 17 0;
#X connect 6 0 0 0;
#X connect 6 0 13 0;
#X connect 6 0 19 0;
#X connect 7 0 5 1;
#X connect 8 0 2 1;
#X connect 9 0 3 1;
#X connect 10 0 14 0;
#X connect 11 0 10 0;
#X connect 12 0 11 0;
#X connect 13 0 1 0;
#X connect 14 0 13 1;
#X connect 15 0 16 0;
#X connect 16 0 2 0;
#X connect 16 0 3 0;
#X connect 20 0 12 0;
#X restore 364 486 pd local-global_rev;
#X f 27;
#N canvas 179 133 778 633 dry-wet-amplitude 0;
#X obj 75 24 inlet~;
#X obj 429 179 /~;
#X obj 457 154 pow~ 2;
#X obj 489 47 r \$0-ampmod;
#X obj 561 465 *~;
#X obj 577 21 inlet~;
#X obj 561 493 outlet~;
#X obj 428 205 clip~ 0 1;
#X obj 457 178 +~ 1e-12;
#X obj 668 470 *~;
#X obj 683 21 inlet~;
#X obj 668 493 outlet~;
#X obj 489 109 line~;
#X msg 489 88 \$1 100;
#X obj 489 67 / 100;
#X obj 489 132 +~ 1;
#X obj 76 155 /~;
#X obj 104 130 pow~ 2;
#X obj 220 432 *~;
#X obj 237 22 inlet~;
#X obj 219 501 outlet~;
#X obj 75 181 clip~ 0 1;
#X obj 104 154 +~ 1e-12;
#X obj 345 439 *~;
#X obj 359 21 inlet~;
#X obj 346 501 outlet~;
#X obj 136 85 line~;
#X msg 136 64 \$1 100;
#X obj 136 43 / 100;
#X obj 136 108 +~ 1;
#X obj 415 325 *~ 0.5;
#X obj 401 352 sig~ 1;
#X obj 401 380 -~;
#X obj 220 468 *~;
#X obj 346 470 *~;
#X obj 136 23 r \$0-ampmod-wet;
#X connect 0 0 2 0;
#X connect 0 0 1 0;
#X connect 0 0 16 0;
#X connect 0 0 17 0;
#X connect 1 0 7 0;
#X connect 2 0 8 0;
#X connect 3 0 14 0;
#X connect 4 0 6 0;
#X connect 5 0 4 1;
#X connect 7 0 4 0;
#X connect 7 0 9 0;
#X connect 7 0 30 0;
#X connect 8 0 1 1;
#X connect 9 0 11 0;
#X connect 10 0 9 1;
#X connect 12 0 15 0;
#X connect 13 0 12 0;
#X connect 14 0 13 0;
#X connect 15 0 2 1;
#X connect 16 0 21 0;
#X connect 17 0 22 0;
#X connect 18 0 33 0;
#X connect 19 0 18 1;
#X connect 21 0 18 0;
#X connect 21 0 23 0;
#X connect 22 0 16 1;
#X connect 23 0 34 0;
#X connect 24 0 23 1;
#X connect 26 0 29 0;
#X connect 27 0 26 0;
#X connect 28 0 27 0;
#X connect 29 0 17 1;
#X connect 30 0 32 1;
#X connect 31 0 32 0;
#X connect 32 0 34 1;
#X connect 32 0 33 1;
#X connect 33 0 20 0;
#X connect 34 0 25 0;
#X connect 35 0 28 0;
#X restore 365 540 pd dry-wet-amplitude;
#X f 38;
#X obj 365 593 outlet~;
#X obj 439 594 outlet~;
#X obj 515 595 outlet~;
#X obj 591 594 outlet~;
#X text 403 619 wet;
#X text 558 616 dry;
#X connect 1 0 14 1;
#X connect 2 0 10 0;
#X connect 3 0 18 1;
#X connect 4 0 3 0;
#X connect 5 0 20 1;
#X connect 6 0 5 1;
#X connect 7 0 6 0;
#X connect 8 0 9 0;
#X connect 9 0 7 0;
#X connect 10 0 4 0;
#X connect 11 0 18 0;
#X connect 11 0 19 0;
#X connect 11 1 12 0;
#X connect 12 0 5 0;
#X connect 14 0 19 1;
#X connect 15 0 11 0;
#X connect 16 0 11 1;
#X connect 17 0 14 0;
#X connect 18 0 1 0;
#X connect 19 0 21 0;
#X connect 19 1 20 0;
#X connect 19 1 21 1;
#X connect 20 0 21 2;
#X connect 20 0 22 3;
#X connect 20 1 21 3;
#X connect 20 1 22 4;
#X connect 21 0 22 0;
#X connect 21 1 22 1;
#X connect 21 2 22 2;
#X connect 22 0 23 0;
#X connect 22 1 24 0;
#X connect 22 2 25 0;
#X connect 22 3 26 0;
#X restore 366 214 pd effects;
#X f 29;
#X obj 484 342 outlet~;
#X obj 537 342 outlet~;
#X text 388 362 dry;
#X text 513 364 wet;
#N canvas 50 88 230 210 \$0-spacer~ 1;
#N canvas 515 97 714 345 mask 0;
#X obj 100 100 cnv 15 219 199 empty empty empty 20 12 0 14 -262144
-66577 0;
#X obj 198 108 cnv 10 10 10 empty empty spacer~ 0 5 2 17 -262144 -162280
0;
#X obj 113 133 hsl 128 12 0 100 0 0 \$0-pgui \$0-pguir Pitch-mod -2
-6 2 10 -262144 -1 -1 12700 1;
#X obj 247 133 nbx 5 12 0 1e+17 0 0 \$0-pitchmod \$0-pitchmodr % 47
7 2 10 -262144 -1 -1 100 256;
#X obj 113 211 hsl 128 12 0 100 0 0 \$0-agui \$0-aguir Amp-mod -2 -6
2 10 -262144 -1 -1 12700 1;
#X obj 247 211 nbx 5 12 0 1000 0 0 \$0-ampmod \$0-ampmodr % 47 7 2
10 -262144 -1 -1 100 256;
#X obj 113 159 hsl 128 12 0 100 0 0 \$0-pgui \$0-pguir Pan-mod -2 -6
2 10 -262144 -1 -1 12700 1;
#X obj 247 159 nbx 5 12 0 100 0 0 \$0-panmod \$0-panmodr % 47 7 2 10
-262144 -1 -1 100 256;
#X msg 22 112 set \$1;
#X msg 25 205 set \$1;
#X msg 25 142 set \$1;
#X obj 113 185 hsl 128 12 0 100 0 0 \$0-dgui \$0-dguir Damping -2 -6
2 10 -262144 -1 -1 12700 1;
#X obj 247 185 nbx 5 12 0 1000 0 0 \$0-damping \$0-dampingr % 47 7
2 10 -262144 -1 -1 100 256;
#X msg 28 176 set \$1;
#X obj 100 234 cnv 15 219 65 empty empty empty 20 12 0 14 -228856 -66577
0;
#X obj 113 250 hsl 128 12 0 100 0 0 \$0-awgui \$0-awguir Amp-mod_wet
-2 -6 2 10 -262144 -1 -1 8700 1;
#X obj 247 250 nbx 5 12 0 1000 0 0 \$0-ampmod-wet \$0-ampmod-wetr %
47 7 2 10 -262144 -1 -1 68.5039 256;
#X msg 25 243 set \$1;
#X obj 113 277 hsl 128 12 0 100 0 0 \$0-locgui \$0-locguir Localize
-2 -6 2 10 -262144 -1 -1 12100 1;
#X obj 247 277 nbx 5 12 0 1000 0 0 \$0-local \$0-localr % 47 7 2 10
-262144 -1 -1 95.2756 256;
#X msg 25 271 set \$1;
#X connect 2 0 3 0;
#X connect 3 0 8 0;
#X connect 4 0 5 0;
#X connect 5 0 9 0;
#X connect 6 0 7 0;
#X connect 7 0 10 0;
#X connect 8 0 2 0;
#X connect 9 0 4 0;
#X connect 10 0 6 0;
#X connect 11 0 12 0;
#X connect 12 0 13 0;
#X connect 13 0 11 0;
#X connect 15 0 16 0;
#X connect 16 0 17 0;
#X connect 17 0 15 0;
#X connect 18 0 19 0;
#X connect 19 0 20 0;
#X connect 20 0 18 0;
#X coords 0 -1 1 1 220 200 2 100 100;
#X restore 5 2 pd mask;
#X restore 811 129 pd \$0-spacer~;
#X connect 0 0 3 0;
#X connect 6 0 2 0;
#X connect 7 0 12 1;
#X connect 8 0 12 2;
#X connect 10 0 12 0;
#X connect 12 0 13 0;
#X connect 12 1 14 0;
#X connect 12 2 1 0;
#X connect 12 3 9 0;
#X coords 0 -1 1 1 155 33 1 100 100;
