#N struct 1007-control-array float x float y float x1 float y1 float
x2 float y2 array c-array 1007-control-template;
#N struct 1007-control-template float x float y float c float n;
#N canvas 187 186 776 338 10;
#X obj 3 3 cnv 15 380 320 empty empty empty 20 12 0 14 #e0e0e0 #404040
0;
#X text 74 120 1:(~)signal;
#X text 16 121 Inlets:;
#X text 16 192 Outlets:;
#X obj 14 33 cnv 15 10 10 empty empty pp.spat4~ 0 0 2 16 #e0e0e0 #fcfcfc
0;
#X obj 539 161 cnv 15 118 17 empty empty empty 20 12 0 14 #fc8000 #404040
0;
#N canvas 873 174 423 472 control-messages 0;
#X obj 70 439 outlet;
#X floatatom 70 12 5 -1 1 0 - - - 0;
#X msg 70 56 speaker-1 \$1 \$2;
#X obj 70 35 pack 0 0;
#X floatatom 115 12 5 -1 1 0 - - - 0;
#X text 140 33 speaker position x \, y (-1 \, 1);
#X msg 93 90 speaker-2 \$1 \$2;
#X msg 94 110 speaker-3 \$1 \$2;
#X msg 94 130 speaker-4 \$1 \$2;
#X msg 105 247 cos;
#X msg 106 275 sqrt;
#X text 104 219 panning laws:;
#X text 135 246 sine/cosine;
#X text 141 274 square root;
#X obj 144 414 cnv 16 87 16 empty empty empty 20 12 0 14 #fc8000 #404040
0;
#N canvas 864 246 634 307 save&recall 0;
#X obj 93 233 outlet;
#X msg 93 60 0;
#X msg 125 60 1;
#X msg 158 60 2;
#X msg 93 99 save \$1;
#X text 185 63 ...;
#X msg 207 60 20;
#X msg 149 154 0;
#X msg 181 154 1;
#X msg 214 154 2;
#X text 241 157 ...;
#X msg 263 154 20;
#X msg 149 193 recall \$1;
#X text 249 93 save & recall up to 20 presets \, presets will be saved
with the parrent patch;
#X connect 1 0 4 0;
#X connect 2 0 4 0;
#X connect 3 0 4 0;
#X connect 4 0 0 0;
#X connect 6 0 4 0;
#X connect 7 0 12 0;
#X connect 8 0 12 0;
#X connect 9 0 12 0;
#X connect 11 0 12 0;
#X connect 12 0 0 0;
#X restore 144 413 pd save&recall;
#X msg 144 350 reset;
#X text 186 349 reset speaker positions;
#X connect 1 0 3 0;
#X connect 2 0 0 0;
#X connect 3 0 2 0;
#X connect 4 0 3 1;
#X connect 9 0 0 0;
#X connect 10 0 0 0;
#X connect 15 0 0 0;
#X connect 16 0 0 0;
#X restore 539 161 pd control-messages;
#X obj 392 19 noise~;
#X obj 421 59 hsl 100 12 -1 1 0 0 empty empty empty -2 -8 0 10 #fcfcfc
#000000 #000000 0 1;
#X floatatom 418 123 5 0 0 0 - - - 0;
#X obj 418 143 sig~;
#X obj 465 15 vsl 12 100 -1 1 0 0 empty empty empty 0 -9 0 10 #fcfcfc
#000000 #000000 0 1;
#X floatatom 464 123 5 0 0 0 - - - 0;
#X obj 464 143 sig~;
#X text 425 105 x;
#X text 483 106 y;
#X floatatom 506 124 5 -1 1 0 - - - 0;
#X obj 506 144 sig~;
#X text 542 123 spatial spread (-1 \, 1);
#X text 74 132 2:(~)x-position;
#X text 74 144 3:(~)y-position;
#X text 74 156 4:(~)spatial spread;
#X text 74 169 5:control-messages;
#X text 74 191 1:(~)signal ch.1;
#X text 74 204 2:(~)signal ch.2;
#X text 74 217 3:(~)signal ch.3;
#X text 74 230 4:(~)signal ch.4;
#X text 14 77 Creation arguments: panning law: "cos" or "sqrt";
#X text 135 90 default: cos;
#N canvas 740 417 503 292 message-out 0;
#X obj 30 33 inlet;
#X msg 30 60 speaker-1 -0.653333 0.66 \, speaker-2 0.66 0.66 \, speaker-3
0.66 -0.653333 \, speaker-4 -0.653333 -0.653333 \, cos \,;
#X connect 0 0 1 0;
#X restore 539 225 pd message-out;
#X text 552 190 <-- click to open GUI;
#X obj 390 266 pp.out-4~;
#A saved empty_slot \; empty_slot \; empty_slot \; empty_slot \; empty_slot
\; empty_slot \; empty_slot \; empty_slot \; empty_slot \; empty_slot
\; empty_slot \; empty_slot \; empty_slot \; empty_slot \; empty_slot
\; empty_slot \; empty_slot \; empty_slot \; empty_slot \; empty_slot
\; empty_slot \;;
#X obj 391 184 pp.spat4~;
#A saved empty_slot \; empty_slot \; empty_slot \; empty_slot \; empty_slot
\; empty_slot \; empty_slot \; empty_slot \; empty_slot \; empty_slot
\; empty_slot \; empty_slot \; empty_slot \; empty_slot \; empty_slot
\; empty_slot \; empty_slot \; empty_slot \; empty_slot \; empty_slot
\; empty_slot \;;
#X text 74 248 5:message;
#X text 9 49 4 channel distance based amplitude panning;
#X connect 6 0 32 4;
#X connect 7 0 32 0;
#X connect 8 0 9 0;
#X connect 9 0 10 0;
#X connect 10 0 32 1;
#X connect 11 0 12 0;
#X connect 12 0 13 0;
#X connect 13 0 32 2;
#X connect 16 0 17 0;
#X connect 17 0 32 3;
#X connect 32 0 31 0;
#X connect 32 1 31 1;
#X connect 32 2 31 2;
#X connect 32 3 31 3;
#X connect 32 4 29 0;
