#N canvas 320 226 944 308 10;
#X obj 1 2 cnv 15 380 300 empty empty empty 20 12 0 14 -233017 -66577
0;
#X text 10 80 Inlets:;
#X text 10 120 Outlets:;
#X text 68 132 2:message;
#X obj 12 20 cnv 15 10 10 empty empty pp.sdel~ 0 0 2 16 -233017 -262144
0;
#X text 11 34 samplewise delay;
#X text 10 59 Creation arguments: delay in samples;
#X text 68 81 1:(~) signal;
#X text 68 120 1:(~)delayed signal;
#X text 68 93 2:control-message;
#N canvas 0 50 450 250 (subpatch) 0;
#X array imp 1 float 3;
#A 0 0.8;
#X coords 0 1 1 0 10 10 1 0 0;
#X restore 541 62 graph;
#X obj 392 24 bng 15 250 50 0 empty empty empty 17 7 0 10 -262144 -1
-1;
#X obj 438 58 tabplay~ imp;
#N canvas 0 50 450 250 (subpatch) 0;
#X array delayed 70 float 3;
#A 0 0 0 0 0 0 0 0 0 0 0 0 0 0 0 0 0 0 0 0 0 0 0 0 0 0 0 0 0 0 0 0
0 0 0 0 0 0 0 0 0 0 0 0 0 0 0 0 0 0 0 0 0 0 0 0 0 0 0 0 0 0 0 0 0 0
0 0 0 0 0;
#X coords 0 1 70 -1 200 140 1 0 0;
#X restore 689 105 graph;
#X obj 436 232 tabwrite~ delayed;
#X text 686 243 0;
#X text 878 244 70 samps.;
#X obj 437 156 pp.sdel~ 5;
#A saved;
#A saved;
#A saved;
#A saved;
#A saved;
#A saved;
#A saved;
#A saved;
#A saved;
#A saved;
#A saved;
#A saved;
#A saved;
#A saved;
#A saved;
#A saved;
#A saved;
#A saved;
#A saved;
#A saved;
#A saved;
#X obj 538 132 cnv 15 118 17 empty empty empty 20 12 0 14 -260097 -66577
0;
#N canvas 561 87 338 209 control-messages 0;
#X obj 57 180 outlet;
#X obj 101 147 cnv 16 87 16 empty empty empty 20 12 0 14 -260097 -66577
0;
#N canvas 864 246 634 307 save&recall 0;
#X obj 93 233 outlet;
#X msg 93 60 0;
#X msg 125 60 1;
#X msg 158 60 2;
#X msg 93 99 save \$1;
#X text 185 63 ...;
#X msg 207 60 20;
#X msg 149 154 0;
#X msg 181 154 1;
#X msg 214 154 2;
#X text 241 157 ...;
#X msg 263 154 20;
#X msg 149 193 recall \$1;
#X text 249 93 save & recall up to 20 presets \, presets will be saved
with the parrent patch;
#X connect 1 0 4 0;
#X connect 2 0 4 0;
#X connect 3 0 4 0;
#X connect 4 0 0 0;
#X connect 6 0 4 0;
#X connect 7 0 12 0;
#X connect 8 0 12 0;
#X connect 9 0 12 0;
#X connect 11 0 12 0;
#X connect 12 0 0 0;
#X restore 101 146 pd save&recall;
#X floatatom 57 80 5 0 1e+06 0 - - -;
#X text 96 83 db;
#X msg 57 104 delay \$1;
#X connect 2 0 0 0;
#X connect 3 0 5 0;
#X connect 5 0 0 0;
#X restore 538 132 pd control-messages;
#N canvas 858 426 200 150 message-out 0;
#X obj 20 20 inlet;
#X msg 30 60 delay 5;
#X connect 0 0 1 0;
#X restore 538 200 pd message-out;
#X connect 11 0 12 0;
#X connect 11 0 14 0;
#X connect 12 0 17 0;
#X connect 17 0 14 0;
#X connect 17 1 20 0;
#X connect 19 0 17 1;
