#N canvas 61 198 1144 504 10;
#X obj 273 431 outlet~;
#X obj 602 116 *~ 0.5;
#X obj 602 94 +~ 1;
#X obj 663 117 *~ 0.5;
#X obj 663 95 +~ 1;
#X obj 603 65 inlet~;
#X obj 663 66 inlet~;
#N canvas 3 52 376 342 amp 0;
#X obj 91 298 outlet~;
#X obj 91 264 *~;
#X obj 92 10 inlet~ sig;
#X obj 245 7 inlet~ angle;
#N canvas 417 176 450 300 cos 0;
#X obj 79 69 inlet~;
#X obj 78 134 cos~;
#X obj 78 92 *~ 0.25;
#X obj 78 114 -~ 0.5;
#X obj 77 157 *~ -1;
#X obj 77 180 outlet~;
#X obj 174 72 r \$0-panlaw;
#X obj 174 95 == 0;
#X obj 174 118 switch~;
#X obj 256 79 loadbang;
#X msg 256 102 1;
#X connect 0 0 2 0;
#X connect 1 0 4 0;
#X connect 2 0 3 0;
#X connect 3 0 1 0;
#X connect 4 0 5 0;
#X connect 6 0 7 0;
#X connect 7 0 8 0;
#X connect 9 0 10 0;
#X connect 10 0 8 0;
#X restore 107 182 pd cos;
#N canvas 232 247 290 199 sqrt 0;
#X obj 45 21 inlet~;
#X obj 30 154 outlet~;
#X obj 31 109 sqrt~;
#X obj 30 60 sig~ 1;
#X obj 30 83 -~;
#X obj 103 45 r \$0-panlaw;
#X obj 103 91 switch~;
#X obj 185 52 loadbang;
#X obj 103 68 != 0;
#X msg 185 75 0;
#X connect 0 0 4 1;
#X connect 2 0 1 0;
#X connect 3 0 4 0;
#X connect 4 0 2 0;
#X connect 5 0 8 0;
#X connect 7 0 9 0;
#X connect 8 0 6 0;
#X connect 9 0 6 0;
#X restore 243 179 pd sqrt;
#X connect 1 0 0 0;
#X connect 2 0 1 0;
#X connect 3 0 4 0;
#X connect 3 0 5 0;
#X connect 4 0 1 1;
#X connect 5 0 1 1;
#X restore 272 276 pd amp;
#X obj 331 430 outlet~;
#X obj 391 428 outlet~;
#X obj 448 429 outlet~;
#X obj 508 430 outlet~;
#X obj 562 429 outlet~;
#X obj 618 428 outlet~;
#X obj 675 428 outlet~;
#X obj 778 56 inlet~;
#N canvas 22 463 272 272 \$0-spat8 0;
#X obj 2 2 cnv 1 264 264 empty empty empty 20 12 0 14 -128992 -66577
0;
#X obj 3 3 cnv 1 262 262 empty empty empty 20 12 0 14 -66577 -66577
0;
#X obj 146 29 hradio 12 1 0 2 \$0-preset \$0-presetr empty 0 -8 0 10
-262144 -1 -1 1;
#X obj 4 4 cnv 1 260 260 empty empty empty 20 12 0 14 -228856 -66577
0;
#X obj 4 132 cnv 1 260 1 empty empty empty 20 12 0 14 -262144 -66577
0;
#X obj 133 4 cnv 1 1 260 empty empty empty 20 12 0 14 -262144 -66577
0;
#X obj 259 125 cnv 1 1 1 empty empty 1 0 0 2 11 -233017 -262144 0;
#X obj 137 8 cnv 1 1 1 empty empty 1 0 0 2 11 -233017 -262144 0;
#X obj 138 257 cnv 1 1 1 empty empty -1 0 0 2 11 -233017 -262144 0
;
#X obj 6 125 cnv 1 1 1 empty empty -1 0 0 2 11 -233017 -262144 0;
#X obj 74 15 cnv 16 16 16 \$0-spcnv1 \$0-spcnv1r 1 5 7 2 14 -225281
-262144 0;
#X obj 177 15 cnv 16 16 16 \$0-spcnv2 \$0-spcnv2r 2 5 7 2 14 -229377
-262144 0;
#X obj 236 74 cnv 16 16 16 \$0-spcnv4 \$0-spcnv4r 4 5 7 2 14 -176129
-262144 0;
#X obj 236 177 cnv 16 16 16 \$0-spcnv6 \$0-spcnv6r 6 5 7 2 14 -98305
-262144 0;
#X obj 177 236 cnv 16 16 16 \$0-spcnv8 \$0-spcnv8r 8 5 7 2 14 -24577
-262144 0;
#X obj 74 236 cnv 16 16 16 \$0-spcnv7 \$0-spcnv7r 7 5 7 2 14 -20481
-262144 0;
#X obj 15 177 cnv 16 16 16 \$0-spcnv5 \$0-spcnv5r 5 5 7 2 14 -94209
-262144 0;
#X obj 15 74 cnv 16 16 16 \$0-spcnv3 \$0-spcnv3r 3 5 7 2 14 -172033
-262144 0;
#X restore 922 164 pd \$0-spat8;
#X obj 925 68 inlet;
#N canvas 3 52 574 536 in 0;
#X obj 68 41 inlet;
#X obj 68 241 s \$0-cnvposition-1;
#X obj 85 261 s \$0-cnvposition-2;
#X obj 103 281 s \$0-cnvposition-3;
#X obj 120 301 s \$0-cnvposition-4;
#X obj 141 322 s \$0-cnvposition-5;
#X obj 158 342 s \$0-cnvposition-6;
#X obj 176 362 s \$0-cnvposition-7;
#X obj 200 382 s \$0-cnvposition-8;
#X obj 395 233 != 0;
#X obj 395 254 s \$0-preset;
#X obj 68 146 route speaker-1 speaker-2 speaker-3 speaker-4 speaker-5
speaker-6 speaker-7 speaker-8;
#X obj 395 208 route preset cos sqrt;
#X obj 447 108 loadbang;
#X obj 447 175 list trim;
#X obj 447 152 list;
#X obj 447 130 symbol \$1;
#X obj 470 285 s \$0-panlaw;
#X obj 470 240 t b;
#X msg 470 261 0;
#X obj 501 241 t b;
#X msg 501 262 1;
#N canvas 937 111 450 300 recall 0;
#N canvas 156 162 1004 423 recall 0;
#X obj 106 5 savestate;
#X obj 106 28 t a b;
#X obj 205 60 + 1;
#X obj 106 78 list prepend;
#X obj 106 101 list trim;
#X obj 95 275 list;
#X obj 130 275 list;
#X obj 166 275 list;
#X obj 202 275 list;
#X obj 240 275 list;
#X obj 275 275 list;
#X obj 311 275 list;
#X obj 440 380 outlet;
#X obj 30 78 r \$0-lists;
#X obj 500 43 inlet;
#X obj 345 275 list;
#X obj 380 275 list;
#X obj 416 275 list;
#X obj 453 275 list;
#X obj 490 275 list;
#X obj 525 275 list;
#X obj 561 275 list;
#X obj 594 275 list;
#X obj 630 275 list;
#X obj 667 275 list;
#X obj 704 275 list;
#X obj 739 275 list;
#X obj 775 275 list;
#X obj 106 124 route 0 1 2 3 4 5 6 7 8 9 10 11 12 13 14 15 16 17 18
19 20;
#X obj 500 121 sel 0 1 2 3 4 5 6 7 8 9 10 11 12 13 14 15 16 17 18 19
20;
#X obj 812 275 list;
#X obj 175 56 f;
#X connect 0 0 1 0;
#X connect 1 0 3 0;
#X connect 1 1 31 0;
#X connect 2 0 31 1;
#X connect 3 0 4 0;
#X connect 4 0 28 0;
#X connect 5 0 12 0;
#X connect 6 0 12 0;
#X connect 7 0 12 0;
#X connect 8 0 12 0;
#X connect 9 0 12 0;
#X connect 10 0 12 0;
#X connect 11 0 12 0;
#X connect 13 0 28 0;
#X connect 14 0 29 0;
#X connect 15 0 12 0;
#X connect 16 0 12 0;
#X connect 17 0 12 0;
#X connect 18 0 12 0;
#X connect 19 0 12 0;
#X connect 20 0 12 0;
#X connect 21 0 12 0;
#X connect 22 0 12 0;
#X connect 23 0 12 0;
#X connect 24 0 12 0;
#X connect 25 0 12 0;
#X connect 26 0 12 0;
#X connect 27 0 12 0;
#X connect 28 0 5 1;
#X connect 28 1 6 1;
#X connect 28 2 7 1;
#X connect 28 3 8 1;
#X connect 28 4 9 1;
#X connect 28 5 10 1;
#X connect 28 6 11 1;
#X connect 28 7 15 1;
#X connect 28 8 16 1;
#X connect 28 9 17 1;
#X connect 28 10 18 1;
#X connect 28 11 19 1;
#X connect 28 12 20 1;
#X connect 28 13 21 1;
#X connect 28 14 22 1;
#X connect 28 15 23 1;
#X connect 28 16 24 1;
#X connect 28 17 25 1;
#X connect 28 18 26 1;
#X connect 28 19 27 1;
#X connect 28 20 30 1;
#X connect 29 0 5 0;
#X connect 29 1 6 0;
#X connect 29 2 7 0;
#X connect 29 3 8 0;
#X connect 29 4 9 0;
#X connect 29 5 10 0;
#X connect 29 6 11 0;
#X connect 29 7 15 0;
#X connect 29 8 16 0;
#X connect 29 9 17 0;
#X connect 29 10 18 0;
#X connect 29 11 19 0;
#X connect 29 12 20 0;
#X connect 29 13 21 0;
#X connect 29 14 22 0;
#X connect 29 15 23 0;
#X connect 29 16 24 0;
#X connect 29 17 25 0;
#X connect 29 18 26 0;
#X connect 29 19 27 0;
#X connect 29 20 30 0;
#X connect 30 0 12 0;
#X connect 31 0 2 0;
#X connect 31 0 3 1;
#X restore 128 85 pd recall;
#X obj 128 130 outlet;
#N canvas 3 52 450 600 listsplit 0;
#X obj 158 23 inlet;
#X obj 220 87 list length;
#X obj 220 113 until;
#X obj 182 150 f;
#X obj 278 150 + 1;
#X msg 265 111 0;
#X obj 182 226 list store;
#X msg 182 202 get \$1 1;
#X obj 154 367 list split;
#X obj 222 342 f;
#X obj 154 334 list;
#X obj 98 124 list;
#X obj 182 389 list split 1;
#X obj 154 274 t bang bang bang;
#X obj 182 179 t f f;
#X obj 158 48 t l l l b;
#X obj 154 473 outlet;
#X obj 154 440 list trim;
#X obj 163 248 sel |;
#X connect 0 0 15 0;
#X connect 1 0 2 0;
#X connect 2 0 3 0;
#X connect 3 0 4 0;
#X connect 3 0 14 0;
#X connect 4 0 3 1;
#X connect 5 0 3 1;
#X connect 6 0 18 0;
#X connect 7 0 6 0;
#X connect 8 0 17 0;
#X connect 8 1 12 0;
#X connect 9 0 8 1;
#X connect 10 0 8 0;
#X connect 11 0 15 0;
#X connect 12 1 11 0;
#X connect 13 0 10 0;
#X connect 13 1 9 0;
#X connect 13 2 2 1;
#X connect 14 0 7 0;
#X connect 14 1 9 1;
#X connect 15 0 1 0;
#X connect 15 1 10 1;
#X connect 15 2 6 1;
#X connect 15 3 5 0;
#X connect 17 0 16 0;
#X connect 18 0 13 0;
#X restore 128 107 pd listsplit;
#X obj 128 25 r \$0-recall;
#X obj 128 55 pipe 1;
#X connect 0 0 2 0;
#X connect 2 0 1 0;
#X connect 3 0 4 0;
#X connect 4 0 0 0;
#X restore 159 114 pd recall;
#N canvas 698 546 200 251 route 0;
#X obj 20 20 inlet;
#X obj 30 60 route save recall;
#X obj 30 85 route float;
#X obj 97 111 route float;
#X obj 30 136 s \$0-save;
#X obj 30 108 i;
#X obj 98 133 i;
#X obj 98 161 s \$0-recall;
#X connect 0 0 1 0;
#X connect 1 0 2 0;
#X connect 1 1 3 0;
#X connect 2 0 5 0;
#X connect 3 0 6 0;
#X connect 5 0 4 0;
#X connect 6 0 7 0;
#X restore 97 93 pd route save-recall;
#X connect 0 0 11 0;
#X connect 0 0 23 0;
#X connect 9 0 10 0;
#X connect 11 0 1 0;
#X connect 11 1 2 0;
#X connect 11 2 3 0;
#X connect 11 3 4 0;
#X connect 11 4 5 0;
#X connect 11 5 6 0;
#X connect 11 6 7 0;
#X connect 11 7 8 0;
#X connect 11 8 12 0;
#X connect 12 0 9 0;
#X connect 12 1 18 0;
#X connect 12 2 20 0;
#X connect 13 0 16 0;
#X connect 14 0 12 0;
#X connect 15 0 14 0;
#X connect 16 0 15 0;
#X connect 18 0 19 0;
#X connect 19 0 17 0;
#X connect 20 0 21 0;
#X connect 21 0 17 0;
#X connect 22 0 11 0;
#X restore 925 88 pd in;
#N canvas 3 195 1269 462 gui-color~~~~~~~~~~~~~~~~~~ 0;
#X obj 49 3 inlet~;
#X obj 49 25 env~ 16384;
#X msg 41 342 color \$1;
#X obj 41 261 * 255;
#X obj 41 281 i;
#X obj 49 47 dbtorms;
#X obj 41 302 * -65536;
#X obj 41 322 - 1;
#X obj 49 69 change;
#X obj 43 401 r \$0-visbng;
#X obj 143 411 loadbang;
#X msg 143 432 0;
#X obj 143 453 switch~;
#X msg 43 422 1;
#X obj 41 198 * 6.28319;
#X obj 41 156 * 0.25;
#X obj 41 177 - 0.5;
#X obj 49 90 list prepend 0;
#X obj 49 110 list trim;
#X obj 49 131 route 0 1;
#X obj 41 219 expr -cos($f1);
#X obj 141 164 expr 1-$f1;
#X obj 141 187 sqrt;
#X obj 130 68 r \$0-panlaw;
#X obj 41 364 s \$0-spcnv1r;
#X obj 231 8 inlet~;
#X obj 231 30 env~ 16384;
#X msg 223 347 color \$1;
#X obj 223 266 * 255;
#X obj 223 286 i;
#X obj 231 52 dbtorms;
#X obj 223 307 * -65536;
#X obj 223 327 - 1;
#X obj 231 74 change;
#X obj 223 203 * 6.28319;
#X obj 223 161 * 0.25;
#X obj 223 182 - 0.5;
#X obj 231 95 list prepend 0;
#X obj 231 115 list trim;
#X obj 231 136 route 0 1;
#X obj 223 224 expr -cos($f1);
#X obj 323 169 expr 1-$f1;
#X obj 323 192 sqrt;
#X obj 312 73 r \$0-panlaw;
#X obj 414 9 inlet~;
#X obj 414 31 env~ 16384;
#X msg 406 348 color \$1;
#X obj 406 267 * 255;
#X obj 406 287 i;
#X obj 414 53 dbtorms;
#X obj 406 308 * -65536;
#X obj 406 328 - 1;
#X obj 414 75 change;
#X obj 406 204 * 6.28319;
#X obj 406 162 * 0.25;
#X obj 406 183 - 0.5;
#X obj 414 96 list prepend 0;
#X obj 414 116 list trim;
#X obj 414 137 route 0 1;
#X obj 406 225 expr -cos($f1);
#X obj 506 170 expr 1-$f1;
#X obj 506 193 sqrt;
#X obj 495 74 r \$0-panlaw;
#X obj 583 6 inlet~;
#X obj 583 28 env~ 16384;
#X msg 575 345 color \$1;
#X obj 575 264 * 255;
#X obj 575 284 i;
#X obj 583 50 dbtorms;
#X obj 575 305 * -65536;
#X obj 575 325 - 1;
#X obj 583 72 change;
#X obj 575 201 * 6.28319;
#X obj 575 159 * 0.25;
#X obj 575 180 - 0.5;
#X obj 583 93 list prepend 0;
#X obj 583 113 list trim;
#X obj 583 134 route 0 1;
#X obj 575 222 expr -cos($f1);
#X obj 675 167 expr 1-$f1;
#X obj 675 190 sqrt;
#X obj 664 71 r \$0-panlaw;
#X obj 763 5 inlet~;
#X obj 763 27 env~ 16384;
#X msg 755 344 color \$1;
#X obj 755 263 * 255;
#X obj 755 283 i;
#X obj 763 49 dbtorms;
#X obj 755 304 * -65536;
#X obj 755 324 - 1;
#X obj 763 71 change;
#X obj 755 200 * 6.28319;
#X obj 755 158 * 0.25;
#X obj 755 179 - 0.5;
#X obj 763 92 list prepend 0;
#X obj 763 112 list trim;
#X obj 763 133 route 0 1;
#X obj 755 221 expr -cos($f1);
#X obj 855 166 expr 1-$f1;
#X obj 855 189 sqrt;
#X obj 844 70 r \$0-panlaw;
#X obj 939 7 inlet~;
#X obj 939 29 env~ 16384;
#X msg 931 346 color \$1;
#X obj 931 265 * 255;
#X obj 931 285 i;
#X obj 939 51 dbtorms;
#X obj 931 306 * -65536;
#X obj 931 326 - 1;
#X obj 939 73 change;
#X obj 931 202 * 6.28319;
#X obj 931 160 * 0.25;
#X obj 931 181 - 0.5;
#X obj 939 94 list prepend 0;
#X obj 939 114 list trim;
#X obj 939 135 route 0 1;
#X obj 931 223 expr -cos($f1);
#X obj 1031 168 expr 1-$f1;
#X obj 1031 191 sqrt;
#X obj 1020 72 r \$0-panlaw;
#X obj 1112 4 inlet~;
#X obj 1112 26 env~ 16384;
#X msg 1104 343 color \$1;
#X obj 1104 262 * 255;
#X obj 1104 282 i;
#X obj 1112 48 dbtorms;
#X obj 1104 303 * -65536;
#X obj 1104 323 - 1;
#X obj 1112 70 change;
#X obj 1104 199 * 6.28319;
#X obj 1104 157 * 0.25;
#X obj 1104 178 - 0.5;
#X obj 1112 91 list prepend 0;
#X obj 1112 111 list trim;
#X obj 1112 132 route 0 1;
#X obj 1104 220 expr -cos($f1);
#X obj 1204 165 expr 1-$f1;
#X obj 1204 188 sqrt;
#X obj 1193 69 r \$0-panlaw;
#X obj 1290 4 inlet~;
#X obj 1290 26 env~ 16384;
#X msg 1282 343 color \$1;
#X obj 1282 262 * 255;
#X obj 1282 282 i;
#X obj 1290 48 dbtorms;
#X obj 1282 303 * -65536;
#X obj 1282 323 - 1;
#X obj 1290 70 change;
#X obj 1282 199 * 6.28319;
#X obj 1282 157 * 0.25;
#X obj 1282 178 - 0.5;
#X obj 1290 91 list prepend 0;
#X obj 1290 111 list trim;
#X obj 1290 132 route 0 1;
#X obj 1282 220 expr -cos($f1);
#X obj 1382 165 expr 1-$f1;
#X obj 1382 188 sqrt;
#X obj 1371 69 r \$0-panlaw;
#X obj 223 369 s \$0-spcnv2r;
#X obj 406 370 s \$0-spcnv3r;
#X obj 575 367 s \$0-spcnv4r;
#X obj 755 366 s \$0-spcnv5r;
#X obj 931 368 s \$0-spcnv6r;
#X obj 1104 365 s \$0-spcnv7r;
#X obj 1282 365 s \$0-spcnv8r;
#X connect 0 0 1 0;
#X connect 1 0 5 0;
#X connect 2 0 24 0;
#X connect 3 0 4 0;
#X connect 4 0 6 0;
#X connect 5 0 8 0;
#X connect 6 0 7 0;
#X connect 7 0 2 0;
#X connect 8 0 17 0;
#X connect 9 0 13 0;
#X connect 10 0 11 0;
#X connect 11 0 12 0;
#X connect 13 0 12 0;
#X connect 14 0 20 0;
#X connect 15 0 16 0;
#X connect 16 0 14 0;
#X connect 17 0 18 0;
#X connect 18 0 19 0;
#X connect 19 0 15 0;
#X connect 19 1 21 0;
#X connect 20 0 3 0;
#X connect 21 0 22 0;
#X connect 22 0 3 0;
#X connect 23 0 17 1;
#X connect 25 0 26 0;
#X connect 26 0 30 0;
#X connect 27 0 158 0;
#X connect 28 0 29 0;
#X connect 29 0 31 0;
#X connect 30 0 33 0;
#X connect 31 0 32 0;
#X connect 32 0 27 0;
#X connect 33 0 37 0;
#X connect 34 0 40 0;
#X connect 35 0 36 0;
#X connect 36 0 34 0;
#X connect 37 0 38 0;
#X connect 38 0 39 0;
#X connect 39 0 35 0;
#X connect 39 1 41 0;
#X connect 40 0 28 0;
#X connect 41 0 42 0;
#X connect 42 0 28 0;
#X connect 43 0 37 1;
#X connect 44 0 45 0;
#X connect 45 0 49 0;
#X connect 46 0 159 0;
#X connect 47 0 48 0;
#X connect 48 0 50 0;
#X connect 49 0 52 0;
#X connect 50 0 51 0;
#X connect 51 0 46 0;
#X connect 52 0 56 0;
#X connect 53 0 59 0;
#X connect 54 0 55 0;
#X connect 55 0 53 0;
#X connect 56 0 57 0;
#X connect 57 0 58 0;
#X connect 58 0 54 0;
#X connect 58 1 60 0;
#X connect 59 0 47 0;
#X connect 60 0 61 0;
#X connect 61 0 47 0;
#X connect 62 0 56 1;
#X connect 63 0 64 0;
#X connect 64 0 68 0;
#X connect 65 0 160 0;
#X connect 66 0 67 0;
#X connect 67 0 69 0;
#X connect 68 0 71 0;
#X connect 69 0 70 0;
#X connect 70 0 65 0;
#X connect 71 0 75 0;
#X connect 72 0 78 0;
#X connect 73 0 74 0;
#X connect 74 0 72 0;
#X connect 75 0 76 0;
#X connect 76 0 77 0;
#X connect 77 0 73 0;
#X connect 77 1 79 0;
#X connect 78 0 66 0;
#X connect 79 0 80 0;
#X connect 80 0 66 0;
#X connect 81 0 75 1;
#X connect 82 0 83 0;
#X connect 83 0 87 0;
#X connect 84 0 161 0;
#X connect 85 0 86 0;
#X connect 86 0 88 0;
#X connect 87 0 90 0;
#X connect 88 0 89 0;
#X connect 89 0 84 0;
#X connect 90 0 94 0;
#X connect 91 0 97 0;
#X connect 92 0 93 0;
#X connect 93 0 91 0;
#X connect 94 0 95 0;
#X connect 95 0 96 0;
#X connect 96 0 92 0;
#X connect 96 1 98 0;
#X connect 97 0 85 0;
#X connect 98 0 99 0;
#X connect 99 0 85 0;
#X connect 100 0 94 1;
#X connect 101 0 102 0;
#X connect 102 0 106 0;
#X connect 103 0 162 0;
#X connect 104 0 105 0;
#X connect 105 0 107 0;
#X connect 106 0 109 0;
#X connect 107 0 108 0;
#X connect 108 0 103 0;
#X connect 109 0 113 0;
#X connect 110 0 116 0;
#X connect 111 0 112 0;
#X connect 112 0 110 0;
#X connect 113 0 114 0;
#X connect 114 0 115 0;
#X connect 115 0 111 0;
#X connect 115 1 117 0;
#X connect 116 0 104 0;
#X connect 117 0 118 0;
#X connect 118 0 104 0;
#X connect 119 0 113 1;
#X connect 120 0 121 0;
#X connect 121 0 125 0;
#X connect 122 0 163 0;
#X connect 123 0 124 0;
#X connect 124 0 126 0;
#X connect 125 0 128 0;
#X connect 126 0 127 0;
#X connect 127 0 122 0;
#X connect 128 0 132 0;
#X connect 129 0 135 0;
#X connect 130 0 131 0;
#X connect 131 0 129 0;
#X connect 132 0 133 0;
#X connect 133 0 134 0;
#X connect 134 0 130 0;
#X connect 134 1 136 0;
#X connect 135 0 123 0;
#X connect 136 0 137 0;
#X connect 137 0 123 0;
#X connect 138 0 132 1;
#X connect 139 0 140 0;
#X connect 140 0 144 0;
#X connect 141 0 164 0;
#X connect 142 0 143 0;
#X connect 143 0 145 0;
#X connect 144 0 147 0;
#X connect 145 0 146 0;
#X connect 146 0 141 0;
#X connect 147 0 151 0;
#X connect 148 0 154 0;
#X connect 149 0 150 0;
#X connect 150 0 148 0;
#X connect 151 0 152 0;
#X connect 152 0 153 0;
#X connect 153 0 149 0;
#X connect 153 1 155 0;
#X connect 154 0 142 0;
#X connect 155 0 156 0;
#X connect 156 0 142 0;
#X connect 157 0 151 1;
#X restore 741 269 pd gui-color~~~~~~~~~~~~~~~~~~;
#N canvas 0 49 1363 719 pythagoras~~~~~~~~~~~~~~~~~ 0;
#X obj 58 10 inlet~ x;
#X obj 145 9 inlet~ y;
#X obj 64 366 -~;
#X obj 64 388 *~;
#X obj 134 442 sqrt~;
#X obj 134 422 +~;
#X obj 151 363 -~;
#X obj 151 385 *~;
#X obj 132 569 outlet~;
#X text 172 453 normalize to 0 \, 1;
#X obj 335 364 -~;
#X obj 335 386 *~;
#X obj 405 440 sqrt~;
#X obj 405 420 +~;
#X obj 422 361 -~;
#X obj 422 383 *~;
#X obj 476 361 -~;
#X obj 476 383 *~;
#X obj 546 437 sqrt~;
#X obj 546 417 +~;
#X obj 563 358 -~;
#X obj 563 380 *~;
#X obj 634 358 -~;
#X obj 634 380 *~;
#X obj 704 434 sqrt~;
#X obj 704 414 +~;
#X obj 721 355 -~;
#X obj 721 377 *~;
#X obj 779 356 -~;
#X obj 779 378 *~;
#X obj 849 432 sqrt~;
#X obj 849 412 +~;
#X obj 866 353 -~;
#X obj 866 375 *~;
#X obj 920 353 -~;
#X obj 920 375 *~;
#X obj 990 429 sqrt~;
#X obj 990 409 +~;
#X obj 1007 350 -~;
#X obj 1007 372 *~;
#X obj 1078 350 -~;
#X obj 1078 372 *~;
#X obj 1148 426 sqrt~;
#X obj 1148 406 +~;
#X obj 1165 347 -~;
#X obj 1165 369 *~;
#X obj 1245 347 -~;
#X obj 1245 369 *~;
#X obj 1315 423 sqrt~;
#X obj 1315 403 +~;
#X obj 1332 344 -~;
#X obj 1332 366 *~;
#X obj 405 540 outlet~;
#X obj 546 539 outlet~;
#X obj 704 537 outlet~;
#X obj 849 536 outlet~;
#X obj 990 535 outlet~;
#X obj 1148 535 outlet~;
#X obj 1315 534 outlet~;
#X obj 133 513 *~;
#X obj 133 535 clip~ 0 1;
#X obj 1448 23 inlet~;
#X obj 1448 45 +~ 1;
#X obj 405 486 *~;
#X obj 405 508 clip~ 0 1;
#X obj 546 484 *~;
#X obj 546 506 clip~ 0 1;
#X obj 704 481 *~;
#X obj 704 503 clip~ 0 1;
#X obj 849 480 *~;
#X obj 849 502 clip~ 0 1;
#X obj 990 480 *~;
#X obj 990 502 clip~ 0 1;
#X obj 1148 480 *~;
#X obj 1148 502 clip~ 0 1;
#X obj 1315 481 *~;
#X obj 1315 503 clip~ 0 1;
#X obj 130 300 r \$0-speakerposition-1;
#X obj 130 322 unpack;
#X obj 330 328 unpack;
#X obj 330 306 r \$0-speakerposition-2;
#X obj 494 329 unpack;
#X obj 494 307 r \$0-speakerposition-3;
#X obj 658 328 unpack;
#X obj 658 306 r \$0-speakerposition-4;
#X obj 824 327 unpack;
#X obj 824 306 r \$0-speakerposition-5;
#X obj 985 327 unpack;
#X obj 985 306 r \$0-speakerposition-6;
#X obj 1144 305 unpack;
#X obj 1144 284 r \$0-speakerposition-7;
#X obj 1311 319 unpack;
#X obj 1311 298 r \$0-speakerposition-8;
#X floatatom 210 337 5 0 0 0 - - -;
#X floatatom 130 343 5 0 0 0 - - -;
#X obj 134 471 /~ 1.41421;
#X obj 406 464 /~ 1.41421;
#X obj 546 461 /~ 1.41421;
#X obj 705 457 /~ 1.41421;
#X obj 848 455 /~ 1.41421;
#X obj 991 452 /~ 1.41421;
#X obj 1149 450 /~ 1.41421;
#X obj 1316 452 /~ 1.41421;
#X connect 0 0 16 0;
#X connect 0 0 22 0;
#X connect 0 0 28 0;
#X connect 0 0 34 0;
#X connect 0 0 40 0;
#X connect 0 0 46 0;
#X connect 0 0 10 0;
#X connect 0 0 2 0;
#X connect 1 0 14 0;
#X connect 1 0 20 0;
#X connect 1 0 26 0;
#X connect 1 0 32 0;
#X connect 1 0 38 0;
#X connect 1 0 44 0;
#X connect 1 0 50 0;
#X connect 1 0 6 0;
#X connect 2 0 3 0;
#X connect 2 0 3 1;
#X connect 3 0 5 0;
#X connect 4 0 95 0;
#X connect 5 0 4 0;
#X connect 6 0 7 0;
#X connect 6 0 7 1;
#X connect 7 0 5 1;
#X connect 10 0 11 0;
#X connect 10 0 11 1;
#X connect 11 0 13 0;
#X connect 12 0 96 0;
#X connect 13 0 12 0;
#X connect 14 0 15 0;
#X connect 14 0 15 1;
#X connect 15 0 13 1;
#X connect 16 0 17 0;
#X connect 16 0 17 1;
#X connect 17 0 19 0;
#X connect 18 0 97 0;
#X connect 19 0 18 0;
#X connect 20 0 21 0;
#X connect 20 0 21 1;
#X connect 21 0 19 1;
#X connect 22 0 23 0;
#X connect 22 0 23 1;
#X connect 23 0 25 0;
#X connect 24 0 98 0;
#X connect 25 0 24 0;
#X connect 26 0 27 0;
#X connect 26 0 27 1;
#X connect 27 0 25 1;
#X connect 28 0 29 0;
#X connect 28 0 29 1;
#X connect 29 0 31 0;
#X connect 30 0 99 0;
#X connect 31 0 30 0;
#X connect 32 0 33 0;
#X connect 32 0 33 1;
#X connect 33 0 31 1;
#X connect 34 0 35 0;
#X connect 34 0 35 1;
#X connect 35 0 37 0;
#X connect 36 0 100 0;
#X connect 37 0 36 0;
#X connect 38 0 39 0;
#X connect 38 0 39 1;
#X connect 39 0 37 1;
#X connect 40 0 41 0;
#X connect 40 0 41 1;
#X connect 41 0 43 0;
#X connect 42 0 101 0;
#X connect 43 0 42 0;
#X connect 44 0 45 0;
#X connect 44 0 45 1;
#X connect 45 0 43 1;
#X connect 46 0 47 0;
#X connect 46 0 47 1;
#X connect 47 0 49 0;
#X connect 48 0 102 0;
#X connect 49 0 48 0;
#X connect 50 0 51 0;
#X connect 50 0 51 1;
#X connect 51 0 49 1;
#X connect 59 0 60 0;
#X connect 60 0 8 0;
#X connect 61 0 62 0;
#X connect 62 0 59 1;
#X connect 62 0 75 1;
#X connect 62 0 73 1;
#X connect 62 0 71 1;
#X connect 62 0 69 1;
#X connect 62 0 67 1;
#X connect 62 0 65 1;
#X connect 62 0 63 1;
#X connect 63 0 64 0;
#X connect 64 0 52 0;
#X connect 65 0 66 0;
#X connect 66 0 53 0;
#X connect 67 0 68 0;
#X connect 68 0 54 0;
#X connect 69 0 70 0;
#X connect 70 0 55 0;
#X connect 71 0 72 0;
#X connect 72 0 56 0;
#X connect 73 0 74 0;
#X connect 74 0 57 0;
#X connect 75 0 76 0;
#X connect 76 0 58 0;
#X connect 77 0 78 0;
#X connect 78 0 2 1;
#X connect 78 0 94 0;
#X connect 78 1 6 1;
#X connect 78 1 93 0;
#X connect 79 0 10 1;
#X connect 79 1 14 1;
#X connect 80 0 79 0;
#X connect 81 0 16 1;
#X connect 81 1 20 1;
#X connect 82 0 81 0;
#X connect 83 0 22 1;
#X connect 83 1 26 1;
#X connect 84 0 83 0;
#X connect 85 0 28 1;
#X connect 85 1 32 1;
#X connect 86 0 85 0;
#X connect 87 0 34 1;
#X connect 87 1 38 1;
#X connect 88 0 87 0;
#X connect 89 0 40 1;
#X connect 89 1 44 1;
#X connect 90 0 89 0;
#X connect 91 0 46 1;
#X connect 91 1 50 1;
#X connect 92 0 91 0;
#X connect 95 0 59 0;
#X connect 96 0 63 0;
#X connect 97 0 65 0;
#X connect 98 0 67 0;
#X connect 99 0 69 0;
#X connect 100 0 71 0;
#X connect 101 0 73 0;
#X connect 102 0 75 0;
#X restore 602 140 pd pythagoras~~~~~~~~~~~~~~~~~;
#N canvas 424 126 659 297 stuff 0;
#X obj 88 84 loadbang;
#X msg 88 106 0;
#X obj 88 128 s \$0-preset;
#N canvas 252 64 836 642 tocnv 0;
#X msg 111 242 pos \$1 \$2;
#X obj 111 221 pack;
#X obj 111 262 s \$0-spcnv1r;
#X obj 99 183 + 4;
#X obj 144 213 + 4;
#X obj 144 194 -;
#X obj 100 59 unpack;
#X obj 99 161 * 244;
#X obj 144 156 * 244;
#X msg 144 175 244 \$1;
#X obj 101 39 r \$0-cnvposition-1;
#X obj 262 40 r \$0-cnvposition-2;
#X obj 423 41 r \$0-cnvposition-3;
#X obj 584 40 r \$0-cnvposition-4;
#X obj 94 296 r \$0-cnvposition-5;
#X obj 254 297 r \$0-cnvposition-6;
#X obj 415 298 r \$0-cnvposition-7;
#X obj 576 300 r \$0-cnvposition-8;
#X obj 99 135 clip 0 1;
#X obj 160 125 clip 0 1;
#X obj 100 94 + 1;
#X obj 99 115 * 0.5;
#X obj 160 85 + 1;
#X obj 160 103 * 0.5;
#X msg 274 244 pos \$1 \$2;
#X obj 274 223 pack;
#X obj 262 185 + 4;
#X obj 307 215 + 4;
#X obj 307 196 -;
#X obj 263 61 unpack;
#X obj 262 163 * 244;
#X obj 307 158 * 244;
#X msg 307 177 244 \$1;
#X obj 262 137 clip 0 1;
#X obj 323 127 clip 0 1;
#X obj 263 96 + 1;
#X obj 262 117 * 0.5;
#X obj 323 87 + 1;
#X obj 323 105 * 0.5;
#X msg 434 245 pos \$1 \$2;
#X obj 434 224 pack;
#X obj 422 186 + 4;
#X obj 467 216 + 4;
#X obj 467 197 -;
#X obj 423 62 unpack;
#X obj 422 164 * 244;
#X obj 467 159 * 244;
#X msg 467 178 244 \$1;
#X obj 422 138 clip 0 1;
#X obj 483 128 clip 0 1;
#X obj 423 97 + 1;
#X obj 422 118 * 0.5;
#X obj 483 88 + 1;
#X obj 483 106 * 0.5;
#X msg 596 244 pos \$1 \$2;
#X obj 596 223 pack;
#X obj 584 185 + 4;
#X obj 629 215 + 4;
#X obj 629 196 -;
#X obj 585 61 unpack;
#X obj 584 163 * 244;
#X obj 629 158 * 244;
#X msg 629 177 244 \$1;
#X obj 584 137 clip 0 1;
#X obj 645 127 clip 0 1;
#X obj 585 96 + 1;
#X obj 584 117 * 0.5;
#X obj 645 87 + 1;
#X obj 645 105 * 0.5;
#X msg 106 502 pos \$1 \$2;
#X obj 106 481 pack;
#X obj 94 443 + 4;
#X obj 139 473 + 4;
#X obj 139 454 -;
#X obj 95 319 unpack;
#X obj 94 421 * 244;
#X obj 139 416 * 244;
#X msg 139 435 244 \$1;
#X obj 94 395 clip 0 1;
#X obj 155 385 clip 0 1;
#X obj 95 354 + 1;
#X obj 94 375 * 0.5;
#X obj 155 345 + 1;
#X obj 155 363 * 0.5;
#X msg 265 500 pos \$1 \$2;
#X obj 265 479 pack;
#X obj 253 441 + 4;
#X obj 298 471 + 4;
#X obj 298 452 -;
#X obj 254 317 unpack;
#X obj 253 419 * 244;
#X obj 298 414 * 244;
#X msg 298 433 244 \$1;
#X obj 253 393 clip 0 1;
#X obj 314 383 clip 0 1;
#X obj 254 352 + 1;
#X obj 253 373 * 0.5;
#X obj 314 343 + 1;
#X obj 314 361 * 0.5;
#X msg 426 501 pos \$1 \$2;
#X obj 426 480 pack;
#X obj 414 442 + 4;
#X obj 459 472 + 4;
#X obj 459 453 -;
#X obj 415 318 unpack;
#X obj 414 420 * 244;
#X obj 459 415 * 244;
#X msg 459 434 244 \$1;
#X obj 414 394 clip 0 1;
#X obj 475 384 clip 0 1;
#X obj 415 353 + 1;
#X obj 414 374 * 0.5;
#X obj 475 344 + 1;
#X obj 475 362 * 0.5;
#X msg 587 505 pos \$1 \$2;
#X obj 587 484 pack;
#X obj 575 446 + 4;
#X obj 620 476 + 4;
#X obj 620 457 -;
#X obj 576 322 unpack;
#X obj 575 424 * 244;
#X obj 620 419 * 244;
#X msg 620 438 244 \$1;
#X obj 575 398 clip 0 1;
#X obj 636 388 clip 0 1;
#X obj 576 357 + 1;
#X obj 575 378 * 0.5;
#X obj 636 348 + 1;
#X obj 636 366 * 0.5;
#X obj 274 264 s \$0-spcnv2r;
#X obj 434 265 s \$0-spcnv3r;
#X obj 596 264 s \$0-spcnv4r;
#X obj 106 522 s \$0-spcnv5r;
#X obj 265 520 s \$0-spcnv6r;
#X obj 426 521 s \$0-spcnv7r;
#X obj 587 525 s \$0-spcnv8r;
#X connect 0 0 2 0;
#X connect 1 0 0 0;
#X connect 3 0 1 0;
#X connect 4 0 1 1;
#X connect 5 0 4 0;
#X connect 6 0 20 0;
#X connect 6 1 22 0;
#X connect 7 0 3 0;
#X connect 8 0 9 0;
#X connect 9 0 5 0;
#X connect 10 0 6 0;
#X connect 11 0 29 0;
#X connect 12 0 44 0;
#X connect 13 0 59 0;
#X connect 14 0 74 0;
#X connect 15 0 89 0;
#X connect 16 0 104 0;
#X connect 17 0 119 0;
#X connect 18 0 7 0;
#X connect 19 0 8 0;
#X connect 20 0 21 0;
#X connect 21 0 18 0;
#X connect 22 0 23 0;
#X connect 23 0 19 0;
#X connect 24 0 129 0;
#X connect 25 0 24 0;
#X connect 26 0 25 0;
#X connect 27 0 25 1;
#X connect 28 0 27 0;
#X connect 29 0 35 0;
#X connect 29 1 37 0;
#X connect 30 0 26 0;
#X connect 31 0 32 0;
#X connect 32 0 28 0;
#X connect 33 0 30 0;
#X connect 34 0 31 0;
#X connect 35 0 36 0;
#X connect 36 0 33 0;
#X connect 37 0 38 0;
#X connect 38 0 34 0;
#X connect 39 0 130 0;
#X connect 40 0 39 0;
#X connect 41 0 40 0;
#X connect 42 0 40 1;
#X connect 43 0 42 0;
#X connect 44 0 50 0;
#X connect 44 1 52 0;
#X connect 45 0 41 0;
#X connect 46 0 47 0;
#X connect 47 0 43 0;
#X connect 48 0 45 0;
#X connect 49 0 46 0;
#X connect 50 0 51 0;
#X connect 51 0 48 0;
#X connect 52 0 53 0;
#X connect 53 0 49 0;
#X connect 54 0 131 0;
#X connect 55 0 54 0;
#X connect 56 0 55 0;
#X connect 57 0 55 1;
#X connect 58 0 57 0;
#X connect 59 0 65 0;
#X connect 59 1 67 0;
#X connect 60 0 56 0;
#X connect 61 0 62 0;
#X connect 62 0 58 0;
#X connect 63 0 60 0;
#X connect 64 0 61 0;
#X connect 65 0 66 0;
#X connect 66 0 63 0;
#X connect 67 0 68 0;
#X connect 68 0 64 0;
#X connect 69 0 132 0;
#X connect 70 0 69 0;
#X connect 71 0 70 0;
#X connect 72 0 70 1;
#X connect 73 0 72 0;
#X connect 74 0 80 0;
#X connect 74 1 82 0;
#X connect 75 0 71 0;
#X connect 76 0 77 0;
#X connect 77 0 73 0;
#X connect 78 0 75 0;
#X connect 79 0 76 0;
#X connect 80 0 81 0;
#X connect 81 0 78 0;
#X connect 82 0 83 0;
#X connect 83 0 79 0;
#X connect 84 0 133 0;
#X connect 85 0 84 0;
#X connect 86 0 85 0;
#X connect 87 0 85 1;
#X connect 88 0 87 0;
#X connect 89 0 95 0;
#X connect 89 1 97 0;
#X connect 90 0 86 0;
#X connect 91 0 92 0;
#X connect 92 0 88 0;
#X connect 93 0 90 0;
#X connect 94 0 91 0;
#X connect 95 0 96 0;
#X connect 96 0 93 0;
#X connect 97 0 98 0;
#X connect 98 0 94 0;
#X connect 99 0 134 0;
#X connect 100 0 99 0;
#X connect 101 0 100 0;
#X connect 102 0 100 1;
#X connect 103 0 102 0;
#X connect 104 0 110 0;
#X connect 104 1 112 0;
#X connect 105 0 101 0;
#X connect 106 0 107 0;
#X connect 107 0 103 0;
#X connect 108 0 105 0;
#X connect 109 0 106 0;
#X connect 110 0 111 0;
#X connect 111 0 108 0;
#X connect 112 0 113 0;
#X connect 113 0 109 0;
#X connect 114 0 135 0;
#X connect 115 0 114 0;
#X connect 116 0 115 0;
#X connect 117 0 115 1;
#X connect 118 0 117 0;
#X connect 119 0 125 0;
#X connect 119 1 127 0;
#X connect 120 0 116 0;
#X connect 121 0 122 0;
#X connect 122 0 118 0;
#X connect 123 0 120 0;
#X connect 124 0 121 0;
#X connect 125 0 126 0;
#X connect 126 0 123 0;
#X connect 127 0 128 0;
#X connect 128 0 124 0;
#X restore 84 220 pd tocnv;
#N canvas 379 133 740 585 fromcnv 0;
#X obj 35 27 r \$0-spcnv1;
#X obj 35 48 unpack;
#X obj 35 105 - 4;
#X obj 91 112 - 4;
#X obj 35 124 / 244;
#X obj 91 131 / 244;
#X msg 91 149 1 \$1;
#X obj 91 170 -;
#X obj 35 261 s \$0-speakerposition-1;
#X obj 35 241 pack;
#X obj 191 26 r \$0-spcnv2;
#X obj 337 26 r \$0-spcnv3;
#X obj 487 25 r \$0-spcnv4;
#X obj 36 305 r \$0-spcnv5;
#X obj 184 304 r \$0-spcnv6;
#X obj 336 299 r \$0-spcnv7;
#X obj 485 300 r \$0-spcnv8;
#X obj 35 193 clip 0 1;
#X obj 91 193 clip 0 1;
#X obj 91 212 t b f;
#X obj 190 49 unpack;
#X obj 190 106 - 4;
#X obj 246 113 - 4;
#X obj 190 125 / 244;
#X obj 246 132 / 244;
#X msg 246 150 1 \$1;
#X obj 246 171 -;
#X obj 190 242 pack;
#X obj 190 194 clip 0 1;
#X obj 246 194 clip 0 1;
#X obj 246 213 t b f;
#X obj 335 49 unpack;
#X obj 335 106 - 4;
#X obj 391 113 - 4;
#X obj 335 125 / 244;
#X obj 391 132 / 244;
#X msg 391 150 1 \$1;
#X obj 391 171 -;
#X obj 335 242 pack;
#X obj 335 194 clip 0 1;
#X obj 391 194 clip 0 1;
#X obj 391 213 t b f;
#X obj 488 47 unpack;
#X obj 488 104 - 4;
#X obj 544 111 - 4;
#X obj 488 123 / 244;
#X obj 544 130 / 244;
#X msg 544 148 1 \$1;
#X obj 544 169 -;
#X obj 488 240 pack;
#X obj 488 192 clip 0 1;
#X obj 544 192 clip 0 1;
#X obj 544 211 t b f;
#X obj 36 325 unpack;
#X obj 36 382 - 4;
#X obj 92 389 - 4;
#X obj 36 401 / 244;
#X obj 92 408 / 244;
#X msg 92 426 1 \$1;
#X obj 92 447 -;
#X obj 36 518 pack;
#X obj 36 470 clip 0 1;
#X obj 92 470 clip 0 1;
#X obj 92 489 t b f;
#X obj 184 324 unpack;
#X obj 184 381 - 4;
#X obj 240 388 - 4;
#X obj 184 400 / 244;
#X obj 240 407 / 244;
#X msg 240 425 1 \$1;
#X obj 240 446 -;
#X obj 184 517 pack;
#X obj 184 469 clip 0 1;
#X obj 240 469 clip 0 1;
#X obj 240 488 t b f;
#X obj 335 322 unpack;
#X obj 335 379 - 4;
#X obj 391 386 - 4;
#X obj 335 398 / 244;
#X obj 391 405 / 244;
#X msg 391 423 1 \$1;
#X obj 391 444 -;
#X obj 335 515 pack;
#X obj 335 467 clip 0 1;
#X obj 391 467 clip 0 1;
#X obj 391 486 t b f;
#X obj 486 321 unpack;
#X obj 486 378 - 4;
#X obj 542 385 - 4;
#X obj 486 397 / 244;
#X obj 542 404 / 244;
#X msg 542 422 1 \$1;
#X obj 542 443 -;
#X obj 486 514 pack;
#X obj 486 466 clip 0 1;
#X obj 542 466 clip 0 1;
#X obj 542 485 t b f;
#X obj 190 262 s \$0-speakerposition-2;
#X obj 335 262 s \$0-speakerposition-3;
#X obj 488 260 s \$0-speakerposition-4;
#X obj 36 538 s \$0-speakerposition-5;
#X obj 184 537 s \$0-speakerposition-6;
#X obj 335 535 s \$0-speakerposition-7;
#X obj 486 534 s \$0-speakerposition-8;
#X connect 0 0 1 0;
#X connect 1 0 2 0;
#X connect 1 1 3 0;
#X connect 2 0 4 0;
#X connect 3 0 5 0;
#X connect 4 0 17 0;
#X connect 5 0 6 0;
#X connect 6 0 7 0;
#X connect 7 0 18 0;
#X connect 9 0 8 0;
#X connect 10 0 20 0;
#X connect 11 0 31 0;
#X connect 12 0 42 0;
#X connect 13 0 53 0;
#X connect 14 0 64 0;
#X connect 15 0 75 0;
#X connect 16 0 86 0;
#X connect 17 0 9 0;
#X connect 18 0 19 0;
#X connect 19 0 9 0;
#X connect 19 1 9 1;
#X connect 20 0 21 0;
#X connect 20 1 22 0;
#X connect 21 0 23 0;
#X connect 22 0 24 0;
#X connect 23 0 28 0;
#X connect 24 0 25 0;
#X connect 25 0 26 0;
#X connect 26 0 29 0;
#X connect 27 0 97 0;
#X connect 28 0 27 0;
#X connect 29 0 30 0;
#X connect 30 0 27 0;
#X connect 30 1 27 1;
#X connect 31 0 32 0;
#X connect 31 1 33 0;
#X connect 32 0 34 0;
#X connect 33 0 35 0;
#X connect 34 0 39 0;
#X connect 35 0 36 0;
#X connect 36 0 37 0;
#X connect 37 0 40 0;
#X connect 38 0 98 0;
#X connect 39 0 38 0;
#X connect 40 0 41 0;
#X connect 41 0 38 0;
#X connect 41 1 38 1;
#X connect 42 0 43 0;
#X connect 42 1 44 0;
#X connect 43 0 45 0;
#X connect 44 0 46 0;
#X connect 45 0 50 0;
#X connect 46 0 47 0;
#X connect 47 0 48 0;
#X connect 48 0 51 0;
#X connect 49 0 99 0;
#X connect 50 0 49 0;
#X connect 51 0 52 0;
#X connect 52 0 49 0;
#X connect 52 1 49 1;
#X connect 53 0 54 0;
#X connect 53 1 55 0;
#X connect 54 0 56 0;
#X connect 55 0 57 0;
#X connect 56 0 61 0;
#X connect 57 0 58 0;
#X connect 58 0 59 0;
#X connect 59 0 62 0;
#X connect 60 0 100 0;
#X connect 61 0 60 0;
#X connect 62 0 63 0;
#X connect 63 0 60 0;
#X connect 63 1 60 1;
#X connect 64 0 65 0;
#X connect 64 1 66 0;
#X connect 65 0 67 0;
#X connect 66 0 68 0;
#X connect 67 0 72 0;
#X connect 68 0 69 0;
#X connect 69 0 70 0;
#X connect 70 0 73 0;
#X connect 71 0 101 0;
#X connect 72 0 71 0;
#X connect 73 0 74 0;
#X connect 74 0 71 0;
#X connect 74 1 71 1;
#X connect 75 0 76 0;
#X connect 75 1 77 0;
#X connect 76 0 78 0;
#X connect 77 0 79 0;
#X connect 78 0 83 0;
#X connect 79 0 80 0;
#X connect 80 0 81 0;
#X connect 81 0 84 0;
#X connect 82 0 102 0;
#X connect 83 0 82 0;
#X connect 84 0 85 0;
#X connect 85 0 82 0;
#X connect 85 1 82 1;
#X connect 86 0 87 0;
#X connect 86 1 88 0;
#X connect 87 0 89 0;
#X connect 88 0 90 0;
#X connect 89 0 94 0;
#X connect 90 0 91 0;
#X connect 91 0 92 0;
#X connect 92 0 95 0;
#X connect 93 0 103 0;
#X connect 94 0 93 0;
#X connect 95 0 96 0;
#X connect 96 0 93 0;
#X connect 96 1 93 1;
#X restore 84 200 pd fromcnv;
#N canvas 232 126 830 486 presets 0;
#X obj 74 102 * 6.28319;
#X obj 74 82 / 360;
#X obj 69 143 cos;
#X obj 106 144 sin;
#X text 53 151 x;
#X text 138 153 y;
#X text 117 78 speaker position in degrees;
#X obj 74 122 t f f;
#X obj 69 174 pack;
#X msg 115 61 90;
#X obj 92 36 sel 0 1;
#X obj 92 15 r \$0-preset;
#X obj 322 99 * 6.28319;
#X obj 322 79 / 360;
#X obj 317 140 cos;
#X obj 354 141 sin;
#X obj 322 119 t f f;
#X obj 316 171 pack;
#X obj 340 33 sel 0 1;
#X obj 340 12 r \$0-preset;
#X msg 363 58 45;
#X obj 483 99 * 6.28319;
#X obj 483 79 / 360;
#X obj 478 140 cos;
#X obj 515 141 sin;
#X obj 483 119 t f f;
#X obj 477 171 pack;
#X obj 501 33 sel 0 1;
#X obj 501 12 r \$0-preset;
#X msg 524 58 360;
#X obj 643 98 * 6.28319;
#X obj 643 78 / 360;
#X obj 638 139 cos;
#X obj 675 140 sin;
#X obj 643 118 t f f;
#X obj 637 170 pack;
#X obj 661 32 sel 0 1;
#X obj 661 11 r \$0-preset;
#X msg 684 57 315;
#X obj 72 326 * 6.28319;
#X obj 72 306 / 360;
#X obj 67 367 cos;
#X obj 104 368 sin;
#X obj 72 346 t f f;
#X obj 67 390 pack;
#X obj 90 260 sel 0 1;
#X obj 90 239 r \$0-preset;
#X msg 113 285 270;
#X obj 297 325 * 6.28319;
#X obj 297 305 / 360;
#X obj 292 366 cos;
#X obj 329 367 sin;
#X obj 297 345 t f f;
#X obj 293 395 pack;
#X obj 315 259 sel 0 1;
#X obj 315 238 r \$0-preset;
#X msg 338 284 225;
#X obj 459 324 * 6.28319;
#X obj 459 304 / 360;
#X obj 454 365 cos;
#X obj 491 366 sin;
#X obj 459 344 t f f;
#X obj 455 392 pack;
#X obj 477 258 sel 0 1;
#X obj 477 237 r \$0-preset;
#X msg 500 283 180;
#X obj 624 325 * 6.28319;
#X obj 624 305 / 360;
#X obj 619 366 cos;
#X obj 656 367 sin;
#X obj 624 345 t f f;
#X obj 620 392 pack;
#X obj 642 259 sel 0 1;
#X obj 642 238 r \$0-preset;
#X msg 665 284 135;
#X msg 323 59 65;
#X msg 74 62 115;
#X msg 483 55 155;
#X msg 643 55 25;
#X msg 624 283 295;
#X msg 459 279 245;
#X msg 72 283 205;
#X msg 297 282 335;
#X obj 69 195 s \$0-cnvposition-1;
#X obj 316 192 s \$0-cnvposition-2;
#X obj 477 192 s \$0-cnvposition-3;
#X obj 637 191 s \$0-cnvposition-4;
#X obj 68 411 s \$0-cnvposition-5;
#X obj 294 417 s \$0-cnvposition-6;
#X obj 456 414 s \$0-cnvposition-7;
#X obj 621 414 s \$0-cnvposition-8;
#X connect 0 0 7 0;
#X connect 1 0 0 0;
#X connect 2 0 8 0;
#X connect 3 0 8 1;
#X connect 7 0 2 0;
#X connect 7 1 3 0;
#X connect 8 0 83 0;
#X connect 9 0 1 0;
#X connect 10 0 76 0;
#X connect 10 1 9 0;
#X connect 11 0 10 0;
#X connect 12 0 16 0;
#X connect 13 0 12 0;
#X connect 14 0 17 0;
#X connect 15 0 17 1;
#X connect 16 0 14 0;
#X connect 16 1 15 0;
#X connect 17 0 84 0;
#X connect 18 0 75 0;
#X connect 18 1 20 0;
#X connect 19 0 18 0;
#X connect 20 0 13 0;
#X connect 21 0 25 0;
#X connect 22 0 21 0;
#X connect 23 0 26 0;
#X connect 24 0 26 1;
#X connect 25 0 23 0;
#X connect 25 1 24 0;
#X connect 26 0 85 0;
#X connect 27 0 77 0;
#X connect 27 1 29 0;
#X connect 28 0 27 0;
#X connect 29 0 22 0;
#X connect 30 0 34 0;
#X connect 31 0 30 0;
#X connect 32 0 35 0;
#X connect 33 0 35 1;
#X connect 34 0 32 0;
#X connect 34 1 33 0;
#X connect 35 0 86 0;
#X connect 36 0 78 0;
#X connect 36 1 38 0;
#X connect 37 0 36 0;
#X connect 38 0 31 0;
#X connect 39 0 43 0;
#X connect 40 0 39 0;
#X connect 41 0 44 0;
#X connect 42 0 44 1;
#X connect 43 0 41 0;
#X connect 43 1 42 0;
#X connect 44 0 87 0;
#X connect 45 0 81 0;
#X connect 45 1 47 0;
#X connect 46 0 45 0;
#X connect 47 0 40 0;
#X connect 48 0 52 0;
#X connect 49 0 48 0;
#X connect 50 0 53 0;
#X connect 51 0 53 1;
#X connect 52 0 50 0;
#X connect 52 1 51 0;
#X connect 53 0 88 0;
#X connect 54 0 82 0;
#X connect 54 1 56 0;
#X connect 55 0 54 0;
#X connect 56 0 49 0;
#X connect 57 0 61 0;
#X connect 58 0 57 0;
#X connect 59 0 62 0;
#X connect 60 0 62 1;
#X connect 61 0 59 0;
#X connect 61 1 60 0;
#X connect 62 0 89 0;
#X connect 63 0 80 0;
#X connect 63 1 65 0;
#X connect 64 0 63 0;
#X connect 65 0 58 0;
#X connect 66 0 70 0;
#X connect 67 0 66 0;
#X connect 68 0 71 0;
#X connect 69 0 71 1;
#X connect 70 0 68 0;
#X connect 70 1 69 0;
#X connect 71 0 90 0;
#X connect 72 0 79 0;
#X connect 72 1 74 0;
#X connect 73 0 72 0;
#X connect 74 0 67 0;
#X connect 75 0 13 0;
#X connect 76 0 1 0;
#X connect 77 0 22 0;
#X connect 78 0 31 0;
#X connect 79 0 67 0;
#X connect 80 0 58 0;
#X connect 81 0 40 0;
#X connect 82 0 49 0;
#X restore 84 178 pd presets;
#X obj 213 92 tgl 15 0 empty empty empty 17 7 0 10 -262144 -1 -1 1
1;
#X obj 212 132 f \$0;
#X msg 212 153 \; \$1-spcnv1r get_pos \; \$1-spcnv2r get_pos \; \$1-spcnv3r
get_pos \; \$1-spcnv4r get_pos \; \$1-spcnv5r get_pos \; \$1-spcnv6r
get_pos \; \$1-spcnv7r get_pos \; \$1-spcnv8r get_pos \;;
#X obj 213 71 loadbang;
#X msg 123 106 1;
#X obj 460 169 s \$0-visbngr;
#X obj 442 64 r \$0-visbng;
#X msg 440 141 color 0 0;
#X msg 524 141 color 10 10;
#X obj 442 86 t b;
#X obj 522 116 del 250;
#X obj 406 218 s pd-\$0-spat8;
#X msg 406 196 relocate 272x272+1+1 1x1+50+50 \, vis 1;
#X obj 212 113 metro 500;
#X connect 0 0 1 0;
#X connect 1 0 2 0;
#X connect 6 0 19 0;
#X connect 7 0 8 0;
#X connect 9 0 6 0;
#X connect 10 0 2 0;
#X connect 12 0 15 0;
#X connect 13 0 11 0;
#X connect 14 0 11 0;
#X connect 15 0 13 0;
#X connect 15 0 16 0;
#X connect 15 0 18 0;
#X connect 16 0 14 0;
#X connect 18 0 17 0;
#X connect 19 0 7 0;
#X restore 922 140 pd stuff;
#X obj 922 434 outlet;
#N canvas 129 81 781 614 outlet-message 0;
#N canvas 138 320 986 300 bang_once.......................................
0;
#X obj 174 34 t b f;
#X obj 132 34 t b f;
#X obj 89 173 del 0;
#X obj 89 34 t b f;
#X obj 217 34 t b f;
#X obj 89 -12 inlet;
#X obj 132 -13 inlet;
#X obj 174 -13 inlet;
#X obj 217 -13 inlet;
#X obj 261 -12 inlet;
#X obj 88 268 outlet;
#X obj 88 194 f;
#X obj 261 34 t b f;
#X obj 389 34 t b f;
#X obj 347 34 t b f;
#X obj 304 34 t b f;
#X obj 432 34 t b f;
#X obj 304 -12 inlet;
#X obj 347 -13 inlet;
#X obj 389 -13 inlet;
#X obj 432 -13 inlet;
#X obj 476 -12 inlet;
#X obj 476 34 t b f;
#X obj 517 -12 inlet;
#X obj 517 34 t b f;
#X obj 645 34 t b f;
#X obj 603 34 t b f;
#X obj 560 34 t b f;
#X obj 688 34 t b f;
#X obj 560 -12 inlet;
#X obj 603 -13 inlet;
#X obj 645 -13 inlet;
#X obj 688 -13 inlet;
#X obj 732 -13 inlet;
#X obj 732 34 t b f;
#X obj 770 -12 inlet;
#X obj 88 225 pack 0 0 0 0 0 0 0 0 0 0 0 0 0 0 0 0 s;
#X obj 770 36 t b s;
#X connect 0 0 2 0;
#X connect 0 1 36 2;
#X connect 1 0 2 0;
#X connect 1 1 36 1;
#X connect 2 0 11 0;
#X connect 3 0 2 0;
#X connect 3 1 11 1;
#X connect 4 0 2 0;
#X connect 4 1 36 3;
#X connect 5 0 3 0;
#X connect 6 0 1 0;
#X connect 7 0 0 0;
#X connect 8 0 4 0;
#X connect 9 0 12 0;
#X connect 11 0 36 0;
#X connect 12 0 2 0;
#X connect 12 1 36 4;
#X connect 13 0 2 0;
#X connect 13 1 36 7;
#X connect 14 0 2 0;
#X connect 14 1 36 6;
#X connect 15 0 2 0;
#X connect 15 1 36 5;
#X connect 16 0 2 0;
#X connect 16 1 36 8;
#X connect 17 0 15 0;
#X connect 18 0 14 0;
#X connect 19 0 13 0;
#X connect 20 0 16 0;
#X connect 21 0 22 0;
#X connect 22 0 2 0;
#X connect 22 1 36 9;
#X connect 23 0 24 0;
#X connect 24 0 2 0;
#X connect 24 1 36 10;
#X connect 25 0 2 0;
#X connect 25 1 36 13;
#X connect 26 0 2 0;
#X connect 26 1 36 12;
#X connect 27 0 2 0;
#X connect 27 1 36 11;
#X connect 28 0 2 0;
#X connect 28 1 36 14;
#X connect 29 0 27 0;
#X connect 30 0 26 0;
#X connect 31 0 25 0;
#X connect 32 0 28 0;
#X connect 33 0 34 0;
#X connect 34 0 2 0;
#X connect 34 1 36 15;
#X connect 35 0 37 0;
#X connect 36 0 10 0;
#X connect 37 0 2 0;
#X connect 37 1 36 16;
#X restore 249 282 pd bang_once.......................................
;
#X obj 317 509 list trim;
#X msg 236 465 addcomma;
#X msg 172 438 set;
#X obj 317 486 list prepend add2;
#X obj 316 545 outlet;
#X obj 56 7 r \$0-speakerposition-1;
#X obj 56 28 unpack;
#X obj 89 49 * 2;
#X obj 89 70 - 1;
#X obj 56 48 * 2;
#X obj 56 69 - 1;
#X obj 122 49 unpack;
#X obj 155 70 * 2;
#X obj 155 91 - 1;
#X obj 122 69 * 2;
#X obj 122 90 - 1;
#X obj 190 70 unpack;
#X obj 223 91 * 2;
#X obj 223 112 - 1;
#X obj 190 90 * 2;
#X obj 190 111 - 1;
#X obj 260 93 unpack;
#X obj 293 114 * 2;
#X obj 293 135 - 1;
#X obj 260 113 * 2;
#X obj 260 134 - 1;
#X obj 326 114 unpack;
#X obj 359 135 * 2;
#X obj 359 156 - 1;
#X obj 326 134 * 2;
#X obj 326 155 - 1;
#X obj 394 135 unpack;
#X obj 427 156 * 2;
#X obj 427 177 - 1;
#X obj 394 155 * 2;
#X obj 394 176 - 1;
#X obj 462 157 unpack;
#X obj 495 178 * 2;
#X obj 495 199 - 1;
#X obj 462 177 * 2;
#X obj 462 198 - 1;
#X obj 530 178 unpack;
#X obj 563 199 * 2;
#X obj 563 220 - 1;
#X obj 530 198 * 2;
#X obj 530 219 - 1;
#X obj 122 28 r \$0-speakerposition-2;
#X obj 190 49 r \$0-speakerposition-3;
#X obj 260 72 r \$0-speakerposition-4;
#X obj 326 93 r \$0-speakerposition-5;
#X obj 394 114 r \$0-speakerposition-6;
#X obj 462 136 r \$0-speakerposition-7;
#X obj 530 157 r \$0-speakerposition-8;
#X msg 270 359 speaker-1 \$1 \$2 \, speaker-2 \$3 \$4 \, speaker-3
\$5 \$6 \, speaker-4 \$7 \$8 \, speaker-5 \$9 \$10 \, speaker-6 \$11
\$12 \, speaker-7 \$13 \$14 \, speaker-8 \$15 \$16 \, \$17;
#X obj 608 194 r \$0-panlaw;
#X obj 608 217 sel 0 1;
#X msg 608 242 cos;
#X msg 638 242 sqrt;
#X obj 608 266 symbol;
#X obj 248 302 t b a b;
#X obj 270 420 t b a a;
#N canvas 1009 187 450 300 save 0;
#X obj 108 107 inlet;
#X obj 129 217 list;
#X obj 129 264 list trim;
#X obj 129 286 s \$0-lists;
#X obj 128 319 r \$0-lists;
#X obj 129 242 list prepend;
#N canvas 531 82 335 384 collect 0;
#X obj 138 70 inlet;
#X obj 138 284 outlet;
#X obj 189 190 list;
#X obj 257 191 t l;
#X obj 138 235 list;
#X obj 189 149 list append |;
#X obj 138 136 del 0;
#X obj 138 92 t b a;
#X connect 0 0 7 0;
#X connect 2 0 3 0;
#X connect 2 0 4 1;
#X connect 3 0 2 1;
#X connect 4 0 1 0;
#X connect 5 0 2 0;
#X connect 6 0 2 1;
#X connect 6 0 4 0;
#X connect 7 0 6 0;
#X connect 7 1 5 0;
#X restore 108 129 pd collect;
#X obj 195 101 r \$0-save;
#X obj 195 123 t b f;
#N canvas 68 198 1432 552 savestates 0;
#X obj 767 137 inlet;
#X obj 26 422 savestate;
#X obj 26 398 list;
#X obj 91 422 savestate;
#X obj 91 398 list;
#X obj 157 422 savestate;
#X obj 157 398 list;
#X obj 220 420 savestate;
#X obj 220 396 list;
#X obj 283 419 savestate;
#X obj 283 395 list;
#X obj 345 418 savestate;
#X obj 345 394 list;
#X obj 409 418 savestate;
#X obj 409 394 list;
#X obj 472 421 savestate;
#X obj 472 397 list;
#X obj 537 421 savestate;
#X obj 537 397 list;
#X obj 603 421 savestate;
#X obj 603 397 list;
#X obj 666 419 savestate;
#X obj 666 395 list;
#X obj 729 418 savestate;
#X obj 729 394 list;
#X obj 791 417 savestate;
#X obj 791 393 list;
#X obj 855 417 savestate;
#X obj 855 393 list;
#X obj 922 418 savestate;
#X obj 922 394 list;
#X obj 988 418 savestate;
#X obj 988 394 list;
#X obj 1051 416 savestate;
#X obj 1051 392 list;
#X obj 1114 415 savestate;
#X obj 1114 391 list;
#X obj 1176 414 savestate;
#X obj 1176 390 list;
#X obj 1240 414 savestate;
#X obj 1240 390 list;
#X obj 767 166 route 0 1 2 3 4 5 6 7 8 9 10 11 12 13 14 15 16 17 18
19 20;
#X obj 1304 412 savestate;
#X obj 1304 388 list;
#X obj 201 64 savestate;
#X obj 201 87 t a b;
#X obj 300 119 + 1;
#X obj 201 137 list prepend;
#X obj 201 160 list trim;
#X obj 201 183 route 0 1 2 3 4 5 6 7 8 9 10 11 12 13 14 15 16 17 18
19 20;
#X obj 270 115 f;
#X connect 0 0 41 0;
#X connect 1 1 2 0;
#X connect 2 0 1 0;
#X connect 3 1 4 0;
#X connect 4 0 3 0;
#X connect 5 1 6 0;
#X connect 6 0 5 0;
#X connect 7 1 8 0;
#X connect 8 0 7 0;
#X connect 9 1 10 0;
#X connect 10 0 9 0;
#X connect 11 1 12 0;
#X connect 12 0 11 0;
#X connect 13 1 14 0;
#X connect 14 0 13 0;
#X connect 15 1 16 0;
#X connect 16 0 15 0;
#X connect 17 1 18 0;
#X connect 18 0 17 0;
#X connect 19 1 20 0;
#X connect 20 0 19 0;
#X connect 21 1 22 0;
#X connect 22 0 21 0;
#X connect 23 1 24 0;
#X connect 24 0 23 0;
#X connect 25 1 26 0;
#X connect 26 0 25 0;
#X connect 27 1 28 0;
#X connect 28 0 27 0;
#X connect 29 1 30 0;
#X connect 30 0 29 0;
#X connect 31 1 32 0;
#X connect 32 0 31 0;
#X connect 33 1 34 0;
#X connect 34 0 33 0;
#X connect 35 1 36 0;
#X connect 36 0 35 0;
#X connect 37 1 38 0;
#X connect 38 0 37 0;
#X connect 39 1 40 0;
#X connect 40 0 39 0;
#X connect 41 0 2 1;
#X connect 41 1 4 1;
#X connect 41 2 6 1;
#X connect 41 3 8 1;
#X connect 41 4 10 1;
#X connect 41 5 12 1;
#X connect 41 6 14 1;
#X connect 41 7 16 1;
#X connect 41 8 18 1;
#X connect 41 9 20 1;
#X connect 41 10 22 1;
#X connect 41 11 24 1;
#X connect 41 12 26 1;
#X connect 41 13 28 1;
#X connect 41 14 30 1;
#X connect 41 15 32 1;
#X connect 41 16 34 1;
#X connect 41 17 36 1;
#X connect 41 18 38 1;
#X connect 41 19 40 1;
#X connect 41 20 43 1;
#X connect 42 1 43 0;
#X connect 43 0 42 0;
#X connect 44 0 45 0;
#X connect 45 0 47 0;
#X connect 45 1 50 0;
#X connect 46 0 50 1;
#X connect 47 0 48 0;
#X connect 48 0 49 0;
#X connect 49 0 2 1;
#X connect 49 1 4 1;
#X connect 49 2 6 1;
#X connect 49 3 8 1;
#X connect 49 4 10 1;
#X connect 49 5 12 1;
#X connect 49 6 14 1;
#X connect 49 7 16 1;
#X connect 49 8 18 1;
#X connect 49 9 20 1;
#X connect 49 10 22 1;
#X connect 49 11 24 1;
#X connect 49 12 26 1;
#X connect 49 13 28 1;
#X connect 49 14 30 1;
#X connect 49 15 32 1;
#X connect 49 16 34 1;
#X connect 49 17 36 1;
#X connect 49 18 38 1;
#X connect 49 19 40 1;
#X connect 49 20 43 1;
#X connect 50 0 46 0;
#X connect 50 0 47 1;
#X restore 128 341 pd savestates;
#X connect 0 0 6 0;
#X connect 1 0 5 0;
#X connect 2 0 3 0;
#X connect 4 0 9 0;
#X connect 5 0 2 0;
#X connect 6 0 1 1;
#X connect 7 0 8 0;
#X connect 8 0 1 0;
#X connect 8 1 5 1;
#X restore 331 454 pd save;
#X connect 0 0 60 0;
#X connect 1 0 5 0;
#X connect 2 0 5 0;
#X connect 3 0 5 0;
#X connect 4 0 1 0;
#X connect 6 0 7 0;
#X connect 7 0 10 0;
#X connect 7 1 8 0;
#X connect 8 0 9 0;
#X connect 9 0 0 1;
#X connect 10 0 11 0;
#X connect 11 0 0 0;
#X connect 12 0 15 0;
#X connect 12 1 13 0;
#X connect 13 0 14 0;
#X connect 14 0 0 3;
#X connect 15 0 16 0;
#X connect 16 0 0 2;
#X connect 17 0 20 0;
#X connect 17 1 18 0;
#X connect 18 0 19 0;
#X connect 19 0 0 5;
#X connect 20 0 21 0;
#X connect 21 0 0 4;
#X connect 22 0 25 0;
#X connect 22 1 23 0;
#X connect 23 0 24 0;
#X connect 24 0 0 7;
#X connect 25 0 26 0;
#X connect 26 0 0 6;
#X connect 27 0 30 0;
#X connect 27 1 28 0;
#X connect 28 0 29 0;
#X connect 29 0 0 9;
#X connect 30 0 31 0;
#X connect 31 0 0 8;
#X connect 32 0 35 0;
#X connect 32 1 33 0;
#X connect 33 0 34 0;
#X connect 34 0 0 11;
#X connect 35 0 36 0;
#X connect 36 0 0 10;
#X connect 37 0 40 0;
#X connect 37 1 38 0;
#X connect 38 0 39 0;
#X connect 39 0 0 13;
#X connect 40 0 41 0;
#X connect 41 0 0 12;
#X connect 42 0 45 0;
#X connect 42 1 43 0;
#X connect 43 0 44 0;
#X connect 44 0 0 15;
#X connect 45 0 46 0;
#X connect 46 0 0 14;
#X connect 47 0 12 0;
#X connect 48 0 17 0;
#X connect 49 0 22 0;
#X connect 50 0 27 0;
#X connect 51 0 32 0;
#X connect 52 0 37 0;
#X connect 53 0 42 0;
#X connect 54 0 61 0;
#X connect 55 0 56 0;
#X connect 56 0 57 0;
#X connect 56 1 58 0;
#X connect 57 0 59 0;
#X connect 58 0 59 0;
#X connect 59 0 0 16;
#X connect 60 0 5 0;
#X connect 60 1 54 0;
#X connect 60 2 3 0;
#X connect 61 0 2 0;
#X connect 61 1 4 0;
#X connect 61 2 62 0;
#X restore 922 403 pd outlet-message;
#X obj 273 73 inlet~ src;
#X obj 103 115 hsl 150 15 0 127 0 0 \$0-visbng \$0-visbngr empty 50
8 2 10 -233017 -233017 -1 0 1;
#X obj 778 96 *~ 0.5;
#X obj 778 117 +~ 0.5;
#X obj 777 76 *~ -1;
#X text 948 476 philipp schmalfuß \, 2018;
#N canvas 3 52 376 342 amp 0;
#X obj 91 298 outlet~;
#X obj 91 264 *~;
#X obj 92 10 inlet~ sig;
#X obj 245 7 inlet~ angle;
#N canvas 417 176 450 300 cos 0;
#X obj 79 69 inlet~;
#X obj 78 134 cos~;
#X obj 78 92 *~ 0.25;
#X obj 78 114 -~ 0.5;
#X obj 77 157 *~ -1;
#X obj 77 180 outlet~;
#X obj 174 72 r \$0-panlaw;
#X obj 174 95 == 0;
#X obj 174 118 switch~;
#X obj 256 79 loadbang;
#X msg 256 102 1;
#X connect 0 0 2 0;
#X connect 1 0 4 0;
#X connect 2 0 3 0;
#X connect 3 0 1 0;
#X connect 4 0 5 0;
#X connect 6 0 7 0;
#X connect 7 0 8 0;
#X connect 9 0 10 0;
#X connect 10 0 8 0;
#X restore 107 182 pd cos;
#N canvas 232 247 290 199 sqrt 0;
#X obj 45 21 inlet~;
#X obj 30 154 outlet~;
#X obj 31 109 sqrt~;
#X obj 30 60 sig~ 1;
#X obj 30 83 -~;
#X obj 103 45 r \$0-panlaw;
#X obj 103 91 switch~;
#X obj 185 52 loadbang;
#X obj 103 68 != 0;
#X msg 185 75 0;
#X connect 0 0 4 1;
#X connect 2 0 1 0;
#X connect 3 0 4 0;
#X connect 4 0 2 0;
#X connect 5 0 8 0;
#X connect 7 0 9 0;
#X connect 8 0 6 0;
#X connect 9 0 6 0;
#X restore 243 179 pd sqrt;
#X connect 1 0 0 0;
#X connect 2 0 1 0;
#X connect 3 0 4 0;
#X connect 3 0 5 0;
#X connect 4 0 1 1;
#X connect 5 0 1 1;
#X restore 331 273 pd amp;
#N canvas 3 52 376 342 amp 0;
#X obj 91 298 outlet~;
#X obj 91 264 *~;
#X obj 92 10 inlet~ sig;
#X obj 245 7 inlet~ angle;
#N canvas 417 176 450 300 cos 0;
#X obj 79 69 inlet~;
#X obj 78 134 cos~;
#X obj 78 92 *~ 0.25;
#X obj 78 114 -~ 0.5;
#X obj 77 157 *~ -1;
#X obj 77 180 outlet~;
#X obj 174 72 r \$0-panlaw;
#X obj 174 95 == 0;
#X obj 174 118 switch~;
#X obj 256 79 loadbang;
#X msg 256 102 1;
#X connect 0 0 2 0;
#X connect 1 0 4 0;
#X connect 2 0 3 0;
#X connect 3 0 1 0;
#X connect 4 0 5 0;
#X connect 6 0 7 0;
#X connect 7 0 8 0;
#X connect 9 0 10 0;
#X connect 10 0 8 0;
#X restore 107 182 pd cos;
#N canvas 232 247 290 199 sqrt 0;
#X obj 45 21 inlet~;
#X obj 30 154 outlet~;
#X obj 31 109 sqrt~;
#X obj 30 60 sig~ 1;
#X obj 30 83 -~;
#X obj 103 45 r \$0-panlaw;
#X obj 103 91 switch~;
#X obj 185 52 loadbang;
#X obj 103 68 != 0;
#X msg 185 75 0;
#X connect 0 0 4 1;
#X connect 2 0 1 0;
#X connect 3 0 4 0;
#X connect 4 0 2 0;
#X connect 5 0 8 0;
#X connect 7 0 9 0;
#X connect 8 0 6 0;
#X connect 9 0 6 0;
#X restore 243 179 pd sqrt;
#X connect 1 0 0 0;
#X connect 2 0 1 0;
#X connect 3 0 4 0;
#X connect 3 0 5 0;
#X connect 4 0 1 1;
#X connect 5 0 1 1;
#X restore 391 272 pd amp;
#N canvas 3 52 376 342 amp 0;
#X obj 91 298 outlet~;
#X obj 91 264 *~;
#X obj 92 10 inlet~ sig;
#X obj 245 7 inlet~ angle;
#N canvas 417 176 450 300 cos 0;
#X obj 79 69 inlet~;
#X obj 78 134 cos~;
#X obj 78 92 *~ 0.25;
#X obj 78 114 -~ 0.5;
#X obj 77 157 *~ -1;
#X obj 77 180 outlet~;
#X obj 174 72 r \$0-panlaw;
#X obj 174 95 == 0;
#X obj 174 118 switch~;
#X obj 256 79 loadbang;
#X msg 256 102 1;
#X connect 0 0 2 0;
#X connect 1 0 4 0;
#X connect 2 0 3 0;
#X connect 3 0 1 0;
#X connect 4 0 5 0;
#X connect 6 0 7 0;
#X connect 7 0 8 0;
#X connect 9 0 10 0;
#X connect 10 0 8 0;
#X restore 107 182 pd cos;
#N canvas 232 247 290 199 sqrt 0;
#X obj 45 21 inlet~;
#X obj 30 154 outlet~;
#X obj 31 109 sqrt~;
#X obj 30 60 sig~ 1;
#X obj 30 83 -~;
#X obj 103 45 r \$0-panlaw;
#X obj 103 91 switch~;
#X obj 185 52 loadbang;
#X obj 103 68 != 0;
#X msg 185 75 0;
#X connect 0 0 4 1;
#X connect 2 0 1 0;
#X connect 3 0 4 0;
#X connect 4 0 2 0;
#X connect 5 0 8 0;
#X connect 7 0 9 0;
#X connect 8 0 6 0;
#X connect 9 0 6 0;
#X restore 243 179 pd sqrt;
#X connect 1 0 0 0;
#X connect 2 0 1 0;
#X connect 3 0 4 0;
#X connect 3 0 5 0;
#X connect 4 0 1 1;
#X connect 5 0 1 1;
#X restore 448 271 pd amp;
#N canvas 3 52 376 342 amp 0;
#X obj 91 298 outlet~;
#X obj 91 264 *~;
#X obj 92 10 inlet~ sig;
#X obj 245 7 inlet~ angle;
#N canvas 417 176 450 300 cos 0;
#X obj 79 69 inlet~;
#X obj 78 134 cos~;
#X obj 78 92 *~ 0.25;
#X obj 78 114 -~ 0.5;
#X obj 77 157 *~ -1;
#X obj 77 180 outlet~;
#X obj 174 72 r \$0-panlaw;
#X obj 174 95 == 0;
#X obj 174 118 switch~;
#X obj 256 79 loadbang;
#X msg 256 102 1;
#X connect 0 0 2 0;
#X connect 1 0 4 0;
#X connect 2 0 3 0;
#X connect 3 0 1 0;
#X connect 4 0 5 0;
#X connect 6 0 7 0;
#X connect 7 0 8 0;
#X connect 9 0 10 0;
#X connect 10 0 8 0;
#X restore 107 182 pd cos;
#N canvas 232 247 290 199 sqrt 0;
#X obj 45 21 inlet~;
#X obj 30 154 outlet~;
#X obj 31 109 sqrt~;
#X obj 30 60 sig~ 1;
#X obj 30 83 -~;
#X obj 103 45 r \$0-panlaw;
#X obj 103 91 switch~;
#X obj 185 52 loadbang;
#X obj 103 68 != 0;
#X msg 185 75 0;
#X connect 0 0 4 1;
#X connect 2 0 1 0;
#X connect 3 0 4 0;
#X connect 4 0 2 0;
#X connect 5 0 8 0;
#X connect 7 0 9 0;
#X connect 8 0 6 0;
#X connect 9 0 6 0;
#X restore 243 179 pd sqrt;
#X connect 1 0 0 0;
#X connect 2 0 1 0;
#X connect 3 0 4 0;
#X connect 3 0 5 0;
#X connect 4 0 1 1;
#X connect 5 0 1 1;
#X restore 508 270 pd amp;
#N canvas 3 52 376 342 amp 0;
#X obj 91 298 outlet~;
#X obj 91 264 *~;
#X obj 92 10 inlet~ sig;
#X obj 245 7 inlet~ angle;
#N canvas 417 176 450 300 cos 0;
#X obj 79 69 inlet~;
#X obj 78 134 cos~;
#X obj 78 92 *~ 0.25;
#X obj 78 114 -~ 0.5;
#X obj 77 157 *~ -1;
#X obj 77 180 outlet~;
#X obj 174 72 r \$0-panlaw;
#X obj 174 95 == 0;
#X obj 174 118 switch~;
#X obj 256 79 loadbang;
#X msg 256 102 1;
#X connect 0 0 2 0;
#X connect 1 0 4 0;
#X connect 2 0 3 0;
#X connect 3 0 1 0;
#X connect 4 0 5 0;
#X connect 6 0 7 0;
#X connect 7 0 8 0;
#X connect 9 0 10 0;
#X connect 10 0 8 0;
#X restore 107 182 pd cos;
#N canvas 232 247 290 199 sqrt 0;
#X obj 45 21 inlet~;
#X obj 30 154 outlet~;
#X obj 31 109 sqrt~;
#X obj 30 60 sig~ 1;
#X obj 30 83 -~;
#X obj 103 45 r \$0-panlaw;
#X obj 103 91 switch~;
#X obj 185 52 loadbang;
#X obj 103 68 != 0;
#X msg 185 75 0;
#X connect 0 0 4 1;
#X connect 2 0 1 0;
#X connect 3 0 4 0;
#X connect 4 0 2 0;
#X connect 5 0 8 0;
#X connect 7 0 9 0;
#X connect 8 0 6 0;
#X connect 9 0 6 0;
#X restore 243 179 pd sqrt;
#X connect 1 0 0 0;
#X connect 2 0 1 0;
#X connect 3 0 4 0;
#X connect 3 0 5 0;
#X connect 4 0 1 1;
#X connect 5 0 1 1;
#X restore 562 269 pd amp;
#N canvas 3 52 376 342 amp 0;
#X obj 91 298 outlet~;
#X obj 91 264 *~;
#X obj 92 10 inlet~ sig;
#X obj 245 7 inlet~ angle;
#N canvas 417 176 450 300 cos 0;
#X obj 79 69 inlet~;
#X obj 78 134 cos~;
#X obj 78 92 *~ 0.25;
#X obj 78 114 -~ 0.5;
#X obj 77 157 *~ -1;
#X obj 77 180 outlet~;
#X obj 174 72 r \$0-panlaw;
#X obj 174 95 == 0;
#X obj 174 118 switch~;
#X obj 256 79 loadbang;
#X msg 256 102 1;
#X connect 0 0 2 0;
#X connect 1 0 4 0;
#X connect 2 0 3 0;
#X connect 3 0 1 0;
#X connect 4 0 5 0;
#X connect 6 0 7 0;
#X connect 7 0 8 0;
#X connect 9 0 10 0;
#X connect 10 0 8 0;
#X restore 107 182 pd cos;
#N canvas 232 247 290 199 sqrt 0;
#X obj 45 21 inlet~;
#X obj 30 154 outlet~;
#X obj 31 109 sqrt~;
#X obj 30 60 sig~ 1;
#X obj 30 83 -~;
#X obj 103 45 r \$0-panlaw;
#X obj 103 91 switch~;
#X obj 185 52 loadbang;
#X obj 103 68 != 0;
#X msg 185 75 0;
#X connect 0 0 4 1;
#X connect 2 0 1 0;
#X connect 3 0 4 0;
#X connect 4 0 2 0;
#X connect 5 0 8 0;
#X connect 7 0 9 0;
#X connect 8 0 6 0;
#X connect 9 0 6 0;
#X restore 243 179 pd sqrt;
#X connect 1 0 0 0;
#X connect 2 0 1 0;
#X connect 3 0 4 0;
#X connect 3 0 5 0;
#X connect 4 0 1 1;
#X connect 5 0 1 1;
#X restore 617 269 pd amp;
#N canvas 3 52 376 342 amp 0;
#X obj 91 298 outlet~;
#X obj 91 264 *~;
#X obj 92 10 inlet~ sig;
#X obj 245 7 inlet~ angle;
#N canvas 417 176 450 300 cos 0;
#X obj 79 69 inlet~;
#X obj 78 134 cos~;
#X obj 78 92 *~ 0.25;
#X obj 78 114 -~ 0.5;
#X obj 77 157 *~ -1;
#X obj 77 180 outlet~;
#X obj 174 72 r \$0-panlaw;
#X obj 174 95 == 0;
#X obj 174 118 switch~;
#X obj 256 79 loadbang;
#X msg 256 102 1;
#X connect 0 0 2 0;
#X connect 1 0 4 0;
#X connect 2 0 3 0;
#X connect 3 0 1 0;
#X connect 4 0 5 0;
#X connect 6 0 7 0;
#X connect 7 0 8 0;
#X connect 9 0 10 0;
#X connect 10 0 8 0;
#X restore 107 182 pd cos;
#N canvas 232 247 290 199 sqrt 0;
#X obj 45 21 inlet~;
#X obj 30 154 outlet~;
#X obj 31 109 sqrt~;
#X obj 30 60 sig~ 1;
#X obj 30 83 -~;
#X obj 103 45 r \$0-panlaw;
#X obj 103 91 switch~;
#X obj 185 52 loadbang;
#X obj 103 68 != 0;
#X msg 185 75 0;
#X connect 0 0 4 1;
#X connect 2 0 1 0;
#X connect 3 0 4 0;
#X connect 4 0 2 0;
#X connect 5 0 8 0;
#X connect 7 0 9 0;
#X connect 8 0 6 0;
#X connect 9 0 6 0;
#X restore 243 179 pd sqrt;
#X connect 1 0 0 0;
#X connect 2 0 1 0;
#X connect 3 0 4 0;
#X connect 3 0 5 0;
#X connect 4 0 1 1;
#X connect 5 0 1 1;
#X restore 674 267 pd amp;
#X connect 1 0 20 0;
#X connect 2 0 1 0;
#X connect 3 0 20 1;
#X connect 4 0 3 0;
#X connect 5 0 2 0;
#X connect 6 0 4 0;
#X connect 7 0 0 0;
#X connect 15 0 28 0;
#X connect 17 0 18 0;
#X connect 20 0 7 1;
#X connect 20 0 19 0;
#X connect 20 1 19 1;
#X connect 20 1 30 1;
#X connect 20 2 19 2;
#X connect 20 2 31 1;
#X connect 20 3 19 3;
#X connect 20 3 32 1;
#X connect 20 4 19 4;
#X connect 20 4 33 1;
#X connect 20 5 19 5;
#X connect 20 5 34 1;
#X connect 20 6 19 6;
#X connect 20 6 35 1;
#X connect 20 7 19 7;
#X connect 20 7 36 1;
#X connect 23 0 22 0;
#X connect 24 0 7 0;
#X connect 24 0 30 0;
#X connect 24 0 36 0;
#X connect 24 0 35 0;
#X connect 24 0 34 0;
#X connect 24 0 33 0;
#X connect 24 0 32 0;
#X connect 24 0 31 0;
#X connect 26 0 27 0;
#X connect 27 0 20 2;
#X connect 28 0 26 0;
#X connect 30 0 8 0;
#X connect 31 0 9 0;
#X connect 32 0 10 0;
#X connect 33 0 11 0;
#X connect 34 0 12 0;
#X connect 35 0 13 0;
#X connect 36 0 14 0;
#X coords 0 -1 1 1 155 33 1 100 100;
