#N canvas 332 149 833 308 10;
#X obj 1 2 cnv 15 380 300 empty empty empty 20 12 0 14 #e0e0e0 #404040 0;
#X text 10 152 Inlets:;
#X text 10 231 Outlets:;
#X obj 12 20 cnv 15 10 10 empty empty pp.shiftlfo~ 0 0 2 16 #e0e0e0 #fcfcfc 0;
#X obj 436 247 pp.out~;
#A saved;
#X text 68 153 1:(~)frequency;
#X floatatom 523 54 5 0 0 0 - - - 0;
#X obj 523 74 sig~;
#X text 556 55 frequency;
#X text 628 152 <-- click to open GUI;
#X obj 616 113 cnv 15 118 17 empty empty empty 20 12 0 14 #fc8000 #404040 0;
#N canvas 901 20 381 505 control-messages 0;
#X obj 80 482 outlet;
#X floatatom 80 33 5 0 1e+16 0 - - - 0;
#X msg 80 53 frequency \$1;
#X floatatom 122 79 5 0 1 0 - - - 0;
#X floatatom 133 127 5 0 100 0 - - - 0;
#X obj 165 438 cnv 16 87 16 empty empty empty 20 12 0 14 #fc8000 #404040 0;
#N canvas 864 246 634 307 save&recall 0;
#X obj 93 233 outlet;
#X msg 93 60 0;
#X msg 125 60 1;
#X msg 158 60 2;
#X msg 93 99 save \$1;
#X text 185 63 ...;
#X msg 207 60 20;
#X msg 149 154 0;
#X msg 181 154 1;
#X msg 214 154 2;
#X text 241 157 ...;
#X msg 263 154 20;
#X msg 149 193 recall \$1;
#X text 249 93 save & recall up to 20 presets \, presets will be saved with the parrent patch;
#X connect 1 0 4 0;
#X connect 2 0 4 0;
#X connect 3 0 4 0;
#X connect 4 0 0 0;
#X connect 6 0 4 0;
#X connect 7 0 12 0;
#X connect 8 0 12 0;
#X connect 9 0 12 0;
#X connect 11 0 12 0;
#X connect 12 0 0 0;
#X restore 165 437 pd save&recall;
#X msg 122 99 hold \$1;
#X text 180 96 (0-1);
#X text 163 53 hz;
#X msg 133 147 shift \$1;
#X floatatom 151 174 5 0 1e+09 0 - - - 0;
#X msg 151 194 rise \$1;
#X floatatom 152 219 5 0 1e+09 0 - - - 0;
#X msg 152 239 fall \$1;
#X floatatom 153 283 5 0 100 0 - - - 0;
#X msg 153 303 rise-curve \$1;
#X floatatom 154 329 5 0 100 0 - - - 0;
#X msg 154 349 fall-curve \$1;
#X floatatom 172 373 5 -1 1 0 - - - 0;
#X msg 172 395 phase \$1;
#X text 233 395 reset phase (-1 \, 1);
#X connect 1 0 2 0;
#X connect 2 0 0 0;
#X connect 3 0 7 0;
#X connect 4 0 10 0;
#X connect 6 0 0 0;
#X connect 7 0 0 0;
#X connect 10 0 0 0;
#X connect 11 0 12 0;
#X connect 12 0 0 0;
#X connect 13 0 14 0;
#X connect 14 0 0 0;
#X connect 15 0 16 0;
#X connect 16 0 0 0;
#X connect 17 0 18 0;
#X connect 18 0 0 0;
#X connect 19 0 20 0;
#X connect 20 0 0 0;
#X restore 616 113 pd control-messages;
#N canvas 1269 97 503 292 message-out 0;
#X obj 30 33 inlet;
#X msg 30 60 frequency 8 \, hold 0.5 \, shift 0 \, rise 0.5 \, fall 0.5 \, rise-curve 0.5 \, fall-curve 0.5 \, phase 0 \,;
#X connect 0 0 1 0;
#X restore 616 177 pd message-out;
#X text 9 102 Creation arguments:;
#X obj 436 183 *~;
#X obj 435 133 noise~;
#X text 68 168 2:(~)hold;
#X text 68 183 3:control-message;
#X text 131 102 \$1: frequency(hz);
#X text 16 51 a LFO that can generate irregular rhythmic patterns;
#X text 68 231 1:(~) signal(-1 \, 1);
#X floatatom 569 178 5 0 0 0 - - - 0;
#X text 68 246 2: float (-1 \, 1) \, rate 2ms;
#X text 68 261 3: message;
#X obj 523 136 pp.shiftlfo~ 8;
#A saved empty_slot \; empty_slot \; empty_slot \; empty_slot \; empty_slot \; empty_slot \; empty_slot \; empty_slot \; empty_slot \; empty_slot \; empty_slot \; empty_slot \; empty_slot \; empty_slot \; empty_slot \; empty_slot \; empty_slot \; empty_slot \; empty_slot \; empty_slot \; empty_slot \;;
#X connect 6 0 7 0;
#X connect 7 0 24 0;
#X connect 11 0 24 2;
#X connect 14 0 4 0;
#X connect 14 0 4 1;
#X connect 15 0 14 0;
#X connect 24 0 14 1;
#X connect 24 1 21 0;
#X connect 24 2 12 0;
