#N canvas 290 233 783 445 10;
#X obj 57 20 inlet~;
#X obj 55 290 outlet~;
#X obj 71 110 -~;
#X obj 71 87 sig~ 1;
#X obj 56 158 *~;
#X obj 159 124 *~;
#X obj 231 24 inlet~;
#X obj 159 159 biquad~ 0 0.161758 0.161758 0 -1;
#X obj 159 188 biquad~ 0 0.733029 0.733029 0 -1;
#X obj 159 220 biquad~ 0 0.94535 0.94535 0 -1;
#X obj 159 247 biquad~ 0 0.990598 0.990598 0 -1;
#X text 364 198 http://yehar.com/blog/?p=368;
#X text 364 183 http://www.katjaas.nl/hilbert/hilbert.html;
#X text 363 156 left part ofOlli Niemitalo's quadrature transform coefficients
;
#X obj 230 75 -~ \$1;
#X obj 230 52 clip~ \$1 \$2;
#X connect 0 0 4 0;
#X connect 0 0 5 0;
#X connect 2 0 4 1;
#X connect 3 0 2 0;
#X connect 4 0 1 0;
#X connect 5 0 7 0;
#X connect 6 0 15 0;
#X connect 7 0 8 0;
#X connect 8 0 9 0;
#X connect 9 0 10 0;
#X connect 10 0 1 0;
#X connect 14 0 5 1;
#X connect 14 0 2 1;
#X connect 15 0 14 0;
