#N canvas 23 232 1232 464 10;
#X obj 103 115 hsl 180 15 0 127 0 0 \$0-visbng \$0-visbngr empty 50
8 2 10 -233017 -233017 -1 0 1;
#N canvas 788 87 567 572 times 0;
#X obj 64 247 until;
#X obj 73 273 f;
#X obj 111 275 + 1;
#X msg 125 228 0;
#X obj 74 364 pow;
#X obj 231 85 t b f;
#X obj 73 191 t b b;
#X obj 73 299 t float float;
#X obj 258 276 moses;
#X obj 290 312 + 1;
#X obj 258 325 abs;
#X obj 258 350 expr 1/$f1;
#X obj 258 301 - 1;
#X obj 258 252 / 10;
#X obj 73 166 del 0;
#X obj 267 174 + 50;
#X obj 267 145 * -0.5;
#X obj 74 428 * 1;
#X obj 67 219 f 12;
#X obj 74 329 / 11;
#X obj 387 76 t b b f;
#X obj 74 454 +;
#X obj 73 86 t b f f;
#X obj 173 187 r \$0-ndelays;
#X obj 173 210 - 1;
#X obj 73 22 r \$0-times-slope;
#X obj 231 17 r \$0-times-curve;
#X obj 387 9 r \$0-times-center;
#X obj 74 538 tabwrite \$0-times;
#X obj 131 473 r \$0-maxdeltime;
#X obj 74 497 clip 0 100;
#X obj 100 64 r \$0-maxdeltime;
#X obj 73 42 / 100;
#X obj 73 65 *;
#X obj 414 54 r \$0-maxdeltime;
#X obj 387 32 / 100;
#X obj 387 55 *;
#X floatatom 239 385 5 0 0 0 - - -;
#X obj 60 395 expr 1-$f1;
#X obj 187 419 expr 9-$f1;
#X connect 0 0 1 0;
#X connect 1 0 2 0;
#X connect 1 0 7 0;
#X connect 2 0 1 1;
#X connect 3 0 1 1;
#X connect 4 0 38 0;
#X connect 5 0 14 0;
#X connect 5 1 13 0;
#X connect 6 0 18 0;
#X connect 6 1 3 0;
#X connect 7 0 19 0;
#X connect 7 1 39 0;
#X connect 7 1 28 1;
#X connect 8 0 12 0;
#X connect 8 1 9 0;
#X connect 9 0 4 1;
#X connect 10 0 11 0;
#X connect 11 0 4 1;
#X connect 11 0 37 0;
#X connect 12 0 10 0;
#X connect 13 0 8 0;
#X connect 14 0 6 0;
#X connect 15 0 21 1;
#X connect 16 0 15 0;
#X connect 17 0 21 0;
#X connect 18 0 0 0;
#X connect 19 0 4 0;
#X connect 20 0 14 0;
#X connect 20 1 15 0;
#X connect 20 2 15 1;
#X connect 21 0 30 0;
#X connect 22 0 14 0;
#X connect 22 1 17 1;
#X connect 22 2 16 0;
#X connect 23 0 18 1;
#X connect 23 0 24 0;
#X connect 24 0 19 1;
#X connect 25 0 32 0;
#X connect 26 0 5 0;
#X connect 27 0 35 0;
#X connect 29 0 30 2;
#X connect 30 0 28 0;
#X connect 31 0 33 1;
#X connect 32 0 33 0;
#X connect 33 0 22 0;
#X connect 34 0 36 1;
#X connect 35 0 36 0;
#X connect 36 0 20 0;
#X connect 38 0 17 0;
#X restore 709 191 pd times;
#N canvas 482 229 567 515 angles 0;
#X obj 61 208 until;
#X obj 70 234 f;
#X obj 108 236 + 1;
#X msg 122 189 0;
#X obj 71 345 pow;
#X obj 228 46 t b f;
#X obj 70 152 t b b;
#X obj 70 260 t float float;
#X obj 255 237 moses;
#X obj 287 273 + 1;
#X obj 255 286 abs;
#X obj 255 311 expr 1/$f1;
#X obj 255 262 - 1;
#X obj 255 213 / 10;
#X obj 70 127 del 0;
#X obj 264 135 + 50;
#X obj 264 106 * -0.5;
#X obj 71 382 * 1;
#X obj 71 455 tabwrite \$0-angles;
#X obj 70 11 r \$0-angles-slope;
#X obj 228 12 r \$0-angles-curve;
#X obj 64 180 f 12;
#X obj 71 290 / 11;
#X obj 384 11 r \$0-angles-center;
#X obj 384 37 t b b f;
#X obj 71 407 +;
#X obj 70 47 t b f f;
#X obj 170 148 r \$0-ndelays;
#X obj 170 171 - 1;
#X obj 71 431 clip 0 180;
#X connect 0 0 1 0;
#X connect 1 0 2 0;
#X connect 1 0 7 0;
#X connect 2 0 1 1;
#X connect 3 0 1 1;
#X connect 4 0 17 0;
#X connect 5 0 14 0;
#X connect 5 1 13 0;
#X connect 6 0 21 0;
#X connect 6 1 3 0;
#X connect 7 0 22 0;
#X connect 7 1 18 1;
#X connect 8 0 12 0;
#X connect 8 1 9 0;
#X connect 9 0 4 1;
#X connect 10 0 11 0;
#X connect 11 0 4 1;
#X connect 12 0 10 0;
#X connect 13 0 8 0;
#X connect 14 0 6 0;
#X connect 15 0 25 1;
#X connect 16 0 15 0;
#X connect 17 0 25 0;
#X connect 19 0 26 0;
#X connect 20 0 5 0;
#X connect 21 0 0 0;
#X connect 22 0 4 0;
#X connect 23 0 24 0;
#X connect 24 0 14 0;
#X connect 24 1 15 0;
#X connect 24 2 15 1;
#X connect 25 0 29 0;
#X connect 26 0 14 0;
#X connect 26 1 17 1;
#X connect 26 2 16 0;
#X connect 27 0 21 1;
#X connect 27 0 28 0;
#X connect 28 0 22 1;
#X connect 29 0 18 0;
#X restore 709 214 pd angles;
#N canvas 67 248 1297 468 stuff 0;
#X obj 555 15 loadbang;
#X obj 615 108 max 0;
#X obj 615 202 s \$0-ndelays;
#X obj 851 24 r \$0-ndelays;
#X obj 851 66 array size \$0-times;
#X obj 861 87 array size \$0-angles;
#X obj 555 96 max 0;
#X obj 555 223 s \$0-maxdeltime;
#X obj 846 119 r \$0-maxdeltime;
#X obj 909 142 r \$0-ndelays;
#X obj 555 38 t b b;
#X obj 846 217 s \$0-times;
#X obj 699 243 r \$0-maxdeltime;
#X obj 699 312 s \$0-maxdelcnv;
#X obj 87 54 loadbang;
#X obj 846 171 pack 100 12;
#X msg 846 194 bounds 0 \$1 \$2 0;
#X obj 87 76 f \$0;
#X obj 62 57 bng 15 250 50 0 empty empty empty 17 7 0 10 -262144 -1
-1;
#X obj 405 358 s \$0-visbngr;
#X obj 387 253 r \$0-visbng;
#X msg 385 330 color 0 0;
#X msg 469 330 color 10 10;
#X obj 387 275 t b;
#X obj 467 305 del 250;
#X obj 615 85 f \$1;
#X obj 555 73 f \$2;
#X obj 855 284 loadbang;
#X obj 855 307 f \$3;
#X obj 854 404 s \$0-setblock;
#N canvas 3 54 617 375 blocksize 0;
#X obj 239 134 i;
#X obj 239 111 t f f;
#X obj 239 155 /;
#X obj 239 175 == 1;
#X obj 184 29 t f f;
#X obj 184 212 spigot;
#X text 274 130 prevent setting blocksizes that are not a power of
2;
#X msg 252 228 blocksize is not a power of 2;
#X obj 184 294 outlet;
#X obj 252 206 sel 0;
#X obj 184 7 inlet;
#X obj 239 90 log 2;
#X obj 212 52 sel 1;
#X obj 212 74 f 1;
#X obj 252 249 print pp.twisted-delays~;
#X connect 0 0 2 0;
#X connect 1 0 0 0;
#X connect 1 1 2 1;
#X connect 2 0 3 0;
#X connect 3 0 5 1;
#X connect 3 0 9 0;
#X connect 4 0 5 0;
#X connect 4 1 12 0;
#X connect 5 0 8 0;
#X connect 7 0 14 0;
#X connect 9 0 7 0;
#X connect 10 0 4 0;
#X connect 11 0 1 0;
#X connect 12 0 13 0;
#X connect 12 1 11 0;
#X connect 13 0 3 0;
#X restore 854 380 pd blocksize;
#X obj 855 330 sel 0;
#X obj 855 353 f 64;
#X obj 615 129 sel 0;
#X obj 615 178 f 1;
#X obj 555 119 sel 0;
#X msg 364 144 missing argument for max. delay time;
#X obj 555 192 f 1;
#X msg 364 167 missing argument for delay instances;
#X msg 699 289 label \$1;
#X msg 920 220 bounds 0 \$1 4 0;
#X obj 920 243 s \$0-early;
#X obj 699 266 makefilename %d;
#X obj 364 199 print pp.twisted-delays2~;
#X obj 351 403 s pd-\$0-twisted-delays2~;
#X msg 351 381 relocate 665x205+1+1 1x1+50+60 \, vis 1;
#X msg 87 101 \; \$1-feedbackr 90 \; \$1-crossoverr 7000 \; \$1-dampingr
50 \; \$1-times-curver 0 \; \$1-times-centerr 50 \; \$1-times-sloper
0 \; \$1-angles-curver -60 \; \$1-angles-sloper -90 \; \$1-angles-centerr
90 \; \$1-drywetr 100 \; \$1-transition 1000 \; \$1-modulationr 0.1
\; \$1-early 0 1.42763 3.23873 5.2345 7.82312;
#X obj 629 362 r \$0-maxdeltime;
#X msg 629 385 range 0 \$1;
#X obj 629 407 s \$0-predguir;
#X obj 639 430 s \$0-predelayr;
#X connect 0 0 10 0;
#X connect 1 0 33 0;
#X connect 3 0 4 0;
#X connect 3 0 5 0;
#X connect 6 0 35 0;
#X connect 8 0 15 0;
#X connect 9 0 15 1;
#X connect 10 0 26 0;
#X connect 10 1 25 0;
#X connect 12 0 42 0;
#X connect 14 0 17 0;
#X connect 15 0 16 0;
#X connect 15 0 40 0;
#X connect 16 0 11 0;
#X connect 17 0 46 0;
#X connect 18 0 17 0;
#X connect 20 0 23 0;
#X connect 21 0 19 0;
#X connect 22 0 19 0;
#X connect 23 0 21 0;
#X connect 23 0 24 0;
#X connect 23 0 45 0;
#X connect 24 0 22 0;
#X connect 25 0 1 0;
#X connect 26 0 6 0;
#X connect 27 0 28 0;
#X connect 28 0 31 0;
#X connect 30 0 29 0;
#X connect 31 0 32 0;
#X connect 31 1 30 0;
#X connect 32 0 30 0;
#X connect 33 0 34 0;
#X connect 33 0 38 0;
#X connect 33 1 2 0;
#X connect 34 0 2 0;
#X connect 35 0 36 0;
#X connect 35 0 37 0;
#X connect 35 1 7 0;
#X connect 36 0 43 0;
#X connect 37 0 7 0;
#X connect 38 0 43 0;
#X connect 39 0 13 0;
#X connect 40 0 41 0;
#X connect 42 0 39 0;
#X connect 45 0 44 0;
#X connect 47 0 48 0;
#X connect 48 0 49 0;
#X connect 48 0 50 0;
#X restore 709 169 pd stuff;
#X obj 709 43 inlet;
#N canvas 242 183 947 382 in 0;
#X obj 60 20 inlet;
#N canvas 698 546 200 251 route 0;
#X obj 20 20 inlet;
#X obj 30 60 route save recall;
#X obj 30 85 route float;
#X obj 97 111 route float;
#X obj 30 136 s \$0-save;
#X obj 30 108 i;
#X obj 98 133 i;
#X obj 98 161 s \$0-recall;
#X connect 0 0 1 0;
#X connect 1 0 2 0;
#X connect 1 1 3 0;
#X connect 2 0 5 0;
#X connect 3 0 6 0;
#X connect 5 0 4 0;
#X connect 6 0 7 0;
#X restore 135 45 pd route save-recall;
#N canvas 362 125 450 479 recall 0;
#X obj 49 145 outlet;
#N canvas 3 54 450 600 listsplit 0;
#X obj 158 23 inlet;
#X obj 220 87 list length;
#X obj 220 113 until;
#X obj 182 150 f;
#X obj 278 150 + 1;
#X msg 265 111 0;
#X obj 182 226 list store;
#X msg 182 202 get \$1 1;
#X obj 154 367 list split;
#X obj 222 342 f;
#X obj 154 334 list;
#X obj 98 124 list;
#X obj 182 389 list split 1;
#X obj 154 274 t bang bang bang;
#X obj 182 179 t f f;
#X obj 158 48 t l l l b;
#X obj 154 473 outlet;
#X obj 154 440 list trim;
#X obj 163 248 sel |;
#X text 275 197 hacky split list at "|";
#X connect 0 0 15 0;
#X connect 1 0 2 0;
#X connect 2 0 3 0;
#X connect 3 0 4 0;
#X connect 3 0 14 0;
#X connect 4 0 3 1;
#X connect 5 0 3 1;
#X connect 6 0 18 0;
#X connect 7 0 6 0;
#X connect 8 0 17 0;
#X connect 8 1 12 0;
#X connect 9 0 8 1;
#X connect 10 0 8 0;
#X connect 11 0 15 0;
#X connect 12 1 11 0;
#X connect 13 0 10 0;
#X connect 13 1 9 0;
#X connect 13 2 2 1;
#X connect 14 0 7 0;
#X connect 14 1 9 1;
#X connect 15 0 1 0;
#X connect 15 1 10 1;
#X connect 15 2 6 1;
#X connect 15 3 5 0;
#X connect 17 0 16 0;
#X connect 18 0 13 0;
#X restore 49 117 pd listsplit;
#X obj 49 24 r \$0-recall;
#X obj 49 54 pipe 1;
#X obj 221 409 text fromlist \$0-savestates;
#X obj 49 77 text get \$0-savestates;
#X msg 253 246 21;
#X obj 253 269 until;
#X obj 253 292 f;
#X obj 300 295 + 1;
#X obj 253 315 t b f;
#X obj 253 367 text set \$0-savestates;
#X obj 221 114 text tolist \$0-savestates;
#X msg 253 342 list empty_slot;
#X obj 221 160 t a b;
#X obj 151 166 loadbang;
#X obj 221 137 savestate;
#X obj 221 33 text define \$0-savestates;
#X obj 151 189 del 0;
#X msg 298 199 0;
#X obj 253 220 spigot 1;
#X connect 1 0 0 0;
#X connect 2 0 3 0;
#X connect 3 0 5 0;
#X connect 5 0 1 0;
#X connect 6 0 7 0;
#X connect 7 0 8 0;
#X connect 8 0 9 0;
#X connect 8 0 10 0;
#X connect 9 0 8 1;
#X connect 10 0 13 0;
#X connect 10 1 11 1;
#X connect 12 0 16 0;
#X connect 13 0 11 0;
#X connect 14 0 4 0;
#X connect 14 1 19 0;
#X connect 15 0 18 0;
#X connect 16 0 14 0;
#X connect 16 1 12 0;
#X connect 18 0 20 0;
#X connect 19 0 20 1;
#X connect 20 0 6 0;
#X restore 135 67 pd recall;
#X obj 60 266 s \$0-drywetr;
#X obj 79 289 s \$0-feedbackr;
#X obj 101 311 s \$0-crossoverr;
#X obj 125 335 s \$0-dampingr;
#X obj 159 262 s \$0-times-centerr;
#X obj 183 288 s \$0-times-sloper;
#X obj 208 314 s \$0-times-curver;
#X obj 278 261 s \$0-angles-centerr;
#X obj 296 286 s \$0-angles-sloper;
#X obj 321 312 s \$0-angles-curver;
#X obj 404 262 s \$0-transition;
#X obj 648 296 array set \$0-times;
#X obj 648 273 list;
#X obj 636 230 t b a;
#X obj 636 253 del 1;
#X obj 700 247 list;
#X obj 688 204 t b a;
#X obj 688 227 del 1;
#X obj 700 270 array set \$0-angles;
#X obj 414 231 s \$0-gainr;
#X obj 637 153 route times angles early;
#X obj 745 221 list;
#X obj 733 178 t b a;
#X obj 733 201 del 1;
#X obj 745 244 array set \$0-early;
#X obj 491 231 s \$0-modulationr;
#X obj 505 258 s \$0-predelayr;
#X obj 60 96 route dry/wet feedback crossover-frequency damping times-center
times-slope times-curve angles-center angles-slope angles-curve transition-time
setblock gain modulation predelay modulation-frequency;
#X obj 478 195 s \$0-modulation-freq;
#X obj 453 337 s \$0-setblock;
#X obj 453 290 change;
#N canvas 3 57 617 375 blocksize 0;
#X obj 184 76 t f f;
#X obj 184 212 spigot;
#X text 249 141 prevent setting blocksizes that are not a power of
2;
#X msg 244 244 blocksize is not a power of 2;
#X obj 184 294 outlet;
#X obj 244 222 sel 0;
#X obj 184 54 inlet;
#X obj 244 265 print pp.fft-gate~;
#X obj 217 122 expr (($f1-1) & $f1) == 0;
#X connect 0 0 1 0;
#X connect 0 1 8 0;
#X connect 1 0 4 0;
#X connect 3 0 7 0;
#X connect 5 0 3 0;
#X connect 6 0 0 0;
#X connect 8 0 1 1;
#X connect 8 0 5 0;
#X restore 453 312 pd blocksize;
#X connect 0 0 1 0;
#X connect 0 0 30 0;
#X connect 2 0 30 0;
#X connect 15 0 14 0;
#X connect 16 0 17 0;
#X connect 16 1 15 1;
#X connect 17 0 15 0;
#X connect 18 0 21 0;
#X connect 19 0 20 0;
#X connect 19 1 18 1;
#X connect 20 0 18 0;
#X connect 23 0 16 0;
#X connect 23 1 19 0;
#X connect 23 2 25 0;
#X connect 24 0 27 0;
#X connect 25 0 26 0;
#X connect 25 1 24 1;
#X connect 26 0 24 0;
#X connect 30 0 3 0;
#X connect 30 1 4 0;
#X connect 30 2 5 0;
#X connect 30 3 6 0;
#X connect 30 4 7 0;
#X connect 30 5 8 0;
#X connect 30 6 9 0;
#X connect 30 7 10 0;
#X connect 30 8 11 0;
#X connect 30 9 12 0;
#X connect 30 10 13 0;
#X connect 30 11 33 0;
#X connect 30 12 22 0;
#X connect 30 13 28 0;
#X connect 30 14 29 0;
#X connect 30 15 31 0;
#X connect 30 16 23 0;
#X connect 33 0 34 0;
#X connect 34 0 32 0;
#X restore 709 66 pd in;
#X obj 710 362 outlet;
#X obj 337 95 inlet~;
#X obj 337 390 outlet~;
#X obj 483 388 outlet~;
#N canvas 353 147 751 561 outlet-message 0;
#X obj 414 62 r \$0-transition;
#X obj 439 85 r \$0-setblock;
#X obj 366 19 r \$0-angles-curve;
#X obj 340 109 r \$0-angles-slope;
#X obj 315 86 r \$0-angles-center;
#X obj 290 63 r \$0-times-curve;
#X obj 265 41 r \$0-times-slope;
#X obj 241 16 r \$0-times-center;
#X obj 216 92 r \$0-damping;
#X obj 191 70 r \$0-crossover;
#X obj 166 47 r \$0-feedback;
#X obj 142 24 r \$0-drywet;
#X obj 320 483 list trim;
#X msg 241 472 addcomma;
#X msg 68 417 set;
#X obj 320 460 list prepend add2;
#X obj 241 529 outlet;
#X obj 301 403 t b a a;
#N canvas 497 403 297 264 save 0;
#X obj 48 16 inlet;
#N canvas 690 259 481 384 collect 0;
#X obj 47 60 inlet;
#X obj 47 274 outlet;
#X obj 98 180 list;
#X obj 166 181 t l;
#X obj 47 225 list;
#X obj 98 139 list append |;
#X obj 47 126 del 0;
#X obj 47 82 t b a;
#X text 119 75 hacky thing... replaycing " \, " with "|";
#X connect 0 0 7 0;
#X connect 2 0 3 0;
#X connect 2 0 4 1;
#X connect 3 0 2 1;
#X connect 4 0 1 0;
#X connect 5 0 2 0;
#X connect 6 0 2 1;
#X connect 6 0 4 0;
#X connect 7 0 6 0;
#X connect 7 1 5 0;
#X restore 48 38 pd collect;
#X obj 117 16 r \$0-save;
#X obj 27 130 text set \$0-savestates;
#X obj 27 104 list;
#X obj 117 62 t b f;
#X obj 117 39 clip 0 20;
#X connect 0 0 1 0;
#X connect 1 0 4 1;
#X connect 2 0 6 0;
#X connect 4 0 3 0;
#X connect 5 0 4 0;
#X connect 5 1 3 1;
#X connect 6 0 5 0;
#X restore 340 428 pd save;
#N canvas 153 379 986 300 bang_once..................................
0;
#X obj 132 54 t b f;
#X obj 89 139 del 0;
#X obj 89 54 t b f;
#X obj 175 56 t b f;
#X obj 89 8 inlet;
#X obj 132 7 inlet;
#X obj 175 9 inlet;
#X obj 89 247 outlet;
#X obj 89 173 f;
#X obj 221 56 t b f;
#X obj 221 9 inlet;
#X obj 312 55 t b f;
#X obj 269 55 t b f;
#X obj 355 55 t b f;
#X obj 269 9 inlet;
#X obj 312 8 inlet;
#X obj 355 10 inlet;
#X obj 401 55 t b f;
#X obj 401 10 inlet;
#X obj 489 54 t b f;
#X obj 446 54 t b f;
#X obj 532 54 t b f;
#X obj 446 8 inlet;
#X obj 489 7 inlet;
#X obj 532 9 inlet;
#X obj 578 54 t b f;
#X obj 578 9 inlet;
#X obj 625 55 t b f;
#X obj 625 10 inlet;
#X obj 670 55 t b f;
#X obj 670 10 inlet;
#X obj 714 55 t b f;
#X obj 714 10 inlet;
#X obj 89 203 pack 0 0 0 0 0 0 0 0 0 0 0 0 0 0 0 0;
#X obj 758 55 t b f;
#X obj 758 10 inlet;
#X connect 0 0 1 0;
#X connect 0 1 33 1;
#X connect 1 0 8 0;
#X connect 2 0 1 0;
#X connect 2 1 8 1;
#X connect 3 0 1 0;
#X connect 3 1 33 2;
#X connect 4 0 2 0;
#X connect 5 0 0 0;
#X connect 6 0 3 0;
#X connect 8 0 33 0;
#X connect 9 0 1 0;
#X connect 9 1 33 3;
#X connect 10 0 9 0;
#X connect 11 0 1 0;
#X connect 11 1 33 5;
#X connect 12 0 1 0;
#X connect 12 1 33 4;
#X connect 13 0 1 0;
#X connect 13 1 33 6;
#X connect 14 0 12 0;
#X connect 15 0 11 0;
#X connect 16 0 13 0;
#X connect 17 0 1 0;
#X connect 17 1 33 7;
#X connect 18 0 17 0;
#X connect 19 0 1 0;
#X connect 19 1 33 9;
#X connect 20 0 1 0;
#X connect 20 1 33 8;
#X connect 21 0 1 0;
#X connect 21 1 33 10;
#X connect 22 0 20 0;
#X connect 23 0 19 0;
#X connect 24 0 21 0;
#X connect 25 0 1 0;
#X connect 25 1 33 11;
#X connect 26 0 25 0;
#X connect 27 0 1 0;
#X connect 27 1 33 12;
#X connect 28 0 27 0;
#X connect 29 0 1 0;
#X connect 29 1 33 13;
#X connect 30 0 29 0;
#X connect 31 0 1 0;
#X connect 31 1 33 14;
#X connect 32 0 31 0;
#X connect 33 0 7 0;
#X connect 34 0 1 0;
#X connect 34 1 33 15;
#X connect 35 0 34 0;
#X restore 142 158 pd bang_once..................................;
#X f 50;
#X obj 33 31 loadbang;
#X obj 33 54 metro 1000;
#X obj 389 41 r \$0-gain;
#X obj 142 123 f 100;
#X obj 187 316 array get \$0-early;
#X obj 142 182 t b b b b a b;
#X obj 187 338 list prepend early;
#X obj 171 213 array get \$0-angles;
#X obj 170 234 list prepend angles;
#X obj 227 268 array get \$0-times;
#X obj 227 290 list prepend times;
#X obj 458 108 r \$0-modulation;
#X obj 553 133 r \$0-modulation-freq;
#X obj 462 129 r \$0-predelay;
#X msg 323 326 dry/wet \$1 \, feedback \$2 \, crossover-frequency \$3
\, damping \$4 \, modulation \$14 \, predelay \$15 \, times-center
\$5 \, times-slope \$6 \, times-curve \$7 \, angles-center \$8 \, angles-slope
\$9 \, angles-curve \$10 \, gain \$11 \, transition-time \$12 \, setblock
\$13;
#X connect 0 0 19 11;
#X connect 1 0 19 12;
#X connect 2 0 19 9;
#X connect 3 0 19 8;
#X connect 4 0 19 7;
#X connect 5 0 19 6;
#X connect 6 0 19 5;
#X connect 7 0 19 4;
#X connect 8 0 19 3;
#X connect 9 0 19 2;
#X connect 10 0 19 1;
#X connect 11 0 23 0;
#X connect 12 0 16 0;
#X connect 13 0 16 0;
#X connect 14 0 16 0;
#X connect 15 0 12 0;
#X connect 17 0 13 0;
#X connect 17 1 15 0;
#X connect 17 2 18 0;
#X connect 19 0 25 0;
#X connect 20 0 21 0;
#X connect 21 0 23 0;
#X connect 22 0 19 10;
#X connect 23 0 19 0;
#X connect 24 0 26 0;
#X connect 25 0 16 0;
#X connect 25 1 27 0;
#X connect 25 2 29 0;
#X connect 25 3 24 0;
#X connect 25 4 34 0;
#X connect 25 5 14 0;
#X connect 26 0 17 0;
#X connect 27 0 28 0;
#X connect 28 0 17 0;
#X connect 29 0 30 0;
#X connect 30 0 17 0;
#X connect 31 0 19 13;
#X connect 32 0 19 15;
#X connect 33 0 19 14;
#X connect 34 0 17 0;
#X restore 710 339 pd outlet-message;
#X text 784 378 philipp schmalfuß \, 2019;
#N canvas 2 54 610 300 gain 0;
#X obj 175 62 inlet~;
#X obj 175 167 outlet~;
#X obj 239 63 inlet~;
#X obj 239 168 outlet~;
#X obj 309 17 r \$0-gain;
#X obj 309 40 + 100;
#X obj 309 63 dbtorms;
#X obj 309 87 sig~ 1;
#X obj 309 110 lop~ 20;
#X obj 361 89 expr 1000/$f1;
#X obj 361 111 clip 0 20000;
#X obj 361 67 r \$0-transition;
#X obj 239 138 *~;
#X obj 175 137 *~;
#X connect 0 0 13 0;
#X connect 2 0 12 0;
#X connect 4 0 5 0;
#X connect 5 0 6 0;
#X connect 6 0 7 0;
#X connect 7 0 8 0;
#X connect 8 0 12 1;
#X connect 8 0 13 1;
#X connect 9 0 10 0;
#X connect 10 0 8 1;
#X connect 11 0 9 0;
#X connect 12 0 3 0;
#X connect 13 0 1 0;
#X restore 434 287 pd gain;
#X f 13;
#N canvas 50 60 665 205 \$0-twisted-delays2~ 0;
#N canvas 45 130 954 485 mask 0;
#X obj 100 100 cnv 15 649 189 empty empty empty 2 2 0 14 -262144 -66577
0;
#X obj 218 183 nbx 4 12 0 100 0 0 \$0-damping \$0-dampingr % 41 7 2
10 -262144 -1 -1 50 256;
#X obj 112 183 hsl 100 12 0 100 0 0 \$0-hfdgui \$0-hfdguir Damping
-2 -6 2 10 -262144 -1 -1 4950 1;
#X msg 46 179 set \$1;
#X obj 218 158 nbx 5 12 0 20000 0 0 \$0-crossover \$0-crossoverr hz.
50 7 2 10 -262144 -1 -1 7000 256;
#X obj 112 158 hsl 100 12 0 1 0 0 \$0-lopgui \$0-lopguir Crossover-Frequency
-2 -6 2 10 -262144 -1 -1 6763 1;
#N canvas 439 215 450 300 map 0;
#X obj 105 33 inlet;
#X msg 105 180 set \$1;
#X obj 105 205 outlet;
#X obj 200 207 outlet;
#X obj 200 41 inlet;
#X obj 105 92 sqrt;
#X obj 104 66 / 15000;
#X obj 200 102 pow 2;
#X obj 200 128 * 15000;
#X connect 0 0 6 0;
#X connect 1 0 2 0;
#X connect 4 0 7 0;
#X connect 5 0 1 0;
#X connect 6 0 5 0;
#X connect 7 0 8 0;
#X connect 8 0 3 0;
#X restore 47 153 pd map;
#X obj 218 132 nbx 4 12 -1e+37 1e+37 0 0 \$0-feedback \$0-feedbackr
% 41 7 2 10 -262144 -1 -1 90 256;
#X obj 112 132 hsl 100 12 0 100 0 0 \$0-fbgui \$0-fbuir Feedback -2
-6 2 10 -262144 -1 -1 8910 1;
#X msg 47 129 set \$1;
#X obj 371 128 cnv 15 152 122 empty empty empty 20 12 0 14 -128992
-66577 0;
#N canvas 3 54 450 300 mask 0;
#X obj 100 100 cnv 15 150 120 empty empty empty 20 12 0 14 -262144
-66577 0;
#N canvas 0 50 450 250 (subpatch) 0;
#X array \$0-times 6 float 3;
#A 0 50 50 50 50 50 50;
#X coords 0 100 6 0 150 120 1 0 0;
#X restore 100 100 graph;
#X coords 0 -1 1 1 150 120 1 100 100;
#X restore 372 129 pd mask;
#X obj 525 126 cnv 10 10 10 empty \$0-maxdelcnv 100 0 5 2 10 -262144
-1 0;
#X obj 526 240 cnv 10 10 10 empty empty 0ms 0 5 2 10 -262144 -1 0;
#X obj 372 112 cnv 10 100 15 empty empty Times 0 5 2 10 -262144 -1
0;
#X obj 371 259 nbx 3 12 0 100 0 0 \$0-times-center \$0-times-centerr
Center 33 7 2 10 -262144 -1 -1 50 256;
#X obj 434 259 nbx 3 12 -1e+24 1e+24 0 0 \$0-times-slope \$0-times-sloper
Slope 33 7 2 10 -262144 -1 -1 0 256;
#X obj 493 259 nbx 3 12 -1e+24 1e+24 0 0 \$0-times-curve \$0-times-curver
Curve 33 7 2 10 -262144 -1 -1 0 256;
#X obj 166 110 cnv 10 10 10 empty empty twisted-delays2~ 0 5 2 17 -262144
-162280 0;
#X obj 110 268 nbx 4 12 0 100 0 0 \$0-drywet \$0-drywetr % 41 7 2 10
-262144 -1 -1 100 256;
#X obj 110 254 cnv 10 10 10 empty empty Dry/Wet 0 5 2 10 -262144 -1
0;
#X obj 564 128 cnv 15 152 122 empty empty empty 20 12 0 14 -128992
-66577 0;
#N canvas 3 54 450 300 mask 0;
#X obj 100 100 cnv 15 150 120 empty empty empty 20 12 0 14 -262144
-66577 0;
#N canvas 0 50 450 250 (subpatch) 0;
#X array \$0-angles 6 float 3;
#A 0 135 63.4862 56.0424 51.3338 47.8237 45;
#X coords 0 180 6 0 150 120 1 0 0;
#X restore 100 100 graph;
#X coords 0 -1 1 1 150 120 1 100 100;
#X restore 565 129 pd mask;
#X obj 718 183 cnv 10 10 10 empty empty 90° 0 5 2 10 -262144 -1 0
;
#X obj 719 240 cnv 10 10 10 empty empty 0° 0 5 2 10 -262144 -1 0;
#X obj 565 112 cnv 10 100 15 empty empty Angles 0 5 2 10 -262144 -1
0;
#X obj 718 126 cnv 10 10 10 empty empty 180° 0 5 2 10 -262144 -1 0
;
#X obj 564 259 nbx 3 12 -1e+24 1e+24 0 0 \$0-angles-center \$0-angles-centerr
Center 33 7 2 10 -262144 -1 -1 90 256;
#X obj 627 259 nbx 3 12 -1e+24 1e+24 0 0 \$0-angles-slope \$0-angles-sloper
Slope 33 7 2 10 -262144 -1 -1 -90 256;
#X obj 686 259 nbx 3 12 -1e+24 1e+24 0 0 \$0-angles-curve \$0-angles-curver
Curve 33 7 2 10 -262144 -1 -1 -60 256;
#X obj 218 268 nbx 4 12 -1e+37 1e+37 0 0 \$0-gain \$0-gainr db 41 7
2 10 -262144 -1 -1 0 256;
#X obj 218 256 cnv 10 10 10 empty empty Gain 0 5 2 10 -262144 -1 0
;
#X obj 285 129 cnv 15 57 122 empty empty empty 20 12 0 14 -128992 -66577
0;
#N canvas 3 54 450 300 mask 0;
#X obj 100 100 cnv 15 55 120 empty empty empty 20 12 0 14 -262144 -66577
0;
#N canvas 0 50 450 250 (subpatch) 0;
#X array \$0-early 4 float 3;
#A 0 1.42763 3.23873 5.2345 7.82312;
#X coords 0 100 4 0 55 120 1 0 0;
#X restore 100 100 graph;
#X coords 0 -1 1 1 55 120 1 100 100;
#X restore 286 130 pd mask;
#X obj 344 241 cnv 10 10 10 empty empty 0ms 0 5 2 10 -262144 -1 0;
#X obj 286 113 cnv 10 60 15 empty empty Early 0 5 2 10 -262144 -1 0
;
#X obj 344 124 cnv 10 10 10 empty \$0-maxdelcnv 100 0 5 2 10 -262144
-1 0;
#X obj 218 209 nbx 4 12 0 100 0 0 \$0-predelay \$0-predelayr ms 41
7 2 10 -262144 -1 -1 0 256;
#X obj 112 209 hsl 100 12 0 100 0 0 \$0-predgui \$0-predguir Predelay
-2 -6 2 10 -262144 -1 -1 0 1;
#X msg 46 205 set \$1;
#X obj 218 236 nbx 4 12 0 100 0 0 \$0-modulation \$0-modulationr empty
41 7 2 10 -262144 -1 -1 0.1 256;
#X obj 112 236 hsl 100 12 0 1 0 0 \$0-modgui \$0-modguir Modulation
-2 -6 2 10 -262144 -1 -1 990 1;
#X obj 320 340 nbx 4 12 0 100 0 0 \$0-modfreq \$0-modfreqr hz 41 7
2 10 -262144 -1 -1 0 256;
#X obj 214 340 hsl 100 12 0 100 0 0 \$0-modfreq \$0-modfreqr Modulation-freq
-2 -6 2 10 -262144 -1 -1 0 1;
#X msg 148 336 set \$1;
#X msg 47 232 set \$1;
#X connect 1 0 3 0;
#X connect 2 0 1 0;
#X connect 3 0 2 0;
#X connect 4 0 6 0;
#X connect 5 0 6 1;
#X connect 6 0 5 0;
#X connect 6 1 4 0;
#X connect 7 0 9 0;
#X connect 8 0 7 0;
#X connect 9 0 8 0;
#X connect 37 0 39 0;
#X connect 38 0 37 0;
#X connect 39 0 38 0;
#X connect 40 0 45 0;
#X connect 41 0 40 0;
#X connect 42 0 44 0;
#X connect 43 0 42 0;
#X connect 44 0 43 0;
#X connect 45 0 41 0;
#X coords 0 -1 1 1 650 190 2 100 100;
#X restore 7 7 pd mask;
#X restore 709 144 pd \$0-twisted-delays2~;
#N canvas 415 199 900 471 delays 0;
#X obj 339 354 -~;
#X obj 353 314 +~;
#X obj 274 314 -~;
#X obj 273 353 +~;
#X obj 132 287 pp.twisted-delays~-abs \$0 \$1 \$1 \$2 1;
#X obj 207 193 pp.twisted-delays~-abs \$0 \$1 \$1 \$2 2;
#X obj 239 147 cos~;
#X obj 312 145 cos~;
#X obj 312 119 wrap~;
#X obj 312 96 *~ 1.12;
#X obj 378 100 r \$0-modulation;
#X msg 378 123 \$1 100;
#X obj 378 146 line~;
#X obj 313 170 *~;
#X obj 313 47 phasor~ 0.1;
#X obj 239 254 *~;
#X obj 132 64 inlet~;
#X obj 208 65 inlet~;
#X obj 273 376 outlet~;
#X obj 340 378 outlet~;
#X obj 313 25 r \$0-modulation-freq;
#X connect 0 0 19 0;
#X connect 1 0 0 1;
#X connect 1 0 3 1;
#X connect 2 0 0 0;
#X connect 2 0 3 0;
#X connect 3 0 18 0;
#X connect 4 2 2 0;
#X connect 4 3 1 0;
#X connect 5 2 2 1;
#X connect 5 3 1 1;
#X connect 6 0 15 0;
#X connect 7 0 13 0;
#X connect 8 0 7 0;
#X connect 9 0 8 0;
#X connect 10 0 11 0;
#X connect 11 0 12 0;
#X connect 12 0 13 1;
#X connect 12 0 15 1;
#X connect 13 0 5 1;
#X connect 14 0 6 0;
#X connect 14 0 9 0;
#X connect 15 0 4 1;
#X connect 16 0 4 0;
#X connect 17 0 5 0;
#X connect 20 0 14 0;
#X restore 433 252 pd delays;
#X f 13;
#N canvas 2 54 450 300 predelay 0;
#N canvas 371 98 450 300 delwrite 0;
#X obj 160 78 inlet~;
#X obj 164 163 outlet~;
#X obj 159 106 delwrite~ \$0-predelay-l \$2;
#X connect 0 0 2 0;
#X restore 88 80 pd delwrite;
#N canvas 406 217 450 300 delread 0;
#X obj 37 37 inlet~;
#X obj 40 144 outlet~;
#X obj 39 96 r \$0-predelay;
#X obj 40 121 delread~ \$0-predelay-l \$1;
#X connect 2 0 3 0;
#X connect 3 0 1 0;
#X restore 88 103 pd delread;
#N canvas 371 98 450 300 delwrite 0;
#X obj 160 78 inlet~;
#X obj 164 163 outlet~;
#X obj 159 106 delwrite~ \$0-predelay-r \$2;
#X connect 0 0 2 0;
#X restore 215 74 pd delwrite;
#N canvas 406 217 450 300 delread 0;
#X obj 37 37 inlet~;
#X obj 40 144 outlet~;
#X obj 39 96 r \$0-predelay;
#X obj 40 121 delread~ \$0-predelay-r \$1;
#X connect 2 0 3 0;
#X connect 3 0 1 0;
#X restore 215 97 pd delread;
#X obj 88 37 inlet~;
#X obj 215 37 inlet~;
#X obj 88 126 outlet~;
#X obj 215 127 outlet~;
#X connect 0 0 1 0;
#X connect 1 0 6 0;
#X connect 2 0 3 0;
#X connect 3 0 7 0;
#X connect 4 0 0 0;
#X connect 5 0 2 0;
#X restore 433 164 pd predelay;
#X f 13;
#X obj 386 95 inlet~;
#N canvas 45 146 400 576 early 0;
#X obj 84 59 inlet~;
#X obj 159 59 inlet~;
#N canvas 19 394 468 181 write1 0;
#X obj 83 25 inlet~;
#X obj 84 99 outlet~;
#X obj 116 66 delwrite~ \$0-early1 \$2;
#X connect 0 0 1 0;
#X connect 0 0 2 0;
#X restore 159 105 pd write1;
#N canvas 323 263 472 159 read1 0;
#X obj 77 12 inlet~;
#X obj 77 114 outlet~;
#X obj 165 61 lop~ 20;
#X obj 77 89 delread4~ \$0-early1 1.42763;
#X obj 165 11 sig~ 1;
#X obj 165 36 tabread~ \$0-early;
#X obj 277 32 expr 1000/$f1;
#X obj 277 54 clip 0 20000;
#X obj 277 10 r \$0-transition;
#X connect 2 0 3 0;
#X connect 3 0 1 0;
#X connect 4 0 5 0;
#X connect 5 0 2 0;
#X connect 6 0 7 0;
#X connect 7 0 2 1;
#X connect 8 0 6 0;
#X restore 159 130 pd read1;
#X obj 83 159 +~;
#X obj 137 160 -~;
#X obj 82 249 +~;
#X obj 136 250 -~;
#X obj 84 333 +~;
#X obj 138 334 -~;
#N canvas 20 395 468 181 write2 0;
#X obj 83 25 inlet~;
#X obj 84 99 outlet~;
#X obj 116 65 delwrite~ \$0-early2 \$2;
#X connect 0 0 1 0;
#X connect 0 0 2 0;
#X restore 158 195 pd write2;
#N canvas 340 284 472 159 read2 0;
#X obj 77 12 inlet~;
#X obj 77 119 outlet~;
#X obj 165 61 lop~ 20;
#X obj 77 94 delread4~ \$0-early2 3.23873;
#X obj 165 11 sig~ 2;
#X obj 165 36 tabread~ \$0-early;
#X obj 277 32 expr 1000/$f1;
#X obj 277 54 clip 0 20000;
#X obj 277 10 r \$0-transition;
#X connect 2 0 3 0;
#X connect 3 0 1 0;
#X connect 4 0 5 0;
#X connect 5 0 2 0;
#X connect 6 0 7 0;
#X connect 7 0 2 1;
#X connect 8 0 6 0;
#X restore 158 220 pd read2;
#N canvas 19 394 468 181 write3 0;
#X obj 83 25 inlet~;
#X obj 84 99 outlet~;
#X obj 116 66 delwrite~ \$0-early3 \$2;
#X connect 0 0 1 0;
#X connect 0 0 2 0;
#X restore 160 280 pd write3;
#N canvas 322 262 472 159 read3 0;
#X obj 77 12 inlet~;
#X obj 78 122 outlet~;
#X obj 165 61 lop~ 20;
#X obj 78 97 delread4~ \$0-early3 5.2345;
#X obj 165 11 sig~ 3;
#X obj 165 36 tabread~ \$0-early;
#X obj 277 32 expr 1000/$f1;
#X obj 277 54 clip 0 20000;
#X obj 277 10 r \$0-transition;
#X connect 2 0 3 0;
#X connect 3 0 1 0;
#X connect 4 0 5 0;
#X connect 5 0 2 0;
#X connect 6 0 7 0;
#X connect 7 0 2 1;
#X connect 8 0 6 0;
#X restore 160 304 pd read3;
#N canvas 20 395 468 181 write4 0;
#X obj 83 25 inlet~;
#X obj 84 99 outlet~;
#X obj 117 66 delwrite~ \$0-early4 \$2;
#X connect 0 0 1 0;
#X connect 0 0 2 0;
#X restore 153 364 pd write4;
#N canvas 321 261 472 159 read4 0;
#X obj 77 12 inlet~;
#X obj 78 122 outlet~;
#X obj 165 61 lop~ 20;
#X obj 78 97 delread4~ \$0-early4 7.82312;
#X obj 165 11 sig~ 4;
#X obj 165 36 tabread~ \$0-early;
#X obj 277 32 expr 1000/$f1;
#X obj 277 54 clip 0 20000;
#X obj 277 10 r \$0-transition;
#X connect 2 0 3 0;
#X connect 3 0 1 0;
#X connect 4 0 5 0;
#X connect 5 0 2 0;
#X connect 6 0 7 0;
#X connect 7 0 2 1;
#X connect 8 0 6 0;
#X restore 153 389 pd read4;
#X obj 84 450 outlet~;
#X obj 155 450 outlet~;
#X obj 84 425 *~ 0.3535;
#X obj 154 425 *~ 0.3535;
#X connect 0 0 5 0;
#X connect 0 0 4 0;
#X connect 1 0 2 0;
#X connect 2 0 3 0;
#X connect 3 0 5 1;
#X connect 3 0 4 1;
#X connect 4 0 6 0;
#X connect 4 0 7 0;
#X connect 5 0 10 0;
#X connect 6 0 8 0;
#X connect 6 0 9 0;
#X connect 7 0 12 0;
#X connect 8 0 18 0;
#X connect 9 0 14 0;
#X connect 10 0 11 0;
#X connect 11 0 7 1;
#X connect 11 0 6 1;
#X connect 12 0 13 0;
#X connect 13 0 9 1;
#X connect 13 0 8 1;
#X connect 14 0 15 0;
#X connect 15 0 19 0;
#X connect 18 0 16 0;
#X connect 19 0 17 0;
#X restore 432 206 pd early;
#X f 13;
#N canvas 2 57 745 476 dry/wet 0;
#X obj 182 27 inlet~;
#X obj 183 328 outlet~;
#X obj 254 329 outlet~;
#X obj 409 19 inlet~;
#X obj 463 19 inlet~;
#X obj 183 237 *~;
#X obj 254 239 *~;
#X obj 410 243 *~;
#X obj 462 244 *~;
#X obj 517 126 line~;
#X obj 517 104 pack 0 30;
#X obj 315 194 -~;
#X obj 517 56 r \$0-drywet;
#X obj 517 79 / 50;
#X obj 329 170 clip~ 1 2;
#X obj 315 146 sig~ 2;
#X obj 517 154 clip~ 0 1;
#X obj 254 28 inlet~;
#X connect 0 0 5 0;
#X connect 3 0 7 0;
#X connect 4 0 8 0;
#X connect 5 0 1 0;
#X connect 6 0 2 0;
#X connect 7 0 1 0;
#X connect 8 0 2 0;
#X connect 9 0 14 0;
#X connect 9 0 16 0;
#X connect 10 0 9 0;
#X connect 11 0 6 1;
#X connect 11 0 5 1;
#X connect 12 0 13 0;
#X connect 13 0 10 0;
#X connect 14 0 11 1;
#X connect 15 0 11 0;
#X connect 16 0 8 1;
#X connect 16 0 7 1;
#X connect 17 0 6 0;
#X restore 336 335 pd dry/wet;
#X f 25;
#X connect 4 0 5 0;
#X connect 7 0 15 0;
#X connect 7 0 18 0;
#X connect 10 0 6 0;
#X connect 12 0 18 2;
#X connect 12 1 18 3;
#X connect 14 0 12 0;
#X connect 14 1 12 1;
#X connect 15 0 17 0;
#X connect 15 1 17 1;
#X connect 16 0 15 1;
#X connect 16 0 18 1;
#X connect 17 0 14 0;
#X connect 17 1 14 1;
#X connect 18 0 8 0;
#X connect 18 1 9 0;
#X coords 0 -1 1 1 185 33 1 100 100;
