#N canvas 275 195 911 447 10;
#X obj 103 115 hsl 170 15 0 127 0 0 \$0-visbng \$0-visbngr empty 50
8 2 10 -233017 -233017 -1 0 1;
#N canvas 788 87 567 572 times 0;
#X obj 64 247 until;
#X obj 73 273 f;
#X obj 111 275 + 1;
#X msg 125 228 0;
#X obj 74 384 pow;
#X obj 231 85 t b f;
#X obj 73 191 t b b;
#X obj 73 299 t float float;
#X obj 258 276 moses;
#X obj 290 312 + 1;
#X obj 258 325 abs;
#X obj 258 350 expr 1/$f1;
#X obj 258 301 - 1;
#X obj 258 252 / 10;
#X obj 73 166 del 0;
#X obj 267 174 + 50;
#X obj 267 145 * -0.5;
#X obj 74 428 * 1;
#X obj 67 219 f 12;
#X obj 74 329 / 11;
#X obj 387 76 t b b f;
#X obj 74 454 +;
#X obj 73 86 t b f f;
#X obj 173 187 r \$0-ndelays;
#X obj 173 210 - 1;
#X obj 73 22 r \$0-times-slope;
#X obj 231 17 r \$0-times-curve;
#X obj 387 9 r \$0-times-center;
#X obj 74 519 tabwrite \$0-times;
#X obj 131 454 r \$0-maxdeltime;
#X obj 74 478 clip 0 100;
#X obj 100 64 r \$0-maxdeltime;
#X obj 73 42 / 100;
#X obj 73 65 *;
#X obj 414 54 r \$0-maxdeltime;
#X obj 387 32 / 100;
#X obj 387 55 *;
#X connect 0 0 1 0;
#X connect 1 0 2 0;
#X connect 1 0 7 0;
#X connect 2 0 1 1;
#X connect 3 0 1 1;
#X connect 4 0 17 0;
#X connect 5 0 14 0;
#X connect 5 1 13 0;
#X connect 6 0 18 0;
#X connect 6 1 3 0;
#X connect 7 0 19 0;
#X connect 7 1 28 1;
#X connect 8 0 12 0;
#X connect 8 1 9 0;
#X connect 9 0 4 1;
#X connect 10 0 11 0;
#X connect 11 0 4 1;
#X connect 12 0 10 0;
#X connect 13 0 8 0;
#X connect 14 0 6 0;
#X connect 15 0 21 1;
#X connect 16 0 15 0;
#X connect 17 0 21 0;
#X connect 18 0 0 0;
#X connect 19 0 4 0;
#X connect 20 0 14 0;
#X connect 20 1 15 0;
#X connect 20 2 15 1;
#X connect 21 0 30 0;
#X connect 22 0 14 0;
#X connect 22 1 17 1;
#X connect 22 2 16 0;
#X connect 23 0 18 1;
#X connect 23 0 24 0;
#X connect 24 0 19 1;
#X connect 25 0 32 0;
#X connect 26 0 5 0;
#X connect 27 0 35 0;
#X connect 29 0 30 2;
#X connect 30 0 28 0;
#X connect 31 0 33 1;
#X connect 32 0 33 0;
#X connect 33 0 22 0;
#X connect 34 0 36 1;
#X connect 35 0 36 0;
#X connect 36 0 20 0;
#X restore 686 189 pd times;
#N canvas 482 229 567 515 angles 0;
#X obj 61 208 until;
#X obj 70 234 f;
#X obj 108 236 + 1;
#X msg 122 189 0;
#X obj 71 345 pow;
#X obj 228 46 t b f;
#X obj 70 152 t b b;
#X obj 70 260 t float float;
#X obj 255 237 moses;
#X obj 287 273 + 1;
#X obj 255 286 abs;
#X obj 255 311 expr 1/$f1;
#X obj 255 262 - 1;
#X obj 255 213 / 10;
#X obj 70 127 del 0;
#X obj 264 135 + 50;
#X obj 264 106 * -0.5;
#X obj 71 382 * 1;
#X obj 71 455 tabwrite \$0-angles;
#X obj 70 11 r \$0-angles-slope;
#X obj 228 12 r \$0-angles-curve;
#X obj 64 180 f 12;
#X obj 71 290 / 11;
#X obj 384 11 r \$0-angles-center;
#X obj 384 37 t b b f;
#X obj 71 407 +;
#X obj 70 47 t b f f;
#X obj 170 148 r \$0-ndelays;
#X obj 170 171 - 1;
#X obj 71 431 clip 0 180;
#X connect 0 0 1 0;
#X connect 1 0 2 0;
#X connect 1 0 7 0;
#X connect 2 0 1 1;
#X connect 3 0 1 1;
#X connect 4 0 17 0;
#X connect 5 0 14 0;
#X connect 5 1 13 0;
#X connect 6 0 21 0;
#X connect 6 1 3 0;
#X connect 7 0 22 0;
#X connect 7 1 18 1;
#X connect 8 0 12 0;
#X connect 8 1 9 0;
#X connect 9 0 4 1;
#X connect 10 0 11 0;
#X connect 11 0 4 1;
#X connect 12 0 10 0;
#X connect 13 0 8 0;
#X connect 14 0 6 0;
#X connect 15 0 25 1;
#X connect 16 0 15 0;
#X connect 17 0 25 0;
#X connect 19 0 26 0;
#X connect 20 0 5 0;
#X connect 21 0 0 0;
#X connect 22 0 4 0;
#X connect 23 0 24 0;
#X connect 24 0 14 0;
#X connect 24 1 15 0;
#X connect 24 2 15 1;
#X connect 25 0 29 0;
#X connect 26 0 14 0;
#X connect 26 1 17 1;
#X connect 26 2 16 0;
#X connect 27 0 21 1;
#X connect 27 0 28 0;
#X connect 28 0 22 1;
#X connect 29 0 18 0;
#X restore 686 212 pd angles;
#N canvas 476 298 747 468 stuff 0;
#X obj 410 -1 loadbang;
#X obj 470 92 max 0;
#X obj 470 186 s \$0-ndelays;
#X obj 600 31 r \$0-ndelays;
#X obj 600 73 array size \$0-times;
#X obj 610 94 array size \$0-angles;
#X obj 410 80 max 0;
#X obj 410 207 s \$0-maxdeltime;
#X obj 595 126 r \$0-maxdeltime;
#X obj 658 149 r \$0-ndelays;
#X obj 410 22 t b b;
#X obj 595 224 s \$0-times;
#X obj 410 231 r \$0-maxdeltime;
#X msg 410 254 label \$1ms;
#X obj 410 277 s \$0-maxdelcnv;
#X obj 56 31 loadbang;
#X obj 595 178 pack 100 12;
#X msg 595 201 bounds 0 \$1 \$2 0;
#X obj 56 53 f \$0;
#X obj 31 34 bng 15 250 50 0 empty empty empty 17 7 0 10 -262144 -1
-1;
#X obj 260 342 s \$0-visbngr;
#X obj 242 237 r \$0-visbng;
#X msg 240 314 color 0 0;
#X msg 324 314 color 10 10;
#X obj 242 259 t b;
#X obj 322 289 del 250;
#X obj 206 387 s pd-\$0-twisted-delays~;
#X msg 206 365 relocate 575x175+1+1 1x1+50+60 \, vis 1;
#X obj 470 69 f \$1;
#X obj 410 57 f \$2;
#X obj 548 262 loadbang;
#X obj 548 285 f \$3;
#X obj 547 382 s \$0-setblock;
#N canvas 3 54 617 375 blocksize 0;
#X obj 239 134 i;
#X obj 239 111 t f f;
#X obj 239 155 /;
#X obj 239 175 == 1;
#X obj 184 29 t f f;
#X obj 184 212 spigot;
#X text 274 130 prevent setting blocksizes that are not a power of
2;
#X msg 252 228 blocksize is not a power of 2;
#X obj 184 294 outlet;
#X obj 252 206 sel 0;
#X obj 184 7 inlet;
#X obj 239 90 log 2;
#X obj 212 52 sel 1;
#X obj 212 74 f 1;
#X obj 252 249 print pp.twisted-delays~;
#X connect 0 0 2 0;
#X connect 1 0 0 0;
#X connect 1 1 2 1;
#X connect 2 0 3 0;
#X connect 3 0 5 1;
#X connect 3 0 9 0;
#X connect 4 0 5 0;
#X connect 4 1 12 0;
#X connect 5 0 8 0;
#X connect 7 0 14 0;
#X connect 9 0 7 0;
#X connect 10 0 4 0;
#X connect 11 0 1 0;
#X connect 12 0 13 0;
#X connect 12 1 11 0;
#X connect 13 0 3 0;
#X restore 547 358 pd blocksize;
#X obj 548 308 sel 0;
#X obj 548 331 f 64;
#X obj 470 113 sel 0;
#X obj 470 162 f 1;
#X obj 410 103 sel 0;
#X obj 219 183 print pp.twisted-delays~;
#X msg 219 128 missing argument for max. delay time;
#X obj 410 176 f 1;
#X msg 219 151 missing argument for delay instances;
#X msg 56 78 \; \$1-gain 0 \; \$1-feedbackr 90 \; \$1-crossoverr 7000
\; \$1-dampingr 50 \; \$1-times-curver 0 \; \$1-times-centerr 50 \;
\$1-times-sloper 0 \; \$1-angles-curver -60 \; \$1-angles-sloper -90
\; \$1-angles-centerr 90 \; \$1-drywetr 100 \; \$1-transition 100 \;
;
#X connect 0 0 10 0;
#X connect 1 0 36 0;
#X connect 3 0 4 0;
#X connect 3 0 5 0;
#X connect 6 0 38 0;
#X connect 8 0 16 0;
#X connect 9 0 16 1;
#X connect 10 0 29 0;
#X connect 10 1 28 0;
#X connect 12 0 13 0;
#X connect 13 0 14 0;
#X connect 15 0 18 0;
#X connect 16 0 17 0;
#X connect 17 0 11 0;
#X connect 18 0 43 0;
#X connect 19 0 18 0;
#X connect 21 0 24 0;
#X connect 22 0 20 0;
#X connect 23 0 20 0;
#X connect 24 0 22 0;
#X connect 24 0 25 0;
#X connect 24 0 27 0;
#X connect 25 0 23 0;
#X connect 27 0 26 0;
#X connect 28 0 1 0;
#X connect 29 0 6 0;
#X connect 30 0 31 0;
#X connect 31 0 34 0;
#X connect 33 0 32 0;
#X connect 34 0 35 0;
#X connect 34 1 33 0;
#X connect 35 0 33 0;
#X connect 36 0 37 0;
#X connect 36 0 42 0;
#X connect 36 1 2 0;
#X connect 37 0 2 0;
#X connect 38 0 40 0;
#X connect 38 0 41 0;
#X connect 38 1 7 0;
#X connect 40 0 39 0;
#X connect 41 0 7 0;
#X connect 42 0 39 0;
#X restore 686 167 pd stuff;
#N canvas 50 60 575 175 \$0-twisted-delays~ 0;
#N canvas 216 150 954 485 mask 0;
#X obj 100 100 cnv 15 559 159 empty empty empty 2 2 0 14 -262144 -66577
0;
#X obj 218 201 nbx 4 12 0 100 0 0 \$0-damping \$0-dampingr % 41 7 2
10 -262144 -1 -1 50 256;
#X obj 112 201 hsl 100 12 0 100 0 0 \$0-hfdgui \$0-hfdguir Damping
-2 -6 2 10 -262144 -1 -1 4950 1;
#X msg 46 197 set \$1;
#X obj 218 176 nbx 5 12 0 20000 0 0 \$0-crossover \$0-crossoverr hz.
50 7 2 10 -262144 -1 -1 7000 256;
#X obj 112 176 hsl 100 12 0 1 0 0 \$0-lopgui \$0-lopguir Crossover-Frequency
-2 -6 2 10 -262144 -1 -1 6763 1;
#N canvas 439 215 450 300 map 0;
#X obj 105 33 inlet;
#X msg 105 180 set \$1;
#X obj 105 205 outlet;
#X obj 200 207 outlet;
#X obj 200 41 inlet;
#X obj 105 92 sqrt;
#X obj 104 66 / 15000;
#X obj 200 102 pow 2;
#X obj 200 128 * 15000;
#X connect 0 0 6 0;
#X connect 1 0 2 0;
#X connect 4 0 7 0;
#X connect 5 0 1 0;
#X connect 6 0 5 0;
#X connect 7 0 8 0;
#X connect 8 0 3 0;
#X restore 47 171 pd map;
#X obj 218 150 nbx 4 12 -1e+37 1e+37 0 0 \$0-feedback \$0-feedbackr
% 41 7 2 10 -262144 -1 -1 90 256;
#X obj 112 150 hsl 100 12 0 100 0 0 \$0-fbgui \$0-fbuir Feedback -2
-6 2 10 -262144 -1 -1 8910 1;
#X msg 47 147 set \$1;
#X obj 285 128 cnv 15 152 102 empty empty empty 20 12 0 14 -128992
-66577 0;
#N canvas 3 54 450 300 mask 0;
#X obj 100 100 cnv 15 150 100 empty empty empty 20 12 0 14 -262144
-66577 0;
#N canvas 0 50 450 250 (subpatch) 0;
#X array \$0-times 1 float 3;
#A 0 0.5;
#X coords 0 1 1 0 150 100 1 0 0;
#X restore 100 100 graph;
#X coords 0 -1 1 1 150 100 1 100 100;
#X restore 286 129 pd mask;
#X obj 439 126 cnv 10 10 10 empty \$0-maxdelcnv 1ms 0 5 2 10 -262144
-1 0;
#X obj 440 220 cnv 10 10 10 empty empty 0ms 0 5 2 10 -262144 -1 0;
#X obj 286 112 cnv 10 100 15 empty empty Times 0 5 2 10 -262144 -1
0;
#X obj 285 234 nbx 3 12 0 100 0 0 \$0-times-center \$0-times-centerr
Center 33 7 2 10 -262144 -1 -1 50 256;
#X obj 348 234 nbx 3 12 -1e+24 1e+24 0 0 \$0-times-slope \$0-times-sloper
Slope 33 7 2 10 -262144 -1 -1 0 256;
#X obj 407 234 nbx 3 12 -1e+24 1e+24 0 0 \$0-times-curve \$0-times-curver
Curve 33 7 2 10 -262144 -1 -1 0 256;
#X obj 163 117 cnv 10 10 10 empty empty twisted-delays~ 0 5 2 17 -262144
-162280 0;
#X obj 109 230 nbx 4 12 0 100 0 0 \$0-drywet \$0-drywetr % 41 7 2 10
-262144 -1 -1 100 256;
#X obj 109 218 cnv 10 10 10 empty empty Dry/Wet 0 5 2 10 -262144 -1
0;
#X obj 475 128 cnv 15 152 102 empty empty empty 20 12 0 14 -128992
-66577 0;
#N canvas 3 54 450 300 mask 0;
#X obj 100 100 cnv 15 150 100 empty empty empty 20 12 0 14 -262144
-66577 0;
#N canvas 0 50 450 250 (subpatch) 0;
#X array \$0-angles 1 float 3;
#A 0 135;
#X coords 0 180 1 0 150 100 1 0 0;
#X restore 100 100 graph;
#X coords 0 -1 1 1 150 100 1 100 100;
#X restore 476 129 pd mask;
#X obj 629 174 cnv 10 10 10 empty empty 90° 0 5 2 10 -262144 -1 0
;
#X obj 630 222 cnv 10 10 10 empty empty 0° 0 5 2 10 -262144 -1 0;
#X obj 476 112 cnv 10 100 15 empty empty Angles 0 5 2 10 -262144 -1
0;
#X obj 629 126 cnv 10 10 10 empty empty 180° 0 5 2 10 -262144 -1 0
;
#X obj 475 234 nbx 3 12 -1e+24 1e+24 0 0 \$0-angles-center \$0-angles-centerr
Center 33 7 2 10 -262144 -1 -1 90 256;
#X obj 538 234 nbx 3 12 -1e+24 1e+24 0 0 \$0-angles-slope \$0-angles-sloper
Slope 33 7 2 10 -262144 -1 -1 -90 256;
#X obj 597 234 nbx 3 12 -1e+24 1e+24 0 0 \$0-angles-curve \$0-angles-curver
Curve 33 7 2 10 -262144 -1 -1 -60 256;
#X obj 218 230 nbx 4 12 -1e+37 1e+37 0 0 \$0-gain \$0-gainr db 41 7
2 10 -262144 -1 -1 0 256;
#X obj 218 218 cnv 10 10 10 empty empty Gain 0 5 2 10 -262144 -1 0
;
#X connect 1 0 3 0;
#X connect 2 0 1 0;
#X connect 3 0 2 0;
#X connect 4 0 6 0;
#X connect 5 0 6 1;
#X connect 6 0 5 0;
#X connect 6 1 4 0;
#X connect 7 0 9 0;
#X connect 8 0 7 0;
#X connect 9 0 8 0;
#X coords 0 -1 1 1 560 160 2 100 100;
#X restore 7 7 pd mask;
#X restore 686 142 pd \$0-twisted-delays~;
#N canvas 20 59 925 566 dry/wet 0;
#X obj 53 29 inlet~;
#X obj 304 19 inlet~;
#X obj 355 19 inlet~;
#X obj 184 372 outlet~;
#X obj 259 373 outlet~;
#X obj 53 368 outlet~;
#X obj 124 370 outlet~;
#X obj 409 19 inlet~;
#X obj 463 19 inlet~;
#X obj 409 264 *~;
#X obj 463 266 *~;
#X obj 52 257 *~;
#X obj 123 259 *~;
#X obj 305 263 *~;
#X obj 356 264 *~;
#X obj 184 260 *~;
#X obj 258 259 *~;
#X obj 478 139 line~;
#X obj 478 117 pack 0 30;
#X obj 274 207 -~;
#X obj 478 69 r \$0-drywet;
#X obj 478 92 / 50;
#X obj 288 183 clip~ 1 2;
#X obj 274 159 sig~ 2;
#X obj 478 167 clip~ 0 1;
#X connect 0 0 11 0;
#X connect 0 0 16 0;
#X connect 0 0 15 0;
#X connect 0 0 12 0;
#X connect 1 0 13 0;
#X connect 2 0 14 0;
#X connect 7 0 9 0;
#X connect 8 0 10 0;
#X connect 9 0 3 0;
#X connect 10 0 4 0;
#X connect 11 0 5 0;
#X connect 12 0 6 0;
#X connect 13 0 5 0;
#X connect 14 0 6 0;
#X connect 15 0 3 0;
#X connect 16 0 4 0;
#X connect 17 0 22 0;
#X connect 17 0 24 0;
#X connect 18 0 17 0;
#X connect 19 0 16 1;
#X connect 19 0 15 1;
#X connect 19 0 12 1;
#X connect 19 0 11 1;
#X connect 20 0 21 0;
#X connect 21 0 18 0;
#X connect 22 0 19 1;
#X connect 23 0 19 0;
#X connect 24 0 9 1;
#X connect 24 0 14 1;
#X connect 24 0 13 1;
#X connect 24 0 10 1;
#X restore 337 224 pd dry/wet;
#X f 47;
#X obj 692 39 inlet;
#N canvas 565 80 763 422 in 0;
#X obj 60 20 inlet;
#N canvas 698 546 200 251 route 0;
#X obj 20 20 inlet;
#X obj 30 60 route save recall;
#X obj 30 85 route float;
#X obj 97 111 route float;
#X obj 30 136 s \$0-save;
#X obj 30 108 i;
#X obj 98 133 i;
#X obj 98 161 s \$0-recall;
#X connect 0 0 1 0;
#X connect 1 0 2 0;
#X connect 1 1 3 0;
#X connect 2 0 5 0;
#X connect 3 0 6 0;
#X connect 5 0 4 0;
#X connect 6 0 7 0;
#X restore 135 45 pd route save-recall;
#N canvas 362 125 450 479 recall 0;
#X obj 49 145 outlet;
#N canvas 3 54 450 600 listsplit 0;
#X obj 158 23 inlet;
#X obj 220 87 list length;
#X obj 220 113 until;
#X obj 182 150 f;
#X obj 278 150 + 1;
#X msg 265 111 0;
#X obj 182 226 list store;
#X msg 182 202 get \$1 1;
#X obj 154 367 list split;
#X obj 222 342 f;
#X obj 154 334 list;
#X obj 98 124 list;
#X obj 182 389 list split 1;
#X obj 154 274 t bang bang bang;
#X obj 182 179 t f f;
#X obj 158 48 t l l l b;
#X obj 154 473 outlet;
#X obj 154 440 list trim;
#X obj 163 248 sel |;
#X text 275 197 hacky split list at "|";
#X connect 0 0 15 0;
#X connect 1 0 2 0;
#X connect 2 0 3 0;
#X connect 3 0 4 0;
#X connect 3 0 14 0;
#X connect 4 0 3 1;
#X connect 5 0 3 1;
#X connect 6 0 18 0;
#X connect 7 0 6 0;
#X connect 8 0 17 0;
#X connect 8 1 12 0;
#X connect 9 0 8 1;
#X connect 10 0 8 0;
#X connect 11 0 15 0;
#X connect 12 1 11 0;
#X connect 13 0 10 0;
#X connect 13 1 9 0;
#X connect 13 2 2 1;
#X connect 14 0 7 0;
#X connect 14 1 9 1;
#X connect 15 0 1 0;
#X connect 15 1 10 1;
#X connect 15 2 6 1;
#X connect 15 3 5 0;
#X connect 17 0 16 0;
#X connect 18 0 13 0;
#X restore 49 117 pd listsplit;
#X obj 49 24 r \$0-recall;
#X obj 49 54 pipe 1;
#X obj 221 409 text fromlist \$0-savestates;
#X obj 49 77 text get \$0-savestates;
#X msg 253 246 21;
#X obj 253 269 until;
#X obj 253 292 f;
#X obj 300 295 + 1;
#X obj 253 315 t b f;
#X obj 253 367 text set \$0-savestates;
#X obj 221 114 text tolist \$0-savestates;
#X msg 253 342 list empty_slot;
#X obj 221 160 t a b;
#X obj 151 166 loadbang;
#X obj 221 137 savestate;
#X obj 221 33 text define \$0-savestates;
#X obj 151 189 del 0;
#X msg 298 199 0;
#X obj 253 220 spigot 1;
#X connect 1 0 0 0;
#X connect 2 0 3 0;
#X connect 3 0 5 0;
#X connect 5 0 1 0;
#X connect 6 0 7 0;
#X connect 7 0 8 0;
#X connect 8 0 9 0;
#X connect 8 0 10 0;
#X connect 9 0 8 1;
#X connect 10 0 13 0;
#X connect 10 1 11 1;
#X connect 12 0 16 0;
#X connect 13 0 11 0;
#X connect 14 0 4 0;
#X connect 14 1 19 0;
#X connect 15 0 18 0;
#X connect 16 0 14 0;
#X connect 16 1 12 0;
#X connect 18 0 20 0;
#X connect 19 0 20 1;
#X connect 20 0 6 0;
#X restore 135 67 pd recall;
#X obj 60 231 s \$0-drywetr;
#X obj 79 254 s \$0-feedbackr;
#X obj 101 276 s \$0-crossoverr;
#X obj 125 300 s \$0-dampingr;
#X obj 159 227 s \$0-times-centerr;
#X obj 183 253 s \$0-times-sloper;
#X obj 208 279 s \$0-times-curver;
#X obj 278 226 s \$0-angles-centerr;
#X obj 296 251 s \$0-angles-sloper;
#X obj 321 277 s \$0-angles-curver;
#X obj 410 224 s \$0-transition;
#X obj 450 296 s \$0-setblock;
#X obj 538 214 array set \$0-times;
#X obj 526 98 route times angles;
#X obj 538 191 list;
#X obj 526 148 t b a;
#X obj 526 171 del 1;
#X obj 590 165 list;
#X obj 578 122 t b a;
#X obj 578 145 del 1;
#X obj 590 188 array set \$0-angles;
#X obj 60 96 route dry/wet feedback crossover-frequency damping times-center
times-slope times-curve angles-center angles-slope angles-curve transition-time
setblock gain;
#X obj 439 195 s \$0-gainr;
#X obj 450 249 change;
#N canvas 3 57 617 375 blocksize 0;
#X obj 184 76 t f f;
#X obj 184 212 spigot;
#X text 249 141 prevent setting blocksizes that are not a power of
2;
#X msg 244 244 blocksize is not a power of 2;
#X obj 184 294 outlet;
#X obj 244 222 sel 0;
#X obj 184 54 inlet;
#X obj 244 265 print pp.fft-gate~;
#X obj 217 122 expr (($f1-1) & $f1) == 0;
#X connect 0 0 1 0;
#X connect 0 1 8 0;
#X connect 1 0 4 0;
#X connect 3 0 7 0;
#X connect 5 0 3 0;
#X connect 6 0 0 0;
#X connect 8 0 1 1;
#X connect 8 0 5 0;
#X restore 450 271 pd blocksize;
#X connect 0 0 1 0;
#X connect 0 0 24 0;
#X connect 2 0 24 0;
#X connect 16 0 18 0;
#X connect 16 1 21 0;
#X connect 17 0 15 0;
#X connect 18 0 19 0;
#X connect 18 1 17 1;
#X connect 19 0 17 0;
#X connect 20 0 23 0;
#X connect 21 0 22 0;
#X connect 21 1 20 1;
#X connect 22 0 20 0;
#X connect 24 0 3 0;
#X connect 24 1 4 0;
#X connect 24 2 5 0;
#X connect 24 3 6 0;
#X connect 24 4 7 0;
#X connect 24 5 8 0;
#X connect 24 6 9 0;
#X connect 24 7 10 0;
#X connect 24 8 11 0;
#X connect 24 9 12 0;
#X connect 24 10 13 0;
#X connect 24 11 26 0;
#X connect 24 12 25 0;
#X connect 24 13 16 0;
#X connect 26 0 27 0;
#X connect 27 0 14 0;
#X restore 692 62 pd in;
#X obj 687 284 outlet;
#X obj 337 47 inlet~;
#X obj 337 280 outlet~;
#X obj 430 281 outlet~;
#X obj 523 283 outlet~;
#X obj 616 281 outlet~;
#N canvas 353 147 751 500 outlet-message 0;
#X obj 414 62 r \$0-transition;
#X obj 439 85 r \$0-setblock;
#X obj 366 19 r \$0-angles-curve;
#X obj 340 109 r \$0-angles-slope;
#X obj 315 86 r \$0-angles-center;
#X obj 290 63 r \$0-times-curve;
#X obj 265 41 r \$0-times-slope;
#X obj 241 16 r \$0-times-center;
#X obj 216 92 r \$0-damping;
#X obj 191 70 r \$0-crossover;
#X obj 166 47 r \$0-feedback;
#X obj 142 24 r \$0-drywet;
#X obj 349 439 list trim;
#X msg 269 437 addcomma;
#X msg 68 417 set;
#X obj 349 416 list prepend add2;
#X obj 212 497 outlet;
#X obj 330 359 t b a a;
#N canvas 497 403 297 264 save 0;
#X obj 48 16 inlet;
#N canvas 690 259 481 384 collect 0;
#X obj 47 60 inlet;
#X obj 47 274 outlet;
#X obj 98 180 list;
#X obj 166 181 t l;
#X obj 47 225 list;
#X obj 98 139 list append |;
#X obj 47 126 del 0;
#X obj 47 82 t b a;
#X text 119 75 hacky thing... replaycing " \, " with "|";
#X connect 0 0 7 0;
#X connect 2 0 3 0;
#X connect 2 0 4 1;
#X connect 3 0 2 1;
#X connect 4 0 1 0;
#X connect 5 0 2 0;
#X connect 6 0 2 1;
#X connect 6 0 4 0;
#X connect 7 0 6 0;
#X connect 7 1 5 0;
#X restore 48 38 pd collect;
#X obj 117 16 r \$0-save;
#X obj 27 130 text set \$0-savestates;
#X obj 27 104 list;
#X obj 117 62 t b f;
#X obj 117 39 clip 0 20;
#X connect 0 0 1 0;
#X connect 1 0 4 1;
#X connect 2 0 6 0;
#X connect 4 0 3 0;
#X connect 5 0 4 0;
#X connect 5 1 3 1;
#X connect 6 0 5 0;
#X restore 369 384 pd save;
#N canvas 153 379 986 300 bang_once..................................
0;
#X obj 132 54 t b f;
#X obj 89 139 del 0;
#X obj 89 54 t b f;
#X obj 175 56 t b f;
#X obj 89 8 inlet;
#X obj 132 7 inlet;
#X obj 175 9 inlet;
#X obj 89 247 outlet;
#X obj 89 173 f;
#X obj 221 56 t b f;
#X obj 221 9 inlet;
#X obj 312 55 t b f;
#X obj 269 55 t b f;
#X obj 355 55 t b f;
#X obj 269 9 inlet;
#X obj 312 8 inlet;
#X obj 355 10 inlet;
#X obj 401 55 t b f;
#X obj 401 10 inlet;
#X obj 89 203 pack 0 0 0 0 0 0 0 0 0 0 0 0 0;
#X obj 489 54 t b f;
#X obj 446 54 t b f;
#X obj 532 54 t b f;
#X obj 446 8 inlet;
#X obj 489 7 inlet;
#X obj 532 9 inlet;
#X obj 578 54 t b f;
#X obj 578 9 inlet;
#X obj 625 55 t b f;
#X obj 625 10 inlet;
#X connect 0 0 1 0;
#X connect 0 1 19 1;
#X connect 1 0 8 0;
#X connect 2 0 1 0;
#X connect 2 1 8 1;
#X connect 3 0 1 0;
#X connect 3 1 19 2;
#X connect 4 0 2 0;
#X connect 5 0 0 0;
#X connect 6 0 3 0;
#X connect 8 0 19 0;
#X connect 9 0 1 0;
#X connect 9 1 19 3;
#X connect 10 0 9 0;
#X connect 11 0 1 0;
#X connect 11 1 19 5;
#X connect 12 0 1 0;
#X connect 12 1 19 4;
#X connect 13 0 1 0;
#X connect 13 1 19 6;
#X connect 14 0 12 0;
#X connect 15 0 11 0;
#X connect 16 0 13 0;
#X connect 17 0 1 0;
#X connect 17 1 19 7;
#X connect 18 0 17 0;
#X connect 19 0 7 0;
#X connect 20 0 1 0;
#X connect 20 1 19 9;
#X connect 21 0 1 0;
#X connect 21 1 19 8;
#X connect 22 0 1 0;
#X connect 22 1 19 10;
#X connect 23 0 21 0;
#X connect 24 0 20 0;
#X connect 25 0 22 0;
#X connect 26 0 1 0;
#X connect 26 1 19 11;
#X connect 27 0 26 0;
#X connect 28 0 1 0;
#X connect 28 1 19 12;
#X connect 29 0 28 0;
#X restore 142 154 pd bang_once..................................;
#X f 50;
#X obj 157 216 array get \$0-times;
#X obj 280 215 array get \$0-angles;
#X obj 156 237 list prepend times;
#X obj 142 182 t b b b a b;
#X obj 280 237 list prepend angles;
#X obj 33 31 loadbang;
#X obj 33 54 metro 1000;
#X obj 389 41 r \$0-gain;
#X msg 330 295 dry/wet \$1 \, feedback \$2 \, crossover-frequency \$3
\, damping \$4 \, times-center \$5 \, times-slope \$6 \, times-curve
\$7 \, angles-center \$8 \, angles-slope \$9 \, angles-curve \$10 \,
gain \$11 \, transition-time \$12 \, setblock \$13;
#X obj 142 123 f 100;
#X connect 0 0 19 11;
#X connect 1 0 19 12;
#X connect 2 0 19 9;
#X connect 3 0 19 8;
#X connect 4 0 19 7;
#X connect 5 0 19 6;
#X connect 6 0 19 5;
#X connect 7 0 19 4;
#X connect 8 0 19 3;
#X connect 9 0 19 2;
#X connect 10 0 19 1;
#X connect 11 0 29 0;
#X connect 12 0 16 0;
#X connect 13 0 16 0;
#X connect 14 0 16 0;
#X connect 15 0 12 0;
#X connect 17 0 13 0;
#X connect 17 1 15 0;
#X connect 17 2 18 0;
#X connect 19 0 23 0;
#X connect 20 0 22 0;
#X connect 21 0 24 0;
#X connect 22 0 17 0;
#X connect 23 0 16 0;
#X connect 23 1 20 0;
#X connect 23 2 21 0;
#X connect 23 3 28 0;
#X connect 23 4 14 0;
#X connect 24 0 17 0;
#X connect 25 0 26 0;
#X connect 26 0 29 0;
#X connect 27 0 19 10;
#X connect 28 0 17 0;
#X connect 29 0 19 0;
#X restore 687 261 pd outlet-message;
#X obj 617 47 inlet~;
#X obj 617 94 /~ 360;
#X obj 511 45 inlet~;
#X text 691 335 philipp schmalfuß \, 2019;
#N canvas 2 57 681 300 gain 0;
#X obj 54 62 inlet~;
#X obj 55 229 outlet~;
#X obj 113 63 inlet~;
#X obj 114 230 outlet~;
#X obj 175 62 inlet~;
#X obj 176 229 outlet~;
#X obj 239 63 inlet~;
#X obj 240 230 outlet~;
#X obj 338 32 r \$0-gain;
#X obj 338 56 + 100;
#X obj 338 79 dbtorms;
#X obj 395 78 r \$0-transition;
#X obj 338 102 pack 0 100;
#X obj 338 125 line~;
#X obj 240 177 *~;
#X obj 176 176 *~;
#X obj 114 177 *~;
#X obj 55 176 *~;
#X connect 0 0 17 0;
#X connect 2 0 16 0;
#X connect 4 0 15 0;
#X connect 6 0 14 0;
#X connect 8 0 9 0;
#X connect 9 0 10 0;
#X connect 10 0 12 0;
#X connect 11 0 12 1;
#X connect 12 0 13 0;
#X connect 13 0 14 1;
#X connect 13 0 15 1;
#X connect 13 0 16 1;
#X connect 13 0 17 1;
#X connect 14 0 7 0;
#X connect 15 0 5 0;
#X connect 16 0 3 0;
#X connect 17 0 1 0;
#X restore 404 194 pd gain;
#X f 36;
#X obj 404 165 pp.twisted-delays~-abs \$0 \$1 \$1 \$2 1;
#X connect 5 0 10 0;
#X connect 5 1 11 0;
#X connect 5 2 12 0;
#X connect 5 3 13 0;
#X connect 6 0 7 0;
#X connect 9 0 5 0;
#X connect 9 0 20 0;
#X connect 14 0 8 0;
#X connect 15 0 16 0;
#X connect 16 0 20 2;
#X connect 17 0 20 1;
#X connect 19 0 5 1;
#X connect 19 1 5 2;
#X connect 19 2 5 3;
#X connect 19 3 5 4;
#X connect 20 0 19 0;
#X connect 20 1 19 1;
#X connect 20 2 19 2;
#X connect 20 3 19 3;
#X coords 0 -1 1 1 175 33 1 100 100;
