#N canvas 297 110 863 612 10;
#N canvas 84 279 738 366 create 0;
#X obj 197 -15 loadbang;
#X obj 197 49 f \$2;
#X obj 197 72 - 1;
#X obj 197 95 t f f;
#X obj 209 196 f;
#X obj 148 153 sel 0 1;
#X obj 148 130 > 0;
#X msg 92 223 connect 0 0 1 0;
#X obj 209 318 s pd-\$0-matryoshka;
#X obj 256 -14 r \$1-\$2-\$5-loadbang;
#X obj 209 220 pack f \$1 \$3 \$4 \$5;
#X msg 209 252 obj 100 100 pp.twisted-delays~-abs \$2 \$1 \$3 \$4 \$5
\, connect 0 0 6 0 \, connect 2 0 6 1 \, connect 5 0 6 2 \, connect
6 0 1 0 \, connect 6 1 3 0 \, connect 6 2 4 0 \; \$2-\$1-\$5-loadbang
bang;
#X connect 0 0 1 0;
#X connect 1 0 2 0;
#X connect 2 0 3 0;
#X connect 3 0 6 0;
#X connect 3 1 4 1;
#X connect 4 0 10 0;
#X connect 5 0 7 0;
#X connect 5 1 4 0;
#X connect 6 0 5 0;
#X connect 7 0 8 0;
#X connect 9 0 1 0;
#X connect 10 0 11 0;
#X connect 11 0 8 0;
#X restore 710 44 pd create;
#X obj 253 26 sig~ \$2;
#X obj 195 22 sig~ \$3;
#X obj 195 42 -~;
#X obj 98 44 inlet~;
#X obj 376 160 lop~ 1;
#X obj 196 116 lop~ 1;
#X obj 710 118 block~ 64;
#X obj 710 72 r \$1-setblock;
#X msg 710 95 set \$1;
#X obj 376 212 +~;
#X obj 532 144 inlet~;
#X obj 293 524 outlet~;
#N canvas 2 54 450 408 rotate 0;
#X obj 67 223 *~;
#X obj 125 223 *~;
#X obj 66 262 -~;
#X obj 263 227 *~;
#X obj 330 222 *~;
#X obj 262 265 +~;
#X obj 346 91 cos~;
#X obj 277 71 -~ 0.25;
#X obj 277 94 cos~;
#X obj 68 37 inlet~;
#X obj 346 29 inlet~;
#X obj 66 285 outlet~;
#X obj 263 287 outlet~;
#X obj 125 36 inlet~;
#X connect 0 0 2 0;
#X connect 1 0 2 1;
#X connect 2 0 11 0;
#X connect 3 0 5 0;
#X connect 4 0 5 1;
#X connect 5 0 12 0;
#X connect 6 0 0 1;
#X connect 6 0 4 1;
#X connect 7 0 8 0;
#X connect 8 0 3 1;
#X connect 8 0 1 1;
#X connect 9 0 0 0;
#X connect 9 0 3 0;
#X connect 10 0 7 0;
#X connect 10 0 6 0;
#X connect 13 0 1 0;
#X connect 13 0 4 0;
#X restore 97 312 pd rotate;
#X f 33;
#X obj 482 421 *~;
#N canvas 2 54 450 300 softclip 0;
#X obj 139 67 inlet~;
#X obj 139 201 outlet~;
#N canvas 8 77 638 300 clean 0;
#X obj 202 83 inlet~;
#X obj 202 134 outlet~;
#X obj 309 83 loadbang;
#X obj 333 106 r \$1-\$2-loadbang;
#X msg 309 139 1;
#X obj 297 163 switch~;
#X obj 297 11 r \$1-feedback;
#X obj 297 56 <= 100;
#X obj 297 34 abs;
#X connect 0 0 1 0;
#X connect 2 0 4 0;
#X connect 3 0 4 0;
#X connect 4 0 5 0;
#X connect 6 0 8 0;
#X connect 7 0 5 0;
#X connect 8 0 7 0;
#X restore 139 130 pd clean;
#N canvas 357 239 450 300 softclip 0;
#X obj 139 67 inlet~;
#X obj 139 201 outlet~;
#X obj 139 139 expr~ tanh($v1);
#X obj 297 8 r \$1-feedback;
#X obj 297 56 > 100;
#X obj 341 55 loadbang;
#X obj 365 78 r \$1-\$2-loadbang;
#X msg 341 111 0;
#X obj 297 136 switch~;
#X obj 297 31 abs;
#X connect 0 0 2 0;
#X connect 2 0 1 0;
#X connect 3 0 9 0;
#X connect 4 0 8 0;
#X connect 5 0 7 0;
#X connect 6 0 7 0;
#X connect 7 0 8 0;
#X connect 9 0 4 0;
#X restore 219 131 pd softclip;
#X connect 0 0 2 0;
#X connect 0 0 3 0;
#X connect 2 0 1 0;
#X connect 3 0 1 0;
#X restore 194 283 pd softclip;
#X obj 195 71 tabread~ \$1-times;
#X obj 376 59 tabread~ \$1-angles;
#X obj 507 76 expr 1000/$f1;
#X obj 507 54 r \$1-transition;
#X obj 350 525 outlet~;
#X obj 96 520 outlet~;
#X obj 409 526 outlet~;
#X obj 495 494 -~;
#X obj 495 518 *~;
#X obj 481 544 +~;
#X obj 524 493 r \$1-damping;
#X obj 549 463 r \$1-crossover;
#X obj 487 463 lop~ 5000;
#X obj 376 81 /~ 360;
#X obj 524 516 / 100;
#N canvas 579 130 450 300 \$0-matryoshka 0;
#X obj 101 29 inlet~;
#X obj 101 189 outlet~;
#X obj 191 28 inlet~;
#X obj 194 189 outlet~;
#X obj 286 189 outlet~;
#X obj 288 28 inlet~;
#X restore 292 381 pd \$0-matryoshka;
#X f 20;
#X obj 194 260 delread4~ \$0-del;
#X obj 481 567 delwrite~ \$0-del \$4;
#X obj 195 217 +~;
#X obj 639 140 inlet~;
#X obj 638 247 delwrite~ \$0-rotate \$4;
#X obj 409 315 delread4~ \$0-rotate;
#X obj 532 275 delwrite~ \$0-t \$4;
#X obj 351 339 delread4~ \$0-t;
#X obj 497 375 r \$1-feedback;
#X obj 497 397 / 100;
#X obj 507 98 clip 0 20000;
#X connect 1 0 3 1;
#X connect 2 0 3 0;
#X connect 3 0 16 0;
#X connect 3 0 17 0;
#X connect 4 0 13 0;
#X connect 5 0 10 0;
#X connect 6 0 34 0;
#X connect 6 0 37 0;
#X connect 6 0 39 0;
#X connect 8 0 9 0;
#X connect 9 0 7 0;
#X connect 10 0 13 2;
#X connect 11 0 38 0;
#X connect 11 0 34 1;
#X connect 13 0 21 0;
#X connect 13 1 31 0;
#X connect 14 0 23 1;
#X connect 14 0 25 0;
#X connect 14 0 28 0;
#X connect 15 0 13 1;
#X connect 16 0 6 0;
#X connect 17 0 29 0;
#X connect 18 0 42 0;
#X connect 19 0 18 0;
#X connect 23 0 24 0;
#X connect 24 0 25 1;
#X connect 25 0 33 0;
#X connect 26 0 30 0;
#X connect 27 0 28 1;
#X connect 28 0 23 0;
#X connect 29 0 5 0;
#X connect 30 0 24 1;
#X connect 31 0 12 0;
#X connect 31 0 14 0;
#X connect 31 1 20 0;
#X connect 31 2 22 0;
#X connect 32 0 15 0;
#X connect 34 0 32 0;
#X connect 35 0 36 0;
#X connect 35 0 10 1;
#X connect 37 0 31 2;
#X connect 39 0 31 1;
#X connect 40 0 41 0;
#X connect 41 0 14 1;
#X connect 42 0 5 1;
#X connect 42 0 6 1;
