#N canvas 297 110 947 612 10;
#N canvas 84 279 738 366 create 0;
#X obj 197 -15 loadbang;
#X obj 197 49 f \$2;
#X obj 197 72 - 1;
#X obj 197 95 t f f;
#X obj 209 196 f;
#X obj 148 153 sel 0 1;
#X obj 148 130 > 0;
#X msg 92 223 connect 0 0 1 0;
#X obj 209 318 s pd-\$0-matryoshka;
#X obj 256 -14 r \$1-\$2-\$5-loadbang;
#X obj 209 220 pack f \$1 \$3 \$4 \$5;
#X msg 209 252 obj 100 100 pp.twisted-delays~-abs \$2 \$1 \$3 \$4 \$5
\, connect 0 0 6 0 \, connect 2 0 6 1 \, connect 5 0 6 2 \, connect
6 0 1 0 \, connect 6 1 3 0 \, connect 6 2 4 0 \; \$2-\$1-\$5-loadbang
bang;
#X connect 0 0 1 0;
#X connect 1 0 2 0;
#X connect 2 0 3 0;
#X connect 3 0 6 0;
#X connect 3 1 4 1;
#X connect 4 0 10 0;
#X connect 5 0 7 0;
#X connect 5 1 4 0;
#X connect 6 0 5 0;
#X connect 7 0 8 0;
#X connect 9 0 1 0;
#X connect 10 0 11 0;
#X connect 11 0 8 0;
#X restore 710 38 pd create;
#X obj 97 38 inlet~;
#X obj 710 112 block~ 64;
#X obj 710 66 r \$1-setblock;
#X msg 710 89 set \$1;
#X obj 376 273 +~;
#X obj 532 205 inlet~;
#X obj 293 585 outlet~;
#N canvas 2 54 450 408 rotate 0;
#X obj 67 223 *~;
#X obj 125 223 *~;
#X obj 66 262 -~;
#X obj 263 227 *~;
#X obj 330 222 *~;
#X obj 262 265 +~;
#X obj 346 91 cos~;
#X obj 277 71 -~ 0.25;
#X obj 277 94 cos~;
#X obj 68 37 inlet~;
#X obj 346 29 inlet~;
#X obj 66 285 outlet~;
#X obj 263 287 outlet~;
#X obj 125 36 inlet~;
#X connect 0 0 2 0;
#X connect 1 0 2 1;
#X connect 2 0 11 0;
#X connect 3 0 5 0;
#X connect 4 0 5 1;
#X connect 5 0 12 0;
#X connect 6 0 0 1;
#X connect 6 0 4 1;
#X connect 7 0 8 0;
#X connect 8 0 3 1;
#X connect 8 0 1 1;
#X connect 9 0 0 0;
#X connect 9 0 3 0;
#X connect 10 0 7 0;
#X connect 10 0 6 0;
#X connect 13 0 1 0;
#X connect 13 0 4 0;
#X restore 97 373 pd rotate;
#X f 33;
#X obj 482 482 *~;
#N canvas 2 54 450 300 softclip 0;
#X obj 139 67 inlet~;
#X obj 139 201 outlet~;
#N canvas 8 77 638 300 clean 0;
#X obj 202 83 inlet~;
#X obj 202 134 outlet~;
#X obj 309 83 loadbang;
#X obj 333 106 r \$1-\$2-loadbang;
#X msg 309 139 1;
#X obj 297 163 switch~;
#X obj 297 11 r \$1-feedback;
#X obj 297 56 <= 100;
#X obj 297 34 abs;
#X connect 0 0 1 0;
#X connect 2 0 4 0;
#X connect 3 0 4 0;
#X connect 4 0 5 0;
#X connect 6 0 8 0;
#X connect 7 0 5 0;
#X connect 8 0 7 0;
#X restore 139 130 pd clean;
#N canvas 357 239 450 300 softclip 0;
#X obj 139 67 inlet~;
#X obj 139 201 outlet~;
#X obj 139 139 expr~ tanh($v1);
#X obj 297 8 r \$1-feedback;
#X obj 297 56 > 100;
#X obj 341 55 loadbang;
#X obj 365 78 r \$1-\$2-loadbang;
#X msg 341 111 0;
#X obj 297 136 switch~;
#X obj 297 31 abs;
#X connect 0 0 2 0;
#X connect 2 0 1 0;
#X connect 3 0 9 0;
#X connect 4 0 8 0;
#X connect 5 0 7 0;
#X connect 6 0 7 0;
#X connect 7 0 8 0;
#X connect 9 0 4 0;
#X restore 219 131 pd softclip;
#X connect 0 0 2 0;
#X connect 0 0 3 0;
#X connect 2 0 1 0;
#X connect 3 0 1 0;
#X restore 194 344 pd softclip;
#X obj 364 160 r \$1-transition;
#X obj 350 586 outlet~;
#X obj 96 581 outlet~;
#X obj 409 587 outlet~;
#X obj 495 555 -~;
#X obj 495 579 *~;
#X obj 481 605 +~;
#X obj 673 494 r \$1-damping;
#X obj 672 403 r \$1-crossover;
#N canvas 579 130 450 300 \$0-matryoshka 0;
#X obj 101 29 inlet~;
#X obj 101 189 outlet~;
#X obj 191 28 inlet~;
#X obj 194 189 outlet~;
#X obj 286 189 outlet~;
#X obj 288 28 inlet~;
#X restore 292 442 pd \$0-matryoshka;
#X f 20;
#X obj 194 321 delread4~ \$0-del;
#X obj 481 628 delwrite~ \$0-del \$4;
#X obj 195 278 +~;
#X obj 639 201 inlet~;
#X obj 638 308 delwrite~ \$0-rotate \$4;
#X obj 409 376 delread4~ \$0-rotate;
#X obj 532 336 delwrite~ \$0-t \$4;
#X obj 351 400 delread4~ \$0-t;
#X obj 510 415 r \$1-feedback;
#X obj 510 437 / 100;
#X obj 195 -3 bang~;
#X obj 195 45 f \$3;
#X obj 228 45 f \$2;
#X obj 195 20 t b b;
#X obj 195 69 -;
#X obj 195 92 t f f, f 20;
#X obj 195 125 tabread \$1-times;
#X obj 313 117 tabread \$1-angles;
#X obj 313 166 / 360;
#X obj 195 205 line~;
#X obj 313 216 line~;
#X obj 510 481 line~;
#X obj 561 437 r \$1-transition;
#X obj 673 518 / 100;
#X obj 673 562 line~;
#X obj 724 518 r \$1-transition;
#X obj 510 459 pack 0 50;
#X obj 673 540 pack 0 50;
#X obj 313 194 pack 0 50;
#X obj 195 182 pack 0 50;
#X obj 195 152 change;
#X obj 313 141 change;
#N canvas 2 54 718 581 lop 0;
#X obj 375 305 clip~ 0 1;
#X obj 374 264 *~;
#N canvas 3 52 450 300 samplerate 0;
#X obj 230 123 outlet;
#X obj 230 96 samplerate~;
#X obj 230 75 r pd-dsp-started;
#X connect 1 0 0 0;
#X connect 2 0 1 0;
#X restore 391 198 pd samplerate;
#X obj 290 243 sig~ 1;
#X obj 290 266 -~;
#X obj 257 292 rpole~;
#X obj 374 285 *~ 6.28319;
#X obj 256 317 *~;
#X obj 257 97 inlet~;
#X obj 373 99 inlet~;
#X obj 255 439 outlet~;
#X obj 374 166 clip~ 1 20000;
#X obj 391 220 swap 1;
#X obj 391 243 /;
#X connect 0 0 4 1;
#X connect 0 0 7 1;
#X connect 1 0 6 0;
#X connect 2 0 12 0;
#X connect 3 0 4 0;
#X connect 4 0 5 1;
#X connect 5 0 7 0;
#X connect 6 0 0 0;
#X connect 7 0 10 0;
#X connect 8 0 5 0;
#X connect 9 0 11 0;
#X connect 11 0 1 0;
#X connect 12 0 13 0;
#X connect 12 1 13 1;
#X connect 13 0 1 1;
#X restore 495 533 pd lop;
#X obj 672 469 line~;
#X obj 723 425 r \$1-transition;
#X obj 672 447 pack 0 50;
#X connect 1 0 8 0;
#X connect 3 0 4 0;
#X connect 4 0 2 0;
#X connect 5 0 8 2;
#X connect 6 0 27 0;
#X connect 6 0 23 1;
#X connect 8 0 13 0;
#X connect 8 1 20 0;
#X connect 9 0 15 1;
#X connect 9 0 17 0;
#X connect 9 0 53 0;
#X connect 10 0 8 1;
#X connect 11 0 49 1;
#X connect 11 0 50 1;
#X connect 15 0 16 0;
#X connect 16 0 17 1;
#X connect 17 0 22 0;
#X connect 18 0 44 0;
#X connect 19 0 56 0;
#X connect 20 0 7 0;
#X connect 20 0 9 0;
#X connect 20 1 12 0;
#X connect 20 2 14 0;
#X connect 21 0 10 0;
#X connect 23 0 21 0;
#X connect 24 0 25 0;
#X connect 24 0 5 1;
#X connect 26 0 20 2;
#X connect 28 0 20 1;
#X connect 29 0 30 0;
#X connect 30 0 47 0;
#X connect 31 0 34 0;
#X connect 32 0 35 0;
#X connect 33 0 35 1;
#X connect 34 0 32 0;
#X connect 34 1 33 0;
#X connect 35 0 36 0;
#X connect 36 0 37 0;
#X connect 36 1 38 0;
#X connect 37 0 51 0;
#X connect 38 0 52 0;
#X connect 39 0 49 0;
#X connect 40 0 26 0;
#X connect 40 0 28 0;
#X connect 40 0 23 0;
#X connect 41 0 5 0;
#X connect 42 0 9 1;
#X connect 43 0 47 1;
#X connect 44 0 48 0;
#X connect 45 0 16 1;
#X connect 46 0 48 1;
#X connect 47 0 42 0;
#X connect 48 0 45 0;
#X connect 49 0 41 0;
#X connect 50 0 40 0;
#X connect 51 0 50 0;
#X connect 52 0 39 0;
#X connect 53 0 15 0;
#X connect 54 0 53 1;
#X connect 55 0 56 1;
#X connect 56 0 54 0;
