#N canvas 30 107 1081 660 10;
#X obj 409 96 pack f 20;
#X obj 409 121 line~;
#X obj 600 126 pack f 20;
#X obj 600 152 line~;
#N canvas 320 217 450 300 q 0;
#X obj 97 103 inlet~;
#X obj 97 156 dbtorms~;
#X obj 97 133 +~ 100;
#X obj 97 177 outlet~;
#X obj 200 113 switch~ 0;
#X obj 200 70 r \$0-filtertype;
#X obj 200 92 < 3;
#X connect 0 0 2 0;
#X connect 1 0 3 0;
#X connect 2 0 1 0;
#X connect 5 0 6 0;
#X connect 6 0 4 0;
#X restore 674 267 pd q;
#N canvas 312 199 773 599 stuff 0;
#X obj 132 59 r \$0-filtertype;
#X obj 132 304 s \$0-filtertyper;
#X msg 133 105 Lowpass;
#X msg 147 126 Highpass;
#X msg 165 150 Reson;
#X obj 132 262 symbol;
#X msg 132 283 label \$1;
#X obj 250 57 loadbang;
#X obj 249 160 pack 0 \$0;
#X obj 249 77 symbol \$1;
#X msg 249 119 0;
#X msg 277 121 1;
#X msg 309 121 2;
#X obj 148 323 s \$0-visbngr;
#X obj 170 476 s \$0-visbngr;
#X obj 152 371 r \$0-visbng;
#X msg 150 448 color 0 0;
#X msg 234 448 color 10 10;
#X obj 152 393 t b;
#X obj 232 423 del 250;
#X obj 116 525 s pd-\$0-vcfilter;
#X obj 249 98 sel lowpass highpass reson;
#X obj 366 123 t b;
#X obj 133 84 sel 0 1 2;
#X msg 116 503 relocate 230x95+1+1 1x1+50+50 \, vis 1;
#X msg 249 181 \; \$2-filtertyper \$1 \; \$2-qr 0 \;;
#X connect 0 0 23 0;
#X connect 2 0 5 0;
#X connect 3 0 5 0;
#X connect 4 0 5 0;
#X connect 5 0 6 0;
#X connect 6 0 1 0;
#X connect 6 0 13 0;
#X connect 7 0 9 0;
#X connect 8 0 25 0;
#X connect 9 0 21 0;
#X connect 10 0 8 0;
#X connect 11 0 8 0;
#X connect 12 0 8 0;
#X connect 15 0 18 0;
#X connect 16 0 14 0;
#X connect 17 0 14 0;
#X connect 18 0 16 0;
#X connect 18 0 19 0;
#X connect 18 0 24 0;
#X connect 19 0 17 0;
#X connect 21 0 10 0;
#X connect 21 1 11 0;
#X connect 21 2 12 0;
#X connect 21 3 22 0;
#X connect 22 0 8 0;
#X connect 23 0 2 0;
#X connect 23 1 3 0;
#X connect 23 2 4 0;
#X connect 24 0 20 0;
#X restore 837 228 pd stuff;
#X obj 408 75 r \$0-freq;
#X obj 600 79 r \$0-q;
#X obj 341 46 inlet~;
#N canvas 50 87 230 95 \$0-vcfilter 0;
#N canvas 172 254 714 345 mask 0;
#X obj 100 100 cnv 15 219 89 empty empty empty 20 12 0 14 -262144 -66577
0;
#X obj 107 108 hradio 11 1 0 3 \$0-filtertype \$0-filtertyper Lowpass
39 6 2 10 -262144 -1 -1 0;
#X obj 110 138 hsl 128 12 0 135.076 0 0 \$0-fgui \$0-fguir Frequency
-2 -6 2 10 -262144 -1 -1 0 1;
#X obj 244 138 nbx 5 12 8 20050 0 0 \$0-freq \$0-freqr hz 47 7 2 10
-262144 -1 -1 8 256;
#N canvas 1 57 450 300 map 0;
#X obj 93 33 inlet;
#X obj 192 54 inlet;
#X obj 94 160 outlet;
#X obj 192 127 outlet;
#X obj 93 75 mtof;
#X obj 94 119 i;
#X obj 192 81 ftom;
#X msg 192 102 set \$1;
#X msg 94 140 set \$1;
#X obj 23 153 s \$0-freq;
#X obj 93 97 + 0.5;
#X connect 0 0 4 0;
#X connect 1 0 6 0;
#X connect 4 0 10 0;
#X connect 5 0 8 0;
#X connect 5 0 9 0;
#X connect 6 0 7 0;
#X connect 7 0 3 0;
#X connect 8 0 2 0;
#X connect 10 0 5 0;
#X restore 47 136 pd map;
#X obj 110 164 hsl 128 12 -3 24 0 0 \$0-qgui \$0-qguir Q -2 -7 2 10
-262144 -1 -1 1411 1;
#X obj 244 164 nbx 5 12 -99 100 0 0 \$0-q \$0-qr db 47 7 2 10 -262144
-1 -1 0 256;
#N canvas 0 50 450 300 map 0;
#X obj 94 33 inlet;
#X obj 192 56 inlet;
#X obj 94 160 outlet;
#X obj 192 127 outlet;
#X obj 94 84 i;
#X msg 192 102 set \$1;
#X msg 94 140 set \$1;
#X obj 23 153 s \$0-q;
#X connect 0 0 4 0;
#X connect 1 0 5 0;
#X connect 4 0 6 0;
#X connect 4 0 7 0;
#X connect 5 0 3 0;
#X connect 6 0 2 0;
#X restore 47 162 pd map;
#X obj 238 111 cnv 10 10 10 empty empty vcfilter~ 0 5 2 14 -262144
-162280 0;
#X connect 2 0 4 0;
#X connect 3 0 4 1;
#X connect 4 0 3 0;
#X connect 4 1 2 0;
#X connect 5 0 7 0;
#X connect 6 0 7 1;
#X connect 7 0 6 0;
#X connect 7 1 5 0;
#X coords 0 -1 1 1 220 90 2 100 100;
#X restore 5 2 pd mask;
#X restore 836 207 pd \$0-vcfilter;
#X obj 408 155 +~;
#X obj 600 195 +~;
#X obj 341 559 outlet~;
#N canvas 108 156 1087 482 filtercoef~~~~~~~~~~~~~~~~~~~~~~~~~~~~~~~~
0;
#X obj 588 30 inlet~ alpha;
#N canvas 3 50 617 300 tobiquad~~~~~~~~~~~~~~~~ 0;
#X obj 63 51 inlet~ a1;
#X obj 128 51 inlet~ a2;
#X obj 193 51 inlet~ b0;
#X obj 257 51 inlet~ b1;
#X obj 393 51 inlet~ a0;
#X obj 62 86 *~ -1;
#X obj 128 84 *~ -1;
#X obj 62 132 /~;
#X obj 129 131 /~;
#X obj 193 131 /~;
#X obj 256 129 /~;
#X obj 321 51 inlet~ b2;
#X obj 320 127 /~;
#X obj 60 207 outlet~ a1;
#X obj 129 206 outlet~ a2;
#X obj 197 207 outlet~ b0;
#X obj 267 206 outlet~ b1;
#X obj 338 207 outlet~ b2;
#X connect 0 0 5 0;
#X connect 1 0 6 0;
#X connect 2 0 9 0;
#X connect 3 0 10 0;
#X connect 4 0 12 1;
#X connect 4 0 10 1;
#X connect 4 0 9 1;
#X connect 4 0 8 1;
#X connect 4 0 7 1;
#X connect 5 0 7 0;
#X connect 6 0 8 0;
#X connect 7 0 13 0;
#X connect 8 0 14 0;
#X connect 9 0 15 0;
#X connect 10 0 16 0;
#X connect 11 0 12 0;
#X connect 12 0 17 0;
#X restore 171 229 pd tobiquad~~~~~~~~~~~~~~~~;
#N canvas 509 216 624 450 reson~~~~~~~~~~~~~~~~~~~ 0;
#X obj 115 258 cos~;
#X obj 115 278 *~ -2;
#X text 156 277 a1;
#X obj 191 250 sig~ 1;
#X obj 191 279 -~;
#X text 223 279 a2;
#X obj 268 279 cos~;
#X obj 268 300 *~ 0.5;
#X text 307 280 b0;
#X obj 348 256 sig~ 0;
#X text 395 255 b1;
#X obj 426 273 cos~;
#X obj 426 294 *~ 0.5;
#X obj 425 341 *~ -1;
#X text 465 274 b2;
#X obj 520 264 +~ 1;
#X text 553 267 a0;
#X obj 147 144 inlet~ w(0);
#X obj 520 128 inlet~ alpha;
#X obj 114 377 outlet~;
#X obj 190 377 outlet~;
#X obj 268 376 outlet~;
#X obj 348 378 outlet~;
#X obj 425 378 outlet~;
#X obj 519 378 outlet~;
#X obj 268 258 -~ 0.25;
#X obj 426 252 -~ 0.25;
#X obj 494 80 switch~ 0;
#X obj 494 37 r \$0-filtertype;
#X obj 494 58 == 2;
#X connect 0 0 1 0;
#X connect 1 0 19 0;
#X connect 3 0 4 0;
#X connect 4 0 20 0;
#X connect 6 0 7 0;
#X connect 7 0 21 0;
#X connect 9 0 22 0;
#X connect 11 0 12 0;
#X connect 12 0 13 0;
#X connect 13 0 23 0;
#X connect 15 0 24 0;
#X connect 17 0 0 0;
#X connect 17 0 25 0;
#X connect 17 0 26 0;
#X connect 18 0 4 1;
#X connect 18 0 15 0;
#X connect 25 0 6 0;
#X connect 26 0 11 0;
#X connect 28 0 29 0;
#X connect 29 0 27 0;
#X restore 429 141 pd reson~~~~~~~~~~~~~~~~~~~;
#N canvas 3 156 849 450 lowpass~~~~~~~~~~~~~~~~~~~ 0;
#X obj 115 258 cos~;
#X obj 115 278 *~ -2;
#X text 156 277 a1;
#X obj 191 250 sig~ 1;
#X obj 191 279 -~;
#X text 223 279 a2;
#X obj 312 247 cos~;
#X obj 268 300 *~ 0.5;
#X text 344 251 b0;
#X text 432 268 b1;
#X obj 695 254 +~ 1;
#X text 728 257 a0;
#X obj 114 77 inlet~ w(0);
#X obj 694 109 inlet~ alpha;
#X obj 114 377 outlet~;
#X obj 190 377 outlet~;
#X obj 268 376 outlet~;
#X obj 380 379 outlet~;
#X obj 514 375 outlet~;
#X obj 694 368 outlet~;
#X obj 268 246 sig~ 1;
#X obj 267 274 -~;
#X obj 425 250 cos~;
#X obj 381 249 sig~ 1;
#X obj 380 277 -~;
#X obj 558 250 cos~;
#X obj 514 303 *~ 0.5;
#X obj 514 249 sig~ 1;
#X obj 513 277 -~;
#X obj 561 77 switch~ 0;
#X obj 561 34 r \$0-filtertype;
#X obj 561 55 == 0;
#X text 590 254 b2;
#X connect 0 0 1 0;
#X connect 1 0 14 0;
#X connect 3 0 4 0;
#X connect 4 0 15 0;
#X connect 6 0 21 1;
#X connect 7 0 16 0;
#X connect 10 0 19 0;
#X connect 12 0 0 0;
#X connect 12 0 6 0;
#X connect 12 0 22 0;
#X connect 12 0 25 0;
#X connect 13 0 4 1;
#X connect 13 0 10 0;
#X connect 20 0 21 0;
#X connect 21 0 7 0;
#X connect 22 0 24 1;
#X connect 23 0 24 0;
#X connect 24 0 17 0;
#X connect 25 0 28 1;
#X connect 26 0 18 0;
#X connect 27 0 28 0;
#X connect 28 0 26 0;
#X connect 30 0 31 0;
#X connect 31 0 29 0;
#X restore 21 143 pd lowpass~~~~~~~~~~~~~~~~~~~;
#X obj 172 290 outlet~;
#X obj 223 289 outlet~;
#X obj 275 290 outlet~;
#X obj 326 289 outlet~;
#X obj 379 289 outlet~;
#X text 395 270 a1 a2 b0 b1 b2;
#N canvas 28 131 849 450 highpass~~~~~~~~~~~~~~~~~~~ 0;
#X obj 115 258 cos~;
#X obj 115 278 *~ -2;
#X text 156 277 a1;
#X obj 191 250 sig~ 1;
#X obj 191 279 -~;
#X text 223 279 a2;
#X obj 312 247 cos~;
#X obj 268 300 *~ 0.5;
#X text 344 251 b0;
#X text 432 268 b1;
#X obj 695 254 +~ 1;
#X text 728 257 a0;
#X obj 114 77 inlet~ w(0);
#X obj 694 109 inlet~ alpha;
#X obj 114 377 outlet~;
#X obj 190 377 outlet~;
#X obj 268 376 outlet~;
#X obj 380 379 outlet~;
#X obj 514 375 outlet~;
#X obj 694 368 outlet~;
#X obj 268 246 sig~ 1;
#X obj 425 250 cos~;
#X obj 381 249 sig~ 1;
#X obj 558 250 cos~;
#X obj 514 249 sig~ 1;
#X obj 561 77 switch~ 0;
#X obj 561 34 r \$0-filtertype;
#X obj 380 276 +~;
#X obj 513 277 +~;
#X obj 268 276 +~;
#X obj 381 301 *~ -1;
#X obj 514 303 *~ 0.5;
#X obj 561 55 == 1;
#X text 590 254 b2;
#X connect 0 0 1 0;
#X connect 1 0 14 0;
#X connect 3 0 4 0;
#X connect 4 0 15 0;
#X connect 6 0 29 1;
#X connect 7 0 16 0;
#X connect 10 0 19 0;
#X connect 12 0 0 0;
#X connect 12 0 6 0;
#X connect 12 0 21 0;
#X connect 12 0 23 0;
#X connect 13 0 4 1;
#X connect 13 0 10 0;
#X connect 20 0 29 0;
#X connect 21 0 27 1;
#X connect 22 0 27 0;
#X connect 23 0 28 1;
#X connect 24 0 28 0;
#X connect 26 0 32 0;
#X connect 27 0 30 0;
#X connect 28 0 31 0;
#X connect 29 0 7 0;
#X connect 30 0 17 0;
#X connect 31 0 18 0;
#X connect 32 0 25 0;
#X restore 215 142 pd highpass~~~~~~~~~~~~~~~~~~~;
#X obj 21 21 inlet~ omega;
#X connect 0 0 3 1;
#X connect 0 0 10 1;
#X connect 0 0 2 1;
#X connect 1 0 4 0;
#X connect 1 1 5 0;
#X connect 1 2 6 0;
#X connect 1 3 7 0;
#X connect 1 4 8 0;
#X connect 2 0 1 0;
#X connect 2 1 1 1;
#X connect 2 2 1 2;
#X connect 2 3 1 3;
#X connect 2 4 1 4;
#X connect 2 5 1 5;
#X connect 3 0 1 0;
#X connect 3 1 1 1;
#X connect 3 2 1 2;
#X connect 3 3 1 3;
#X connect 3 4 1 4;
#X connect 3 5 1 5;
#X connect 10 0 1 0;
#X connect 10 1 1 1;
#X connect 10 2 1 2;
#X connect 10 3 1 3;
#X connect 10 4 1 4;
#X connect 10 5 1 5;
#X connect 11 0 3 0;
#X connect 11 0 10 0;
#X connect 11 0 2 0;
#X restore 408 363 pd filtercoef~~~~~~~~~~~~~~~~~~~~~~~~~~~~~~~~;
#X obj 103 115 hsl 150 15 0 127 0 0 \$0-visbng \$0-visbngr Lowpass
50 8 2 10 -233017 -233017 -1 0 1;
#N canvas 1 57 450 300 samplerate 0;
#X obj 230 123 outlet;
#X obj 268 72 loadbang;
#X obj 230 96 samplerate~;
#X obj 338 83 bng 15 250 50 0 empty empty empty 17 7 0 10 -262144 -1
-1;
#X obj 230 48 r pd-dsp-started;
#X connect 1 0 2 0;
#X connect 2 0 0 0;
#X connect 3 0 2 0;
#X connect 4 0 2 0;
#X restore 455 188 pd samplerate;
#X obj 455 209 / 2;
#X obj 600 218 clip~ -99 100;
#X obj 600 100 clip -99 100;
#N canvas 98 216 450 281 alpha+omega~~~~~~~~~~~~~~~~~~~~~~~~~~~~~~~
0;
#X obj 188 31 inlet~ q;
#X obj 49 26 inlet~ freq;
#X obj 173 187 outlet~ alpha;
#X obj 49 183 outlet~ omega;
#X obj 188 57 *~ 2;
#X obj 173 129 /~;
#X obj 109 98 cos~;
#X obj 108 77 -~ 0.25;
#X obj 188 89 +~ 1e-24;
#N canvas 3 52 450 300 omega 0;
#N canvas 3 50 450 300 samplerate 0;
#X obj 230 123 outlet;
#X obj 230 26 r pd;
#X obj 230 46 route dsp audio-dialog;
#X obj 230 70 t b;
#X obj 268 72 loadbang;
#X obj 230 96 samplerate~;
#X obj 338 83 bng 15 250 50 0 empty empty empty 17 7 0 10 -262144 -1
-1;
#X connect 1 0 2 0;
#X connect 2 0 3 0;
#X connect 2 1 3 0;
#X connect 3 0 5 0;
#X connect 4 0 5 0;
#X connect 5 0 0 0;
#X connect 6 0 5 0;
#X restore 173 124 pd samplerate;
#X obj 173 146 expr 1/$f1;
#X obj 158 15 inlet~;
#X text 253 171 divide by SR;
#X obj 156 203 outlet~;
#X obj 157 166 *~;
#X connect 0 0 1 0;
#X connect 1 0 5 1;
#X connect 2 0 5 0;
#X connect 5 0 4 0;
#X restore 48 54 pd omega;
#X connect 0 0 4 0;
#X connect 1 0 9 0;
#X connect 4 0 8 0;
#X connect 5 0 2 0;
#X connect 6 0 5 0;
#X connect 7 0 6 0;
#X connect 8 0 5 1;
#X connect 9 0 7 0;
#X connect 9 0 3 0;
#X restore 407 336 pd alpha+omega~~~~~~~~~~~~~~~~~~~~~~~~~~~~~~~;
#X obj 285 45 inlet~;
#X obj 286 560 outlet~;
#X obj 820 558 outlet;
#N canvas 306 126 781 543 outlet-message 0;
#N canvas 155 411 986 300 bang_once.......................................
0;
#X obj 132 87 t b f;
#X obj 89 139 del 0;
#X obj 89 87 t b f;
#X obj 89 41 inlet;
#X obj 132 40 inlet;
#X obj 217 40 inlet;
#X obj 89 247 outlet;
#X obj 89 173 f;
#X obj 217 87 t b a;
#X obj 89 203 pack 0 0 s;
#X connect 0 0 1 0;
#X connect 0 1 9 1;
#X connect 1 0 7 0;
#X connect 2 0 1 0;
#X connect 2 1 7 1;
#X connect 3 0 2 0;
#X connect 4 0 0 0;
#X connect 5 0 8 0;
#X connect 7 0 9 0;
#X connect 8 0 1 0;
#X connect 8 1 9 2;
#X connect 9 0 6 0;
#X restore 241 314 pd bang_once.......................................
;
#X obj 309 497 list trim;
#X msg 228 465 addcomma;
#X msg 164 472 set;
#X obj 309 474 list prepend add2;
#X obj 308 552 outlet;
#X obj 223 95 r \$0-freq;
#X obj 392 137 r \$0-q;
#X obj 544 132 r \$0-filtertype;
#X obj 544 292 symbol;
#X msg 544 187 lowpass;
#X msg 558 208 highpass;
#X msg 576 232 reson;
#X obj 544 166 sel 0 1 2;
#X msg 262 393 \$3 \, frequency \$1 \, q \$2;
#X obj 240 334 t b a b;
#X obj 262 420 t b a a;
#N canvas 497 319 297 264 save 0;
#X obj 48 16 inlet;
#N canvas 690 259 481 384 collect 0;
#X obj 47 60 inlet;
#X obj 47 274 outlet;
#X obj 98 180 list;
#X obj 166 181 t l;
#X obj 47 225 list;
#X obj 98 139 list append |;
#X obj 47 126 del 0;
#X obj 47 82 t b a;
#X text 119 75 hacky thing... replaycing " \, " with "|";
#X connect 0 0 7 0;
#X connect 2 0 3 0;
#X connect 2 0 4 1;
#X connect 3 0 2 1;
#X connect 4 0 1 0;
#X connect 5 0 2 0;
#X connect 6 0 2 1;
#X connect 6 0 4 0;
#X connect 7 0 6 0;
#X connect 7 1 5 0;
#X restore 48 38 pd collect;
#X obj 117 16 r \$0-save;
#X obj 27 130 text set \$0-savestates;
#X obj 27 104 list;
#X obj 117 62 t b f;
#X obj 117 39 clip 0 20;
#X connect 0 0 1 0;
#X connect 1 0 4 1;
#X connect 2 0 6 0;
#X connect 4 0 3 0;
#X connect 5 0 4 0;
#X connect 5 1 3 1;
#X connect 6 0 5 0;
#X restore 315 444 pd save;
#X connect 0 0 15 0;
#X connect 1 0 5 0;
#X connect 2 0 5 0;
#X connect 3 0 5 0;
#X connect 4 0 1 0;
#X connect 6 0 0 0;
#X connect 7 0 0 1;
#X connect 8 0 13 0;
#X connect 9 0 0 2;
#X connect 10 0 9 0;
#X connect 11 0 9 0;
#X connect 12 0 9 0;
#X connect 13 0 10 0;
#X connect 13 1 11 0;
#X connect 13 2 12 0;
#X connect 14 0 16 0;
#X connect 15 0 5 0;
#X connect 15 1 14 0;
#X connect 15 2 3 0;
#X connect 16 0 2 0;
#X connect 16 1 4 0;
#X connect 16 2 17 0;
#X restore 820 529 pd outlet-message;
#X obj 831 77 inlet;
#N canvas 714 231 450 300 in 0;
#X obj 70 9 inlet;
#X obj 71 153 s \$0-filtertyper;
#X msg 70 117 0;
#X msg 98 119 1;
#X msg 130 119 2;
#X obj 70 235 s \$0-freqr;
#X obj 115 260 s \$0-qr;
#X obj 150 239 s \$0-bwr;
#X obj 70 207 route frequency q bandwitdth;
#X obj 70 91 route lowpass highpass reson;
#N canvas 698 546 200 251 route 0;
#X obj 20 20 inlet;
#X obj 30 60 route save recall;
#X obj 30 85 route float;
#X obj 97 111 route float;
#X obj 30 136 s \$0-save;
#X obj 30 108 i;
#X obj 98 133 i;
#X obj 98 161 s \$0-recall;
#X connect 0 0 1 0;
#X connect 1 0 2 0;
#X connect 1 1 3 0;
#X connect 2 0 5 0;
#X connect 3 0 6 0;
#X connect 5 0 4 0;
#X connect 6 0 7 0;
#X restore 185 42 pd route save-recall;
#N canvas 362 125 450 479 recall 0;
#X obj 49 145 outlet;
#N canvas 3 54 450 600 listsplit 0;
#X obj 158 23 inlet;
#X obj 220 87 list length;
#X obj 220 113 until;
#X obj 182 150 f;
#X obj 278 150 + 1;
#X msg 265 111 0;
#X obj 182 226 list store;
#X msg 182 202 get \$1 1;
#X obj 154 367 list split;
#X obj 222 342 f;
#X obj 154 334 list;
#X obj 98 124 list;
#X obj 182 389 list split 1;
#X obj 154 274 t bang bang bang;
#X obj 182 179 t f f;
#X obj 158 48 t l l l b;
#X obj 154 473 outlet;
#X obj 154 440 list trim;
#X obj 163 248 sel |;
#X text 275 197 hacky split list at "|";
#X connect 0 0 15 0;
#X connect 1 0 2 0;
#X connect 2 0 3 0;
#X connect 3 0 4 0;
#X connect 3 0 14 0;
#X connect 4 0 3 1;
#X connect 5 0 3 1;
#X connect 6 0 18 0;
#X connect 7 0 6 0;
#X connect 8 0 17 0;
#X connect 8 1 12 0;
#X connect 9 0 8 1;
#X connect 10 0 8 0;
#X connect 11 0 15 0;
#X connect 12 1 11 0;
#X connect 13 0 10 0;
#X connect 13 1 9 0;
#X connect 13 2 2 1;
#X connect 14 0 7 0;
#X connect 14 1 9 1;
#X connect 15 0 1 0;
#X connect 15 1 10 1;
#X connect 15 2 6 1;
#X connect 15 3 5 0;
#X connect 17 0 16 0;
#X connect 18 0 13 0;
#X restore 49 117 pd listsplit;
#X obj 49 24 r \$0-recall;
#X obj 49 54 pipe 1;
#X obj 221 409 text fromlist \$0-savestates;
#X obj 49 77 text get \$0-savestates;
#X msg 253 246 21;
#X obj 253 269 until;
#X obj 253 292 f;
#X obj 300 295 + 1;
#X obj 253 315 t b f;
#X obj 253 367 text set \$0-savestates;
#X obj 221 114 text tolist \$0-savestates;
#X msg 253 342 list empty_slot;
#X obj 221 160 t a b;
#X obj 151 166 loadbang;
#X obj 221 137 savestate;
#X obj 221 33 text define \$0-savestates;
#X obj 151 189 del 0;
#X msg 298 199 0;
#X obj 253 220 spigot 1;
#X connect 1 0 0 0;
#X connect 2 0 3 0;
#X connect 3 0 5 0;
#X connect 5 0 1 0;
#X connect 6 0 7 0;
#X connect 7 0 8 0;
#X connect 8 0 9 0;
#X connect 8 0 10 0;
#X connect 9 0 8 1;
#X connect 10 0 13 0;
#X connect 10 1 11 1;
#X connect 12 0 16 0;
#X connect 13 0 11 0;
#X connect 14 0 4 0;
#X connect 14 1 19 0;
#X connect 15 0 18 0;
#X connect 16 0 14 0;
#X connect 16 1 12 0;
#X connect 18 0 20 0;
#X connect 19 0 20 1;
#X connect 20 0 6 0;
#X restore 183 63 pd recall;
#X connect 0 0 9 0;
#X connect 0 0 10 0;
#X connect 2 0 1 0;
#X connect 3 0 1 0;
#X connect 4 0 1 0;
#X connect 8 0 5 0;
#X connect 8 1 6 0;
#X connect 8 2 7 0;
#X connect 9 0 2 0;
#X connect 9 1 3 0;
#X connect 9 2 4 0;
#X connect 9 3 8 0;
#X connect 11 0 9 0;
#X restore 831 98 pd in;
#N canvas 276 184 680 472 biquad~~~~~~~~~~~~~~~~~~~~~~~~~~~~~~~~~~~~~~~~~~~~~~~
0;
#X obj 73 24 inlet~;
#X obj 164 324 outlet~;
#X obj 72 109 *~;
#X obj 141 260 cpole~;
#X obj 165 287 cpole~;
#X obj 145 24 inlet~;
#X obj 193 24 inlet~;
#X obj 263 23 inlet~;
#X obj 311 23 inlet~;
#X obj 357 22 inlet~;
#N canvas 1 57 450 624 poles 0;
#X obj 109 41 inlet~;
#X obj 196 38 inlet~;
#X obj 180 133 +~;
#X obj 197 91 *~ 4;
#X obj 124 222 max~ 0;
#X obj 125 245 sqrt~;
#X obj 227 239 abs~;
#X obj 227 260 sqrt~;
#X obj 110 358 +~;
#X text 171 228 real;
#X text 263 233 imag;
#X obj 110 494 outlet~;
#X obj 168 455 outlet~;
#X text 129 515 pole 1;
#X obj 241 498 outlet~;
#X obj 294 498 outlet~;
#X text 269 532 pole 2;
#X obj 155 97 *~;
#X obj 227 215 min~ 0;
#X obj 167 403 *~ 0.5;
#X obj 110 402 *~ 0.5;
#X obj 241 364 -~;
#X obj 294 359 -~;
#X obj 294 405 *~ 0.5;
#X obj 241 404 *~ 0.5;
#X connect 0 0 8 0;
#X connect 0 0 17 0;
#X connect 0 0 17 1;
#X connect 0 0 21 0;
#X connect 1 0 3 0;
#X connect 2 0 4 0;
#X connect 2 0 18 0;
#X connect 3 0 2 1;
#X connect 4 0 5 0;
#X connect 5 0 8 1;
#X connect 5 0 21 1;
#X connect 6 0 7 0;
#X connect 7 0 19 0;
#X connect 7 0 22 1;
#X connect 8 0 20 0;
#X connect 17 0 2 0;
#X connect 18 0 6 0;
#X connect 19 0 12 0;
#X connect 20 0 11 0;
#X connect 21 0 24 0;
#X connect 22 0 23 0;
#X connect 23 0 15 0;
#X connect 24 0 14 0;
#X restore 219 206 pd poles;
#N canvas 116 132 450 600 zeros 0;
#X obj 69 26 inlet~;
#X obj 172 28 inlet~;
#X obj 246 29 inlet~;
#X obj 104 201 *~ -1;
#X obj 173 102 /~;
#X obj 246 102 /~;
#X obj 247 131 *~ 4;
#X obj 217 186 -~;
#X obj 105 512 outlet~;
#X obj 160 491 outlet~;
#X obj 105 352 +~;
#X obj 105 373 *~ 0.5;
#X obj 227 386 *~ 0.5;
#X obj 227 365 -~;
#X obj 228 516 outlet~;
#X obj 285 491 outlet~;
#X text 127 533 zero 1;
#X text 252 533 zero 2;
#X obj 172 154 *~;
#X obj 216 240 max~ 0;
#X obj 217 260 sqrt~;
#X obj 301 265 abs~;
#X obj 301 286 sqrt~;
#X text 263 246 real;
#X text 354 252 imag;
#X obj 301 241 min~ 0;
#X obj 286 365 -~;
#X obj 286 385 *~ 0.5;
#X obj 161 377 *~ 0.5;
#X connect 0 0 4 1;
#X connect 0 0 5 1;
#X connect 1 0 4 0;
#X connect 2 0 5 0;
#X connect 3 0 10 0;
#X connect 3 0 13 0;
#X connect 4 0 18 0;
#X connect 4 0 18 1;
#X connect 4 0 3 0;
#X connect 5 0 6 0;
#X connect 6 0 7 1;
#X connect 7 0 19 0;
#X connect 7 0 25 0;
#X connect 10 0 11 0;
#X connect 11 0 8 0;
#X connect 12 0 14 0;
#X connect 13 0 12 0;
#X connect 18 0 7 0;
#X connect 19 0 20 0;
#X connect 20 0 10 1;
#X connect 20 0 13 1;
#X connect 21 0 22 0;
#X connect 22 0 26 1;
#X connect 22 0 28 0;
#X connect 25 0 21 0;
#X connect 26 0 27 0;
#X connect 27 0 15 0;
#X connect 28 0 9 0;
#X restore 263 78 pd zeros;
#X obj 100 183 czero~;
#X obj 118 217 czero~;
#X text 149 3 a1;
#X text 198 3 a2;
#X text 268 4 b0;
#X text 317 4 b1;
#X text 358 4 b2;
#X connect 0 0 2 0;
#X connect 2 0 12 0;
#X connect 3 0 4 0;
#X connect 3 1 4 1;
#X connect 4 0 1 0;
#X connect 5 0 10 0;
#X connect 6 0 10 1;
#X connect 7 0 2 1;
#X connect 7 0 11 0;
#X connect 8 0 11 1;
#X connect 9 0 11 2;
#X connect 10 0 3 2;
#X connect 10 1 3 3;
#X connect 10 2 4 2;
#X connect 10 3 4 3;
#X connect 11 0 12 2;
#X connect 11 1 12 3;
#X connect 11 2 13 2;
#X connect 11 3 13 3;
#X connect 12 0 13 0;
#X connect 12 1 13 1;
#X connect 13 0 3 0;
#X connect 13 1 3 1;
#X restore 286 432 pd biquad~~~~~~~~~~~~~~~~~~~~~~~~~~~~~~~~~~~~~~~~~~~~~~~
;
#N canvas 276 184 680 472 biquad~~~~~~~~~~~~~~~~~~~~~~~~~~~~~~~~~~~~~~~~~~~~~~~
0;
#X obj 73 24 inlet~;
#X obj 164 324 outlet~;
#X obj 72 109 *~;
#X obj 141 260 cpole~;
#X obj 165 287 cpole~;
#X obj 145 24 inlet~;
#X obj 193 24 inlet~;
#X obj 263 23 inlet~;
#X obj 311 23 inlet~;
#X obj 357 22 inlet~;
#N canvas 1 57 450 624 poles 0;
#X obj 109 41 inlet~;
#X obj 196 38 inlet~;
#X obj 180 133 +~;
#X obj 197 91 *~ 4;
#X obj 124 222 max~ 0;
#X obj 125 245 sqrt~;
#X obj 227 239 abs~;
#X obj 227 260 sqrt~;
#X obj 110 358 +~;
#X text 171 228 real;
#X text 263 233 imag;
#X obj 110 494 outlet~;
#X obj 168 455 outlet~;
#X text 129 515 pole 1;
#X obj 241 498 outlet~;
#X obj 294 498 outlet~;
#X text 269 532 pole 2;
#X obj 155 97 *~;
#X obj 227 215 min~ 0;
#X obj 167 403 *~ 0.5;
#X obj 110 402 *~ 0.5;
#X obj 241 364 -~;
#X obj 294 359 -~;
#X obj 294 405 *~ 0.5;
#X obj 241 404 *~ 0.5;
#X connect 0 0 8 0;
#X connect 0 0 17 0;
#X connect 0 0 17 1;
#X connect 0 0 21 0;
#X connect 1 0 3 0;
#X connect 2 0 4 0;
#X connect 2 0 18 0;
#X connect 3 0 2 1;
#X connect 4 0 5 0;
#X connect 5 0 8 1;
#X connect 5 0 21 1;
#X connect 6 0 7 0;
#X connect 7 0 19 0;
#X connect 7 0 22 1;
#X connect 8 0 20 0;
#X connect 17 0 2 0;
#X connect 18 0 6 0;
#X connect 19 0 12 0;
#X connect 20 0 11 0;
#X connect 21 0 24 0;
#X connect 22 0 23 0;
#X connect 23 0 15 0;
#X connect 24 0 14 0;
#X restore 219 206 pd poles;
#N canvas 116 132 450 600 zeros 0;
#X obj 69 26 inlet~;
#X obj 172 28 inlet~;
#X obj 246 29 inlet~;
#X obj 104 201 *~ -1;
#X obj 173 102 /~;
#X obj 246 102 /~;
#X obj 247 131 *~ 4;
#X obj 217 186 -~;
#X obj 105 512 outlet~;
#X obj 160 491 outlet~;
#X obj 105 352 +~;
#X obj 105 373 *~ 0.5;
#X obj 227 386 *~ 0.5;
#X obj 227 365 -~;
#X obj 228 516 outlet~;
#X obj 285 491 outlet~;
#X text 127 533 zero 1;
#X text 252 533 zero 2;
#X obj 172 154 *~;
#X obj 216 240 max~ 0;
#X obj 217 260 sqrt~;
#X obj 301 265 abs~;
#X obj 301 286 sqrt~;
#X text 263 246 real;
#X text 354 252 imag;
#X obj 301 241 min~ 0;
#X obj 286 365 -~;
#X obj 286 385 *~ 0.5;
#X obj 161 377 *~ 0.5;
#X connect 0 0 4 1;
#X connect 0 0 5 1;
#X connect 1 0 4 0;
#X connect 2 0 5 0;
#X connect 3 0 10 0;
#X connect 3 0 13 0;
#X connect 4 0 18 0;
#X connect 4 0 18 1;
#X connect 4 0 3 0;
#X connect 5 0 6 0;
#X connect 6 0 7 1;
#X connect 7 0 19 0;
#X connect 7 0 25 0;
#X connect 10 0 11 0;
#X connect 11 0 8 0;
#X connect 12 0 14 0;
#X connect 13 0 12 0;
#X connect 18 0 7 0;
#X connect 19 0 20 0;
#X connect 20 0 10 1;
#X connect 20 0 13 1;
#X connect 21 0 22 0;
#X connect 22 0 26 1;
#X connect 22 0 28 0;
#X connect 25 0 21 0;
#X connect 26 0 27 0;
#X connect 27 0 15 0;
#X connect 28 0 9 0;
#X restore 263 78 pd zeros;
#X obj 100 183 czero~;
#X obj 118 217 czero~;
#X text 149 3 a1;
#X text 198 3 a2;
#X text 268 4 b0;
#X text 317 4 b1;
#X text 358 4 b2;
#X connect 0 0 2 0;
#X connect 2 0 12 0;
#X connect 3 0 4 0;
#X connect 3 1 4 1;
#X connect 4 0 1 0;
#X connect 5 0 10 0;
#X connect 6 0 10 1;
#X connect 7 0 2 1;
#X connect 7 0 11 0;
#X connect 8 0 11 1;
#X connect 9 0 11 2;
#X connect 10 0 3 2;
#X connect 10 1 3 3;
#X connect 10 2 4 2;
#X connect 10 3 4 3;
#X connect 11 0 12 2;
#X connect 11 1 12 3;
#X connect 11 2 13 2;
#X connect 11 3 13 3;
#X connect 12 0 13 0;
#X connect 12 1 13 1;
#X connect 13 0 3 0;
#X connect 13 1 3 1;
#X restore 341 402 pd biquad~~~~~~~~~~~~~~~~~~~~~~~~~~~~~~~~~~~~~~~~~~~~~~~
;
#X obj 408 232 clip~ 8 20050;
#X text 588 466 philipp schmalfuß \, 2018-20;
#X obj 708 108 inlet~;
#X text 752 111 q;
#X obj 462 122 inlet~;
#X text 505 126 freq;
#X connect 0 0 1 0;
#X connect 1 0 10 0;
#X connect 2 0 3 0;
#X connect 3 0 11 0;
#X connect 4 0 19 1;
#X connect 6 0 0 0;
#X connect 7 0 18 0;
#X connect 8 0 27 0;
#X connect 10 0 28 0;
#X connect 11 0 17 0;
#X connect 13 0 27 1;
#X connect 13 0 26 1;
#X connect 13 1 27 2;
#X connect 13 1 26 2;
#X connect 13 2 27 3;
#X connect 13 2 26 3;
#X connect 13 3 27 4;
#X connect 13 3 26 4;
#X connect 13 4 27 5;
#X connect 13 4 26 5;
#X connect 15 0 16 0;
#X connect 16 0 28 2;
#X connect 17 0 4 0;
#X connect 18 0 2 0;
#X connect 19 0 13 0;
#X connect 19 1 13 1;
#X connect 20 0 26 0;
#X connect 23 0 22 0;
#X connect 24 0 25 0;
#X connect 26 0 21 0;
#X connect 27 0 12 0;
#X connect 28 0 19 0;
#X connect 30 0 11 1;
#X connect 32 0 10 1;
#X coords 0 -1 1 1 155 33 1 100 100;
