#N canvas 30 107 1081 660 10;
#X obj 103 115 hsl 150 15 0 127 0 0 \$0-visbng \$0-visbngr Lowpass 50 8 2 10 #e0e0e0 #e0e0e0 #000000 0 1;
#X obj 479 98 pack f 20;
#X obj 479 123 line~;
#X obj 657 112 pack f 20;
#X obj 657 141 line~;
#N canvas 763 294 450 300 q 0;
#X obj 97 103 inlet~;
#X obj 97 156 dbtorms~;
#X obj 97 133 +~ 100;
#X obj 97 177 outlet~;
#X obj 200 113 switch~ 0;
#X obj 200 70 r \$0-filtertype;
#X obj 200 92 < 3;
#X connect 0 0 2 0;
#X connect 1 0 3 0;
#X connect 2 0 1 0;
#X connect 5 0 6 0;
#X connect 6 0 4 0;
#X restore 744 297 pd q;
#N canvas 219 314 878 596 stuff 0;
#X obj 132 59 r \$0-filtertype;
#X obj 132 304 s \$0-filtertyper;
#X msg 133 105 Lowpass;
#X msg 147 126 Highpass;
#X msg 165 150 Reson;
#X obj 132 262 symbol;
#X msg 132 283 label \$1;
#X obj 396 51 loadbang;
#X obj 395 154 pack 0 \$0;
#X obj 395 71 symbol \$1;
#X msg 395 113 0;
#X msg 423 115 1;
#X msg 455 115 2;
#X obj 148 323 s \$0-visbngr;
#X obj 173 491 s \$0-visbngr;
#X obj 155 386 r \$0-visbng;
#X msg 153 463 color 0 0;
#X msg 237 463 color 10 10;
#X obj 155 408 t b;
#X obj 235 438 del 250;
#X obj 119 540 s pd-\$0-vcfilter;
#X obj 552 120 t b;
#X msg 119 518 relocate 230x95+1+1 1x1+50+50 \, vis 1;
#X msg 395 175 \; \$2-filtertyper \$1 \; \$2-qr 0 \;;
#X obj 133 84 sel 0 1 2 3;
#X msg 176 178 Notch;
#X obj 395 92 sel lowpass highpass reson notch;
#X msg 505 116 3;
#X obj 551 329 r \$0-filtertype;
#X obj 556 468 s \$0-qr;
#X obj 553 357 >= 3;
#X obj 552 383 sel 0 1;
#X msg 581 427 label;
#X msg 520 427 label db;
#X obj 638 464 s \$0-qguir, f 11;
#X msg 638 431 label Q;
#X msg 692 430 label BW;
#X connect 0 0 24 0;
#X connect 2 0 5 0;
#X connect 3 0 5 0;
#X connect 4 0 5 0;
#X connect 5 0 6 0;
#X connect 6 0 1 0;
#X connect 6 0 13 0;
#X connect 7 0 9 0;
#X connect 8 0 23 0;
#X connect 9 0 26 0;
#X connect 10 0 8 0;
#X connect 11 0 8 0;
#X connect 12 0 8 0;
#X connect 15 0 18 0;
#X connect 16 0 14 0;
#X connect 17 0 14 0;
#X connect 18 0 16 0;
#X connect 18 0 19 0;
#X connect 18 0 22 0;
#X connect 19 0 17 0;
#X connect 21 0 8 0;
#X connect 22 0 20 0;
#X connect 24 0 2 0;
#X connect 24 1 3 0;
#X connect 24 2 4 0;
#X connect 24 3 25 0;
#X connect 25 0 5 0;
#X connect 26 0 10 0;
#X connect 26 1 11 0;
#X connect 26 2 12 0;
#X connect 26 3 27 0;
#X connect 26 4 21 0;
#X connect 27 0 8 0;
#X connect 28 0 30 0;
#X connect 30 0 31 0;
#X connect 31 0 33 0;
#X connect 31 0 35 0;
#X connect 31 1 32 0;
#X connect 31 1 36 0;
#X connect 32 0 29 0;
#X connect 33 0 29 0;
#X connect 35 0 34 0;
#X connect 36 0 34 0;
#X restore 877 269 pd stuff;
#X obj 478 77 r \$0-freq;
#X obj 657 65 r \$0-q;
#X obj 411 48 inlet~;
#N canvas 50 50 230 95 \$0-vcfilter 0;
#N canvas 73 442 714 345 mask 0;
#X obj 100 100 cnv 15 219 89 empty empty empty 20 12 0 14 #fcfcfc #404040 0;
#X obj 107 108 hradio 11 1 0 4 \$0-filtertype \$0-filtertyper Lowpass 50 6 2 10 #fcfcfc #000000 #000000 0;
#X obj 110 138 hsl 128 12 0 135.076 0 0 \$0-fgui \$0-fguir Frequency -2 -6 2 10 #fcfcfc #000000 #000000 0 1;
#X obj 244 138 nbx 5 12 8 20050 0 0 \$0-freq \$0-freqr hz 47 7 2 10 #fcfcfc #000000 #000000 0 256;
#N canvas 1 57 450 300 map 0;
#X obj 103 37 inlet;
#X obj 192 54 inlet;
#X obj 103 173 outlet;
#X obj 192 127 outlet;
#X obj 103 76 mtof;
#X obj 103 127 i;
#X obj 192 81 ftom;
#X msg 192 102 set \$1;
#X msg 103 153 set \$1;
#X obj 62 207 s \$0-freq;
#X obj 103 98 + 0.5;
#X connect 0 0 4 0;
#X connect 1 0 6 0;
#X connect 4 0 10 0;
#X connect 5 0 8 0;
#X connect 5 0 9 0;
#X connect 6 0 7 0;
#X connect 7 0 3 0;
#X connect 8 0 2 0;
#X connect 10 0 5 0;
#X restore 47 136 pd map;
#X obj 110 166 hsl 128 12 0 1 0 0 \$0-qgui \$0-qguir Q -2 -7 2 10 #ffe3c6 #000000 #000000 0 1;
#X obj 244 166 nbx 5 12 -99 100 0 0 \$0-q \$0-qr db 47 7 2 10 #ffe3c6 #000000 #000000 0 256;
#N canvas 692 244 483 276 map 0;
#X obj 94 4 inlet;
#X obj 331 12 inlet;
#X obj 94 163 outlet;
#X obj 331 164 outlet;
#X msg 331 139 set \$1;
#X msg 94 143 set \$1;
#X obj 38 116 s \$0-q;
#N canvas 0 0 450 532 map_from_slider 0;
#X obj 94 44 inlet;
#X obj 119 403 outlet;
#X obj 47 294 i;
#X obj 175 94 r \$0-filtertype;
#X obj 94 162 list trim;
#X obj 94 139 list prepend 0;
#X obj 94 185 route 0 1;
#X obj 175 116 >= 3;
#X obj 119 256 moses 0.5;
#X obj 170 362 i;
#X obj 119 279 * 2;
#X obj 170 278 - 0.5;
#X obj 170 305 * 46;
#X obj 170 333 + 1;
#X obj 47 238 * 27;
#X obj 47 261 - 3;
#X connect 0 0 5 0;
#X connect 2 0 1 0;
#X connect 3 0 7 0;
#X connect 4 0 6 0;
#X connect 5 0 4 0;
#X connect 6 0 14 0;
#X connect 6 1 8 0;
#X connect 7 0 5 1;
#X connect 8 0 10 0;
#X connect 8 1 11 0;
#X connect 9 0 1 0;
#X connect 10 0 1 0;
#X connect 11 0 12 0;
#X connect 12 0 13 0;
#X connect 13 0 9 0;
#X connect 14 0 15 0;
#X connect 15 0 2 0;
#X restore 94 42 pd map_from_slider;
#N canvas 437 263 450 532 set_slider 0;
#X obj 148 306 outlet;
#X obj 129 28 r \$0-filtertype;
#X obj 129 50 >= 3;
#X obj 77 185 r \$0-q;
#X obj 49 185 f;
#X obj 49 212 + 3;
#X obj 49 234 / 27;
#X obj 129 110 sel 0 1;
#X obj 176 168 r \$0-q;
#X obj 148 168 f;
#X obj 148 197 moses 1;
#X obj 148 220 / 2;
#X obj 188 217 - 1;
#X obj 188 240 / 46;
#X obj 188 263 + 0.5;
#X obj 311 127 moses 0.5;
#X obj 362 233 i;
#X obj 311 150 * 2;
#X obj 362 149 - 0.5;
#X obj 362 176 * 46;
#X obj 362 204 + 1;
#X obj 129 84 change;
#X connect 1 0 2 0;
#X connect 2 0 21 0;
#X connect 3 0 4 1;
#X connect 4 0 5 0;
#X connect 5 0 6 0;
#X connect 6 0 0 0;
#X connect 7 0 4 0;
#X connect 7 1 9 0;
#X connect 8 0 9 1;
#X connect 9 0 10 0;
#X connect 10 0 11 0;
#X connect 10 1 12 0;
#X connect 11 0 0 0;
#X connect 12 0 13 0;
#X connect 13 0 14 0;
#X connect 14 0 0 0;
#X connect 15 0 17 0;
#X connect 15 1 18 0;
#X connect 18 0 19 0;
#X connect 19 0 20 0;
#X connect 20 0 16 0;
#X connect 21 0 7 0;
#X restore 236 89 pd set_slider;
#X connect 0 0 7 0;
#X connect 1 0 4 0;
#X connect 4 0 3 0;
#X connect 5 0 2 0;
#X connect 7 0 6 0;
#X connect 7 0 5 0;
#X connect 8 0 4 0;
#X restore 47 164 pd map;
#X obj 238 111 cnv 10 10 10 empty empty vcfilter~ 0 5 2 14 #fcfcfc #9c9c9c 0;
#X connect 2 0 4 0;
#X connect 3 0 4 1;
#X connect 4 0 3 0;
#X connect 4 1 2 0;
#X connect 5 0 7 0;
#X connect 6 0 7 1;
#X connect 7 0 6 0;
#X connect 7 1 5 0;
#X coords 0 -1 1 1 220 90 2 100 100;
#X restore 5 2 pd mask;
#X restore 876 248 pd \$0-vcfilter;
#X obj 478 157 +~;
#X obj 657 181 +~;
#X obj 852 64 inlet;
#N canvas 714 231 450 300 in 0;
#X obj 70 10 inlet;
#X obj 71 153 s \$0-filtertyper;
#X msg 70 117 0;
#X msg 98 119 1;
#X msg 130 119 2;
#X obj 70 235 s \$0-freqr;
#X obj 115 260 s \$0-qr;
#X obj 150 239 s \$0-bwr;
#X obj 70 207 route frequency q bandwitdth;
#N canvas 698 546 200 251 route 0;
#X obj 20 20 inlet;
#X obj 30 60 route save recall;
#X obj 30 85 route float;
#X obj 97 111 route float;
#X obj 30 136 s \$0-save;
#X obj 30 108 i;
#X obj 98 133 i;
#X obj 98 161 s \$0-recall;
#X connect 0 0 1 0;
#X connect 1 0 2 0;
#X connect 1 1 3 0;
#X connect 2 0 5 0;
#X connect 3 0 6 0;
#X connect 5 0 4 0;
#X connect 6 0 7 0;
#X restore 162 36 pd route save-recall;
#N canvas 362 125 450 479 recall 0;
#X obj 49 145 outlet;
#N canvas 3 54 450 600 listsplit 0;
#X obj 158 23 inlet;
#X obj 220 87 list length;
#X obj 220 113 until;
#X obj 182 150 f;
#X obj 278 150 + 1;
#X msg 265 111 0;
#X obj 182 226 list store;
#X msg 182 202 get \$1 1;
#X obj 154 367 list split;
#X obj 222 342 f;
#X obj 154 334 list;
#X obj 98 124 list;
#X obj 182 389 list split 1;
#X obj 154 274 t bang bang bang;
#X obj 182 179 t f f;
#X obj 158 48 t l l l b;
#X obj 154 473 outlet;
#X obj 154 440 list trim;
#X obj 163 248 sel |;
#X text 275 197 hacky split list at "|";
#X connect 0 0 15 0;
#X connect 1 0 2 0;
#X connect 2 0 3 0;
#X connect 3 0 4 0;
#X connect 3 0 14 0;
#X connect 4 0 3 1;
#X connect 5 0 3 1;
#X connect 6 0 18 0;
#X connect 7 0 6 0;
#X connect 8 0 17 0;
#X connect 8 1 12 0;
#X connect 9 0 8 1;
#X connect 10 0 8 0;
#X connect 11 0 15 0;
#X connect 12 1 11 0;
#X connect 13 0 10 0;
#X connect 13 1 9 0;
#X connect 13 2 2 1;
#X connect 14 0 7 0;
#X connect 14 1 9 1;
#X connect 15 0 1 0;
#X connect 15 1 10 1;
#X connect 15 2 6 1;
#X connect 15 3 5 0;
#X connect 17 0 16 0;
#X connect 18 0 13 0;
#X restore 49 117 pd listsplit;
#X obj 49 24 r \$0-recall;
#X obj 49 54 pipe 1;
#X obj 221 409 text fromlist \$0-savestates;
#X obj 49 77 text get \$0-savestates;
#X msg 253 246 21;
#X obj 253 269 until;
#X obj 253 292 f;
#X obj 300 295 + 1;
#X obj 253 315 t b f;
#X obj 253 367 text set \$0-savestates;
#X obj 221 114 text tolist \$0-savestates;
#X msg 253 342 list empty_slot;
#X obj 221 160 t a b;
#X obj 151 166 loadbang;
#X obj 221 137 savestate;
#X obj 221 33 text define \$0-savestates;
#X obj 151 189 del 0;
#X msg 298 199 0;
#X obj 253 220 spigot 1;
#X connect 1 0 0 0;
#X connect 2 0 3 0;
#X connect 3 0 5 0;
#X connect 5 0 1 0;
#X connect 6 0 7 0;
#X connect 7 0 8 0;
#X connect 8 0 9 0;
#X connect 8 0 10 0;
#X connect 9 0 8 1;
#X connect 10 0 13 0;
#X connect 10 1 11 1;
#X connect 12 0 16 0;
#X connect 13 0 11 0;
#X connect 14 0 4 0;
#X connect 14 1 19 0;
#X connect 15 0 18 0;
#X connect 16 0 14 0;
#X connect 16 1 12 0;
#X connect 18 0 20 0;
#X connect 19 0 20 1;
#X connect 20 0 6 0;
#X restore 161 58 pd recall;
#X obj 70 91 route lowpass highpass reson notch;
#X msg 168 119 3;
#X connect 0 0 9 0;
#X connect 0 0 11 0;
#X connect 2 0 1 0;
#X connect 3 0 1 0;
#X connect 4 0 1 0;
#X connect 8 0 5 0;
#X connect 8 1 6 0;
#X connect 8 2 7 0;
#X connect 10 0 11 0;
#X connect 11 0 2 0;
#X connect 11 1 3 0;
#X connect 11 2 4 0;
#X connect 11 3 12 0;
#X connect 11 4 8 0;
#X connect 12 0 1 0;
#X restore 852 85 pd in;
#X obj 837 562 outlet;
#X obj 411 561 outlet~;
#N canvas 226 299 1087 482 filtercoef~~~~~~~~~~~~~~~~~~~~~~~~~~~~~~~~ 0;
#N canvas 3 57 617 300 tobiquad~~~~~~~~~~~~~~~~ 0;
#X obj 62 86 *~ -1;
#X obj 128 84 *~ -1;
#X obj 62 132 /~;
#X obj 129 131 /~;
#X obj 193 131 /~;
#X obj 256 129 /~;
#X obj 320 127 /~;
#X obj 63 51 inlet~;
#X obj 128 51 inlet~;
#X obj 193 51 inlet~;
#X obj 257 51 inlet~;
#X obj 321 51 inlet~;
#X text 68 32 a1;
#X text 130 32 a2;
#X text 264 33 b1;
#X text 329 34 b2;
#X text 197 32 b0;
#X text 396 32 a0;
#X text 74 229 a1;
#X text 136 229 a2;
#X text 259 232 b1;
#X text 318 235 b2;
#X text 199 231 b0;
#X obj 60 207 outlet~;
#X obj 129 206 outlet~;
#X obj 193 207 outlet~;
#X obj 256 206 outlet~;
#X obj 321 209 outlet~;
#X obj 393 51 inlet~;
#X connect 0 0 2 0;
#X connect 1 0 3 0;
#X connect 2 0 23 0;
#X connect 3 0 24 0;
#X connect 4 0 25 0;
#X connect 5 0 26 0;
#X connect 6 0 27 0;
#X connect 7 0 0 0;
#X connect 8 0 1 0;
#X connect 9 0 4 0;
#X connect 10 0 5 0;
#X connect 11 0 6 0;
#X connect 28 0 6 1;
#X connect 28 0 5 1;
#X connect 28 0 4 1;
#X connect 28 0 3 1;
#X connect 28 0 2 1;
#X restore 329 302 pd tobiquad~~~~~~~~~~~~~~~~;
#N canvas 509 216 624 450 reson~~~~~~~~~~~~~~~~~~~ 0;
#X obj 115 258 cos~;
#X obj 115 278 *~ -2;
#X text 156 277 a1;
#X obj 191 250 sig~ 1;
#X obj 191 279 -~;
#X text 223 279 a2;
#X obj 268 279 cos~;
#X obj 268 300 *~ 0.5;
#X text 307 280 b0;
#X obj 348 256 sig~ 0;
#X text 395 255 b1;
#X obj 426 273 cos~;
#X obj 426 294 *~ 0.5;
#X obj 425 341 *~ -1;
#X text 465 274 b2;
#X obj 520 264 +~ 1;
#X text 553 267 a0;
#X obj 114 377 outlet~;
#X obj 190 377 outlet~;
#X obj 268 376 outlet~;
#X obj 348 378 outlet~;
#X obj 425 378 outlet~;
#X obj 519 378 outlet~;
#X obj 268 258 -~ 0.25;
#X obj 426 252 -~ 0.25;
#X obj 494 80 switch~ 0;
#X obj 494 37 r \$0-filtertype;
#X obj 494 58 == 2;
#X text 535 109 alpha;
#X obj 520 128 inlet~;
#X obj 147 144 inlet~;
#X text 165 120 omega;
#X connect 0 0 1 0;
#X connect 1 0 17 0;
#X connect 3 0 4 0;
#X connect 4 0 18 0;
#X connect 6 0 7 0;
#X connect 7 0 19 0;
#X connect 9 0 20 0;
#X connect 11 0 12 0;
#X connect 12 0 13 0;
#X connect 13 0 21 0;
#X connect 15 0 22 0;
#X connect 23 0 6 0;
#X connect 24 0 11 0;
#X connect 26 0 27 0;
#X connect 27 0 25 0;
#X connect 29 0 4 1;
#X connect 29 0 15 0;
#X connect 30 0 0 0;
#X connect 30 0 23 0;
#X connect 30 0 24 0;
#X restore 429 172 pd reson~~~~~~~~~~~~~~~~~~~;
#N canvas 794 222 849 450 lowpass~~~~~~~~~~~~~~~~~~~ 0;
#X obj 115 258 cos~;
#X obj 115 278 *~ -2;
#X text 156 277 a1;
#X obj 191 250 sig~ 1;
#X obj 191 279 -~;
#X text 223 279 a2;
#X obj 312 247 cos~;
#X obj 268 300 *~ 0.5;
#X text 344 251 b0;
#X text 432 268 b1;
#X obj 695 254 +~ 1;
#X text 728 257 a0;
#X obj 114 377 outlet~;
#X obj 190 377 outlet~;
#X obj 268 376 outlet~;
#X obj 380 379 outlet~;
#X obj 514 375 outlet~;
#X obj 694 368 outlet~;
#X obj 268 246 sig~ 1;
#X obj 267 274 -~;
#X obj 425 250 cos~;
#X obj 381 249 sig~ 1;
#X obj 380 277 -~;
#X obj 558 250 cos~;
#X obj 514 303 *~ 0.5;
#X obj 514 249 sig~ 1;
#X obj 513 277 -~;
#X obj 561 77 switch~ 0;
#X obj 561 34 r \$0-filtertype;
#X obj 561 55 == 0;
#X text 590 254 b2;
#X text 157 56 omega;
#X text 712 83 alpha;
#X obj 114 77 inlet~;
#X obj 694 109 inlet~;
#X connect 0 0 1 0;
#X connect 1 0 12 0;
#X connect 3 0 4 0;
#X connect 4 0 13 0;
#X connect 6 0 19 1;
#X connect 7 0 14 0;
#X connect 10 0 17 0;
#X connect 18 0 19 0;
#X connect 19 0 7 0;
#X connect 20 0 22 1;
#X connect 21 0 22 0;
#X connect 22 0 15 0;
#X connect 23 0 26 1;
#X connect 24 0 16 0;
#X connect 25 0 26 0;
#X connect 26 0 24 0;
#X connect 28 0 29 0;
#X connect 29 0 27 0;
#X connect 33 0 0 0;
#X connect 33 0 6 0;
#X connect 33 0 20 0;
#X connect 33 0 23 0;
#X connect 34 0 4 1;
#X connect 34 0 10 0;
#X restore 21 164 pd lowpass~~~~~~~~~~~~~~~~~~~;
#X obj 328 345 outlet~;
#X obj 379 344 outlet~;
#X obj 431 345 outlet~;
#X obj 482 344 outlet~;
#X obj 535 344 outlet~;
#X text 551 325 a1 a2 b0 b1 b2;
#N canvas 1 253 849 450 highpass~~~~~~~~~~~~~~~~~~~ 0;
#X obj 115 258 cos~;
#X obj 115 278 *~ -2;
#X text 156 277 a1;
#X obj 191 250 sig~ 1;
#X obj 191 279 -~;
#X text 223 279 a2;
#X obj 312 247 cos~;
#X obj 268 300 *~ 0.5;
#X text 344 251 b0;
#X text 432 268 b1;
#X obj 695 254 +~ 1;
#X text 728 257 a0;
#X obj 114 377 outlet~;
#X obj 190 377 outlet~;
#X obj 268 376 outlet~;
#X obj 380 379 outlet~;
#X obj 514 375 outlet~;
#X obj 694 368 outlet~;
#X obj 268 246 sig~ 1;
#X obj 425 250 cos~;
#X obj 381 249 sig~ 1;
#X obj 558 250 cos~;
#X obj 514 249 sig~ 1;
#X obj 561 77 switch~ 0;
#X obj 561 34 r \$0-filtertype;
#X obj 380 276 +~;
#X obj 513 277 +~;
#X obj 268 276 +~;
#X obj 381 301 *~ -1;
#X obj 514 303 *~ 0.5;
#X obj 561 55 == 1;
#X text 590 254 b2;
#X obj 114 77 inlet~;
#X text 121 56 omega;
#X obj 694 109 inlet~;
#X text 703 92 alpha;
#X connect 0 0 1 0;
#X connect 1 0 12 0;
#X connect 3 0 4 0;
#X connect 4 0 13 0;
#X connect 6 0 27 1;
#X connect 7 0 14 0;
#X connect 10 0 17 0;
#X connect 18 0 27 0;
#X connect 19 0 25 1;
#X connect 20 0 25 0;
#X connect 21 0 26 1;
#X connect 22 0 26 0;
#X connect 24 0 30 0;
#X connect 25 0 28 0;
#X connect 26 0 29 0;
#X connect 27 0 7 0;
#X connect 28 0 15 0;
#X connect 29 0 16 0;
#X connect 30 0 23 0;
#X connect 32 0 0 0;
#X connect 32 0 6 0;
#X connect 32 0 19 0;
#X connect 32 0 21 0;
#X connect 34 0 4 1;
#X connect 34 0 10 0;
#X restore 216 167 pd highpass~~~~~~~~~~~~~~~~~~~;
#X obj 772 23 inlet~;
#X text 777 -1 alpha;
#X obj 21 21 inlet~;
#X text 30 2 omega;
#N canvas 970 229 624 450 notch~~~~~~~~~~~~~~~~~~~ 0;
#X obj 115 258 cos~;
#X obj 115 278 *~ -2;
#X text 156 277 a1;
#X obj 191 250 sig~ 1;
#X obj 191 279 -~;
#X text 223 279 a2;
#X text 307 280 b0;
#X text 387 255 b1;
#X text 465 274 b2;
#X obj 520 264 +~ 1;
#X text 553 267 a0;
#X obj 114 377 outlet~;
#X obj 190 377 outlet~;
#X obj 268 376 outlet~;
#X obj 348 378 outlet~;
#X obj 425 378 outlet~;
#X obj 519 378 outlet~;
#X obj 494 80 switch~ 0;
#X obj 494 37 r \$0-filtertype;
#X text 535 109 alpha;
#X obj 520 128 inlet~;
#X obj 116 141 inlet~;
#X text 134 117 omega;
#X obj 494 58 == 3;
#X obj 267 296 sig~ 1;
#X obj 348 254 cos~;
#X obj 348 274 *~ -2;
#X obj 425 295 sig~ 1;
#X floatatom 395 69 5 0 0 0 - - - 0;
#X connect 0 0 1 0;
#X connect 1 0 11 0;
#X connect 3 0 4 0;
#X connect 4 0 12 0;
#X connect 9 0 16 0;
#X connect 18 0 23 0;
#X connect 18 0 28 0;
#X connect 20 0 4 1;
#X connect 20 0 9 0;
#X connect 21 0 0 0;
#X connect 21 0 25 0;
#X connect 23 0 17 0;
#X connect 24 0 13 0;
#X connect 25 0 26 0;
#X connect 26 0 14 0;
#X connect 27 0 15 0;
#X restore 612 172 pd notch~~~~~~~~~~~~~~~~~~~;
#X connect 0 0 3 0;
#X connect 0 1 4 0;
#X connect 0 2 5 0;
#X connect 0 3 6 0;
#X connect 0 4 7 0;
#X connect 1 0 0 0;
#X connect 1 1 0 1;
#X connect 1 2 0 2;
#X connect 1 3 0 3;
#X connect 1 4 0 4;
#X connect 1 5 0 5;
#X connect 2 0 0 0;
#X connect 2 1 0 1;
#X connect 2 2 0 2;
#X connect 2 3 0 3;
#X connect 2 4 0 4;
#X connect 2 5 0 5;
#X connect 9 0 0 0;
#X connect 9 1 0 1;
#X connect 9 2 0 2;
#X connect 9 3 0 3;
#X connect 9 4 0 4;
#X connect 9 5 0 5;
#X connect 10 0 9 1;
#X connect 10 0 2 1;
#X connect 10 0 1 1;
#X connect 10 0 14 1;
#X connect 12 0 9 0;
#X connect 12 0 2 0;
#X connect 12 0 1 0;
#X connect 12 0 14 0;
#X connect 14 0 0 0;
#X connect 14 1 0 1;
#X connect 14 2 0 2;
#X connect 14 3 0 3;
#X connect 14 4 0 4;
#X connect 14 5 0 5;
#X restore 478 415 pd filtercoef~~~~~~~~~~~~~~~~~~~~~~~~~~~~~~~~;
#N canvas 1 57 450 300 samplerate 0;
#X obj 230 123 outlet;
#X obj 268 72 loadbang;
#X obj 230 96 samplerate~;
#X obj 230 52 r pd-dsp-started;
#X connect 1 0 2 0;
#X connect 2 0 0 0;
#X connect 3 0 2 0;
#X restore 552 204 pd samplerate;
#X obj 552 225 / 2;
#X obj 657 210 clip~ -99 100;
#N canvas 306 126 781 543 outlet-message 0;
#N canvas 155 411 986 300 bang_once....................................... 0;
#X obj 132 87 t b f;
#X obj 89 139 del 0;
#X obj 89 87 t b f;
#X obj 89 41 inlet;
#X obj 132 40 inlet;
#X obj 217 40 inlet;
#X obj 89 247 outlet;
#X obj 89 173 f;
#X obj 217 87 t b a;
#X obj 89 203 pack 0 0 s;
#X connect 0 0 1 0;
#X connect 0 1 9 1;
#X connect 1 0 7 0;
#X connect 2 0 1 0;
#X connect 2 1 7 1;
#X connect 3 0 2 0;
#X connect 4 0 0 0;
#X connect 5 0 8 0;
#X connect 7 0 9 0;
#X connect 8 0 1 0;
#X connect 8 1 9 2;
#X connect 9 0 6 0;
#X restore 241 314 pd bang_once.......................................;
#X obj 309 497 list trim;
#X msg 228 465 addcomma;
#X msg 164 472 set;
#X obj 309 474 list prepend add2;
#X obj 308 552 outlet;
#X obj 223 95 r \$0-freq;
#X obj 392 137 r \$0-q;
#X obj 544 132 r \$0-filtertype;
#X obj 544 292 symbol;
#X msg 544 187 lowpass;
#X msg 558 208 highpass;
#X msg 576 232 reson;
#X msg 262 393 \$3 \, frequency \$1 \, q \$2;
#X obj 240 334 t b a b;
#X obj 262 420 t b a a;
#N canvas 497 319 297 264 save 0;
#X obj 48 16 inlet;
#N canvas 690 259 481 384 collect 0;
#X obj 47 60 inlet;
#X obj 47 274 outlet;
#X obj 98 180 list;
#X obj 166 181 t l;
#X obj 47 225 list;
#X obj 98 139 list append |;
#X obj 47 126 del 0;
#X obj 47 82 t b a;
#X text 119 75 hacky thing... replaycing " \, " with "|";
#X connect 0 0 7 0;
#X connect 2 0 3 0;
#X connect 2 0 4 1;
#X connect 3 0 2 1;
#X connect 4 0 1 0;
#X connect 5 0 2 0;
#X connect 6 0 2 1;
#X connect 6 0 4 0;
#X connect 7 0 6 0;
#X connect 7 1 5 0;
#X restore 48 38 pd collect;
#X obj 117 16 r \$0-save;
#X obj 27 130 text set \$0-savestates;
#X obj 27 104 list;
#X obj 117 62 t b f;
#X obj 117 39 clip 0 20;
#X connect 0 0 1 0;
#X connect 1 0 4 1;
#X connect 2 0 6 0;
#X connect 4 0 3 0;
#X connect 5 0 4 0;
#X connect 5 1 3 1;
#X connect 6 0 5 0;
#X restore 310 444 pd save;
#X obj 544 166 sel 0 1 2 3;
#X msg 591 256 notch;
#X connect 0 0 14 0;
#X connect 1 0 5 0;
#X connect 2 0 5 0;
#X connect 3 0 5 0;
#X connect 4 0 1 0;
#X connect 6 0 0 0;
#X connect 7 0 0 1;
#X connect 8 0 17 0;
#X connect 9 0 0 2;
#X connect 10 0 9 0;
#X connect 11 0 9 0;
#X connect 12 0 9 0;
#X connect 13 0 15 0;
#X connect 14 0 5 0;
#X connect 14 1 13 0;
#X connect 14 2 3 0;
#X connect 15 0 2 0;
#X connect 15 1 4 0;
#X connect 15 2 16 0;
#X connect 17 0 10 0;
#X connect 17 1 11 0;
#X connect 17 2 12 0;
#X connect 17 3 18 0;
#X connect 18 0 9 0;
#X restore 837 533 pd outlet-message;
#N canvas 276 184 680 472 biquad~~~~~~~~~~~~~~~~~~~~~~~~~~~~~~~~~~~~~~~~~~~~~~~ 0;
#X obj 73 24 inlet~;
#X obj 164 324 outlet~;
#X obj 72 109 *~;
#X obj 141 260 cpole~;
#X obj 165 287 cpole~;
#X obj 145 24 inlet~;
#X obj 193 24 inlet~;
#X obj 263 23 inlet~;
#X obj 311 23 inlet~;
#X obj 357 22 inlet~;
#N canvas 1 57 450 624 poles 0;
#X obj 109 41 inlet~;
#X obj 196 38 inlet~;
#X obj 180 133 +~;
#X obj 197 91 *~ 4;
#X obj 124 222 max~ 0;
#X obj 125 245 sqrt~;
#X obj 227 239 abs~;
#X obj 227 260 sqrt~;
#X obj 110 358 +~;
#X text 171 228 real;
#X text 263 233 imag;
#X obj 110 494 outlet~;
#X obj 168 455 outlet~;
#X text 129 515 pole 1;
#X obj 241 498 outlet~;
#X obj 294 498 outlet~;
#X text 269 532 pole 2;
#X obj 155 97 *~;
#X obj 227 215 min~ 0;
#X obj 167 403 *~ 0.5;
#X obj 110 402 *~ 0.5;
#X obj 241 364 -~;
#X obj 294 359 -~;
#X obj 294 405 *~ 0.5;
#X obj 241 404 *~ 0.5;
#X connect 0 0 8 0;
#X connect 0 0 17 0;
#X connect 0 0 17 1;
#X connect 0 0 21 0;
#X connect 1 0 3 0;
#X connect 2 0 4 0;
#X connect 2 0 18 0;
#X connect 3 0 2 1;
#X connect 4 0 5 0;
#X connect 5 0 8 1;
#X connect 5 0 21 1;
#X connect 6 0 7 0;
#X connect 7 0 19 0;
#X connect 7 0 22 1;
#X connect 8 0 20 0;
#X connect 17 0 2 0;
#X connect 18 0 6 0;
#X connect 19 0 12 0;
#X connect 20 0 11 0;
#X connect 21 0 24 0;
#X connect 22 0 23 0;
#X connect 23 0 15 0;
#X connect 24 0 14 0;
#X restore 219 206 pd poles;
#N canvas 116 132 450 600 zeros 0;
#X obj 69 26 inlet~;
#X obj 172 28 inlet~;
#X obj 246 29 inlet~;
#X obj 104 201 *~ -1;
#X obj 173 102 /~;
#X obj 246 102 /~;
#X obj 247 131 *~ 4;
#X obj 217 186 -~;
#X obj 105 512 outlet~;
#X obj 160 491 outlet~;
#X obj 105 352 +~;
#X obj 105 373 *~ 0.5;
#X obj 227 386 *~ 0.5;
#X obj 227 365 -~;
#X obj 228 516 outlet~;
#X obj 285 491 outlet~;
#X text 127 533 zero 1;
#X text 252 533 zero 2;
#X obj 172 154 *~;
#X obj 216 240 max~ 0;
#X obj 217 260 sqrt~;
#X obj 301 265 abs~;
#X obj 301 286 sqrt~;
#X text 263 246 real;
#X text 354 252 imag;
#X obj 301 241 min~ 0;
#X obj 286 365 -~;
#X obj 286 385 *~ 0.5;
#X obj 161 377 *~ 0.5;
#X connect 0 0 4 1;
#X connect 0 0 5 1;
#X connect 1 0 4 0;
#X connect 2 0 5 0;
#X connect 3 0 10 0;
#X connect 3 0 13 0;
#X connect 4 0 18 0;
#X connect 4 0 18 1;
#X connect 4 0 3 0;
#X connect 5 0 6 0;
#X connect 6 0 7 1;
#X connect 7 0 19 0;
#X connect 7 0 25 0;
#X connect 10 0 11 0;
#X connect 11 0 8 0;
#X connect 12 0 14 0;
#X connect 13 0 12 0;
#X connect 18 0 7 0;
#X connect 19 0 20 0;
#X connect 20 0 10 1;
#X connect 20 0 13 1;
#X connect 21 0 22 0;
#X connect 22 0 26 1;
#X connect 22 0 28 0;
#X connect 25 0 21 0;
#X connect 26 0 27 0;
#X connect 27 0 15 0;
#X connect 28 0 9 0;
#X restore 263 78 pd zeros;
#X obj 100 183 czero~;
#X obj 118 217 czero~;
#X text 149 3 a1;
#X text 198 3 a2;
#X text 268 4 b0;
#X text 317 4 b1;
#X text 358 4 b2;
#X connect 0 0 2 0;
#X connect 2 0 12 0;
#X connect 3 0 4 0;
#X connect 3 1 4 1;
#X connect 4 0 1 0;
#X connect 5 0 10 0;
#X connect 6 0 10 1;
#X connect 7 0 2 1;
#X connect 7 0 11 0;
#X connect 8 0 11 1;
#X connect 9 0 11 2;
#X connect 10 0 3 2;
#X connect 10 1 3 3;
#X connect 10 2 4 2;
#X connect 10 3 4 3;
#X connect 11 0 12 2;
#X connect 11 1 12 3;
#X connect 11 2 13 2;
#X connect 11 3 13 3;
#X connect 12 0 13 0;
#X connect 12 1 13 1;
#X connect 13 0 3 0;
#X connect 13 1 3 1;
#X restore 412 468 pd biquad~~~~~~~~~~~~~~~~~~~~~~~~~~~~~~~~~~~~~~~~~~~~~~~;
#X obj 657 86 clip -99 100;
#N canvas 97 362 1024 336 alpha+omega~~~~~~~~~~~~~~~~~~~~~~~~~~~~~~~ 0;
#X obj 49 26 inlet~;
#X text 65 7 freq;
#X obj 277 33 inlet~;
#X obj 276 275 outlet~;
#X text 283 298 alpha;
#X obj 49 270 outlet~;
#X text 67 289 omega;
#X obj 66 76 expr 1/$f1;
#X text 132 73 divide by SR;
#X obj 49 96 *~;
#N canvas 1 57 450 300 samplerate 0;
#X obj 230 123 outlet;
#X obj 268 72 loadbang;
#X obj 230 96 samplerate~;
#X obj 230 52 r pd-dsp-started;
#X connect 1 0 2 0;
#X connect 2 0 0 0;
#X connect 3 0 2 0;
#X restore 66 53 pd samplerate;
#N canvas 403 258 585 300 notch 0;
#X obj 431 81 switch~ 0;
#X obj 431 38 r \$0-filtertype;
#X obj 431 60 == 3;
#X obj 51 50 inlet~;
#X obj 286 41 inlet~;
#X obj 66 152 cos~;
#X obj 65 131 -~ 0.25;
#X obj 52 228 outlet~;
#X obj 116 223 outlet~;
#X obj 273 117 sig~ 1;
#X obj 273 140 /~;
#X obj 286 91 max~ 0.005;
#X obj 67 178 expr~ $v1*sinh(ln(2)/2*$v3*$v2/$v1);
#X obj 287 68 /~ 6.28319;
#X connect 1 0 2 0;
#X connect 2 0 0 0;
#X connect 3 0 6 0;
#X connect 3 0 7 0;
#X connect 3 0 12 1;
#X connect 4 0 13 0;
#X connect 5 0 12 0;
#X connect 6 0 5 0;
#X connect 9 0 10 0;
#X connect 10 0 12 2;
#X connect 11 0 10 1;
#X connect 12 0 8 0;
#X connect 13 0 11 0;
#X restore 231 198 pd notch;
#N canvas 155 190 629 300 lop_hip_bp 0;
#X obj 119 28 inlet~;
#X obj 298 28 inlet~;
#X obj 298 80 *~ 2;
#X obj 283 163 /~;
#X obj 239 132 cos~;
#X obj 298 112 +~ 1e-24;
#X obj 238 111 -~ 0.25;
#X obj 120 206 outlet~;
#X obj 283 198 outlet~;
#X obj 413 71 switch~ 0;
#X obj 413 28 r \$0-filtertype;
#X obj 413 50 < 3;
#X connect 0 0 6 0;
#X connect 0 0 7 0;
#X connect 1 0 2 0;
#X connect 2 0 5 0;
#X connect 3 0 8 0;
#X connect 4 0 3 0;
#X connect 5 0 3 1;
#X connect 6 0 4 0;
#X connect 10 0 11 0;
#X connect 11 0 9 0;
#X restore 50 198 pd lop_hip_bp;
#X text 283 11 q/bw;
#X connect 0 0 9 0;
#X connect 2 0 12 1;
#X connect 2 0 11 1;
#X connect 7 0 9 1;
#X connect 9 0 12 0;
#X connect 9 0 11 0;
#X connect 10 0 7 0;
#X connect 11 0 5 0;
#X connect 11 1 3 0;
#X connect 12 0 5 0;
#X connect 12 1 3 0;
#X restore 477 389 pd alpha+omega~~~~~~~~~~~~~~~~~~~~~~~~~~~~~~~;
#X obj 477 251 clip~ 8 20050;
#X obj 532 124 inlet~;
#X text 575 124 freq;
#X obj 756 101 inlet~;
#N canvas 346 429 450 300 bw 0;
#X obj 97 43 inlet~;
#X obj 97 220 outlet~;
#X obj 200 113 switch~ 0;
#X obj 200 70 r \$0-filtertype;
#X obj 200 92 == 3;
#X obj 97 150 clip~ 0 100;
#X connect 0 0 5 0;
#X connect 3 0 4 0;
#X connect 4 0 2 0;
#X connect 5 0 1 0;
#X restore 658 298 pd bw;
#X text 870 600 philipp schmalfuß \, 2018-26;
#X text 797 103 q/bw;
#X obj 336 50 inlet~;
#X obj 336 560 outlet~;
#N canvas 276 184 680 472 biquad~~~~~~~~~~~~~~~~~~~~~~~~~~~~~~~~~~~~~~~~~~~~~~~ 0;
#X obj 73 24 inlet~;
#X obj 164 324 outlet~;
#X obj 72 109 *~;
#X obj 141 260 cpole~;
#X obj 165 287 cpole~;
#X obj 145 24 inlet~;
#X obj 193 24 inlet~;
#X obj 263 23 inlet~;
#X obj 311 23 inlet~;
#X obj 357 22 inlet~;
#N canvas 1 57 450 624 poles 0;
#X obj 109 41 inlet~;
#X obj 196 38 inlet~;
#X obj 180 133 +~;
#X obj 197 91 *~ 4;
#X obj 124 222 max~ 0;
#X obj 125 245 sqrt~;
#X obj 227 239 abs~;
#X obj 227 260 sqrt~;
#X obj 110 358 +~;
#X text 171 228 real;
#X text 263 233 imag;
#X obj 110 494 outlet~;
#X obj 168 455 outlet~;
#X text 129 515 pole 1;
#X obj 241 498 outlet~;
#X obj 294 498 outlet~;
#X text 269 532 pole 2;
#X obj 155 97 *~;
#X obj 227 215 min~ 0;
#X obj 167 403 *~ 0.5;
#X obj 110 402 *~ 0.5;
#X obj 241 364 -~;
#X obj 294 359 -~;
#X obj 294 405 *~ 0.5;
#X obj 241 404 *~ 0.5;
#X connect 0 0 8 0;
#X connect 0 0 17 0;
#X connect 0 0 17 1;
#X connect 0 0 21 0;
#X connect 1 0 3 0;
#X connect 2 0 4 0;
#X connect 2 0 18 0;
#X connect 3 0 2 1;
#X connect 4 0 5 0;
#X connect 5 0 8 1;
#X connect 5 0 21 1;
#X connect 6 0 7 0;
#X connect 7 0 19 0;
#X connect 7 0 22 1;
#X connect 8 0 20 0;
#X connect 17 0 2 0;
#X connect 18 0 6 0;
#X connect 19 0 12 0;
#X connect 20 0 11 0;
#X connect 21 0 24 0;
#X connect 22 0 23 0;
#X connect 23 0 15 0;
#X connect 24 0 14 0;
#X restore 219 206 pd poles;
#N canvas 116 132 450 600 zeros 0;
#X obj 69 26 inlet~;
#X obj 172 28 inlet~;
#X obj 246 29 inlet~;
#X obj 104 201 *~ -1;
#X obj 173 102 /~;
#X obj 246 102 /~;
#X obj 247 131 *~ 4;
#X obj 217 186 -~;
#X obj 105 512 outlet~;
#X obj 160 491 outlet~;
#X obj 105 352 +~;
#X obj 105 373 *~ 0.5;
#X obj 227 386 *~ 0.5;
#X obj 227 365 -~;
#X obj 228 516 outlet~;
#X obj 285 491 outlet~;
#X text 127 533 zero 1;
#X text 252 533 zero 2;
#X obj 172 154 *~;
#X obj 216 240 max~ 0;
#X obj 217 260 sqrt~;
#X obj 301 265 abs~;
#X obj 301 286 sqrt~;
#X text 263 246 real;
#X text 354 252 imag;
#X obj 301 241 min~ 0;
#X obj 286 365 -~;
#X obj 286 385 *~ 0.5;
#X obj 161 377 *~ 0.5;
#X connect 0 0 4 1;
#X connect 0 0 5 1;
#X connect 1 0 4 0;
#X connect 2 0 5 0;
#X connect 3 0 10 0;
#X connect 3 0 13 0;
#X connect 4 0 18 0;
#X connect 4 0 18 1;
#X connect 4 0 3 0;
#X connect 5 0 6 0;
#X connect 6 0 7 1;
#X connect 7 0 19 0;
#X connect 7 0 25 0;
#X connect 10 0 11 0;
#X connect 11 0 8 0;
#X connect 12 0 14 0;
#X connect 13 0 12 0;
#X connect 18 0 7 0;
#X connect 19 0 20 0;
#X connect 20 0 10 1;
#X connect 20 0 13 1;
#X connect 21 0 22 0;
#X connect 22 0 26 1;
#X connect 22 0 28 0;
#X connect 25 0 21 0;
#X connect 26 0 27 0;
#X connect 27 0 15 0;
#X connect 28 0 9 0;
#X restore 263 78 pd zeros;
#X obj 100 183 czero~;
#X obj 118 217 czero~;
#X text 149 3 a1;
#X text 198 3 a2;
#X text 268 4 b0;
#X text 317 4 b1;
#X text 358 4 b2;
#X connect 0 0 2 0;
#X connect 2 0 12 0;
#X connect 3 0 4 0;
#X connect 3 1 4 1;
#X connect 4 0 1 0;
#X connect 5 0 10 0;
#X connect 6 0 10 1;
#X connect 7 0 2 1;
#X connect 7 0 11 0;
#X connect 8 0 11 1;
#X connect 9 0 11 2;
#X connect 10 0 3 2;
#X connect 10 1 3 3;
#X connect 10 2 4 2;
#X connect 10 3 4 3;
#X connect 11 0 12 2;
#X connect 11 1 12 3;
#X connect 11 2 13 2;
#X connect 11 3 13 3;
#X connect 12 0 13 0;
#X connect 12 1 13 1;
#X connect 13 0 3 0;
#X connect 13 1 3 1;
#X restore 337 496 pd biquad~~~~~~~~~~~~~~~~~~~~~~~~~~~~~~~~~~~~~~~~~~~~~~~;
#X connect 1 0 2 0;
#X connect 2 0 11 0;
#X connect 3 0 4 0;
#X connect 4 0 12 0;
#X connect 5 0 24 1;
#X connect 7 0 1 0;
#X connect 8 0 23 0;
#X connect 9 0 22 0;
#X connect 11 0 25 0;
#X connect 12 0 20 0;
#X connect 13 0 14 0;
#X connect 17 0 22 1;
#X connect 17 0 34 1;
#X connect 17 1 22 2;
#X connect 17 1 34 2;
#X connect 17 2 22 3;
#X connect 17 2 34 3;
#X connect 17 3 22 4;
#X connect 17 3 34 4;
#X connect 17 4 22 5;
#X connect 17 4 34 5;
#X connect 18 0 19 0;
#X connect 19 0 25 2;
#X connect 20 0 5 0;
#X connect 20 0 29 0;
#X connect 21 0 15 0;
#X connect 22 0 16 0;
#X connect 23 0 3 0;
#X connect 24 0 17 0;
#X connect 24 1 17 1;
#X connect 25 0 24 0;
#X connect 26 0 11 1;
#X connect 28 0 12 1;
#X connect 29 0 24 1;
#X connect 32 0 34 0;
#X connect 34 0 33 0;
#X coords 0 -1 1 1 155 33 1 100 100;
