#N struct 1282-xt float x float y;
#N struct 1282-yt float x float y;
#N canvas 77 187 857 309 10;
#X obj 391 248 pp.out~;
#A saved;
#X obj 2 2 cnv 15 380 300 empty empty empty 20 12 0 14 -233017 -66577
0;
#X text 11 109 Inlets:;
#X text 11 174 Outlets:;
#X obj 13 20 cnv 15 10 10 empty empty pp.vcfilter~ 0 0 2 16 -233017
-262144 0;
#X obj 6 282 cnv 15 81 17 empty empty empty 20 12 0 14 -260097 -66577
0;
#N canvas 599 176 505 104 references 0;
#X obj 2 1 cnv 15 500 100 empty empty empty 20 12 0 14 -1 -66577 0
;
#X obj 3 2 cnv 15 498 98 empty empty empty 20 12 0 14 -233017 -66577
0;
#X text 15 71 http://www.musicdsp.org/files/Audio-EQ-Cookbook.txt;
#X text 14 38 Filter coefficients are calculated following Robert Bristow-Johnsons
Audio-EQ-cookbook rezipes:;
#X text 14 11 https://github.com/dotmmb/mmb;
#X restore 6 282 pd references;
#X obj 390 3 noise~;
#X text 11 56 Creation arguments:;
#X floatatom 464 58 5 0 0 0 - - -;
#X obj 464 78 sig~;
#X floatatom 500 81 5 0 0 0 - - -;
#X obj 500 101 sig~;
#X text 500 59 filter frequency(hz);
#X text 536 84 Q/bandwith;
#X obj 390 133 pp.vcfilter-st~ lowpass;
#A saved;
#X text 12 37 stereo version of [pp.vcfilter~];
#X text 69 119 2:(~)signal right;
#X text 68 174 1:(~)filtered signal left;
#X text 68 186 2:(~)filtered signal right;
#X text 68 198 3:message;
#X text 69 108 1:(~)signal left;
#X text 69 130 3:(~)frequency;
#X text 549 149 <-- click to open GUI;
#X text 69 154 5:control-messages;
#X text 15 78 \$1: filtertype (lowpass \, highpass \, reson) \, default:
lowpass;
#X text 69 142 4:(~)filter-q;
#N canvas 925 317 420 180 message-out 0;
#X obj 20 20 inlet;
#X msg 20 48 lowpass \, frequency 36 \, q 14 \,;
#X connect 0 0 1 0;
#X restore 538 177 pd message-out;
#X obj 473 205 pp.spectrum~;
#X text 635 220 <-- click to analyze;
#X obj 538 108 cnv 15 118 17 empty empty empty 20 12 0 14 -260097 -66577
0;
#N canvas 152 124 552 519 control-messages 0;
#X obj 86 397 outlet;
#X floatatom 86 94 5 0 0 0 - - -;
#X msg 86 114 frequency \$1;
#X text 127 95 filter frequency in hz;
#X floatatom 117 154 5 0 0 0 - - -;
#X msg 117 174 q \$1;
#X msg 152 251 lowpass;
#X msg 152 271 highpass;
#X msg 152 291 reson;
#X text 159 233 filtertype;
#X obj 155 368 cnv 16 87 16 empty empty empty 20 12 0 14 -260097 -66577
0;
#N canvas 864 246 634 307 save&recall 0;
#X obj 93 233 outlet;
#X msg 93 60 0;
#X msg 125 60 1;
#X msg 158 60 2;
#X msg 93 99 save \$1;
#X text 185 63 ...;
#X msg 207 60 20;
#X msg 149 154 0;
#X msg 181 154 1;
#X msg 214 154 2;
#X text 241 157 ...;
#X msg 263 154 20;
#X msg 149 193 recall \$1;
#X text 249 93 save & recall up to 20 presets \, presets will be saved
with the parrent patch;
#X connect 1 0 4 0;
#X connect 2 0 4 0;
#X connect 3 0 4 0;
#X connect 4 0 0 0;
#X connect 6 0 4 0;
#X connect 7 0 12 0;
#X connect 8 0 12 0;
#X connect 9 0 12 0;
#X connect 11 0 12 0;
#X connect 12 0 0 0;
#X restore 155 367 pd save&recall;
#X text 153 174 filter resonance;
#X connect 1 0 2 0;
#X connect 2 0 0 0;
#X connect 4 0 5 0;
#X connect 5 0 0 0;
#X connect 6 0 0 0;
#X connect 7 0 0 0;
#X connect 8 0 0 0;
#X connect 11 0 0 0;
#X restore 538 108 pd control-messages;
#X obj 426 26 noise~;
#X connect 7 0 15 0;
#X connect 9 0 10 0;
#X connect 10 0 15 2;
#X connect 11 0 12 0;
#X connect 12 0 15 3;
#X connect 15 0 0 0;
#X connect 15 1 0 1;
#X connect 15 1 28 0;
#X connect 15 2 27 0;
#X connect 31 0 15 4;
#X connect 32 0 15 1;
