#N canvas 81 97 857 308 10;
#N struct \$0-xt float x float y;
#N struct \$0-yt float x float y;
#X obj 390 248 pp.out~;
#A saved;
#X obj 1 2 cnv 15 380 300 empty empty empty 20 12 0 14 #e0e0e0 #404040 0;
#X text 68 128 1:(~)signal;
#X text 10 129 Inlets:;
#X text 10 203 Outlets:;
#X text 68 218 2:message;
#X obj 12 20 cnv 15 10 10 empty empty pp.vcfilter~ 0 0 2 16 #e0e0e0 #fcfcfc 0;
#X obj 5 282 cnv 15 81 17 empty empty empty 20 12 0 14 #fc8000 #404040 0;
#N canvas 599 176 505 104 references 0;
#X obj 2 1 cnv 15 500 100 empty empty empty 20 12 0 14 #000000 #404040 0;
#X obj 3 2 cnv 15 498 98 empty empty empty 20 12 0 14 #e0e0e0 #404040 0;
#X text 15 71 http://www.musicdsp.org/files/Audio-EQ-Cookbook.txt;
#X text 14 32 Filter coefficients are calculated following Robert Bristow-Johnsons Audio-EQ-cookbook rezipes:;
#X text 14 9 https://github.com/dotmmb/mmb;
#X restore 5 282 pd references;
#X obj 389 9 noise~;
#X text 10 56 Creation arguments:;
#X text 68 203 1:(~)filtered signal;
#X obj 389 110 pp.vcfilter~ lowpass;
#A saved;
#X text 68 144 2:(~)frequency;
#X floatatom 437 35 5 0 0 0 - - - 0;
#X obj 437 55 sig~;
#X floatatom 486 54 5 0 0 0 - - - 0;
#X obj 486 74 sig~;
#X text 473 36 filter frequency(hz);
#X text 549 126 <-- click to open GUI;
#X text 68 176 4:control-messages;
#X obj 461 182 pp.spectrum~;
#X text 622 195 <-- click to analyze;
#X text 68 160 3:(~)filter-q;
#N canvas 925 317 420 180 message-out 0;
#X obj 20 20 inlet;
#X msg 20 48 lowpass \, frequency 0 \, q 0 \,;
#X connect 0 0 1 0;
#X restore 537 147 pd message-out;
#X text 11 33 signal controlled biquad filter;
#X text 38 97 default: lowpass;
#X text 15 78 \$1: filtertype (lowpass \, highpass \, reson \, notch);
#X obj 537 87 cnv 15 118 17 empty empty empty 20 12 0 14 #fc8000 #404040 0;
#N canvas 618 277 552 519 control-messages 0;
#X obj 86 397 outlet;
#X floatatom 86 94 5 0 0 0 - - - 0;
#X msg 86 114 frequency \$1;
#X text 127 95 filter frequency in hz;
#X floatatom 117 154 5 0 0 0 - - - 0;
#X msg 117 174 q \$1;
#X msg 153 230 lowpass;
#X msg 153 258 highpass;
#X msg 153 286 reson;
#X text 160 212 filtertype;
#X obj 155 368 cnv 16 87 16 empty empty empty 20 12 0 14 #fc8000 #404040 0;
#N canvas 864 246 634 307 save&recall 0;
#X obj 93 233 outlet;
#X msg 93 60 0;
#X msg 125 60 1;
#X msg 158 60 2;
#X msg 93 99 save \$1;
#X text 185 63 ...;
#X msg 207 60 20;
#X msg 149 154 0;
#X msg 181 154 1;
#X msg 214 154 2;
#X text 241 157 ...;
#X msg 263 154 20;
#X msg 149 193 recall \$1;
#X text 249 93 save & recall up to 20 presets \, presets will be saved with the parrent patch;
#X connect 1 0 4 0;
#X connect 2 0 4 0;
#X connect 3 0 4 0;
#X connect 4 0 0 0;
#X connect 6 0 4 0;
#X connect 7 0 12 0;
#X connect 8 0 12 0;
#X connect 9 0 12 0;
#X connect 11 0 12 0;
#X connect 12 0 0 0;
#X restore 155 367 pd save&recall;
#X text 153 174 filter resonance;
#X msg 153 313 notch;
#X connect 1 0 2 0;
#X connect 2 0 0 0;
#X connect 4 0 5 0;
#X connect 5 0 0 0;
#X connect 6 0 0 0;
#X connect 7 0 0 0;
#X connect 8 0 0 0;
#X connect 11 0 0 0;
#X connect 13 0 0 0;
#X restore 537 87 pd control-messages;
#X text 520 57 Q/bandwith;
#X connect 9 0 12 0;
#X connect 12 0 0 0;
#X connect 12 0 0 1;
#X connect 12 0 21 0;
#X connect 12 1 24 0;
#X connect 14 0 15 0;
#X connect 15 0 12 1;
#X connect 16 0 17 0;
#X connect 17 0 12 2;
#X connect 29 0 12 3;
