#N canvas 282 105 1081 660 10;
#X obj 409 96 pack f 20;
#X obj 409 121 line~;
#X obj 549 151 pack f 20;
#X obj 549 170 line~;
#N canvas 320 217 450 300 q 0;
#X obj 97 103 inlet~;
#X obj 97 156 dbtorms~;
#X obj 97 133 +~ 100;
#X obj 97 177 outlet~;
#X obj 200 113 switch~ 0;
#X obj 200 70 r \$0-filtertype;
#X obj 200 92 < 3;
#X connect 0 0 2 0;
#X connect 1 0 3 0;
#X connect 2 0 1 0;
#X connect 5 0 6 0;
#X connect 6 0 4 0;
#X restore 550 288 pd q;
#N canvas 312 199 773 599 stuff 0;
#X obj 132 59 r \$0-filtertype;
#X obj 132 304 s \$0-filtertyper;
#X msg 133 105 Lowpass;
#X msg 147 126 Highpass;
#X msg 165 150 Reson;
#X obj 132 262 symbol;
#X msg 132 283 label \$1;
#X obj 250 57 loadbang;
#X obj 249 160 pack 0 \$0;
#X obj 249 77 symbol \$1;
#X msg 249 119 0;
#X msg 277 121 1;
#X msg 309 121 2;
#X obj 148 323 s \$0-visbngr;
#X obj 170 476 s \$0-visbngr;
#X obj 152 371 r \$0-visbng;
#X msg 150 448 color 0 0;
#X msg 234 448 color 10 10;
#X obj 152 393 t b;
#X obj 232 423 del 250;
#X obj 116 525 s pd-\$0-vcfilter;
#X obj 249 98 sel lowpass highpass reson;
#X obj 366 123 t b;
#X obj 133 84 sel 0 1 2;
#X msg 116 503 relocate 230x95+1+1 1x1+50+50 \, vis 1;
#X msg 249 181 \; \$2-filtertyper \$1 \; \$2-qr 0 \;;
#X connect 0 0 23 0;
#X connect 2 0 5 0;
#X connect 3 0 5 0;
#X connect 4 0 5 0;
#X connect 5 0 6 0;
#X connect 6 0 1 0;
#X connect 6 0 13 0;
#X connect 7 0 9 0;
#X connect 8 0 25 0;
#X connect 9 0 21 0;
#X connect 10 0 8 0;
#X connect 11 0 8 0;
#X connect 12 0 8 0;
#X connect 15 0 18 0;
#X connect 16 0 14 0;
#X connect 17 0 14 0;
#X connect 18 0 16 0;
#X connect 18 0 19 0;
#X connect 18 0 24 0;
#X connect 19 0 17 0;
#X connect 21 0 10 0;
#X connect 21 1 11 0;
#X connect 21 2 12 0;
#X connect 21 3 22 0;
#X connect 22 0 8 0;
#X connect 23 0 2 0;
#X connect 23 1 3 0;
#X connect 23 2 4 0;
#X connect 24 0 20 0;
#X restore 837 228 pd stuff;
#X obj 408 75 r \$0-freq;
#X obj 549 104 r \$0-q;
#X obj 341 46 inlet~;
#N canvas 50 82 230 95 \$0-vcfilter 0;
#N canvas 172 254 714 345 mask 0;
#X obj 100 100 cnv 15 219 89 empty empty empty 20 12 0 14 -262144 -66577
0;
#X obj 107 108 hradio 11 1 0 3 \$0-filtertype \$0-filtertyper Lowpass
39 6 2 10 -262144 -1 -1 0;
#X obj 110 138 hsl 128 12 0 135.076 0 0 \$0-fgui \$0-fguir Frequency
-2 -6 2 10 -262144 -1 -1 0 1;
#X obj 244 138 nbx 5 12 0 20050 0 0 \$0-freq \$0-freqr hz 47 7 2 10
-262144 -1 -1 0 256;
#N canvas 0 50 450 300 map 0;
#X obj 43 26 inlet;
#X obj 192 54 inlet;
#X obj 94 160 outlet;
#X obj 192 127 outlet;
#X obj 93 79 mtof;
#X obj 94 119 i;
#X obj 192 81 ftom;
#X msg 192 102 set \$1;
#X msg 94 140 set \$1;
#X obj 23 153 s \$0-freq;
#X obj 93 101 + 0.5;
#X obj 42 48 moses 0.1;
#X connect 0 0 11 0;
#X connect 1 0 6 0;
#X connect 4 0 10 0;
#X connect 5 0 8 0;
#X connect 5 0 9 0;
#X connect 6 0 7 0;
#X connect 7 0 3 0;
#X connect 8 0 2 0;
#X connect 10 0 5 0;
#X connect 11 0 5 0;
#X connect 11 0 9 0;
#X connect 11 1 4 0;
#X restore 47 136 pd map;
#X obj 110 164 hsl 128 12 -3 24 0 0 \$0-qgui \$0-qguir Q -2 -7 2 10
-262144 -1 -1 1411 1;
#X obj 244 164 nbx 5 12 -99 100 0 0 \$0-q \$0-qr db 47 7 2 10 -262144
-1 -1 0 256;
#N canvas 0 50 450 300 map 0;
#X obj 94 33 inlet;
#X obj 192 56 inlet;
#X obj 94 160 outlet;
#X obj 192 127 outlet;
#X obj 94 84 i;
#X msg 192 102 set \$1;
#X msg 94 140 set \$1;
#X obj 23 153 s \$0-q;
#X connect 0 0 4 0;
#X connect 1 0 5 0;
#X connect 4 0 6 0;
#X connect 4 0 7 0;
#X connect 5 0 3 0;
#X connect 6 0 2 0;
#X restore 47 162 pd map;
#X obj 238 111 cnv 10 10 10 empty empty vcfilter~ 0 5 2 14 -262144
-162280 0;
#X connect 2 0 4 0;
#X connect 3 0 4 1;
#X connect 4 0 3 0;
#X connect 4 1 2 0;
#X connect 5 0 7 0;
#X connect 6 0 7 1;
#X connect 7 0 6 0;
#X connect 7 1 5 0;
#X coords 0 -1 1 1 220 90 2 100 100;
#X restore 5 2 pd mask;
#X restore 836 207 pd \$0-vcfilter;
#X obj 408 155 +~;
#X obj 462 122 inlet~ freq;
#X obj 549 220 +~;
#X obj 341 559 outlet~;
#N canvas 108 156 1087 482 filtercoef~~~~~~~~~~~~~~~~~~~~~~~~~~~~~~~~
0;
#X obj 588 30 inlet~ alpha;
#N canvas 3 50 617 300 tobiquad~~~~~~~~~~~~~~~~ 0;
#X obj 63 51 inlet~ a1;
#X obj 128 51 inlet~ a2;
#X obj 193 51 inlet~ b0;
#X obj 257 51 inlet~ b1;
#X obj 393 51 inlet~ a0;
#X obj 62 86 *~ -1;
#X obj 128 84 *~ -1;
#X obj 62 132 /~;
#X obj 129 131 /~;
#X obj 193 131 /~;
#X obj 256 129 /~;
#X obj 321 51 inlet~ b2;
#X obj 320 127 /~;
#X obj 60 207 outlet~ a1;
#X obj 129 206 outlet~ a2;
#X obj 197 207 outlet~ b0;
#X obj 267 206 outlet~ b1;
#X obj 338 207 outlet~ b2;
#X connect 0 0 5 0;
#X connect 1 0 6 0;
#X connect 2 0 9 0;
#X connect 3 0 10 0;
#X connect 4 0 12 1;
#X connect 4 0 10 1;
#X connect 4 0 9 1;
#X connect 4 0 8 1;
#X connect 4 0 7 1;
#X connect 5 0 7 0;
#X connect 6 0 8 0;
#X connect 7 0 13 0;
#X connect 8 0 14 0;
#X connect 9 0 15 0;
#X connect 10 0 16 0;
#X connect 11 0 12 0;
#X connect 12 0 17 0;
#X restore 171 229 pd tobiquad~~~~~~~~~~~~~~~~;
#N canvas 509 216 624 450 reson~~~~~~~~~~~~~~~~~~~ 0;
#X obj 115 258 cos~;
#X obj 115 278 *~ -2;
#X text 156 277 a1;
#X obj 191 250 sig~ 1;
#X obj 191 279 -~;
#X text 223 279 a2;
#X obj 268 279 cos~;
#X obj 268 300 *~ 0.5;
#X text 307 280 b0;
#X obj 348 256 sig~ 0;
#X text 395 255 b1;
#X obj 426 273 cos~;
#X obj 426 294 *~ 0.5;
#X obj 425 341 *~ -1;
#X text 465 274 b2;
#X obj 520 264 +~ 1;
#X text 553 267 a0;
#X obj 147 144 inlet~ w(0);
#X obj 520 128 inlet~ alpha;
#X obj 114 377 outlet~;
#X obj 190 377 outlet~;
#X obj 268 376 outlet~;
#X obj 348 378 outlet~;
#X obj 425 378 outlet~;
#X obj 519 378 outlet~;
#X obj 268 258 -~ 0.25;
#X obj 426 252 -~ 0.25;
#X obj 494 80 switch~ 0;
#X obj 494 37 r \$0-filtertype;
#X obj 494 58 == 2;
#X connect 0 0 1 0;
#X connect 1 0 19 0;
#X connect 3 0 4 0;
#X connect 4 0 20 0;
#X connect 6 0 7 0;
#X connect 7 0 21 0;
#X connect 9 0 22 0;
#X connect 11 0 12 0;
#X connect 12 0 13 0;
#X connect 13 0 23 0;
#X connect 15 0 24 0;
#X connect 17 0 0 0;
#X connect 17 0 25 0;
#X connect 17 0 26 0;
#X connect 18 0 4 1;
#X connect 18 0 15 0;
#X connect 25 0 6 0;
#X connect 26 0 11 0;
#X connect 28 0 29 0;
#X connect 29 0 27 0;
#X restore 429 141 pd reson~~~~~~~~~~~~~~~~~~~;
#N canvas 3 156 849 450 lowpass~~~~~~~~~~~~~~~~~~~ 0;
#X obj 115 258 cos~;
#X obj 115 278 *~ -2;
#X text 156 277 a1;
#X obj 191 250 sig~ 1;
#X obj 191 279 -~;
#X text 223 279 a2;
#X obj 312 247 cos~;
#X obj 268 300 *~ 0.5;
#X text 344 251 b0;
#X text 432 268 b1;
#X obj 695 254 +~ 1;
#X text 728 257 a0;
#X obj 114 77 inlet~ w(0);
#X obj 694 109 inlet~ alpha;
#X obj 114 377 outlet~;
#X obj 190 377 outlet~;
#X obj 268 376 outlet~;
#X obj 380 379 outlet~;
#X obj 514 375 outlet~;
#X obj 694 368 outlet~;
#X obj 268 246 sig~ 1;
#X obj 267 274 -~;
#X obj 425 250 cos~;
#X obj 381 249 sig~ 1;
#X obj 380 277 -~;
#X obj 558 250 cos~;
#X obj 514 303 *~ 0.5;
#X obj 514 249 sig~ 1;
#X obj 513 277 -~;
#X obj 561 77 switch~ 0;
#X obj 561 34 r \$0-filtertype;
#X obj 561 55 == 0;
#X text 590 254 b2;
#X connect 0 0 1 0;
#X connect 1 0 14 0;
#X connect 3 0 4 0;
#X connect 4 0 15 0;
#X connect 6 0 21 1;
#X connect 7 0 16 0;
#X connect 10 0 19 0;
#X connect 12 0 0 0;
#X connect 12 0 6 0;
#X connect 12 0 22 0;
#X connect 12 0 25 0;
#X connect 13 0 4 1;
#X connect 13 0 10 0;
#X connect 20 0 21 0;
#X connect 21 0 7 0;
#X connect 22 0 24 1;
#X connect 23 0 24 0;
#X connect 24 0 17 0;
#X connect 25 0 28 1;
#X connect 26 0 18 0;
#X connect 27 0 28 0;
#X connect 28 0 26 0;
#X connect 30 0 31 0;
#X connect 31 0 29 0;
#X restore 21 143 pd lowpass~~~~~~~~~~~~~~~~~~~;
#X obj 172 290 outlet~;
#X obj 223 289 outlet~;
#X obj 275 290 outlet~;
#X obj 326 289 outlet~;
#X obj 379 289 outlet~;
#X text 395 270 a1 a2 b0 b1 b2;
#N canvas 28 131 849 450 highpass~~~~~~~~~~~~~~~~~~~ 0;
#X obj 115 258 cos~;
#X obj 115 278 *~ -2;
#X text 156 277 a1;
#X obj 191 250 sig~ 1;
#X obj 191 279 -~;
#X text 223 279 a2;
#X obj 312 247 cos~;
#X obj 268 300 *~ 0.5;
#X text 344 251 b0;
#X text 432 268 b1;
#X obj 695 254 +~ 1;
#X text 728 257 a0;
#X obj 114 77 inlet~ w(0);
#X obj 694 109 inlet~ alpha;
#X obj 114 377 outlet~;
#X obj 190 377 outlet~;
#X obj 268 376 outlet~;
#X obj 380 379 outlet~;
#X obj 514 375 outlet~;
#X obj 694 368 outlet~;
#X obj 268 246 sig~ 1;
#X obj 425 250 cos~;
#X obj 381 249 sig~ 1;
#X obj 558 250 cos~;
#X obj 514 249 sig~ 1;
#X obj 561 77 switch~ 0;
#X obj 561 34 r \$0-filtertype;
#X obj 380 276 +~;
#X obj 513 277 +~;
#X obj 268 276 +~;
#X obj 381 301 *~ -1;
#X obj 514 303 *~ 0.5;
#X obj 561 55 == 1;
#X text 590 254 b2;
#X connect 0 0 1 0;
#X connect 1 0 14 0;
#X connect 3 0 4 0;
#X connect 4 0 15 0;
#X connect 6 0 29 1;
#X connect 7 0 16 0;
#X connect 10 0 19 0;
#X connect 12 0 0 0;
#X connect 12 0 6 0;
#X connect 12 0 21 0;
#X connect 12 0 23 0;
#X connect 13 0 4 1;
#X connect 13 0 10 0;
#X connect 20 0 29 0;
#X connect 21 0 27 1;
#X connect 22 0 27 0;
#X connect 23 0 28 1;
#X connect 24 0 28 0;
#X connect 26 0 32 0;
#X connect 27 0 30 0;
#X connect 28 0 31 0;
#X connect 29 0 7 0;
#X connect 30 0 17 0;
#X connect 31 0 18 0;
#X connect 32 0 25 0;
#X restore 215 142 pd highpass~~~~~~~~~~~~~~~~~~~;
#X obj 21 21 inlet~ omega;
#X connect 0 0 3 1;
#X connect 0 0 10 1;
#X connect 0 0 2 1;
#X connect 1 0 4 0;
#X connect 1 1 5 0;
#X connect 1 2 6 0;
#X connect 1 3 7 0;
#X connect 1 4 8 0;
#X connect 2 0 1 0;
#X connect 2 1 1 1;
#X connect 2 2 1 2;
#X connect 2 3 1 3;
#X connect 2 4 1 4;
#X connect 2 5 1 5;
#X connect 3 0 1 0;
#X connect 3 1 1 1;
#X connect 3 2 1 2;
#X connect 3 3 1 3;
#X connect 3 4 1 4;
#X connect 3 5 1 5;
#X connect 10 0 1 0;
#X connect 10 1 1 1;
#X connect 10 2 1 2;
#X connect 10 3 1 3;
#X connect 10 4 1 4;
#X connect 10 5 1 5;
#X connect 11 0 3 0;
#X connect 11 0 10 0;
#X connect 11 0 2 0;
#X restore 408 363 pd filtercoef~~~~~~~~~~~~~~~~~~~~~~~~~~~~~~~~;
#X obj 103 115 hsl 150 15 0 127 0 0 \$0-visbng \$0-visbngr Lowpass
50 8 2 10 -233017 -233017 -1 0 1;
#X obj 408 232 clip~ 0 20050;
#N canvas 0 50 450 300 samplerate 0;
#X obj 230 123 outlet;
#X obj 230 26 r pd;
#X obj 230 46 route dsp audio-dialog;
#X obj 230 70 t b;
#X obj 268 72 loadbang;
#X obj 230 96 samplerate~;
#X obj 338 83 bng 15 250 50 0 empty empty empty 17 7 0 10 -262144 -1
-1;
#X connect 1 0 2 0;
#X connect 2 0 3 0;
#X connect 2 1 3 0;
#X connect 3 0 5 0;
#X connect 4 0 5 0;
#X connect 5 0 0 0;
#X connect 6 0 5 0;
#X restore 453 188 pd samplerate;
#X obj 453 209 / 2;
#X obj 549 243 clip~ -99 100;
#N canvas 192 160 623 328 biquad~~~~~~~~~~~~~~~~~~~~~~~~~~~~~~~~~~~~~~~~~~~~~~~
0;
#X obj 73 30 inlet~;
#X obj 164 324 outlet~;
#X obj 72 70 *~;
#X obj 142 262 czero~;
#X obj 163 292 czero~;
#X obj 98 202 cpole~;
#X obj 120 230 cpole~;
#N canvas 559 76 768 650 poles+zeros 0;
#X obj 108 64 inlet~;
#X obj 195 61 inlet~;
#X obj 361 62 inlet~;
#X obj 464 64 inlet~;
#X obj 538 65 inlet~;
#X obj 181 136 +~;
#X obj 196 114 *~ 4;
#X obj 346 247 *~ -1;
#X obj 346 286 /~;
#X obj 465 169 /~;
#X obj 538 174 /~;
#X obj 539 142 *~ 4;
#X obj 509 220 -~;
#X obj 123 245 max~ 0;
#X obj 124 268 sqrt~;
#X obj 242 265 abs~;
#X obj 242 286 sqrt~;
#X obj 109 334 +~;
#X text 170 251 real;
#X text 278 259 imag;
#X obj 109 355 *~ 0.5;
#X obj 109 538 outlet~;
#X obj 155 512 outlet~;
#X obj 155 354 *~ 0.5;
#X text 128 559 pole 1;
#X obj 250 381 *~ 0.5;
#X obj 250 360 -~;
#X obj 299 358 sig~ 0;
#X obj 299 379 -~;
#X obj 299 399 *~ 0.5;
#X obj 252 549 outlet~;
#X obj 297 523 outlet~;
#X text 271 570 pole 2;
#X obj 417 549 outlet~;
#X obj 463 527 outlet~;
#X obj 417 380 +~;
#X obj 417 401 *~ 0.5;
#X obj 519 401 *~ 0.5;
#X obj 519 380 -~;
#X obj 520 552 outlet~;
#X obj 577 527 outlet~;
#X text 439 570 zero 1;
#X text 544 569 zero 2;
#X obj 154 120 *~;
#X obj 464 190 *~;
#X obj 242 241 min~ 0;
#X obj 508 276 max~ 0;
#X obj 509 296 sqrt~;
#X obj 593 301 abs~;
#X obj 593 322 sqrt~;
#X text 555 282 real;
#X text 646 288 imag;
#X obj 593 277 min~ 0;
#X obj 578 380 sig~ 0;
#X obj 578 401 -~;
#X obj 578 421 *~ 0.5;
#X obj 464 413 *~ 0.5;
#X connect 0 0 17 0;
#X connect 0 0 26 0;
#X connect 0 0 43 0;
#X connect 0 0 43 1;
#X connect 1 0 6 0;
#X connect 2 0 8 1;
#X connect 2 0 9 1;
#X connect 2 0 10 1;
#X connect 3 0 7 0;
#X connect 3 0 9 0;
#X connect 4 0 11 0;
#X connect 5 0 13 0;
#X connect 5 0 45 0;
#X connect 6 0 5 1;
#X connect 7 0 8 0;
#X connect 8 0 35 0;
#X connect 8 0 38 0;
#X connect 9 0 44 0;
#X connect 9 0 44 1;
#X connect 10 0 12 1;
#X connect 11 0 10 0;
#X connect 12 0 46 0;
#X connect 12 0 52 0;
#X connect 13 0 14 0;
#X connect 14 0 17 1;
#X connect 14 0 26 1;
#X connect 15 0 16 0;
#X connect 16 0 28 1;
#X connect 16 0 23 0;
#X connect 17 0 20 0;
#X connect 20 0 21 0;
#X connect 23 0 22 0;
#X connect 25 0 30 0;
#X connect 26 0 25 0;
#X connect 27 0 28 0;
#X connect 28 0 29 0;
#X connect 29 0 31 0;
#X connect 35 0 36 0;
#X connect 36 0 33 0;
#X connect 37 0 39 0;
#X connect 38 0 37 0;
#X connect 43 0 5 0;
#X connect 44 0 12 0;
#X connect 45 0 15 0;
#X connect 46 0 47 0;
#X connect 47 0 35 1;
#X connect 47 0 38 1;
#X connect 48 0 49 0;
#X connect 49 0 54 1;
#X connect 49 0 56 0;
#X connect 52 0 48 0;
#X connect 53 0 54 0;
#X connect 54 0 55 0;
#X connect 55 0 40 0;
#X connect 56 0 34 0;
#X restore 120 83 pd poles+zeros;
#X obj 120 29 inlet~;
#X obj 168 29 inlet~;
#X obj 215 29 inlet~;
#X obj 263 29 inlet~;
#X obj 311 30 inlet~;
#X connect 0 0 2 0;
#X connect 2 0 5 0;
#X connect 3 0 4 0;
#X connect 3 1 4 1;
#X connect 4 0 1 0;
#X connect 5 0 6 0;
#X connect 5 1 6 1;
#X connect 6 0 3 0;
#X connect 6 1 3 1;
#X connect 7 0 5 2;
#X connect 7 1 5 3;
#X connect 7 2 6 2;
#X connect 7 3 6 3;
#X connect 7 4 3 2;
#X connect 7 5 3 3;
#X connect 7 6 4 2;
#X connect 7 7 4 3;
#X connect 8 0 7 0;
#X connect 9 0 7 1;
#X connect 10 0 7 2;
#X connect 10 0 2 1;
#X connect 11 0 7 3;
#X connect 12 0 7 4;
#X restore 342 393 pd biquad~~~~~~~~~~~~~~~~~~~~~~~~~~~~~~~~~~~~~~~~~~~~~~~
;
#X obj 549 125 clip -99 100;
#X text 588 466 philipp schmalfuß \, 2018;
#N canvas 98 216 450 281 alpha+omega~~~~~~~~~~~~~~~~~~~~~~~~~~~~~~~
0;
#X obj 188 31 inlet~ q;
#X obj 49 26 inlet~ freq;
#X obj 173 187 outlet~ alpha;
#X obj 49 183 outlet~ omega;
#X obj 188 57 *~ 2;
#X obj 173 129 /~;
#X obj 109 98 cos~;
#X obj 108 77 -~ 0.25;
#X obj 188 89 +~ 1e-24;
#N canvas 3 52 450 300 omega 0;
#N canvas 3 50 450 300 samplerate 0;
#X obj 230 123 outlet;
#X obj 230 26 r pd;
#X obj 230 46 route dsp audio-dialog;
#X obj 230 70 t b;
#X obj 268 72 loadbang;
#X obj 230 96 samplerate~;
#X obj 338 83 bng 15 250 50 0 empty empty empty 17 7 0 10 -262144 -1
-1;
#X connect 1 0 2 0;
#X connect 2 0 3 0;
#X connect 2 1 3 0;
#X connect 3 0 5 0;
#X connect 4 0 5 0;
#X connect 5 0 0 0;
#X connect 6 0 5 0;
#X restore 173 124 pd samplerate;
#X obj 173 146 expr 1/$f1;
#X obj 158 15 inlet~;
#X text 253 171 divide by SR;
#X obj 156 203 outlet~;
#X obj 157 166 *~;
#X connect 0 0 1 0;
#X connect 1 0 5 1;
#X connect 2 0 5 0;
#X connect 5 0 4 0;
#X restore 48 54 pd omega;
#X connect 0 0 4 0;
#X connect 1 0 9 0;
#X connect 4 0 8 0;
#X connect 5 0 2 0;
#X connect 6 0 5 0;
#X connect 7 0 6 0;
#X connect 8 0 5 1;
#X connect 9 0 7 0;
#X connect 9 0 3 0;
#X restore 407 336 pd alpha+omega~~~~~~~~~~~~~~~~~~~~~~~~~~~~~~~;
#X obj 657 133 inlet~ q;
#X obj 285 45 inlet~;
#X obj 286 560 outlet~;
#N canvas 192 160 623 328 biquad~~~~~~~~~~~~~~~~~~~~~~~~~~~~~~~~~~~~~~~~~~~~~~~
0;
#X obj 73 30 inlet~;
#X obj 164 324 outlet~;
#X obj 72 70 *~;
#X obj 142 262 czero~;
#X obj 163 292 czero~;
#X obj 98 202 cpole~;
#X obj 120 230 cpole~;
#N canvas 559 76 768 650 poles+zeros 0;
#X obj 108 64 inlet~;
#X obj 195 61 inlet~;
#X obj 361 62 inlet~;
#X obj 464 64 inlet~;
#X obj 538 65 inlet~;
#X obj 181 136 +~;
#X obj 196 114 *~ 4;
#X obj 346 247 *~ -1;
#X obj 346 286 /~;
#X obj 465 169 /~;
#X obj 538 174 /~;
#X obj 539 142 *~ 4;
#X obj 509 220 -~;
#X obj 123 245 max~ 0;
#X obj 124 268 sqrt~;
#X obj 242 265 abs~;
#X obj 242 286 sqrt~;
#X obj 109 334 +~;
#X text 170 251 real;
#X text 278 259 imag;
#X obj 109 355 *~ 0.5;
#X obj 109 538 outlet~;
#X obj 155 512 outlet~;
#X obj 155 354 *~ 0.5;
#X text 128 559 pole 1;
#X obj 250 381 *~ 0.5;
#X obj 250 360 -~;
#X obj 299 358 sig~ 0;
#X obj 299 379 -~;
#X obj 299 399 *~ 0.5;
#X obj 252 549 outlet~;
#X obj 297 523 outlet~;
#X text 271 570 pole 2;
#X obj 417 549 outlet~;
#X obj 463 527 outlet~;
#X obj 417 380 +~;
#X obj 417 401 *~ 0.5;
#X obj 519 401 *~ 0.5;
#X obj 519 380 -~;
#X obj 520 552 outlet~;
#X obj 577 527 outlet~;
#X text 439 570 zero 1;
#X text 544 569 zero 2;
#X obj 154 120 *~;
#X obj 464 190 *~;
#X obj 242 241 min~ 0;
#X obj 508 276 max~ 0;
#X obj 509 296 sqrt~;
#X obj 593 301 abs~;
#X obj 593 322 sqrt~;
#X text 555 282 real;
#X text 646 288 imag;
#X obj 593 277 min~ 0;
#X obj 578 380 sig~ 0;
#X obj 578 401 -~;
#X obj 578 421 *~ 0.5;
#X obj 464 413 *~ 0.5;
#X connect 0 0 17 0;
#X connect 0 0 26 0;
#X connect 0 0 43 0;
#X connect 0 0 43 1;
#X connect 1 0 6 0;
#X connect 2 0 8 1;
#X connect 2 0 9 1;
#X connect 2 0 10 1;
#X connect 3 0 7 0;
#X connect 3 0 9 0;
#X connect 4 0 11 0;
#X connect 5 0 13 0;
#X connect 5 0 45 0;
#X connect 6 0 5 1;
#X connect 7 0 8 0;
#X connect 8 0 35 0;
#X connect 8 0 38 0;
#X connect 9 0 44 0;
#X connect 9 0 44 1;
#X connect 10 0 12 1;
#X connect 11 0 10 0;
#X connect 12 0 46 0;
#X connect 12 0 52 0;
#X connect 13 0 14 0;
#X connect 14 0 17 1;
#X connect 14 0 26 1;
#X connect 15 0 16 0;
#X connect 16 0 28 1;
#X connect 16 0 23 0;
#X connect 17 0 20 0;
#X connect 20 0 21 0;
#X connect 23 0 22 0;
#X connect 25 0 30 0;
#X connect 26 0 25 0;
#X connect 27 0 28 0;
#X connect 28 0 29 0;
#X connect 29 0 31 0;
#X connect 35 0 36 0;
#X connect 36 0 33 0;
#X connect 37 0 39 0;
#X connect 38 0 37 0;
#X connect 43 0 5 0;
#X connect 44 0 12 0;
#X connect 45 0 15 0;
#X connect 46 0 47 0;
#X connect 47 0 35 1;
#X connect 47 0 38 1;
#X connect 48 0 49 0;
#X connect 49 0 54 1;
#X connect 49 0 56 0;
#X connect 52 0 48 0;
#X connect 53 0 54 0;
#X connect 54 0 55 0;
#X connect 55 0 40 0;
#X connect 56 0 34 0;
#X restore 120 83 pd poles+zeros;
#X obj 120 29 inlet~;
#X obj 168 29 inlet~;
#X obj 215 29 inlet~;
#X obj 263 29 inlet~;
#X obj 311 30 inlet~;
#X connect 0 0 2 0;
#X connect 2 0 5 0;
#X connect 3 0 4 0;
#X connect 3 1 4 1;
#X connect 4 0 1 0;
#X connect 5 0 6 0;
#X connect 5 1 6 1;
#X connect 6 0 3 0;
#X connect 6 1 3 1;
#X connect 7 0 5 2;
#X connect 7 1 5 3;
#X connect 7 2 6 2;
#X connect 7 3 6 3;
#X connect 7 4 3 2;
#X connect 7 5 3 3;
#X connect 7 6 4 2;
#X connect 7 7 4 3;
#X connect 8 0 7 0;
#X connect 9 0 7 1;
#X connect 10 0 7 2;
#X connect 10 0 2 1;
#X connect 11 0 7 3;
#X connect 12 0 7 4;
#X restore 286 424 pd biquad~~~~~~~~~~~~~~~~~~~~~~~~~~~~~~~~~~~~~~~~~~~~~~~
;
#X obj 820 558 outlet;
#N canvas 306 126 781 543 outlet-message 0;
#N canvas 155 411 986 300 bang_once.......................................
0;
#X obj 132 87 t b f;
#X obj 89 139 del 0;
#X obj 89 87 t b f;
#X obj 89 41 inlet;
#X obj 132 40 inlet;
#X obj 217 40 inlet;
#X obj 89 247 outlet;
#X obj 89 173 f;
#X obj 217 87 t b a;
#X obj 89 203 pack 0 0 s;
#X connect 0 0 1 0;
#X connect 0 1 9 1;
#X connect 1 0 7 0;
#X connect 2 0 1 0;
#X connect 2 1 7 1;
#X connect 3 0 2 0;
#X connect 4 0 0 0;
#X connect 5 0 8 0;
#X connect 7 0 9 0;
#X connect 8 0 1 0;
#X connect 8 1 9 2;
#X connect 9 0 6 0;
#X restore 241 314 pd bang_once.......................................
;
#X obj 309 497 list trim;
#X msg 228 465 addcomma;
#X msg 164 472 set;
#X obj 309 474 list prepend add2;
#X obj 308 552 outlet;
#X obj 223 95 r \$0-freq;
#X obj 392 137 r \$0-q;
#X obj 544 132 r \$0-filtertype;
#X obj 544 292 symbol;
#X msg 544 187 lowpass;
#X msg 558 208 highpass;
#X msg 576 232 reson;
#X obj 544 166 sel 0 1 2;
#X msg 262 393 \$3 \, frequency \$1 \, q \$2;
#X obj 240 334 t b a b;
#X obj 262 420 t b a a;
#N canvas 1009 187 450 300 save 0;
#X obj 108 107 inlet;
#X obj 129 217 list;
#X obj 129 264 list trim;
#X obj 129 286 s \$0-lists;
#X obj 128 319 r \$0-lists;
#X obj 129 242 list prepend;
#N canvas 531 82 335 384 collect 0;
#X obj 138 70 inlet;
#X obj 138 284 outlet;
#X obj 189 190 list;
#X obj 257 191 t l;
#X obj 138 235 list;
#X obj 189 149 list append |;
#X obj 138 136 del 0;
#X obj 138 92 t b a;
#X connect 0 0 7 0;
#X connect 2 0 3 0;
#X connect 2 0 4 1;
#X connect 3 0 2 1;
#X connect 4 0 1 0;
#X connect 5 0 2 0;
#X connect 6 0 2 1;
#X connect 6 0 4 0;
#X connect 7 0 6 0;
#X connect 7 1 5 0;
#X restore 108 129 pd collect;
#X obj 195 101 r \$0-save;
#X obj 195 123 t b f;
#N canvas 68 198 1432 552 savestates 0;
#X obj 767 137 inlet;
#X obj 26 422 savestate;
#X obj 26 398 list;
#X obj 91 422 savestate;
#X obj 91 398 list;
#X obj 157 422 savestate;
#X obj 157 398 list;
#X obj 220 420 savestate;
#X obj 220 396 list;
#X obj 283 419 savestate;
#X obj 283 395 list;
#X obj 345 418 savestate;
#X obj 345 394 list;
#X obj 409 418 savestate;
#X obj 409 394 list;
#X obj 472 421 savestate;
#X obj 472 397 list;
#X obj 537 421 savestate;
#X obj 537 397 list;
#X obj 603 421 savestate;
#X obj 603 397 list;
#X obj 666 419 savestate;
#X obj 666 395 list;
#X obj 729 418 savestate;
#X obj 729 394 list;
#X obj 791 417 savestate;
#X obj 791 393 list;
#X obj 855 417 savestate;
#X obj 855 393 list;
#X obj 922 418 savestate;
#X obj 922 394 list;
#X obj 988 418 savestate;
#X obj 988 394 list;
#X obj 1051 416 savestate;
#X obj 1051 392 list;
#X obj 1114 415 savestate;
#X obj 1114 391 list;
#X obj 1176 414 savestate;
#X obj 1176 390 list;
#X obj 1240 414 savestate;
#X obj 1240 390 list;
#X obj 767 166 route 0 1 2 3 4 5 6 7 8 9 10 11 12 13 14 15 16 17 18
19 20;
#X obj 1304 412 savestate;
#X obj 1304 388 list;
#X obj 201 64 savestate;
#X obj 201 87 t a b;
#X obj 300 119 + 1;
#X obj 201 137 list prepend;
#X obj 201 160 list trim;
#X obj 201 183 route 0 1 2 3 4 5 6 7 8 9 10 11 12 13 14 15 16 17 18
19 20;
#X obj 270 115 f;
#X connect 0 0 41 0;
#X connect 1 1 2 0;
#X connect 2 0 1 0;
#X connect 3 1 4 0;
#X connect 4 0 3 0;
#X connect 5 1 6 0;
#X connect 6 0 5 0;
#X connect 7 1 8 0;
#X connect 8 0 7 0;
#X connect 9 1 10 0;
#X connect 10 0 9 0;
#X connect 11 1 12 0;
#X connect 12 0 11 0;
#X connect 13 1 14 0;
#X connect 14 0 13 0;
#X connect 15 1 16 0;
#X connect 16 0 15 0;
#X connect 17 1 18 0;
#X connect 18 0 17 0;
#X connect 19 1 20 0;
#X connect 20 0 19 0;
#X connect 21 1 22 0;
#X connect 22 0 21 0;
#X connect 23 1 24 0;
#X connect 24 0 23 0;
#X connect 25 1 26 0;
#X connect 26 0 25 0;
#X connect 27 1 28 0;
#X connect 28 0 27 0;
#X connect 29 1 30 0;
#X connect 30 0 29 0;
#X connect 31 1 32 0;
#X connect 32 0 31 0;
#X connect 33 1 34 0;
#X connect 34 0 33 0;
#X connect 35 1 36 0;
#X connect 36 0 35 0;
#X connect 37 1 38 0;
#X connect 38 0 37 0;
#X connect 39 1 40 0;
#X connect 40 0 39 0;
#X connect 41 0 2 1;
#X connect 41 1 4 1;
#X connect 41 2 6 1;
#X connect 41 3 8 1;
#X connect 41 4 10 1;
#X connect 41 5 12 1;
#X connect 41 6 14 1;
#X connect 41 7 16 1;
#X connect 41 8 18 1;
#X connect 41 9 20 1;
#X connect 41 10 22 1;
#X connect 41 11 24 1;
#X connect 41 12 26 1;
#X connect 41 13 28 1;
#X connect 41 14 30 1;
#X connect 41 15 32 1;
#X connect 41 16 34 1;
#X connect 41 17 36 1;
#X connect 41 18 38 1;
#X connect 41 19 40 1;
#X connect 41 20 43 1;
#X connect 42 1 43 0;
#X connect 43 0 42 0;
#X connect 44 0 45 0;
#X connect 45 0 47 0;
#X connect 45 1 50 0;
#X connect 46 0 50 1;
#X connect 47 0 48 0;
#X connect 48 0 49 0;
#X connect 49 0 2 1;
#X connect 49 1 4 1;
#X connect 49 2 6 1;
#X connect 49 3 8 1;
#X connect 49 4 10 1;
#X connect 49 5 12 1;
#X connect 49 6 14 1;
#X connect 49 7 16 1;
#X connect 49 8 18 1;
#X connect 49 9 20 1;
#X connect 49 10 22 1;
#X connect 49 11 24 1;
#X connect 49 12 26 1;
#X connect 49 13 28 1;
#X connect 49 14 30 1;
#X connect 49 15 32 1;
#X connect 49 16 34 1;
#X connect 49 17 36 1;
#X connect 49 18 38 1;
#X connect 49 19 40 1;
#X connect 49 20 43 1;
#X connect 50 0 46 0;
#X connect 50 0 47 1;
#X restore 128 341 pd savestates;
#X connect 0 0 6 0;
#X connect 1 0 5 0;
#X connect 2 0 3 0;
#X connect 4 0 9 0;
#X connect 5 0 2 0;
#X connect 6 0 1 1;
#X connect 7 0 8 0;
#X connect 8 0 1 0;
#X connect 8 1 5 1;
#X restore 320 443 pd save;
#X connect 0 0 15 0;
#X connect 1 0 5 0;
#X connect 2 0 5 0;
#X connect 3 0 5 0;
#X connect 4 0 1 0;
#X connect 6 0 0 0;
#X connect 7 0 0 1;
#X connect 8 0 13 0;
#X connect 9 0 0 2;
#X connect 10 0 9 0;
#X connect 11 0 9 0;
#X connect 12 0 9 0;
#X connect 13 0 10 0;
#X connect 13 1 11 0;
#X connect 13 2 12 0;
#X connect 14 0 16 0;
#X connect 15 0 5 0;
#X connect 15 1 14 0;
#X connect 15 2 3 0;
#X connect 16 0 2 0;
#X connect 16 1 4 0;
#X connect 16 2 17 0;
#X restore 820 529 pd outlet-message;
#X obj 831 77 inlet;
#N canvas 714 231 450 300 in 0;
#X obj 70 46 inlet;
#X obj 71 153 s \$0-filtertyper;
#X msg 70 117 0;
#X msg 98 119 1;
#X msg 130 119 2;
#X obj 70 235 s \$0-freqr;
#X obj 115 260 s \$0-qr;
#X obj 150 239 s \$0-bwr;
#X obj 70 207 route frequency q bandwitdth;
#X obj 70 91 route lowpass highpass reson;
#N canvas 698 546 200 251 route 0;
#X obj 20 20 inlet;
#X obj 30 60 route save recall;
#X obj 30 85 route float;
#X obj 97 111 route float;
#X obj 30 136 s \$0-save;
#X obj 30 108 i;
#X obj 98 133 i;
#X obj 98 161 s \$0-recall;
#X connect 0 0 1 0;
#X connect 1 0 2 0;
#X connect 1 1 3 0;
#X connect 2 0 5 0;
#X connect 3 0 6 0;
#X connect 5 0 4 0;
#X connect 6 0 7 0;
#X restore 234 236 pd route save-recall;
#N canvas 937 111 450 300 recall 0;
#N canvas 156 162 1004 423 recall 0;
#X obj 106 5 savestate;
#X obj 106 28 t a b;
#X obj 205 60 + 1;
#X obj 106 78 list prepend;
#X obj 106 101 list trim;
#X obj 95 275 list;
#X obj 130 275 list;
#X obj 166 275 list;
#X obj 202 275 list;
#X obj 240 275 list;
#X obj 275 275 list;
#X obj 311 275 list;
#X obj 440 380 outlet;
#X obj 30 78 r \$0-lists;
#X obj 500 43 inlet;
#X obj 345 275 list;
#X obj 380 275 list;
#X obj 416 275 list;
#X obj 453 275 list;
#X obj 490 275 list;
#X obj 525 275 list;
#X obj 561 275 list;
#X obj 594 275 list;
#X obj 630 275 list;
#X obj 667 275 list;
#X obj 704 275 list;
#X obj 739 275 list;
#X obj 775 275 list;
#X obj 106 124 route 0 1 2 3 4 5 6 7 8 9 10 11 12 13 14 15 16 17 18
19 20;
#X obj 500 121 sel 0 1 2 3 4 5 6 7 8 9 10 11 12 13 14 15 16 17 18 19
20;
#X obj 812 275 list;
#X obj 175 56 f;
#X connect 0 0 1 0;
#X connect 1 0 3 0;
#X connect 1 1 31 0;
#X connect 2 0 31 1;
#X connect 3 0 4 0;
#X connect 4 0 28 0;
#X connect 5 0 12 0;
#X connect 6 0 12 0;
#X connect 7 0 12 0;
#X connect 8 0 12 0;
#X connect 9 0 12 0;
#X connect 10 0 12 0;
#X connect 11 0 12 0;
#X connect 13 0 28 0;
#X connect 14 0 29 0;
#X connect 15 0 12 0;
#X connect 16 0 12 0;
#X connect 17 0 12 0;
#X connect 18 0 12 0;
#X connect 19 0 12 0;
#X connect 20 0 12 0;
#X connect 21 0 12 0;
#X connect 22 0 12 0;
#X connect 23 0 12 0;
#X connect 24 0 12 0;
#X connect 25 0 12 0;
#X connect 26 0 12 0;
#X connect 27 0 12 0;
#X connect 28 0 5 1;
#X connect 28 1 6 1;
#X connect 28 2 7 1;
#X connect 28 3 8 1;
#X connect 28 4 9 1;
#X connect 28 5 10 1;
#X connect 28 6 11 1;
#X connect 28 7 15 1;
#X connect 28 8 16 1;
#X connect 28 9 17 1;
#X connect 28 10 18 1;
#X connect 28 11 19 1;
#X connect 28 12 20 1;
#X connect 28 13 21 1;
#X connect 28 14 22 1;
#X connect 28 15 23 1;
#X connect 28 16 24 1;
#X connect 28 17 25 1;
#X connect 28 18 26 1;
#X connect 28 19 27 1;
#X connect 28 20 30 1;
#X connect 29 0 5 0;
#X connect 29 1 6 0;
#X connect 29 2 7 0;
#X connect 29 3 8 0;
#X connect 29 4 9 0;
#X connect 29 5 10 0;
#X connect 29 6 11 0;
#X connect 29 7 15 0;
#X connect 29 8 16 0;
#X connect 29 9 17 0;
#X connect 29 10 18 0;
#X connect 29 11 19 0;
#X connect 29 12 20 0;
#X connect 29 13 21 0;
#X connect 29 14 22 0;
#X connect 29 15 23 0;
#X connect 29 16 24 0;
#X connect 29 17 25 0;
#X connect 29 18 26 0;
#X connect 29 19 27 0;
#X connect 29 20 30 0;
#X connect 30 0 12 0;
#X connect 31 0 2 0;
#X connect 31 0 3 1;
#X restore 128 85 pd recall;
#X obj 128 130 outlet;
#N canvas 3 52 450 600 listsplit 0;
#X obj 158 23 inlet;
#X obj 220 87 list length;
#X obj 220 113 until;
#X obj 182 150 f;
#X obj 278 150 + 1;
#X msg 265 111 0;
#X obj 182 226 list store;
#X msg 182 202 get \$1 1;
#X obj 154 367 list split;
#X obj 222 342 f;
#X obj 154 334 list;
#X obj 98 124 list;
#X obj 182 389 list split 1;
#X obj 154 274 t bang bang bang;
#X obj 182 179 t f f;
#X obj 158 48 t l l l b;
#X obj 154 473 outlet;
#X obj 154 440 list trim;
#X obj 163 248 sel |;
#X connect 0 0 15 0;
#X connect 1 0 2 0;
#X connect 2 0 3 0;
#X connect 3 0 4 0;
#X connect 3 0 14 0;
#X connect 4 0 3 1;
#X connect 5 0 3 1;
#X connect 6 0 18 0;
#X connect 7 0 6 0;
#X connect 8 0 17 0;
#X connect 8 1 12 0;
#X connect 9 0 8 1;
#X connect 10 0 8 0;
#X connect 11 0 15 0;
#X connect 12 1 11 0;
#X connect 13 0 10 0;
#X connect 13 1 9 0;
#X connect 13 2 2 1;
#X connect 14 0 7 0;
#X connect 14 1 9 1;
#X connect 15 0 1 0;
#X connect 15 1 10 1;
#X connect 15 2 6 1;
#X connect 15 3 5 0;
#X connect 17 0 16 0;
#X connect 18 0 13 0;
#X restore 128 107 pd listsplit;
#X obj 128 25 r \$0-recall;
#X obj 128 55 pipe 1;
#X connect 0 0 2 0;
#X connect 2 0 1 0;
#X connect 3 0 4 0;
#X connect 4 0 0 0;
#X restore 128 66 pd recall;
#X connect 0 0 9 0;
#X connect 2 0 1 0;
#X connect 3 0 1 0;
#X connect 4 0 1 0;
#X connect 8 0 5 0;
#X connect 8 1 6 0;
#X connect 8 2 7 0;
#X connect 8 3 10 0;
#X connect 9 0 2 0;
#X connect 9 1 3 0;
#X connect 9 2 4 0;
#X connect 9 3 8 0;
#X connect 11 0 9 0;
#X restore 831 98 pd in;
#X connect 0 0 1 0;
#X connect 1 0 10 0;
#X connect 2 0 3 0;
#X connect 3 0 12 0;
#X connect 4 0 23 1;
#X connect 6 0 0 0;
#X connect 7 0 21 0;
#X connect 8 0 20 0;
#X connect 10 0 16 0;
#X connect 11 0 10 1;
#X connect 12 0 19 0;
#X connect 14 0 20 1;
#X connect 14 0 27 1;
#X connect 14 1 20 2;
#X connect 14 1 27 2;
#X connect 14 2 20 3;
#X connect 14 2 27 3;
#X connect 14 3 20 4;
#X connect 14 3 27 4;
#X connect 14 4 20 5;
#X connect 14 4 27 5;
#X connect 16 0 23 0;
#X connect 17 0 18 0;
#X connect 18 0 16 2;
#X connect 19 0 4 0;
#X connect 20 0 13 0;
#X connect 21 0 2 0;
#X connect 23 0 14 0;
#X connect 23 1 14 1;
#X connect 24 0 12 1;
#X connect 25 0 27 0;
#X connect 27 0 26 0;
#X connect 29 0 28 0;
#X connect 30 0 31 0;
#X coords 0 -1 1 1 155 33 1 100 100;
