#N canvas 207 159 879 492 10;
#N canvas 0 50 450 300 (subpatch) 0;
#X array wf-source 908174 float 2;
#A color 0;
#A width 2;
#X coords 0 1 908174 -1 120 80 1 0 0;
#X restore 319 35 graph;
#X obj 319 142 bng 15 250 50 0 empty empty empty 17 7 0 10 #fcfcfc #000000 #000000;
#N canvas 433 77 791 465 sendmessages 0;
#X floatatom 126 134 5 0 0 0 - - - 0;
#X msg 126 155 color \$1;
#X floatatom 155 180 5 0 0 0 - - - 0;
#X text 192 146 data structures RGB color: 0=black \, 999=white \, 990=yellow \, 900=red \, 90=green \, 9=blue \, 555=grey \, etc.;
#X obj 56 403 outlet;
#X msg 178 257 resolution \$1;
#X floatatom 178 233 5 0 100 0 - - - 0;
#N canvas 0 50 450 300 (subpatch) 0;
#X array wf-source2 325682 float 2;
#A color 0;
#A width 2;
#X coords 0 1 325682 -1 120 80 1 0 0;
#X restore 394 294 graph;
#X obj 529 314 openpanel;
#X obj 529 354 soundfiler;
#X obj 529 296 bng 15 250 50 0 empty empty empty 17 7 0 10 #fcfcfc #000000 #000000;
#X msg 529 334 read -resize \$1 wf-source2;
#X text 382 249 bang to redraw after setting a differnt source;
#X msg 224 295 set wf-source2 \, bang;
#X msg 225 318 set wf-source \, bang;
#X text 226 235 resolution in %;
#X floatatom 57 6 5 0 0 0 - - - 0;
#X msg 56 27 width \$1;
#X msg 154 201 thickness \$1;
#X floatatom 79 56 5 0 0 0 - - - 0;
#X msg 78 77 hight \$1;
#X connect 0 0 1 0;
#X connect 1 0 4 0;
#X connect 2 0 18 0;
#X connect 5 0 4 0;
#X connect 6 0 5 0;
#X connect 8 0 11 0;
#X connect 10 0 8 0;
#X connect 11 0 9 0;
#X connect 13 0 4 0;
#X connect 14 0 4 0;
#X connect 16 0 17 0;
#X connect 17 0 4 0;
#X connect 18 0 4 0;
#X connect 19 0 20 0;
#X connect 20 0 4 0;
#X restore 355 196 pd sendmessages;
#X obj 14 17 cnv 15 295 270 empty empty empty 20 12 0 14 #fc8000 #404040 0;
#X text 22 95 creation arguments:;
#X text 476 202 send to "waveform/name of the source array".;
#X obj 454 55 openpanel;
#X obj 454 95 soundfiler;
#X msg 454 75 read -resize \$1 wf-source;
#X obj 454 37 bng 15 250 50 0 empty empty empty 17 7 0 10 #fcfcfc #000000 #000000;
#X obj 319 236 send waveform/wf-source;
#X text 341 140 bang to draw;
#X text 20 125 1 (obligatory): name of the source-array;
#X text 486 31 load soundfile first;
#X text 21 27 [pp.wfdisplay];
#X text 20 208 4: resolution (default 100%);
#X text 772 438 ps \, 2026;
#X text 475 215 this is rather unorthodox \, but i wanted the GOP of [pp.wfdisplay] to be transparent and without inlets for cosmetic reasons.;
#X text 333 412 object name and arguments are hidden in the GOP;
#X text 24 55 waveform display with fixed width and hight;
#X text 320 300 pp.wfdisplay wf-source 500 80 900 1 100;
#X obj 321 324 pp.wfdisplay wf-source 500 80 900 1 100;
#X text 20 143 2: width (default 500);
#X text 20 158 3: hight (default 60);
#X text 20 175 4: RGB-color (default 0 \, black);
#X text 20 192 5: thickness (array width) (default 1);
#X connect 1 0 10 0;
#X connect 2 0 10 0;
#X connect 6 0 8 0;
#X connect 8 0 7 0;
#X connect 9 0 6 0;
