#N canvas 408 477 787 406 10;
#N canvas 0 0 699 336 (subpatch) 0;
#X array \$0-wf1 500 float 8;
#A resize 500;
#A color 0;
#A width 1;
#X array \$0-wf2 500 float 8;
#A resize 500;
#A color 0;
#A width 1;
#X obj 433 224 namecanvas \$0-array;
#X coords 0 1 499 -1 500 60 1 0 0;
#X restore 0 0 graph;
#N canvas 270 61 917 726 draw_waveform 0;
#X obj 221 332 f;
#X obj 251 335 + 1;
#X msg 280 311 0;
#X obj 173 478 *;
#X obj 173 500 i;
#X obj 207 479 i;
#X obj 134 201 r \$0-set;
#X obj 134 230 symbol;
#X obj 277 490 r \$0-set;
#X obj 277 517 symbol;
#X obj 173 544 array max \$1;
#X obj 173 566 array min \$1;
#X obj 59 311 array size \$1;
#X obj 221 359 t f f f;
#X obj 159 313 sel 499;
#X msg 159 336 stop;
#X obj 221 309 metro 2;
#X obj 221 209 t f b b f;
#X obj 272 242 - 1;
#X obj 219 40 r \$0-scale;
#X obj 219 108 i;
#X obj 219 85 expr 500/(100/$f1);
#X obj 173 602 tabwrite \$0-wf1;
#X obj 173 628 tabwrite \$0-wf2;
#X obj 93 43 r \$0-draw;
#X obj 93 65 t b;
#X obj 323 299 s \$0-wf1;
#X obj 323 321 s \$0-wf2;
#X msg 174 43 100, f 4;
#X obj 222 189 f 500;
#X obj 59 336 / 500;
#X obj 467 597 s \$0-wf1;
#X obj 467 618 s \$0-wf2;
#X obj 535 532 loadbang;
#X msg 390 519 color \$1;
#X msg 467 522 width \$1;
#X obj 390 493 r \$0-color;
#X obj 219 132 t f f f;
#X obj 323 197 pack;
#X obj 292 196 - 1;
#X msg 323 222 bounds 0 1 \$1 -1 \, resize \$2;
#X msg 535 555 edit 0 \, visname 0 \,;
#X obj 467 495 r \$0-thickness;
#X msg 362 477 0;
#X connect 0 0 1 0;
#X connect 0 0 13 0;
#X connect 1 0 0 1;
#X connect 2 0 0 1;
#X connect 3 0 4 0;
#X connect 4 0 10 0;
#X connect 4 0 11 0;
#X connect 5 0 10 1;
#X connect 5 0 11 1;
#X connect 6 0 7 0;
#X connect 7 0 12 1;
#X connect 8 0 9 0;
#X connect 9 0 10 2;
#X connect 9 0 11 2;
#X connect 10 0 22 0;
#X connect 11 0 23 0;
#X connect 12 0 30 0;
#X connect 13 0 14 0;
#X connect 13 1 3 0;
#X connect 13 2 22 1;
#X connect 13 2 23 1;
#X connect 14 0 15 0;
#X connect 15 0 16 0;
#X connect 16 0 0 0;
#X connect 17 0 16 0;
#X connect 17 1 2 0;
#X connect 17 2 12 0;
#X connect 17 3 18 0;
#X connect 18 0 14 1;
#X connect 19 0 21 0;
#X connect 20 0 37 0;
#X connect 21 0 20 0;
#X connect 24 0 25 0;
#X connect 25 0 29 0;
#X connect 28 0 21 0;
#X connect 29 0 17 0;
#X connect 30 0 3 1;
#X connect 30 0 5 0;
#X connect 33 0 41 0;
#X connect 34 0 31 0;
#X connect 34 0 32 0;
#X connect 35 0 31 0;
#X connect 35 0 32 0;
#X connect 36 0 34 0;
#X connect 37 0 29 1;
#X connect 37 0 30 1;
#X connect 37 1 39 0;
#X connect 37 2 38 1;
#X connect 38 0 40 0;
#X connect 39 0 38 0;
#X connect 40 0 26 0;
#X connect 40 0 27 0;
#X connect 41 0 31 0;
#X connect 41 0 32 0;
#X connect 42 0 35 0;
#X connect 43 0 34 0;
#X restore 97 163 pd draw_waveform;
#N canvas 1164 200 450 300 receive 0;
#X obj 37 26 r waveform/\$1;
#X obj 82 78 s \$0-color;
#X obj 209 242 s \$0-scale;
#X obj 37 251 s \$0-draw;
#X obj 182 182 t b f;
#X obj 307 132 s \$0-set;
#X obj 37 49 route bang color thickness resolution width hight set;
#X obj 217 77 s \$0-width;
#X obj 261 103 s \$0-hight;
#X obj 128 115 s \$0-thickness;
#X connect 0 0 6 0;
#X connect 4 0 3 0;
#X connect 4 1 2 0;
#X connect 6 0 3 0;
#X connect 6 1 1 0;
#X connect 6 2 9 0;
#X connect 6 3 4 0;
#X connect 6 4 7 0;
#X connect 6 5 8 0;
#X connect 6 6 5 0;
#X restore 97 132 pd receive;
#N canvas 277 579 450 300 init 0;
#X obj 48 74 pdcontrol;
#X msg 48 52 args;
#X obj 48 29 loadbang;
#X obj 129 170 s \$0-color;
#X obj 183 217 s \$0-scale;
#X obj 48 97 unpack s 500 60 0 1 100;
#X obj 156 192 s \$0-thickness;
#X obj 75 124 s \$0-width;
#X obj 102 146 s \$0-hight;
#X connect 0 0 5 0;
#X connect 1 0 0 0;
#X connect 2 0 1 0;
#X connect 5 1 7 0;
#X connect 5 2 8 0;
#X connect 5 3 3 0;
#X connect 5 4 6 0;
#X connect 5 5 4 0;
#X restore 97 103 pd init;
#X obj 603 237 namecanvas \$0-wfdisplay;
#N canvas 1083 267 450 300 resize-gop 0;
#X obj 117 203 s \$0-wfdisplay;
#X obj 117 183 s \$0-array;
#X obj 117 56 r \$0-width;
#X obj 133 85 r \$0-hight;
#X obj 117 132 pack;
#X obj 133 109 t b f;
#X msg 117 160 goprect 0 0 \$1 \$2;
#X connect 2 0 4 0;
#X connect 3 0 5 0;
#X connect 4 0 6 0;
#X connect 5 0 4 0;
#X connect 5 1 4 1;
#X connect 6 0 0 0;
#X connect 6 0 1 0;
#X restore 98 191 pd resize-gop;
#X coords 0 -1 1 1 500 60 2 0 0;
