#N struct 1004-template float x float y float c float s float th float
stretch array 1004-plus 1004-template-y array 1004-minus 1004-template-y
;
#N struct 1004-template-y float y;
#N canvas 498 100 729 475 10;
#N canvas 386 107 477 568 receive 0;
#X obj 383 -104 s \$0-draw;
#X obj 383 -125 t b;
#X obj 221 -26 unpack;
#X obj 227 60 r \$0-yfrom;
#X obj 259 82 r \$0-yto;
#X obj 227 144 pack;
#X obj 227 170 s \$0-y-range;
#X obj 252 112 t b f;
#X obj 22 -243 r waveform/\$1;
#X obj 22 -194 route width height color thickness y-range resolution
set;
#X obj 318 -115 s \$0-set;
#X obj 22 -151 s \$0-width;
#X obj 70 -121 s \$0-height;
#X obj 121 -91 s \$0-color;
#X obj 171 -64 s \$0-thickness;
#X obj 282 -80 s \$0-scale;
#X obj 221 14 s \$0-yfrom;
#X obj 254 36 s \$0-yto;
#X connect 1 0 0 0;
#X connect 2 0 16 0;
#X connect 2 1 17 0;
#X connect 3 0 5 0;
#X connect 4 0 7 0;
#X connect 5 0 6 0;
#X connect 7 0 5 0;
#X connect 7 1 5 1;
#X connect 8 0 9 0;
#X connect 9 0 11 0;
#X connect 9 1 12 0;
#X connect 9 2 13 0;
#X connect 9 3 14 0;
#X connect 9 4 2 0;
#X connect 9 5 15 0;
#X connect 9 6 10 0;
#X connect 9 7 1 0;
#X restore -91 108 pd receive;
#N canvas 266 139 792 427 init 0;
#X obj 287 59 f \$2;
#X obj 329 59 f \$3;
#X obj 402 60 f \$4;
#X obj 454 60 f \$5;
#X obj 287 90 sel 0;
#X obj 329 91 sel 0;
#X obj 441 140 +;
#X obj 441 231 sel 0;
#X obj 393 141 pack;
#X obj 441 169 != 0;
#X obj 393 206 spigot;
#X obj 402 86 t f f;
#X obj 454 84 t f f;
#X obj 222 61 f \$7;
#X obj 223 83 sel 0;
#X msg 223 103 1;
#X obj 139 62 f \$6;
#X msg 441 253 1 -1;
#X obj 442 276 unpack;
#X obj 507 60 f \$8;
#X obj 218 -22 loadbang;
#X obj 663 65 f \$9;
#X obj 217 1 t b b b b b b b b b;
#X obj 663 90 sel 0;
#X obj 663 44 del 1;
#X msg 287 112 400;
#X msg 329 112 150;
#X msg 663 114 100;
#X obj 139 167 s \$0-color;
#X obj 205 285 s \$0-thickness;
#X obj 287 218 s \$0-width;
#X obj 334 305 s \$0-height;
#X obj 442 311 s \$0-yfrom;
#X obj 475 332 s \$0-yto;
#X obj 507 104 s \$0-name-on-parrent;
#X obj 663 137 s \$0-scale;
#X connect 0 0 4 0;
#X connect 1 0 5 0;
#X connect 2 0 11 0;
#X connect 3 0 12 0;
#X connect 4 0 25 0;
#X connect 4 1 30 0;
#X connect 5 0 26 0;
#X connect 5 1 31 0;
#X connect 6 0 9 0;
#X connect 7 0 17 0;
#X connect 8 0 10 0;
#X connect 9 0 10 1;
#X connect 9 0 7 0;
#X connect 10 0 18 0;
#X connect 11 0 8 0;
#X connect 11 1 6 0;
#X connect 12 0 8 1;
#X connect 12 1 6 1;
#X connect 13 0 14 0;
#X connect 14 0 15 0;
#X connect 14 1 29 0;
#X connect 15 0 29 0;
#X connect 16 0 28 0;
#X connect 17 0 18 0;
#X connect 18 0 32 0;
#X connect 18 1 33 0;
#X connect 19 0 34 0;
#X connect 20 0 22 0;
#X connect 21 0 23 0;
#X connect 22 0 16 0;
#X connect 22 1 13 0;
#X connect 22 2 0 0;
#X connect 22 3 1 0;
#X connect 22 5 2 0;
#X connect 22 6 3 0;
#X connect 22 7 19 0;
#X connect 22 8 24 0;
#X connect 23 0 27 0;
#X connect 23 1 35 0;
#X connect 24 0 21 0;
#X connect 25 0 30 0;
#X connect 26 0 31 0;
#X connect 27 0 35 0;
#X restore -91 83 pd init;
#N canvas 574 210 450 300 template 0;
#X obj 44 14 struct \$0-template float x float y float c float s float
th float stretch array \$0-plus \$0-template-y array \$0-minus \$0-template-y
;
#X obj 41 93 plot \$0-minus c th -1 0 stretch;
#X obj 42 69 plot \$0-plus c th -1 0 stretch;
#X restore -92 2 pd template;
#N canvas 597 140 416 79 template-y 0;
#X obj -157 12 struct \$0-template-y float y;
#X restore -92 23 pd template-y;
#X obj -92 48 namecanvas \$1-wf-\$0;
#N canvas 29 284 450 300 \$0-wf-disp 0;
#X scalar 1004-template 1 0 0 0 1 1.0025 \; 0 \; 0 \; 0 \; 0 \; 0 \;
0 \; 0 \; 0 \; 0 \; 0 \; 0 \; 0 \; 0 \; 0 \; 0 \; 0 \; 0 \; 0 \; 0
\; 0 \; 0 \; 0 \; 0 \; 0 \; 0 \; 0 \; 0 \; 0 \; 0 \; 0 \; 0 \; 0 \;
0 \; 0 \; 0 \; 0 \; 0 \; 0 \; 0 \; 0 \; 0 \; 0 \; 0 \; 0 \; 0 \; 0
\; 0 \; 0 \; 0 \; 0 \; 0 \; 0 \; 0 \; 0 \; 0 \; 0 \; 0 \; 0 \; 0 \;
0 \; 0 \; 0 \; 0 \; 0 \; 0 \; 0 \; 0 \; 0 \; 0 \; 0 \; 0 \; 0 \; 0
\; 0 \; 0 \; 0 \; 0 \; 0 \; 0 \; 0 \; 0 \; 0 \; 0 \; 0 \; 0 \; 0 \;
0 \; 0 \; 0 \; 0 \; 0 \; 0 \; 0 \; 0 \; 0 \; 0 \; 0 \; 0 \; 0 \; 0
\; 0 \; 0 \; 0 \; 0 \; 0 \; 0 \; 0 \; 0 \; 0 \; 0 \; 0 \; 0 \; 0 \;
0 \; 0 \; 0 \; 0 \; 0 \; 0 \; 0 \; 0 \; 0 \; 0 \; 0 \; 0 \; 0 \; 0
\; 0 \; 0 \; 0 \; 0 \; 0 \; 0 \; 0 \; 0 \; 0 \; 0 \; 0 \; 0 \; 0 \;
0 \; 0 \; 0 \; 0 \; 0 \; 0 \; 0 \; 0 \; 0 \; 0 \; 0 \; 0 \; 0 \; 0
\; 0 \; 0 \; 0 \; 0 \; 0 \; 0 \; 0 \; 0 \; 0 \; 0 \; 0 \; 0 \; 0 \;
0 \; 0 \; 0 \; 0 \; 0 \; 0 \; 0 \; 0 \; 0 \; 0 \; 0 \; 0 \; 0 \; 0
\; 0 \; 0 \; 0 \; 0 \; 0 \; 0 \; 0 \; 0 \; 0 \; 0 \; 0 \; 0 \; 0 \;
0 \; 0 \; 0 \; 0 \; 0 \; 0 \; 0 \; 0 \; 0 \; 0 \; 0 \; 0 \; 0 \; 0
\; 0 \; 0 \; 0 \; 0 \; 0 \; 0 \; 0 \; 0 \; 0 \; 0 \; 0 \; 0 \; 0 \;
0 \; 0 \; 0 \; 0 \; 0 \; 0 \; 0 \; 0 \; 0 \; 0 \; 0 \; 0 \; 0 \; 0
\; 0 \; 0 \; 0 \; 0 \; 0 \; 0 \; 0 \; 0 \; 0 \; 0 \; 0 \; 0 \; 0 \;
0 \; 0 \; 0 \; 0 \; 0 \; 0 \; 0 \; 0 \; 0 \; 0 \; 0 \; 0 \; 0 \; 0
\; 0 \; 0 \; 0 \; 0 \; 0 \; 0 \; 0 \; 0 \; 0 \; 0 \; 0 \; 0 \; 0 \;
0 \; 0 \; 0 \; 0 \; 0 \; 0 \; 0 \; 0 \; 0 \; 0 \; 0 \; 0 \; 0 \; 0
\; 0 \; 0 \; 0 \; 0 \; 0 \; 0 \; 0 \; 0 \; 0 \; 0 \; 0 \; 0 \; 0 \;
0 \; 0 \; 0 \; 0 \; 0 \; 0 \; 0 \; 0 \; 0 \; 0 \; 0 \; 0 \; 0 \; 0
\; 0 \; 0 \; 0 \; 0 \; 0 \; 0 \; 0 \; 0 \; 0 \; 0 \; 0 \; 0 \; 0 \;
0 \; 0 \; 0 \; 0 \; 0 \; 0 \; 0 \; 0 \; 0 \; 0 \; 0 \; 0 \; 0 \; 0
\; 0 \; 0 \; 0 \; 0 \; 0 \; 0 \; 0 \; 0 \; 0 \; 0 \; 0 \; 0 \; 0 \;
0 \; 0 \; 0 \; 0 \; 0 \; 0 \; 0 \; 0 \; 0 \; 0 \; 0 \; 0 \; 0 \; 0
\; 0 \; 0 \; 0 \; 0 \; 0 \; 0 \; 0 \; 0 \; 0 \; 0 \; 0 \; 0 \; 0 \;
0 \; 0 \; 0 \; 0 \; 0 \; 0 \; 0 \; 0 \; 0 \; 0 \; 0 \; 0 \; 0 \; 0
\; 0 \; 0 \; 0 \; \; 0 \; 0 \; 0 \; 0 \; 0 \; 0 \; 0 \; 0 \; 0 \; 0
\; 0 \; 0 \; 0 \; 0 \; 0 \; 0 \; 0 \; 0 \; 0 \; 0 \; 0 \; 0 \; 0 \;
0 \; 0 \; 0 \; 0 \; 0 \; 0 \; 0 \; 0 \; 0 \; 0 \; 0 \; 0 \; 0 \; 0
\; 0 \; 0 \; 0 \; 0 \; 0 \; 0 \; 0 \; 0 \; 0 \; 0 \; 0 \; 0 \; 0 \;
0 \; 0 \; 0 \; 0 \; 0 \; 0 \; 0 \; 0 \; 0 \; 0 \; 0 \; 0 \; 0 \; 0
\; 0 \; 0 \; 0 \; 0 \; 0 \; 0 \; 0 \; 0 \; 0 \; 0 \; 0 \; 0 \; 0 \;
0 \; 0 \; 0 \; 0 \; 0 \; 0 \; 0 \; 0 \; 0 \; 0 \; 0 \; 0 \; 0 \; 0
\; 0 \; 0 \; 0 \; 0 \; 0 \; 0 \; 0 \; 0 \; 0 \; 0 \; 0 \; 0 \; 0 \;
0 \; 0 \; 0 \; 0 \; 0 \; 0 \; 0 \; 0 \; 0 \; 0 \; 0 \; 0 \; 0 \; 0
\; 0 \; 0 \; 0 \; 0 \; 0 \; 0 \; 0 \; 0 \; 0 \; 0 \; 0 \; 0 \; 0 \;
0 \; 0 \; 0 \; 0 \; 0 \; 0 \; 0 \; 0 \; 0 \; 0 \; 0 \; 0 \; 0 \; 0
\; 0 \; 0 \; 0 \; 0 \; 0 \; 0 \; 0 \; 0 \; 0 \; 0 \; 0 \; 0 \; 0 \;
0 \; 0 \; 0 \; 0 \; 0 \; 0 \; 0 \; 0 \; 0 \; 0 \; 0 \; 0 \; 0 \; 0
\; 0 \; 0 \; 0 \; 0 \; 0 \; 0 \; 0 \; 0 \; 0 \; 0 \; 0 \; 0 \; 0 \;
0 \; 0 \; 0 \; 0 \; 0 \; 0 \; 0 \; 0 \; 0 \; 0 \; 0 \; 0 \; 0 \; 0
\; 0 \; 0 \; 0 \; 0 \; 0 \; 0 \; 0 \; 0 \; 0 \; 0 \; 0 \; 0 \; 0 \;
0 \; 0 \; 0 \; 0 \; 0 \; 0 \; 0 \; 0 \; 0 \; 0 \; 0 \; 0 \; 0 \; 0
\; 0 \; 0 \; 0 \; 0 \; 0 \; 0 \; 0 \; 0 \; 0 \; 0 \; 0 \; 0 \; 0 \;
0 \; 0 \; 0 \; 0 \; 0 \; 0 \; 0 \; 0 \; 0 \; 0 \; 0 \; 0 \; 0 \; 0
\; 0 \; 0 \; 0 \; 0 \; 0 \; 0 \; 0 \; 0 \; 0 \; 0 \; 0 \; 0 \; 0 \;
0 \; 0 \; 0 \; 0 \; 0 \; 0 \; 0 \; 0 \; 0 \; 0 \; 0 \; 0 \; 0 \; 0
\; 0 \; 0 \; 0 \; 0 \; 0 \; 0 \; 0 \; 0 \; 0 \; 0 \; 0 \; 0 \; 0 \;
0 \; 0 \; 0 \; 0 \; 0 \; 0 \; 0 \; 0 \; 0 \; 0 \; 0 \; 0 \; 0 \; 0
\; 0 \; 0 \; 0 \; 0 \; 0 \; 0 \; 0 \; 0 \; 0 \; 0 \; 0 \; 0 \; 0 \;
0 \; 0 \; 0 \; 0 \; 0 \; 0 \; 0 \; 0 \; 0 \; 0 \; 0 \; 0 \; 0 \; 0
\; 0 \; 0 \; 0 \; 0 \; 0 \; 0 \; 0 \; 0 \; 0 \; 0 \; 0 \; 0 \; 0 \;
0 \; 0 \; 0 \; 0 \; 0 \; 0 \; 0 \; 0 \; 0 \; 0 \; 0 \; 0 \; 0 \; 0
\; 0 \; 0 \; 0 \; 0 \; 0 \; 0 \; 0 \; 0 \; 0 \; 0 \; 0 \; 0 \; 0 \;
0 \; 0 \; 0 \; 0 \; 0 \; 0 \; 0 \; 0 \; 0 \; 0 \; 0 \; 0 \; 0 \; 0
\; 0 \; 0 \; 0 \; 0 \; 0 \; 0 \; 0 \; 0 \; 0 \; 0 \; 0 \; 0 \; \;;
#X coords 0 1 400 -1 400 150 2 100 100;
#X restore 100 100 pd \$0-wf-disp;
#N canvas 461 227 1139 699 draw-waveform 0;
#X obj 544 212 pointer;
#X obj 297 541 loadbang;
#X msg 297 586 0;
#X msg 417 86 \$1;
#X msg 393 282 \$2;
#X obj 134 405 until;
#X obj 134 427 f;
#X obj 164 430 + 1;
#X msg 178 402 0;
#X obj 269 320 f 100;
#X obj 297 564 del 1;
#X obj 357 -296 r \$0-width;
#X obj 478 -282 r \$0-height;
#X obj 557 -257 r \$0-color;
#X obj 627 -234 r \$0-thickness;
#X obj 267 -39 list prepend \$0;
#X obj 624 -154 r \$0-y-range;
#X obj 417 109 t f f;
#X obj 624 -119 t b a;
#X obj 267 -18 t l l l l l;
#X obj 710 -191 + 1;
#X obj 710 -213 r \$0-name-on-parrent;
#X obj 267 -62 list 1 -1;
#X obj 67 696 set \$0-template-y y;
#X obj 201 -299 r \$0-scale;
#X obj 480 96 s \$1-wf-\$0;
#X msg 513 126 \; pd-\$1-wf-disp clear;
#X msg 544 191 traverse pd-\$1-wf-disp \, bang;
#X obj 269 355 setsize \$0-template \$0-plus;
#X obj 244 379 setsize \$0-template \$0-minus;
#X obj 262 615 element \$0-template \$0-plus;
#X obj 66 720 set \$0-template-y y;
#X obj 284 256 t b b p p;
#X obj 255 646 element \$0-template \$0-minus;
#X obj 135 314 f;
#X obj 19 440 /;
#X obj 134 334 t f b b;
#X obj -16 520 *;
#X obj -16 542 i;
#X obj 201 -177 t f f;
#X obj 201 -217 i;
#X obj 19 545 i;
#X obj 134 458 t f f;
#X obj 267 -84 pack f f f f f f;
#X obj 283 232 append \$0-template x y c th stretch;
#X obj 39 159 r \$0-draw;
#X obj 39 181 t b;
#X msg 283 203 1 0 \$5 \$6;
#X msg 480 74 donecanvasdialog 0 0 \$7 0 -1 1 1 \$3 \$4 100 100 \,
dirty 0;
#X msg 389 137 \$2;
#X obj 201 -244 expr $f2/(100/$f1);
#X obj 2 268 r \$0-set;
#X obj 2 297 symbol;
#X obj 92 557 r \$0-set;
#X obj 92 584 symbol;
#N canvas 1403 141 450 300 bondo666 0;
#X obj 117 151 inlet;
#X obj 115 230 outlet;
#X obj 172 151 inlet;
#X obj 172 173 t b f;
#X obj 170 230 outlet;
#X obj 220 151 inlet;
#X obj 220 173 t b f;
#X obj 218 230 outlet;
#X obj 269 151 inlet;
#X obj 269 173 t b f;
#X obj 267 230 outlet;
#X obj 314 151 inlet;
#X obj 314 173 t b f;
#X obj 312 230 outlet;
#X obj 359 150 inlet;
#X obj 359 172 t b f;
#X obj 357 229 outlet;
#X connect 0 0 1 0;
#X connect 2 0 3 0;
#X connect 3 0 1 0;
#X connect 3 1 4 0;
#X connect 5 0 6 0;
#X connect 6 0 1 0;
#X connect 6 1 7 0;
#X connect 8 0 9 0;
#X connect 9 0 1 0;
#X connect 9 1 10 0;
#X connect 11 0 12 0;
#X connect 12 0 1 0;
#X connect 12 1 13 0;
#X connect 14 0 15 0;
#X connect 15 0 1 0;
#X connect 15 1 16 0;
#X restore 267 -135 pd bondo666, f 16;
#X obj -5 611 array max \$1;
#X obj -9 646 array min \$1;
#X msg 426 163 1 \$1;
#X obj 426 185 /;
#X obj 426 207 + 1;
#X msg 242 18 \; pd-\$1-wf-disp donecanvasdialog 0 0 2 0 \$8 \$2 \$9
\$3 \$4 100 100 \, dirty 0;
#X obj 19 415 array size \$1;
#X connect 0 0 44 5;
#X connect 1 0 10 0;
#X connect 2 0 30 0;
#X connect 2 0 33 0;
#X connect 3 0 17 0;
#X connect 4 0 9 1;
#X connect 5 0 6 0;
#X connect 6 0 7 0;
#X connect 6 0 42 0;
#X connect 7 0 6 1;
#X connect 8 0 6 1;
#X connect 9 0 28 0;
#X connect 9 0 29 0;
#X connect 10 0 2 0;
#X connect 11 0 50 1;
#X connect 11 0 55 1;
#X connect 12 0 55 2;
#X connect 13 0 55 3;
#X connect 14 0 55 4;
#X connect 15 0 19 0;
#X connect 16 0 18 0;
#X connect 17 0 27 0;
#X connect 17 1 26 0;
#X connect 18 0 43 0;
#X connect 18 1 22 1;
#X connect 19 0 61 0;
#X connect 19 1 47 0;
#X connect 19 2 4 0;
#X connect 19 3 3 0;
#X connect 19 3 49 0;
#X connect 19 4 48 0;
#X connect 20 0 55 5;
#X connect 21 0 20 0;
#X connect 22 0 15 0;
#X connect 24 0 50 0;
#X connect 27 0 0 0;
#X connect 30 0 23 1;
#X connect 32 0 34 0;
#X connect 32 1 9 0;
#X connect 32 2 30 1;
#X connect 32 2 33 1;
#X connect 32 3 28 1;
#X connect 32 3 29 1;
#X connect 33 0 31 1;
#X connect 34 0 36 0;
#X connect 35 0 37 1;
#X connect 35 0 41 0;
#X connect 36 0 5 0;
#X connect 36 1 8 0;
#X connect 36 2 62 0;
#X connect 37 0 38 0;
#X connect 38 0 56 0;
#X connect 38 0 57 0;
#X connect 39 0 55 0;
#X connect 39 1 34 1;
#X connect 39 1 35 1;
#X connect 40 0 39 0;
#X connect 41 0 56 1;
#X connect 41 0 57 1;
#X connect 42 0 37 0;
#X connect 42 1 33 0;
#X connect 42 1 30 0;
#X connect 43 0 22 0;
#X connect 44 0 32 0;
#X connect 45 0 46 0;
#X connect 46 0 34 0;
#X connect 47 0 44 0;
#X connect 48 0 25 0;
#X connect 49 0 58 0;
#X connect 50 0 40 0;
#X connect 51 0 52 0;
#X connect 52 0 62 1;
#X connect 53 0 54 0;
#X connect 54 0 56 2;
#X connect 54 0 57 2;
#X connect 55 0 43 0;
#X connect 55 1 43 1;
#X connect 55 2 43 2;
#X connect 55 3 43 3;
#X connect 55 4 43 4;
#X connect 55 5 43 5;
#X connect 56 0 23 0;
#X connect 57 0 31 0;
#X connect 58 0 59 0;
#X connect 59 0 60 0;
#X connect 60 0 44 4;
#X connect 62 0 35 0;
#X restore -1 3 pd draw-waveform;
#X coords 0 -1 1 1 400 150 1 100 100;
