#N struct 1171-template float x float y float c float s float th float
stretch array 1171-plus 1171-template-y array 1171-minus 1171-template-y
;
#N struct 1171-template-y float y;
#N canvas 498 100 729 475 10;
#N canvas 386 107 477 568 receive 0;
#X obj 383 -104 s \$0-draw;
#X obj 383 -125 t b;
#X obj 221 -26 unpack;
#X obj 227 60 r \$0-yfrom;
#X obj 259 82 r \$0-yto;
#X obj 227 144 pack;
#X obj 227 170 s \$0-y-range;
#X obj 252 112 t b f;
#X obj 22 -243 r waveform/\$1;
#X obj 22 -194 route width height color thickness y-range resolution
set;
#X obj 318 -115 s \$0-set;
#X obj 22 -151 s \$0-width;
#X obj 70 -121 s \$0-height;
#X obj 121 -91 s \$0-color;
#X obj 171 -64 s \$0-thickness;
#X obj 282 -80 s \$0-scale;
#X obj 221 14 s \$0-yfrom;
#X obj 254 36 s \$0-yto;
#X connect 1 0 0 0;
#X connect 2 0 16 0;
#X connect 2 1 17 0;
#X connect 3 0 5 0;
#X connect 4 0 7 0;
#X connect 5 0 6 0;
#X connect 7 0 5 0;
#X connect 7 1 5 1;
#X connect 8 0 9 0;
#X connect 9 0 11 0;
#X connect 9 1 12 0;
#X connect 9 2 13 0;
#X connect 9 3 14 0;
#X connect 9 4 2 0;
#X connect 9 5 15 0;
#X connect 9 6 10 0;
#X connect 9 7 1 0;
#X restore -91 108 pd receive;
#N canvas 266 139 792 427 init 0;
#X obj 287 59 f \$2;
#X obj 329 59 f \$3;
#X obj 402 60 f \$4;
#X obj 454 60 f \$5;
#X obj 287 90 sel 0;
#X obj 329 91 sel 0;
#X obj 441 140 +;
#X obj 441 231 sel 0;
#X obj 393 141 pack;
#X obj 441 169 != 0;
#X obj 393 206 spigot;
#X obj 402 86 t f f;
#X obj 454 84 t f f;
#X obj 222 61 f \$7;
#X obj 223 83 sel 0;
#X msg 223 103 1;
#X obj 139 62 f \$6;
#X msg 441 253 1 -1;
#X obj 442 276 unpack;
#X obj 507 60 f \$8;
#X obj 218 -22 loadbang;
#X obj 663 65 f \$9;
#X obj 217 1 t b b b b b b b b b;
#X obj 663 90 sel 0;
#X obj 663 44 del 1;
#X msg 287 112 400;
#X msg 329 112 150;
#X msg 663 114 100;
#X obj 139 167 s \$0-color;
#X obj 205 285 s \$0-thickness;
#X obj 287 218 s \$0-width;
#X obj 334 305 s \$0-height;
#X obj 442 311 s \$0-yfrom;
#X obj 475 332 s \$0-yto;
#X obj 507 104 s \$0-name-on-parrent;
#X obj 663 137 s \$0-scale;
#X connect 0 0 4 0;
#X connect 1 0 5 0;
#X connect 2 0 11 0;
#X connect 3 0 12 0;
#X connect 4 0 25 0;
#X connect 4 1 30 0;
#X connect 5 0 26 0;
#X connect 5 1 31 0;
#X connect 6 0 9 0;
#X connect 7 0 17 0;
#X connect 8 0 10 0;
#X connect 9 0 10 1;
#X connect 9 0 7 0;
#X connect 10 0 18 0;
#X connect 11 0 8 0;
#X connect 11 1 6 0;
#X connect 12 0 8 1;
#X connect 12 1 6 1;
#X connect 13 0 14 0;
#X connect 14 0 15 0;
#X connect 14 1 29 0;
#X connect 15 0 29 0;
#X connect 16 0 28 0;
#X connect 17 0 18 0;
#X connect 18 0 32 0;
#X connect 18 1 33 0;
#X connect 19 0 34 0;
#X connect 20 0 22 0;
#X connect 21 0 23 0;
#X connect 22 0 16 0;
#X connect 22 1 13 0;
#X connect 22 2 0 0;
#X connect 22 3 1 0;
#X connect 22 5 2 0;
#X connect 22 6 3 0;
#X connect 22 7 19 0;
#X connect 22 8 24 0;
#X connect 23 0 27 0;
#X connect 23 1 35 0;
#X connect 24 0 21 0;
#X connect 25 0 30 0;
#X connect 26 0 31 0;
#X connect 27 0 35 0;
#X restore -91 83 pd init;
#N canvas 574 210 450 300 template 0;
#X obj 44 14 struct \$0-template float x float y float c float s float
th float stretch array \$0-plus \$0-template-y array \$0-minus \$0-template-y
;
#X obj 41 93 plot \$0-minus c th -1 0 stretch;
#X obj 42 69 plot \$0-plus c th -1 0 stretch;
#X restore -92 2 pd template;
#N canvas 597 140 416 79 template-y 0;
#X obj -157 12 struct \$0-template-y float y;
#X restore -92 23 pd template-y;
#X obj -92 48 namecanvas \$1-wf-\$0;
#N canvas 29 284 450 300 \$0-wf-disp 0;
#X scalar 1171-template 1 0 29 0 1 1.00467 \; 0.218018 \; 0.0616455
\; 0.0348511 \; 0.0565186 \; 0.0537109 \; 0.39563 \; 0.152039 \; 0.0823364
\; 0.0510254 \; 0.0308533 \; 0.0586853 \; 0.0970154 \; 0.0149536 \;
0.00531006 \; 0.00296021 \; 0.0020752 \; 0.00546265 \; 0.00305176 \;
0.0241699 \; 0.029541 \; 0.0133057 \; 0.0804138 \; 0.16153 \; 0.189941
\; 0.607635 \; 0.0932007 \; 0.0531921 \; 0.0652771 \; 0.125519 \; 0.165253
\; 0.114563 \; 0.0898132 \; 0.0716248 \; 0.131104 \; 0.0949402 \; 0.00869751
\; 0.0527649 \; 0.178986 \; 0.36676 \; 0.605652 \; 0.780457 \; 0.106476
\; 0.0201721 \; 0.0981445 \; 0.0810242 \; 0.0767517 \; 0.162109 \;
0.182648 \; 0.14682 \; 0.126495 \; 0.063446 \; 0.0686646 \; 0.0811157
\; 0.0411072 \; 0.0515442 \; 0.07901 \; 0.0158997 \; 0.0131226 \; 0.0309448
\; 0.00653076 \; 0.0819702 \; 0.0688477 \; 0.155701 \; 0.359283 \;
0.446198 \; 0.106476 \; 0.0852051 \; 0.123779 \; 0.0860596 \; 0.105621
\; 0.0670166 \; 0.0285034 \; 0.0164185 \; 0.00799561 \; 0.0237427 \;
0.0356445 \; 0.0796204 \; 0.0797119 \; 0.0847473 \; 0.167328 \; 0.156036
\; 0.0769348 \; 0.0834656 \; 0.144653 \; 0.0862427 \; 0.102997 \; 0.0450439
\; 0.0227661 \; 0.0484924 \; 0.0805969 \; 0.0249634 \; 0.0233765 \;
0.092926 \; 0.266693 \; 0.379547 \; 0.115631 \; 0.247131 \; 0.247498
\; 0.698639 \; 0.451172 \; 0.147095 \; 0.134918 \; 0.0936279 \; 0.27243
\; 0.193085 \; 0.117798 \; 0.34198 \; 0.444733 \; 0.102844 \; 0.0632019
\; 0.0393677 \; 0.0324097 \; 0.0623169 \; 0.43161 \; 0.459412 \; 0.435944
\; 0.667542 \; 0.160034 \; 0.0162659 \; 0.0449524 \; 0.0153809 \; 0.0681458
\; 0.28479 \; 0.209839 \; 0.190887 \; 0.133514 \; 0.136902 \; 0.111542
\; 0.149872 \; 0.181854 \; 0.191254 \; 0.119629 \; 0.0797119 \; 0.0759888
\; 0.0710144 \; 0.0958862 \; 0.0673828 \; 0.102753 \; 0.0617065 \;
0.108582 \; 0.0545044 \; 0.0612793 \; 0.0101624 \; 0.00747681 \; 0.0083313
\; 0.00201416 \; 0.0180054 \; 0.0499878 \; 0.0262451 \; 0.029541 \;
0.081543 \; 0.178467 \; 0.104919 \; 0.102936 \; 0.0526733 \; 0.0513
\; 0.0539856 \; 0.0541687 \; 0.0261536 \; 0.0187683 \; 0.00616455 \;
0.0458069 \; 0.173676 \; 0.165161 \; 0.108307 \; 0.0497131 \; 0.512451
\; 0.499664 \; 0.0924072 \; 0.327545 \; 0.107361 \; 0.155792 \; 0.348236
\; 0.311829 \; 0.207245 \; 0.242615 \; 0.497314 \; 0.353363 \; 0.604858
\; 0.604156 \; 0.0852661 \; 0.0198975 \; 0.279663 \; 0.395538 \; 0.330231
\; 0.498383 \; 0.200806 \; 0.0337219 \; 0.0131226 \; 0.0150452 \; 0.0242615
\; 0.0206909 \; 0.175415 \; 0.10553 \; 0.279205 \; 0.502289 \; 0.112915
\; 0.153778 \; 0.0479126 \; 0.0342407 \; 0.037384 \; 0.013916 \; 0.0624084
\; 0.0513611 \; 0.151855 \; 0.852417 \; 0.411346 \; 0.147766 \; 0.0642395
\; 0.122223 \; 0.058075 \; 0.0143433 \; 0.00643921 \; 0.0045166 \;
\; -0.360077 \; -0.0847473 \; -0.0609436 \; -0.0966797 \; -0.0491028
\; -0.431946 \; -0.166718 \; -0.0775452 \; -0.0798035 \; -0.0414734
\; -0.0545959 \; -0.142395 \; -0.013916 \; -0.0039978 \; -0.0022583
\; -0.00234985 \; -0.00512695 \; -0.00427246 \; -0.0231323 \; -0.0351257
\; -0.0183411 \; -0.110229 \; -0.174133 \; -0.201599 \; -0.835663 \;
-0.0728455 \; -0.0737915 \; -0.0805969 \; -0.166138 \; -0.182739 \;
-0.209412 \; -0.0829163 \; -0.0704041 \; -0.204895 \; -0.115082 \;
-0.00946045 \; -0.0712891 \; -0.21933 \; -0.418488 \; -0.77359 \; -0.819916
\; -0.117798 \; -0.0227661 \; -0.125 \; -0.102478 \; -0.0818787 \;
-0.197693 \; -0.199493 \; -0.155243 \; -0.141357 \; -0.0577087 \; -0.0686646
\; -0.0679016 \; -0.0463257 \; -0.0537109 \; -0.0814514 \; -0.0187683
\; -0.0146179 \; -0.0232239 \; -0.00817871 \; -0.105011 \; -0.068512
\; -0.218292 \; -0.410217 \; -0.510986 \; -0.113525 \; -0.120667 \;
-0.114319 \; -0.096405 \; -0.0866699 \; -0.0746765 \; -0.0301514 \;
-0.0198059 \; -0.013031 \; -0.0284119 \; -0.0498962 \; -0.0776367 \;
-0.104919 \; -0.0744934 \; -0.239563 \; -0.13623 \; -0.0937195 \; -0.072937
\; -0.147339 \; -0.0863953 \; -0.123779 \; -0.0491943 \; -0.0185242
\; -0.0537109 \; -0.0852661 \; -0.0160828 \; -0.0293884 \; -0.122406
\; -0.257141 \; -0.283142 \; -0.118744 \; -0.303223 \; -0.355377 \;
-0.930145 \; -0.422302 \; -0.149963 \; -0.16629 \; -0.0670166 \; -0.323456
\; -0.183868 \; -0.144135 \; -0.336853 \; -0.415161 \; -0.101807 \;
-0.0522461 \; -0.0315552 \; -0.0311279 \; -0.0550232 \; -0.468903 \;
-0.432983 \; -0.442474 \; -0.474213 \; -0.256195 \; -0.0107727 \; -0.0396423
\; -0.0090332 \; -0.0770264 \; -0.200897 \; -0.172729 \; -0.177338
\; -0.199249 \; -0.142914 \; -0.126404 \; -0.162201 \; -0.178741 \;
-0.174744 \; -0.144379 \; -0.0960693 \; -0.0654602 \; -0.0617065 \;
-0.078064 \; -0.0473022 \; -0.120148 \; -0.0677185 \; -0.0705872 \;
-0.0679016 \; -0.0461731 \; -0.0106812 \; -0.00427246 \; -0.0055542
\; -0.00244141 \; -0.023468 \; -0.0530396 \; -0.032074 \; -0.0468445
\; -0.111359 \; -0.183594 \; -0.108398 \; -0.102844 \; -0.059906 \;
-0.0385132 \; -0.0497131 \; -0.0534668 \; -0.0287781 \; -0.0116577
\; -0.00357056 \; -0.0458069 \; -0.156555 \; -0.169006 \; -0.103973
\; -0.0532837 \; -0.476013 \; -0.513306 \; -0.0867615 \; -0.309387
\; -0.110138 \; -0.140656 \; -0.311218 \; -0.266968 \; -0.159332 \;
-0.256348 \; -0.547729 \; -0.330078 \; -0.583374 \; -0.576691 \; -0.0915222
\; -0.0245056 \; -0.299286 \; -0.357117 \; -0.230713 \; -0.576965 \;
-0.228271 \; -0.0211182 \; -0.0112915 \; -0.0192871 \; -0.0201721 \;
-0.0368652 \; -0.181427 \; -0.112061 \; -0.256256 \; -0.537567 \; -0.118561
\; -0.151001 \; -0.0551147 \; -0.0479736 \; -0.0348511 \; -0.0140076
\; -0.110046 \; -0.0707703 \; -0.199768 \; -0.999939 \; -0.506714 \;
-0.215942 \; -0.0839844 \; -0.190033 \; -0.0483398 \; -0.0192261 \;
-0.00540161 \; -0.00469971 \; \;;
#X coords 0 1 214 -1 372 121 2 100 100;
#X restore 100 100 pd \$0-wf-disp;
#N canvas 123 66 1139 699 draw-waveform 0;
#X obj 544 212 pointer;
#X obj 297 544 loadbang;
#X msg 297 586 0;
#X msg 417 86 \$1;
#X msg 393 282 \$2;
#X obj 134 394 until;
#X obj 134 416 f;
#X obj 164 419 + 1;
#X msg 178 391 0;
#X obj 269 320 f 100;
#X obj 297 567 del 1;
#X obj 357 -296 r \$0-width;
#X obj 478 -282 r \$0-height;
#X obj 557 -257 r \$0-color;
#X obj 627 -234 r \$0-thickness;
#X obj 267 -39 list prepend \$0;
#X obj 624 -154 r \$0-y-range;
#X obj 417 109 t f f;
#X obj 624 -119 t b a;
#X obj 267 -18 t l l l l l;
#X obj 710 -191 + 1;
#X obj 710 -213 r \$0-name-on-parrent;
#X obj 267 -62 list 1 -1;
#X obj 67 696 set \$0-template-y y;
#X obj 201 -299 r \$0-scale;
#X obj 480 96 s \$1-wf-\$0;
#X msg 513 126 \; pd-\$1-wf-disp clear;
#X msg 544 191 traverse pd-\$1-wf-disp \, bang;
#X obj 269 355 setsize \$0-template \$0-plus;
#X obj 244 379 setsize \$0-template \$0-minus;
#X obj 262 615 element \$0-template \$0-plus;
#X obj 66 720 set \$0-template-y y;
#X obj 284 256 t b b p p;
#X obj 255 646 element \$0-template \$0-minus;
#X obj 135 314 f;
#X obj 20 415 expr size("$s1");
#X obj 20 395 symbol \$1;
#X obj 20 440 /;
#X obj 134 334 t f b b;
#X obj -16 520 *;
#X obj -16 542 i;
#X obj 201 -177 t f f;
#X obj 201 -217 i;
#X obj 19 545 i;
#X obj 134 370 + 0;
#X obj 134 447 t f f;
#X obj 267 -84 pack f f f f f f;
#X obj 283 232 append \$0-template x y c th stretch;
#X obj 39 159 r \$0-draw;
#X obj 39 181 t b;
#X msg 283 203 1 0 \$5 \$6;
#X msg 480 74 donecanvasdialog 0 0 \$7 0 -1 1 1 \$3 \$4 100 100 \,
dirty 0;
#X msg 389 137 \$2;
#X obj 201 -244 expr $f2/(100/$f1);
#X obj -13 263 r \$0-set;
#X obj -13 303 symbol;
#X obj 119 545 r \$0-set;
#X obj 119 572 symbol;
#N canvas 1403 141 450 300 bondo666 0;
#X obj 117 151 inlet;
#X obj 115 230 outlet;
#X obj 172 151 inlet;
#X obj 172 173 t b f;
#X obj 170 230 outlet;
#X obj 220 151 inlet;
#X obj 220 173 t b f;
#X obj 218 230 outlet;
#X obj 269 151 inlet;
#X obj 269 173 t b f;
#X obj 267 230 outlet;
#X obj 314 151 inlet;
#X obj 314 173 t b f;
#X obj 312 230 outlet;
#X obj 359 150 inlet;
#X obj 359 172 t b f;
#X obj 357 229 outlet;
#X connect 0 0 1 0;
#X connect 2 0 3 0;
#X connect 3 0 1 0;
#X connect 3 1 4 0;
#X connect 5 0 6 0;
#X connect 6 0 1 0;
#X connect 6 1 7 0;
#X connect 8 0 9 0;
#X connect 9 0 1 0;
#X connect 9 1 10 0;
#X connect 11 0 12 0;
#X connect 12 0 1 0;
#X connect 12 1 13 0;
#X connect 14 0 15 0;
#X connect 15 0 1 0;
#X connect 15 1 16 0;
#X restore 267 -135 pd bondo666;
#X f 16;
#X obj -5 611 array max \$1;
#X msg 119 597 symbol \$1;
#X obj -8 649 array min \$1;
#X msg 426 163 1 \$1;
#X obj 426 185 /;
#X obj 426 207 + 1;
#X msg 242 18 \; pd-\$1-wf-disp donecanvasdialog 0 0 2 0 \$8 \$2 \$9
\$3 \$4 100 100 \, dirty 0;
#X connect 0 0 47 5;
#X connect 1 0 10 0;
#X connect 2 0 30 0;
#X connect 2 0 33 0;
#X connect 3 0 17 0;
#X connect 4 0 9 1;
#X connect 5 0 6 0;
#X connect 6 0 7 0;
#X connect 6 0 45 0;
#X connect 7 0 6 1;
#X connect 8 0 6 1;
#X connect 9 0 28 0;
#X connect 9 0 29 0;
#X connect 10 0 2 0;
#X connect 11 0 53 1;
#X connect 11 0 58 1;
#X connect 12 0 58 2;
#X connect 13 0 58 3;
#X connect 14 0 58 4;
#X connect 15 0 19 0;
#X connect 16 0 18 0;
#X connect 17 0 27 0;
#X connect 17 1 26 0;
#X connect 18 0 46 0;
#X connect 18 1 22 1;
#X connect 19 0 65 0;
#X connect 19 1 50 0;
#X connect 19 2 4 0;
#X connect 19 3 3 0;
#X connect 19 3 52 0;
#X connect 19 4 51 0;
#X connect 20 0 58 5;
#X connect 21 0 20 0;
#X connect 22 0 15 0;
#X connect 24 0 53 0;
#X connect 27 0 0 0;
#X connect 30 0 23 1;
#X connect 32 0 34 0;
#X connect 32 1 9 0;
#X connect 32 2 30 1;
#X connect 32 2 33 1;
#X connect 32 3 28 1;
#X connect 32 3 29 1;
#X connect 33 0 31 1;
#X connect 34 0 38 0;
#X connect 35 0 37 0;
#X connect 36 0 35 0;
#X connect 37 0 39 1;
#X connect 37 0 43 0;
#X connect 38 0 44 0;
#X connect 38 1 8 0;
#X connect 38 2 36 0;
#X connect 39 0 40 0;
#X connect 40 0 59 0;
#X connect 40 0 61 0;
#X connect 41 0 58 0;
#X connect 41 1 34 1;
#X connect 41 1 37 1;
#X connect 42 0 41 0;
#X connect 43 0 59 1;
#X connect 43 0 61 1;
#X connect 44 0 5 0;
#X connect 45 0 39 0;
#X connect 45 1 33 0;
#X connect 45 1 30 0;
#X connect 46 0 22 0;
#X connect 47 0 32 0;
#X connect 48 0 49 0;
#X connect 49 0 34 0;
#X connect 50 0 47 0;
#X connect 51 0 25 0;
#X connect 52 0 62 0;
#X connect 53 0 42 0;
#X connect 54 0 55 0;
#X connect 55 0 36 1;
#X connect 56 0 57 0;
#X connect 57 0 60 0;
#X connect 58 0 46 0;
#X connect 58 1 46 1;
#X connect 58 2 46 2;
#X connect 58 3 46 3;
#X connect 58 4 46 4;
#X connect 58 5 46 5;
#X connect 59 0 23 0;
#X connect 60 0 59 2;
#X connect 60 0 61 2;
#X connect 61 0 31 0;
#X connect 62 0 63 0;
#X connect 63 0 64 0;
#X connect 64 0 47 4;
#X restore -1 3 pd draw-waveform;
#X coords 0 -1 1 1 372 121 1 100 100;
