#N canvas 187 459 746 311 10;
#X obj 450 241 pp.out~;
#A saved;
#X obj 1 2 cnv 15 420 300 empty empty empty 20 12 0 14 #e0e0e0 #404040 0;
#X text 46 126 Inlets:;
#X text 45 223 Outlets:;
#X obj 12 20 cnv 15 10 10 empty empty pp.xfade-st~ 0 0 2 16 #e0e0e0 #fcfcfc 0;
#N canvas 997 287 503 292 message-out 0;
#X obj 30 33 inlet;
#X msg 30 60 mix 0 \, lin \,;
#X connect 0 0 1 0;
#X restore 599 208 pd message-out;
#X obj 599 139 cnv 15 118 17 empty empty empty 20 12 0 14 #fc8000 #404040 0;
#N canvas 1023 138 330 209 control-messages 0;
#X obj 54 180 outlet;
#X obj 101 147 cnv 16 87 16 empty empty empty 20 12 0 14 #fc8000 #404040 0;
#N canvas 864 246 634 307 save&recall 0;
#X obj 93 233 outlet;
#X msg 93 60 0;
#X msg 125 60 1;
#X msg 158 60 2;
#X msg 93 99 save \$1;
#X text 185 63 ...;
#X msg 207 60 20;
#X msg 149 154 0;
#X msg 181 154 1;
#X msg 214 154 2;
#X text 241 157 ...;
#X msg 263 154 20;
#X msg 149 193 recall \$1;
#X text 249 93 save & recall up to 20 presets \, presets will be saved with the parrent patch;
#X connect 1 0 4 0;
#X connect 2 0 4 0;
#X connect 3 0 4 0;
#X connect 4 0 0 0;
#X connect 6 0 4 0;
#X connect 7 0 12 0;
#X connect 8 0 12 0;
#X connect 9 0 12 0;
#X connect 11 0 12 0;
#X connect 12 0 0 0;
#X restore 101 146 pd save&recall;
#X floatatom 54 23 5 0 0 0 - - - 0;
#X msg 54 45 mix \$1;
#X msg 85 80 lin;
#X text 114 79 linear crossfade;
#X msg 100 108 sqrt;
#X text 132 108 equal power crossfade;
#X text 94 21 -1 \, 1;
#X connect 2 0 0 0;
#X connect 3 0 4 0;
#X connect 4 0 0 0;
#X connect 5 0 0 0;
#X connect 7 0 0 0;
#X restore 599 139 pd control-messages;
#X obj 509 49 osc~ 440;
#X floatatom 569 68 5 0 0 0 - - - 0;
#X obj 569 90 / 100;
#X obj 569 113 sig~;
#X obj 451 16 osc~ 220;
#X obj 451 162 pp.xfade-st~;
#A saved empty_slot \; empty_slot \; empty_slot \; empty_slot \; empty_slot \; empty_slot \; empty_slot \; empty_slot \; empty_slot \; empty_slot \; empty_slot \; empty_slot \; empty_slot \; empty_slot \; empty_slot \; empty_slot \; empty_slot \; empty_slot \; empty_slot \; empty_slot \; empty_slot \;;
#X text 104 125 1:(~)signal 1 left;
#X text 104 139 2:(~)signal 1 right;
#X text 104 183 5:(~)mix (-1 \, 1);
#X text 104 154 3:(~)signal 2 left;
#X text 104 168 4:(~)signal 2 right;
#X text 104 198 6:control-message;
#X text 103 223 1:(~)mixed signal left;
#X text 103 239 2:(~)mixed signal right;
#X text 103 254 3:message;
#X text 30 70 Creation arguments: \$1: mix (-1 \, 1) \, default 0;
#X text 149 88 \$2: power function (lin \, sqrt) \, default lin;
#X text 23 39 crossfade between 2 stereo signals;
#X connect 7 0 13 5;
#X connect 8 0 13 2;
#X connect 8 0 13 3;
#X connect 9 0 10 0;
#X connect 10 0 11 0;
#X connect 11 0 13 4;
#X connect 12 0 13 0;
#X connect 12 0 13 1;
#X connect 13 0 0 0;
#X connect 13 1 0 1;
#X connect 13 2 5 0;
