#N canvas 554 138 993 538 10;
#X obj 103 115 hsl 105 15 -1 1 0 0 \$0-gui \$0-guir Mix 3 8 2 10 #e0e0e0 #000000 #000000 0 1;
#X obj 251 115 hsl 2 8 0 1 0 0 \$0-gui \$0-guir empty 3 8 2 10 #e0e0e0 #dcdcdc #000000 0 1;
#X obj 210 115 nbx 5 15 -1 1 0 0 \$0-mix \$0-mixr empty 0 -8 2 10 #dcdcdc #000000 #000000 0 256;
#X msg 164 157 set \$1;
#X obj 673 417 outlet;
#X obj 680 58 inlet;
#N canvas 165 118 567 472 outlet-message 0;
#X obj 215 336 list trim;
#X msg 152 314 addcomma;
#X msg 83 290 set;
#X obj 215 313 list prepend add2;
#X obj 215 421 outlet;
#X obj 170 185 t b a b;
#X obj 196 255 t b a a;
#N canvas 497 319 297 264 save 0;
#X obj 48 16 inlet;
#N canvas 690 259 481 384 collect 0;
#X obj 47 60 inlet;
#X obj 47 274 outlet;
#X obj 98 180 list;
#X obj 166 181 t l;
#X obj 47 225 list;
#X obj 98 139 list append |;
#X obj 47 126 del 0;
#X obj 47 82 t b a;
#X text 119 75 hacky thing... replaycing " \, " with "|";
#X connect 0 0 7 0;
#X connect 2 0 3 0;
#X connect 2 0 4 1;
#X connect 3 0 2 1;
#X connect 4 0 1 0;
#X connect 5 0 2 0;
#X connect 6 0 2 1;
#X connect 6 0 4 0;
#X connect 7 0 6 0;
#X connect 7 1 5 0;
#X restore 48 38 pd collect;
#X obj 117 16 r \$0-save;
#X obj 27 130 text set \$0-savestates;
#X obj 27 104 list;
#X obj 117 62 t b f;
#X obj 117 39 clip 0 20;
#X connect 0 0 1 0;
#X connect 1 0 4 1;
#X connect 2 0 6 0;
#X connect 4 0 3 0;
#X connect 5 0 4 0;
#X connect 5 1 3 1;
#X connect 6 0 5 0;
#X restore 235 279 pd save;
#X obj 170 110 clip -1 1;
#X obj 170 87 r \$0-mix;
#X obj 247 56 sel 0 1;
#X obj 170 158 pack 0 s;
#X msg 277 81 sqrt;
#X obj 247 105 symbol;
#X obj 247 128 t b s;
#X msg 196 230 mix \$1 \, \$2;
#X obj 247 33 r \$0-func;
#X msg 247 81 lin;
#X connect 0 0 4 0;
#X connect 1 0 4 0;
#X connect 2 0 4 0;
#X connect 3 0 0 0;
#X connect 5 0 4 0;
#X connect 5 1 15 0;
#X connect 5 2 2 0;
#X connect 6 0 1 0;
#X connect 6 1 3 0;
#X connect 6 2 7 0;
#X connect 8 0 11 0;
#X connect 9 0 8 0;
#X connect 10 0 17 0;
#X connect 10 1 12 0;
#X connect 11 0 5 0;
#X connect 12 0 13 0;
#X connect 13 0 14 0;
#X connect 14 0 11 0;
#X connect 14 1 11 1;
#X connect 15 0 6 0;
#X connect 16 0 10 0;
#X connect 17 0 13 0;
#X restore 673 367 pd outlet-message;
#N canvas 612 379 469 417 in 0;
#X obj 30 14 inlet;
#N canvas 698 516 200 251 route 0;
#X obj 20 20 inlet;
#X obj 30 60 route save recall;
#X obj 30 85 route float;
#X obj 97 111 route float;
#X obj 30 136 s \$0-save;
#X obj 30 108 i;
#X obj 98 133 i;
#X obj 98 161 s \$0-recall;
#X connect 0 0 1 0;
#X connect 1 0 2 0;
#X connect 1 1 3 0;
#X connect 2 0 5 0;
#X connect 3 0 6 0;
#X connect 5 0 4 0;
#X connect 6 0 7 0;
#X restore 47 53 pd route save-recall;
#N canvas 362 125 450 479 recall 0;
#X obj 49 145 outlet;
#N canvas 3 54 450 600 listsplit 0;
#X obj 158 23 inlet;
#X obj 220 87 list length;
#X obj 220 113 until;
#X obj 182 150 f;
#X obj 278 150 + 1;
#X msg 265 111 0;
#X obj 182 226 list store;
#X msg 182 202 get \$1 1;
#X obj 154 367 list split;
#X obj 222 342 f;
#X obj 154 334 list;
#X obj 98 124 list;
#X obj 182 389 list split 1;
#X obj 154 274 t bang bang bang;
#X obj 182 179 t f f;
#X obj 158 48 t l l l b;
#X obj 154 473 outlet;
#X obj 154 440 list trim;
#X obj 163 248 sel |;
#X text 275 197 hacky split list at "|";
#X connect 0 0 15 0;
#X connect 1 0 2 0;
#X connect 2 0 3 0;
#X connect 3 0 4 0;
#X connect 3 0 14 0;
#X connect 4 0 3 1;
#X connect 5 0 3 1;
#X connect 6 0 18 0;
#X connect 7 0 6 0;
#X connect 8 0 17 0;
#X connect 8 1 12 0;
#X connect 9 0 8 1;
#X connect 10 0 8 0;
#X connect 11 0 15 0;
#X connect 12 1 11 0;
#X connect 13 0 10 0;
#X connect 13 1 9 0;
#X connect 13 2 2 1;
#X connect 14 0 7 0;
#X connect 14 1 9 1;
#X connect 15 0 1 0;
#X connect 15 1 10 1;
#X connect 15 2 6 1;
#X connect 15 3 5 0;
#X connect 17 0 16 0;
#X connect 18 0 13 0;
#X restore 49 117 pd listsplit;
#X obj 49 24 r \$0-recall;
#X obj 49 54 pipe 1;
#X obj 221 409 text fromlist \$0-savestates;
#X obj 49 77 text get \$0-savestates;
#X msg 253 246 21;
#X obj 253 269 until;
#X obj 253 292 f;
#X obj 300 295 + 1;
#X obj 253 315 t b f;
#X obj 253 367 text set \$0-savestates;
#X obj 221 114 text tolist \$0-savestates;
#X msg 253 342 list empty_slot;
#X obj 221 160 t a b;
#X obj 151 166 loadbang;
#X obj 221 137 savestate;
#X obj 221 33 text define \$0-savestates;
#X obj 151 189 del 0;
#X msg 298 199 0;
#X obj 253 220 spigot 1;
#X connect 1 0 0 0;
#X connect 2 0 3 0;
#X connect 3 0 5 0;
#X connect 5 0 1 0;
#X connect 6 0 7 0;
#X connect 7 0 8 0;
#X connect 8 0 9 0;
#X connect 8 0 10 0;
#X connect 9 0 8 1;
#X connect 10 0 13 0;
#X connect 10 1 11 1;
#X connect 12 0 16 0;
#X connect 13 0 11 0;
#X connect 14 0 4 0;
#X connect 14 1 19 0;
#X connect 15 0 18 0;
#X connect 16 0 14 0;
#X connect 16 1 12 0;
#X connect 18 0 20 0;
#X connect 19 0 20 1;
#X connect 20 0 6 0;
#X restore 48 79 pd recall;
#X obj 30 356 s \$0-mixr;
#X obj 30 233 route mix lin sqrt;
#X obj 65 257 t b;
#X msg 65 280 0;
#X msg 100 281 1;
#X obj 100 258 t b;
#X obj 65 308 s \$0-func;
#X obj 224 50 loadbang;
#X obj 276 220 s \$0-mixr;
#X msg 224 108 args;
#X obj 307 156 t l;
#X obj 224 155 list split 1;
#X obj 224 184 route symbol float;
#X obj 224 131 pdcontrol, f 10;
#X obj 224 80 t b b;
#X msg 353 115 0;
#X msg 119 207 \$1;
#X text 146 210 trim symbol;
#X obj 143 305 print pp.xfade~;
#X obj 143 256 list prepend no method for;
#X obj 143 279 list trim;
#X connect 0 0 1 0;
#X connect 0 0 4 0;
#X connect 2 0 4 0;
#X connect 4 0 3 0;
#X connect 4 1 5 0;
#X connect 4 2 8 0;
#X connect 4 3 22 0;
#X connect 5 0 6 0;
#X connect 6 0 9 0;
#X connect 7 0 9 0;
#X connect 8 0 7 0;
#X connect 10 0 17 0;
#X connect 12 0 16 0;
#X connect 13 0 14 0;
#X connect 14 0 15 0;
#X connect 14 1 13 0;
#X connect 15 0 19 0;
#X connect 15 1 11 0;
#X connect 16 0 14 0;
#X connect 17 0 12 0;
#X connect 17 1 18 0;
#X connect 18 0 11 0;
#X connect 19 0 4 0;
#X connect 22 0 23 0;
#X connect 23 0 21 0;
#X restore 680 83 pd in;
#X obj 390 74 inlet~;
#X obj 495 223 line~;
#X obj 480 246 +~;
#X obj 341 73 inlet~;
#X obj 479 75 inlet~;
#X obj 340 366 outlet~;
#X text 771 473 ps 24;
#X obj 495 149 r \$0-mix;
#X msg 495 196 \$1 20;
#X obj 480 269 clip~ 0 1;
#X obj 479 98 +~ 1;
#X obj 479 121 *~ 0.5;
#X obj 495 173 * 0.5;
#N canvas 286 330 453 355 lin 0;
#X obj 184 218 *~;
#X obj 183 182 -~;
#X obj 134 250 +~;
#X obj 184 32 inlet~;
#X obj 135 31 inlet~;
#X obj 134 288 outlet~;
#X obj 263 41 inlet~;
#X obj 365 85 switch~ 1;
#X obj 365 32 r \$0-func;
#X obj 365 58 == 0;
#X connect 0 0 2 1;
#X connect 1 0 0 0;
#X connect 2 0 5 0;
#X connect 3 0 1 0;
#X connect 4 0 2 0;
#X connect 4 0 1 1;
#X connect 6 0 0 1;
#X connect 8 0 9 0;
#X connect 9 0 7 0;
#X restore 341 308 pd lin;
#N canvas 213 517 450 300 sqrt 0;
#X obj 93 31 inlet~;
#X obj 180 32 inlet~;
#X obj 252 30 inlet~;
#X obj 93 157 *~;
#X obj 108 78 sig~ 1;
#X obj 108 101 -~;
#X obj 108 124 sqrt~;
#X obj 252 118 sqrt~;
#X obj 180 157 *~;
#X obj 92 242 outlet~;
#X obj 363 72 switch~ 0;
#X obj 363 21 r \$0-func;
#X obj 363 47 == 1;
#X connect 0 0 3 0;
#X connect 1 0 8 0;
#X connect 2 0 7 0;
#X connect 2 0 5 1;
#X connect 3 0 9 0;
#X connect 4 0 5 0;
#X connect 5 0 6 0;
#X connect 6 0 3 1;
#X connect 7 0 8 1;
#X connect 8 0 9 0;
#X connect 11 0 12 0;
#X connect 12 0 10 0;
#X restore 394 309 pd sqrt;
#X connect 0 0 2 0;
#X connect 2 0 3 0;
#X connect 3 0 0 0;
#X connect 5 0 7 0;
#X connect 6 0 4 0;
#X connect 8 0 21 1;
#X connect 8 0 22 1;
#X connect 9 0 10 1;
#X connect 10 0 17 0;
#X connect 11 0 21 0;
#X connect 11 0 22 0;
#X connect 12 0 18 0;
#X connect 15 0 20 0;
#X connect 16 0 9 0;
#X connect 17 0 21 2;
#X connect 17 0 22 2;
#X connect 18 0 19 0;
#X connect 19 0 10 0;
#X connect 20 0 16 0;
#X connect 21 0 13 0;
#X connect 22 0 13 0;
#X coords 0 -1 1 1 155 33 1 100 100;
