#N canvas 106 138 1026 558 10;
#N struct \$0-jump-template float x float y;
#N struct \$0-pad-template float x float y float c;
#X obj 2 2 cnv 15 520 550 empty empty empty 20 12 0 14 #e0e0e0 #404040 0;
#X obj 12 23 cnv 15 10 10 empty empty pp.xypad 0 0 2 16 #e0e0e0 #fcfcfc 0;
#X obj 696 414 cnv 15 100 17 empty empty empty 20 12 0 14 #fc8000 #404040 0;
#X text 20 371 Inlets:;
#X text 20 432 Outlets:;
#X msg 616 267 read \$1;
#X floatatom 559 519 5 0 0 0 - - - 0;
#X floatatom 633 520 5 0 0 0 - - - 0;
#X text 670 519 y;
#X floatatom 616 246 5 0 1 0 - - - 0;
#X obj 707 519 bng 18 250 50 0 empty empty empty 0 -9 0 10 #fcfcfc #000000 #000000;
#X obj 619 219 hsl 153 18 0 1 0 0 empty empty empty -2 -9 0 10 #fcfcfc #000000 #000000 0 1;
#X text 655 244 read recorded moves;
#X text 156 199 stop recording: release mouse + click;
#X text 77 432 1: (float) x;
#X text 77 451 2: (float) y;
#X text 156 182 start recording: double click + hold;
#X obj 559 66 tgl 18 0 empty empty empty 0 -9 0 10 #fcfcfc #000000 #000000 0 1;
#X msg 559 89 rec \$1;
#X obj 559 19 key;
#X obj 559 42 sel 9;
#X obj 589 126 tgl 18 0 empty empty empty 0 -9 0 10 #fcfcfc #000000 #000000 0 1;
#X text 76 371 1: control-messages;
#X text 593 520 x, f 3;
#X text 728 520 bang when playback is finished;
#X text 77 473 3: bang when playback is finished;
#X text 21 99 Creation arguments:;
#X text 131 235 \$2: (0/1) set output range;
#X text 131 125 \$1:;
#X text 157 162 when double click recording is enabled:;
#X text 44 52 xy controller with a recording function;
#X msg 589 149 play \$1;
#N canvas 897 98 593 527 more 0;
#X obj 44 473 outlet;
#X obj 114 438 cnv 16 87 16 empty empty empty 20 12 0 14 #fc8000 #404040 0;
#N canvas 864 246 634 307 save&recall 0;
#X obj 93 233 outlet;
#X msg 93 60 0;
#X msg 125 60 1;
#X msg 158 60 2;
#X msg 93 99 save \$1;
#X text 185 63 ...;
#X msg 207 60 20;
#X msg 149 154 0;
#X msg 181 154 1;
#X msg 214 154 2;
#X text 241 157 ...;
#X msg 263 154 20;
#X msg 149 193 recall \$1;
#X text 249 93 save & recall up to 20 presets \, presets will be saved with the parrent patch;
#X connect 1 0 4 0;
#X connect 2 0 4 0;
#X connect 3 0 4 0;
#X connect 4 0 0 0;
#X connect 6 0 4 0;
#X connect 7 0 12 0;
#X connect 8 0 12 0;
#X connect 9 0 12 0;
#X connect 11 0 12 0;
#X connect 12 0 0 0;
#X restore 114 437 pd save&recall;
#X msg 44 94 0 0;
#X text 76 94 set pointer position x \, y (no output);
#X obj 78 131 tgl 18 0 empty empty empty 0 -9 0 10 #fcfcfc #000000 #000000 0 1;
#X msg 78 155 mouserec \$1;
#X msg 124 215 range \$1;
#X obj 124 190 tgl 18 0 empty empty empty 0 -9 0 10 #fcfcfc #000000 #000000 0 1;
#X text 184 214 set output range 0:(-1 \, 1) 1:(0 \, 1);
#X text 157 153 enable double click to start recording;
#X connect 2 0 0 0;
#X connect 3 0 0 0;
#X connect 5 0 6 0;
#X connect 6 0 0 0;
#X connect 7 0 0 0;
#X connect 8 0 7 0;
#X restore 696 414 pd more messages;
#X text 615 88 start/stop recording.;
#X text 604 42 assign the [Tab] key to switch recording;
#X text 645 148 start/pause playback;
#X text 714 296 save records;
#X text 751 367 load records;
#X msg 606 180 stop;
#X obj 559 455 pp.xypad;
#A saved savex;
#A saved savey;
#X text 725 470 <-- click to open GUI;
#X text 157 300 you can move the pointer outside the GUI canvas to get output values outside the range;
#X text 156 125 (0/1) enable start recording with double click on the pad \, default 0 (off);
#X text 156 255 0 (default): output range -1 \, 1 point (0 \, 0) in the center;
#X text 156 274 1: output range 0 \, 1 point (0 \, 0) in the bottom left corner;
#X text 644 180 stop playback \, next playback will start from the beginning;
#X msg 655 295 save 0;
#X msg 671 318 save 1;
#X msg 675 353 recall 0;
#X msg 691 376 recall 1;
#X connect 5 0 39 0;
#X connect 9 0 5 0;
#X connect 11 0 9 0;
#X connect 17 0 18 0;
#X connect 18 0 39 0;
#X connect 19 0 20 0;
#X connect 20 0 17 0;
#X connect 21 0 31 0;
#X connect 31 0 39 0;
#X connect 32 0 39 0;
#X connect 38 0 39 0;
#X connect 39 0 6 0;
#X connect 39 1 7 0;
#X connect 39 2 10 0;
#X connect 46 0 39 0;
#X connect 47 0 39 0;
#X connect 48 0 39 0;
#X connect 49 0 39 0;
