#N canvas 240 283 746 316 10;
#X obj 443 248 pp.out~;
#A saved;
#X obj 1 2 cnv 15 420 300 empty empty empty 20 12 0 14 #e0e0e0 #404040 0;
#X text 46 126 Inlets:;
#X text 45 201 Outlets:;
#X obj 12 20 cnv 15 10 10 empty empty pp.xfade~ 0 0 2 16 #e0e0e0 #fcfcfc 0;
#N canvas 997 287 503 292 message-out 0;
#X obj 30 33 inlet;
#X msg 30 60 mix 0 \, lin \,;
#X connect 0 0 1 0;
#X restore 592 196 pd message-out;
#X obj 592 126 cnv 15 118 17 empty empty empty 20 12 0 14 #fc8000 #404040 0;
#N canvas 1023 138 330 209 control-messages 0;
#X obj 54 180 outlet;
#X obj 101 147 cnv 16 87 16 empty empty empty 20 12 0 14 #fc8000 #404040 0;
#N canvas 864 246 634 307 save&recall 0;
#X obj 93 233 outlet;
#X msg 93 60 0;
#X msg 125 60 1;
#X msg 158 60 2;
#X msg 93 99 save \$1;
#X text 185 63 ...;
#X msg 207 60 20;
#X msg 149 154 0;
#X msg 181 154 1;
#X msg 214 154 2;
#X text 241 157 ...;
#X msg 263 154 20;
#X msg 149 193 recall \$1;
#X text 249 93 save & recall up to 20 presets \, presets will be saved with the parrent patch;
#X connect 1 0 4 0;
#X connect 2 0 4 0;
#X connect 3 0 4 0;
#X connect 4 0 0 0;
#X connect 6 0 4 0;
#X connect 7 0 12 0;
#X connect 8 0 12 0;
#X connect 9 0 12 0;
#X connect 11 0 12 0;
#X connect 12 0 0 0;
#X restore 101 146 pd save&recall;
#X floatatom 54 25 5 0 0 0 - - - 0;
#X msg 54 47 mix \$1;
#X text 94 23 -1 sig 1 \, 1 sig 2;
#X msg 85 80 lin;
#X text 114 79 linear crossfade;
#X msg 100 108 sqrt;
#X text 132 108 equal power crossfade;
#X connect 2 0 0 0;
#X connect 3 0 4 0;
#X connect 4 0 0 0;
#X connect 6 0 0 0;
#X connect 8 0 0 0;
#X restore 592 126 pd control-messages;
#X obj 492 41 osc~ 440;
#X floatatom 543 77 5 0 0 0 - - - 0;
#X obj 543 99 / 100;
#X obj 543 122 sig~;
#X text 104 125 1:(~)signal 1;
#X text 104 139 2:(~)signal 2;
#X text 104 152 3:(~)mix (-1 \, 1);
#X text 104 166 4:control-message;
#X text 103 217 2:message;
#X text 103 201 1:(~)mixed signal;
#X obj 444 13 osc~ 220;
#X obj 444 150 pp.xfade~;
#A saved empty_slot \; empty_slot \; empty_slot \; empty_slot \; empty_slot \; empty_slot \; empty_slot \; empty_slot \; empty_slot \; empty_slot \; empty_slot \; empty_slot \; empty_slot \; empty_slot \; empty_slot \; empty_slot \; empty_slot \; empty_slot \; empty_slot \; empty_slot \; empty_slot \;;
#X text 31 40 crossfade between 2 signals;
#X text 30 70 Creation arguments: \$1: mix (-1 \, 1) \, default 0;
#X text 149 87 \$2: power function (lin \, sqrt) \, default lin;
#X connect 7 0 19 3;
#X connect 8 0 19 1;
#X connect 9 0 10 0;
#X connect 10 0 11 0;
#X connect 11 0 19 2;
#X connect 18 0 19 0;
#X connect 19 0 0 0;
#X connect 19 0 0 1;
#X connect 19 1 5 0;
