#N struct 1018-playhead-template float x float y;
#N struct 1018-control-array float x float y float x1 float y1 float
x2 float y2 array c-array 1018-control-template;
#N struct 1018-control-template float x float y;
#N struct 1018-bezier-array float x float y float x1 float y1 float
x2 float y2 array b-array 1018-bezier-template;
#N struct 1018-bezier-template float x float y;
#N canvas 234 87 761 622 10;
#N canvas 68 551 455 147 \$0-control-template 0;
#X obj 24 44 filledpolygon 0 0 0 -5 0 0 5 5 0 0 -5;
#X obj 24 15 struct \$0-control-template float x float y;
#X restore 473 227 pd \$0-control-template;
#N canvas 798 583 567 184 \$0-control-array 0;
#X obj 17 20 struct \$0-control-array float x float y float x1 float
y1 float x2 float y2 array c-array \$0-control-template;
#X obj 15 67 plot c-array 444 0 0 0 1;
#X restore 473 205 pd \$0-control-array;
#N canvas 119 242 455 147 \$0-bezier-template 0;
#X obj 24 15 struct \$0-bezier-template float x float y;
#X restore 473 272 pd \$0-bezier-template;
#N canvas 186 396 567 184 \$0-bezier-array 0;
#X obj 17 20 struct \$0-bezier-array float x float y float x1 float
y1 float x2 float y2 array b-array \$0-bezier-template;
#X obj 15 67 plot b-array 900 1 0 0 1;
#X restore 473 249 pd \$0-bezier-array;
#N canvas 217 67 732 661 read 0;
#X obj 168 489 get \$0-control-template x y;
#X obj 357 444 r \$0-control-array-pointer;
#X obj 168 469 element \$0-control-array c-array;
#X obj 168 386 until;
#X obj 168 415 f;
#X obj 199 419 + 1;
#X obj 168 348 t f f;
#X obj 327 540 *;
#X obj 327 575 +;
#X obj 367 579 f;
#X obj 327 609 f;
#X msg 231 201 0;
#X obj 230 348 - 1;
#X obj 168 297 getsize \$0-control-array c-array;
#X obj 207 253 r \$0-control-array-pointer;
#X obj 168 273 pointer;
#X obj 168 552 *;
#X obj 168 587 +;
#X obj 208 591 f;
#X obj 139 614 f;
#X obj 139 185 t b b b f b;
#X obj 168 442 t float float;
#X obj 168 321 min 14;
#X obj 230 373 v nr\$0;
#X obj 186 221 v tr\$0;
#X obj 342 498 expr fact(nr\$0)/(fact($f1)*fact(nr\$0-$f1))*pow(tr\$0
\, $f1)*pow(1- tr\$0 \, nr\$0-$f1);
#X obj 195 564 r \$0-setzeror;
#X obj 354 556 r \$0-setzeror;
#X obj 231 223 s \$0-setzeror;
#X obj 245 671 set \$0-playhead-template x y;
#X obj 410 647 r \$0-playhead-template-pointer;
#X obj 225 397 r \$0-setzeror;
#X obj 164 164 / 2;
#X obj 164 139 +;
#X obj 164 94 t f f;
#X obj 139 8 inlet;
#X obj 191 116 * 99;
#X obj 139 711 outlet;
#X obj 242 713 outlet;
#N canvas 534 205 584 442 interpolate 0;
#X obj 157 66 inlet;
#X obj 157 324 outlet;
#X obj 157 116 expr imodf($f1) \; modf($f1);
#X obj 220 189 + 1;
#X obj 157 164 t f f;
#X obj 157 288 expr $f1+$f3*($f2-$f1);
#X obj 220 212 tabread \$0-distances;
#X obj 157 248 tabread \$0-distances;
#X connect 0 0 2 0;
#X connect 2 0 4 0;
#X connect 2 1 5 2;
#X connect 3 0 6 0;
#X connect 4 0 7 0;
#X connect 4 1 3 0;
#X connect 5 0 1 0;
#X connect 6 0 5 1;
#X connect 7 0 5 0;
#X restore 191 139 pd interpolate distances;
#X obj 139 29 list prepend 0;
#X obj 139 50 list trim;
#X obj 139 71 route 0 1;
#X obj 220 8 r \$0-speedcompensation;
#X connect 0 0 16 0;
#X connect 0 1 7 0;
#X connect 1 0 2 1;
#X connect 2 0 0 0;
#X connect 3 0 4 0;
#X connect 4 0 5 0;
#X connect 4 0 21 0;
#X connect 5 0 4 1;
#X connect 6 0 3 0;
#X connect 6 1 12 0;
#X connect 7 0 8 0;
#X connect 8 0 9 0;
#X connect 9 0 8 1;
#X connect 9 0 10 1;
#X connect 10 0 38 0;
#X connect 10 0 29 1;
#X connect 11 0 28 0;
#X connect 12 0 23 0;
#X connect 13 0 22 0;
#X connect 14 0 15 1;
#X connect 15 0 13 0;
#X connect 16 0 17 0;
#X connect 17 0 18 0;
#X connect 18 0 17 1;
#X connect 18 0 19 1;
#X connect 19 0 37 0;
#X connect 19 0 29 0;
#X connect 20 0 19 0;
#X connect 20 1 10 0;
#X connect 20 2 15 0;
#X connect 20 3 24 0;
#X connect 20 4 11 0;
#X connect 21 0 2 0;
#X connect 21 1 25 0;
#X connect 22 0 6 0;
#X connect 25 0 7 1;
#X connect 25 0 16 1;
#X connect 26 0 17 1;
#X connect 27 0 8 1;
#X connect 30 0 29 2;
#X connect 31 0 4 1;
#X connect 32 0 20 0;
#X connect 33 0 32 0;
#X connect 34 0 33 0;
#X connect 34 1 36 0;
#X connect 35 0 40 0;
#X connect 36 0 39 0;
#X connect 39 0 33 1;
#X connect 40 0 41 0;
#X connect 41 0 42 0;
#X connect 42 0 20 0;
#X connect 42 1 34 0;
#X connect 43 0 40 1;
#X restore 114 383 pd read;
#X f 14;
#N canvas 134 57 944 710 draw 0;
#X obj 374 518 get \$0-control-template x y;
#X obj 563 477 r \$0-control-array-pointer;
#X obj 374 498 element \$0-control-array c-array;
#X obj 615 717 element \$0-bezier-array b-array;
#X obj 345 753 set \$0-bezier-template x y, f 45;
#X obj 374 413 until;
#X obj 374 442 f;
#X obj 405 446 + 1;
#X obj 374 375 t f f;
#X obj 533 612 *;
#X obj 533 647 +;
#X obj 564 652 f;
#X obj 533 681 f;
#X msg 437 218 0;
#X obj 436 375 - 1;
#X obj 374 324 getsize \$0-control-array c-array;
#X obj 413 274 r \$0-control-array-pointer;
#X obj 374 300 pointer;
#X obj 654 696 r \$0-bezier-array-pointer;
#X obj 374 624 *;
#X obj 374 659 +;
#X obj 405 662 f;
#X obj 345 686 f;
#X obj 345 200 t b b b f b;
#X obj 374 469 t float float;
#X obj 321 14 tgl 15 0 empty empty empty 17 7 0 10 -262144 -1 -1 0
1;
#X floatatom 387 37 5 0 0 0 - - -;
#X obj 345 177 / 100;
#X obj 392 240 v td\$0;
#X obj 437 240 s \$0-setzerod;
#X obj 431 424 r \$0-setzerod;
#X obj 560 628 r \$0-setzerod;
#X obj 401 636 r \$0-setzerod;
#X obj 436 400 v nd\$0;
#X obj 548 570 expr fact(nd\$0)/(fact($f1)*fact(nd\$0-$f1))*pow(td\$0
\, $f1)*pow(1- td\$0 \, nd\$0-$f1);
#X obj 321 37 metro 200;
#N canvas 1 57 450 300 count 0;
#X obj 93 34 inlet;
#X obj 93 57 t b b;
#X obj 93 101 until;
#X obj 93 124 f;
#X obj 121 125 + 1;
#X obj 93 147 outlet;
#X msg 137 99 0;
#X msg 93 78 101;
#X connect 0 0 1 0;
#X connect 1 0 7 0;
#X connect 1 1 6 0;
#X connect 2 0 3 0;
#X connect 3 0 4 0;
#X connect 3 0 5 0;
#X connect 4 0 3 1;
#X connect 6 0 3 1;
#X connect 7 0 2 0;
#X restore 342 124 pd count 0 100;
#X obj 227 60 r \$0-drawbez;
#X obj 342 149 t bang float float float, f 46;
#N canvas 706 178 525 488 distance 0;
#X obj 82 48 inlet;
#X obj 221 50 inlet;
#X obj 406 54 inlet;
#X obj 112 310 f;
#X obj 80 310 +;
#X obj 37 367 f;
#X obj 80 220 expr sqrt(pow($f3 - $f1 \, 2)+ pow($f4 - $f2 \, 2));
#X obj 82 92 t f b f;
#X obj 82 117 f;
#X obj 221 96 t f b f;
#X obj 221 123 f;
#X msg 479 174 0;
#X obj 80 192 spigot;
#X msg 113 169 1;
#X obj 82 141 t b f;
#X text 126 64 x;
#X text 267 60 y;
#X obj 479 54 inlet;
#X obj 312 355 f;
#X obj 281 354 +;
#X obj 281 288 swap 1;
#X obj 281 311 /;
#X obj 80 246 t f f;
#X obj 404 132 spigot;
#X msg 437 109 1;
#X obj 406 81 t b f;
#X obj 404 155 - 1;
#X obj 281 386 tabwrite \$0-distances;
#X obj 36 48 inlet;
#X obj 37 390 s \$0-bezier-length;
#X connect 0 0 7 0;
#X connect 1 0 9 0;
#X connect 2 0 25 0;
#X connect 3 0 4 1;
#X connect 4 0 3 0;
#X connect 4 0 5 1;
#X connect 5 0 29 0;
#X connect 6 0 22 0;
#X connect 7 0 8 1;
#X connect 7 1 8 0;
#X connect 7 2 6 2;
#X connect 8 0 14 0;
#X connect 9 0 10 1;
#X connect 9 1 10 0;
#X connect 9 2 6 3;
#X connect 10 0 6 1;
#X connect 11 0 4 1;
#X connect 11 0 12 1;
#X connect 11 0 19 1;
#X connect 11 0 23 1;
#X connect 12 0 6 0;
#X connect 13 0 12 1;
#X connect 14 0 13 0;
#X connect 14 1 12 0;
#X connect 17 0 11 0;
#X connect 18 0 19 1;
#X connect 19 0 18 0;
#X connect 19 0 27 0;
#X connect 20 0 21 0;
#X connect 20 1 21 1;
#X connect 21 0 19 0;
#X connect 22 0 4 0;
#X connect 22 1 20 0;
#X connect 23 0 26 0;
#X connect 24 0 23 1;
#X connect 25 0 24 0;
#X connect 25 1 23 0;
#X connect 26 0 27 1;
#X connect 28 0 5 0;
#X restore 227 723 pd distance;
#X f 45;
#X msg 134 123 normalize 1;
#X obj 134 145 s \$0-distances;
#X obj 227 88 t bang bang bang, f 59;
#X obj 49 169 array define \$0-distances 99;
#X obj 340 12 r \$0-draw-cont;
#X obj 321 60 s \$0-drawbez;
#X obj 208 60 bng 15 250 50 0 empty empty empty 17 7 0 10 -262144 -1
-1;
#X connect 0 0 19 0;
#X connect 0 1 9 0;
#X connect 1 0 2 1;
#X connect 2 0 0 0;
#X connect 3 0 4 2;
#X connect 5 0 6 0;
#X connect 6 0 7 0;
#X connect 6 0 24 0;
#X connect 7 0 6 1;
#X connect 8 0 5 0;
#X connect 8 1 14 0;
#X connect 9 0 10 0;
#X connect 10 0 11 0;
#X connect 11 0 10 1;
#X connect 11 0 12 1;
#X connect 12 0 4 1;
#X connect 12 0 39 2;
#X connect 13 0 29 0;
#X connect 14 0 33 0;
#X connect 15 0 8 0;
#X connect 16 0 17 1;
#X connect 17 0 15 0;
#X connect 18 0 3 1;
#X connect 19 0 20 0;
#X connect 20 0 21 0;
#X connect 21 0 20 1;
#X connect 21 0 22 1;
#X connect 22 0 4 0;
#X connect 22 0 39 1;
#X connect 23 0 22 0;
#X connect 23 1 12 0;
#X connect 23 2 17 0;
#X connect 23 3 28 0;
#X connect 23 4 13 0;
#X connect 24 0 2 0;
#X connect 24 1 34 0;
#X connect 25 0 35 0;
#X connect 26 0 35 1;
#X connect 27 0 23 0;
#X connect 30 0 6 1;
#X connect 31 0 10 1;
#X connect 32 0 20 1;
#X connect 34 0 9 1;
#X connect 34 0 19 1;
#X connect 35 0 45 0;
#X connect 36 0 38 0;
#X connect 37 0 42 0;
#X connect 38 1 27 0;
#X connect 38 2 39 3;
#X connect 38 3 3 0;
#X connect 40 0 41 0;
#X connect 42 0 40 0;
#X connect 42 0 39 0;
#X connect 42 1 36 0;
#X connect 42 2 39 4;
#X connect 44 0 35 0;
#X connect 46 0 42 0;
#X restore 473 410 pd draw bezier;
#N canvas 465 457 451 141 \$0-playhead-template 0;
#X obj 10 12 struct \$0-playhead-template float x float y;
#X obj 201 112 drawnumber y 0 -20 0 y:;
#X obj 11 112 drawnumber x 0 -10 0 x:;
#X obj 10 40 filledpolygon -x 900 444 0 -5 0 0 5 5 0 0 -5;
#X obj 11 69 loadbang;
#X msg 11 92 0;
#X connect 4 0 5 0;
#X connect 5 0 1 0;
#X connect 5 0 2 0;
#X restore 473 294 pd \$0-playhead-template;
#N canvas 66 188 571 485 set 0;
#X obj 44 281 set \$0-control-template x y;
#X obj 203 256 element \$0-control-array c-array;
#X obj 392 176 r \$0-control-array-pointer;
#X obj 226 207 setsize \$0-control-array c-array;
#X obj 44 211 unpack f f f;
#X obj 44 22 r \$0-pointslist;
#X obj 44 81 t l b b;
#X obj 83 102 del 0;
#X obj 63 151 f;
#X obj 98 152 + 1;
#X msg 83 125 1;
#X connect 1 0 0 2;
#X connect 2 0 3 1;
#X connect 2 0 1 1;
#X connect 4 0 0 0;
#X connect 4 1 0 1;
#X connect 4 2 1 0;
#X connect 5 0 6 0;
#X connect 6 0 4 0;
#X connect 6 1 8 0;
#X connect 6 2 7 0;
#X connect 7 0 10 0;
#X connect 8 0 9 0;
#X connect 8 0 3 0;
#X connect 9 0 8 1;
#X connect 10 0 8 1;
#X restore 473 367 pd set controlpoints;
#N canvas 654 293 450 417 randomize 0;
#X obj 116 125 until;
#X obj 116 186 t b b f;
#X obj 145 156 + 1;
#X obj 135 215 random 512;
#X obj 135 238 - 256;
#X obj 116 267 random 512;
#X obj 116 290 - 256;
#X obj 76 11 bng 15 250 50 0 empty empty empty 17 7 0 10 -262144 -1
-1;
#X msg 154 130 0;
#X obj 116 101 f;
#X obj 188 94 + 2;
#X obj 188 71 random 12;
#X obj 116 326 pack f f f;
#X obj 116 349 s \$0-pointslist;
#X obj 99 35 t b b b b;
#X obj 116 154 f;
#X obj 99 67 s \$0-drawbez;
#X obj 99 10 r \$0-randomize;
#X connect 0 0 15 0;
#X connect 1 0 5 0;
#X connect 1 1 3 0;
#X connect 1 2 12 2;
#X connect 2 0 15 1;
#X connect 3 0 4 0;
#X connect 4 0 12 1;
#X connect 5 0 6 0;
#X connect 6 0 12 0;
#X connect 7 0 14 0;
#X connect 8 0 15 1;
#X connect 9 0 0 0;
#X connect 10 0 9 1;
#X connect 11 0 10 0;
#X connect 12 0 13 0;
#X connect 14 0 16 0;
#X connect 14 1 9 0;
#X connect 14 2 8 0;
#X connect 14 3 11 0;
#X connect 15 0 2 0;
#X connect 15 0 1 0;
#X connect 17 0 14 0;
#X restore 473 389 pd randomize;
#N canvas 894 280 450 300 init 0;
#X obj 100 30 loadbang;
#X obj 100 99 f \$0;
#X obj 49 40 bng 15 250 50 0 empty empty empty 17 7 0 10 -262144 -1
-1;
#X obj 51 8 r \$0-reset;
#X msg 100 122 \; \$1-setup-pointers bang \;;
#X connect 0 0 1 0;
#X connect 1 0 4 0;
#X connect 2 0 1 0;
#X connect 3 0 1 0;
#X restore 473 153 pd init;
#N canvas 574 173 547 490 setup 0;
#X obj 107 41 bng 15 250 50 0 empty empty empty 17 7 0 10 -262144 -1
-1;
#X obj 131 64 symbol pd-\$0-graph;
#X obj 158 111 f \$0;
#X obj 131 87 t s b;
#X msg 319 234 traverse \$1 \, bang;
#X obj 319 282 pointer;
#X obj 148 329 append \$0-control-array x y;
#X obj 148 301 unpack;
#X msg 158 133 \; pd-\$1-graph clear;
#X obj 131 173 t b b b s;
#X obj 148 352 s \$0-control-array-pointer;
#X obj 166 409 unpack;
#X obj 166 437 append \$0-bezier-array x y;
#X obj 166 460 s \$0-bezier-array-pointer;
#X obj 320 600 r \$0-bezier-array-pointer;
#X obj 164 680 setsize \$0-bezier-array b-array;
#X obj 320 622 t b p;
#X msg 164 658 100;
#X obj 75 469 unpack;
#X obj 75 497 append \$0-playhead-template x y;
#X obj 75 520 s \$0-playhead-template-pointer;
#X obj 131 26 r \$0-setup-pointers;
#X msg 75 446 0 0;
#X msg 166 386 0 0;
#X msg 148 278 0 0;
#X connect 0 0 1 0;
#X connect 1 0 3 0;
#X connect 2 0 8 0;
#X connect 3 0 9 0;
#X connect 3 1 2 0;
#X connect 4 0 5 0;
#X connect 5 0 6 2;
#X connect 5 0 12 2;
#X connect 5 0 19 2;
#X connect 6 0 10 0;
#X connect 7 0 6 0;
#X connect 7 1 6 1;
#X connect 9 0 22 0;
#X connect 9 1 24 0;
#X connect 9 2 23 0;
#X connect 9 3 4 0;
#X connect 11 0 12 0;
#X connect 11 1 12 1;
#X connect 12 0 13 0;
#X connect 14 0 16 0;
#X connect 16 0 17 0;
#X connect 16 1 15 1;
#X connect 17 0 15 0;
#X connect 18 0 19 0;
#X connect 18 1 19 1;
#X connect 19 0 20 0;
#X connect 21 0 1 0;
#X connect 22 0 18 0;
#X connect 23 0 11 0;
#X connect 24 0 7 0;
#X restore 473 328 pd setup pointers;
#X obj 304 471 r \$0-bezier-length;
#X obj 472 44 inlet;
#N canvas 1 57 637 300 in 0;
#X obj 37 8 inlet;
#N canvas 362 125 450 479 recall 0;
#X obj 49 145 outlet;
#N canvas 3 54 450 600 listsplit 0;
#X obj 158 23 inlet;
#X obj 220 87 list length;
#X obj 220 113 until;
#X obj 182 150 f;
#X obj 278 150 + 1;
#X msg 265 111 0;
#X obj 182 226 list store;
#X msg 182 202 get \$1 1;
#X obj 154 367 list split;
#X obj 222 342 f;
#X obj 154 334 list;
#X obj 98 124 list;
#X obj 182 389 list split 1;
#X obj 154 274 t bang bang bang;
#X obj 182 179 t f f;
#X obj 158 48 t l l l b;
#X obj 154 473 outlet;
#X obj 154 440 list trim;
#X obj 163 248 sel |;
#X text 275 197 hacky split list at "|";
#X connect 0 0 15 0;
#X connect 1 0 2 0;
#X connect 2 0 3 0;
#X connect 3 0 4 0;
#X connect 3 0 14 0;
#X connect 4 0 3 1;
#X connect 5 0 3 1;
#X connect 6 0 18 0;
#X connect 7 0 6 0;
#X connect 8 0 17 0;
#X connect 8 1 12 0;
#X connect 9 0 8 1;
#X connect 10 0 8 0;
#X connect 11 0 15 0;
#X connect 12 1 11 0;
#X connect 13 0 10 0;
#X connect 13 1 9 0;
#X connect 13 2 2 1;
#X connect 14 0 7 0;
#X connect 14 1 9 1;
#X connect 15 0 1 0;
#X connect 15 1 10 1;
#X connect 15 2 6 1;
#X connect 15 3 5 0;
#X connect 17 0 16 0;
#X connect 18 0 13 0;
#X restore 49 117 pd listsplit;
#X obj 49 24 r \$0-recall;
#X obj 49 54 pipe 1;
#X obj 221 409 text fromlist \$0-savestates;
#X obj 49 77 text get \$0-savestates;
#X msg 253 246 21;
#X obj 253 269 until;
#X obj 253 292 f;
#X obj 300 295 + 1;
#X obj 253 315 t b f;
#X obj 253 367 text set \$0-savestates;
#X obj 221 114 text tolist \$0-savestates;
#X msg 253 342 list empty_slot;
#X obj 221 160 t a b;
#X obj 151 166 loadbang;
#X obj 221 137 savestate;
#X obj 221 33 text define \$0-savestates;
#X obj 151 189 del 0;
#X msg 298 199 0;
#X obj 253 220 spigot 1;
#X connect 1 0 0 0;
#X connect 2 0 3 0;
#X connect 3 0 5 0;
#X connect 5 0 1 0;
#X connect 6 0 7 0;
#X connect 7 0 8 0;
#X connect 8 0 9 0;
#X connect 8 0 10 0;
#X connect 9 0 8 1;
#X connect 10 0 13 0;
#X connect 10 1 11 1;
#X connect 12 0 16 0;
#X connect 13 0 11 0;
#X connect 14 0 4 0;
#X connect 14 1 19 0;
#X connect 15 0 18 0;
#X connect 16 0 14 0;
#X connect 16 1 12 0;
#X connect 18 0 20 0;
#X connect 19 0 20 1;
#X connect 20 0 6 0;
#X restore 195 22 pd recall;
#N canvas 627 449 200 251 route 0;
#X obj 20 20 inlet;
#X obj 30 60 route save recall;
#X obj 30 85 route float;
#X obj 97 111 route float;
#X obj 30 136 s \$0-save;
#X obj 30 108 i;
#X obj 98 133 i;
#X obj 98 161 s \$0-recall;
#X connect 0 0 1 0;
#X connect 1 0 2 0;
#X connect 1 1 3 0;
#X connect 2 0 5 0;
#X connect 3 0 6 0;
#X connect 5 0 4 0;
#X connect 6 0 7 0;
#X restore 389 186 pd route save-recall;
#X obj 121 232 s \$0-randomize;
#X obj 178 208 s \$0-reset;
#X obj 234 259 s \$0-speedcompensation;
#X obj 20 59 route recall;
#X obj 20 82 t b;
#X obj 37 31 t a a;
#X obj 292 207 s \$0-drawbez;
#X obj 20 105 del 100;
#N canvas 1 57 450 300 coordinates 0;
#X obj 93 30 inlet;
#X obj 93 53 unpack f f f, f 14;
#X obj 133 82 * 256;
#X obj 174 82 * 256;
#X obj 93 150 pack f f f, f 14;
#X obj 93 198 s \$0-pointslist;
#X msg 93 175 \$2 \$3 \$1;
#X obj 133 124 i;
#X obj 174 127 i;
#X obj 133 103 + 0.5;
#X obj 174 104 + 0.5;
#X connect 0 0 1 0;
#X connect 1 0 4 0;
#X connect 1 1 2 0;
#X connect 1 2 3 0;
#X connect 2 0 9 0;
#X connect 3 0 10 0;
#X connect 4 0 6 0;
#X connect 6 0 5 0;
#X connect 7 0 4 1;
#X connect 8 0 4 2;
#X connect 9 0 7 0;
#X connect 10 0 8 0;
#X restore 64 195 pd coordinates;
#X obj 64 154 route list randomize reset compensate-speed bang read
;
#X obj 326 184 s \$0-read;
#X connect 0 0 8 0;
#X connect 1 0 12 0;
#X connect 6 0 7 0;
#X connect 7 0 10 0;
#X connect 8 0 6 0;
#X connect 8 1 12 0;
#X connect 10 0 12 0;
#X connect 12 0 11 0;
#X connect 12 1 3 0;
#X connect 12 2 4 0;
#X connect 12 3 5 0;
#X connect 12 4 9 0;
#X connect 12 5 13 0;
#X connect 12 6 2 0;
#X restore 472 67 pd in;
#X obj 103 115 hsl 175 15 0 127 0 0 \$0-visbng \$0-visbngr empty 2
8 2 10 -233017 -233017 -1 0 1;
#N canvas 353 147 552 500 outlet-message 0;
#X obj 159 428 list trim;
#X msg 91 434 addcomma;
#X msg 274 448 set;
#X obj 159 405 list prepend add2;
#X obj 159 481 outlet;
#N canvas 497 433 297 264 save 0;
#X obj 48 16 inlet;
#N canvas 690 259 481 384 collect 0;
#X obj 47 60 inlet;
#X obj 47 274 outlet;
#X obj 98 180 list;
#X obj 166 181 t l;
#X obj 47 225 list;
#X obj 98 139 list append |;
#X obj 47 126 del 0;
#X obj 47 82 t b a;
#X text 119 75 hacky thing... replaycing " \, " with "|";
#X connect 0 0 7 0;
#X connect 2 0 3 0;
#X connect 2 0 4 1;
#X connect 3 0 2 1;
#X connect 4 0 1 0;
#X connect 5 0 2 0;
#X connect 6 0 2 1;
#X connect 6 0 4 0;
#X connect 7 0 6 0;
#X connect 7 1 5 0;
#X restore 48 38 pd collect;
#X obj 117 16 r \$0-save;
#X obj 27 130 text set \$0-savestates;
#X obj 27 104 list;
#X obj 117 62 t b f;
#X obj 117 39 clip 0 20;
#X connect 0 0 1 0;
#X connect 1 0 4 1;
#X connect 2 0 6 0;
#X connect 4 0 3 0;
#X connect 5 0 4 0;
#X connect 5 1 3 1;
#X connect 6 0 5 0;
#X restore 181 378 pd save;
#X obj 170 267 get \$0-control-template x y;
#X obj 359 74 r \$0-control-array-pointer;
#X obj 170 245 element \$0-control-array c-array;
#X obj 166 185 f;
#X obj 193 186 + 1;
#X obj 142 212 t float float;
#X obj 142 323 pack f f f;
#X obj 157 122 getsize \$0-control-array c-array;
#X obj 157 98 pointer;
#X obj 157 34 r \$0-drawbez;
#X obj 166 151 until;
#X msg 215 152 0;
#X obj 157 57 t b b b, f 20;
#X obj 142 345 t b a a;
#X obj 170 292 / 256;
#X obj 329 289 / 256;
#X connect 0 0 4 0;
#X connect 1 0 4 0;
#X connect 2 0 4 0;
#X connect 3 0 0 0;
#X connect 6 0 20 0;
#X connect 6 1 21 0;
#X connect 7 0 8 1;
#X connect 7 0 14 1;
#X connect 8 0 6 0;
#X connect 9 0 10 0;
#X connect 9 0 11 0;
#X connect 10 0 9 1;
#X connect 11 0 12 0;
#X connect 11 1 8 0;
#X connect 12 0 19 0;
#X connect 13 0 16 0;
#X connect 14 0 13 0;
#X connect 15 0 18 0;
#X connect 16 0 9 0;
#X connect 17 0 9 1;
#X connect 18 0 14 0;
#X connect 18 1 17 0;
#X connect 18 2 2 0;
#X connect 19 0 1 0;
#X connect 19 1 3 0;
#X connect 19 2 5 0;
#X connect 20 0 12 1;
#X connect 21 0 12 2;
#X restore 473 476 pd outlet-message;
#X obj 304 494 outlet;
#N canvas 299 256 587 349 stuff 0;
#X obj 262 70 r \$0-visbng;
#X obj 282 211 s \$0-visbngr;
#X msg 262 183 color 0 0;
#X msg 346 183 color 10 10;
#X obj 344 158 del 250;
#X obj 262 92 t b;
#X msg 117 129 relocate 537x560+1+1 1x1+50+60 \, vis 1 \, editmode
0;
#X obj 117 153 s pd-\$0-xycurve;
#X connect 0 0 5 0;
#X connect 2 0 1 0;
#X connect 3 0 1 0;
#X connect 4 0 3 0;
#X connect 5 0 6 0;
#X connect 5 0 4 0;
#X connect 5 0 2 0;
#X connect 6 0 7 0;
#X restore 473 174 pd stuff;
#X obj 114 494 outlet;
#X obj 195 495 outlet;
#X obj 114 441 / 256;
#X obj 195 440 / 256;
#X obj 114 349 r \$0-read;
#X text 156 493 x;
#X text 240 495 y;
#X obj 473 499 outlet;
#N canvas 50 60 537 560 \$0-xycurve 0;
#N canvas 117 96 603 589 mask 0;
#X obj 0 0 cnv 15 519 544 empty empty empty 20 12 0 14 -262144 -66577
0;
#X obj 2 3 cnv 15 514 514 empty empty empty 20 12 0 14 -162280 -66577
0;
#X obj 3 4 cnv 15 512 512 empty empty empty 20 12 0 14 -262144 -66577
0;
#X obj 251 259 cnv 2 16 2 empty empty empty 20 12 0 14 -228856 -66577
0;
#X obj 258 252 cnv 2 2 16 empty empty empty 20 12 0 14 -228856 -66577
0;
#X obj 442 525 tgl 14 0 \$0-draw-cont \$0-draw-contr Draw_const. 17
9 2 10 -262144 -1 -1 0 1;
#N canvas 0 57 1366 711 \$0-graph 0;
#X scalar 1018-playhead-template 27 219 \;;
#X scalar 1018-control-array 0 0 0 0 0 0 \; -244 186 \; -200 -214 \;
-92 169 \; 37 -66 \; 237 -222 \; -256 60 \; 160 238 \; 5 -207 \; -63
-11 \; -155 13 \; 27 219 \; \;;
#X scalar 1018-bezier-array 0 0 0 0 0 0 \; -244 186 \; -239.317 149.36
\; -234.087 118.818 \; -228.337 93.5145 \; -222.092 72.6829 \; -215.382
55.6404 \; -208.235 41.7829 \; -200.684 30.5788 \; -192.764 21.5633
\; -184.513 14.3324 \; -175.973 8.53781 \; -167.189 3.88203 \; -158.208
0.113314 \; -149.077 -2.97877 \; -139.849 -5.56763 \; -130.572 -7.79366
\; -121.299 -9.76811 \; -112.08 -11.5766 \; -102.964 -13.2825 \; -93.9993
-14.9298 \; -85.2304 -16.5466 \; -76.7002 -18.1468 \; -68.4478 -19.7336
\; -60.5088 -21.3008 \; -52.9147 -22.8355 \; -45.6931 -24.3198 \; -38.8667
-25.7319 \; -32.4542 -27.0485 \; -26.4694 -28.2453 \; -20.9218 -29.2987
\; -15.8165 -30.1862 \; -11.1542 -30.8877 \; -6.9316 -31.3859 \; -3.14169
-31.667 \; 0.226068 -31.7208 \; 3.1854 -31.5414 \; 5.75278 -31.1268
\; 7.94706 -30.4797 \; 9.78902 -29.6065 \; 11.3011 -28.5183 \; 12.5066
-27.2295 \; 13.4299 -25.7584 \; 14.0952 -24.1265 \; 14.527 -22.3581
\; 14.7487 -20.48 \; 14.7834 -18.5205 \; 14.6527 -16.5098 \; 14.3765
-14.4785 \; 13.9731 -12.4576 \; 13.4588 -10.478 \; 12.8477 -8.56934
\; 12.1514 -6.76021 \; 11.3793 -5.07712 \; 10.5382 -3.54415 \; 9.63252
-2.18242 \; 8.66436 -1.00976 \; 7.63348 -0.0401855 \; 6.53752 0.716406
\; 5.37225 1.25449 \; 4.13179 1.57325 \; 2.80882 1.67665 \; 1.39502
1.57364 \; -0.118641 1.27814 \; -1.74155 0.80907 \; -3.483 0.190225
\; -5.35176 -0.549908 \; -7.3557 -1.37831 \; -9.50126 -2.25776 \; -11.7931
-3.14725 \; -14.2335 -4.00235 \; -16.8221 -4.7757 \; -19.5555 -5.4176
\; -22.4267 -5.87655 \; -25.4246 -6.09989 \; -28.534 -6.03442 \; -31.7353
-5.62718 \; -35.0036 -4.82599 \; -38.3093 -3.58023 \; -41.6173 -1.84147
\; -44.8872 0.435953 \; -48.0727 3.29428 \; -51.1222 6.77191 \; -53.9782
10.903 \; -56.5776 15.7171 \; -58.8518 21.2392 \; -60.7262 27.4897
\; -62.1211 34.4841 \; -62.9509 42.2347 \; -63.1249 50.7499 \; -62.5468
60.0363 \; -61.115 70.0996 \; -58.7222 80.9464 \; -55.2554 92.5861
\; -50.5957 105.034 \; -44.6177 118.314 \; -37.1886 132.463 \; -28.1679
147.535 \; -17.4055 163.604 \; -4.74121 180.773 \; 27 219 \; \;;
#X coords -256 256 256 -256 512 512 2 100 100;
#X restore 3 4 pd \$0-graph;
#X obj 59 525 bng 14 250 50 0 \$0-randomize \$0-randomizer Randomize
17 9 2 10 -262144 -1 -1;
#X obj 6 525 bng 14 250 50 0 \$0-reset \$0-resetr Reset 17 9 2 10 -262144
-1 -1;
#X obj 381 525 bng 14 250 50 0 \$0-drawbez \$0-drawbezr Draw 17 9 2
10 -262144 -1 -1;
#X obj 143 527 hsl 150 12 0 1 0 0 \$0-readhsl \$0-readhslr empty -2
-8 0 10 -262144 -1 -1 0 1;
#X obj 301 527 nbx 4 12 -1e+37 1e+37 0 0 \$0-read \$0-readr Read 42
7 2 10 -262144 -1 -1 0 256;
#X msg 301 550 set \$1;
#X connect 10 0 11 0;
#X connect 11 0 12 0;
#X connect 12 0 10 0;
#X coords 0 -1 1 1 520 545 2 0 0;
#X restore 7 5 pd mask;
#X restore 473 447 pd \$0-xycurve;
#X connect 4 0 20 0;
#X connect 4 1 21 0;
#X connect 11 0 16 0;
#X connect 12 0 13 0;
#X connect 15 0 25 0;
#X connect 20 0 18 0;
#X connect 21 0 19 0;
#X connect 22 0 4 0;
#X coords 0 -1 1 1 180 33 1 100 100;
