#N canvas 270 232 741 433 10;
#N struct \$0-jump-template float x float y;
#N struct \$0-pad-template float x float y float c;
#X obj 532 51 inlet;
#N canvas 671 370 824 409 in 0;
#X obj 68 41 inlet;
#N canvas 698 546 200 251 route 0;
#X obj 20 20 inlet;
#X obj 30 60 route save recall;
#X obj 30 85 route float;
#X obj 97 111 route float;
#X obj 30 169 s \$0-save;
#X obj 30 108 i;
#X obj 98 133 i;
#X obj 98 180 s \$0-recall;
#X connect 0 0 1 0;
#X connect 1 0 2 0;
#X connect 1 1 3 0;
#X connect 2 0 5 0;
#X connect 3 0 6 0;
#X connect 5 0 4 0;
#X connect 6 0 7 0;
#X restore 97 93 pd route save-recall;
#X obj 102 196 s \$0-play;
#X obj 68 222 s \$0-record;
#X obj 143 247 s \$0-done;
#X obj 182 197 s \$0-read;
#X obj 372 215 unpack;
#X obj 102 174 != 0;
#X obj 68 176 != 0;
#X obj 143 222 t b;
#X obj 182 174 clip 0 1;
#X obj 278 302 s \$0-mouserec;
#X obj 278 270 != 0;
#X obj 68 146 route rec play stop read mouserec unitpol list;
#X obj 278 222 s \$0-unibi;
#X obj 278 193 != 0;
#X obj 372 241 s \$0-set-x;
#X obj 446 242 s \$0-set-y;
#X connect 0 0 1 0;
#X connect 0 0 13 0;
#X connect 6 0 16 0;
#X connect 6 1 17 0;
#X connect 7 0 2 0;
#X connect 8 0 3 0;
#X connect 9 0 4 0;
#X connect 10 0 5 0;
#X connect 12 0 11 0;
#X connect 13 0 8 0;
#X connect 13 1 7 0;
#X connect 13 2 9 0;
#X connect 13 3 10 0;
#X connect 13 4 12 0;
#X connect 13 5 15 0;
#X connect 13 6 6 0;
#X connect 15 0 14 0;
#X restore 532 71 pd in;
#X obj 103 115 hsl 150 15 0 127 0 0 \$0-visbng \$0-visbngr empty 50 8 2 10 #e0e0e0 #e0e0e0 #000000 0 1;
#N canvas 235 230 827 289 struct_jumpgrid 0;
#X msg 633 176 traverse \$1 \, bang;
#X obj 633 197 pointer;
#X obj 475 188 unpack;
#X msg 475 165 0 0;
#X obj 475 130 t b s;
#X obj 475 65 t s s;
#X msg 502 89 \; \$1 clear;
#X obj 475 14 bng 18 250 50 0 empty empty empty 0 -9 0 10 #fcfcfc #000000 #000000;
#X obj 474 223 append \$0-jump-template x y;
#X obj 35 27 struct \$0-jump-template float x float y;
#X obj 475 42 symbol pd-\$0-jumpgrid;
#X obj 35 51 route click;
#X obj 35 73 unpack p f f;
#X obj 69 98 s \$0-jump-x;
#X obj 104 144 s \$0-jump-y;
#X obj 30 196 filledpolygon 777 0 1 -150 150 150 150 150 -150 -150 -150;
#X obj 104 123 * -1;
#X connect 0 0 1 0;
#X connect 1 0 8 2;
#X connect 2 0 8 0;
#X connect 2 1 8 1;
#X connect 3 0 2 0;
#X connect 4 0 3 0;
#X connect 4 1 0 0;
#X connect 5 0 4 0;
#X connect 5 1 6 0;
#X connect 7 0 10 0;
#X connect 9 0 11 0;
#X connect 10 0 5 0;
#X connect 11 0 12 0;
#X connect 12 1 13 0;
#X connect 12 2 16 0;
#X connect 16 0 14 0;
#X restore 532 249 pd struct_jumpgrid;
#N canvas 309 124 895 738 struct_pad 0;
#X msg 571 190 traverse \$1 \, bang;
#X obj 571 211 pointer;
#X obj 418 205 unpack;
#X msg 418 182 0 0;
#X obj 418 154 t b s;
#X obj 418 89 t s s;
#X msg 445 113 \; \$1 clear;
#X obj 475 38 bng 18 250 50 0 empty empty empty 0 -9 0 10 #fcfcfc #000000 #000000;
#X msg 622 74 \; \$1 clear;
#X obj 621 30 bng 15 250 50 0 empty empty empty 17 7 0 10 #fcfcfc #000000 #000000;
#X obj 622 51 symbol pd-\$0-pad;
#X obj 418 66 symbol pd-\$0-pad;
#X obj 418 240 append \$0-pad-template x y;
#X obj 20 121 unpack p;
#X obj 20 149 get \$0-pad-template x y;
#X obj 438 327 r \$0-jump-x;
#X obj 438 400 r \$0-jump-y;
#X obj 438 348 set \$0-pad-template x;
#X obj 438 422 set \$0-pad-template y;
#X obj 20 98 route displace click;
#X obj 78 122 unpack p f f f f f;
#X obj 437 602 set \$0-pad-template c;
#X msg 474 572 900;
#X obj 24 32 filledcurve -d c 0 1 -10 0 0 10 10 0 0 -10;
#X obj 20 71 struct \$0-pad-template float x float y float c;
#X obj 229 213 s \$0-record;
#X obj 437 451 r \$0-record;
#X obj 437 474 sel 0 1;
#X obj 418 38 loadbang;
#X obj 20 175 s \$0-x;
#X obj 155 172 s \$0-y;
#X obj 491 505 r \$0-done;
#X msg 298 556 80;
#X msg 437 573 60;
#X obj 229 183 change;
#X obj 298 374 r \$0-x;
#X msg 332 504 stop \, bang;
#X obj 332 528 del 100;
#X obj 351 374 r \$0-record;
#X obj 298 436 spigot 1;
#X obj 351 397 == 0;
#X obj 22 353 s \$0-x;
#X obj 157 350 s \$0-y;
#X obj 22 319 r \$0-jump-x;
#X obj 157 319 r \$0-jump-y;
#X text 592 399 jump to position;
#X text 581 600 set color;
#X obj 358 437 sel 0;
#X msg 358 460 stop;
#X obj 229 158 spigot;
#X obj 261 137 r \$0-mouserec;
#X obj 549 540 t b p;
#X obj 469 303 r \$0-set-x;
#X obj 474 375 r \$0-set-y;
#X obj 418 263 s \$0-pad-template-pointer;
#X obj 591 309 r \$0-pad-template-pointer;
#X connect 0 0 1 0;
#X connect 1 0 12 2;
#X connect 2 0 12 0;
#X connect 2 1 12 1;
#X connect 3 0 2 0;
#X connect 4 0 3 0;
#X connect 4 1 0 0;
#X connect 5 0 4 0;
#X connect 5 1 6 0;
#X connect 7 0 11 0;
#X connect 9 0 10 0;
#X connect 10 0 8 0;
#X connect 11 0 5 0;
#X connect 12 0 54 0;
#X connect 13 0 14 0;
#X connect 14 0 29 0;
#X connect 14 1 30 0;
#X connect 15 0 17 0;
#X connect 16 0 18 0;
#X connect 19 0 13 0;
#X connect 19 1 20 0;
#X connect 20 5 49 0;
#X connect 22 0 21 0;
#X connect 24 0 19 0;
#X connect 26 0 27 0;
#X connect 27 0 33 0;
#X connect 27 1 22 0;
#X connect 28 0 11 0;
#X connect 31 0 33 0;
#X connect 32 0 21 0;
#X connect 33 0 21 0;
#X connect 34 0 25 0;
#X connect 35 0 39 0;
#X connect 36 0 37 0;
#X connect 37 0 33 0;
#X connect 38 0 40 0;
#X connect 39 0 32 0;
#X connect 39 0 36 0;
#X connect 40 0 47 0;
#X connect 40 0 39 1;
#X connect 43 0 41 0;
#X connect 44 0 42 0;
#X connect 47 0 48 0;
#X connect 48 0 37 0;
#X connect 49 0 34 0;
#X connect 50 0 49 1;
#X connect 51 0 33 0;
#X connect 51 1 21 1;
#X connect 52 0 17 0;
#X connect 53 0 18 0;
#X connect 55 0 17 1;
#X connect 55 0 18 1;
#X connect 55 0 51 0;
#X restore 532 275 pd struct_pad;
#N canvas 50 50 320 320 \$0-xypad 1;
#N canvas 250 104 719 510 mask 0;
#X msg 503 123 isvisible;
#X obj 503 146 pdcontrol;
#X obj 503 169 s \$0-isvisible;
#X obj 503 101 r \$0-isvisible-check;
#N canvas 845 542 450 300 \$0-jumpgrid 0;
#X scalar \$0-jump-template 0 0 \;;
#X coords -150 150 150 -150 300 300 2 100 100;
#X restore 105 105 pd \$0-jumpgrid;
#N canvas 1 50 878 553 \$0-pad 0;
#X scalar \$0-pad-template 110 115 60 \;;
#X coords -150 150 150 -150 300 300 2 100 100;
#X restore 105 105 pd \$0-pad;
#X connect 0 0 1 0;
#X connect 1 0 2 0;
#X connect 3 0 0 0;
#X coords 0 -1 1 1 310 310 2 100 100;
#X restore 3 2 pd mask;
#X restore 532 167 pd \$0-xypad;
#N canvas 336 296 999 666 record&play 0;
#X msg 701 188 line 0;
#X msg 627 166 auto;
#X msg 81 495 1e+15;
#X obj 81 474 loadbang;
#X obj 25 14 text define \$0-data-x;
#X obj 44 520 text set \$0-data-x;
#X obj 627 256 text sequence \$0-data-x -w 1;
#X obj 25 39 text define \$0-data-y;
#X obj 627 305 s \$0-jump-x;
#X obj 634 282 s \$0-x;
#X msg 206 492 1e+15;
#X obj 206 471 loadbang;
#X obj 169 517 text set \$0-data-y;
#X msg 812 228 stop;
#X obj 627 118 r \$0-play;
#X obj 819 309 s \$0-done;
#X text 817 148 pause;
#X obj 812 182 r \$0-play;
#X obj 812 205 sel 0;
#X obj 627 142 sel 1;
#X msg 710 494 line 0;
#X msg 635 480 auto;
#X msg 827 500 stop;
#X obj 635 427 r \$0-play;
#X text 831 431 pause;
#X obj 827 454 r \$0-play;
#X obj 827 477 sel 0;
#X obj 635 451 sel 1;
#X obj 635 534 text sequence \$0-data-y -w 1;
#X obj 642 560 s \$0-y;
#X obj 635 583 s \$0-jump-y;
#X obj 712 165 r \$0-done;
#X obj 720 472 r \$0-done;
#X obj 701 118 r \$0-record;
#X obj 701 141 sel 0;
#X obj 710 427 r \$0-record;
#X obj 710 450 sel 0;
#X obj 875 183 r \$0-done;
#X obj 893 453 r \$0-done;
#X obj 44 382 f;
#X obj 128 377 f;
#X obj 59 361 r \$0-x;
#X obj 143 353 r \$0-y;
#X obj 78 168 tgl 18 0 empty empty empty 0 -9 0 10 #fcfcfc #000000 #000000 0 1;
#X obj 78 191 metro 5;
#X obj 78 116 r \$0-record;
#X obj 78 219 t b b;
#X obj 105 247 f;
#X obj 105 270 + 1;
#X msg 132 248 0;
#X obj 159 195 sel 1 0;
#X obj 134 302 f;
#X obj 44 462 pack;
#X obj 44 439 swap 5;
#X msg 223 307 -1;
#X obj 223 331 text delete \$0-data-x;
#X obj 223 353 text delete \$0-data-y;
#X obj 169 460 pack;
#X obj 169 437 swap 5;
#X obj 134 325 s \$0-datasize;
#X obj 446 151 r \$0-datasize;
#X obj 431 175 *;
#X obj 431 198 i;
#X obj 447 220 text get \$0-data-x;
#X obj 447 243 unpack;
#X obj 480 291 s \$0-jump-x;
#X obj 487 268 s \$0-x;
#X obj 431 342 unpack;
#X obj 431 319 text get \$0-data-y;
#X obj 471 367 s \$0-y;
#X obj 464 390 s \$0-jump-y;
#X obj 78 139 t f f, f 14;
#X msg 244 170 stop \, bang;
#X msg 243 215 0;
#X obj 243 239 s \$0-record;
#X obj 431 125 r \$0-read;
#X obj 243 192 del 600000;
#X text 206 149 safety stop after 10 min;
#X obj 792 285 t b b;
#X obj 792 336 s \$0-done-out;
#X connect 0 0 6 0;
#X connect 1 0 6 0;
#X connect 2 0 5 1;
#X connect 3 0 2 0;
#X connect 6 0 8 0;
#X connect 6 0 9 0;
#X connect 6 2 78 0;
#X connect 10 0 12 1;
#X connect 11 0 10 0;
#X connect 13 0 6 0;
#X connect 14 0 19 0;
#X connect 17 0 18 0;
#X connect 18 0 13 0;
#X connect 19 0 1 0;
#X connect 20 0 28 0;
#X connect 21 0 28 0;
#X connect 22 0 28 0;
#X connect 23 0 27 0;
#X connect 25 0 26 0;
#X connect 26 0 22 0;
#X connect 27 0 21 0;
#X connect 28 0 29 0;
#X connect 28 0 30 0;
#X connect 31 0 0 0;
#X connect 32 0 20 0;
#X connect 33 0 34 0;
#X connect 34 0 0 0;
#X connect 35 0 36 0;
#X connect 36 0 20 0;
#X connect 37 0 13 0;
#X connect 38 0 22 0;
#X connect 39 0 53 0;
#X connect 40 0 58 0;
#X connect 41 0 39 1;
#X connect 42 0 40 1;
#X connect 43 0 44 0;
#X connect 44 0 46 0;
#X connect 45 0 71 0;
#X connect 46 0 39 0;
#X connect 46 0 40 0;
#X connect 46 1 47 0;
#X connect 47 0 48 0;
#X connect 48 0 47 1;
#X connect 48 0 51 1;
#X connect 49 0 47 1;
#X connect 50 0 49 0;
#X connect 50 0 54 0;
#X connect 50 0 72 0;
#X connect 50 1 51 0;
#X connect 51 0 59 0;
#X connect 52 0 5 0;
#X connect 53 0 52 0;
#X connect 53 1 52 1;
#X connect 54 0 55 0;
#X connect 54 0 56 0;
#X connect 57 0 12 0;
#X connect 58 0 57 0;
#X connect 58 1 57 1;
#X connect 60 0 61 1;
#X connect 61 0 62 0;
#X connect 62 0 63 0;
#X connect 62 0 68 0;
#X connect 63 0 64 0;
#X connect 64 1 66 0;
#X connect 64 1 65 0;
#X connect 67 1 69 0;
#X connect 67 1 70 0;
#X connect 68 0 67 0;
#X connect 71 0 43 0;
#X connect 71 1 50 0;
#X connect 72 0 76 0;
#X connect 73 0 74 0;
#X connect 75 0 61 0;
#X connect 76 0 73 0;
#X connect 78 0 79 0;
#X connect 78 1 15 0;
#X restore 532 202 pd record&play;
#X obj 235 222 r \$0-x;
#X obj 423 228 r \$0-y;
#N canvas 433 135 786 311 init+stuff 0;
#X obj 139 139 s \$0-visbngr;
#X obj 121 34 r \$0-visbng;
#X msg 119 111 color 0 0;
#X msg 203 111 color 10 10;
#X obj 121 56 t b;
#X obj 201 86 del 250;
#N canvas 1 50 845 386 isvisible 0;
#X obj 48 43 loadbang;
#X obj 48 65 tgl 15 0 empty empty empty 17 7 0 10 #fcfcfc #000000 #000000 0 1;
#X obj 48 108 s \$0-isvisible-check;
#X obj 48 85 metro 1000;
#X connect 0 0 1 0;
#X connect 1 0 3 0;
#X connect 3 0 2 0;
#X restore 121 11 pd isvisible;
#X msg 99 163 relocate 320x320+1+1 1x1+50+50 \, vis 1 \, editmode 0;
#X obj 99 185 s pd-\$0-xypad;
#X obj 449 18 loadbang;
#X msg 449 41 args;
#X obj 449 64 pdcontrol;
#X obj 560 178 print pp.xypad:;
#X msg 560 155 no method for \$1;
#X obj 495 158 unpack;
#X obj 449 232 s \$0-mouserec;
#X obj 545 232 s \$0-unibi;
#X obj 449 200 != 0;
#X obj 545 203 != 0;
#X obj 449 129 route float list bang;
#X connect 1 0 4 0;
#X connect 2 0 0 0;
#X connect 3 0 0 0;
#X connect 4 0 2 0;
#X connect 4 0 5 0;
#X connect 4 0 7 0;
#X connect 5 0 3 0;
#X connect 7 0 8 0;
#X connect 9 0 10 0;
#X connect 10 0 11 0;
#X connect 11 0 19 0;
#X connect 13 0 12 0;
#X connect 14 0 17 0;
#X connect 14 1 18 0;
#X connect 17 0 15 0;
#X connect 18 0 16 0;
#X connect 19 0 17 0;
#X connect 19 1 14 0;
#X connect 19 3 13 0;
#X restore 532 127 pd init+stuff;
#X obj 529 353 outlet;
#X obj 235 310 / 150;
#X obj 308 198 r \$0-unibi;
#X obj 308 221 sel 0 1, f 12;
#X msg 308 247 150;
#X msg 308 274 0;
#X msg 342 247 300;
#X msg 342 274 0.5;
#X obj 235 333 +;
#X obj 235 356 outlet;
#X obj 423 304 / 150;
#X obj 423 327 +;
#X obj 423 350 outlet;
#X text 630 353 ps 2026;
#X obj 529 330 r \$0-done-out;
#N canvas 506 45 695 887 save&recall 0;
#X obj 64 170 text tolist \$0-data-y;
#X obj 64 234 text set \$0-savestates-y;
#X obj 64 31 r \$0-save;
#X obj 64 119 clip 0 20;
#X obj 64 142 t b f;
#X obj 314 119 clip 0 20;
#X obj 314 142 t b f;
#X obj 314 170 text tolist \$0-data-x;
#X obj 314 234 text set \$0-savestates-x;
#X obj 64 54 t f f;
#X obj 339 36 text define \$0-savestates-x;
#X obj 339 60 text define \$0-savestates-y;
#X msg 113 458 21;
#X obj 113 481 until;
#X obj 113 504 f;
#X obj 160 507 + 1;
#X obj 113 527 t b f;
#X msg 113 554 list empty_slot;
#X obj 81 372 t a b;
#X obj 27 292 loadbang;
#X obj 81 349 savestate;
#X obj 27 351 del 0;
#X msg 158 411 0;
#X obj 113 432 spigot 1;
#X obj 81 290 text tolist \$0-savestates-x;
#X obj 113 579 text set \$0-savestates-x;
#X obj 81 608 text fromlist \$0-savestates-x;
#X msg 457 455 21;
#X obj 457 478 until;
#X obj 457 501 f;
#X obj 504 504 + 1;
#X obj 457 524 t b f;
#X msg 457 551 list empty_slot;
#X obj 425 369 t a b;
#X obj 371 289 loadbang;
#X obj 425 346 savestate;
#X obj 371 348 del 0;
#X msg 502 408 0;
#X obj 457 429 spigot 1;
#X obj 425 287 text tolist \$0-savestates-y;
#X obj 457 576 text set \$0-savestates-y;
#X obj 425 605 text fromlist \$0-savestates-y;
#X obj 76 648 r \$0-recall;
#X obj 95 821 text fromlist \$0-data-x;
#X obj 95 741 text get \$0-savestates-x;
#X obj 270 741 text get \$0-savestates-y;
#X obj 270 825 text fromlist \$0-data-y;
#X obj 270 796 route ylist;
#X obj 95 793 route xlist;
#X obj 95 764 list trim;
#X obj 270 767 list trim;
#X obj 64 201 list prepend ylist;
#X obj 314 202 list prepend xlist;
#X obj 425 319 list prepend savey;
#X obj 373 456 list trim;
#X obj 373 479 route savey;
#X obj 81 320 list prepend savex;
#X obj 26 456 list trim;
#X obj 26 479 route savex;
#X obj 26 502 list;
#X obj 373 504 list;
#X obj 76 671 t b f f;
#X obj 32 711 s \$0-done;
#X connect 0 0 51 0;
#X connect 2 0 9 0;
#X connect 3 0 4 0;
#X connect 4 0 0 0;
#X connect 4 1 1 1;
#X connect 5 0 6 0;
#X connect 6 0 7 0;
#X connect 6 1 8 1;
#X connect 7 0 52 0;
#X connect 9 0 3 0;
#X connect 9 1 5 0;
#X connect 12 0 13 0;
#X connect 13 0 14 0;
#X connect 14 0 15 0;
#X connect 14 0 16 0;
#X connect 15 0 14 1;
#X connect 16 0 17 0;
#X connect 16 1 25 1;
#X connect 17 0 25 0;
#X connect 18 0 57 0;
#X connect 18 1 22 0;
#X connect 19 0 21 0;
#X connect 20 0 18 0;
#X connect 20 1 24 0;
#X connect 21 0 23 0;
#X connect 22 0 23 1;
#X connect 23 0 12 0;
#X connect 24 0 56 0;
#X connect 27 0 28 0;
#X connect 28 0 29 0;
#X connect 29 0 30 0;
#X connect 29 0 31 0;
#X connect 30 0 29 1;
#X connect 31 0 32 0;
#X connect 31 1 40 1;
#X connect 32 0 40 0;
#X connect 33 0 54 0;
#X connect 33 1 37 0;
#X connect 34 0 36 0;
#X connect 35 0 33 0;
#X connect 35 1 39 0;
#X connect 36 0 38 0;
#X connect 37 0 38 1;
#X connect 38 0 27 0;
#X connect 39 0 53 0;
#X connect 42 0 61 0;
#X connect 44 0 49 0;
#X connect 45 0 50 0;
#X connect 47 0 46 0;
#X connect 48 0 43 0;
#X connect 49 0 48 0;
#X connect 50 0 47 0;
#X connect 51 0 1 0;
#X connect 52 0 8 0;
#X connect 53 0 35 0;
#X connect 54 0 55 0;
#X connect 55 0 60 0;
#X connect 56 0 20 0;
#X connect 57 0 58 0;
#X connect 58 0 59 0;
#X connect 59 0 26 0;
#X connect 60 0 41 0;
#X connect 61 0 62 0;
#X connect 61 1 44 0;
#X connect 61 2 45 0;
#X restore 532 97 pd save&recall;
#X connect 0 0 1 0;
#X connect 7 0 11 0;
#X connect 8 0 20 0;
#X connect 11 0 18 0;
#X connect 12 0 13 0;
#X connect 13 0 14 0;
#X connect 13 0 15 0;
#X connect 13 1 16 0;
#X connect 13 1 17 0;
#X connect 14 0 15 0;
#X connect 14 0 11 1;
#X connect 14 0 20 1;
#X connect 15 0 18 1;
#X connect 15 0 21 1;
#X connect 16 0 11 1;
#X connect 16 0 20 1;
#X connect 17 0 18 1;
#X connect 17 0 21 1;
#X connect 18 0 19 0;
#X connect 20 0 21 0;
#X connect 21 0 22 0;
#X connect 24 0 10 0;
#X coords 0 -1 1 1 155 33 1 100 100;
