#N canvas 221 63 921 570 10;
#X obj 440 310 inlet~;
#X obj 509 310 inlet~;
#X obj 510 384 *~;
#X msg 577 322 \$1 50;
#X obj 577 344 line~;
#X obj 439 384 *~;
#X obj 120 115 hsl 150 17 0 1 0 0 \$0-vol \$0-volr 0db 5 8 2 10 -228856
-1 -1 0 1;
#X obj 100 115 tgl 17 0 \$0-dsp \$0-dspr dsp 1 8 2 10 -228856 -258113
-1 1 1;
#X obj 346 204 s \$0-volr;
#X msg 346 182 label \$1db;
#X obj 348 32 r \$0-vol;
#X obj 482 116 t b;
#X obj 482 95 change;
#X obj 482 181 s \$0-dspr;
#X msg 482 138 1;
#X obj 612 98 r \$0-dsp;
#X msg 612 151 \; pd dsp \$1;
#X obj 536 38 r pd;
#X obj 536 60 route dsp;
#X obj 536 89 t b f b;
#X msg 626 72 0;
#X msg 573 143 1;
#X obj 612 125 spigot 1;
#X obj 440 332 hip~ 5;
#X obj 510 333 hip~ 5;
#X obj 345 103 * 100;
#X obj 348 62 sqrt;
#X obj 346 83 sqrt;
#X obj 577 300 dbtorms;
#X obj 346 121 * 10;
#X obj 346 141 i;
#X obj 346 162 / 10;
#X obj 746 49 inlet;
#X obj 746 87 route volume;
#X obj 746 110 / 100;
#X obj 746 131 pow 4;
#X obj 746 152 s \$0-volr;
#X obj 753 299 r \$0-vol;
#X obj 753 341 t b a;
#X msg 753 320 set volume \$1;
#X obj 753 362 outlet;
#X text 588 466 philipp schmalfuß \, 2018;
#X text 591 466 philipp schmalfuß \, 2018;
#X obj 316 310 inlet~;
#X obj 385 310 inlet~;
#X obj 386 384 *~;
#X obj 315 384 *~;
#X obj 316 332 hip~ 5;
#X obj 386 333 hip~ 5;
#X obj 191 310 inlet~;
#X obj 260 310 inlet~;
#X obj 261 384 *~;
#X obj 190 384 *~;
#X obj 191 332 hip~ 5;
#X obj 261 333 hip~ 5;
#X obj 74 311 inlet~;
#X obj 143 311 inlet~;
#X obj 144 385 *~;
#X obj 73 385 *~;
#X obj 74 333 hip~ 5;
#X obj 144 334 hip~ 5;
#X obj 74 482 dac~ \$1 \$2 \$3 \$4 \$5 \$6 \$7 \$8;
#X connect 0 0 23 0;
#X connect 1 0 24 0;
#X connect 2 0 61 7;
#X connect 3 0 4 0;
#X connect 4 0 2 1;
#X connect 4 0 5 1;
#X connect 4 0 45 1;
#X connect 4 0 46 1;
#X connect 4 0 51 1;
#X connect 4 0 52 1;
#X connect 4 0 57 1;
#X connect 4 0 58 1;
#X connect 5 0 61 6;
#X connect 9 0 8 0;
#X connect 10 0 12 0;
#X connect 10 0 26 0;
#X connect 11 0 14 0;
#X connect 12 0 11 0;
#X connect 14 0 13 0;
#X connect 15 0 22 0;
#X connect 17 0 18 0;
#X connect 18 0 19 0;
#X connect 19 0 21 0;
#X connect 19 1 13 0;
#X connect 19 2 20 0;
#X connect 20 0 22 1;
#X connect 21 0 22 1;
#X connect 22 0 16 0;
#X connect 23 0 5 0;
#X connect 24 0 2 0;
#X connect 25 0 29 0;
#X connect 25 0 28 0;
#X connect 26 0 27 0;
#X connect 27 0 25 0;
#X connect 28 0 3 0;
#X connect 29 0 30 0;
#X connect 30 0 31 0;
#X connect 31 0 9 0;
#X connect 32 0 33 0;
#X connect 33 0 34 0;
#X connect 34 0 35 0;
#X connect 35 0 36 0;
#X connect 37 0 39 0;
#X connect 38 0 40 0;
#X connect 38 1 40 0;
#X connect 39 0 38 0;
#X connect 43 0 47 0;
#X connect 44 0 48 0;
#X connect 45 0 61 5;
#X connect 46 0 61 4;
#X connect 47 0 46 0;
#X connect 48 0 45 0;
#X connect 49 0 53 0;
#X connect 50 0 54 0;
#X connect 51 0 61 3;
#X connect 52 0 61 2;
#X connect 53 0 52 0;
#X connect 54 0 51 0;
#X connect 55 0 59 0;
#X connect 56 0 60 0;
#X connect 57 0 61 1;
#X connect 58 0 61 0;
#X connect 59 0 58 0;
#X connect 60 0 57 0;
#X coords 0 -1 1 1 172 35 1 100 100;
