#N struct 1099-template float x float y float c float s float th float stretch array 1099-plus 1099-template-y array 1099-minus 1099-template-y;
#N struct 1099-template-y float y;
#N struct 1100-template float x float y float c float s float th float stretch array 1100-plus 1100-template-y array 1100-minus 1100-template-y;
#N struct 1100-template-y float y;
#N canvas 151 117 804 355 10;
#X declare -path ./audio;
#X declare -path ..;
#X obj 400 40 pp.sfplayer~;
#A saved;
#X obj 399 297 pp.out~;
#A saved;
#X obj 1 2 cnv 15 380 350 empty empty empty 20 12 0 14 #e0e0e0 #404040 0;
#X obj 442 198 pp.fft-pitchshift~ 1024 4;
#A saved;
#X obj 401 103 pp.fft-block~ 1024 4;
#A saved;
#X msg 615 154 blocksize 1024 \, overlap 4 \,;
#X obj 400 248 +~;
#X obj 400 269 *~ 0.5;
#X obj 248 27 declare -path ./audio;
#N canvas 3 50 450 300 init 0;
#X obj 140 72 loadbang;
#X msg 140 93 open Trumpet.wav \, play 1 \, playback-speed 100 \, loop 1 \, normalize 1 \,;
#X obj 140 125 outlet;
#X connect 0 0 1 0;
#X connect 1 0 2 0;
#X restore 573 19 pd init;
#X obj 61 131 hsl 200 15 1 100 0 0 \$0-volume \$0-volumer Volume -2 -8 2 12 #fc8000 #000000 #000000 0 1;
#X floatatom 560 274 5 0 0 0 - - - 0;
#X msg 560 294 volume \$1;
#X obj 560 253 r \$0-volume;
#X obj 61 168 hsl 200 15 -1200 1200 0 0 \$0-detune \$0-detuner Detune -2 -8 2 12 #fcfcfc #000000 #000000 0 1;
#X obj 636 176 r \$0-detune;
#X msg 636 197 transposition \$1;
#N canvas 3 50 450 300 init 0;
#X obj 86 34 loadbang;
#X msg 86 55 \; pd dsp 1;
#X obj 200 40 loadbang;
#X obj 200 61 f \$0;
#X msg 200 82 \; \$1-detune 0;
#X connect 0 0 1 0;
#X connect 2 0 3 0;
#X connect 3 0 4 0;
#X restore 21 11 pd init;
#X text 10 63 This example shows how to mix a fft-processed signal with a dry signal using [pp.fft-block~].;
#X obj 278 5 declare -path ..;
#X connect 0 0 3 0;
#X connect 0 0 4 0;
#X connect 3 0 6 1;
#X connect 4 0 6 0;
#X connect 4 1 5 0;
#X connect 5 0 3 2;
#X connect 6 0 7 0;
#X connect 7 0 1 0;
#X connect 7 0 1 1;
#X connect 9 0 0 3;
#X connect 11 0 12 0;
#X connect 12 0 1 2;
#X connect 13 0 11 0;
#X connect 15 0 16 0;
#X connect 16 0 3 2;
