#N struct 1012-template float x float y float c float s float th float
stretch array 1012-plus 1012-template-y array 1012-minus 1012-template-y
;
#N struct 1012-template-y float y;
#N struct 1013-template float x float y float c float s float th float
stretch array 1013-plus 1013-template-y array 1013-minus 1013-template-y
;
#N struct 1013-template-y float y;
#N canvas 188 54 791 555 10;
#X declare -path ./audio;
#X declare -path ..;
#X obj 2 2 cnv 15 380 550 empty empty empty 20 12 0 14 -233017 -66577
0;
#X obj 18 175 hsl 200 15 0.1 10 1 0 \$0-speed \$0-speedr Speed -2 -8
2 12 -262144 -1 -1 6400 1;
#X obj 18 137 hsl 200 15 1 100 0 0 \$0-volume \$0-volumer Volume -2
-8 2 12 -262144 -1 -1 0 1;
#X obj 18 212 hsl 200 15 0 5 0 0 \$0-distance \$0-distancer Distance
-2 -8 2 12 -262144 -1 -1 9600 1;
#N canvas 67 368 450 300 init 0;
#X obj 164 32 loadbang;
#X obj 164 53 f \$0;
#X obj 233 31 bng 15 250 50 0 empty empty empty 17 7 0 10 -262144 -1
-1;
#X msg 70 61 \; pd dsp 1;
#X msg 164 74 \; \$1-speedr 0.25 \; \$1-distancer 1;
#X connect 0 0 1 0;
#X connect 0 0 3 0;
#X connect 1 0 4 0;
#X connect 2 0 1 0;
#X restore 17 11 pd init;
#X obj 15 241 hradio 15 1 0 2 \$0-switch \$0-switchr Noise/Sample 35
8 2 12 -262144 -1 -1 1;
#X obj 401 499 pp.out~;
#A saved;
#X obj 400 329 pp.doppler~;
#A saved;
#X obj 672 130 phasor~ 0.25;
#X obj 473 201 cos~;
#X obj 672 173 cos~;
#X floatatom 672 109 5 0 0 0 - - -;
#X obj 672 152 +~ 0.25;
#X obj 517 29 pp.sfplayer~;
#A saved;
#X obj 399 400 pp.doppler~;
#A saved;
#X obj 400 32 noise~;
#X obj 672 87 r \$0-speed;
#X floatatom 687 229 5 0 0 0 - - -;
#X obj 687 209 r \$0-distance;
#X obj 564 483 r \$0-volume;
#X msg 564 523 volume \$1;
#X obj 421 59 r \$0-switch;
#X obj 421 112 == 0;
#X obj 400 137 *~ 1;
#X obj 503 110 *~;
#N canvas 3 50 450 300 init 0;
#X obj 90 67 loadbang;
#X obj 90 118 outlet;
#X msg 90 88 open Tambourine-shake.wav \, play 1 \, playback-speed
100 \, position 0 \, position% 0 \, loop 1 \, normalize 0 \,;
#X connect 0 0 2 0;
#X connect 2 0 1 0;
#X restore 690 9 pd init;
#X obj 248 25 declare -path ./audio;
#X text 13 74 This example shows how to combine two doppler modules
to emulate circular movement of a sound source in front of the observer
;
#X text 8 533 Philipp Schmalfuß \, 2018;
#X obj 278 5 declare -path ..;
#X obj 400 447 pp.pan~ sqrt;
#A saved;
#X obj 474 307 +~;
#X obj 474 286 *~;
#X obj 671 310 *~;
#X obj 687 249 sig~;
#X obj 687 271 lop~ 10;
#X floatatom 564 503 5 0 0 0 - - -;
#X connect 7 0 14 0;
#X connect 8 0 9 0;
#X connect 8 0 12 0;
#X connect 9 0 32 0;
#X connect 10 0 33 0;
#X connect 11 0 8 0;
#X connect 12 0 10 0;
#X connect 13 0 24 1;
#X connect 14 0 30 0;
#X connect 14 1 30 1;
#X connect 15 0 23 0;
#X connect 16 0 11 0;
#X connect 17 0 34 0;
#X connect 18 0 17 0;
#X connect 19 0 36 0;
#X connect 20 0 6 2;
#X connect 21 0 22 0;
#X connect 21 0 24 0;
#X connect 22 0 23 1;
#X connect 23 0 7 0;
#X connect 24 0 7 0;
#X connect 25 0 13 3;
#X connect 30 0 6 0;
#X connect 30 1 6 1;
#X connect 31 0 7 1;
#X connect 32 0 31 0;
#X connect 33 0 14 1;
#X connect 34 0 35 0;
#X connect 35 0 33 1;
#X connect 35 0 31 1;
#X connect 35 0 32 1;
#X connect 36 0 20 0;
