#N struct 1566-template float x float y float c float s float th float
stretch array 1566-plus 1566-template-y array 1566-minus 1566-template-y
;
#N struct 1566-template-y float y;
#N struct 1567-template float x float y float c float s float th float
stretch array 1567-plus 1567-template-y array 1567-minus 1567-template-y
;
#N struct 1567-template-y float y;
#N canvas 188 54 836 555 10;
#X declare -path ./audio;
#X declare -path ..;
#X obj 2 2 cnv 15 380 550 empty empty empty 20 12 0 14 -233017 -66577
0;
#X obj 18 175 hsl 200 15 0.1 10 1 0 \$0-speed \$0-speedr Speed -2 -8
2 12 -262144 -1 -1 3500 1;
#X obj 18 137 hsl 200 15 1 100 0 0 \$0-volume \$0-volumer Volume -2
-8 2 12 -260097 -1 -1 19900 1;
#X obj 18 212 hsl 200 15 0 10 0 0 \$0-diameter \$0-diameterr Diameter
-2 -8 2 12 -262144 -1 -1 15600 1;
#N canvas 67 368 450 300 init 0;
#X obj 164 32 loadbang;
#X obj 164 53 f \$0;
#X obj 233 31 bng 15 250 50 0 empty empty empty 17 7 0 10 -262144 -1
-1;
#X msg 70 61 \; pd dsp 1;
#X msg 164 74 \; \$1-speedr 0.25 \; \$1-diameterr 4;
#X connect 0 0 1 0;
#X connect 0 0 3 0;
#X connect 1 0 4 0;
#X connect 2 0 1 0;
#X restore 17 11 pd init;
#X obj 15 241 hradio 15 1 0 2 \$0-switch \$0-switchr Noise/Sample 35
8 2 12 -262144 -1 -1 1;
#X obj 401 499 pp.out~;
#A saved;
#X obj 400 380 pp.doppler~;
#A saved;
#X obj 672 130 phasor~ 0.25;
#X obj 473 201 cos~;
#X obj 672 181 cos~;
#X floatatom 672 109 5 0 0 0 - - -;
#X obj 672 156 +~ 0.25;
#X obj 517 29 pp.sfplayer~;
#A saved;
#X obj 672 87 r \$0-speed;
#X floatatom 712 203 5 0 0 0 - - -;
#X obj 564 483 r \$0-volume;
#X msg 564 523 volume \$1;
#X obj 421 59 r \$0-switch;
#X obj 421 112 == 0;
#X obj 400 137 *~ 1;
#X obj 465 116 *~;
#N canvas 3 50 450 300 init 0;
#X obj 90 67 loadbang;
#X obj 90 118 outlet;
#X msg 90 88 open Tambourine-shake.wav \, play 1 \, playback-speed
100 \, position 0 \, position% 0 \, loop 1 \, normalize 0 \,;
#X connect 0 0 2 0;
#X connect 2 0 1 0;
#X restore 690 9 pd init;
#X obj 248 25 declare -path ./audio;
#X obj 278 5 declare -path ..;
#X obj 473 304 *~;
#X obj 671 289 *~;
#X obj 712 223 sig~;
#X obj 712 245 lop~ 10;
#X floatatom 564 503 5 0 0 0 - - -;
#X text 13 74 This example shows how to use the doppler module to emulate
circular movement of a sound source in front of the observer;
#X obj 712 183 r \$0-diameter;
#X obj 399 10 noise~;
#X text 8 533 Philipp Schmalfuß \, 2018/19;
#X obj 400 447 pp.pan~;
#A saved empty_slot \; empty_slot \; empty_slot \; empty_slot \; empty_slot
\; empty_slot \; empty_slot \; empty_slot \; empty_slot \; empty_slot
\; empty_slot \; empty_slot \; empty_slot \; empty_slot \; empty_slot
\; empty_slot \; empty_slot \; empty_slot \; empty_slot \; empty_slot
\; empty_slot \;;
#X obj 672 316 +~;
#X obj 672 340 +~ 0.5;
#X connect 7 0 34 0;
#X connect 7 1 34 1;
#X connect 8 0 9 0;
#X connect 8 0 12 0;
#X connect 9 0 25 0;
#X connect 10 0 26 0;
#X connect 11 0 8 0;
#X connect 12 0 10 0;
#X connect 13 0 21 1;
#X connect 14 0 11 0;
#X connect 15 0 27 0;
#X connect 16 0 29 0;
#X connect 17 0 6 2;
#X connect 18 0 19 0;
#X connect 18 0 21 0;
#X connect 19 0 20 1;
#X connect 20 0 7 0;
#X connect 21 0 7 0;
#X connect 22 0 13 3;
#X connect 25 0 7 1;
#X connect 26 0 35 0;
#X connect 27 0 28 0;
#X connect 28 0 26 1;
#X connect 28 0 25 1;
#X connect 28 0 35 1;
#X connect 29 0 17 0;
#X connect 31 0 15 0;
#X connect 32 0 20 0;
#X connect 34 0 6 0;
#X connect 34 1 6 1;
#X connect 35 0 36 0;
#X connect 36 0 7 2;
