#N struct 2448-template float x float y float c float s float th float stretch array 2448-plus 2448-template-y array 2448-minus 2448-template-y;
#N struct 2448-template-y float y;
#N struct 2578-template float x float y float c float s float th float stretch array 2578-plus 2578-template-y array 2578-minus 2578-template-y;
#N struct 2578-template-y float y;
#N struct 2579-template float x float y float c float s float th float stretch array 2579-plus 2579-template-y array 2579-minus 2579-template-y;
#N struct 2579-template-y float y;
#N canvas 106 125 1167 557 10;
#X declare -path ./audio;
#X declare -path ..;
#X obj 394 496 pp.out~;
#A saved;
#N canvas 3 50 450 300 init 0;
#X obj 48 57 loadbang;
#X obj 48 183 outlet;
#X msg 48 82 open Trumpet.wav \, grain-distance 10 \, position 0 \, grainsize 300 \, pitch 0 \, panorama 0 \, amplitude -6 \, filter-bypass 1 \, frequency 0 \, q 0 \, playback-speed 100 \, play 1 \, env-type 0 \, env-bias 0.5 \, env-shape 0.5 \, random-grain-distance 0 \, random-position 5 \, random-grainsize 5 \, random-pitch 0 \, random-panorama 0 \, random-amplitude 0 \, random-frequency 0 \, random-q 0 \, position% 0 \, random-position% 0.00292398 \, int.grain-trigger 1 \,;
#X connect 0 0 2 0;
#X connect 2 0 1 0;
#X restore 583 111 pd init;
#X floatatom 626 56 5 0 0 0 - - - 0;
#X msg 626 76 playback-speed \$1;
#X floatatom 567 32 5 0 0 0 - - - 0;
#X msg 567 52 pitch \$1;
#X obj 4 3 cnv 15 380 550 empty empty empty 20 12 0 14 #e0e0e0 #404040 0;
#X obj 18 260 hsl 200 15 0 100 0 0 \$0-speed \$0-speedr Playback-speed -2 -8 2 12 #fcfcfc #000000 #000000 0 1;
#X obj 17 181 hsl 200 15 1 100 0 0 \$0-volume \$0-volumer Volume -2 -8 2 12 #fc8000 #000000 #000000 0 1;
#X obj 18 301 hsl 200 15 -1200 1200 0 0 \$0-transposition \$0-transpositionr Transposition -2 -8 2 12 #fcfcfc #000000 #000000 0 1;
#X floatatom 559 494 5 0 0 0 - - - 0;
#N canvas 67 368 450 154 init 0;
#X obj 164 32 loadbang;
#X obj 164 53 f \$0;
#X obj 233 31 bng 15 250 50 0 empty empty empty 17 7 0 10 #fcfcfc #000000 #000000;
#X msg 70 61 \; pd dsp 1;
#X msg 164 74 \; \$1-transpositionr 0 \; \$1-speedr 100;
#X connect 0 0 1 0;
#X connect 0 0 3 0;
#X connect 1 0 4 0;
#X connect 2 0 1 0;
#X restore 17 11 pd init;
#X msg 559 514 volume \$1;
#X msg 710 151 speed \$1;
#X floatatom 710 129 5 0 0 0 - - - 0;
#X floatatom 772 155 5 0 0 0 - - - 0;
#X msg 772 175 transposition \$1;
#N canvas 3 50 450 300 init 0;
#X obj 179 52 loadbang;
#X obj 179 127 outlet;
#X msg 179 73 open Trumpet.wav \, play 1 \, freeze 0 \, speed 100 \, transposition 0 \, position 0 \, position% 0 \, loop 1 \, phaselock 1 \, blocksize 1024 \, overlap 4 \,;
#X connect 0 0 2 0;
#X connect 2 0 1 0;
#X restore 722 326 pd init;
#X obj 394 109 pp.grainer~;
#A saved;
#X obj 559 473 r \$0-volume;
#X obj 14 211 hradio 20 1 0 3 \$0-switch \$0-switchr Granular/Phaselock/Paulstretch 65 12 2 12 #fcfcfc #000000 #000000 0;
#X obj 537 323 pp.fft-stretch~ 1024 4;
#A saved;
#X obj 416 333 r \$0-switch;
#X obj 394 395 *~ 1;
#X obj 415 373 == 0;
#X obj 536 396 *~;
#X obj 248 26 declare -path ./audio;
#X obj 567 11 r \$0-transposition;
#X obj 772 134 r \$0-transposition;
#X obj 626 35 r \$0-speed;
#X obj 710 108 r \$0-speed;
#X obj 278 5 declare -path ..;
#X msg 787 248 phaselock 1 \, random-phase 0 \, blocksize 1024 \, overlap 4 \,;
#X obj 551 371 != 0;
#X obj 787 200 r \$0-switch;
#X obj 787 223 sel 1 2;
#X text 871 231 phaselock mode;
#X text 877 274 paulstretch mode;
#X msg 806 292 phaselock 0 \, random-phase 1 \, blocksize 32768 \, overlap 4 \,;
#X text 9 54 Comparison of three time stretching methods. The granular time stretching causes phase cancelations \, most noticeable when the sound is transposed. Phaselock sets the phase vocoder in phase-lock mode. This sounds artificial at a very slow playback speed. Paulstretch mode sets a large fft-window and randomizes the phases.;
#X connect 1 0 18 1;
#X connect 2 0 3 0;
#X connect 3 0 18 1;
#X connect 4 0 5 0;
#X connect 5 0 18 1;
#X connect 10 0 12 0;
#X connect 12 0 0 2;
#X connect 13 0 21 4;
#X connect 14 0 13 0;
#X connect 15 0 16 0;
#X connect 16 0 21 4;
#X connect 17 0 21 4;
#X connect 18 0 23 0;
#X connect 19 0 10 0;
#X connect 21 0 25 0;
#X connect 22 0 24 0;
#X connect 22 0 33 0;
#X connect 23 0 0 0;
#X connect 23 0 0 1;
#X connect 24 0 23 1;
#X connect 25 0 0 1;
#X connect 25 0 0 0;
#X connect 27 0 4 0;
#X connect 28 0 15 0;
#X connect 29 0 2 0;
#X connect 30 0 14 0;
#X connect 32 0 21 4;
#X connect 33 0 25 1;
#X connect 34 0 35 0;
#X connect 35 0 32 0;
#X connect 35 1 38 0;
#X connect 38 0 21 4;
