#N struct 3296-template float x float y float c float s float th float
stretch array 3296-plus 3296-template-y array 3296-minus 3296-template-y
;
#N struct 3296-template-y float y;
#N struct 3297-template float x float y float c float s float th float
stretch array 3297-plus 3297-template-y array 3297-minus 3297-template-y
;
#N struct 3297-template-y float y;
#N canvas 2 54 1191 712 10;
#X declare -path ./audio;
#X declare -path ..;
#X obj 726 552 *~;
#X obj 662 552 *~;
#X msg 576 511 dry/wet \$1;
#X obj 401 67 pp.sfplayer~;
#A saved;
#X obj 576 471 r \$0-room;
#X obj 551 227 *~;
#X obj 460 373 *~;
#X obj 474 398 *~;
#X obj 461 257 pp.doppler~;
#A saved;
#X msg 742 111 frequency \$1;
#X obj 742 70 r \$0-speed;
#X floatatom 742 91 5 0 0 0 - - -;
#X floatatom 595 226 5 0 0 0 - - -;
#X floatatom 489 374 5 0 0 0 - - -;
#X obj 534 382 expr~ 1-$v1;
#N canvas 3 52 450 300 init 0;
#X obj 117 109 outlet;
#X obj 117 63 loadbang;
#X msg 117 88 damping 200 \, amp-mod 50;
#X connect 1 0 2 0;
#X connect 2 0 0 0;
#X restore 623 256 pd init;
#N canvas 3 52 450 300 init 0;
#X obj 117 109 outlet;
#X obj 117 63 loadbang;
#X msg 117 88 loadIR IR-Staircase.wav;
#X connect 1 0 2 0;
#X connect 2 0 0 0;
#X restore 586 572 pd init;
#X floatatom 576 492 5 0 0 0 - - -;
#X obj 403 649 pp.out~;
#A saved;
#N canvas 3 50 450 300 init 0;
#X obj 117 109 outlet;
#X obj 117 63 loadbang;
#X msg 117 88 smooth 100;
#X connect 1 0 2 0;
#X connect 2 0 0 0;
#X restore 564 324 pd init;
#N canvas 3 50 450 300 init 0;
#X obj 117 109 outlet;
#X obj 117 63 loadbang;
#X msg 117 88 smooth 100;
#X connect 1 0 2 0;
#X connect 2 0 0 0;
#X restore 642 124 pd init;
#X obj 576 4 r \$0-sample;
#X obj 576 24 symbol;
#X msg 576 45 open \$1 \, loop 1 \, play 1;
#X text 623 277 Front-back doppler;
#X obj 566 650 r \$0-volume;
#X msg 566 671 volume \$1;
#X obj 4 0 cnv 15 380 700 empty empty empty 20 12 0 14 -233017 -66577
0;
#X obj 19 228 hsl 200 15 0 30 0 0 \$0-depth \$0-depthr Movement_depth
-2 -8 2 12 -262144 -1 -1 13267 1;
#X obj 19 295 hsl 200 15 0 100 0 0 \$0-room \$0-roomr Room-Presence
-2 -8 2 12 -262144 -1 -1 19900 1;
#X obj 19 194 hsl 200 15 0.1 10 1 0 \$0-speed \$0-speedr Movement-speed
-2 -8 2 12 -262144 -1 -1 5990 1;
#X obj 16 316 tgl 15 0 \$0-bypass \$0-bypassr Bypass 17 7 2 12 -262144
-1 -1 0 1;
#X msg 18 384 Trumpet.wav;
#X msg 18 362 Tambourine-shake.wav;
#X obj 18 406 s \$0-sample;
#N canvas 715 199 450 300 init 0;
#X obj 177 48 loadbang;
#X msg 89 81 \; pd dsp 1;
#X obj 177 109 f \$0;
#X obj 190 74 bng 15 250 50 0 empty empty empty 17 7 0 10 -262144 -1
-1;
#X msg 177 130 \; \$1-roomr 100 \; \$1-depthr 20 \; \$1-widthr 20 \;
\$1-speedr 0.4 \;;
#X connect 0 0 1 0;
#X connect 0 0 2 0;
#X connect 2 0 4 0;
#X connect 3 0 2 0;
#X restore 11 8 pd init;
#X obj 19 160 hsl 200 15 1 100 0 0 \$0-volume \$0-volumer Volume -2
-8 2 12 -260097 -1 -1 0 1;
#X obj 401 423 pp.doppler~;
#A saved;
#X obj 248 25 declare -path ./audio;
#X obj 925 654 pp.out~;
#A saved;
#X obj 426 110 s~ \$0-bp;
#X obj 924 605 r~ \$0-bp;
#X obj 924 630 *~;
#X obj 415 164 r \$0-bypass;
#X obj 402 206 *~ 1;
#X obj 1086 654 r \$0-volume;
#X msg 1086 675 volume \$1;
#X obj 952 629 r \$0-bypass;
#N canvas 3 54 450 300 init 0;
#X obj 117 109 outlet;
#X obj 117 63 loadbang;
#X msg 117 88 open Tambourine-shake.wav \, loop 1 \, play 1;
#X connect 1 0 2 0;
#X connect 2 0 0 0;
#X restore 586 68 pd init;
#X text 569 432 Left-right doppler;
#X obj 415 185 == 0;
#X text 11 60 Emulation of a sound source that moves on an arbitrary
path in a room in front of the listener.;
#X text 16 342 load a sound source;
#X obj 22 531 s \$0-IR;
#X obj 583 548 r \$0-IR;
#X text 16 679 Philipp Schmalfuß \, 2018;
#X obj 278 5 declare -path ..;
#X text 15 439 load a reverb impulse response;
#X obj 403 567 pp.fft-partconv-st~;
#A saved;
#X obj 662 577 pp.fft-block-st~;
#A saved;
#X obj 22 464 bng 15 250 50 0 empty empty empty 17 7 0 10 -262144 -1
-1;
#X obj 22 484 openpanel;
#X msg 22 507 loadIR \$1;
#N canvas 2 54 450 300 magnitude 0;
#X obj 134 53 inlet~;
#X obj 180 54 inlet~;
#X obj 134 88 *~;
#X obj 181 89 *~;
#X obj 133 119 sqrt~;
#X obj 133 173 outlet~;
#X obj 133 145 *~ 0.7071;
#X text 199 145 normalize 0-1;
#X connect 0 0 2 0;
#X connect 0 0 2 1;
#X connect 1 0 3 0;
#X connect 1 0 3 1;
#X connect 2 0 4 0;
#X connect 3 0 4 0;
#X connect 4 0 6 0;
#X connect 6 0 5 0;
#X restore 740 473 pd magnitude;
#X obj 740 504 expr~ 1-$v1;
#X obj 19 261 hsl 200 15 0 30 0 0 \$0-width \$0-widthr Movement-width
-2 -8 2 12 -262144 -1 -1 13267 1;
#X obj 550 203 *~;
#X obj 402 484 pp.pan~ sqrt;
#A saved empty_slot \; empty_slot \; empty_slot \; empty_slot \; empty_slot
\; empty_slot \; empty_slot \; empty_slot \; empty_slot \; empty_slot
\; empty_slot \; empty_slot \; empty_slot \; empty_slot \; empty_slot
\; empty_slot \; empty_slot \; empty_slot \; empty_slot \; empty_slot
\; empty_slot \;;
#X obj 489 354 r \$0-width;
#X obj 595 205 r \$0-depth;
#X text 823 472 total distance from the listener;
#X text 759 530 multiply the dry signal by 1-distance;
#X text 801 573 latency compensation for fft-partconv~;
#X obj 549 145 pp.lfnoise~ 0 1;
#A saved empty_slot \; empty_slot \; empty_slot \; empty_slot \; empty_slot
\; empty_slot \; empty_slot \; empty_slot \; empty_slot \; empty_slot
\; empty_slot \; empty_slot \; empty_slot \; empty_slot \; empty_slot
\; empty_slot \; empty_slot \; empty_slot \; empty_slot \; empty_slot
\; empty_slot \;;
#X text 668 177 Random unitpolar signal generator \, squared. This
gives a preference for movements in front of the listener.;
#X obj 461 319 pp.lfnoise~;
#A saved empty_slot \; empty_slot \; empty_slot \; empty_slot \; empty_slot
\; empty_slot \; empty_slot \; empty_slot \; empty_slot \; empty_slot
\; empty_slot \; empty_slot \; empty_slot \; empty_slot \; empty_slot
\; empty_slot \; empty_slot \; empty_slot \; empty_slot \; empty_slot
\; empty_slot \;;
#X connect 0 0 59 1;
#X connect 1 0 59 0;
#X connect 2 0 58 3;
#X connect 3 0 40 0;
#X connect 3 0 44 0;
#X connect 4 0 17 0;
#X connect 5 0 8 1;
#X connect 6 0 7 0;
#X connect 7 0 37 1;
#X connect 8 0 37 0;
#X connect 8 1 14 0;
#X connect 8 1 63 1;
#X connect 9 0 73 1;
#X connect 9 0 75 1;
#X connect 10 0 11 0;
#X connect 11 0 9 0;
#X connect 12 0 5 1;
#X connect 13 0 6 1;
#X connect 14 0 7 1;
#X connect 15 0 8 2;
#X connect 16 0 58 3;
#X connect 17 0 2 0;
#X connect 19 0 75 1;
#X connect 20 0 73 1;
#X connect 21 0 22 0;
#X connect 22 0 23 0;
#X connect 23 0 3 3;
#X connect 25 0 26 0;
#X connect 26 0 18 2;
#X connect 32 0 34 0;
#X connect 33 0 34 0;
#X connect 37 0 67 0;
#X connect 37 1 67 1;
#X connect 37 1 63 0;
#X connect 41 0 42 0;
#X connect 42 0 39 0;
#X connect 42 0 39 1;
#X connect 43 0 50 0;
#X connect 44 0 8 0;
#X connect 45 0 46 0;
#X connect 46 0 39 2;
#X connect 47 0 42 1;
#X connect 48 0 3 3;
#X connect 50 0 44 1;
#X connect 54 0 58 3;
#X connect 58 0 18 0;
#X connect 58 1 18 1;
#X connect 59 0 18 0;
#X connect 59 1 18 1;
#X connect 60 0 61 0;
#X connect 61 0 62 0;
#X connect 62 0 53 0;
#X connect 63 0 64 0;
#X connect 64 0 0 1;
#X connect 64 0 1 1;
#X connect 66 0 5 0;
#X connect 67 0 1 0;
#X connect 67 0 58 0;
#X connect 67 1 0 0;
#X connect 67 1 58 1;
#X connect 68 0 13 0;
#X connect 69 0 12 0;
#X connect 73 0 66 0;
#X connect 73 0 66 1;
#X connect 75 0 6 0;
