#N struct 1154-template float x float y float c float s float th float stretch array 1154-plus 1154-template-y array 1154-minus 1154-template-y;
#N struct 1154-template-y float y;
#N struct 1155-template float x float y float c float s float th float stretch array 1155-plus 1155-template-y array 1155-minus 1155-template-y;
#N struct 1155-template-y float y;
#N canvas 112 102 1123 712 10;
#X declare -path ./audio;
#X declare -path ..;
#X obj 403 67 pp.sfplayer~;
#A saved;
#X obj 594 444 r \$0-room;
#X obj 653 329 *~;
#X obj 453 307 *~;
#X msg 746 116 frequency \$1;
#X obj 746 75 r \$0-speed;
#X floatatom 746 96 5 0 0 0 - - - 0;
#X floatatom 681 331 5 0 0 0 - - - 0;
#X floatatom 481 307 5 0 0 0 - - - 0;
#X obj 406 636 pp.out~;
#A saved;
#N canvas 3 50 450 300 init 0;
#X obj 117 109 outlet;
#X obj 117 63 loadbang;
#X msg 117 88 smooth 100;
#X connect 1 0 2 0;
#X connect 2 0 0 0;
#X restore 557 229 pd init;
#N canvas 3 54 450 300 init 0;
#X obj 117 109 outlet;
#X obj 117 63 loadbang;
#X msg 117 88 smooth 100;
#X connect 1 0 2 0;
#X connect 2 0 0 0;
#X restore 757 226 pd init;
#X obj 576 4 r \$0-sample;
#X obj 576 24 symbol;
#X msg 576 45 open \$1 \, loop 1 \, play 1;
#X obj 569 637 r \$0-volume;
#X msg 569 658 volume \$1;
#X obj 4 0 cnv 15 380 700 empty empty empty 20 12 0 14 #e0e0e0 #404040 0;
#X obj 19 228 hsl 200 15 0 30 0 0 \$0-depth \$0-depthr Movement_depth -2 -8 2 12 #fcfcfc #000000 #000000 0 1;
#X obj 19 295 hsl 200 15 0 1 0 0 \$0-room \$0-roomr Room-Presence -2 -8 2 12 #fcfcfc #000000 #000000 0 1;
#X obj 19 194 hsl 200 15 0.1 10 1 0 \$0-speed \$0-speedr Movement-speed -2 -8 2 12 #fcfcfc #000000 #000000 0 1;
#X obj 16 316 tgl 15 0 \$0-bypass \$0-bypassr Bypass 17 7 2 12 #fcfcfc #000000 #000000 0 1;
#X msg 18 384 Trumpet.wav;
#X msg 18 362 Tambourine-shake.wav;
#X obj 18 406 s \$0-sample;
#N canvas 715 199 450 300 init 0;
#X obj 177 48 loadbang;
#X msg 89 81 \; pd dsp 1;
#X obj 177 109 f \$0;
#X obj 190 74 bng 15 250 50 0 empty empty empty 17 7 0 10 #fcfcfc #000000 #000000;
#X msg 177 130 \; \$1-roomr 0.6 \; \$1-depthr 20 \; \$1-widthr 20 \; \$1-speedr 0.4 \; \$1-reverb-presetr 2;
#X connect 0 0 1 0;
#X connect 0 0 2 0;
#X connect 2 0 4 0;
#X connect 3 0 2 0;
#X restore 11 8 pd init;
#X obj 19 160 hsl 200 15 1 100 0 0 \$0-volume \$0-volumer Volume -2 -8 2 12 #fc8000 #000000 #000000 0 1;
#X obj 248 25 declare -path ./audio;
#X obj 835 636 pp.out~;
#A saved;
#X obj 428 110 s~ \$0-bp;
#X obj 834 587 r~ \$0-bp;
#X obj 834 612 *~;
#X obj 425 163 r \$0-bypass;
#X obj 404 206 *~ 1;
#X obj 996 636 r \$0-volume;
#X msg 996 657 volume \$1;
#X obj 862 611 r \$0-bypass;
#N canvas 3 54 450 300 init 0;
#X obj 117 109 outlet;
#X obj 117 63 loadbang;
#X msg 117 88 open Tambourine-shake.wav \, loop 1 \, play 1;
#X connect 1 0 2 0;
#X connect 2 0 0 0;
#X restore 586 68 pd init;
#X obj 425 184 == 0;
#X text 11 60 Emulation of a sound source that moves on an arbitrary path in a room in front of the listener.;
#X text 16 342 load a sound source;
#X obj 278 5 declare -path ..;
#X obj 19 261 hsl 200 15 0 30 0 0 \$0-width \$0-widthr Movement-width -2 -8 2 12 #fcfcfc #000000 #000000 0 1;
#X obj 481 287 r \$0-width;
#X obj 681 310 r \$0-depth;
#X obj 653 226 pp.lfnoise~ 0 1;
#A saved empty_slot \; empty_slot \; empty_slot \; empty_slot \; empty_slot \; empty_slot \; empty_slot \; empty_slot \; empty_slot \; empty_slot \; empty_slot \; empty_slot \; empty_slot \; empty_slot \; empty_slot \; empty_slot \; empty_slot \; empty_slot \; empty_slot \; empty_slot \; empty_slot \;;
#X obj 453 229 pp.lfnoise~;
#A saved empty_slot \; empty_slot \; empty_slot \; empty_slot \; empty_slot \; empty_slot \; empty_slot \; empty_slot \; empty_slot \; empty_slot \; empty_slot \; empty_slot \; empty_slot \; empty_slot \; empty_slot \; empty_slot \; empty_slot \; empty_slot \; empty_slot \; empty_slot \; empty_slot \;;
#X obj 405 387 pp.spacer~;
#A saved empty_slot \; empty_slot \; empty_slot \; empty_slot \; empty_slot \; empty_slot \; empty_slot \; empty_slot \; empty_slot \; empty_slot \; empty_slot \; empty_slot \; empty_slot \; empty_slot \; empty_slot \; empty_slot \; empty_slot \; empty_slot \; empty_slot \; empty_slot \; empty_slot \;;
#X obj 654 264 pow~ 4;
#X text 697 259 Random unipolar signal generator \, raised to the 4th power. This gives a preference for movements in front of the listener.;
#N canvas 3 54 450 300 init 0;
#X obj 117 109 outlet;
#X obj 117 63 loadbang;
#X msg 117 88 localize 75;
#X connect 1 0 2 0;
#X connect 2 0 0 0;
#X restore 563 387 pd init;
#X obj 652 354 +~ 0.15;
#X obj 573 498 *~ 1;
#X obj 516 498 *~ 1;
#X floatatom 594 467 5 0 1 0 - - - 0;
#X obj 515 546 pp.phiverb~;
#A saved empty_slot \; empty_slot \; empty_slot \; empty_slot \; empty_slot \; empty_slot \; empty_slot \; empty_slot \; empty_slot \; empty_slot \; empty_slot \; empty_slot \; empty_slot \; empty_slot \; empty_slot \; empty_slot \; empty_slot \; empty_slot \; empty_slot \; empty_slot \; empty_slot \;;
#N canvas 262 221 1599 708 init&presets 0;
#X obj 30 452 outlet;
#X text 983 137 hall;
#X text 405 136 large room;
#X text 41 131 small room;
#X text 1186 133 cathedral;
#X obj 195 22 r \$0-reverb-preset;
#X obj 195 45 sel 0 1 2 3;
#X msg 406 152 dry/wet 100 \, predelay 4 \, modulate-early 0.1 \, modulate-late 0.1 \, feedback 30 \, lop 5880 \, hf-damping 30 \, hip 0 \, lf-damping 0 \, mixdown 1 \, early-center 30 \, early-slope -42 \, early-curve 5 \, late-center 23 \, late-slope 32 \, late-curve 5 \, transition-time 20 \, filter 110.8 100 75.4 107.2 60.4 80.7998 112.6 99.4 \, early 46.6667 30 65 33.3333 46.6668 33.3334 46.6667 60 \, late 78 76.8983 74.8841 72.2757 69.1868 65.6832 61.8091 57.5972 53.0725 48.2555 43.1628 37.8087 32.2053 26.3633 20.2921 14 \,;
#X msg 804 157 dry/wet 100 \, predelay 0 \, modulate-early 0.1 \, modulate-late 0.1 \, feedback 62.6263 \, lop 1110 \, hf-damping 75.7576 \, hip 74.9923 \, lf-damping 18.1818 \, mixdown 1 \, early-center 21 \, early-slope 8 \, early-curve -34 \, late-center 28 \, late-slope 47 \, late-curve 5 \, transition-time 20 \, filter 105.4 108.4 104.2 100.6 100 103 107.8 103.6 \, early 18.3333 28.3333 23.3334 11.6667 21.6667 16.6667 23.3333 15 \, late 103 101.382 98.4235 94.5924 90.0556 84.9097 79.2197 73.0334 66.3878 59.3127 51.8329 43.969 35.7391 27.1587 18.2415 9 \,;
#X msg 1191 156 dry/wet 100 \, predelay 50 \, modulate-early 0 \, modulate-late 0.1 \, feedback 55 \, lop 3650 \, hf-damping 66.6667 \, hip 0 \, lf-damping 0 \, mixdown 1 \, early-center 46 \, early-slope 73 \, early-curve 13 \, late-center 42 \, late-slope 75 \, late-curve 13 \, transition-time 10 \, filter 109 105.4 100 97 109 104.2 100 97 \, early 15 25 31.6667 39.7973 59.3056 86.3377 121.418 165 \, late 159 158.704 157.543 155.298 151.825 147.013 140.768 133.01 123.666 112.672 99.9688 85.5005 69.2161 51.0678 31.0101 9 \,;
#X msg 21 154 dry/wet 100 \, predelay 0 \, modulate-early 0 \, modulate-late 0 \, feedback 13 \, lop 1111 \, hf-damping 100 \, hip 0 \, lf-damping 0 \, mixdown 2 \, early-center 30 \, early-slope -42 \, early-curve 5 \, late-center 17 \, late-slope 16 \, late-curve 6 \, transition-time 10 \, filter 107.2 108.4 99.4 94 86.2 100 106.6 107.2 \, early 13.3334 35 41.6667 25 16.6667 30 18.3334 28.3333 \, late 50 49.5798 48.7263 47.5633 46.139 44.4823 42.6134 40.5472 38.2956 35.8684 33.2735 30.5181 27.6079 24.5485 21.3444 18 \,;
#X connect 5 0 6 0;
#X connect 6 0 10 0;
#X connect 6 1 7 0;
#X connect 6 2 8 0;
#X connect 6 3 9 0;
#X connect 7 0 0 0;
#X connect 8 0 0 0;
#X connect 9 0 0 0;
#X connect 10 0 0 0;
#X restore 683 516 pd init&presets;
#X obj 18 470 vradio 18 1 0 4 \$0-reverb-preset \$0-reverb-presetr empty 0 -9 0 10 #fcfcfc #000000 #000000 0;
#X text 38 470 small room;
#X text 38 489 large room;
#X text 39 508 hall;
#X text 39 526 cathedral;
#X text 18 445 select a reverb preset;
#X connect 0 0 29 0;
#X connect 0 0 33 0;
#X connect 1 0 54 0;
#X connect 2 0 51 0;
#X connect 3 0 47 1;
#X connect 4 0 45 1;
#X connect 4 0 46 1;
#X connect 5 0 6 0;
#X connect 6 0 4 0;
#X connect 7 0 2 1;
#X connect 8 0 3 1;
#X connect 10 0 46 1;
#X connect 11 0 45 1;
#X connect 12 0 13 0;
#X connect 13 0 14 0;
#X connect 14 0 0 3;
#X connect 15 0 16 0;
#X connect 16 0 9 2;
#X connect 22 0 24 0;
#X connect 23 0 24 0;
#X connect 30 0 31 0;
#X connect 31 0 28 0;
#X connect 31 0 28 1;
#X connect 32 0 38 0;
#X connect 33 0 47 0;
#X connect 34 0 35 0;
#X connect 35 0 28 2;
#X connect 36 0 31 1;
#X connect 37 0 0 3;
#X connect 38 0 33 1;
#X connect 43 0 8 0;
#X connect 44 0 7 0;
#X connect 45 0 48 0;
#X connect 46 0 3 0;
#X connect 47 0 9 0;
#X connect 47 1 9 1;
#X connect 47 2 53 0;
#X connect 47 3 52 0;
#X connect 48 0 2 0;
#X connect 50 0 47 3;
#X connect 51 0 47 2;
#X connect 52 0 55 1;
#X connect 53 0 55 0;
#X connect 54 0 52 1;
#X connect 54 0 53 1;
#X connect 55 0 9 0;
#X connect 55 1 9 1;
#X connect 56 0 55 4;
