#N canvas 292 75 834 890 10;
#X declare -path ./audio;
#X declare -path ..;
#X obj 399 291 pp.sfplayer~;
#A saved;
#X obj 402 822 pp.out~;
#A saved;
#X obj 657 254 openpanel;
#X obj 657 235 bng 15 250 50 0 empty empty empty 17 7 0 10 #fcfcfc #000000 #000000;
#X obj 434 153 sig~;
#X obj 434 208 *~ 100;
#X obj 390 127 f;
#X obj 407 90 sel 0;
#X obj 462 91 sel 0;
#X obj 433 183 lop~ 1.2;
#X obj 400 660 pp.fft-partconv-st~;
#A saved;
#X obj 513 266 +~;
#X obj 390 6 r \$0-play/pause;
#X obj 462 71 tgl 15 0 empty empty empty 17 7 0 10 #fcfcfc #000000 #000000 0 1;
#X obj 407 69 tgl 15 0 empty empty empty 17 7 0 10 #fcfcfc #000000 #000000 0 1;
#X obj 390 27 tgl 15 0 empty empty empty 17 7 0 10 #fcfcfc #000000 #000000 0 1;
#X obj 407 45 r \$0-rw;
#X obj 462 46 r \$0-ff;
#X obj 499 502 noise~;
#X obj 484 585 +~;
#X obj 399 586 +~;
#X floatatom 668 144 5 0 0 0 - - - 0;
#X obj 528 237 *~ 1;
#X obj 500 553 *~ 1;
#X msg 655 653 dry/wet \$1;
#X obj 655 631 * 100;
#X obj 499 528 *~ 0.005;
#X obj 544 488 r \$0-hiss;
#X floatatom 544 509 5 0 0 0 - - - 0;
#X obj 534 553 r \$0-bypass;
#X obj 565 212 r \$0-bypass;
#X obj 655 585 r \$0-bypass;
#X obj 655 609 == 0;
#X obj 534 574 == 0;
#X obj 565 233 == 0;
#X obj 565 810 r \$0-volume;
#X msg 565 853 volume \$1;
#X obj 573 583 r \$0-tape-IR;
#X obj 573 608 symbol;
#X msg 573 633 loadIR \$1;
#X obj 4 4 cnv 15 380 880 empty empty empty 20 12 0 14 #e0e0e0 #404040 0;
#X obj 28 283 tgl 15 0 \$0-play/pause \$0-play/pauser Play/Pause 20 10 2 12 #fcfcfc #000000 #000000 0 1;
#X obj 202 285 tgl 15 0 \$0-ff \$0-ffr >> 17 7 2 12 #fcfcfc #000000 #000000 0 1;
#X obj 147 285 tgl 15 0 \$0-rw \$0-rwr << 17 7 2 12 #fcfcfc #000000 #000000 0 1;
#X obj 30 326 hsl 200 15 0 0.05 0 0 \$0-hiss \$0-hissr Tape-Hiss -2 -8 2 12 #fcfcfc #000000 #000000 0 1;
#X obj 30 365 hsl 200 15 0 10 0 0 \$0-wowflutter \$0-wowflutterr Wow&Flutter -2 -8 2 12 #fcfcfc #000000 #000000 0 1;
#X obj 27 635 tgl 15 0 \$0-bypass \$0-bypassr Bypass 17 7 2 12 #fcfcfc #000000 #000000 0 1;
#X obj 27 608 s \$0-tape-IR;
#X obj 657 214 r \$0-open;
#X obj 29 218 bng 15 250 50 0 \$0-open \$0-openr open\ Soundfile 20 10 2 12 #fcfcfc #000000 #000000;
#X obj 528 80 pp.lfnoise~ 30;
#A saved;
#X obj 30 257 hsl 200 15 1 100 0 0 \$0-volume \$0-volumer Volume -2 -8 2 12 #fc8000 #000000 #000000 0 1;
#X msg 657 275 open \$1 \, play 1;
#X msg 27 473 IR-Dual-CC3600-1.wav;
#X msg 27 495 IR-Dual-CC3600-2.wav;
#X msg 27 517 IR-Dual-CC3600-3.wav;
#X msg 27 540 IR-Dual-CC3600-4.wav;
#X msg 27 562 IR-Panasonic_TapeDeck-269-1.wav;
#X msg 27 584 IR-Panasonic_TapeDeck-269-2.wav;
#X obj 489 121 * 6;
#X obj 434 121 * -5;
#N canvas 269 95 450 300 init 0;
#X obj 30 212 s \$0-tape-IR;
#X msg 30 186 IR-Dual-CC3600-1.wav;
#X obj 31 41 loadbang;
#X obj 65 148 s \$0-hissr;
#X msg 240 79 \; pd dsp 1;
#X msg 65 127 0.005;
#X obj 134 148 s \$0-wowflutterr;
#X msg 134 127 1;
#X msg 244 128 30;
#X obj 244 151 s \$0-distortr;
#X connect 1 0 0 0;
#X connect 2 0 1 0;
#X connect 2 0 5 0;
#X connect 2 0 7 0;
#X connect 2 0 4 0;
#X connect 2 0 8 0;
#X connect 5 0 3 0;
#X connect 7 0 6 0;
#X connect 8 0 9 0;
#X restore 11 12 pd init;
#N canvas 3 50 450 300 init 0;
#X obj 97 72 loadbang;
#X msg 97 93 steps 1 \, smooth 100;
#X obj 97 114 outlet;
#X connect 0 0 1 0;
#X connect 1 0 2 0;
#X restore 621 57 pd init;
#N canvas 3 50 450 300 init 0;
#X obj 97 72 loadbang;
#X obj 97 114 outlet;
#X msg 97 93 playback-speed 0 \, loop 1;
#X connect 0 0 2 0;
#X connect 2 0 1 0;
#X restore 572 268 pd init;
#X obj 401 796 *~;
#X obj 487 797 *~;
#X obj 502 717 r \$0-play/pause;
#X obj 502 742 sig~;
#X obj 502 768 lop~ 0.5;
#X obj 527 192 +~;
#N canvas 3 50 450 300 init 0;
#X obj 97 72 loadbang;
#X obj 97 114 outlet;
#X msg 97 93 steps 100 \, smooth 100;
#X connect 0 0 2 0;
#X connect 2 0 1 0;
#X restore 740 57 pd init;
#X obj 647 81 pp.lfnoise~ 0.3;
#A saved;
#X obj 668 120 r \$0-wowflutter;
#X obj 528 167 *~ 1;
#X obj 647 174 *~ 1;
#X obj 247 25 declare -path ./audio;
#X obj 278 5 declare -path ..;
#X text 9 102 Emulation of an old cassette deck.;
#X floatatom 565 833 5 0 0 0 - - - 0;
#X text 9 123 For this example I recorded dirac impulses with two old tapedecks. "Dual CC3600" and "Panasonic Tape Deck 269". Both of them were severely broken \, but I managed to retrieve some nice impulse responses that are used with [pp.fft-partconv~] to filter the sound.;
#X obj 398 430 pp.dystort-st~;
#A saved empty_slot \; empty_slot \; empty_slot \; empty_slot \; empty_slot \; empty_slot \; empty_slot \; empty_slot \; empty_slot \; empty_slot \; empty_slot \; empty_slot \; empty_slot \; empty_slot \; empty_slot \; empty_slot \; empty_slot \; empty_slot \; empty_slot \; empty_slot \; empty_slot \;;
#X obj 605 324 r \$0-bypass;
#X obj 605 345 == 0;
#X msg 605 438 dry/wet \$1;
#N canvas 0 0 450 300 init 0;
#X obj 33 112 loadbang;
#X msg 33 134 squeeze 0.8 \, squash 1.8 \, squish 0.1 \, oversample 1 \, responsiveness 9 \, explode 25 \, dry/wet 0 \,;
#X obj 33 170 outlet;
#X connect 0 0 1 0;
#X connect 1 0 2 0;
#X restore 546 383 pd init;
#X obj 30 405 hsl 200 15 0 100 0 0 \$0-distort \$0-distortr Distortion -2 -8 2 12 #fcfcfc #000000 #000000 0 1;
#X obj 655 352 r \$0-distort;
#X obj 605 404 f, f 5;
#X floatatom 655 375 5 0 0 0 - - - 0;
#X obj 605 371 sel 1;
#X text 24 447 load tape filter IR;
#X connect 0 0 80 0;
#X connect 0 1 80 1;
#X connect 2 0 52 0;
#X connect 3 0 2 0;
#X connect 4 0 9 0;
#X connect 5 0 11 0;
#X connect 6 0 4 0;
#X connect 7 0 6 0;
#X connect 7 1 60 0;
#X connect 8 0 6 0;
#X connect 8 1 59 0;
#X connect 9 0 5 0;
#X connect 10 0 64 0;
#X connect 10 1 65 0;
#X connect 11 0 0 2;
#X connect 12 0 15 0;
#X connect 13 0 8 0;
#X connect 14 0 7 0;
#X connect 15 0 6 0;
#X connect 16 0 14 0;
#X connect 17 0 13 0;
#X connect 18 0 26 0;
#X connect 19 0 10 1;
#X connect 20 0 10 0;
#X connect 21 0 73 1;
#X connect 21 0 74 1;
#X connect 22 0 11 1;
#X connect 23 0 19 1;
#X connect 23 0 20 1;
#X connect 24 0 10 3;
#X connect 25 0 24 0;
#X connect 26 0 23 0;
#X connect 27 0 28 0;
#X connect 28 0 26 1;
#X connect 29 0 33 0;
#X connect 30 0 34 0;
#X connect 31 0 32 0;
#X connect 32 0 25 0;
#X connect 33 0 23 1;
#X connect 34 0 22 1;
#X connect 35 0 78 0;
#X connect 36 0 1 2;
#X connect 37 0 38 0;
#X connect 38 0 39 0;
#X connect 39 0 10 3;
#X connect 48 0 3 0;
#X connect 50 0 73 0;
#X connect 52 0 0 3;
#X connect 53 0 47 0;
#X connect 54 0 47 0;
#X connect 55 0 47 0;
#X connect 56 0 47 0;
#X connect 57 0 47 0;
#X connect 58 0 47 0;
#X connect 59 0 4 0;
#X connect 60 0 4 0;
#X connect 62 0 50 1;
#X connect 63 0 0 3;
#X connect 64 0 1 0;
#X connect 65 0 1 1;
#X connect 66 0 67 0;
#X connect 67 0 68 0;
#X connect 68 0 65 1;
#X connect 68 0 64 1;
#X connect 69 0 22 0;
#X connect 70 0 71 1;
#X connect 71 0 74 0;
#X connect 72 0 21 0;
#X connect 73 0 69 0;
#X connect 74 0 69 1;
#X connect 78 0 36 0;
#X connect 80 0 20 0;
#X connect 80 1 19 0;
#X connect 81 0 82 0;
#X connect 82 0 89 0;
#X connect 83 0 80 5;
#X connect 84 0 80 5;
#X connect 86 0 88 0;
#X connect 87 0 83 0;
#X connect 88 0 87 0;
#X connect 89 0 87 0;
#X connect 89 1 83 0;
