#N struct 1006-template float x float y float c float s float th float
stretch array 1006-plus 1006-template-y array 1006-minus 1006-template-y
;
#N struct 1006-template-y float y;
#N struct 1007-template float x float y float c float s float th float
stretch array 1007-plus 1007-template-y array 1007-minus 1007-template-y
;
#N struct 1007-template-y float y;
#N canvas 290 155 812 407 10;
#X declare -path ./audio;
#X declare -path ..;
#X obj 2 2 cnv 15 380 400 empty empty empty 20 12 0 14 -233017 -66577
0;
#X obj 23 118 hsl 200 15 1 100 0 0 \$0-volume \$0-volumer Volume -2
-8 2 12 -260097 -1 -1 17900 1;
#X obj 23 322 hsl 200 15 0 100 0 0 \$0-dry/wet \$0-dry/wetr Dry/Wet
-2 -8 2 12 -262144 -1 -1 19900 1;
#N canvas 529 337 450 300 init 0;
#X obj 164 32 loadbang;
#X obj 164 53 f \$0;
#X obj 233 31 bng 15 250 50 0 empty empty empty 17 7 0 10 -262144 -1
-1;
#X msg 70 61 \; pd dsp 1;
#X msg 163 74 \; \$1-dry/wetr 50 \; \$1-presetsr 0;
#X connect 0 0 1 0;
#X connect 0 0 3 0;
#X connect 1 0 4 0;
#X connect 2 0 1 0;
#X restore 17 11 pd init;
#X obj 568 338 r \$0-volume;
#X floatatom 568 359 5 0 0 0 - - -;
#X msg 568 381 volume \$1;
#X obj 405 346 pp.out~;
#A saved empty_slot \; empty_slot \; empty_slot \; empty_slot \; empty_slot
\; empty_slot \; empty_slot \; empty_slot \; empty_slot \; empty_slot
\; empty_slot \; empty_slot \; empty_slot \; empty_slot \; empty_slot
\; empty_slot \; empty_slot \; empty_slot \; empty_slot \; empty_slot
\; empty_slot \;;
#X obj 405 34 bng 15 250 50 0 empty empty empty 17 7 0 10 -262144 -1
-1;
#X obj 436 141 pp.sfplayer~;
#A saved empty_slot \; empty_slot \; empty_slot \; empty_slot \; empty_slot
\; empty_slot \; empty_slot \; empty_slot \; empty_slot \; empty_slot
\; empty_slot \; empty_slot \; empty_slot \; empty_slot \; empty_slot
\; empty_slot \; empty_slot \; empty_slot \; empty_slot \; empty_slot
\; empty_slot \;;
#X obj 247 26 declare -path ./audio;
#X obj 277 5 declare -path ..;
#N canvas 2 54 450 300 init 0;
#X obj 203 92 outlet;
#X obj 211 39 loadbang;
#X msg 203 69 open Trumpet.wav \, loop 1;
#X connect 1 0 2 0;
#X connect 2 0 0 0;
#X restore 622 142 pd init;
#X msg 551 78 play 1;
#X msg 609 78 stop;
#N canvas 196 263 1266 685 messages 0;
#X obj 26 584 outlet;
#X obj 451 0 r \$0-presets;
#X obj 451 23 sel 0 1 2 3 4 5 6;
#X msg 417 99 feedback 90 \, crossover-frequency 2700 \, damping 70
\, modulation 0.1 \, predelay 0 \, times-center 33 \, times-slope 60
\, times-curve -67 \, angles-center 90 \, angles-slope -90 \, angles-curve
-60 \, gain 14 \, setblock 64 \, early 1.52588e-05 1.52588e-05 1.52588e-05
-1.66664 \, times 55 38.1108 199 24.6324 20.7735 17.6795 15.084 12.8412
10.8617 9.08693 7.47619 6 \, angles 172.5 71.1042 64.4533 60.2464 57.1102
54.5872 52.4653 50.6276 49.0027 47.5434 46.2171 45 \,;
#X msg 805 99 feedback 88 \, crossover-frequency 3000 \, damping 75
\, modulation 0.1 \, predelay 12 \, times-center 33 \, times-slope
34 \, times-curve -359 \, angles-center 45 \, angles-slope 0 \, angles-curve
0 \, gain 5 \, setblock 64 \, early 3.33331 6.66667 11.6666 15 \, times
100 36.2784 35.0701 34.3527 33.8389 33.4376 33.1079 32.8278 32.5843
32.3688 32.1754 32 \, angles 45 45 45 45 45 45 45 45 45 45 45 45 \,
;
#X msg 42 227 feedback 98 \, crossover-frequency 6000 \, damping 80
\, modulation 0 \, predelay 50 \, times-center 31 \, times-slope 39
\, times-curve -28 \, angles-center 100 \, angles-slope 100 \, angles-curve
-21 \, gain 0 \, setblock 64 \, early 3.33336 15 26.6667 41.6667 \,
times 93.3334 59.5004 51.1962 45.5882 41.2303 37.6155 34.5002 31.7471
29.2703 27.0122 24.932 23 \, angles 50 96.1389 107.7 115.762 122.157
127.543 132.24 136.433 140.237 143.732 146.972 150 \,;
#X msg 27 82 feedback 93 \, crossover-frequency 6000 \, damping 30
\, modulation 0.0909091 \, predelay 30.303 \, times-center 22 \, times-slope
40 \, times-curve -50 \, angles-center 90 \, angles-slope -71 \, angles-curve
-57 \, gain 0 \, setblock 64 \, early 1.66666 4.99998 10 18.3333 \,
times 43.3335 30.3556 23.7862 19.5764 16.4123 13.8513 11.687 9.80507
8.13534 6.63136 5.26076 4 \, angles 125.5 75.8606 70.4501 67.0158 64.4499
62.3824 60.6413 59.1317 57.7957 56.595 55.5029 54.5 \,;
#X msg 435 236 feedback 99 \, crossover-frequency 1100 \, damping 50
\, modulation 0.1 \, predelay 100 \, times-center 29 \, times-slope
-52 \, times-curve 16 \, angles-center 90 \, angles-slope -71 \, angles-curve
-43 \, gain 3 \, setblock 64 \, early 3.33334 10 15.0003 146.666 \,
times 6 6.2039 7.23621 9.54755 13.4949 19.3886 27.5083 38.112 51.4408
67.7224 87.1731 110 \, angles 125.5 80.3384 74.0284 69.9362 66.8369
64.3142 62.1728 60.3039 58.6404 57.138 55.7654 54.5 \,;
#X msg 817 235 feedback 99 \, crossover-frequency 13000 \, damping
50 \, modulation 0.2 \, predelay 0 \, times-center 27 \, times-slope
-51 \, times-curve 44 \, angles-center 90 \, angles-slope -71 \, angles-curve
-43 \, gain 10 \, setblock 64 \, early 3.33334 6.66667 8.33337 11.6667
\, times 3 3.00024 3.01025 3.09152 3.43272 4.44384 6.86452 11.884 21.2711
37.5135 63.9649 105 \, angles 169.5 80.3384 74.0284 69.9362 66.8369
64.3142 62.1728 60.3039 58.6404 57.138 55.7654 54.5 \,;
#X msg 49 356 feedback 98 \, crossover-frequency 8300 \, damping 0
\, modulation 0 \, predelay 0 \, times-center 0 \, times-slope -6 \,
times-curve -11 \, angles-center 90 \, angles-slope -90 \, angles-curve
-60 \, gain 0 \, setblock 8 \, early 0 0 0 0 \, times 0 0 0 0.46369
1.41268 2.24371 2.99142 3.67626 4.31152 4.90639 5.46755 6 \, angles
166.5 71.1042 96 121.5 163.5 54.5872 52.4653 50.6276 49.0027 47.5434
46.2171 45 \,;
#X connect 1 0 2 0;
#X connect 2 0 6 0;
#X connect 2 1 3 0;
#X connect 2 2 4 0;
#X connect 2 3 5 0;
#X connect 2 4 7 0;
#X connect 2 5 8 0;
#X connect 2 6 9 0;
#X connect 3 0 0 0;
#X connect 4 0 0 0;
#X connect 5 0 0 0;
#X connect 6 0 0 0;
#X connect 7 0 0 0;
#X connect 8 0 0 0;
#X connect 9 0 0 0;
#X restore 572 229 pd messages;
#X obj 20 251 tgl 17 0 \$0-play \$0-playr empty 17 7 0 10 -262144 -1
-1 1 1;
#X obj 20 192 bng 17 250 50 0 \$0-burst \$0-burstr empty 17 7 0 10
-262144 -1 -1;
#X obj 405 10 r \$0-burst;
#X obj 590 8 r \$0-play;
#X obj 590 52 sel 1 0;
#X text 7 385 Philipp Schmalfuß \, 2019;
#X obj 20 164 hradio 17 1 0 7 \$0-presets \$0-presetsr Presets 0 -8
2 12 -262144 -1 -1 0;
#X text 42 192 <-- burst;
#X text 41 251 <-- play/stop soundfile;
#X obj 588 254 r \$0-dry/wet;
#X msg 588 277 dry/wet \$1;
#X obj 404 266 pp.twisted-delays2~ 12 200;
#A saved empty_slot \; empty_slot \; empty_slot \; empty_slot \; empty_slot
\; empty_slot \; empty_slot \; empty_slot \; empty_slot \; empty_slot
\; empty_slot \; empty_slot \; empty_slot \; empty_slot \; empty_slot
\; empty_slot \; empty_slot \; empty_slot \; empty_slot \; empty_slot
\; empty_slot \;;
#X text 17 61 some reverb presets for pp.twisted-delays2~;
#N canvas 644 178 517 386 excite 0;
#X obj 31 302 outlet~;
#X obj 30 81 line~;
#X obj 30 102 *~;
#X obj 31 136 bp~ 1000 100;
#X obj 31 157 *~ 30;
#X obj 71 161 noise~;
#X obj 56 185 *~;
#X obj 32 214 +~;
#X msg 30 60 1 \, 0 5;
#X obj 30 15 inlet;
#X obj 80 58 random 1000;
#X obj 80 81 + 300;
#X obj 284 148 noise~;
#X obj 313 217 bp~, f 7;
#X obj 297 249 *~;
#X obj 332 160 t f b;
#X obj 333 140 mtof;
#X obj 205 30 t b b b;
#X obj 206 180 *~;
#X obj 333 118 + 84;
#X msg 352 191 5;
#X obj 333 96 random 36;
#X msg 205 118 0 100;
#X msg 244 117 2 0;
#X obj 205 7 inlet;
#X obj 205 150 line~;
#X connect 1 0 2 0;
#X connect 1 0 2 1;
#X connect 2 0 3 0;
#X connect 2 0 6 0;
#X connect 3 0 4 0;
#X connect 4 0 7 0;
#X connect 5 0 6 1;
#X connect 6 0 7 1;
#X connect 7 0 0 0;
#X connect 8 0 1 0;
#X connect 9 0 8 0;
#X connect 9 0 10 0;
#X connect 10 0 11 0;
#X connect 11 0 3 1;
#X connect 12 0 13 0;
#X connect 13 0 14 1;
#X connect 14 0 0 0;
#X connect 15 0 13 1;
#X connect 15 1 20 0;
#X connect 16 0 15 0;
#X connect 17 0 22 0;
#X connect 17 1 23 0;
#X connect 17 2 21 0;
#X connect 18 0 14 0;
#X connect 19 0 16 0;
#X connect 20 0 13 2;
#X connect 21 0 19 0;
#X connect 22 0 25 0;
#X connect 23 0 25 0;
#X connect 24 0 17 0;
#X connect 25 0 18 0;
#X connect 25 0 18 1;
#X restore 405 54 pd excite;
#X f 12;
#X obj 474 34 bng 15 250 50 0 empty empty empty 17 7 0 10 -262144 -1
-1;
#X obj 474 10 r \$0-pish;
#X obj 20 220 bng 17 250 50 0 \$0-pish \$0-pishr empty 17 7 0 10 -262144
-1 -1;
#X text 42 220 <-- pish;
#X obj 20 278 bng 17 250 50 0 \$0-loadsf \$0-loadsfr empty 17 7 0 10
-262144 -1 -1;
#X text 41 277 <-- load soundfile;
#X obj 654 8 r \$0-loadsf;
#X obj 654 52 openpanel;
#X msg 654 75 open \$1;
#X obj 590 32 tgl 15 0 empty empty empty 17 7 0 10 -262144 -1 -1 1
1;
#X obj 654 32 bng 15 250 50 0 empty empty empty 17 7 0 10 -262144 -1
-1;
#X connect 4 0 5 0;
#X connect 5 0 6 0;
#X connect 6 0 7 2;
#X connect 8 0 29 0;
#X connect 9 0 27 0;
#X connect 12 0 9 3;
#X connect 13 0 9 3;
#X connect 14 0 9 3;
#X connect 15 0 27 1;
#X connect 18 0 8 0;
#X connect 19 0 39 0;
#X connect 20 0 13 0;
#X connect 20 1 14 0;
#X connect 25 0 26 0;
#X connect 26 0 27 1;
#X connect 27 0 7 0;
#X connect 27 1 7 1;
#X connect 29 0 27 0;
#X connect 30 0 29 1;
#X connect 31 0 30 0;
#X connect 36 0 40 0;
#X connect 37 0 38 0;
#X connect 38 0 9 3;
#X connect 39 0 20 0;
#X connect 40 0 37 0;
