#N struct 1006-template float x float y float c float s float th float stretch array 1006-plus 1006-template-y array 1006-minus 1006-template-y;
#N struct 1006-template-y float y;
#N struct 1007-template float x float y float c float s float th float stretch array 1007-plus 1007-template-y array 1007-minus 1007-template-y;
#N struct 1007-template-y float y;
#N canvas 547 204 841 413 10;
#X declare -path ./audio;
#X declare -path ..;
#X obj 2 2 cnv 15 380 400 empty empty empty 20 12 0 14 #e0e0e0 #404040 0;
#X obj 23 118 hsl 200 15 1 100 0 0 \$0-volume \$0-volumer Volume -2 -8 2 12 #fc8000 #000000 #000000 0 1;
#X obj 23 343 hsl 200 15 0 100 0 0 \$0-dry/wet \$0-dry/wetr Dry/Wet -2 -8 2 12 #fcfcfc #000000 #000000 0 1;
#N canvas 529 337 450 300 init 0;
#X obj 164 32 loadbang;
#X obj 164 53 f \$0;
#X obj 233 31 bng 15 250 50 0 empty empty empty 17 7 0 10 #fcfcfc #000000 #000000;
#X msg 70 61 \; pd dsp 1;
#X msg 163 74 \; \$1-dry/wetr 50 \; \$1-presetsr 0;
#X connect 0 0 1 0;
#X connect 0 0 3 0;
#X connect 1 0 4 0;
#X connect 2 0 1 0;
#X restore 17 11 pd init;
#X obj 568 338 r \$0-volume;
#X floatatom 568 359 5 0 0 0 - - - 0;
#X msg 568 381 volume \$1;
#X obj 405 346 pp.out~;
#A saved empty_slot \; empty_slot \; empty_slot \; empty_slot \; empty_slot \; empty_slot \; empty_slot \; empty_slot \; empty_slot \; empty_slot \; empty_slot \; empty_slot \; empty_slot \; empty_slot \; empty_slot \; empty_slot \; empty_slot \; empty_slot \; empty_slot \; empty_slot \; empty_slot \;;
#X obj 429 99 bng 15 250 50 0 empty \$0-burst empty 17 7 0 10 #fcfcfc #000000 #000000;
#X obj 464 172 pp.sfplayer~;
#A saved empty_slot \; empty_slot \; empty_slot \; empty_slot \; empty_slot \; empty_slot \; empty_slot \; empty_slot \; empty_slot \; empty_slot \; empty_slot \; empty_slot \; empty_slot \; empty_slot \; empty_slot \; empty_slot \; empty_slot \; empty_slot \; empty_slot \; empty_slot \; empty_slot \;;
#X obj 247 26 declare -path ./audio;
#X obj 277 5 declare -path ..;
#N canvas 2 54 450 300 init 0;
#X obj 203 92 outlet;
#X obj 211 39 loadbang;
#X msg 203 69 open MusicBox.wav \, loop 1;
#X connect 1 0 2 0;
#X connect 2 0 0 0;
#X restore 650 173 pd init;
#X msg 579 109 play 1;
#X msg 637 109 stop;
#N canvas 337 243 1485 685 messages 0;
#X obj 205 649 outlet;
#X obj 451 0 r \$0-presets;
#X obj 451 23 sel 0 1 2 3 4 5 6 7;
#X msg 908 127 max-grains 16 \, int.grain-trigger 1 \, grain-distance 12 \, random-grain-distance 0 \, delay 0 \, random-delay 400 \, grainsize 192 \, random-grainsize 0 \, pitch 1200 \, random-pitch 30 \, panorama -80 \, random-panorama 10 \, amplitude 0 \, random-amplitude 100 \, feedback 94 \, lop 5000 \, hip 114 \, pan-feedback 9 \, random-pan-feedback 10 \, pitch-feedback 0 \, random-pitch-feedback 5 \, env-type 3 \, env-bias 0.483516 \, env-shape 0.461538 \, x-pan 0 \, gain 3 \,;
#X msg 106 290 max-grains 16 \, int.grain-trigger 1 \, grain-distance 5 \, random-grain-distance 0 \, delay 0 \, random-delay 195 \, grainsize 20 \, random-grainsize 60 \, pitch 0 \, random-pitch 30 \, panorama 100 \, random-panorama 25 \, amplitude -3 \, random-amplitude 6 \, feedback 98 \, lop 5000 \, hip 50 \, pan-feedback 10 \, random-pan-feedback 0 \, pitch-feedback 5 \, random-pitch-feedback 0 \, env-type 0 \, env-bias 0.5 \, env-shape 0.38 \, x-pan 1 \, gain 0 \,;
#X msg 513 292 max-grains 16 \, int.grain-trigger 1 \, grain-distance 40 \, random-grain-distance 0 \, delay 3 \, random-delay 30 \, grainsize -640 \, random-grainsize 0 \, pitch 0 \, random-pitch 0 \, panorama 0 \, random-panorama 100 \, amplitude 0 \, random-amplitude 0 \, feedback 95 \, lop 5000 \, hip 100 \, pan-feedback 0 \, random-pan-feedback 0 \, pitch-feedback 0 \, random-pitch-feedback 300 \, env-type 0 \, env-bias 0.912088 \, env-shape 0.461538 \, x-pan 0 \, gain 0 \,;
#X msg 905 287 max-grains 32 \, int.grain-trigger 1 \, grain-distance 6 \, random-grain-distance 0 \, delay 38 \, random-delay 190 \, grainsize -192 \, random-grainsize 0 \, pitch 3600 \, random-pitch 0 \, panorama 100 \, random-panorama 30 \, amplitude 0 \, random-amplitude 0 \, feedback 109 \, lop 7000 \, hip 100 \, pan-feedback 0 \, random-pan-feedback 100 \, pitch-feedback -1200 \, random-pitch-feedback 30 \, env-type 0 \, env-bias 0.934066 \, env-shape 0.461538 \, x-pan 0 \, gain -3 \,;
#X msg 515 126 max-grains 16 \, int.grain-trigger 1 \, grain-distance 8 \, random-grain-distance 0 \, delay 41 \, random-delay 93 \, grainsize 127 \, random-grainsize 0 \, pitch -1200 \, random-pitch 20 \, panorama 0 \, random-panorama 40 \, amplitude 0 \, random-amplitude 0 \, feedback 80 \, lop 5000 \, hip 120 \, pan-feedback 0 \, random-pan-feedback 0 \, pitch-feedback 0 \, random-pitch-feedback 20 \, env-type 0 \, env-bias 0.164835 \, env-shape 0.461538 \, x-pan 0 \, gain 3 \,;
#X msg 123 129 max-grains 16 \, int.grain-trigger 1 \, grain-distance 10 \, random-grain-distance 0 \, delay 20 \, random-delay 80 \, grainsize 40 \, random-grainsize 120 \, pitch 0 \, random-pitch 0 \, panorama 0 \, random-panorama 50 \, amplitude 0 \, random-amplitude 0 \, feedback 90 \, lop 7000 \, hip 50 \, pan-feedback 0 \, random-pan-feedback 0 \, pitch-feedback 0 \, random-pitch-feedback 20 \, env-type 0 \, env-bias 0.5 \, env-shape 0.5 \, x-pan 0 \, gain 0 \,;
#X msg 110 436 max-grains 16 \, int.grain-trigger 1 \, grain-distance 350 \, random-grain-distance 0 \, delay 0 \, random-delay 400 \, grainsize 800 \, random-grainsize 0 \, pitch 1200 \, random-pitch 0 \, panorama -80 \, random-panorama 10 \, amplitude 0 \, random-amplitude 6 \, feedback 97.3154 \, lop 5000 \, hip 114 \, pan-feedback 10 \, random-pan-feedback 10 \, pitch-feedback -662 \, random-pitch-feedback 0 \, env-type 3 \, env-bias 0.483516 \, env-shape 0.461538 \, x-pan 1 \, gain 3 \,;
#X connect 1 0 2 0;
#X connect 2 0 8 0;
#X connect 2 1 7 0;
#X connect 2 2 3 0;
#X connect 2 3 4 0;
#X connect 2 4 5 0;
#X connect 2 5 6 0;
#X connect 2 6 9 0;
#X connect 3 0 0 0;
#X connect 4 0 0 0;
#X connect 5 0 0 0;
#X connect 6 0 0 0;
#X connect 7 0 0 0;
#X connect 8 0 0 0;
#X connect 9 0 0 0;
#X restore 553 234 pd messages;
#X obj 20 272 tgl 17 0 \$0-play \$0-playr empty 17 7 0 10 #fcfcfc #000000 #000000 0 1;
#X obj 20 192 bng 17 250 50 0 \$0-burst \$0-burstr empty 17 7 0 10 #fcfcfc #000000 #000000;
#X obj 618 39 r \$0-play;
#X obj 618 83 sel 1 0;
#X obj 20 164 hradio 17 1 0 7 \$0-presets \$0-presetsr Presets 0 -8 2 12 #fcfcfc #000000 #000000 0;
#X text 42 192 <-- burst;
#X text 41 272 <-- play/stop soundfile;
#X obj 568 263 r \$0-dry/wet;
#X msg 568 286 dry/wet \$1;
#X obj 492 98 bng 15 250 50 0 empty \$0-pish empty 17 7 0 10 #fcfcfc #000000 #000000;
#X obj 20 241 bng 17 250 50 0 \$0-pish \$0-pishr empty 17 7 0 10 #fcfcfc #000000 #000000;
#X text 42 241 <-- pish;
#X obj 20 299 bng 17 250 50 0 \$0-loadsf \$0-loadsfr empty 17 7 0 10 #fcfcfc #000000 #000000;
#X text 41 298 <-- load soundfile;
#X obj 682 39 r \$0-loadsf;
#X obj 682 83 openpanel;
#X msg 682 106 open \$1;
#X obj 618 63 tgl 15 0 empty empty empty 17 7 0 10 #fcfcfc #000000 #000000 0 1;
#X obj 682 63 bng 15 250 50 0 empty empty empty 17 7 0 10 #fcfcfc #000000 #000000;
#N canvas 356 222 1052 531 testtone 0;
#X obj 382 343 *~;
#X obj 496 124 mtof;
#X obj 381 108 vline~;
#X obj 381 174 *~;
#X obj 396 240 osc~;
#X obj 458 243 osc~;
#X obj 458 216 * 3;
#X obj 507 242 osc~;
#X obj 558 242 osc~;
#X obj 613 241 osc~;
#X obj 665 242 osc~;
#X obj 507 215 * 5.01;
#X obj 558 215 * 7.02;
#X obj 613 214 * 9.03;
#X obj 665 215 * 11.04;
#X obj 459 270 *~ 0.3;
#X obj 506 271 *~ 0.2;
#X obj 557 268 *~ 0.15;
#X obj 612 269 *~ 0.1;
#X obj 666 267 *~ 0.1;
#X obj 396 313 +~;
#X obj 460 315 +~;
#X obj 507 316 +~;
#X obj 557 316 +~;
#X obj 612 317 +~;
#X obj 381 366 *~ 0.5;
#X obj 851 155 noise~;
#X obj 880 224 bp~, f 6;
#X obj 859 262 *~;
#X obj 894 174 t f b;
#X obj 895 154 mtof;
#X obj 772 157 vline~;
#X obj 772 192 *~;
#X obj 896 132 + 84;
#X msg 912 198 5;
#X obj 896 109 random 36;
#X obj 441 27 inlet;
#X obj 772 37 inlet;
#X obj 497 102 + 38;
#X obj 497 80 random 58;
#X obj 860 297 clip~ -1 1;
#X obj 441 50 t b b;
#X msg 381 83 0 \, 1 1 \, 0 1000 3;
#X obj 380 464 outlet~;
#X msg 772 125 2 0 \, 0 100;
#X obj 772 64 t b b;
#X obj 134 115 line~;
#X obj 134 136 *~;
#X obj 135 170 bp~ 1000 100;
#X obj 135 191 *~ 30;
#X obj 175 195 noise~;
#X obj 160 219 *~;
#X obj 136 248 +~;
#X msg 134 94 1 \, 0 5;
#X obj 134 49 inlet;
#X obj 184 92 random 1000;
#X obj 184 115 + 300;
#X connect 0 0 25 0;
#X connect 1 0 6 0;
#X connect 1 0 4 0;
#X connect 1 0 11 0;
#X connect 1 0 12 0;
#X connect 1 0 13 0;
#X connect 1 0 14 0;
#X connect 2 0 3 0;
#X connect 2 0 3 1;
#X connect 3 0 0 0;
#X connect 4 0 20 0;
#X connect 5 0 15 0;
#X connect 6 0 5 0;
#X connect 7 0 16 0;
#X connect 8 0 17 0;
#X connect 9 0 18 0;
#X connect 10 0 19 0;
#X connect 11 0 7 0;
#X connect 12 0 8 0;
#X connect 13 0 9 0;
#X connect 14 0 10 0;
#X connect 15 0 21 0;
#X connect 16 0 22 0;
#X connect 17 0 23 0;
#X connect 18 0 24 0;
#X connect 19 0 24 1;
#X connect 20 0 0 1;
#X connect 21 0 20 1;
#X connect 22 0 21 1;
#X connect 23 0 22 1;
#X connect 24 0 23 1;
#X connect 25 0 43 0;
#X connect 26 0 27 0;
#X connect 27 0 28 1;
#X connect 28 0 40 0;
#X connect 29 0 27 1;
#X connect 29 1 34 0;
#X connect 30 0 29 0;
#X connect 31 0 32 0;
#X connect 31 0 32 1;
#X connect 32 0 28 0;
#X connect 33 0 30 0;
#X connect 34 0 27 2;
#X connect 35 0 33 0;
#X connect 36 0 41 0;
#X connect 37 0 45 0;
#X connect 38 0 1 0;
#X connect 39 0 38 0;
#X connect 40 0 43 0;
#X connect 41 0 42 0;
#X connect 41 1 39 0;
#X connect 42 0 2 0;
#X connect 44 0 31 0;
#X connect 45 0 44 0;
#X connect 45 1 35 0;
#X connect 46 0 47 0;
#X connect 46 0 47 1;
#X connect 47 0 48 0;
#X connect 47 0 51 0;
#X connect 48 0 49 0;
#X connect 49 0 52 0;
#X connect 50 0 51 1;
#X connect 51 0 52 1;
#X connect 52 0 43 0;
#X connect 53 0 46 0;
#X connect 54 0 53 0;
#X connect 54 0 55 0;
#X connect 55 0 56 0;
#X connect 56 0 48 1;
#X restore 429 122 pd testtone;
#X obj 20 217 bng 17 250 50 0 \$0-beep \$0-beepr empty 17 7 0 10 #fcfcfc #000000 #000000;
#X text 42 217 <-- beep;
#X obj 460 98 bng 15 250 50 0 empty \$0-beep empty 17 7 0 10 #fcfcfc #000000 #000000;
#X obj 405 20 adc~;
#X obj 405 55 *~;
#X obj 432 55 tgl 18 0 empty empty empty 0 -9 0 10 #fcfcfc #000000 #000000 0 1;
#X text 453 54 mic. in;
#X text 17 61 some presets for pp.grainrev~;
#X obj 405 275 pp.grainrev~ 2000 16;
#A saved empty_slot \; empty_slot \; empty_slot \; empty_slot \; empty_slot \; empty_slot \; empty_slot \; empty_slot \; empty_slot \; empty_slot \; empty_slot \; empty_slot \; empty_slot \; empty_slot \; empty_slot \; empty_slot \; empty_slot \; empty_slot \; empty_slot \; empty_slot \; empty_slot \;;
#X connect 4 0 5 0;
#X connect 5 0 6 0;
#X connect 6 0 7 2;
#X connect 8 0 35 0;
#X connect 9 0 44 0;
#X connect 12 0 9 3;
#X connect 13 0 9 3;
#X connect 14 0 9 3;
#X connect 15 0 44 1;
#X connect 18 0 33 0;
#X connect 19 0 13 0;
#X connect 19 1 14 0;
#X connect 23 0 24 0;
#X connect 24 0 44 1;
#X connect 25 0 35 2;
#X connect 30 0 34 0;
#X connect 31 0 32 0;
#X connect 32 0 9 3;
#X connect 33 0 19 0;
#X connect 34 0 31 0;
#X connect 35 0 44 0;
#X connect 38 0 35 1;
#X connect 39 0 40 0;
#X connect 40 0 44 0;
#X connect 41 0 40 1;
#X connect 44 0 7 0;
#X connect 44 1 7 1;
