#N struct 1005-template float x float y float c float s float th float stretch array 1005-plus 1005-template-y array 1005-minus 1005-template-y;
#N struct 1005-template-y float y;
#N struct 1006-template float x float y float c float s float th float stretch array 1006-plus 1006-template-y array 1006-minus 1006-template-y;
#N struct 1006-template-y float y;
#N canvas 61 42 1514 718 10;
#X declare -path ..;
#X declare -path ./audio;
#X obj 4 1 cnv 15 380 700 empty empty empty 20 12 0 14 #e0e0e0 #404040 0;
#N canvas 715 199 450 300 init 0;
#X obj 89 46 loadbang;
#X msg 89 81 \; pd dsp 1;
#X connect 0 0 1 0;
#X restore 11 9 pd init;
#X obj 23 127 hsl 200 15 1 100 0 0 \$0-volume \$0-volumer Volume -2 -8 2 12 #fc8000 #000000 #000000 0 1;
#X obj 278 6 declare -path ..;
#X obj 465 250 pp.sfplayer~;
#A saved empty_slot \; normalize 0 | loop 1 | position% 25.2525 | position 3746 | playback-speed 100 | play 0 | open /home/philipp/Documents/Pd/00samples/elec-drum.wav | \; empty_slot \; empty_slot \; empty_slot \; empty_slot \; empty_slot \; empty_slot \; empty_slot \; empty_slot \; empty_slot \; empty_slot \; empty_slot \; empty_slot \; empty_slot \; empty_slot \; empty_slot \; empty_slot \; empty_slot \; empty_slot \; empty_slot \;;
#X obj 464 637 pp.out~;
#A saved empty_slot \; empty_slot \; empty_slot \; empty_slot \; empty_slot \; empty_slot \; empty_slot \; empty_slot \; empty_slot \; empty_slot \; empty_slot \; empty_slot \; empty_slot \; empty_slot \; empty_slot \; empty_slot \; empty_slot \; empty_slot \; empty_slot \; empty_slot \; empty_slot \;;
#X obj 912 176 tgl 15 0 empty empty empty 17 7 0 10 #fcfcfc #000000 #000000 0 1;
#X obj 1247 366 random 200;
#X obj 775 190 tgl 15 0 empty empty empty 17 7 0 10 #fcfcfc #000000 #000000 0 1;
#X msg 775 286 angles-center \$1;
#X obj 775 237 random 100;
#X obj 775 262 + 25;
#X obj 864 95 tgl 15 0 empty empty empty 17 7 0 10 #fcfcfc #000000 #000000 0 1;
#N canvas 0 50 450 250 (subpatch) 0;
#X array \$0-glitchtimes 18 float 3;
#A 0 0 140 140 140 140 140 140 140 140 140 140 140 140 140 140 140 140 140;
#X coords 0 200 18 0 200 140 1 0 0;
#X restore 1158 510 graph;
#X obj 1000 338 list prepend times;
#X obj 1000 361 list trim;
#X obj 1161 340 * -10;
#X obj 1161 285 random 200;
#X obj 465 487 pp.twisted-delays2~ 18 200;
#A saved empty_slot \; angles 70 71.1311 71.9278 72.6334 73.2857 73.9009 74.4883 75.0533 75.6 76.131 76.6486 77.1544 77.6496 78.1354 78.6127 79.0821 79.5444 80 | times 28 28 28 28 28 28 28 28 28 28 28 28 28 28 28 28 28 28 | early 1.42763 3.05176e-05 1.66669 1.66669 | setblock 16 | transition-time 100 | gain 0 | angles-curve -3 | angles-slope 10 | angles-center 75 | times-curve -3 | times-slope -900 | times-center 66 | predelay 0 | modulation-frequency 0.1 | modulation 0.1 | damping 50 | crossover-frequency 7000 | feedback 102 | dry/wet 100 | \; empty_slot \; empty_slot \; empty_slot \; empty_slot \; empty_slot \; empty_slot \; empty_slot \; empty_slot \; empty_slot \; empty_slot \; empty_slot \; empty_slot \; empty_slot \; empty_slot \; empty_slot \; empty_slot \; empty_slot \; empty_slot \; empty_slot \;;
#X msg 638 166 play \$1;
#X obj 1204 416 f 66;
#X obj 1247 389 - 100;
#X obj 1161 314 t f b b f, f 22;
#N canvas 592 122 645 561 delay 0;
#X obj 74 244 until;
#X obj 74 273 f;
#X obj 112 275 + 1;
#X msg 126 240 0;
#X obj 74 364 pow, f 19;
#X obj 74 178 t b b;
#X obj 74 299 t float float;
#X obj 296 111 moses;
#X obj 328 147 + 1;
#X obj 296 160 abs;
#X obj 296 208 expr 1/$f1;
#X obj 296 136 - 1;
#X obj 296 87 / 10;
#X obj 173 180 + 50;
#X obj 173 151 * -0.5;
#X obj 74 428 * 1, f 4;
#X obj 74 454 +;
#X obj 74 101 t b f f;
#X obj 74 497 clip 0 100;
#X obj 74 42 / 100;
#X obj 74 80 *;
#X obj 194 42 / 100;
#X obj 194 80 *;
#X obj 74 395 expr 1-$f1;
#X obj 74 19 inlet;
#X text 111 17 slope;
#X obj 296 27 inlet;
#X text 334 27 curve;
#X obj 194 19 inlet;
#X text 233 19 center;
#X obj 509 27 inlet;
#X obj 74 219 f 18;
#X obj 74 329 / 17;
#X text 546 26 max time;
#X obj 74 538 tabwrite \$0-glitchtimes;
#X connect 0 0 1 0;
#X connect 1 0 2 0;
#X connect 1 0 6 0;
#X connect 2 0 1 1;
#X connect 3 0 1 1;
#X connect 4 0 23 0;
#X connect 5 0 31 0;
#X connect 5 1 3 0;
#X connect 6 0 32 0;
#X connect 6 1 34 1;
#X connect 7 0 11 0;
#X connect 7 1 8 0;
#X connect 8 0 4 1;
#X connect 9 0 10 0;
#X connect 10 0 4 1;
#X connect 11 0 9 0;
#X connect 12 0 7 0;
#X connect 13 0 16 1;
#X connect 14 0 13 0;
#X connect 15 0 16 0;
#X connect 16 0 18 0;
#X connect 17 0 5 0;
#X connect 17 1 15 1;
#X connect 17 2 14 0;
#X connect 18 0 34 0;
#X connect 19 0 20 0;
#X connect 20 0 17 0;
#X connect 21 0 22 0;
#X connect 22 0 13 1;
#X connect 23 0 15 0;
#X connect 24 0 19 0;
#X connect 26 0 12 0;
#X connect 28 0 21 0;
#X connect 30 0 22 1;
#X connect 30 0 20 1;
#X connect 30 0 18 2;
#X connect 31 0 0 0;
#X connect 32 0 4 0;
#X restore 1161 444 pd delay times;
#X f 22;
#X text 1157 465 generate custom del times array for maximum glitchiness;
#X text 989 409 read from custom array;
#X obj 912 198 metro 500;
#X obj 912 452 sel 2 3, f 10;
#X msg 912 556 transition-time \$1;
#X obj 912 221 t b b b, f 30;
#X obj 638 110 tgl 15 0 empty empty empty 17 7 0 10 #fcfcfc #000000 #000000 0 1;
#X obj 912 429 random 8;
#X obj 775 212 metro 50;
#X obj 963 173 + 211;
#X msg 912 476 50;
#X msg 940 500 200;
#N canvas 982 340 450 300 init 0;
#X obj 39 49 loadbang;
#X obj 39 197 outlet;
#X msg 39 69 dry/wet 50 \, feedback 102 \, crossover-frequency 7000 \, damping 50 \, modulation 0.1 \, modulation-frequency 0.1 \, predelay 0 \, times-center 66 \, times-slope -900 \, times-curve -3 \, angles-center 115 \, angles-slope 10 \, angles-curve -3 \, gain 0 \, transition-time 5 \, setblock 8 \, early 0 0 0 0 \, times 0 129 129 129 129 129 129 129 129 129 129 129 129 129 129 129 129 129 \, angles 26 27.1311 27.9278 28.6334 29.2857 29.9009 30.4883 31.0533 31.6 32.131 32.6486 33.1544 33.6496 34.1354 34.6127 35.0821 35.5444 36 \,;
#X connect 0 0 2 0;
#X connect 2 0 1 0;
#X restore 646 487 pd init;
#N canvas 982 340 450 300 init 0;
#X obj 39 49 loadbang;
#X obj 39 197 outlet;
#X msg 39 69 open MusicBox.wav \, playback-speed 75 \, loop 1;
#X connect 0 0 2 0;
#X connect 2 0 1 0;
#X restore 651 232 pd init;
#X obj 1000 315 array get \$0-glitchtimes;
#X msg 969 531 5;
#N canvas 0 0 450 300 cpumeter 0;
#X obj 68 135 cputime;
#X obj 68 18 loadbang;
#X obj 68 79 metro 1000;
#X obj 68 107 t b b;
#X obj 68 195 * 0.1;
#X obj 68 164 int;
#X obj 68 49 tgl 19 0 empty empty empty 17 7 0 10 #dfdfdf #000000 #000000 0 1;
#X text 92 49 <-- on/off;
#X obj 68 218 outlet;
#X connect 0 0 5 0;
#X connect 1 0 6 0;
#X connect 2 0 3 0;
#X connect 3 0 0 0;
#X connect 3 1 0 1;
#X connect 4 0 8 0;
#X connect 5 0 4 0;
#X connect 6 0 2 0;
#X restore 268 647 pd cpumeter;
#X floatatom 268 670 5 0 0 0 - - - 0;
#X text 303 671 % cpu usage;
#X obj 21 183 tgl 18 0 empty empty Automate 22 10 2 12 #ffe3c6 #000000 #000000 0 1;
#N canvas 0 0 450 300 auto 0;
#X obj 73 105 random 100;
#X obj 73 151 change;
#X obj 41 185 outlet;
#X obj 73 57 metro 500;
#X obj 135 35 random 1000;
#X obj 135 58 + 50;
#X obj 73 128 < 40;
#X obj 41 14 inlet;
#X connect 0 0 6 0;
#X connect 1 0 2 0;
#X connect 3 0 0 0;
#X connect 3 0 4 0;
#X connect 4 0 5 0;
#X connect 5 0 3 1;
#X connect 6 0 1 0;
#X connect 7 0 3 0;
#X connect 7 0 2 0;
#X restore 21 210 pd auto;
#X msg 19 339 MusicBox.wav;
#X msg 19 317 ElecDrum.wav;
#X obj 248 26 declare -path ./audio;
#X obj 21 238 tgl 18 0 \$0-start empty Start-Stop 22 10 2 12 #ff8300 #000000 #000000 0 1;
#X obj 864 69 r \$0-start;
#X msg 20 540 setblock \$1;
#X msg 156 491 4;
#X msg 192 491 1;
#X msg 92 491 16;
#X msg 59 491 512;
#X msg 20 491 1024;
#X text 16 294 load Soundfile;
#X obj 148 315 bng 18 250 50 0 empty empty empty 20 10 2 12 #fcfcfc #000000 #000000;
#X obj 148 342 openpanel;
#X text 145 295 load Soundfile from Disk;
#X obj 148 365 s \$0-fromDisk;
#X obj 19 365 s \$0-openFile;
#N canvas 0 0 450 300 open 0;
#X obj 64 53 symbol;
#X obj 64 30 r \$0-openFile;
#X msg 64 92 open \$1 \, playback-speed 75;
#X obj 63 169 outlet;
#X obj 247 29 r \$0-fromDisk;
#X msg 247 91 open \$1 \, playback-speed 100;
#X connect 0 0 2 0;
#X connect 1 0 0 0;
#X connect 2 0 3 0;
#X connect 4 0 5 0;
#X connect 5 0 3 0;
#X restore 651 201 pd open;
#X obj 633 424 r \$0-params;
#X obj 912 579 s \$0-params;
#X obj 775 309 s \$0-params;
#X obj 1000 386 s \$0-params;
#X obj 20 563 s \$0-params;
#X msg 123 491 8;
#X text 13 433 set different blocksizes in pp.twisted-delays2~. Smaller blocksizes allow for high pitched feedack noises but result in higher cpu usage.;
#X obj 625 612 r \$0-volume;
#X msg 625 637 volume \$1;
#X connect 4 0 18 0;
#X connect 6 0 26 0;
#X connect 7 0 21 0;
#X connect 8 0 32 0;
#X connect 9 0 65 0;
#X connect 10 0 11 0;
#X connect 11 0 9 0;
#X connect 12 0 6 0;
#X connect 12 0 8 0;
#X connect 12 0 30 0;
#X connect 14 0 15 0;
#X connect 15 0 66 0;
#X connect 16 0 23 0;
#X connect 17 0 22 0;
#X connect 17 0 33 0;
#X connect 18 0 5 0;
#X connect 18 1 5 1;
#X connect 19 0 4 3;
#X connect 20 0 23 1;
#X connect 21 0 23 2;
#X connect 22 0 16 0;
#X connect 22 1 20 0;
#X connect 22 2 7 0;
#X connect 22 3 23 3;
#X connect 26 0 29 0;
#X connect 27 0 34 0;
#X connect 27 1 35 0;
#X connect 27 2 39 0;
#X connect 28 0 64 0;
#X connect 29 0 31 0;
#X connect 29 1 38 0;
#X connect 29 2 17 0;
#X connect 30 0 19 0;
#X connect 31 0 27 0;
#X connect 32 0 10 0;
#X connect 33 0 26 1;
#X connect 34 0 28 0;
#X connect 35 0 28 0;
#X connect 36 0 18 1;
#X connect 37 0 4 3;
#X connect 38 0 14 0;
#X connect 39 0 28 0;
#X connect 40 0 41 0;
#X connect 43 0 44 0;
#X connect 44 0 48 0;
#X connect 45 0 61 0;
#X connect 46 0 61 0;
#X connect 49 0 12 0;
#X connect 50 0 67 0;
#X connect 51 0 50 0;
#X connect 52 0 50 0;
#X connect 53 0 50 0;
#X connect 54 0 50 0;
#X connect 55 0 50 0;
#X connect 57 0 58 0;
#X connect 58 0 60 0;
#X connect 62 0 4 3;
#X connect 63 0 18 1;
#X connect 68 0 50 0;
#X connect 70 0 71 0;
#X connect 71 0 5 2;
