#N struct 1026-template float x float y float c float s float th float stretch array 1026-plus 1026-template-y array 1026-minus 1026-template-y;
#N struct 1026-template-y float y;
#N canvas 227 56 977 814 10;
#X declare -path ./audio;
#X declare -path ..;
#X obj 2 2 cnv 15 380 800 empty empty empty 20 12 0 14 #e0e0e0 #404040 0;
#X obj 463 742 pp.out~;
#A saved empty_slot \; empty_slot \; empty_slot \; empty_slot \; empty_slot \; empty_slot \; empty_slot \; empty_slot \; empty_slot \; empty_slot \; empty_slot \; empty_slot \; empty_slot \; empty_slot \; empty_slot \; empty_slot \; empty_slot \; empty_slot \; empty_slot \; empty_slot \; empty_slot \;;
#X obj 242 31 declare -path ./audio;
#X msg 779 496 grainsize \$1;
#X obj 636 283 metro;
#X obj 636 306 f;
#X obj 668 309 + 1;
#X obj 636 330 t f f;
#X obj 636 385 pack;
#X obj 663 353 *;
#X msg 59 469 60000;
#X obj 617 37 bng 18 250 50 0 empty \$0-start empty 0 -9 0 10 #fcfcfc #000000 #000000;
#X obj 694 124 del;
#X msg 651 256 0;
#X msg 636 410 position \$2 \, \$1;
#X obj 463 674 clone -d pp.doppler~ 20;
#X obj 463 534 pp.grainer-mc~ 20;
#A saved empty_slot \; empty_slot \; empty_slot \; empty_slot \; empty_slot \; empty_slot \; empty_slot \; empty_slot \; empty_slot \; empty_slot \; empty_slot \; empty_slot \; empty_slot \; empty_slot \; empty_slot \; empty_slot \; empty_slot \; empty_slot \; empty_slot \; empty_slot \; empty_slot \;;
#X obj 508 597 *~ 100;
#X obj 508 620 -~ 50;
#X msg 59 374 5000;
#X obj 730 123 / 2;
#X obj 730 240 / 20;
#X obj 463 714 clone -di pp.pan~ 20, f 23;
#N canvas 0 276 450 300 init 0;
#X obj 54 102 outlet;
#X obj 54 39 loadbang;
#X msg 54 79 open Trumpet.wav \, env-shape 0.4;
#X connect 1 0 2 0;
#X connect 2 0 0 0;
#X restore 647 449 pd init;
#X obj 636 201 spigot 1;
#X msg 694 173 1;
#X msg 650 173 0;
#X text 8 78 Train of sounds! A philosophical reflection on time and space. And sound. And how we hear sounds while remembering them in the past \, in the present \, in the future \, in the back and forth and left and right.;
#X msg 59 421 20000;
#X obj 24 292 bng 20 250 50 0 \$0-start \$0-startr empty 0 -9 0 10 #ff8300 #000000 #000000;
#X text 51 294 let the train pass by;
#X msg 59 445 40000;
#X obj 272 9 declare -path ..;
#X obj 24 254 hsl 200 15 1 100 0 0 \$0-volume \$0-volumer Volume -2 -8 2 12 #fc8000 #000000 #000000 0 1;
#X obj 625 737 r \$0-volume;
#X msg 625 777 volume \$1;
#X floatatom 625 757 5 0 0 0 - - - 0;
#X text 696 204 no train while the track is occupied;
#X text 8 142 This patch makes use of pd's multi-channel signal connections. A train of 20 sound wagons (long grains with different starting positions) is generated in [pp.grainer-mc~]. To each of them a doppler and panning effect is applied with the abstractions inside [clone].;
#X obj 35 659 s \$0-wagon-spacing;
#X msg 63 547 1.5;
#X msg 63 573 2;
#X msg 63 601 3;
#X msg 63 626 4;
#X obj 745 293 r \$0-wagon-spacing;
#X text 23 344 try different train speeds;
#X obj 33 498 s \$0-duration;
#X text 95 374 fast;
#X text 100 469 slow;
#X obj 818 66 r \$0-duration;
#X text 35 524 set the wagon spacing;
#X text 90 549 close;
#X text 90 626 distant;
#X obj 12 711 bng 18 250 50 0 empty empty empty 20 10 2 12 #fcfcfc #000000 #000000;
#X obj 12 738 openpanel;
#X obj 12 761 s \$0-fromDisk;
#X obj 657 472 r \$0-fromDisk;
#X msg 657 495 open \$1;
#X text 34 703 load soundfile. soundfiles should be sufficiently long!;
#X text 33 716 (> 2min);
#X obj 730 321 * 2;
#X obj 617 57 t b b b;
#X floatatom 678 385 10 0 0 0 - - - 0;
#X text 687 366 start position for each grain;
#X msg 59 397 10000;
#X obj 779 90 f 10000;
#X text 741 385 ms;
#X floatatom 759 322 5 0 0 0 - - - 0;
#X floatatom 833 91 5 0 0 0 - - - 0;
#X text 552 595 mc~ ramps range to -50 \, 50 for doppler x trajectory;
#X obj 554 648 sig~ 1;
#X floatatom 554 629 5 1 20 0 - - - 0;
#X text 589 628 distance of the passing train;
#X connect 3 0 16 1;
#X connect 4 0 5 0;
#X connect 5 0 6 0;
#X connect 5 0 7 0;
#X connect 6 0 5 1;
#X connect 7 0 8 0;
#X connect 7 1 9 0;
#X connect 8 0 14 0;
#X connect 9 0 8 1;
#X connect 9 0 62 0;
#X connect 10 0 46 0;
#X connect 11 0 61 0;
#X connect 12 0 13 0;
#X connect 12 0 25 0;
#X connect 13 0 4 0;
#X connect 13 0 5 1;
#X connect 14 0 16 1;
#X connect 15 0 22 0;
#X connect 15 1 22 1;
#X connect 16 0 15 0;
#X connect 16 1 17 0;
#X connect 17 0 18 0;
#X connect 18 0 15 1;
#X connect 19 0 46 0;
#X connect 20 0 12 1;
#X connect 20 0 21 0;
#X connect 21 0 4 1;
#X connect 21 0 60 0;
#X connect 22 0 1 0;
#X connect 22 1 1 1;
#X connect 23 0 16 1;
#X connect 24 0 4 0;
#X connect 25 0 24 1;
#X connect 26 0 24 1;
#X connect 28 0 46 0;
#X connect 31 0 46 0;
#X connect 34 0 36 0;
#X connect 35 0 1 2;
#X connect 36 0 35 0;
#X connect 40 0 39 0;
#X connect 41 0 39 0;
#X connect 42 0 39 0;
#X connect 43 0 39 0;
#X connect 44 0 60 1;
#X connect 44 0 67 0;
#X connect 49 0 65 1;
#X connect 49 0 68 0;
#X connect 53 0 54 0;
#X connect 54 0 55 0;
#X connect 56 0 57 0;
#X connect 57 0 16 1;
#X connect 60 0 9 1;
#X connect 61 0 26 0;
#X connect 61 1 12 0;
#X connect 61 1 24 0;
#X connect 61 2 65 0;
#X connect 64 0 46 0;
#X connect 65 0 20 0;
#X connect 65 0 3 0;
#X connect 70 0 15 2;
#X connect 71 0 70 0;
