#N struct 1005-template float x float y float c float s float th float
stretch array 1005-plus 1005-template-y array 1005-minus 1005-template-y
;
#N struct 1005-template-y float y;
#N struct 1006-template float x float y float c float s float th float
stretch array 1006-plus 1006-template-y array 1006-minus 1006-template-y
;
#N struct 1006-template-y float y;
#N struct 1008-template float x float y float c float s float th float
stretch array 1008-plus 1008-template-y array 1008-minus 1008-template-y
;
#N struct 1008-template-y float y;
#N struct 1138-template float x float y float c float s float th float
stretch array 1138-plus 1138-template-y array 1138-minus 1138-template-y
;
#N struct 1138-template-y float y;
#N struct 1141-xt float x float y;
#N struct 1141-yt float x float y;
#N struct 1149-template float x float y float c float s float th float
stretch array 1149-plus 1149-template-y array 1149-minus 1149-template-y
;
#N struct 1149-template-y float y;
#N struct 1150-template float x float y float c float s float th float
stretch array 1150-plus 1150-template-y array 1150-minus 1150-template-y
;
#N struct 1150-template-y float y;
#N struct 1161-template float x float y float c float s float th float
stretch array 1161-plus 1161-template-y array 1161-minus 1161-template-y
;
#N struct 1161-template-y float y;
#N canvas 0 49 1363 719 10;
#X obj 44 157 pp.fft-stretch~;
#X obj 44 113 pp.grainer~;
#X obj 296 236 pp.dynamics~;
#X obj 293 480 pp.fft-gate~;
#X obj 762 113 pp.record~;
#X obj 762 282 pp.spectrum~;
#X obj 903 66 pp.out~;
#X obj 294 520 pp.fft-pitchshift~;
#X obj 489 481 pp.fft-gate-st~;
#X obj 43 387 pp.pan~;
#X obj 297 69 pp.freqshift~;
#X obj 480 68 pp.freqshift-st~;
#X obj 44 71 pp.sfplayer~;
#X obj 480 107 pp.pitchshift-st~ 50;
#X obj 296 109 pp.pitchshift~ 50;
#X obj 294 436 pp.fft-split~;
#X obj 489 436 pp.fft-split-st~;
#X obj 296 151 pp.filter~;
#X obj 480 149 pp.filter-st~;
#X obj 481 191 pp.vcfilter-st~;
#X obj 296 194 pp.vcfilter~;
#X obj 490 521 pp.fft-pitchshift-st~;
#X obj 480 234 pp.dynamics-st~;
#X obj 294 383 pp.fft-block~;
#X obj 488 383 pp.fft-block-st~;
#X obj 294 562 pp.fft-timbre~;
#X obj 489 563 pp.fft-timbre-st~;
#X obj 296 277 pp.env~;
#X obj 42 433 pp.spat8~;
#X obj 42 478 pp.doppler~;
#X obj 488 604 pp.fft-partconv-st~;
#X obj 762 241 pp.lfnoise~;
#X obj 293 603 pp.fft-partconv~;
#X obj 762 202 pp.sdel~;
#X obj 1278 17 switch~ 0;
#X obj 480 276 pp.env-st~;
#X obj 762 67 pp.in~;
#X obj 762 159 pp.mult~;
#X text 45 24 Soundfile processing;
#X text 300 24 Effects;
#X text 487 47 stereo;
#X text 301 46 mono;
#X text 295 343 Spectral processing;
#X text 297 363 mono;
#X text 496 364 stereo;
#X text 42 343 Spatialisation;
#X text 763 34 Misc.;
