#N canvas 115 83 1083 593 10;
#X obj 841 33 inlet;
#X text 518 231 speed of sound 343 m/s;
#X obj 381 251 *~;
#X obj 366 271 /~;
#X obj 256 417 *~;
#X obj 597 178 *~;
#X obj 245 544 outlet~;
#X obj 210 432 *~;
#X obj 509 250 /~ 0.343;
#X obj 638 467 outlet~ phase;
#X obj 433 464 *~;
#X obj 847 512 outlet;
#X obj 543 334 r \$0-ampmod;
#X obj 849 486 t b a;
#X obj 366 41 r \$0-pitchmod;
#X obj 366 104 line~;
#X msg 366 83 \$1 100;
#X msg 543 373 1 \$1;
#X obj 543 392 -;
#X obj 543 432 line~;
#X msg 543 411 \$1 10;
#X obj 319 415 line~;
#X msg 319 394 \$1 10;
#X obj 283 417 *~;
#X obj 638 418 *~;
#X obj 709 416 line~;
#X msg 709 395 \$1 10;
#X obj 709 354 r \$0-panmod;
#N canvas 186 269 494 300 in 0;
#X obj 31 56 inlet;
#X obj 31 181 s \$0-distancer;
#X obj 202 181 s \$0-pitchmodr;
#X obj 294 180 s \$0-panmodr;
#X obj 123 181 s \$0-ampmodr;
#X obj 31 77 route distance amp-mod pitch-mod pan-mod damping;
#X obj 376 181 s \$0-dampingr;
#X connect 0 0 5 0;
#X connect 5 0 1 0;
#X connect 5 1 4 0;
#X connect 5 2 2 0;
#X connect 5 3 3 0;
#X connect 5 4 6 0;
#X restore 841 58 pd in;
#N canvas 370 196 600 343 stuff 0;
#X obj 90 69 loadbang;
#X obj 90 90 f \$0;
#X obj 309 192 s \$0-visbngr;
#X obj 291 87 r \$0-visbng;
#X msg 289 164 color 0 0;
#X msg 373 164 color 10 10;
#X obj 291 109 t b;
#X obj 371 139 del 250;
#X obj 255 241 s pd-\$0-doppler;
#X msg 255 219 relocate 230x149+1+1 1x1+50+60 \, vis 1;
#X msg 89 111 \; \$1-pitchmodr 100 \; \$1-panmodr 100 \; \$1-ampmodr
100 \; \$1-damping 0 \;;
#X connect 0 0 1 0;
#X connect 1 0 10 0;
#X connect 3 0 6 0;
#X connect 4 0 2 0;
#X connect 5 0 2 0;
#X connect 6 0 4 0;
#X connect 6 0 7 0;
#X connect 6 0 9 0;
#X connect 7 0 5 0;
#X connect 9 0 8 0;
#X restore 841 89 pd stuff;
#X obj 709 375 / 100;
#X obj 366 62 / 100;
#X obj 103 115 hsl 150 15 0 127 0 0 \$0-visbng \$0-visbngr empty 50
8 2 10 -233017 -233017 -1 0 1;
#N canvas 50 87 230 149 \$0-doppler 0;
#N canvas 515 97 714 345 mask 0;
#X obj 100 100 cnv 15 219 143 empty empty empty 20 12 0 14 -262144
-66577 0;
#X obj 214 109 cnv 10 10 10 empty empty doppler~ 0 5 2 17 -262144 -162280
0;
#X obj 113 136 hsl 128 12 0 500 0 0 \$0-pgui \$0-pguir Pitch-mod -2
-6 2 10 -262144 -1 -1 2540 1;
#X obj 247 136 nbx 5 12 0 1e+17 0 0 \$0-pitchmod \$0-pitchmodr % 47
7 2 10 -262144 -1 -1 100 256;
#X obj 113 163 hsl 128 12 0 100 0 0 \$0-agui \$0-aguir Amp-mod -2 -6
2 10 -262144 -1 -1 12700 1;
#X obj 247 163 nbx 5 12 0 1000 0 0 \$0-ampmod \$0-ampmodr % 47 7 2
10 -262144 -1 -1 100 256;
#X obj 113 190 hsl 128 12 0 100 0 0 \$0-pgui \$0-pguir Pan-mod -2 -6
2 10 -262144 -1 -1 12700 1;
#X obj 247 190 nbx 5 12 0 100 0 0 \$0-panmod \$0-panmodr % 47 7 2 10
-262144 -1 -1 100 256;
#X msg 22 115 set \$1;
#X msg 23 142 set \$1;
#X msg 25 173 set \$1;
#X obj 113 216 hsl 128 12 0 100 0 0 \$0-dgui \$0-dguir Damping -2 -6
2 10 -262144 -1 -1 0 1;
#X obj 247 216 nbx 5 12 0 1000 0 0 \$0-damping \$0-dampingr % 47 7
2 10 -262144 -1 -1 0 256;
#X msg 28 207 set \$1;
#X connect 2 0 3 0;
#X connect 3 0 8 0;
#X connect 4 0 5 0;
#X connect 5 0 9 0;
#X connect 6 0 7 0;
#X connect 7 0 10 0;
#X connect 8 0 2 0;
#X connect 9 0 4 0;
#X connect 10 0 6 0;
#X connect 11 0 12 0;
#X connect 12 0 13 0;
#X connect 13 0 11 0;
#X coords 0 -1 1 1 220 144 2 100 100;
#X restore 5 2 pd mask;
#X restore 838 133 pd \$0-doppler;
#X obj 244 479 +~;
#N canvas 125 69 492 318 damping 0;
#X obj 183 121 inlet~;
#X obj 329 135 inlet~;
#N canvas 3 50 450 300 clean 0;
#X obj 199 124 inlet~;
#X obj 199 145 outlet~;
#X obj 302 45 r \$0-damping;
#X obj 302 73 == 0;
#X obj 302 94 switch~ 1;
#X connect 0 0 1 0;
#X connect 2 0 3 0;
#X connect 3 0 4 0;
#X restore 182 179 pd clean;
#X obj 181 223 outlet~;
#N canvas 3 50 775 532 lowpass 0;
#X obj 165 68 inlet~;
#X obj 164 329 rpole~;
#X obj 164 395 *~;
#X obj 164 433 outlet~;
#X text 352 300 2pi;
#X obj 287 318 clip~ 0 1;
#X obj 211 287 sig~ 1;
#X obj 211 308 -~;
#X obj 286 277 *~;
#X obj 286 298 *~ 6.28319;
#X obj 499 73 r \$0-damping;
#X obj 499 101 != 0;
#X obj 499 122 switch~ 0;
#X obj 286 211 *~ 20000;
#X obj 440 72 inlet~;
#X obj 286 139 line~;
#X msg 286 118 \$1 100;
#X obj 286 96 / 100;
#X obj 286 164 max~ 1e-06;
#X obj 286 75 r \$0-damping;
#N canvas 73 74 450 300 magnitude-damping~~~~ 0;
#X obj 61 118 *~;
#X obj 96 118 *~;
#X obj 71 173 sqrt~;
#X obj 97 87 *~;
#X obj 16 279 outlet~ damping-magnitude;
#X obj 70 198 *~;
#X obj 41 217 /~;
#X obj 15 52 inlet~;
#X obj 164 55 inlet~;
#X connect 0 0 2 0;
#X connect 1 0 2 0;
#X connect 2 0 5 0;
#X connect 2 0 5 1;
#X connect 3 0 1 0;
#X connect 3 0 1 1;
#X connect 5 0 6 1;
#X connect 6 0 4 0;
#X connect 7 0 0 0;
#X connect 7 0 0 1;
#X connect 7 0 3 0;
#X connect 7 0 6 0;
#X connect 8 0 3 1;
#X restore 286 190 pd magnitude-damping~~~~;
#X obj 286 232 clip~ 0 20000;
#N canvas 0 50 450 300 samplerate 0;
#X obj 230 123 outlet;
#X obj 230 26 r pd;
#X obj 230 46 route dsp audio-dialog;
#X obj 230 70 t b;
#X obj 268 72 loadbang;
#X obj 230 96 samplerate~;
#X connect 1 0 2 0;
#X connect 2 0 3 0;
#X connect 2 1 3 0;
#X connect 3 0 5 0;
#X connect 4 0 5 0;
#X connect 5 0 0 0;
#X restore 317 255 pd samplerate;
#X obj 317 276 expr 1/$f1;
#X connect 0 0 1 0;
#X connect 1 0 2 0;
#X connect 2 0 3 0;
#X connect 5 0 2 1;
#X connect 5 0 7 1;
#X connect 6 0 7 0;
#X connect 7 0 1 1;
#X connect 8 0 9 0;
#X connect 9 0 5 0;
#X connect 10 0 11 0;
#X connect 11 0 12 0;
#X connect 13 0 21 0;
#X connect 14 0 20 1;
#X connect 15 0 18 0;
#X connect 16 0 15 0;
#X connect 17 0 16 0;
#X connect 18 0 20 0;
#X connect 19 0 17 0;
#X connect 20 0 13 0;
#X connect 21 0 8 0;
#X connect 22 0 23 0;
#X connect 23 0 8 1;
#X restore 250 177 pd lowpass;
#X connect 0 0 2 0;
#X connect 0 0 4 0;
#X connect 1 0 4 1;
#X connect 2 0 3 0;
#X connect 4 0 3 0;
#X restore 245 514 pd damping;
#X obj 366 129 max~ 1e-06;
#N canvas 727 359 450 300 magnitude+phase~~~~~~~~~~~ 0;
#X obj 105 114 *~;
#X obj 140 114 *~;
#X obj 104 165 sqrt~;
#X obj 103 196 outlet~ magnitude;
#X obj 246 47 inlet~ imag;
#X obj 248 130 expr~ atan($v1);
#X obj 247 103 /~;
#X obj 249 196 outlet~ phase;
#X obj 104 45 inlet~ real-pitch;
#X connect 0 0 2 0;
#X connect 1 0 2 0;
#X connect 2 0 3 0;
#X connect 4 0 1 0;
#X connect 4 0 1 1;
#X connect 4 0 6 0;
#X connect 5 0 7 0;
#X connect 6 0 5 0;
#X connect 8 0 0 0;
#X connect 8 0 0 1;
#X connect 8 0 6 1;
#X restore 425 202 pd magnitude+phase~~~~~~~~~~~;
#X obj 611 62 inlet~ trajectory;
#N canvas 118 64 893 431 outlet-message 0;
#X obj 100 37 t b f;
#X obj 100 93 del 0;
#X obj 138 273 list trim;
#X msg 58 271 addcomma;
#X msg 18 269 set;
#X obj 138 250 list prepend add2;
#X obj 139 346 outlet;
#X obj 113 229 t b a;
#X obj 101 153 t a b;
#X obj 100 112 f;
#X obj 102 12 r \$0-ampmod;
#X obj 172 39 t b f;
#X obj 197 10 r \$0-pitchmod;
#X obj 359 13 r \$0-damping;
#X obj 285 11 r \$0-panmod;
#X obj 286 33 t b f;
#X obj 359 32 t b f;
#X obj 101 132 pack 1 1 0 0;
#X msg 113 197 pitch-mod \$2 \, amp-mod \$1 \, pan-mod \$3 \, damping
\$4;
#X connect 0 0 1 0;
#X connect 0 1 9 1;
#X connect 1 0 9 0;
#X connect 2 0 6 0;
#X connect 3 0 6 0;
#X connect 4 0 6 0;
#X connect 5 0 2 0;
#X connect 7 0 3 0;
#X connect 7 1 5 0;
#X connect 8 0 18 0;
#X connect 8 1 4 0;
#X connect 9 0 17 0;
#X connect 10 0 0 0;
#X connect 11 0 1 0;
#X connect 11 1 17 1;
#X connect 12 0 11 0;
#X connect 13 0 16 0;
#X connect 14 0 15 0;
#X connect 15 0 1 0;
#X connect 15 1 17 2;
#X connect 16 0 1 0;
#X connect 16 1 17 3;
#X connect 17 0 8 0;
#X connect 18 0 7 0;
#X restore 849 466 pd outlet-message;
#X obj 639 338 /~ 1.5708;
#X text 680 313 1/2pi;
#X obj 543 355 / 200;
#X obj 274 60 inlet~ src;
#N canvas 3 50 450 300 delay 0;
#X obj 48 101 outlet~;
#X obj 49 3 inlet~;
#N canvas 251 202 450 300 delwrite 0;
#X obj 48 15 inlet~;
#X obj 49 81 outlet~;
#X obj 48 41 delwrite~ \$0-ddel 1000;
#X connect 0 0 2 0;
#X restore 49 28 pd delwrite;
#N canvas 276 120 450 300 delread 0;
#X obj 129 80 inlet~;
#X obj 127 134 outlet~;
#X obj 59 80 inlet~;
#X obj 128 111 vd~ \$0-ddel;
#X connect 0 0 3 0;
#X connect 3 0 1 0;
#X restore 49 75 pd delread;
#X obj 203 5 inlet~;
#X connect 1 0 2 0;
#X connect 2 0 3 0;
#X connect 3 0 0 0;
#X connect 4 0 3 1;
#X restore 448 270 pd delay;
#X text 878 558 philipp schmalfuß \, 2018;
#X text 881 558 philipp schmalfuß \, 2018;
#X connect 0 0 28 0;
#X connect 2 0 3 1;
#X connect 3 0 4 0;
#X connect 4 0 7 1;
#X connect 5 0 37 1;
#X connect 7 0 34 0;
#X connect 8 0 44 1;
#X connect 10 0 34 1;
#X connect 12 0 42 0;
#X connect 13 0 11 0;
#X connect 13 1 11 0;
#X connect 14 0 31 0;
#X connect 15 0 36 0;
#X connect 16 0 15 0;
#X connect 17 0 18 0;
#X connect 18 0 20 0;
#X connect 19 0 10 1;
#X connect 20 0 19 0;
#X connect 21 0 23 1;
#X connect 22 0 21 0;
#X connect 23 0 4 1;
#X connect 24 0 9 0;
#X connect 25 0 24 1;
#X connect 26 0 25 0;
#X connect 27 0 30 0;
#X connect 30 0 26 0;
#X connect 31 0 16 0;
#X connect 34 0 35 0;
#X connect 35 0 6 0;
#X connect 36 0 3 0;
#X connect 36 0 5 0;
#X connect 36 0 7 0;
#X connect 36 0 37 0;
#X connect 37 0 2 1;
#X connect 37 0 2 0;
#X connect 37 0 8 0;
#X connect 37 1 40 0;
#X connect 38 0 5 1;
#X connect 38 0 35 1;
#X connect 39 0 13 0;
#X connect 40 0 24 0;
#X connect 42 0 17 0;
#X connect 42 0 22 0;
#X connect 43 0 44 0;
#X connect 44 0 10 0;
#X connect 44 0 23 0;
#X coords 0 -1 1 1 155 33 1 100 100;
