#N canvas 3 50 917 565 10;
#N canvas 3 50 450 300 rms 0;
#X obj 109 232 lop~;
#X obj 110 66 *~;
#X obj 110 38 inlet~;
#X obj 109 288 sqrt~;
#X obj 108 349 outlet~;
#X obj 317 36 inlet;
#X obj 317 140 clip 0 1000;
#X connect 0 0 3 0;
#X connect 1 0 0 0;
#X connect 2 0 1 0;
#X connect 2 0 1 1;
#X connect 3 0 4 0;
#X connect 5 0 6 0;
#X connect 6 0 0 1;
#X restore 311 148 pd rms;
#X obj 310 106 inlet~;
#X obj 311 204 outlet~;
#X obj 495 106 inlet;
#N canvas 3 50 450 300 in 0;
#X obj 210 68 inlet;
#X obj 373 54 f \$1;
#X obj 373 34 loadbang;
#X obj 373 76 sel 0;
#X msg 373 100 20;
#X obj 288 138 s \$0-responser;
#X obj 210 89 route responsiveness;
#X connect 0 0 6 0;
#X connect 1 0 3 0;
#X connect 2 0 1 0;
#X connect 3 0 4 0;
#X connect 3 1 5 0;
#X connect 4 0 5 0;
#X connect 6 0 5 0;
#X restore 495 127 pd in;
#X obj 344 127 r \$0-response;
#X obj 103 115 hsl 105 15 0 100 0 0 \$0-gui \$0-guir Responsiveness
3 8 2 10 -233017 -1 -1 2080 1;
#X obj 251 115 hsl 2 8 0 1 0 0 \$0-gui \$0-guir empty 3 8 2 10 -233017
-228856 -1 0 1;
#X obj 210 115 nbx 5 15 0 1000 0 0 \$0-response \$0-responser empty
0 -8 2 10 -228856 -1 -1 20 256;
#X msg 74 173 set \$1;
#X obj 74 152 i;
#X msg 210 152 set \$1;
#X obj 496 289 outlet;
#X obj 496 178 r \$0-response;
#X obj 496 222 list prepend set;
#X obj 496 243 list trim;
#X obj 496 264 t a b;
#X obj 52 194 s \$0-response;
#X obj 496 202 list prepend responsiveness;
#X text 588 466 philipp schmalfuß \, 2018;
#X text 591 466 philipp schmalfuß \, 2018;
#X connect 0 0 2 0;
#X connect 1 0 0 0;
#X connect 3 0 4 0;
#X connect 5 0 0 1;
#X connect 6 0 10 0;
#X connect 8 0 11 0;
#X connect 9 0 8 0;
#X connect 10 0 9 0;
#X connect 10 0 17 0;
#X connect 11 0 6 0;
#X connect 13 0 18 0;
#X connect 14 0 15 0;
#X connect 15 0 16 0;
#X connect 16 0 12 0;
#X connect 16 1 12 0;
#X connect 18 0 14 0;
#X coords 0 -1 1 1 155 33 1 100 100;
