#N canvas 177 62 1069 716 10;
#X obj 187 414 *~;
#X obj 142 414 *~;
#X obj 143 166 inlet~;
#X obj 183 486 rifft~;
#X obj 184 683 outlet~;
#X obj 262 415 *~;
#X obj 291 415 *~;
#X obj 142 442 -~;
#X obj 261 444 +~;
#X obj 62 78 inlet;
#X obj 309 301 *~;
#X obj 308 333 rfft~;
#X obj 142 323 rfft~;
#X obj 246 482 r \$0-blocksize;
#X msg 246 501 1 \$1;
#X obj 246 522 /;
#X obj 182 521 *~;
#N canvas 3 50 571 520 square-window 0;
#X obj 197 218 table \$0-square;
#X obj 83 120 r \$0-blocksize;
#X obj 175 184 array size \$0-square;
#X obj 77 216 until;
#X obj 79 242 f;
#X obj 107 242 + 1;
#X msg 102 183 0;
#X msg 119 326 0;
#X msg 79 325 1;
#X obj 78 263 t f f;
#X obj 82 145 t f b f f;
#X obj 155 222 * 0.5;
#X obj 119 348 tabwrite \$0-square;
#X obj 79 297 moses;
#X connect 1 0 10 0;
#X connect 3 0 4 0;
#X connect 4 0 5 0;
#X connect 4 0 9 0;
#X connect 5 0 4 1;
#X connect 6 0 4 1;
#X connect 7 0 12 0;
#X connect 8 0 12 0;
#X connect 9 0 13 0;
#X connect 9 1 12 1;
#X connect 10 0 3 0;
#X connect 10 1 6 0;
#X connect 10 2 11 0;
#X connect 10 3 2 0;
#X connect 11 0 13 1;
#X connect 13 0 8 0;
#X connect 13 1 7 0;
#X restore 874 446 pd square-window;
#X obj 142 296 *~;
#X obj 204 570 f \$1;
#X obj 204 591 mod 2;
#X obj 204 611 == 0;
#X obj 183 640 *~ 1;
#X obj 204 550 r \$2-loadbang;
#X obj 309 95 bang~;
#X obj 309 173 f;
#X obj 309 196 pack 0 0;
#N canvas 204 95 673 580 samples-onset 0;
#X obj 342 378 * 128;
#X obj 341 69 f \$1;
#X obj 341 108 / 2;
#X obj 341 90 + 0.5;
#X obj 99 121 r \$0-blocksize;
#X obj 144 452 +;
#X obj 180 155 mod 2;
#X obj 124 251 * 0.5;
#X obj 99 142 pipe 1;
#X obj 99 204 list prepend 0;
#X obj 99 225 route 0 1;
#X obj 99 280 * 0;
#X obj 99 173 t f f;
#X obj 342 478 +;
#X obj 144 504 outlet;
#X obj 342 499 outlet;
#X obj 341 129 i;
#X obj 358 187 until;
#X obj 358 225 f 1;
#X obj 389 225 + 1;
#X msg 373 205 1;
#X obj 358 246 expr pow(2 \, $f1);
#X obj 358 267 t b f;
#X obj 358 328 f;
#X msg 442 288 0;
#X obj 400 336 +;
#X obj 342 359 f;
#X obj 341 153 t b f b b;
#X obj 341 46 t b b;
#X obj 541 341 f \$3;
#X obj 541 362 / 2;
#X obj 341 25 r \$2-loadbang;
#X connect 0 0 5 1;
#X connect 1 0 3 0;
#X connect 1 0 6 0;
#X connect 2 0 16 0;
#X connect 3 0 2 0;
#X connect 4 0 8 0;
#X connect 5 0 14 0;
#X connect 5 0 13 0;
#X connect 6 0 9 1;
#X connect 7 0 5 0;
#X connect 8 0 12 0;
#X connect 9 0 10 0;
#X connect 10 0 11 0;
#X connect 10 1 7 0;
#X connect 11 0 5 0;
#X connect 12 0 9 0;
#X connect 12 1 13 1;
#X connect 13 0 15 0;
#X connect 16 0 27 0;
#X connect 17 0 18 0;
#X connect 18 0 19 0;
#X connect 18 0 21 0;
#X connect 19 0 18 1;
#X connect 20 0 18 1;
#X connect 21 0 22 0;
#X connect 22 0 23 0;
#X connect 22 1 25 1;
#X connect 23 0 25 0;
#X connect 24 0 23 1;
#X connect 25 0 23 1;
#X connect 25 0 26 1;
#X connect 26 0 0 0;
#X connect 27 0 26 0;
#X connect 27 1 17 0;
#X connect 27 2 20 0;
#X connect 27 3 24 0;
#X connect 28 0 1 0;
#X connect 28 1 29 0;
#X connect 29 0 30 0;
#X connect 30 0 0 1;
#X connect 31 0 28 0;
#X restore 682 54 pd samples-onset;
#X floatatom 775 80 5 0 0 0 - - -, f 5;
#X floatatom 693 78 5 0 0 0 - - -, f 5;
#X obj 516 246 tabreceive~ \$0-square;
#X text 268 54 \$1 clone-instance \, \$2 parrent \$0 \, \$3 min blocksize
;
#X obj 545 413 *~;
#X obj 500 413 *~;
#X obj 501 165 inlet~;
#X obj 541 485 rifft~;
#X obj 542 682 outlet~;
#X obj 620 414 *~;
#X obj 649 414 *~;
#X obj 500 441 -~;
#X obj 619 443 +~;
#X obj 667 300 *~;
#X obj 666 332 rfft~;
#X obj 500 322 rfft~;
#X obj 604 481 r \$0-blocksize;
#X msg 604 500 1 \$1;
#X obj 604 521 /;
#X obj 540 520 *~;
#X obj 500 295 *~;
#X obj 562 569 f \$1;
#X obj 562 590 mod 2;
#X obj 562 610 == 0;
#X obj 541 639 *~ 1;
#X obj 562 549 r \$2-loadbang;
#X obj 667 172 f;
#X obj 667 195 pack 0 0;
#X obj 309 244 tabplay~ \$2-impulse-l;
#X obj 667 243 tabplay~ \$2-impulse-r;
#N canvas 3 50 450 300 \$0-delay-l 0;
#X obj 85 54 inlet~;
#X restore 93 567 pd \$0-delay-l;
#N canvas 3 50 450 300 \$0-delread-l 0;
#X obj 166 205 outlet~;
#X restore 222 640 pd \$0-delread-l;
#N canvas 150 296 645 383 make-delay-l 0;
#X obj 111 200 / 44.1;
#X obj 86 56 f \$1;
#X obj 111 176 * 0.5;
#X obj 201 186 / 1000;
#X obj 205 258 i;
#X obj 205 237 + 10;
#X obj 205 281 pack 0 \$0;
#X obj 81 123 spigot;
#X obj 114 102 mod 2;
#X obj 112 320 pack 0 \$0;
#X obj 111 221 t f f;
#X obj 86 77 t b f;
#X obj 111 154 f;
#X obj 174 15 r \$0-blocksize;
#X obj 174 35 t b f b;
#X obj 203 161 samplerate~;
#X obj 205 333 s pd-\$0-delay-l;
#X obj 132 385 s pd-\$0-delread-l;
#X msg 205 304 obj 100 100 delwrite~ \$2-d-l \$1 \, connect 0 0 1 0
;
#X msg 112 362 obj 100 100 delread~ \$2-d-l \$1 \, connect 1 0 0 0
;
#X connect 0 0 10 0;
#X connect 1 0 11 0;
#X connect 2 0 0 0;
#X connect 3 0 0 1;
#X connect 4 0 6 0;
#X connect 5 0 4 0;
#X connect 6 0 18 0;
#X connect 7 0 12 0;
#X connect 8 0 7 1;
#X connect 9 0 19 0;
#X connect 10 0 9 0;
#X connect 10 1 5 0;
#X connect 11 0 7 0;
#X connect 11 1 8 0;
#X connect 12 0 2 0;
#X connect 13 0 14 0;
#X connect 14 0 1 0;
#X connect 14 1 12 1;
#X connect 14 2 15 0;
#X connect 15 0 3 0;
#X connect 18 0 16 0;
#X connect 19 0 17 0;
#X restore 82 587 pd make-delay-l;
#N canvas 3 50 450 300 \$0-delay-r 0;
#X obj 85 54 inlet~;
#X restore 451 566 pd \$0-delay-r;
#N canvas 3 50 450 300 \$0-delread-r 0;
#X obj 166 205 outlet~;
#X restore 580 639 pd \$0-delread-r;
#N canvas 150 296 645 383 make-delay-r 0;
#X obj 111 200 / 44.1;
#X obj 86 56 f \$1;
#X obj 111 176 * 0.5;
#X obj 201 186 / 1000;
#X obj 205 258 i;
#X obj 205 237 + 10;
#X obj 205 281 pack 0 \$0;
#X obj 81 123 spigot;
#X obj 114 102 mod 2;
#X obj 112 320 pack 0 \$0;
#X obj 111 221 t f f;
#X obj 86 77 t b f;
#X obj 111 154 f;
#X obj 174 15 r \$0-blocksize;
#X obj 174 35 t b f b;
#X obj 203 161 samplerate~;
#X obj 205 333 s pd-\$0-delay-r;
#X obj 132 385 s pd-\$0-delread-r;
#X msg 205 304 obj 100 100 delwrite~ \$2-d-r \$1 \, connect 0 0 1 0
;
#X msg 112 362 obj 100 100 delread~ \$2-d-r \$1 \, connect 1 0 0 0
;
#X connect 0 0 10 0;
#X connect 1 0 11 0;
#X connect 2 0 0 0;
#X connect 3 0 0 1;
#X connect 4 0 6 0;
#X connect 5 0 4 0;
#X connect 6 0 18 0;
#X connect 7 0 12 0;
#X connect 8 0 7 1;
#X connect 9 0 19 0;
#X connect 10 0 9 0;
#X connect 10 1 5 0;
#X connect 11 0 7 0;
#X connect 11 1 8 0;
#X connect 12 0 2 0;
#X connect 13 0 14 0;
#X connect 14 0 1 0;
#X connect 14 1 12 1;
#X connect 14 2 15 0;
#X connect 15 0 3 0;
#X connect 18 0 16 0;
#X connect 19 0 17 0;
#X restore 438 589 pd make-delay-r;
#X obj 350 223 r \$2-set-imp-l;
#X obj 708 222 r \$2-set-imp-r;
#X obj 893 354 switch~;
#X obj 963 108 f \$1;
#X obj 963 147 / 2;
#X obj 963 168 i;
#X obj 963 129 + 0.5;
#X obj 976 306 s \$0-blocksize;
#X obj 964 197 + 8;
#X msg 860 235 1;
#X msg 893 310 set \$1 2;
#X obj 944 77 t b b b;
#X obj 964 218 min 20;
#X obj 964 241 expr pow(2 \, $f1);
#X text 1059 120 log base 2 \, ie 256 = 2^8;
#X obj 944 56 r \$2-loadbang;
#X obj 977 264 + 0.5;
#X obj 977 285 i;
#X obj 1014 100 expr ln(\$3)/ln(2);
#X text 1012 281 protect against rounding error;
#X connect 0 0 7 1;
#X connect 1 0 7 0;
#X connect 2 0 18 0;
#X connect 3 0 16 0;
#X connect 5 0 8 0;
#X connect 6 0 8 1;
#X connect 7 0 3 0;
#X connect 8 0 3 1;
#X connect 10 0 11 0;
#X connect 11 0 1 1;
#X connect 11 0 6 1;
#X connect 11 1 0 1;
#X connect 11 1 5 1;
#X connect 12 0 1 0;
#X connect 12 0 5 0;
#X connect 12 1 0 0;
#X connect 12 1 6 0;
#X connect 13 0 14 0;
#X connect 14 0 15 0;
#X connect 15 0 16 1;
#X connect 16 0 58 0;
#X connect 16 0 22 0;
#X connect 18 0 12 0;
#X connect 19 0 20 0;
#X connect 20 0 21 0;
#X connect 21 0 22 1;
#X connect 22 0 4 0;
#X connect 23 0 19 0;
#X connect 24 0 25 0;
#X connect 24 0 54 0;
#X connect 25 0 26 0;
#X connect 26 0 56 0;
#X connect 27 0 25 1;
#X connect 27 0 29 0;
#X connect 27 0 54 1;
#X connect 27 1 26 1;
#X connect 27 1 28 0;
#X connect 27 1 55 1;
#X connect 30 0 10 1;
#X connect 30 0 18 1;
#X connect 30 0 48 1;
#X connect 30 0 41 1;
#X connect 32 0 39 1;
#X connect 33 0 39 0;
#X connect 34 0 48 0;
#X connect 35 0 47 0;
#X connect 37 0 40 0;
#X connect 38 0 40 1;
#X connect 39 0 35 0;
#X connect 40 0 35 1;
#X connect 41 0 42 0;
#X connect 42 0 33 1;
#X connect 42 0 38 1;
#X connect 42 1 32 1;
#X connect 42 1 37 1;
#X connect 43 0 33 0;
#X connect 43 0 37 0;
#X connect 43 1 32 0;
#X connect 43 1 38 0;
#X connect 44 0 45 0;
#X connect 45 0 46 0;
#X connect 46 0 47 1;
#X connect 47 0 61 0;
#X connect 47 0 52 0;
#X connect 48 0 43 0;
#X connect 49 0 50 0;
#X connect 50 0 51 0;
#X connect 51 0 52 1;
#X connect 52 0 36 0;
#X connect 53 0 49 0;
#X connect 54 0 55 0;
#X connect 55 0 57 0;
#X connect 56 0 10 0;
#X connect 57 0 41 0;
#X connect 59 0 4 0;
#X connect 62 0 36 0;
#X connect 64 0 56 0;
#X connect 65 0 57 0;
#X connect 67 0 70 0;
#X connect 68 0 69 0;
#X connect 69 0 72 0;
#X connect 70 0 68 0;
#X connect 72 0 76 0;
#X connect 73 0 66 0;
#X connect 74 0 66 0;
#X connect 75 0 73 0;
#X connect 75 1 67 0;
#X connect 75 2 82 0;
#X connect 76 0 77 0;
#X connect 77 0 80 0;
#X connect 79 0 75 0;
#X connect 80 0 81 0;
#X connect 81 0 71 0;
#X connect 81 0 74 0;
#X connect 82 0 72 1;
