#N canvas 260 164 943 308 10;
#X obj 390 254 pp.out~;
#X obj 1 2 cnv 15 380 300 empty empty empty 20 12 0 14 -233017 -66577
0;
#X msg 562 191 blocksize 1024 \, overlap 4 \, threshold 0 \, gate 0
\, gain 0 \, dry/wet 100 \,;
#X obj 562 123 cnv 15 118 15 empty empty empty 20 12 0 14 -260097 -66577
0;
#N canvas 152 124 374 373 control-messages 0;
#X obj 74 331 outlet;
#X floatatom 74 7 5 0 0 0 - - -, f 5;
#X msg 127 226 blocksize \$1;
#X msg 127 202 512;
#X msg 156 202 1024;
#X msg 192 203 2048;
#X msg 128 287 overlap \$1;
#X msg 128 262 2;
#X msg 157 263 4;
#X msg 188 263 8;
#X text 213 226 fft-blocksize;
#X msg 74 27 threshold \$1;
#X text 115 8 noise-threshold level(db);
#X floatatom 91 49 5 0 0 0 - - -, f 5;
#X msg 91 69 gate \$1;
#X text 129 53 %;
#X floatatom 107 92 5 0 0 0 - - -, f 5;
#X msg 107 112 gain \$1;
#X text 145 93 makeup-gain(db);
#X floatatom 122 133 5 0 100 0 - - -, f 5;
#X msg 122 153 dry/wet \$1;
#X text 160 134 %;
#X connect 1 0 11 0;
#X connect 2 0 0 0;
#X connect 3 0 2 0;
#X connect 4 0 2 0;
#X connect 5 0 2 0;
#X connect 6 0 0 0;
#X connect 7 0 6 0;
#X connect 8 0 6 0;
#X connect 9 0 6 0;
#X connect 11 0 0 0;
#X connect 13 0 14 0;
#X connect 14 0 0 0;
#X connect 16 0 17 0;
#X connect 17 0 0 0;
#X connect 19 0 20 0;
#X connect 20 0 0 0;
#X restore 562 123 pd control-messages;
#X text 68 95 1:(~)signal;
#X text 10 96 Inlets:;
#X text 10 143 Outlets:;
#X obj 12 20 cnv 15 10 10 empty empty pp.fft-gate~ 0 0 2 16 -233017
-262144 0;
#X obj 407 45 noise~;
#X text 573 162 <-- click to open GUI;
#X text 68 169 3:message;
#X text 11 55 Creation arguments: \$1: fft-blocksize \, default: 1024
;
#X text 131 67 \$2: overlap \, default: 4;
#X obj 389 148 pp.fft-gate~ 1024 4;
#X text 68 156 2:(~)signal (noisy part);
#X text 68 143 1:(~)signal (denoised part);
#X text 68 107 2:control-messages;
#X obj 407 66 *~ 0.25;
#X obj 389 21 osc~ 440;
#X obj 388 88 +~;
#X text 12 34 spectral denoiser;
#X connect 4 0 14 1;
#X connect 9 0 18 0;
#X connect 14 0 0 0;
#X connect 14 1 0 1;
#X connect 14 2 2 0;
#X connect 18 0 20 1;
#X connect 19 0 20 0;
#X connect 20 0 14 0;
