#N canvas 197 131 1017 562 10;
#X obj 402 525 *~;
#N canvas 165 152 982 487 load-IR 0;
#X obj 368 110 openpanel;
#X obj 368 129 s \$0-open;
#X obj 368 48 r \$0-obng;
#X obj 512 107 table \$0-impulse-l;
#X obj 512 127 table \$0-impulse-r;
#X obj 177 349 soundfiler;
#X obj 178 312 pack s \$0;
#X obj 177 372 s \$0-ir-length;
#X obj 161 59 r \$0-open;
#X obj 251 181 soundfiler;
#X obj 251 144 pack s \$0;
#X msg 251 163 read -resize \$1 \$2-dummy;
#X msg 177 331 read -resize \$1 \$2-impulse-l \$2-impulse-r;
#X msg 338 204 \$3;
#X obj 62 294 soundfiler;
#X obj 63 257 pack s \$0;
#X obj 161 92 t a a a a;
#X msg 62 276 read -resize \$1 \$2-impulse-r;
#X obj 63 237 spigot;
#X obj 338 225 < 2;
#N canvas 297 131 797 390 sondfile-info 0;
#N canvas 3 50 476 397 splitfilename 0;
#N canvas 0 50 450 300 listget 0;
#X obj 153 146 list split;
#X obj 210 193 list length;
#X obj 153 170 t l l;
#X obj 153 237 list split;
#X obj 210 216 - 1;
#X obj 151 116 list;
#X obj 319 37 inlet list;
#X obj 181 266 outlet element;
#X obj 143 24 inlet n;
#X obj 152 54 t b f;
#X obj 220 121 max 1;
#X connect 0 0 2 0;
#X connect 1 0 4 0;
#X connect 2 0 3 0;
#X connect 2 1 1 0;
#X connect 3 1 7 0;
#X connect 4 0 3 1;
#X connect 5 0 0 0;
#X connect 6 0 5 1;
#X connect 8 0 9 0;
#X connect 9 0 5 0;
#X connect 9 1 10 0;
#X connect 10 0 0 1;
#X restore 163 237 pd listget;
#X obj 163 51 list fromsymbol;
#X obj 163 73 trigger list list bang;
#X obj 163 95 list length;
#X obj 163 151 until;
#X obj 163 173 f;
#X obj 195 185 - 1;
#X obj 163 259 t f f;
#X obj 163 118 t f f;
#X obj 215 303 t l;
#X obj 246 348 list;
#X obj 319 286 sel;
#X obj 319 309 t b b;
#X obj 246 370 list tosymbol;
#X obj 337 220 loadbang;
#X obj 337 242 symbol /;
#X obj 337 264 list fromsymbol;
#X obj 163 29 inlet symbol path;
#X obj 246 392 outlet symbol filename;
#X obj 163 294 list;
#X obj 70 274 sel 1;
#X obj 70 251 t f f;
#X connect 0 0 7 0;
#X connect 1 0 2 0;
#X connect 2 0 3 0;
#X connect 2 1 0 1;
#X connect 2 2 19 1;
#X connect 3 0 8 0;
#X connect 4 0 5 0;
#X connect 5 0 6 0;
#X connect 5 0 21 0;
#X connect 6 0 5 1;
#X connect 7 0 19 0;
#X connect 7 1 11 0;
#X connect 8 0 4 0;
#X connect 8 1 5 1;
#X connect 9 0 19 1;
#X connect 10 0 13 0;
#X connect 11 0 12 0;
#X connect 12 0 10 0;
#X connect 12 1 4 1;
#X connect 13 0 18 0;
#X connect 14 0 15 0;
#X connect 15 0 16 0;
#X connect 16 0 11 1;
#X connect 17 0 1 0;
#X connect 19 0 9 0;
#X connect 19 0 10 1;
#X connect 20 0 10 0;
#X connect 21 0 20 0;
#X connect 21 1 0 0;
#X restore 341 65 pd splitfilename;
#X obj 341 43 inlet path;
#X obj 53 35 inlet samp.length;
#X obj 266 200 sel 1;
#X msg 158 244 loaded IR: \$1;
#X obj 266 222 del 1;
#X obj 266 178 > 532224;
#X msg 265 244 IR-lenght exceed buffer;
#X msg 479 106 label \$1;
#X msg 460 79 label empty..;
#X obj 460 56 loadbang;
#X obj 479 128 s \$0-irname;
#X obj 158 271 print pp.fft-partconv-st~;
#X connect 0 0 8 0;
#X connect 0 0 4 0;
#X connect 1 0 0 0;
#X connect 2 0 6 0;
#X connect 3 0 5 0;
#X connect 4 0 12 0;
#X connect 5 0 7 0;
#X connect 6 0 3 0;
#X connect 7 0 12 0;
#X connect 8 0 11 0;
#X connect 9 0 11 0;
#X connect 10 0 9 0;
#X restore 251 276 pd sondfile-info;
#X obj 283 382 s \$0-ir-samprate;
#X msg 283 361 \$1;
#X obj 512 81 table \$0-dummy;
#X connect 0 0 1 0;
#X connect 2 0 0 0;
#X connect 5 0 7 0;
#X connect 5 1 22 0;
#X connect 6 0 12 0;
#X connect 8 0 16 0;
#X connect 9 0 20 0;
#X connect 9 1 13 0;
#X connect 10 0 11 0;
#X connect 11 0 9 0;
#X connect 12 0 5 0;
#X connect 13 0 19 0;
#X connect 15 0 17 0;
#X connect 16 0 18 0;
#X connect 16 1 6 0;
#X connect 16 2 10 0;
#X connect 16 3 20 1;
#X connect 17 0 14 0;
#X connect 18 0 15 0;
#X connect 19 0 18 1;
#X connect 22 0 21 0;
#X restore 756 187 pd load-IR;
#X obj 298 85 inlet~;
#X obj 753 88 inlet;
#X obj 403 558 outlet~;
#N canvas 3 50 752 300 in 0;
#X obj 134 151 s \$0-open;
#X obj 134 128 symbol;
#X obj 133 80 inlet;
#X obj 206 190 clip 0 100;
#X obj 206 211 s \$0-drywetr;
#X obj 216 148 loadbang;
#X msg 216 169 100;
#N canvas 588 183 671 513 set 0;
#X obj 160 15 inlet;
#X obj 89 237 array size;
#X obj 89 260 s \$0-ir-length;
#X obj 70 212 t s b s;
#X msg -11 275 label \$1;
#X obj -11 297 s \$0-irname;
#X msg 70 313 set \$1;
#X obj 241 61 list length;
#X obj 160 36 t a a;
#X obj 241 82 > 1;
#X obj 160 102 list prepend 0;
#X obj 160 123 route 0 1;
#X obj 276 229 list split 1;
#X obj 397 315 array size;
#X obj 397 338 s \$0-ir-length;
#X obj 378 290 t s b s;
#X obj 191 228 s \$0-irname;
#X msg 378 391 set \$1;
#X obj 70 335 s \$0-set-imp-l;
#X obj 81 355 s \$0-set-imp-r;
#X msg 191 206 label \$1_\$2;
#X msg 276 392 set \$1;
#X obj 70 191 symbol;
#X msg 276 206 \$2 \$1;
#X obj 276 414 s \$0-set-imp-r;
#X obj 378 413 s \$0-set-imp-l;
#X obj 191 162 list;
#X connect 0 0 8 0;
#X connect 1 0 2 0;
#X connect 3 0 4 0;
#X connect 3 0 6 0;
#X connect 3 1 1 0;
#X connect 3 2 1 1;
#X connect 4 0 5 0;
#X connect 6 0 18 0;
#X connect 6 0 19 0;
#X connect 7 0 9 0;
#X connect 8 0 10 0;
#X connect 8 1 7 0;
#X connect 9 0 10 1;
#X connect 10 0 11 0;
#X connect 11 0 22 0;
#X connect 11 1 26 0;
#X connect 12 0 21 0;
#X connect 12 1 15 0;
#X connect 13 0 14 0;
#X connect 15 0 17 0;
#X connect 15 1 13 0;
#X connect 15 2 13 1;
#X connect 17 0 25 0;
#X connect 20 0 16 0;
#X connect 21 0 24 0;
#X connect 22 0 3 0;
#X connect 23 0 12 0;
#X connect 26 0 20 0;
#X connect 26 0 23 0;
#X restore 295 158 pd set;
#X obj 135 103 route loadIR dry/wet set blocksize;
#X obj 362 236 s \$0-window-size;
#N canvas 3 50 617 375 blocksize 0;
#X obj 214 145 i;
#X obj 214 120 t f f;
#X obj 214 166 /;
#X obj 214 99 expr ln($f1)/ln(2);
#X obj 214 186 == 1;
#X obj 184 76 t f f;
#X obj 184 212 spigot;
#X text 249 141 prevent setting blocksizes that are not a power of
2;
#X msg 244 244 blocksize is not a power of 2;
#X obj 184 294 outlet;
#X obj 244 222 sel 0;
#X obj 184 54 inlet;
#X obj 244 265 print pp.fft-partconv~;
#X connect 0 0 2 0;
#X connect 1 0 0 0;
#X connect 1 1 2 1;
#X connect 2 0 4 0;
#X connect 3 0 1 0;
#X connect 4 0 6 1;
#X connect 4 0 10 0;
#X connect 5 0 6 0;
#X connect 5 1 3 0;
#X connect 6 0 9 0;
#X connect 8 0 12 0;
#X connect 10 0 8 0;
#X connect 11 0 5 0;
#X restore 362 176 pd blocksize;
#X obj 402 68 loadbang;
#X obj 402 89 f \$1;
#X obj 402 110 sel 0;
#X msg 402 211 1024;
#X connect 1 0 0 0;
#X connect 2 0 8 0;
#X connect 3 0 4 0;
#X connect 5 0 6 0;
#X connect 6 0 4 0;
#X connect 8 0 1 0;
#X connect 8 1 3 0;
#X connect 8 2 7 0;
#X connect 8 3 10 0;
#X connect 10 0 9 0;
#X connect 11 0 12 0;
#X connect 12 0 13 0;
#X connect 13 0 14 0;
#X connect 13 1 10 0;
#X connect 14 0 9 0;
#X restore 753 110 pd in;
#X obj 758 344 outlet;
#N canvas 3 50 450 300 outlet-message 0;
#X obj 159 239 list trim;
#X msg 79 237 addcomma;
#X msg 26 162 set;
#X obj 159 216 list prepend add2;
#X obj 113 87 t a b;
#X obj 159 324 outlet;
#X obj 113 184 t b a;
#X obj 166 14 r \$0-open;
#X obj 166 35 t b a;
#X obj 85 22 r \$0-drywet;
#X obj 228 15 r \$0-window-size;
#X obj 228 36 t b f;
#X obj 113 65 pack 100 s 1024;
#X msg 113 133 blocksize \$3 \, dry/wet \$1 \, loadIR \$2;
#X connect 0 0 5 0;
#X connect 1 0 5 0;
#X connect 2 0 5 0;
#X connect 3 0 0 0;
#X connect 4 0 13 0;
#X connect 4 1 2 0;
#X connect 6 0 1 0;
#X connect 6 1 3 0;
#X connect 7 0 8 0;
#X connect 8 0 12 0;
#X connect 8 1 12 1;
#X connect 9 0 12 0;
#X connect 10 0 11 0;
#X connect 11 0 12 0;
#X connect 11 1 12 2;
#X connect 12 0 4 0;
#X connect 13 0 6 0;
#X restore 758 292 pd outlet-message;
#N canvas 296 197 796 443 create 0;
#X obj 261 331 s pd-\$0-clone;
#X obj 240 386 s pd-\$0-container;
#X obj 221 232 t b b a;
#X obj 149 408 s \$0-loadbang;
#X msg 240 352 connect 0 0 2 0 \, connect 1 0 2 1 \, connect 2 0 3
0 \, connect 2 1 4 0;
#X msg 261 256 clear \, obj 300 50 inlet~ \, obj 500 50 inlet~ \, obj
100 200 outlet~ \, obj 300 200 outlet~ \, obj 100 100 clone pp.fft-partconv-st-part
\$1 \$2 \$3 \, connect 0 0 4 1 \, connect 1 0 4 2 \, connect 4 0 2
0 \, connect 4 1 3 0;
#N canvas 135 212 481 458 max-parts 0;
#N canvas 324 49 661 716 samples-onset 0;
#X obj 343 555 * 128;
#X obj 342 289 / 2;
#X obj 342 271 + 0.5;
#X obj 100 573 +;
#X obj 181 362 mod 2;
#X obj 129 546 * 0.5;
#X obj 100 497 list prepend 0;
#X obj 100 518 route 0 1;
#X obj 100 546 * 0;
#X obj 100 350 t f f;
#X obj 224 589 +;
#X obj 342 310 i;
#X obj 359 364 until;
#X obj 359 402 f 1;
#X obj 390 402 + 1;
#X msg 401 368 1;
#X obj 359 423 expr pow(2 \, $f1);
#X obj 359 444 t b f;
#X obj 359 489 f;
#X msg 490 414 0;
#X obj 415 498 +;
#X obj 343 536 f;
#X obj 342 330 t b f b b;
#X obj 472 521 / 2;
#X obj 342 246 f 12;
#X obj 101 167 / 2;
#X obj 101 188 i;
#X obj 101 149 + 0.5;
#X obj 101 220 + 8;
#X obj 101 241 min 20;
#X obj 101 260 expr pow(2 \, $f1);
#X obj 251 87 t float bang float bang;
#X obj 224 610 outlet;
#X obj 233 55 inlet;
#X obj 505 72 inlet;
#X obj 146 192 expr ln($f2)/ln(2);
#X obj 472 500 f 1024;
#X connect 0 0 3 1;
#X connect 1 0 11 0;
#X connect 2 0 1 0;
#X connect 3 0 10 0;
#X connect 4 0 6 1;
#X connect 5 0 3 0;
#X connect 6 0 7 0;
#X connect 7 0 8 0;
#X connect 7 1 5 0;
#X connect 8 0 3 0;
#X connect 9 0 6 0;
#X connect 9 1 10 1;
#X connect 10 0 32 0;
#X connect 11 0 22 0;
#X connect 12 0 13 0;
#X connect 13 0 14 0;
#X connect 13 0 16 0;
#X connect 14 0 13 1;
#X connect 15 0 13 1;
#X connect 16 0 17 0;
#X connect 17 0 18 0;
#X connect 17 1 20 1;
#X connect 18 0 20 0;
#X connect 19 0 18 1;
#X connect 19 0 21 0;
#X connect 20 0 18 1;
#X connect 20 0 21 1;
#X connect 21 0 0 0;
#X connect 22 0 21 0;
#X connect 22 1 12 0;
#X connect 22 2 15 0;
#X connect 22 3 19 0;
#X connect 23 0 0 1;
#X connect 24 0 2 0;
#X connect 24 0 4 0;
#X connect 25 0 26 0;
#X connect 26 0 28 0;
#X connect 27 0 25 0;
#X connect 28 0 29 0;
#X connect 29 0 30 0;
#X connect 30 0 9 0;
#X connect 31 0 27 0;
#X connect 31 1 35 0;
#X connect 31 2 24 0;
#X connect 31 3 36 0;
#X connect 33 0 31 0;
#X connect 34 0 35 1;
#X connect 34 0 36 1;
#X connect 35 0 28 1;
#X connect 36 0 23 0;
#X restore 275 205 pd samples-onset;
#X obj 275 237 <;
#X obj 165 143 f;
#X obj 197 144 + 1;
#X msg 204 118 0;
#X obj 164 81 t b b f;
#X obj 187 292 f;
#X obj 275 258 sel 0 1;
#X obj 175 174 t f f;
#X obj 164 120 until;
#X obj 187 313 outlet;
#X obj 369 71 inlet;
#X obj 164 60 min 261632;
#X obj 164 36 inlet;
#X connect 0 0 1 0;
#X connect 1 0 7 0;
#X connect 2 0 3 0;
#X connect 2 0 8 0;
#X connect 3 0 2 1;
#X connect 4 0 2 1;
#X connect 5 0 9 0;
#X connect 5 1 4 0;
#X connect 5 2 1 1;
#X connect 6 0 10 0;
#X connect 7 0 9 1;
#X connect 7 0 6 0;
#X connect 8 0 0 0;
#X connect 8 1 6 1;
#X connect 9 0 2 0;
#X connect 11 0 0 1;
#X connect 12 0 5 0;
#X connect 13 0 12 0;
#X restore 150 163 pd max-parts;
#X obj 219 210 pack 0 \$0 0;
#X obj 150 184 + 2;
#X obj 115 233 s \$0-maxparts;
#X obj 55 100 r \$0-ir-length;
#X obj 150 141 f;
#X obj 165 17 r \$0-window-size;
#X obj 165 38 t b f f;
#X connect 2 0 3 0;
#X connect 2 1 4 0;
#X connect 2 2 5 0;
#X connect 4 0 1 0;
#X connect 5 0 0 0;
#X connect 6 0 8 0;
#X connect 7 0 2 0;
#X connect 8 0 7 0;
#X connect 8 0 9 0;
#X connect 10 0 11 0;
#X connect 11 0 6 0;
#X connect 12 0 13 0;
#X connect 13 0 11 0;
#X connect 13 1 6 1;
#X connect 13 2 7 2;
#X restore 756 212 pd create;
#X obj 553 491 /;
#X obj 553 451 r \$0-maxparts;
#X msg 553 471 1 \$1;
#X obj 549 123 r \$0-drywet;
#X msg 549 162 \$1 20;
#X obj 549 184 line~;
#X obj 550 219 +~;
#X obj 316 229 sig~ 1;
#X obj 317 256 -~;
#X obj 298 309 *~;
#X obj 450 355 *~;
#X obj 645 88 inlet~ dry/wet;
#X obj 103 130 hsl 130 15 0 100 0 0 \$0-gui \$0-guir Dry/Wet(%) 3 8
2 10 -233017 -1 -1 12900 1;
#X obj 276 130 hsl 2 8 0 1 0 0 \$0-gui \$0-guir empty 3 8 2 10 -233017
-228856 -1 0 1;
#X obj 235 130 nbx 5 15 0 100 0 0 \$0-drywet \$0-drywetr empty 0 -8
2 10 -228856 -1 -1 100 256;
#X msg 158 186 set \$1;
#X obj 75 167 i;
#X msg 75 188 set \$1;
#X obj 54 217 s \$0-drywet;
#X obj 549 144 / 100;
#X obj 118 115 hsl 160 15 0 100 0 0 \$0-irnames \$0-irname empty..
3 8 2 10 -233017 -228856 -1 0 1;
#X obj 100 115 bng 15 250 50 0 \$0-obng \$0-obngr empty 17 7 0 10 -228856
-262144 -1;
#X obj 551 240 clip~ 0 1;
#X obj 491 85 inlet~;
#X obj 538 529 *~;
#X obj 536 357 *~;
#X obj 539 556 outlet~;
#X obj 380 314 *~;
#X obj 758 313 t b a;
#N canvas 149 330 450 300 \$0-container 0;
#X obj 178 55 inlet~;
#X obj 254 55 inlet~;
#N canvas 3 50 561 370 \$0-clone 0;
#X restore 190 97 pd \$0-clone;
#X obj 176 162 outlet~;
#X obj 254 162 outlet~;
#X restore 450 385 pd \$0-container;
#N canvas 3 50 450 300 delay 0;
#X obj 98 107 inlet~;
#X obj 98 128 outlet~;
#X obj 213 111 block~ \$1;
#X obj 146 107 inlet~;
#X obj 146 128 outlet~;
#X connect 0 0 1 0;
#X connect 3 0 4 0;
#X restore 299 389 pd delay clean;
#X obj 645 109 *~ 0.01;
#X text 795 539 philipp schmalfuß \, 2018;
#X text 798 539 philipp schmalfuß \, 2018;
#X connect 0 0 4 0;
#X connect 2 0 19 0;
#X connect 2 0 18 0;
#X connect 3 0 5 0;
#X connect 7 0 37 0;
#X connect 9 0 0 1;
#X connect 9 0 33 1;
#X connect 10 0 11 0;
#X connect 11 0 9 0;
#X connect 12 0 28 0;
#X connect 13 0 14 0;
#X connect 14 0 15 0;
#X connect 15 0 31 0;
#X connect 16 0 17 0;
#X connect 17 0 18 1;
#X connect 17 0 36 1;
#X connect 18 0 39 0;
#X connect 19 0 38 0;
#X connect 20 0 40 0;
#X connect 21 0 25 0;
#X connect 23 0 24 0;
#X connect 24 0 21 0;
#X connect 25 0 26 0;
#X connect 25 0 27 0;
#X connect 26 0 23 0;
#X connect 28 0 13 0;
#X connect 31 0 19 1;
#X connect 31 0 17 1;
#X connect 31 0 34 1;
#X connect 32 0 34 0;
#X connect 32 0 36 0;
#X connect 33 0 35 0;
#X connect 34 0 38 1;
#X connect 36 0 39 1;
#X connect 37 0 6 0;
#X connect 37 1 6 0;
#X connect 38 0 0 0;
#X connect 38 1 33 0;
#X connect 39 0 4 0;
#X connect 39 1 35 0;
#X connect 40 0 15 1;
#X coords 0 -1 1 1 180 48 1 100 100;
