#N canvas 142 221 539 374 10;
#N canvas 207 252 901 395 variables 0;
#X obj 42 190 t f b;
#X obj 51 212 samplerate~;
#X obj 42 258 v w\$0;
#X obj 284 276 expr sin(w\$0)/(2*$f1);
#X obj 284 297 v alpha\$0;
#X text 347 295 calculate alpha->Q;
#X obj 455 352 v alpha\$0;
#X text 518 350 calculate alpha->BW;
#X obj 455 330 expr sin(w\$0)*sinh(ln(2)/2*$f1*w\$0/sin(w\$0));
#X text 435 372 (for notch \, peak);
#X text 82 258 calculate w(0);
#X text 355 307 (for lop \, hip \, reson \, bp);
#X obj 159 197 atan;
#X msg 159 179 1;
#X obj 158 161 loadbang;
#X obj 159 217 * 8;
#X text 186 215 2*pi;
#X obj 284 166 + 100;
#X obj 284 185 dbtorms;
#X obj 667 270 v A\$0;
#X obj 667 246 expr pow(10 \, $f1/40);
#X text 707 272 calculate A -> Gain for peak;
#X obj 510 156 r \$0-filtertype;
#X obj 42 237 expr ($f3*$f1)/$f2;
#X obj 284 226 spigot 1;
#X obj 329 208 <= 2;
#X obj 441 196 list prepend;
#X obj 359 254 expr 1/($f1*.1);
#X obj 667 226 r \$0-2gain;
#X obj 441 27 r \$0-2bw;
#X obj 284 147 r \$0-2q;
#X obj 43 162 r \$0-2freq;
#X obj 441 217 route 3 4 5 6;
#X text 528 87 bw to q;
#N canvas 362 296 450 300 bw 0;
#X obj 163 67 inlet;
#X obj 252 67 r \$0-filtertype;
#X obj 163 137 list prepend 0;
#X obj 163 158 route 0 1;
#X msg 188 180 1 \$1;
#X obj 188 201 /;
#X obj 163 229 outlet;
#X obj 252 113 == 4;
#X connect 0 0 2 0;
#X connect 1 0 7 0;
#X connect 2 0 3 0;
#X connect 3 0 6 0;
#X connect 3 1 4 0;
#X connect 4 0 5 0;
#X connect 5 0 6 0;
#X connect 7 0 2 1;
#X restore 441 70 pd bw bp-notch;
#X obj 468 135 expr (pow(2 \, $f1)-1);
#X obj 441 112 expr (sqrt(pow(2 \, $f1)));
#X obj 441 91 t f f;
#X obj 441 148 /;
#X obj 441 48 max 1e-06;
#X connect 0 0 23 0;
#X connect 0 1 1 0;
#X connect 1 0 23 1;
#X connect 3 0 4 0;
#X connect 8 0 6 0;
#X connect 12 0 15 0;
#X connect 13 0 12 0;
#X connect 14 0 13 0;
#X connect 15 0 23 2;
#X connect 17 0 18 0;
#X connect 18 0 24 0;
#X connect 20 0 19 0;
#X connect 22 0 25 0;
#X connect 22 0 26 1;
#X connect 23 0 2 0;
#X connect 24 0 3 0;
#X connect 25 0 24 1;
#X connect 26 0 32 0;
#X connect 27 0 3 0;
#X connect 28 0 20 0;
#X connect 29 0 39 0;
#X connect 30 0 17 0;
#X connect 31 0 0 0;
#X connect 32 0 27 0;
#X connect 32 1 8 0;
#X connect 32 2 8 0;
#X connect 32 3 8 0;
#X connect 34 0 37 0;
#X connect 35 0 38 1;
#X connect 36 0 38 0;
#X connect 37 0 36 0;
#X connect 37 1 35 0;
#X connect 38 0 26 0;
#X connect 39 0 34 0;
#X restore 413 189 pd variables;
#N canvas 194 117 1069 599 stuff 0;
#X obj 60 392 s \$0-do;
#X obj 167 223 t b f;
#X obj 167 203 f;
#X obj 60 143 t b b f;
#X obj 384 103 r \$0-filtertype;
#X obj 60 359 f 0;
#X obj 384 124 t b f;
#X obj 340 82 t b f;
#X obj 221 226 t b f;
#X obj 221 206 f;
#X obj 60 282 del 0;
#X obj 72 55 t f b;
#X obj 75 98 / 2;
#X obj 75 77 samplerate~;
#X obj 167 144 clip -99 100;
#X obj 226 84 clip 1e-09 100;
#X obj 101 306 s \$0-2freq;
#X obj 194 306 s \$0-2q;
#X obj 248 306 s \$0-2bw;
#X obj 367 312 s \$0-2gain;
#X obj 73 8 r \$0-freq;
#X obj 166 120 r \$0-q;
#X obj 226 62 r \$0-bw;
#X obj 341 57 r \$0-gain;
#X obj 654 27 r \$0-filtertype;
#X obj 510 305 s \$0-filtertyper;
#X msg 511 106 Lowpass;
#X msg 525 127 Highpass;
#X msg 543 151 Reson;
#X msg 560 176 Bandpass;
#X msg 569 203 Notch;
#X msg 583 226 Peaking;
#X obj 510 263 symbol;
#X msg 510 284 label \$1;
#X obj 332 148 del 1;
#X obj 665 161 s \$0-qguir;
#X obj 685 181 s \$0-qr;
#X obj 654 72 > 2;
#X obj 654 93 sel 0 1;
#X msg 640 113 color 0;
#X msg 726 112 color 0;
#X obj 740 92 sel 1 0;
#X obj 768 180 s \$0-bwr;
#X obj 751 159 s \$0-bwguir;
#X msg 816 114 color 0;
#X obj 830 94 sel 1 0;
#X obj 841 161 s \$0-gguir;
#X obj 858 182 s \$0-gainr;
#X obj 667 215 loadbang;
#X obj 666 318 pack 0 \$0;
#X msg 666 339 \; \$2-freqr 400 \; \$2-qr -3 \; \$2-bwr 1 \; \$2-gainr
0 \; \$2-filtertyper \$1;
#X obj 666 235 symbol \$1;
#X msg 666 277 0;
#X msg 694 279 1;
#X msg 726 279 2;
#X msg 758 279 3;
#X msg 793 280 4;
#X msg 845 281 5;
#X obj 992 288 t b;
#X obj 526 324 s \$0-visbngr;
#X obj 548 477 s \$0-visbngr;
#X obj 530 372 r \$0-visbng;
#X msg 528 449 color 0 0;
#X msg 612 449 color 10 10;
#X obj 530 394 t b;
#X obj 610 424 del 250;
#X obj 494 526 s pd-\$0-filter;
#X msg 665 133 color 1;
#X msg 751 132 color 1;
#X msg 841 134 color 1;
#X obj 30 122 clip 1e-24 20050;
#X msg 494 504 relocate 230x135+1+1 1x1+50+60 \, vis 1;
#X obj 511 85 sel 0 1 2 3 4 5 6;
#X msg 597 245 Allpass;
#X obj 939 161 s \$0-gguir;
#X obj 956 182 s \$0-gainr;
#X obj 830 73 > 4;
#X msg 939 125 color 1;
#X obj 939 80 == 6;
#X obj 939 101 sel 1;
#X obj 666 256 sel lowpass highpass reson bandpass notch peaking allpass
;
#X msg 893 284 6;
#X connect 1 0 10 0;
#X connect 1 1 17 0;
#X connect 2 0 1 0;
#X connect 3 0 10 0;
#X connect 3 1 2 0;
#X connect 3 1 9 0;
#X connect 3 2 16 0;
#X connect 4 0 6 0;
#X connect 5 0 0 0;
#X connect 6 0 34 0;
#X connect 6 1 5 1;
#X connect 7 0 9 0;
#X connect 7 1 19 0;
#X connect 8 0 10 0;
#X connect 8 1 18 0;
#X connect 9 0 8 0;
#X connect 10 0 5 0;
#X connect 11 0 70 0;
#X connect 11 1 13 0;
#X connect 12 0 70 2;
#X connect 13 0 12 0;
#X connect 14 0 2 0;
#X connect 15 0 9 0;
#X connect 20 0 11 0;
#X connect 21 0 14 0;
#X connect 22 0 15 0;
#X connect 23 0 7 0;
#X connect 24 0 37 0;
#X connect 24 0 72 0;
#X connect 24 0 76 0;
#X connect 24 0 78 0;
#X connect 26 0 32 0;
#X connect 27 0 32 0;
#X connect 28 0 32 0;
#X connect 29 0 32 0;
#X connect 30 0 32 0;
#X connect 31 0 32 0;
#X connect 32 0 33 0;
#X connect 33 0 25 0;
#X connect 33 0 59 0;
#X connect 34 0 9 0;
#X connect 34 0 2 0;
#X connect 37 0 38 0;
#X connect 37 0 41 0;
#X connect 38 0 39 0;
#X connect 38 1 67 0;
#X connect 39 0 35 0;
#X connect 39 0 36 0;
#X connect 40 0 42 0;
#X connect 40 0 43 0;
#X connect 41 0 40 0;
#X connect 41 1 68 0;
#X connect 44 0 46 0;
#X connect 44 0 47 0;
#X connect 45 0 44 0;
#X connect 45 1 69 0;
#X connect 48 0 51 0;
#X connect 49 0 50 0;
#X connect 51 0 80 0;
#X connect 52 0 49 0;
#X connect 53 0 49 0;
#X connect 54 0 49 0;
#X connect 55 0 49 0;
#X connect 56 0 49 0;
#X connect 57 0 49 0;
#X connect 58 0 49 0;
#X connect 61 0 64 0;
#X connect 62 0 60 0;
#X connect 63 0 60 0;
#X connect 64 0 62 0;
#X connect 64 0 65 0;
#X connect 64 0 71 0;
#X connect 65 0 63 0;
#X connect 67 0 35 0;
#X connect 67 0 36 0;
#X connect 68 0 42 0;
#X connect 68 0 43 0;
#X connect 69 0 46 0;
#X connect 69 0 47 0;
#X connect 70 0 3 0;
#X connect 71 0 66 0;
#X connect 72 0 26 0;
#X connect 72 1 27 0;
#X connect 72 2 28 0;
#X connect 72 3 29 0;
#X connect 72 4 30 0;
#X connect 72 5 31 0;
#X connect 72 6 73 0;
#X connect 73 0 32 0;
#X connect 76 0 45 0;
#X connect 77 0 74 0;
#X connect 77 0 75 0;
#X connect 78 0 79 0;
#X connect 79 0 77 0;
#X connect 80 0 52 0;
#X connect 80 1 53 0;
#X connect 80 2 54 0;
#X connect 80 3 55 0;
#X connect 80 4 56 0;
#X connect 80 5 57 0;
#X connect 80 6 81 0;
#X connect 80 7 58 0;
#X connect 81 0 49 0;
#X restore 413 167 pd stuff;
#N canvas 50 87 230 135 \$0-filter 0;
#N canvas 3 171 714 345 mask 0;
#X obj 100 100 cnv 15 219 129 empty empty empty 20 12 0 14 -262144
-66577 0;
#X obj 107 108 hradio 11 1 0 7 \$0-filtertype \$0-filtertyper Lowpass
80 6 2 10 -262144 -1 -1 0;
#X obj 110 132 hsl 128 12 0 135.076 0 0 \$0-fgui \$0-fguir Frequency
-2 -6 2 10 -262144 -1 -1 6332 1;
#X obj 244 132 nbx 5 12 0 1e+17 0 0 \$0-freq \$0-freqr hz 47 7 2 10
-262144 -1 -1 400 256;
#N canvas 0 50 450 300 map 0;
#X obj 43 26 inlet;
#X obj 192 54 inlet;
#X obj 94 160 outlet;
#X obj 192 127 outlet;
#X obj 93 79 mtof;
#X obj 94 119 i;
#X obj 192 81 ftom;
#X msg 192 102 set \$1;
#X msg 94 140 set \$1;
#X obj 23 153 s \$0-freq;
#X obj 93 101 + 0.5;
#X obj 42 48 moses 0.1;
#X connect 0 0 11 0;
#X connect 1 0 6 0;
#X connect 4 0 10 0;
#X connect 5 0 8 0;
#X connect 5 0 9 0;
#X connect 6 0 7 0;
#X connect 7 0 3 0;
#X connect 8 0 2 0;
#X connect 10 0 5 0;
#X connect 11 0 5 0;
#X connect 11 0 9 0;
#X connect 11 1 4 0;
#X restore 47 130 pd map;
#X obj 110 158 hsl 128 12 -3 24 0 0 \$0-qgui \$0-qguir Q -2 -7 2 10
-262144 -1 -1 0 1;
#X obj 244 158 nbx 5 12 -99 100 0 0 \$0-q \$0-qr db 47 7 2 10 -262144
-1 -1 -3 256;
#N canvas 0 50 450 300 map 0;
#X obj 94 33 inlet;
#X obj 192 56 inlet;
#X obj 94 160 outlet;
#X obj 192 127 outlet;
#X obj 94 84 i;
#X msg 192 102 set \$1;
#X msg 94 140 set \$1;
#X obj 23 153 s \$0-q;
#X connect 0 0 4 0;
#X connect 1 0 5 0;
#X connect 4 0 6 0;
#X connect 4 0 7 0;
#X connect 5 0 3 0;
#X connect 6 0 2 0;
#X restore 47 156 pd map;
#X obj 110 183 hsl 128 12 0 1 0 0 \$0-bwgui \$0-bwguir Bandwidth -2
-7 2 10 -166441 -1 -1 2840 1;
#X obj 244 183 nbx 5 12 0 100 0 0 \$0-bw \$0-bwr empty 47 7 2 10 -166441
-1 -1 1 256;
#N canvas 3 50 450 300 map 0;
#X obj 95 33 inlet;
#X obj 192 30 inlet;
#X obj 94 160 outlet;
#X obj 192 163 outlet;
#X msg 192 138 set \$1;
#X msg 94 140 set \$1;
#X obj 94 100 * 20;
#X obj 95 72 pow 2;
#X obj 192 88 / 20;
#X obj 192 109 sqrt;
#X obj 23 153 s \$0-bw;
#X connect 0 0 7 0;
#X connect 1 0 8 0;
#X connect 4 0 3 0;
#X connect 5 0 2 0;
#X connect 6 0 5 0;
#X connect 6 0 10 0;
#X connect 7 0 6 0;
#X connect 8 0 9 0;
#X connect 9 0 4 0;
#X restore 47 183 pd map;
#X obj 111 208 hsl 128 12 -24 24 0 0 \$0-ggui \$0-gguir Gain -2 -7
2 10 -166441 -1 -1 6350 1;
#X obj 245 208 nbx 5 12 -99 100 0 0 \$0-gain \$0-gainr db 47 7 2 10
-166441 -1 -1 0 256;
#N canvas 0 50 450 300 map 0;
#X obj 95 33 inlet;
#X obj 192 30 inlet;
#X obj 94 160 outlet;
#X obj 192 163 outlet;
#X msg 192 138 set \$1;
#X msg 94 140 set \$1;
#X obj 95 81 i;
#X obj 193 112 i;
#X obj 23 153 s \$0-gain;
#X connect 0 0 6 0;
#X connect 1 0 7 0;
#X connect 4 0 3 0;
#X connect 5 0 2 0;
#X connect 6 0 5 0;
#X connect 6 0 8 0;
#X connect 7 0 4 0;
#X restore 48 208 pd map;
#X obj 238 111 cnv 10 10 10 empty empty filter~ 0 5 2 14 -262144 -162280
0;
#X connect 2 0 4 0;
#X connect 3 0 4 1;
#X connect 4 0 3 0;
#X connect 4 1 2 0;
#X connect 5 0 7 0;
#X connect 6 0 7 1;
#X connect 7 0 6 0;
#X connect 7 1 5 0;
#X connect 8 0 10 0;
#X connect 9 0 10 1;
#X connect 10 0 9 0;
#X connect 10 1 8 0;
#X connect 11 0 13 0;
#X connect 12 0 13 1;
#X connect 13 0 12 0;
#X connect 13 1 11 0;
#X coords 0 -1 1 1 220 130 2 100 100;
#X restore 5 2 pd mask;
#X restore 414 141 pd \$0-filter;
#X obj 414 87 inlet;
#N canvas 714 231 450 300 in 0;
#X obj 70 70 inlet;
#X obj 70 153 s \$0-filtertyper;
#X msg 70 117 0;
#X msg 98 119 1;
#X msg 130 119 2;
#X msg 162 119 3;
#X msg 197 120 4;
#X msg 232 119 5;
#X obj 70 207 route frequency q bandwitdth gain;
#X obj 70 235 s \$0-freqr;
#X obj 115 260 s \$0-qr;
#X obj 150 239 s \$0-bwr;
#X obj 201 263 s \$0-gainr;
#X obj 70 91 route lowpass highpass reson bandpass notch peaking allpass
;
#X msg 265 122 6;
#X connect 0 0 13 0;
#X connect 2 0 1 0;
#X connect 3 0 1 0;
#X connect 4 0 1 0;
#X connect 5 0 1 0;
#X connect 6 0 1 0;
#X connect 7 0 1 0;
#X connect 8 0 9 0;
#X connect 8 1 10 0;
#X connect 8 2 11 0;
#X connect 8 3 12 0;
#X connect 13 0 2 0;
#X connect 13 1 3 0;
#X connect 13 2 4 0;
#X connect 13 3 5 0;
#X connect 13 4 6 0;
#X connect 13 5 7 0;
#X connect 13 6 14 0;
#X connect 13 7 8 0;
#X connect 14 0 1 0;
#X restore 414 108 pd in;
#X obj 412 289 outlet;
#X obj 412 263 t b a;
#X obj 103 115 hsl 150 15 0 127 0 0 \$0-visbng \$0-visbngr Lowpass
50 8 2 10 -233017 -233017 -1 0 1;
#N canvas 3 215 1125 550 filtercoef 0;
#X obj 362 68 r \$0-do;
#X text 992 231 a1 a2 b0 b1 b2 a0;
#X obj 99 171 expr -2*cos(w\$0) \; 1-alpha\$0 \; (1-cos(w\$0))/2 \;
1-cos(w\$0) \; (1-cos(w\$0))/2 \; 1+alpha\$0;
#N canvas 0 50 450 300 pack4biquad 0;
#X obj 84 149 /;
#X obj 121 148 /;
#X obj 159 146 /;
#X obj 196 145 /;
#X obj 235 145 /;
#X obj 154 191 pack 0 0 0 0 0;
#X obj 84 101 * -1;
#X obj 121 101 * -1;
#X obj 84 71 inlet;
#X obj 121 71 inlet;
#X obj 159 71 inlet;
#X obj 196 71 inlet;
#X obj 235 71 inlet;
#X obj 272 71 inlet;
#X obj 154 212 outlet;
#X connect 0 0 5 0;
#X connect 1 0 5 1;
#X connect 2 0 5 2;
#X connect 3 0 5 3;
#X connect 4 0 5 4;
#X connect 5 0 14 0;
#X connect 6 0 0 0;
#X connect 7 0 1 0;
#X connect 8 0 6 0;
#X connect 9 0 7 0;
#X connect 10 0 2 0;
#X connect 11 0 3 0;
#X connect 12 0 4 0;
#X connect 13 0 4 1;
#X connect 13 0 3 1;
#X connect 13 0 2 1;
#X connect 13 0 1 1;
#X connect 13 0 0 1;
#X restore 100 267 pd pack4biquad;
#N canvas 3 50 450 300 pack4biquad 0;
#X obj 84 149 /;
#X obj 121 148 /;
#X obj 159 146 /;
#X obj 196 145 /;
#X obj 235 145 /;
#X obj 154 191 pack 0 0 0 0 0;
#X obj 84 101 * -1;
#X obj 121 101 * -1;
#X obj 84 71 inlet;
#X obj 121 71 inlet;
#X obj 159 71 inlet;
#X obj 196 71 inlet;
#X obj 235 71 inlet;
#X obj 272 71 inlet;
#X obj 154 212 outlet;
#X connect 0 0 5 0;
#X connect 1 0 5 1;
#X connect 2 0 5 2;
#X connect 3 0 5 3;
#X connect 4 0 5 4;
#X connect 5 0 14 0;
#X connect 6 0 0 0;
#X connect 7 0 1 0;
#X connect 8 0 6 0;
#X connect 9 0 7 0;
#X connect 10 0 2 0;
#X connect 11 0 3 0;
#X connect 12 0 4 0;
#X connect 13 0 4 1;
#X connect 13 0 3 1;
#X connect 13 0 2 1;
#X connect 13 0 1 1;
#X connect 13 0 0 1;
#X restore 230 265 pd pack4biquad;
#X obj 230 175 expr -2*cos(w\$0) \; 1-alpha\$0 \; (1+cos(w\$0))/2 \;
-(1+cos(w\$0)) \; (1+cos(w\$0))/2 \; 1+alpha\$0;
#N canvas 0 50 450 300 pack4biquad 0;
#X obj 84 149 /;
#X obj 121 148 /;
#X obj 159 146 /;
#X obj 196 145 /;
#X obj 235 145 /;
#X obj 154 191 pack 0 0 0 0 0;
#X obj 84 101 * -1;
#X obj 121 101 * -1;
#X obj 84 71 inlet;
#X obj 121 71 inlet;
#X obj 159 71 inlet;
#X obj 196 71 inlet;
#X obj 235 71 inlet;
#X obj 272 71 inlet;
#X obj 154 212 outlet;
#X connect 0 0 5 0;
#X connect 1 0 5 1;
#X connect 2 0 5 2;
#X connect 3 0 5 3;
#X connect 4 0 5 4;
#X connect 5 0 14 0;
#X connect 6 0 0 0;
#X connect 7 0 1 0;
#X connect 8 0 6 0;
#X connect 9 0 7 0;
#X connect 10 0 2 0;
#X connect 11 0 3 0;
#X connect 12 0 4 0;
#X connect 13 0 4 1;
#X connect 13 0 3 1;
#X connect 13 0 2 1;
#X connect 13 0 1 1;
#X connect 13 0 0 1;
#X restore 365 266 pd pack4biquad;
#X text 163 153 lop;
#X text 303 155 hip;
#X obj 365 176 expr -2*cos(w\$0) \; 1-alpha\$0 \; sin(w\$0)/2 \; 0
\; -1*sin(w\$0)/2 \; 1+alpha\$0;
#X text 422 154 reson;
#N canvas 0 50 450 300 pack4biquad 0;
#X obj 84 149 /;
#X obj 121 148 /;
#X obj 159 146 /;
#X obj 196 145 /;
#X obj 235 145 /;
#X obj 154 191 pack 0 0 0 0 0;
#X obj 84 101 * -1;
#X obj 121 101 * -1;
#X obj 84 71 inlet;
#X obj 121 71 inlet;
#X obj 159 71 inlet;
#X obj 196 71 inlet;
#X obj 235 71 inlet;
#X obj 272 71 inlet;
#X obj 154 212 outlet;
#X connect 0 0 5 0;
#X connect 1 0 5 1;
#X connect 2 0 5 2;
#X connect 3 0 5 3;
#X connect 4 0 5 4;
#X connect 5 0 14 0;
#X connect 6 0 0 0;
#X connect 7 0 1 0;
#X connect 8 0 6 0;
#X connect 9 0 7 0;
#X connect 10 0 2 0;
#X connect 11 0 3 0;
#X connect 12 0 4 0;
#X connect 13 0 4 1;
#X connect 13 0 3 1;
#X connect 13 0 2 1;
#X connect 13 0 1 1;
#X connect 13 0 0 1;
#X restore 491 264 pd pack4biquad;
#X text 549 152 bp;
#X obj 491 174 expr -2*cos(w\$0) \; 1-alpha\$0 \; alpha\$0 \; 0 \;
-1*alpha\$0 \; 1+alpha\$0;
#N canvas 0 50 450 300 pack4biquad 0;
#X obj 84 149 /;
#X obj 121 148 /;
#X obj 159 146 /;
#X obj 196 145 /;
#X obj 235 145 /;
#X obj 154 191 pack 0 0 0 0 0;
#X obj 84 101 * -1;
#X obj 121 101 * -1;
#X obj 84 71 inlet;
#X obj 121 71 inlet;
#X obj 159 71 inlet;
#X obj 196 71 inlet;
#X obj 235 71 inlet;
#X obj 272 71 inlet;
#X obj 154 212 outlet;
#X connect 0 0 5 0;
#X connect 1 0 5 1;
#X connect 2 0 5 2;
#X connect 3 0 5 3;
#X connect 4 0 5 4;
#X connect 5 0 14 0;
#X connect 6 0 0 0;
#X connect 7 0 1 0;
#X connect 8 0 6 0;
#X connect 9 0 7 0;
#X connect 10 0 2 0;
#X connect 11 0 3 0;
#X connect 12 0 4 0;
#X connect 13 0 4 1;
#X connect 13 0 3 1;
#X connect 13 0 2 1;
#X connect 13 0 1 1;
#X connect 13 0 0 1;
#X restore 620 261 pd pack4biquad;
#X obj 620 171 expr -2*cos(w\$0) \; 1-alpha\$0 \; 1 \; -2*cos(w\$0)
\; 1 \; 1+alpha\$0;
#X text 678 149 notch;
#N canvas 0 50 450 300 pack4biquad 0;
#X obj 84 149 /;
#X obj 121 148 /;
#X obj 159 146 /;
#X obj 196 145 /;
#X obj 235 145 /;
#X obj 154 191 pack 0 0 0 0 0;
#X obj 84 101 * -1;
#X obj 121 101 * -1;
#X obj 84 71 inlet;
#X obj 121 71 inlet;
#X obj 159 71 inlet;
#X obj 196 71 inlet;
#X obj 235 71 inlet;
#X obj 272 71 inlet;
#X obj 154 212 outlet;
#X connect 0 0 5 0;
#X connect 1 0 5 1;
#X connect 2 0 5 2;
#X connect 3 0 5 3;
#X connect 4 0 5 4;
#X connect 5 0 14 0;
#X connect 6 0 0 0;
#X connect 7 0 1 0;
#X connect 8 0 6 0;
#X connect 9 0 7 0;
#X connect 10 0 2 0;
#X connect 11 0 3 0;
#X connect 12 0 4 0;
#X connect 13 0 4 1;
#X connect 13 0 3 1;
#X connect 13 0 2 1;
#X connect 13 0 1 1;
#X connect 13 0 0 1;
#X restore 750 264 pd pack4biquad;
#X text 808 152 peakEQ;
#X obj 100 316 outlet;
#X obj 750 174 expr -2*cos(w\$0) \; 1-alpha\$0/A\$0 \; 1+alpha\$0*A\$0
\; -2*cos(w\$0) \; 1-alpha\$0*A\$0 \; 1+alpha\$0/A\$0;
#N canvas 0 50 450 300 pack4biquad 0;
#X obj 84 149 /;
#X obj 121 148 /;
#X obj 159 146 /;
#X obj 196 145 /;
#X obj 235 145 /;
#X obj 154 191 pack 0 0 0 0 0;
#X obj 84 101 * -1;
#X obj 121 101 * -1;
#X obj 84 71 inlet;
#X obj 121 71 inlet;
#X obj 159 71 inlet;
#X obj 196 71 inlet;
#X obj 235 71 inlet;
#X obj 272 71 inlet;
#X obj 154 212 outlet;
#X connect 0 0 5 0;
#X connect 1 0 5 1;
#X connect 2 0 5 2;
#X connect 3 0 5 3;
#X connect 4 0 5 4;
#X connect 5 0 14 0;
#X connect 6 0 0 0;
#X connect 7 0 1 0;
#X connect 8 0 6 0;
#X connect 9 0 7 0;
#X connect 10 0 2 0;
#X connect 11 0 3 0;
#X connect 12 0 4 0;
#X connect 13 0 4 1;
#X connect 13 0 3 1;
#X connect 13 0 2 1;
#X connect 13 0 1 1;
#X connect 13 0 0 1;
#X restore 879 266 pd pack4biquad;
#X obj 362 88 sel 0 1 2 3 4 5 6;
#X obj 879 176 expr -2*cos(w\$0) \; 1-alpha\$0 \; 1-alpha\$0 \; -2*cos(w\$0)
\; 1+alpha\$0 \; 1+alpha\$0;
#X text 945 156 allpass;
#X connect 0 0 22 0;
#X connect 2 0 3 0;
#X connect 2 1 3 1;
#X connect 2 2 3 2;
#X connect 2 3 3 3;
#X connect 2 4 3 4;
#X connect 2 5 3 5;
#X connect 3 0 19 0;
#X connect 4 0 19 0;
#X connect 5 0 4 0;
#X connect 5 1 4 1;
#X connect 5 2 4 2;
#X connect 5 3 4 3;
#X connect 5 4 4 4;
#X connect 5 5 4 5;
#X connect 6 0 19 0;
#X connect 9 0 6 0;
#X connect 9 1 6 1;
#X connect 9 2 6 2;
#X connect 9 3 6 3;
#X connect 9 4 6 4;
#X connect 9 5 6 5;
#X connect 11 0 19 0;
#X connect 13 0 11 0;
#X connect 13 1 11 1;
#X connect 13 2 11 2;
#X connect 13 3 11 3;
#X connect 13 4 11 4;
#X connect 13 5 11 5;
#X connect 14 0 19 0;
#X connect 15 0 14 0;
#X connect 15 1 14 1;
#X connect 15 2 14 2;
#X connect 15 3 14 3;
#X connect 15 4 14 4;
#X connect 15 5 14 5;
#X connect 17 0 19 0;
#X connect 20 0 17 0;
#X connect 20 1 17 1;
#X connect 20 2 17 2;
#X connect 20 3 17 3;
#X connect 20 4 17 4;
#X connect 20 5 17 5;
#X connect 21 0 19 0;
#X connect 22 0 2 0;
#X connect 22 1 5 0;
#X connect 22 2 9 0;
#X connect 22 3 13 0;
#X connect 22 4 15 0;
#X connect 22 5 20 0;
#X connect 22 6 23 0;
#X connect 23 0 21 0;
#X connect 23 1 21 1;
#X connect 23 2 21 2;
#X connect 23 3 21 3;
#X connect 23 4 21 4;
#X connect 23 5 21 5;
#X restore 354 210 pd filtercoef;
#X obj 334 90 inlet~;
#X obj 333 296 outlet~;
#N canvas 297 222 781 543 outlet-message 0;
#N canvas 138 320 986 300 bang_once.......................................
0;
#X obj 174 87 t b f;
#X obj 132 87 t b f;
#X obj 89 139 del 0;
#X obj 89 87 t b f;
#X obj 217 87 t b f;
#X obj 89 41 inlet;
#X obj 132 40 inlet;
#X obj 174 40 inlet;
#X obj 217 40 inlet;
#X obj 261 41 inlet;
#X obj 89 247 outlet;
#X obj 89 173 f;
#X obj 261 87 t b a;
#X obj 89 203 pack 0 0 0 0 s;
#X connect 0 0 2 0;
#X connect 0 1 13 2;
#X connect 1 0 2 0;
#X connect 1 1 13 1;
#X connect 2 0 11 0;
#X connect 3 0 2 0;
#X connect 3 1 11 1;
#X connect 4 0 2 0;
#X connect 4 1 13 3;
#X connect 5 0 3 0;
#X connect 6 0 1 0;
#X connect 7 0 0 0;
#X connect 8 0 4 0;
#X connect 9 0 12 0;
#X connect 11 0 13 0;
#X connect 12 0 2 0;
#X connect 12 1 13 4;
#X connect 13 0 10 0;
#X restore 241 314 pd bang_once.......................................
;
#X obj 308 438 list trim;
#X msg 228 436 addcomma;
#X msg 164 443 set;
#X obj 308 415 list prepend add2;
#X obj 240 334 t a b;
#X obj 308 523 outlet;
#X obj 262 391 t b a;
#X obj 223 95 r \$0-freq;
#X obj 302 122 r \$0-q;
#X obj 400 96 r \$0-bw;
#X obj 525 53 r \$0-gain;
#X obj 589 62 r \$0-filtertype;
#X obj 588 298 symbol;
#X msg 262 364 \$5 \, frequency \$1 \, q \$2 \, bandwitdth \$3 \, gain
\$4;
#X msg 589 125 lowpass;
#X msg 603 146 highpass;
#X msg 621 170 reson;
#X msg 638 195 bandpass;
#X msg 647 222 notch;
#X msg 661 245 peaking;
#X msg 676 265 allpass;
#X obj 589 104 sel 0 1 2 3 4 5 6;
#X connect 0 0 5 0;
#X connect 1 0 6 0;
#X connect 2 0 6 0;
#X connect 3 0 6 0;
#X connect 4 0 1 0;
#X connect 5 0 14 0;
#X connect 5 1 3 0;
#X connect 7 0 2 0;
#X connect 7 1 4 0;
#X connect 8 0 0 0;
#X connect 9 0 0 1;
#X connect 10 0 0 2;
#X connect 11 0 0 3;
#X connect 12 0 22 0;
#X connect 13 0 0 4;
#X connect 14 0 7 0;
#X connect 15 0 13 0;
#X connect 16 0 13 0;
#X connect 17 0 13 0;
#X connect 18 0 13 0;
#X connect 19 0 13 0;
#X connect 20 0 13 0;
#X connect 21 0 13 0;
#X connect 22 0 15 0;
#X connect 22 1 16 0;
#X connect 22 2 17 0;
#X connect 22 3 18 0;
#X connect 22 4 19 0;
#X connect 22 5 20 0;
#X connect 22 6 21 0;
#X restore 412 242 pd outlet-message;
#X obj 334 233 biquad~;
#X obj 278 90 inlet~;
#X obj 277 296 outlet~;
#X obj 278 233 biquad~;
#X text 384 350 philipp schmalfuß \, 2018;
#X text 387 350 philipp schmalfuß \, 2018;
#X connect 3 0 4 0;
#X connect 6 0 5 0;
#X connect 6 1 5 0;
#X connect 8 0 12 0;
#X connect 8 0 15 0;
#X connect 9 0 12 0;
#X connect 11 0 6 0;
#X connect 12 0 10 0;
#X connect 13 0 15 0;
#X connect 15 0 14 0;
#X coords 0 -1 1 1 155 33 1 100 100;
