#N canvas 232 125 921 570 10;
#X msg 577 322 \$1 50;
#X obj 577 344 line~;
#X obj 439 384 *~;
#X obj 103 115 hsl 100 17 0 1 0 0 \$0-vol \$0-volr 0db 5 8 2 10 -228856
-1 -1 0 1;
#X obj 345 358 s \$0-volr;
#X msg 345 336 label \$1db;
#X obj 348 32 r \$0-vol;
#X obj 345 176 * 100;
#X obj 348 135 sqrt;
#X obj 346 156 sqrt;
#X obj 577 300 dbtorms;
#X obj 345 275 * 10;
#X obj 345 295 i;
#X obj 345 316 / 10;
#X obj 746 49 inlet;
#X obj 746 215 / 100;
#X obj 746 236 pow 4;
#X obj 746 293 s \$0-volr;
#X obj 439 416 outlet~;
#X obj 440 315 adc~ \$1;
#X msg 440 287 1;
#X msg 365 516 label \$1;
#X obj 365 537 s \$0-lev;
#X obj 365 448 i;
#X obj 365 493 makefilename %ddb;
#X obj 365 428 + 0.5;
#X obj 365 471 change;
#X obj 206 115 cnv 12 24 17 empty empty empty 3 8 2 10 -1 -66577 0
;
#X obj 206 116 cnv 15 24 15 empty \$0-lev 0db 2 8 2 10 -228856 -1 0
;
#X obj 817 101 sel 0;
#X msg 817 122 set 1;
#X obj 817 59 loadbang;
#X obj 817 80 f \$1;
#X obj 365 405 env~ 8192;
#X obj 804 229 s \$0-set;
#X obj 440 266 r \$0-set;
#X obj 746 192 route volume channel;
#N canvas 390 172 450 330 outlet-message 0;
#X obj 177 72 r \$0-set;
#X obj 116 72 r \$0-vol;
#X obj 116 97 pack;
#X obj 184 231 list trim;
#X msg 104 222 addcomma;
#X msg 40 229 set;
#X obj 184 208 list prepend add2;
#X obj 116 120 t a b;
#X obj 184 309 outlet;
#X obj 138 177 t b a;
#X msg 138 150 volume \$1 \, channel \$2;
#X connect 0 0 2 1;
#X connect 1 0 2 0;
#X connect 2 0 7 0;
#X connect 3 0 8 0;
#X connect 4 0 8 0;
#X connect 5 0 8 0;
#X connect 6 0 3 0;
#X connect 7 0 10 0;
#X connect 7 1 5 0;
#X connect 9 0 4 0;
#X connect 9 1 6 0;
#X connect 10 0 9 0;
#X restore 739 450 pd outlet-message;
#X obj 817 149 s \$0-set;
#X obj 739 471 t b a;
#X obj 739 492 outlet;
#X text 717 534 philipp schmalfuß \, 2018;
#X text 720 534 philipp schmalfuß \, 2018;
#X connect 0 0 1 0;
#X connect 1 0 2 1;
#X connect 2 0 18 0;
#X connect 2 0 33 0;
#X connect 5 0 4 0;
#X connect 6 0 8 0;
#X connect 7 0 10 0;
#X connect 7 0 11 0;
#X connect 8 0 9 0;
#X connect 9 0 7 0;
#X connect 10 0 0 0;
#X connect 11 0 12 0;
#X connect 12 0 13 0;
#X connect 13 0 5 0;
#X connect 14 0 36 0;
#X connect 15 0 16 0;
#X connect 16 0 17 0;
#X connect 19 0 2 0;
#X connect 20 0 19 0;
#X connect 21 0 22 0;
#X connect 23 0 26 0;
#X connect 24 0 21 0;
#X connect 25 0 23 0;
#X connect 26 0 24 0;
#X connect 29 0 30 0;
#X connect 29 1 38 0;
#X connect 30 0 38 0;
#X connect 31 0 32 0;
#X connect 32 0 29 0;
#X connect 33 0 25 0;
#X connect 35 0 20 0;
#X connect 36 0 15 0;
#X connect 36 1 34 0;
#X connect 37 0 39 0;
#X connect 39 0 40 0;
#X connect 39 1 40 0;
#X coords 0 -1 1 1 131 35 1 100 100;
