#N canvas 387 125 753 308 10;
#X obj 1 2 cnv 15 380 300 empty empty empty 20 12 0 14 -233017 -66577
0;
#X text 10 91 Inlets:;
#X obj 12 20 cnv 15 10 10 empty empty pp.mult~ 0 0 2 16 -233017 -262144
0;
#X text 68 92 1-n:(~)signal;
#X obj 389 210 env~;
#X obj 389 231 dbtorms;
#X floatatom 389 252 5 0 0 0 - - -, f 5;
#X obj 469 209 env~;
#X obj 469 230 dbtorms;
#X floatatom 469 251 5 0 0 0 - - -, f 5;
#X obj 388 168 pp.mult~ 3;
#X obj 551 207 env~;
#X obj 551 228 dbtorms;
#X floatatom 551 249 5 0 0 0 - - -, f 5;
#X obj 389 70 sig~ 1;
#X obj 442 70 sig~ 2;
#X obj 495 69 sig~ 3;
#X floatatom 551 112 5 0 0 0 - - -, f 5;
#X obj 551 132 sig~;
#X text 588 112 multiplier;
#X text 68 108 last: multiplier;
#X text 9 148 Outlets:;
#X text 71 148 1-n:(~)multiplied signal;
#X text 10 70 Creation arguments: number of inlets/outlets;
#X connect 4 0 5 0;
#X connect 5 0 6 0;
#X connect 7 0 8 0;
#X connect 8 0 9 0;
#X connect 10 0 4 0;
#X connect 10 1 7 0;
#X connect 10 2 11 0;
#X connect 11 0 12 0;
#X connect 12 0 13 0;
#X connect 14 0 10 0;
#X connect 15 0 10 1;
#X connect 16 0 10 2;
#X connect 17 0 18 0;
#X connect 18 0 10 3;
