#N canvas 85 202 992 319 10;
#N canvas 377 145 450 300 delwrite 0;
#X obj 59 60 inlet~;
#X obj 61 125 outlet~;
#X obj 60 84 delwrite~ \$0-del 1000;
#X connect 0 0 2 0;
#X restore 335 112 pd delwrite;
#X obj 335 87 inlet~;
#N canvas 211 52 680 637 delread 0;
#X obj 173 503 *~;
#X obj 120 514 cos~;
#X obj 120 541 *~;
#X obj 120 570 +~;
#X obj 309 437 wrap~;
#X obj 372 474 *~;
#X obj 310 526 cos~;
#X obj 310 553 *~;
#X obj 309 415 +~ 0.5;
#X obj 120 471 -~ 0.5;
#X obj 120 491 *~ 0.5;
#X obj 310 477 -~ 0.5;
#X obj 310 498 *~ 0.5;
#X obj 192 319 phasor~;
#X obj 387 223 max 1;
#X obj 159 251 *~ -1;
#X obj 159 225 +~ -1;
#X obj 160 87 inlet~;
#X obj 120 592 outlet~;
#X obj 387 303 sig~;
#X obj 173 525 vd~ \$0-del;
#X obj 373 528 vd~ \$0-del;
#X obj 104 89 inlet~;
#X obj 218 264 /;
#X msg 218 243 1000 \$1;
#X obj 159 288 *~;
#X obj 160 140 *~ 0.01;
#X obj 160 161 expr~ pow(2 \, $v1/12);
#X obj 387 195 r \$0-window;
#X connect 0 0 20 0;
#X connect 1 0 2 0;
#X connect 2 0 3 0;
#X connect 3 0 18 0;
#X connect 4 0 5 0;
#X connect 4 0 11 0;
#X connect 5 0 21 0;
#X connect 6 0 7 0;
#X connect 7 0 3 1;
#X connect 8 0 4 0;
#X connect 9 0 10 0;
#X connect 10 0 1 0;
#X connect 11 0 12 0;
#X connect 12 0 6 0;
#X connect 13 0 0 0;
#X connect 13 0 9 0;
#X connect 13 0 8 0;
#X connect 14 0 19 0;
#X connect 14 0 24 0;
#X connect 15 0 25 0;
#X connect 16 0 15 0;
#X connect 17 0 26 0;
#X connect 19 0 0 1;
#X connect 19 0 5 1;
#X connect 20 0 2 1;
#X connect 21 0 7 1;
#X connect 23 0 25 1;
#X connect 24 0 23 0;
#X connect 25 0 13 0;
#X connect 26 0 27 0;
#X connect 27 0 16 0;
#X connect 28 0 14 0;
#X restore 335 193 pd delread;
#X obj 335 215 outlet~;
#X obj 450 92 inlet~;
#X obj 450 128 +~;
#X obj 103 115 hsl 105 15 -1200 1200 0 0 \$0-gui \$0-guir Transposition(cents)
3 8 2 10 -233017 -1 -1 5200 1;
#X obj 251 115 hsl 2 8 0 1 0 0 \$0-gui \$0-guir empty 3 8 2 10 -233017
-228856 -1 0 1;
#X obj 210 115 nbx 5 15 -1e+09 1e+12 0 0 \$0-transpo \$0-transpor empty
0 -8 2 10 -228856 -1 -1 0 256;
#X msg 128 179 set \$1;
#X msg 64 71 0;
#X obj 128 158 i;
#X obj 64 50 loadbang;
#X obj 101 216 s \$0-transpo;
#X msg 213 150 set \$1;
#X obj 501 92 r \$0-transpo;
#X obj 690 75 inlet;
#X obj 690 96 route window transposition;
#X obj 690 123 s \$0-window;
#X obj 766 143 s \$0-transpor;
#N canvas 0 50 305 241 init 0;
#X obj 108 54 f \$1;
#X obj 108 31 loadbang;
#X floatatom 109 129 0 0 0 0 - - -;
#X obj 109 82 sel 0;
#X text 148 129 window (msec);
#X obj 109 161 s \$0-window;
#X msg 109 102 50;
#X connect 0 0 3 0;
#X connect 1 0 0 0;
#X connect 2 0 5 0;
#X connect 3 0 6 0;
#X connect 3 1 2 0;
#X connect 6 0 2 0;
#X restore 608 135 pd init;
#X obj 699 269 t b a;
#X obj 699 290 outlet;
#N canvas 118 64 450 300 outlet-list 0;
#X obj 77 37 r \$0-window;
#X obj 101 132 pack f f;
#X obj 142 69 t b f;
#X obj 100 93 del 0;
#X msg 113 180 transposition \$2 \, window \$1;
#X obj 139 251 list trim;
#X msg 59 249 addcomma;
#X msg 18 259 set;
#X obj 139 228 list prepend add2;
#X obj 139 336 outlet;
#X obj 113 202 t b a;
#X obj 101 153 t a b;
#X obj 157 36 r \$0-transpo;
#X obj 77 59 t b f;
#X obj 100 112 f;
#X connect 0 0 13 0;
#X connect 1 0 11 0;
#X connect 2 0 3 0;
#X connect 2 1 1 1;
#X connect 3 0 14 0;
#X connect 4 0 10 0;
#X connect 5 0 9 0;
#X connect 6 0 9 0;
#X connect 7 0 9 0;
#X connect 8 0 5 0;
#X connect 10 0 6 0;
#X connect 10 1 8 0;
#X connect 11 0 4 0;
#X connect 11 1 7 0;
#X connect 12 0 2 0;
#X connect 13 0 3 0;
#X connect 13 1 14 1;
#X connect 14 0 1 0;
#X restore 699 248 pd outlet-list;
#X text 823 290 philipp schmalfuß \, 2018;
#X text 826 290 philipp schmalfuß \, 2018;
#X connect 0 0 2 0;
#X connect 1 0 0 0;
#X connect 2 0 3 0;
#X connect 4 0 5 0;
#X connect 5 0 2 1;
#X connect 6 0 11 0;
#X connect 8 0 14 0;
#X connect 9 0 8 0;
#X connect 10 0 6 0;
#X connect 11 0 9 0;
#X connect 11 0 13 0;
#X connect 12 0 10 0;
#X connect 14 0 6 0;
#X connect 15 0 5 1;
#X connect 16 0 17 0;
#X connect 17 0 18 0;
#X connect 17 1 19 0;
#X connect 21 0 22 0;
#X connect 21 1 22 0;
#X connect 23 0 21 0;
#X coords 0 -1 1 1 155 33 1 100 100;
