#N canvas 202 50 909 461 10;
#X obj 341 371 outlet~;
#X obj 410 371 outlet~;
#X obj 341 349 *~;
#X obj 410 351 *~;
#X obj 552 231 loadbang;
#X obj 417 246 cos~;
#X obj 501 254 cos~;
#X obj 502 232 +~ 0.75;
#X msg 552 252 2;
#X obj 552 274 sqrt;
#X obj 552 296 / 2;
#X floatatom 552 318 8 0 0 0 - - -, f 8;
#X obj 434 324 *~;
#X obj 488 325 *~;
#X obj 340 83 inlet~ sig;
#X obj 467 84 inlet~ angle;
#X obj 433 291 -~;
#X obj 487 292 +~;
#X obj 467 195 *~ 0.125;
#X obj 103 115 hsl 105 15 -1 1 0 0 \$0-gui \$0-guir Panorama 3 8 2
10 -233017 -1 -1 5200 1;
#X obj 251 115 hsl 2 8 0 1 0 0 \$0-gui \$0-guir empty 3 8 2 10 -233017
-228856 -1 0 1;
#X obj 210 115 nbx 5 15 -1 1 0 0 \$0-pan \$0-panr empty 0 -8 2 10 -228856
-1 -1 0 256;
#X msg 164 157 set \$1;
#X obj 467 140 +~;
#X obj 556 83 r \$0-pan;
#X obj 556 104 sig~;
#X obj 556 125 lop~ 20;
#X obj 41 78 loadbang;
#X msg 41 99 0;
#X obj 683 330 r \$0-pan;
#X msg 683 351 set panorama \$1;
#X obj 683 399 outlet;
#X obj 703 93 inlet;
#X obj 703 114 route panorama;
#X obj 703 135 s \$0-panr;
#X obj 683 371 t b a;
#X obj 468 162 clip~ -1 1;
#X text 725 438 philipp schmalfuß \, 2018;
#X text 728 438 philipp schmalfuß \, 2018;
#X connect 2 0 0 0;
#X connect 3 0 1 0;
#X connect 4 0 8 0;
#X connect 5 0 16 0;
#X connect 5 0 17 0;
#X connect 6 0 16 1;
#X connect 6 0 17 1;
#X connect 7 0 6 0;
#X connect 8 0 9 0;
#X connect 9 0 10 0;
#X connect 10 0 11 0;
#X connect 10 0 12 1;
#X connect 10 0 13 1;
#X connect 12 0 2 1;
#X connect 13 0 3 1;
#X connect 14 0 2 0;
#X connect 14 0 3 0;
#X connect 15 0 23 0;
#X connect 16 0 12 0;
#X connect 17 0 13 0;
#X connect 18 0 5 0;
#X connect 18 0 7 0;
#X connect 19 0 21 0;
#X connect 21 0 22 0;
#X connect 22 0 19 0;
#X connect 23 0 36 0;
#X connect 24 0 25 0;
#X connect 25 0 26 0;
#X connect 26 0 23 1;
#X connect 27 0 28 0;
#X connect 28 0 19 0;
#X connect 29 0 30 0;
#X connect 30 0 35 0;
#X connect 32 0 33 0;
#X connect 33 0 34 0;
#X connect 35 0 31 0;
#X connect 35 1 31 0;
#X connect 36 0 18 0;
#X coords 0 -1 1 1 155 33 1 100 100;
