#N canvas 138 179 1144 504 10;
#X obj 273 431 outlet~;
#X obj 602 116 *~ 0.5;
#X obj 602 94 +~ 1;
#X obj 663 117 *~ 0.5;
#X obj 663 95 +~ 1;
#X obj 603 65 inlet~;
#X obj 663 66 inlet~;
#N canvas 3 50 450 300 amp 0;
#X obj 91 298 outlet~;
#X obj 91 264 *~;
#X obj 207 178 loadbang;
#X obj 108 190 cos~;
#X obj 146 202 cos~;
#X obj 147 180 +~ 0.75;
#X obj 109 123 *~ 0.25;
#X obj 109 104 -~ 0.5;
#X msg 207 199 2;
#X obj 207 221 sqrt;
#X obj 207 243 / 2;
#X floatatom 207 265 8 0 0 0 - - -, f 8;
#X obj 108 240 *~;
#X obj 92 10 inlet~ sig;
#X obj 217 10 inlet~ angle;
#X obj 108 218 -~;
#X connect 1 0 0 0;
#X connect 2 0 8 0;
#X connect 3 0 15 0;
#X connect 4 0 15 1;
#X connect 5 0 4 0;
#X connect 6 0 3 0;
#X connect 6 0 5 0;
#X connect 7 0 6 0;
#X connect 8 0 9 0;
#X connect 9 0 10 0;
#X connect 10 0 11 0;
#X connect 10 0 12 1;
#X connect 12 0 1 1;
#X connect 13 0 1 0;
#X connect 14 0 7 0;
#X connect 15 0 12 0;
#X restore 273 228 pd amp;
#X obj 347 432 outlet~;
#N canvas 0 50 450 300 amp 0;
#X obj 91 298 outlet~;
#X obj 91 264 *~;
#X obj 207 178 loadbang;
#X obj 108 190 cos~;
#X obj 146 202 cos~;
#X obj 147 180 +~ 0.75;
#X obj 109 123 *~ 0.25;
#X obj 109 104 -~ 0.5;
#X msg 207 199 2;
#X obj 207 221 sqrt;
#X obj 207 243 / 2;
#X floatatom 207 265 8 0 0 0 - - -, f 8;
#X obj 108 240 *~;
#X obj 92 10 inlet~ sig;
#X obj 217 10 inlet~ angle;
#X obj 108 218 -~;
#X connect 1 0 0 0;
#X connect 2 0 8 0;
#X connect 3 0 15 0;
#X connect 4 0 15 1;
#X connect 5 0 4 0;
#X connect 6 0 3 0;
#X connect 6 0 5 0;
#X connect 7 0 6 0;
#X connect 8 0 9 0;
#X connect 9 0 10 0;
#X connect 10 0 11 0;
#X connect 10 0 12 1;
#X connect 12 0 1 1;
#X connect 13 0 1 0;
#X connect 14 0 7 0;
#X connect 15 0 12 0;
#X restore 347 229 pd amp;
#X obj 415 432 outlet~;
#N canvas 0 50 450 300 amp 0;
#X obj 91 298 outlet~;
#X obj 91 264 *~;
#X obj 207 178 loadbang;
#X obj 108 190 cos~;
#X obj 146 202 cos~;
#X obj 147 180 +~ 0.75;
#X obj 109 123 *~ 0.25;
#X obj 109 104 -~ 0.5;
#X msg 207 199 2;
#X obj 207 221 sqrt;
#X obj 207 243 / 2;
#X floatatom 207 265 8 0 0 0 - - -, f 8;
#X obj 108 240 *~;
#X obj 92 10 inlet~ sig;
#X obj 217 10 inlet~ angle;
#X obj 108 218 -~;
#X connect 1 0 0 0;
#X connect 2 0 8 0;
#X connect 3 0 15 0;
#X connect 4 0 15 1;
#X connect 5 0 4 0;
#X connect 6 0 3 0;
#X connect 6 0 5 0;
#X connect 7 0 6 0;
#X connect 8 0 9 0;
#X connect 9 0 10 0;
#X connect 10 0 11 0;
#X connect 10 0 12 1;
#X connect 12 0 1 1;
#X connect 13 0 1 0;
#X connect 14 0 7 0;
#X connect 15 0 12 0;
#X restore 415 229 pd amp;
#X obj 478 433 outlet~;
#N canvas 0 50 450 300 amp 0;
#X obj 91 298 outlet~;
#X obj 91 264 *~;
#X obj 207 178 loadbang;
#X obj 108 190 cos~;
#X obj 146 202 cos~;
#X obj 147 180 +~ 0.75;
#X obj 109 123 *~ 0.25;
#X obj 109 104 -~ 0.5;
#X msg 207 199 2;
#X obj 207 221 sqrt;
#X obj 207 243 / 2;
#X floatatom 207 265 8 0 0 0 - - -, f 8;
#X obj 108 240 *~;
#X obj 92 10 inlet~ sig;
#X obj 217 10 inlet~ angle;
#X obj 108 218 -~;
#X connect 1 0 0 0;
#X connect 2 0 8 0;
#X connect 3 0 15 0;
#X connect 4 0 15 1;
#X connect 5 0 4 0;
#X connect 6 0 3 0;
#X connect 6 0 5 0;
#X connect 7 0 6 0;
#X connect 8 0 9 0;
#X connect 9 0 10 0;
#X connect 10 0 11 0;
#X connect 10 0 12 1;
#X connect 12 0 1 1;
#X connect 13 0 1 0;
#X connect 14 0 7 0;
#X connect 15 0 12 0;
#X restore 478 230 pd amp;
#X obj 552 434 outlet~;
#N canvas 0 50 450 300 amp 0;
#X obj 91 298 outlet~;
#X obj 91 264 *~;
#X obj 207 178 loadbang;
#X obj 108 190 cos~;
#X obj 146 202 cos~;
#X obj 147 180 +~ 0.75;
#X obj 109 123 *~ 0.25;
#X obj 109 104 -~ 0.5;
#X msg 207 199 2;
#X obj 207 221 sqrt;
#X obj 207 243 / 2;
#X floatatom 207 265 8 0 0 0 - - -, f 8;
#X obj 108 240 *~;
#X obj 92 10 inlet~ sig;
#X obj 217 10 inlet~ angle;
#X obj 108 218 -~;
#X connect 1 0 0 0;
#X connect 2 0 8 0;
#X connect 3 0 15 0;
#X connect 4 0 15 1;
#X connect 5 0 4 0;
#X connect 6 0 3 0;
#X connect 6 0 5 0;
#X connect 7 0 6 0;
#X connect 8 0 9 0;
#X connect 9 0 10 0;
#X connect 10 0 11 0;
#X connect 10 0 12 1;
#X connect 12 0 1 1;
#X connect 13 0 1 0;
#X connect 14 0 7 0;
#X connect 15 0 12 0;
#X restore 552 231 pd amp;
#X obj 620 434 outlet~;
#N canvas 0 50 450 300 amp 0;
#X obj 91 298 outlet~;
#X obj 91 264 *~;
#X obj 207 178 loadbang;
#X obj 108 190 cos~;
#X obj 146 202 cos~;
#X obj 147 180 +~ 0.75;
#X obj 109 123 *~ 0.25;
#X obj 109 104 -~ 0.5;
#X msg 207 199 2;
#X obj 207 221 sqrt;
#X obj 207 243 / 2;
#X floatatom 207 265 8 0 0 0 - - -, f 8;
#X obj 108 240 *~;
#X obj 92 10 inlet~ sig;
#X obj 217 10 inlet~ angle;
#X obj 108 218 -~;
#X connect 1 0 0 0;
#X connect 2 0 8 0;
#X connect 3 0 15 0;
#X connect 4 0 15 1;
#X connect 5 0 4 0;
#X connect 6 0 3 0;
#X connect 6 0 5 0;
#X connect 7 0 6 0;
#X connect 8 0 9 0;
#X connect 9 0 10 0;
#X connect 10 0 11 0;
#X connect 10 0 12 1;
#X connect 12 0 1 1;
#X connect 13 0 1 0;
#X connect 14 0 7 0;
#X connect 15 0 12 0;
#X restore 620 231 pd amp;
#X obj 682 434 outlet~;
#N canvas 0 50 450 300 amp 0;
#X obj 91 298 outlet~;
#X obj 91 264 *~;
#X obj 207 178 loadbang;
#X obj 108 190 cos~;
#X obj 146 202 cos~;
#X obj 147 180 +~ 0.75;
#X obj 109 123 *~ 0.25;
#X obj 109 104 -~ 0.5;
#X msg 207 199 2;
#X obj 207 221 sqrt;
#X obj 207 243 / 2;
#X floatatom 207 265 8 0 0 0 - - -, f 8;
#X obj 108 240 *~;
#X obj 92 10 inlet~ sig;
#X obj 217 10 inlet~ angle;
#X obj 108 218 -~;
#X connect 1 0 0 0;
#X connect 2 0 8 0;
#X connect 3 0 15 0;
#X connect 4 0 15 1;
#X connect 5 0 4 0;
#X connect 6 0 3 0;
#X connect 6 0 5 0;
#X connect 7 0 6 0;
#X connect 8 0 9 0;
#X connect 9 0 10 0;
#X connect 10 0 11 0;
#X connect 10 0 12 1;
#X connect 12 0 1 1;
#X connect 13 0 1 0;
#X connect 14 0 7 0;
#X connect 15 0 12 0;
#X restore 682 231 pd amp;
#X obj 750 434 outlet~;
#N canvas 3 50 450 300 amp 0;
#X obj 91 298 outlet~;
#X obj 91 264 *~;
#X obj 207 178 loadbang;
#X obj 108 190 cos~;
#X obj 146 202 cos~;
#X obj 147 180 +~ 0.75;
#X obj 109 123 *~ 0.25;
#X obj 109 104 -~ 0.5;
#X msg 207 199 2;
#X obj 207 221 sqrt;
#X obj 207 243 / 2;
#X floatatom 207 265 8 0 0 0 - - -, f 8;
#X obj 108 240 *~;
#X obj 92 10 inlet~ sig;
#X obj 217 10 inlet~ angle;
#X obj 108 218 -~;
#X connect 1 0 0 0;
#X connect 2 0 8 0;
#X connect 3 0 15 0;
#X connect 4 0 15 1;
#X connect 5 0 4 0;
#X connect 6 0 3 0;
#X connect 6 0 5 0;
#X connect 7 0 6 0;
#X connect 8 0 9 0;
#X connect 9 0 10 0;
#X connect 10 0 11 0;
#X connect 10 0 12 1;
#X connect 12 0 1 1;
#X connect 13 0 1 0;
#X connect 14 0 7 0;
#X connect 15 0 12 0;
#X restore 750 231 pd amp;
#X obj 778 56 inlet~;
#N canvas 50 131 272 272 \$0-spat8 0;
#X obj 2 2 cnv 1 264 264 empty empty empty 20 12 0 14 -128992 -66577
0;
#X obj 3 3 cnv 1 262 262 empty empty empty 20 12 0 14 -66577 -66577
0;
#X obj 146 29 hradio 12 1 0 2 \$0-preset \$0-presetr empty 0 -8 0 10
-262144 -1 -1 1;
#X obj 4 4 cnv 1 260 260 empty empty empty 20 12 0 14 -228856 -66577
0;
#X obj 4 132 cnv 1 260 1 empty empty empty 20 12 0 14 -262144 -66577
0;
#X obj 133 4 cnv 1 1 260 empty empty empty 20 12 0 14 -262144 -66577
0;
#X obj 259 125 cnv 1 1 1 empty empty 1 0 0 2 11 -233017 -262144 0;
#X obj 137 8 cnv 1 1 1 empty empty 1 0 0 2 11 -233017 -262144 0;
#X obj 138 257 cnv 1 1 1 empty empty -1 0 0 2 11 -233017 -262144 0
;
#X obj 6 125 cnv 1 1 1 empty empty -1 0 0 2 11 -233017 -262144 0;
#X obj 74 15 cnv 16 16 16 \$0-spcnv1 \$0-spcnv1r 1 5 7 2 14 -172033
-262144 0;
#X obj 177 15 cnv 16 16 16 \$0-spcnv2 \$0-spcnv2r 2 5 7 2 14 -172033
-262144 0;
#X obj 236 74 cnv 16 16 16 \$0-spcnv4 \$0-spcnv4r 4 5 7 2 14 -172033
-262144 0;
#X obj 236 177 cnv 16 16 16 \$0-spcnv6 \$0-spcnv6r 6 5 7 2 14 -176129
-262144 0;
#X obj 177 236 cnv 16 16 16 \$0-spcnv8 \$0-spcnv8r 8 5 7 2 14 -176129
-262144 0;
#X obj 74 236 cnv 16 16 16 \$0-spcnv7 \$0-spcnv7r 7 5 7 2 14 -172033
-262144 0;
#X obj 15 177 cnv 16 16 16 \$0-spcnv5 \$0-spcnv5r 5 5 7 2 14 -172033
-262144 0;
#X obj 15 74 cnv 16 16 16 \$0-spcnv3 \$0-spcnv3r 3 5 7 2 14 -172033
-262144 0;
#X restore 922 164 pd \$0-spat8;
#X obj 925 68 inlet;
#N canvas 3 50 508 480 in 0;
#X obj 83 19 inlet;
#X obj 83 157 s \$0-cnvposition-1;
#X obj 100 177 s \$0-cnvposition-2;
#X obj 118 197 s \$0-cnvposition-3;
#X obj 135 217 s \$0-cnvposition-4;
#X obj 156 238 s \$0-cnvposition-5;
#X obj 173 258 s \$0-cnvposition-6;
#X obj 191 278 s \$0-cnvposition-7;
#X obj 215 298 s \$0-cnvposition-8;
#X obj 83 62 route speaker-1 speaker-2 speaker-3 speaker-4 speaker-5
speaker-6 speaker-7 speaker-8 preset;
#X obj 373 106 != 0;
#X obj 373 127 s \$0-preset;
#X connect 0 0 9 0;
#X connect 9 0 1 0;
#X connect 9 1 2 0;
#X connect 9 2 3 0;
#X connect 9 3 4 0;
#X connect 9 4 5 0;
#X connect 9 5 6 0;
#X connect 9 6 7 0;
#X connect 9 7 8 0;
#X connect 9 8 10 0;
#X connect 10 0 11 0;
#X restore 925 88 pd in;
#N canvas 3 61 1269 462 gui-color~~~~~~~~~~~~~~~~~~ 0;
#X obj 49 28 inlet~;
#X msg 48 309 color \$1;
#X obj 48 222 * 255;
#X obj 48 244 i;
#X obj 49 73 dbtorms;
#X obj 48 269 * -65536;
#X obj 48 289 - 1;
#X obj 49 50 env~ 16384;
#X obj 48 331 s \$0-spcnv1r;
#X obj 218 27 inlet~;
#X obj 218 54 env~ 16384;
#X obj 365 27 inlet~;
#X obj 365 54 env~ 16384;
#X obj 509 30 inlet~;
#X obj 509 57 env~ 16384;
#X obj 660 25 inlet~;
#X obj 660 52 env~ 16384;
#X obj 817 26 inlet~;
#X obj 817 53 env~ 16384;
#X obj 965 30 inlet~;
#X obj 965 57 env~ 16384;
#X obj 1132 28 inlet~;
#X obj 1132 55 env~ 16384;
#X obj 49 95 change;
#X obj 48 120 - 0.5;
#X obj 48 139 * 0.25;
#X obj 48 160 * 6.28319;
#X obj 48 201 * 0.7071;
#X msg 218 308 color \$1;
#X obj 218 221 * 255;
#X obj 218 243 i;
#X obj 219 72 dbtorms;
#X obj 218 268 * -65536;
#X obj 218 288 - 1;
#X obj 219 94 change;
#X obj 218 119 - 0.5;
#X obj 218 138 * 0.25;
#X obj 218 159 * 6.28319;
#X obj 218 200 * 0.7071;
#X obj 218 180 expr cos($f1)-sin($f1);
#X msg 364 314 color \$1;
#X obj 364 227 * 255;
#X obj 364 249 i;
#X obj 365 78 dbtorms;
#X obj 364 274 * -65536;
#X obj 364 294 - 1;
#X obj 365 100 change;
#X obj 364 125 - 0.5;
#X obj 364 144 * 0.25;
#X obj 364 165 * 6.28319;
#X obj 364 206 * 0.7071;
#X obj 364 186 expr cos($f1)-sin($f1);
#X msg 507 314 color \$1;
#X obj 507 227 * 255;
#X obj 507 249 i;
#X obj 508 78 dbtorms;
#X obj 507 274 * -65536;
#X obj 507 294 - 1;
#X obj 508 100 change;
#X obj 507 125 - 0.5;
#X obj 507 144 * 0.25;
#X obj 507 165 * 6.28319;
#X obj 507 206 * 0.7071;
#X obj 507 186 expr cos($f1)-sin($f1);
#X msg 657 314 color \$1;
#X obj 657 227 * 255;
#X obj 657 249 i;
#X obj 658 78 dbtorms;
#X obj 657 274 * -65536;
#X obj 657 294 - 1;
#X obj 658 100 change;
#X obj 657 125 - 0.5;
#X obj 657 144 * 0.25;
#X obj 657 165 * 6.28319;
#X obj 657 206 * 0.7071;
#X obj 657 186 expr cos($f1)-sin($f1);
#X msg 815 316 color \$1;
#X obj 815 229 * 255;
#X obj 815 251 i;
#X obj 816 80 dbtorms;
#X obj 815 276 * -65536;
#X obj 815 296 - 1;
#X obj 816 102 change;
#X obj 815 127 - 0.5;
#X obj 815 146 * 0.25;
#X obj 815 167 * 6.28319;
#X obj 815 208 * 0.7071;
#X obj 815 188 expr cos($f1)-sin($f1);
#X msg 963 315 color \$1;
#X obj 963 228 * 255;
#X obj 963 250 i;
#X obj 964 79 dbtorms;
#X obj 963 275 * -65536;
#X obj 963 295 - 1;
#X obj 964 101 change;
#X obj 963 126 - 0.5;
#X obj 963 145 * 0.25;
#X obj 963 166 * 6.28319;
#X obj 963 207 * 0.7071;
#X obj 963 187 expr cos($f1)-sin($f1);
#X msg 1131 319 color \$1;
#X obj 1131 232 * 255;
#X obj 1131 254 i;
#X obj 1132 83 dbtorms;
#X obj 1131 279 * -65536;
#X obj 1131 299 - 1;
#X obj 1132 105 change;
#X obj 1131 130 - 0.5;
#X obj 1131 149 * 0.25;
#X obj 1131 170 * 6.28319;
#X obj 1131 211 * 0.7071;
#X obj 1131 191 expr cos($f1)-sin($f1);
#X obj 218 330 s \$0-spcnv2r;
#X obj 364 336 s \$0-spcnv3r;
#X obj 507 336 s \$0-spcnv4r;
#X obj 657 336 s \$0-spcnv5r;
#X obj 815 338 s \$0-spcnv6r;
#X obj 963 337 s \$0-spcnv7r;
#X obj 1131 341 s \$0-spcnv8r;
#X obj 48 181 expr cos($f1)-sin($f1);
#X obj 156 358 r \$0-visbng;
#X obj 256 368 loadbang;
#X msg 256 389 0;
#X obj 256 410 switch~;
#X msg 156 379 1;
#X connect 0 0 7 0;
#X connect 1 0 8 0;
#X connect 2 0 3 0;
#X connect 3 0 5 0;
#X connect 4 0 23 0;
#X connect 5 0 6 0;
#X connect 6 0 1 0;
#X connect 7 0 4 0;
#X connect 9 0 10 0;
#X connect 10 0 31 0;
#X connect 11 0 12 0;
#X connect 12 0 43 0;
#X connect 13 0 14 0;
#X connect 14 0 55 0;
#X connect 15 0 16 0;
#X connect 16 0 67 0;
#X connect 17 0 18 0;
#X connect 18 0 79 0;
#X connect 19 0 20 0;
#X connect 20 0 91 0;
#X connect 21 0 22 0;
#X connect 22 0 103 0;
#X connect 23 0 24 0;
#X connect 24 0 25 0;
#X connect 25 0 26 0;
#X connect 26 0 119 0;
#X connect 27 0 2 0;
#X connect 28 0 112 0;
#X connect 29 0 30 0;
#X connect 30 0 32 0;
#X connect 31 0 34 0;
#X connect 32 0 33 0;
#X connect 33 0 28 0;
#X connect 34 0 35 0;
#X connect 35 0 36 0;
#X connect 36 0 37 0;
#X connect 37 0 39 0;
#X connect 38 0 29 0;
#X connect 39 0 38 0;
#X connect 40 0 113 0;
#X connect 41 0 42 0;
#X connect 42 0 44 0;
#X connect 43 0 46 0;
#X connect 44 0 45 0;
#X connect 45 0 40 0;
#X connect 46 0 47 0;
#X connect 47 0 48 0;
#X connect 48 0 49 0;
#X connect 49 0 51 0;
#X connect 50 0 41 0;
#X connect 51 0 50 0;
#X connect 52 0 114 0;
#X connect 53 0 54 0;
#X connect 54 0 56 0;
#X connect 55 0 58 0;
#X connect 56 0 57 0;
#X connect 57 0 52 0;
#X connect 58 0 59 0;
#X connect 59 0 60 0;
#X connect 60 0 61 0;
#X connect 61 0 63 0;
#X connect 62 0 53 0;
#X connect 63 0 62 0;
#X connect 64 0 115 0;
#X connect 65 0 66 0;
#X connect 66 0 68 0;
#X connect 67 0 70 0;
#X connect 68 0 69 0;
#X connect 69 0 64 0;
#X connect 70 0 71 0;
#X connect 71 0 72 0;
#X connect 72 0 73 0;
#X connect 73 0 75 0;
#X connect 74 0 65 0;
#X connect 75 0 74 0;
#X connect 76 0 116 0;
#X connect 77 0 78 0;
#X connect 78 0 80 0;
#X connect 79 0 82 0;
#X connect 80 0 81 0;
#X connect 81 0 76 0;
#X connect 82 0 83 0;
#X connect 83 0 84 0;
#X connect 84 0 85 0;
#X connect 85 0 87 0;
#X connect 86 0 77 0;
#X connect 87 0 86 0;
#X connect 88 0 117 0;
#X connect 89 0 90 0;
#X connect 90 0 92 0;
#X connect 91 0 94 0;
#X connect 92 0 93 0;
#X connect 93 0 88 0;
#X connect 94 0 95 0;
#X connect 95 0 96 0;
#X connect 96 0 97 0;
#X connect 97 0 99 0;
#X connect 98 0 89 0;
#X connect 99 0 98 0;
#X connect 100 0 118 0;
#X connect 101 0 102 0;
#X connect 102 0 104 0;
#X connect 103 0 106 0;
#X connect 104 0 105 0;
#X connect 105 0 100 0;
#X connect 106 0 107 0;
#X connect 107 0 108 0;
#X connect 108 0 109 0;
#X connect 109 0 111 0;
#X connect 110 0 101 0;
#X connect 111 0 110 0;
#X connect 119 0 27 0;
#X connect 120 0 124 0;
#X connect 121 0 122 0;
#X connect 122 0 123 0;
#X connect 124 0 123 0;
#X restore 703 193 pd gui-color~~~~~~~~~~~~~~~~~~;
#N canvas 0 49 1363 719 pythagoras~~~~~~~~~~~~~~~~~ 0;
#X obj 58 10 inlet~ x;
#X obj 145 9 inlet~ y;
#X obj 64 366 -~;
#X obj 64 388 *~;
#X obj 134 442 sqrt~;
#X obj 134 422 +~;
#X obj 151 363 -~;
#X obj 151 385 *~;
#X obj 132 569 outlet~;
#X text 172 453 normalize to 0 \, 1;
#X obj 335 364 -~;
#X obj 335 386 *~;
#X obj 405 440 sqrt~;
#X obj 405 420 +~;
#X obj 422 361 -~;
#X obj 422 383 *~;
#X obj 476 361 -~;
#X obj 476 383 *~;
#X obj 546 437 sqrt~;
#X obj 546 417 +~;
#X obj 563 358 -~;
#X obj 563 380 *~;
#X obj 634 358 -~;
#X obj 634 380 *~;
#X obj 704 434 sqrt~;
#X obj 704 414 +~;
#X obj 721 355 -~;
#X obj 721 377 *~;
#X obj 779 356 -~;
#X obj 779 378 *~;
#X obj 849 432 sqrt~;
#X obj 849 412 +~;
#X obj 866 353 -~;
#X obj 866 375 *~;
#X obj 920 353 -~;
#X obj 920 375 *~;
#X obj 990 429 sqrt~;
#X obj 990 409 +~;
#X obj 1007 350 -~;
#X obj 1007 372 *~;
#X obj 1078 350 -~;
#X obj 1078 372 *~;
#X obj 1148 426 sqrt~;
#X obj 1148 406 +~;
#X obj 1165 347 -~;
#X obj 1165 369 *~;
#X obj 1245 347 -~;
#X obj 1245 369 *~;
#X obj 1315 423 sqrt~;
#X obj 1315 403 +~;
#X obj 1332 344 -~;
#X obj 1332 366 *~;
#X obj 405 540 outlet~;
#X obj 546 539 outlet~;
#X obj 704 537 outlet~;
#X obj 849 536 outlet~;
#X obj 990 535 outlet~;
#X obj 1148 535 outlet~;
#X obj 1315 534 outlet~;
#X obj 133 513 *~;
#X obj 133 535 clip~ 0 1;
#X obj 1448 23 inlet~;
#X obj 1448 45 +~ 1;
#X obj 405 486 *~;
#X obj 405 508 clip~ 0 1;
#X obj 546 484 *~;
#X obj 546 506 clip~ 0 1;
#X obj 704 481 *~;
#X obj 704 503 clip~ 0 1;
#X obj 849 480 *~;
#X obj 849 502 clip~ 0 1;
#X obj 990 480 *~;
#X obj 990 502 clip~ 0 1;
#X obj 1148 480 *~;
#X obj 1148 502 clip~ 0 1;
#X obj 1315 481 *~;
#X obj 1315 503 clip~ 0 1;
#X obj 130 300 r \$0-speakerposition-1;
#X obj 130 322 unpack;
#X obj 330 328 unpack;
#X obj 330 306 r \$0-speakerposition-2;
#X obj 494 329 unpack;
#X obj 494 307 r \$0-speakerposition-3;
#X obj 658 328 unpack;
#X obj 658 306 r \$0-speakerposition-4;
#X obj 824 327 unpack;
#X obj 824 306 r \$0-speakerposition-5;
#X obj 985 327 unpack;
#X obj 985 306 r \$0-speakerposition-6;
#X obj 1144 305 unpack;
#X obj 1144 284 r \$0-speakerposition-7;
#X obj 1311 319 unpack;
#X obj 1311 298 r \$0-speakerposition-8;
#X floatatom 210 337 5 0 0 0 - - -, f 5;
#X floatatom 130 343 5 0 0 0 - - -, f 5;
#X obj 134 471 /~ 1.41421;
#X obj 406 464 /~ 1.41421;
#X obj 546 461 /~ 1.41421;
#X obj 705 457 /~ 1.41421;
#X obj 848 455 /~ 1.41421;
#X obj 991 452 /~ 1.41421;
#X obj 1149 450 /~ 1.41421;
#X obj 1316 452 /~ 1.41421;
#X connect 0 0 16 0;
#X connect 0 0 22 0;
#X connect 0 0 28 0;
#X connect 0 0 34 0;
#X connect 0 0 40 0;
#X connect 0 0 46 0;
#X connect 0 0 10 0;
#X connect 0 0 2 0;
#X connect 1 0 14 0;
#X connect 1 0 20 0;
#X connect 1 0 26 0;
#X connect 1 0 32 0;
#X connect 1 0 38 0;
#X connect 1 0 44 0;
#X connect 1 0 50 0;
#X connect 1 0 6 0;
#X connect 2 0 3 0;
#X connect 2 0 3 1;
#X connect 3 0 5 0;
#X connect 4 0 95 0;
#X connect 5 0 4 0;
#X connect 6 0 7 0;
#X connect 6 0 7 1;
#X connect 7 0 5 1;
#X connect 10 0 11 0;
#X connect 10 0 11 1;
#X connect 11 0 13 0;
#X connect 12 0 96 0;
#X connect 13 0 12 0;
#X connect 14 0 15 0;
#X connect 14 0 15 1;
#X connect 15 0 13 1;
#X connect 16 0 17 0;
#X connect 16 0 17 1;
#X connect 17 0 19 0;
#X connect 18 0 97 0;
#X connect 19 0 18 0;
#X connect 20 0 21 0;
#X connect 20 0 21 1;
#X connect 21 0 19 1;
#X connect 22 0 23 0;
#X connect 22 0 23 1;
#X connect 23 0 25 0;
#X connect 24 0 98 0;
#X connect 25 0 24 0;
#X connect 26 0 27 0;
#X connect 26 0 27 1;
#X connect 27 0 25 1;
#X connect 28 0 29 0;
#X connect 28 0 29 1;
#X connect 29 0 31 0;
#X connect 30 0 99 0;
#X connect 31 0 30 0;
#X connect 32 0 33 0;
#X connect 32 0 33 1;
#X connect 33 0 31 1;
#X connect 34 0 35 0;
#X connect 34 0 35 1;
#X connect 35 0 37 0;
#X connect 36 0 100 0;
#X connect 37 0 36 0;
#X connect 38 0 39 0;
#X connect 38 0 39 1;
#X connect 39 0 37 1;
#X connect 40 0 41 0;
#X connect 40 0 41 1;
#X connect 41 0 43 0;
#X connect 42 0 101 0;
#X connect 43 0 42 0;
#X connect 44 0 45 0;
#X connect 44 0 45 1;
#X connect 45 0 43 1;
#X connect 46 0 47 0;
#X connect 46 0 47 1;
#X connect 47 0 49 0;
#X connect 48 0 102 0;
#X connect 49 0 48 0;
#X connect 50 0 51 0;
#X connect 50 0 51 1;
#X connect 51 0 49 1;
#X connect 59 0 60 0;
#X connect 60 0 8 0;
#X connect 61 0 62 0;
#X connect 62 0 59 1;
#X connect 62 0 75 1;
#X connect 62 0 73 1;
#X connect 62 0 71 1;
#X connect 62 0 69 1;
#X connect 62 0 67 1;
#X connect 62 0 65 1;
#X connect 62 0 63 1;
#X connect 63 0 64 0;
#X connect 64 0 52 0;
#X connect 65 0 66 0;
#X connect 66 0 53 0;
#X connect 67 0 68 0;
#X connect 68 0 54 0;
#X connect 69 0 70 0;
#X connect 70 0 55 0;
#X connect 71 0 72 0;
#X connect 72 0 56 0;
#X connect 73 0 74 0;
#X connect 74 0 57 0;
#X connect 75 0 76 0;
#X connect 76 0 58 0;
#X connect 77 0 78 0;
#X connect 78 0 2 1;
#X connect 78 0 94 0;
#X connect 78 1 6 1;
#X connect 78 1 93 0;
#X connect 79 0 10 1;
#X connect 79 1 14 1;
#X connect 80 0 79 0;
#X connect 81 0 16 1;
#X connect 81 1 20 1;
#X connect 82 0 81 0;
#X connect 83 0 22 1;
#X connect 83 1 26 1;
#X connect 84 0 83 0;
#X connect 85 0 28 1;
#X connect 85 1 32 1;
#X connect 86 0 85 0;
#X connect 87 0 34 1;
#X connect 87 1 38 1;
#X connect 88 0 87 0;
#X connect 89 0 40 1;
#X connect 89 1 44 1;
#X connect 90 0 89 0;
#X connect 91 0 46 1;
#X connect 91 1 50 1;
#X connect 92 0 91 0;
#X connect 95 0 59 0;
#X connect 96 0 63 0;
#X connect 97 0 65 0;
#X connect 98 0 67 0;
#X connect 99 0 69 0;
#X connect 100 0 71 0;
#X connect 101 0 73 0;
#X connect 102 0 75 0;
#X restore 602 140 pd pythagoras~~~~~~~~~~~~~~~~~;
#N canvas 424 126 659 297 stuff 0;
#X obj 88 84 loadbang;
#X msg 88 106 0;
#X obj 88 128 s \$0-preset;
#N canvas 252 64 836 642 tocnv 0;
#X msg 111 242 pos \$1 \$2;
#X obj 111 221 pack;
#X obj 111 262 s \$0-spcnv1r;
#X obj 99 183 + 4;
#X obj 144 213 + 4;
#X obj 144 194 -;
#X obj 100 59 unpack;
#X obj 99 161 * 244;
#X obj 144 156 * 244;
#X msg 144 175 244 \$1;
#X obj 101 39 r \$0-cnvposition-1;
#X obj 262 40 r \$0-cnvposition-2;
#X obj 423 41 r \$0-cnvposition-3;
#X obj 584 40 r \$0-cnvposition-4;
#X obj 94 296 r \$0-cnvposition-5;
#X obj 254 297 r \$0-cnvposition-6;
#X obj 415 298 r \$0-cnvposition-7;
#X obj 576 300 r \$0-cnvposition-8;
#X obj 99 135 clip 0 1;
#X obj 160 125 clip 0 1;
#X obj 100 94 + 1;
#X obj 99 115 * 0.5;
#X obj 160 85 + 1;
#X obj 160 103 * 0.5;
#X msg 274 244 pos \$1 \$2;
#X obj 274 223 pack;
#X obj 262 185 + 4;
#X obj 307 215 + 4;
#X obj 307 196 -;
#X obj 263 61 unpack;
#X obj 262 163 * 244;
#X obj 307 158 * 244;
#X msg 307 177 244 \$1;
#X obj 262 137 clip 0 1;
#X obj 323 127 clip 0 1;
#X obj 263 96 + 1;
#X obj 262 117 * 0.5;
#X obj 323 87 + 1;
#X obj 323 105 * 0.5;
#X msg 434 245 pos \$1 \$2;
#X obj 434 224 pack;
#X obj 422 186 + 4;
#X obj 467 216 + 4;
#X obj 467 197 -;
#X obj 423 62 unpack;
#X obj 422 164 * 244;
#X obj 467 159 * 244;
#X msg 467 178 244 \$1;
#X obj 422 138 clip 0 1;
#X obj 483 128 clip 0 1;
#X obj 423 97 + 1;
#X obj 422 118 * 0.5;
#X obj 483 88 + 1;
#X obj 483 106 * 0.5;
#X msg 596 244 pos \$1 \$2;
#X obj 596 223 pack;
#X obj 584 185 + 4;
#X obj 629 215 + 4;
#X obj 629 196 -;
#X obj 585 61 unpack;
#X obj 584 163 * 244;
#X obj 629 158 * 244;
#X msg 629 177 244 \$1;
#X obj 584 137 clip 0 1;
#X obj 645 127 clip 0 1;
#X obj 585 96 + 1;
#X obj 584 117 * 0.5;
#X obj 645 87 + 1;
#X obj 645 105 * 0.5;
#X msg 106 502 pos \$1 \$2;
#X obj 106 481 pack;
#X obj 94 443 + 4;
#X obj 139 473 + 4;
#X obj 139 454 -;
#X obj 95 319 unpack;
#X obj 94 421 * 244;
#X obj 139 416 * 244;
#X msg 139 435 244 \$1;
#X obj 94 395 clip 0 1;
#X obj 155 385 clip 0 1;
#X obj 95 354 + 1;
#X obj 94 375 * 0.5;
#X obj 155 345 + 1;
#X obj 155 363 * 0.5;
#X msg 265 500 pos \$1 \$2;
#X obj 265 479 pack;
#X obj 253 441 + 4;
#X obj 298 471 + 4;
#X obj 298 452 -;
#X obj 254 317 unpack;
#X obj 253 419 * 244;
#X obj 298 414 * 244;
#X msg 298 433 244 \$1;
#X obj 253 393 clip 0 1;
#X obj 314 383 clip 0 1;
#X obj 254 352 + 1;
#X obj 253 373 * 0.5;
#X obj 314 343 + 1;
#X obj 314 361 * 0.5;
#X msg 426 501 pos \$1 \$2;
#X obj 426 480 pack;
#X obj 414 442 + 4;
#X obj 459 472 + 4;
#X obj 459 453 -;
#X obj 415 318 unpack;
#X obj 414 420 * 244;
#X obj 459 415 * 244;
#X msg 459 434 244 \$1;
#X obj 414 394 clip 0 1;
#X obj 475 384 clip 0 1;
#X obj 415 353 + 1;
#X obj 414 374 * 0.5;
#X obj 475 344 + 1;
#X obj 475 362 * 0.5;
#X msg 587 505 pos \$1 \$2;
#X obj 587 484 pack;
#X obj 575 446 + 4;
#X obj 620 476 + 4;
#X obj 620 457 -;
#X obj 576 322 unpack;
#X obj 575 424 * 244;
#X obj 620 419 * 244;
#X msg 620 438 244 \$1;
#X obj 575 398 clip 0 1;
#X obj 636 388 clip 0 1;
#X obj 576 357 + 1;
#X obj 575 378 * 0.5;
#X obj 636 348 + 1;
#X obj 636 366 * 0.5;
#X obj 274 264 s \$0-spcnv2r;
#X obj 434 265 s \$0-spcnv3r;
#X obj 596 264 s \$0-spcnv4r;
#X obj 106 522 s \$0-spcnv5r;
#X obj 265 520 s \$0-spcnv6r;
#X obj 426 521 s \$0-spcnv7r;
#X obj 587 525 s \$0-spcnv8r;
#X connect 0 0 2 0;
#X connect 1 0 0 0;
#X connect 3 0 1 0;
#X connect 4 0 1 1;
#X connect 5 0 4 0;
#X connect 6 0 20 0;
#X connect 6 1 22 0;
#X connect 7 0 3 0;
#X connect 8 0 9 0;
#X connect 9 0 5 0;
#X connect 10 0 6 0;
#X connect 11 0 29 0;
#X connect 12 0 44 0;
#X connect 13 0 59 0;
#X connect 14 0 74 0;
#X connect 15 0 89 0;
#X connect 16 0 104 0;
#X connect 17 0 119 0;
#X connect 18 0 7 0;
#X connect 19 0 8 0;
#X connect 20 0 21 0;
#X connect 21 0 18 0;
#X connect 22 0 23 0;
#X connect 23 0 19 0;
#X connect 24 0 129 0;
#X connect 25 0 24 0;
#X connect 26 0 25 0;
#X connect 27 0 25 1;
#X connect 28 0 27 0;
#X connect 29 0 35 0;
#X connect 29 1 37 0;
#X connect 30 0 26 0;
#X connect 31 0 32 0;
#X connect 32 0 28 0;
#X connect 33 0 30 0;
#X connect 34 0 31 0;
#X connect 35 0 36 0;
#X connect 36 0 33 0;
#X connect 37 0 38 0;
#X connect 38 0 34 0;
#X connect 39 0 130 0;
#X connect 40 0 39 0;
#X connect 41 0 40 0;
#X connect 42 0 40 1;
#X connect 43 0 42 0;
#X connect 44 0 50 0;
#X connect 44 1 52 0;
#X connect 45 0 41 0;
#X connect 46 0 47 0;
#X connect 47 0 43 0;
#X connect 48 0 45 0;
#X connect 49 0 46 0;
#X connect 50 0 51 0;
#X connect 51 0 48 0;
#X connect 52 0 53 0;
#X connect 53 0 49 0;
#X connect 54 0 131 0;
#X connect 55 0 54 0;
#X connect 56 0 55 0;
#X connect 57 0 55 1;
#X connect 58 0 57 0;
#X connect 59 0 65 0;
#X connect 59 1 67 0;
#X connect 60 0 56 0;
#X connect 61 0 62 0;
#X connect 62 0 58 0;
#X connect 63 0 60 0;
#X connect 64 0 61 0;
#X connect 65 0 66 0;
#X connect 66 0 63 0;
#X connect 67 0 68 0;
#X connect 68 0 64 0;
#X connect 69 0 132 0;
#X connect 70 0 69 0;
#X connect 71 0 70 0;
#X connect 72 0 70 1;
#X connect 73 0 72 0;
#X connect 74 0 80 0;
#X connect 74 1 82 0;
#X connect 75 0 71 0;
#X connect 76 0 77 0;
#X connect 77 0 73 0;
#X connect 78 0 75 0;
#X connect 79 0 76 0;
#X connect 80 0 81 0;
#X connect 81 0 78 0;
#X connect 82 0 83 0;
#X connect 83 0 79 0;
#X connect 84 0 133 0;
#X connect 85 0 84 0;
#X connect 86 0 85 0;
#X connect 87 0 85 1;
#X connect 88 0 87 0;
#X connect 89 0 95 0;
#X connect 89 1 97 0;
#X connect 90 0 86 0;
#X connect 91 0 92 0;
#X connect 92 0 88 0;
#X connect 93 0 90 0;
#X connect 94 0 91 0;
#X connect 95 0 96 0;
#X connect 96 0 93 0;
#X connect 97 0 98 0;
#X connect 98 0 94 0;
#X connect 99 0 134 0;
#X connect 100 0 99 0;
#X connect 101 0 100 0;
#X connect 102 0 100 1;
#X connect 103 0 102 0;
#X connect 104 0 110 0;
#X connect 104 1 112 0;
#X connect 105 0 101 0;
#X connect 106 0 107 0;
#X connect 107 0 103 0;
#X connect 108 0 105 0;
#X connect 109 0 106 0;
#X connect 110 0 111 0;
#X connect 111 0 108 0;
#X connect 112 0 113 0;
#X connect 113 0 109 0;
#X connect 114 0 135 0;
#X connect 115 0 114 0;
#X connect 116 0 115 0;
#X connect 117 0 115 1;
#X connect 118 0 117 0;
#X connect 119 0 125 0;
#X connect 119 1 127 0;
#X connect 120 0 116 0;
#X connect 121 0 122 0;
#X connect 122 0 118 0;
#X connect 123 0 120 0;
#X connect 124 0 121 0;
#X connect 125 0 126 0;
#X connect 126 0 123 0;
#X connect 127 0 128 0;
#X connect 128 0 124 0;
#X restore 84 220 pd tocnv;
#N canvas 379 133 740 585 fromcnv 0;
#X obj 35 27 r \$0-spcnv1;
#X obj 35 48 unpack;
#X obj 35 105 - 4;
#X obj 91 112 - 4;
#X obj 35 124 / 244;
#X obj 91 131 / 244;
#X msg 91 149 1 \$1;
#X obj 91 170 -;
#X obj 35 261 s \$0-speakerposition-1;
#X obj 35 241 pack;
#X obj 191 26 r \$0-spcnv2;
#X obj 337 26 r \$0-spcnv3;
#X obj 487 25 r \$0-spcnv4;
#X obj 36 305 r \$0-spcnv5;
#X obj 184 304 r \$0-spcnv6;
#X obj 336 299 r \$0-spcnv7;
#X obj 485 300 r \$0-spcnv8;
#X obj 35 193 clip 0 1;
#X obj 91 193 clip 0 1;
#X obj 91 212 t b f;
#X obj 190 49 unpack;
#X obj 190 106 - 4;
#X obj 246 113 - 4;
#X obj 190 125 / 244;
#X obj 246 132 / 244;
#X msg 246 150 1 \$1;
#X obj 246 171 -;
#X obj 190 242 pack;
#X obj 190 194 clip 0 1;
#X obj 246 194 clip 0 1;
#X obj 246 213 t b f;
#X obj 335 49 unpack;
#X obj 335 106 - 4;
#X obj 391 113 - 4;
#X obj 335 125 / 244;
#X obj 391 132 / 244;
#X msg 391 150 1 \$1;
#X obj 391 171 -;
#X obj 335 242 pack;
#X obj 335 194 clip 0 1;
#X obj 391 194 clip 0 1;
#X obj 391 213 t b f;
#X obj 488 47 unpack;
#X obj 488 104 - 4;
#X obj 544 111 - 4;
#X obj 488 123 / 244;
#X obj 544 130 / 244;
#X msg 544 148 1 \$1;
#X obj 544 169 -;
#X obj 488 240 pack;
#X obj 488 192 clip 0 1;
#X obj 544 192 clip 0 1;
#X obj 544 211 t b f;
#X obj 36 325 unpack;
#X obj 36 382 - 4;
#X obj 92 389 - 4;
#X obj 36 401 / 244;
#X obj 92 408 / 244;
#X msg 92 426 1 \$1;
#X obj 92 447 -;
#X obj 36 518 pack;
#X obj 36 470 clip 0 1;
#X obj 92 470 clip 0 1;
#X obj 92 489 t b f;
#X obj 184 324 unpack;
#X obj 184 381 - 4;
#X obj 240 388 - 4;
#X obj 184 400 / 244;
#X obj 240 407 / 244;
#X msg 240 425 1 \$1;
#X obj 240 446 -;
#X obj 184 517 pack;
#X obj 184 469 clip 0 1;
#X obj 240 469 clip 0 1;
#X obj 240 488 t b f;
#X obj 335 322 unpack;
#X obj 335 379 - 4;
#X obj 391 386 - 4;
#X obj 335 398 / 244;
#X obj 391 405 / 244;
#X msg 391 423 1 \$1;
#X obj 391 444 -;
#X obj 335 515 pack;
#X obj 335 467 clip 0 1;
#X obj 391 467 clip 0 1;
#X obj 391 486 t b f;
#X obj 486 321 unpack;
#X obj 486 378 - 4;
#X obj 542 385 - 4;
#X obj 486 397 / 244;
#X obj 542 404 / 244;
#X msg 542 422 1 \$1;
#X obj 542 443 -;
#X obj 486 514 pack;
#X obj 486 466 clip 0 1;
#X obj 542 466 clip 0 1;
#X obj 542 485 t b f;
#X obj 190 262 s \$0-speakerposition-2;
#X obj 335 262 s \$0-speakerposition-3;
#X obj 488 260 s \$0-speakerposition-4;
#X obj 36 538 s \$0-speakerposition-5;
#X obj 184 537 s \$0-speakerposition-6;
#X obj 335 535 s \$0-speakerposition-7;
#X obj 486 534 s \$0-speakerposition-8;
#X connect 0 0 1 0;
#X connect 1 0 2 0;
#X connect 1 1 3 0;
#X connect 2 0 4 0;
#X connect 3 0 5 0;
#X connect 4 0 17 0;
#X connect 5 0 6 0;
#X connect 6 0 7 0;
#X connect 7 0 18 0;
#X connect 9 0 8 0;
#X connect 10 0 20 0;
#X connect 11 0 31 0;
#X connect 12 0 42 0;
#X connect 13 0 53 0;
#X connect 14 0 64 0;
#X connect 15 0 75 0;
#X connect 16 0 86 0;
#X connect 17 0 9 0;
#X connect 18 0 19 0;
#X connect 19 0 9 0;
#X connect 19 1 9 1;
#X connect 20 0 21 0;
#X connect 20 1 22 0;
#X connect 21 0 23 0;
#X connect 22 0 24 0;
#X connect 23 0 28 0;
#X connect 24 0 25 0;
#X connect 25 0 26 0;
#X connect 26 0 29 0;
#X connect 27 0 97 0;
#X connect 28 0 27 0;
#X connect 29 0 30 0;
#X connect 30 0 27 0;
#X connect 30 1 27 1;
#X connect 31 0 32 0;
#X connect 31 1 33 0;
#X connect 32 0 34 0;
#X connect 33 0 35 0;
#X connect 34 0 39 0;
#X connect 35 0 36 0;
#X connect 36 0 37 0;
#X connect 37 0 40 0;
#X connect 38 0 98 0;
#X connect 39 0 38 0;
#X connect 40 0 41 0;
#X connect 41 0 38 0;
#X connect 41 1 38 1;
#X connect 42 0 43 0;
#X connect 42 1 44 0;
#X connect 43 0 45 0;
#X connect 44 0 46 0;
#X connect 45 0 50 0;
#X connect 46 0 47 0;
#X connect 47 0 48 0;
#X connect 48 0 51 0;
#X connect 49 0 99 0;
#X connect 50 0 49 0;
#X connect 51 0 52 0;
#X connect 52 0 49 0;
#X connect 52 1 49 1;
#X connect 53 0 54 0;
#X connect 53 1 55 0;
#X connect 54 0 56 0;
#X connect 55 0 57 0;
#X connect 56 0 61 0;
#X connect 57 0 58 0;
#X connect 58 0 59 0;
#X connect 59 0 62 0;
#X connect 60 0 100 0;
#X connect 61 0 60 0;
#X connect 62 0 63 0;
#X connect 63 0 60 0;
#X connect 63 1 60 1;
#X connect 64 0 65 0;
#X connect 64 1 66 0;
#X connect 65 0 67 0;
#X connect 66 0 68 0;
#X connect 67 0 72 0;
#X connect 68 0 69 0;
#X connect 69 0 70 0;
#X connect 70 0 73 0;
#X connect 71 0 101 0;
#X connect 72 0 71 0;
#X connect 73 0 74 0;
#X connect 74 0 71 0;
#X connect 74 1 71 1;
#X connect 75 0 76 0;
#X connect 75 1 77 0;
#X connect 76 0 78 0;
#X connect 77 0 79 0;
#X connect 78 0 83 0;
#X connect 79 0 80 0;
#X connect 80 0 81 0;
#X connect 81 0 84 0;
#X connect 82 0 102 0;
#X connect 83 0 82 0;
#X connect 84 0 85 0;
#X connect 85 0 82 0;
#X connect 85 1 82 1;
#X connect 86 0 87 0;
#X connect 86 1 88 0;
#X connect 87 0 89 0;
#X connect 88 0 90 0;
#X connect 89 0 94 0;
#X connect 90 0 91 0;
#X connect 91 0 92 0;
#X connect 92 0 95 0;
#X connect 93 0 103 0;
#X connect 94 0 93 0;
#X connect 95 0 96 0;
#X connect 96 0 93 0;
#X connect 96 1 93 1;
#X restore 84 200 pd fromcnv;
#N canvas 232 126 830 486 presets 0;
#X obj 74 102 * 6.28319;
#X obj 74 82 / 360;
#X obj 69 143 cos;
#X obj 106 144 sin;
#X text 53 151 x;
#X text 138 153 y;
#X text 117 78 speaker position in degrees;
#X obj 74 122 t f f;
#X obj 69 174 pack;
#X msg 115 61 90;
#X obj 92 36 sel 0 1;
#X obj 92 15 r \$0-preset;
#X obj 322 99 * 6.28319;
#X obj 322 79 / 360;
#X obj 317 140 cos;
#X obj 354 141 sin;
#X obj 322 119 t f f;
#X obj 316 171 pack;
#X obj 340 33 sel 0 1;
#X obj 340 12 r \$0-preset;
#X msg 363 58 45;
#X obj 483 99 * 6.28319;
#X obj 483 79 / 360;
#X obj 478 140 cos;
#X obj 515 141 sin;
#X obj 483 119 t f f;
#X obj 477 171 pack;
#X obj 501 33 sel 0 1;
#X obj 501 12 r \$0-preset;
#X msg 524 58 360;
#X obj 643 98 * 6.28319;
#X obj 643 78 / 360;
#X obj 638 139 cos;
#X obj 675 140 sin;
#X obj 643 118 t f f;
#X obj 637 170 pack;
#X obj 661 32 sel 0 1;
#X obj 661 11 r \$0-preset;
#X msg 684 57 315;
#X obj 72 326 * 6.28319;
#X obj 72 306 / 360;
#X obj 67 367 cos;
#X obj 104 368 sin;
#X obj 72 346 t f f;
#X obj 67 390 pack;
#X obj 90 260 sel 0 1;
#X obj 90 239 r \$0-preset;
#X msg 113 285 270;
#X obj 297 325 * 6.28319;
#X obj 297 305 / 360;
#X obj 292 366 cos;
#X obj 329 367 sin;
#X obj 297 345 t f f;
#X obj 293 395 pack;
#X obj 315 259 sel 0 1;
#X obj 315 238 r \$0-preset;
#X msg 338 284 225;
#X obj 459 324 * 6.28319;
#X obj 459 304 / 360;
#X obj 454 365 cos;
#X obj 491 366 sin;
#X obj 459 344 t f f;
#X obj 455 392 pack;
#X obj 477 258 sel 0 1;
#X obj 477 237 r \$0-preset;
#X msg 500 283 180;
#X obj 624 325 * 6.28319;
#X obj 624 305 / 360;
#X obj 619 366 cos;
#X obj 656 367 sin;
#X obj 624 345 t f f;
#X obj 620 392 pack;
#X obj 642 259 sel 0 1;
#X obj 642 238 r \$0-preset;
#X msg 665 284 135;
#X msg 323 59 65;
#X msg 74 62 115;
#X msg 483 55 155;
#X msg 643 55 25;
#X msg 624 283 295;
#X msg 459 279 245;
#X msg 72 283 205;
#X msg 297 282 335;
#X obj 69 195 s \$0-cnvposition-1;
#X obj 316 192 s \$0-cnvposition-2;
#X obj 477 192 s \$0-cnvposition-3;
#X obj 637 191 s \$0-cnvposition-4;
#X obj 68 411 s \$0-cnvposition-5;
#X obj 294 417 s \$0-cnvposition-6;
#X obj 456 414 s \$0-cnvposition-7;
#X obj 621 414 s \$0-cnvposition-8;
#X connect 0 0 7 0;
#X connect 1 0 0 0;
#X connect 2 0 8 0;
#X connect 3 0 8 1;
#X connect 7 0 2 0;
#X connect 7 1 3 0;
#X connect 8 0 83 0;
#X connect 9 0 1 0;
#X connect 10 0 76 0;
#X connect 10 1 9 0;
#X connect 11 0 10 0;
#X connect 12 0 16 0;
#X connect 13 0 12 0;
#X connect 14 0 17 0;
#X connect 15 0 17 1;
#X connect 16 0 14 0;
#X connect 16 1 15 0;
#X connect 17 0 84 0;
#X connect 18 0 75 0;
#X connect 18 1 20 0;
#X connect 19 0 18 0;
#X connect 20 0 13 0;
#X connect 21 0 25 0;
#X connect 22 0 21 0;
#X connect 23 0 26 0;
#X connect 24 0 26 1;
#X connect 25 0 23 0;
#X connect 25 1 24 0;
#X connect 26 0 85 0;
#X connect 27 0 77 0;
#X connect 27 1 29 0;
#X connect 28 0 27 0;
#X connect 29 0 22 0;
#X connect 30 0 34 0;
#X connect 31 0 30 0;
#X connect 32 0 35 0;
#X connect 33 0 35 1;
#X connect 34 0 32 0;
#X connect 34 1 33 0;
#X connect 35 0 86 0;
#X connect 36 0 78 0;
#X connect 36 1 38 0;
#X connect 37 0 36 0;
#X connect 38 0 31 0;
#X connect 39 0 43 0;
#X connect 40 0 39 0;
#X connect 41 0 44 0;
#X connect 42 0 44 1;
#X connect 43 0 41 0;
#X connect 43 1 42 0;
#X connect 44 0 87 0;
#X connect 45 0 81 0;
#X connect 45 1 47 0;
#X connect 46 0 45 0;
#X connect 47 0 40 0;
#X connect 48 0 52 0;
#X connect 49 0 48 0;
#X connect 50 0 53 0;
#X connect 51 0 53 1;
#X connect 52 0 50 0;
#X connect 52 1 51 0;
#X connect 53 0 88 0;
#X connect 54 0 82 0;
#X connect 54 1 56 0;
#X connect 55 0 54 0;
#X connect 56 0 49 0;
#X connect 57 0 61 0;
#X connect 58 0 57 0;
#X connect 59 0 62 0;
#X connect 60 0 62 1;
#X connect 61 0 59 0;
#X connect 61 1 60 0;
#X connect 62 0 89 0;
#X connect 63 0 80 0;
#X connect 63 1 65 0;
#X connect 64 0 63 0;
#X connect 65 0 58 0;
#X connect 66 0 70 0;
#X connect 67 0 66 0;
#X connect 68 0 71 0;
#X connect 69 0 71 1;
#X connect 70 0 68 0;
#X connect 70 1 69 0;
#X connect 71 0 90 0;
#X connect 72 0 79 0;
#X connect 72 1 74 0;
#X connect 73 0 72 0;
#X connect 74 0 67 0;
#X connect 75 0 13 0;
#X connect 76 0 1 0;
#X connect 77 0 22 0;
#X connect 78 0 31 0;
#X connect 79 0 67 0;
#X connect 80 0 58 0;
#X connect 81 0 40 0;
#X connect 82 0 49 0;
#X restore 84 178 pd presets;
#X obj 213 92 tgl 15 0 empty empty empty 17 7 0 10 -262144 -1 -1 1
1;
#X obj 212 132 f \$0;
#X msg 212 153 \; \$1-spcnv1r get_pos \; \$1-spcnv2r get_pos \; \$1-spcnv3r
get_pos \; \$1-spcnv4r get_pos \; \$1-spcnv5r get_pos \; \$1-spcnv6r
get_pos \; \$1-spcnv7r get_pos \; \$1-spcnv8r get_pos \;;
#X obj 213 71 loadbang;
#X msg 123 106 1;
#X obj 460 169 s \$0-visbngr;
#X obj 442 64 r \$0-visbng;
#X msg 440 141 color 0 0;
#X msg 524 141 color 10 10;
#X obj 442 86 t b;
#X obj 522 116 del 250;
#X obj 406 218 s pd-\$0-spat8;
#X msg 406 196 relocate 272x272+1+1 1x1+50+50 \, vis 1;
#X obj 212 113 metro 500;
#X connect 0 0 1 0;
#X connect 1 0 2 0;
#X connect 6 0 19 0;
#X connect 7 0 8 0;
#X connect 9 0 6 0;
#X connect 10 0 2 0;
#X connect 12 0 15 0;
#X connect 13 0 11 0;
#X connect 14 0 11 0;
#X connect 15 0 13 0;
#X connect 15 0 16 0;
#X connect 15 0 18 0;
#X connect 16 0 14 0;
#X connect 18 0 17 0;
#X connect 19 0 7 0;
#X restore 922 140 pd stuff;
#X obj 922 434 outlet;
#X obj 922 408 t b a;
#N canvas 129 81 781 543 outlet-message 0;
#N canvas 138 320 986 300 bang_once.......................................
0;
#X obj 174 34 t b f;
#X obj 132 34 t b f;
#X obj 89 173 del 0;
#X obj 89 34 t b f;
#X obj 217 34 t b f;
#X obj 89 -12 inlet;
#X obj 132 -13 inlet;
#X obj 174 -13 inlet;
#X obj 217 -13 inlet;
#X obj 261 -12 inlet;
#X obj 88 268 outlet;
#X obj 88 194 f;
#X obj 88 224 pack 0 0 0 0 0 0 0 0 0 0 0 0 0 0 0 0;
#X obj 261 34 t b f;
#X obj 389 34 t b f;
#X obj 347 34 t b f;
#X obj 304 34 t b f;
#X obj 432 34 t b f;
#X obj 304 -12 inlet;
#X obj 347 -13 inlet;
#X obj 389 -13 inlet;
#X obj 432 -13 inlet;
#X obj 476 -12 inlet;
#X obj 476 34 t b f;
#X obj 517 -12 inlet;
#X obj 517 34 t b f;
#X obj 645 34 t b f;
#X obj 603 34 t b f;
#X obj 560 34 t b f;
#X obj 688 34 t b f;
#X obj 560 -12 inlet;
#X obj 603 -13 inlet;
#X obj 645 -13 inlet;
#X obj 688 -13 inlet;
#X obj 732 -12 inlet;
#X obj 732 34 t b f;
#X connect 0 0 2 0;
#X connect 0 1 12 2;
#X connect 1 0 2 0;
#X connect 1 1 12 1;
#X connect 2 0 11 0;
#X connect 3 0 2 0;
#X connect 3 1 11 1;
#X connect 4 0 2 0;
#X connect 4 1 12 3;
#X connect 5 0 3 0;
#X connect 6 0 1 0;
#X connect 7 0 0 0;
#X connect 8 0 4 0;
#X connect 9 0 13 0;
#X connect 11 0 12 0;
#X connect 12 0 10 0;
#X connect 13 0 2 0;
#X connect 13 1 12 4;
#X connect 14 0 2 0;
#X connect 14 1 12 7;
#X connect 15 0 2 0;
#X connect 15 1 12 6;
#X connect 16 0 2 0;
#X connect 16 1 12 5;
#X connect 17 0 2 0;
#X connect 17 1 12 8;
#X connect 18 0 16 0;
#X connect 19 0 15 0;
#X connect 20 0 14 0;
#X connect 21 0 17 0;
#X connect 22 0 23 0;
#X connect 23 0 2 0;
#X connect 23 1 12 9;
#X connect 24 0 25 0;
#X connect 25 0 2 0;
#X connect 25 1 12 10;
#X connect 26 0 2 0;
#X connect 26 1 12 13;
#X connect 27 0 2 0;
#X connect 27 1 12 12;
#X connect 28 0 2 0;
#X connect 28 1 12 11;
#X connect 29 0 2 0;
#X connect 29 1 12 14;
#X connect 30 0 28 0;
#X connect 31 0 27 0;
#X connect 32 0 26 0;
#X connect 33 0 29 0;
#X connect 34 0 35 0;
#X connect 35 0 2 0;
#X connect 35 1 12 15;
#X restore 241 314 pd bang_once.......................................
;
#X obj 308 472 list trim;
#X msg 228 470 addcomma;
#X msg 164 443 set;
#X obj 308 449 list prepend add2;
#X obj 240 334 t a b;
#X obj 308 557 outlet;
#X obj 262 425 t b a;
#X obj 129 47 r \$0-speakerposition-1;
#X obj 129 68 unpack;
#X obj 162 89 * 2;
#X obj 162 110 - 1;
#X obj 129 88 * 2;
#X obj 129 109 - 1;
#X obj 195 89 unpack;
#X obj 228 110 * 2;
#X obj 228 131 - 1;
#X obj 195 109 * 2;
#X obj 195 130 - 1;
#X obj 263 110 unpack;
#X obj 296 131 * 2;
#X obj 296 152 - 1;
#X obj 263 130 * 2;
#X obj 263 151 - 1;
#X obj 333 133 unpack;
#X obj 366 154 * 2;
#X obj 366 175 - 1;
#X obj 333 153 * 2;
#X obj 333 174 - 1;
#X obj 399 154 unpack;
#X obj 432 175 * 2;
#X obj 432 196 - 1;
#X obj 399 174 * 2;
#X obj 399 195 - 1;
#X obj 467 175 unpack;
#X obj 500 196 * 2;
#X obj 500 217 - 1;
#X obj 467 195 * 2;
#X obj 467 216 - 1;
#X obj 535 197 unpack;
#X obj 568 218 * 2;
#X obj 568 239 - 1;
#X obj 535 217 * 2;
#X obj 535 238 - 1;
#X obj 603 218 unpack;
#X obj 636 239 * 2;
#X obj 636 260 - 1;
#X obj 603 238 * 2;
#X obj 603 259 - 1;
#X msg 262 364 speaker-1 \$1 \$2 \, speaker-2 \$3 \$4 \, speaker-3
\$5 \$6 \, speaker-4 \$7 \$8 \, speaker-5 \$9 \$10 \, speaker-6 \$11
\$12 \, speaker-7 \$13 \$14 \, speaker-8 \$15 \$16;
#X obj 195 68 r \$0-speakerposition-2;
#X obj 263 89 r \$0-speakerposition-3;
#X obj 333 112 r \$0-speakerposition-4;
#X obj 399 133 r \$0-speakerposition-5;
#X obj 467 154 r \$0-speakerposition-6;
#X obj 535 176 r \$0-speakerposition-7;
#X obj 603 197 r \$0-speakerposition-8;
#X connect 0 0 5 0;
#X connect 1 0 6 0;
#X connect 2 0 6 0;
#X connect 3 0 6 0;
#X connect 4 0 1 0;
#X connect 5 0 49 0;
#X connect 5 1 3 0;
#X connect 7 0 2 0;
#X connect 7 1 4 0;
#X connect 8 0 9 0;
#X connect 9 0 12 0;
#X connect 9 1 10 0;
#X connect 10 0 11 0;
#X connect 11 0 0 1;
#X connect 12 0 13 0;
#X connect 13 0 0 0;
#X connect 14 0 17 0;
#X connect 14 1 15 0;
#X connect 15 0 16 0;
#X connect 16 0 0 3;
#X connect 17 0 18 0;
#X connect 18 0 0 2;
#X connect 19 0 22 0;
#X connect 19 1 20 0;
#X connect 20 0 21 0;
#X connect 21 0 0 5;
#X connect 22 0 23 0;
#X connect 23 0 0 4;
#X connect 24 0 27 0;
#X connect 24 1 25 0;
#X connect 25 0 26 0;
#X connect 26 0 0 7;
#X connect 27 0 28 0;
#X connect 28 0 0 6;
#X connect 29 0 32 0;
#X connect 29 1 30 0;
#X connect 30 0 31 0;
#X connect 31 0 0 9;
#X connect 32 0 33 0;
#X connect 33 0 0 8;
#X connect 34 0 37 0;
#X connect 34 1 35 0;
#X connect 35 0 36 0;
#X connect 36 0 0 11;
#X connect 37 0 38 0;
#X connect 38 0 0 10;
#X connect 39 0 42 0;
#X connect 39 1 40 0;
#X connect 40 0 41 0;
#X connect 41 0 0 13;
#X connect 42 0 43 0;
#X connect 43 0 0 12;
#X connect 44 0 47 0;
#X connect 44 1 45 0;
#X connect 45 0 46 0;
#X connect 46 0 0 15;
#X connect 47 0 48 0;
#X connect 48 0 0 14;
#X connect 49 0 7 0;
#X connect 50 0 14 0;
#X connect 51 0 19 0;
#X connect 52 0 24 0;
#X connect 53 0 29 0;
#X connect 54 0 34 0;
#X connect 55 0 39 0;
#X connect 56 0 44 0;
#X restore 922 387 pd outlet-message;
#X obj 273 73 inlet~ src;
#X obj 103 115 hsl 150 15 0 127 0 0 \$0-visbng \$0-visbngr empty 50
8 2 10 -233017 -233017 -1 0 1;
#X obj 778 96 *~ 0.5;
#X obj 778 117 +~ 0.5;
#X obj 777 76 *~ -1;
#X text 948 476 philipp schmalfuß \, 2018;
#X text 951 476 philipp schmalfuß \, 2018;
#X connect 1 0 27 0;
#X connect 2 0 1 0;
#X connect 3 0 27 1;
#X connect 4 0 3 0;
#X connect 5 0 2 0;
#X connect 6 0 4 0;
#X connect 7 0 0 0;
#X connect 9 0 8 0;
#X connect 11 0 10 0;
#X connect 13 0 12 0;
#X connect 15 0 14 0;
#X connect 17 0 16 0;
#X connect 19 0 18 0;
#X connect 21 0 20 0;
#X connect 22 0 36 0;
#X connect 24 0 25 0;
#X connect 27 0 7 1;
#X connect 27 0 26 0;
#X connect 27 1 9 1;
#X connect 27 1 26 1;
#X connect 27 2 11 1;
#X connect 27 2 26 2;
#X connect 27 3 13 1;
#X connect 27 3 26 3;
#X connect 27 4 15 1;
#X connect 27 4 26 4;
#X connect 27 5 17 1;
#X connect 27 5 26 5;
#X connect 27 6 19 1;
#X connect 27 6 26 6;
#X connect 27 7 21 1;
#X connect 27 7 26 7;
#X connect 30 0 29 0;
#X connect 30 1 29 0;
#X connect 31 0 30 0;
#X connect 32 0 7 0;
#X connect 32 0 9 0;
#X connect 32 0 11 0;
#X connect 32 0 13 0;
#X connect 32 0 15 0;
#X connect 32 0 17 0;
#X connect 32 0 19 0;
#X connect 32 0 21 0;
#X connect 34 0 35 0;
#X connect 35 0 27 2;
#X connect 36 0 34 0;
#X coords 0 -1 1 1 155 33 1 100 100;
