#N canvas 493 384 695 225 10;
#X declare -path ..;
#X obj 397 168 pp.out~;
#X obj 3 2 cnv 15 380 220 empty empty empty 20 12 0 14 -233017 -66577
0;
#X obj 397 50 pp.filter~;
#N canvas 3 50 450 300 msg 0;
#X obj 162 43 inlet;
#X msg 162 64 lowpass \, frequency 400 \, q -3 \, bandwitdth 1 \, gain
0 \,;
#X obj 162 140 outlet;
#X connect 0 0 1 0;
#X connect 1 0 2 0;
#X restore 602 95 pd msg;
#X obj 397 19 noise~;
#X obj 454 121 pp.filter~;
#X obj 455 94 noise~;
#X text 556 66 <-- click to open GUI;
#X text 10 33 Pass on parameter changes from one instance of an abstraction
to another.;
#X text 9 66 It is good patching practice to hide message boxes with
changing contents in a subpatch \, like [pd msg].;
#X text 12 203 Philipp Schmalfuß \, 2018;
#X obj 278 5 declare -path ..;
#X connect 2 0 0 0;
#X connect 2 1 3 0;
#X connect 3 0 5 1;
#X connect 4 0 2 0;
#X connect 5 0 0 1;
#X connect 6 0 5 0;
