#N canvas 188 49 791 555 10;
#X declare -path ./audio;
#X declare -path ..;
#X obj 2 2 cnv 15 380 550 empty empty empty 20 12 0 14 -233017 -66577
0;
#X obj 18 175 hsl 200 15 0.1 10 1 0 \$0-speed \$0-speedr Speed -2 -8
2 12 -262144 -1 -1 3960 1;
#X obj 18 137 hsl 200 15 1 100 0 0 \$0-volume \$0-volumer Volume -2
-8 2 12 -262144 -1 -1 0 1;
#X obj 18 212 hsl 200 15 0 5 0 0 \$0-distance \$0-distancer Distance
-2 -8 2 12 -262144 -1 -1 3980 1;
#N canvas 67 368 450 300 init 0;
#X obj 164 32 loadbang;
#X obj 164 53 f \$0;
#X obj 233 31 bng 15 250 50 0 empty empty empty 17 7 0 10 -262144 -1
-1;
#X msg 70 61 \; pd dsp 1;
#X msg 164 74 \; \$1-speedr 0.25 \; \$1-distancer 1;
#X connect 0 0 1 0;
#X connect 0 0 3 0;
#X connect 1 0 4 0;
#X connect 2 0 1 0;
#X restore 17 11 pd init;
#X obj 15 241 hradio 15 1 0 2 \$0-switch \$0-switchr Noise/Sample 35
8 2 12 -262144 -1 -1 0;
#X obj 401 499 pp.out~;
#X obj 400 319 pp.doppler~;
#X obj 671 302 *~ 1;
#X obj 672 148 phasor~ 0.25;
#X obj 473 201 cos~;
#X obj 672 200 cos~;
#X floatatom 672 127 5 0 0 0 - - -, f 5;
#X obj 672 179 +~ 0.25;
#X obj 517 29 pp.sfplayer~;
#X obj 399 386 pp.doppler~;
#X obj 400 32 noise~;
#X obj 400 433 pp.pan~;
#X obj 672 105 r \$0-speed;
#X obj 474 287 +~ 1;
#X obj 474 266 *~ 1;
#X floatatom 692 237 5 0 0 0 - - -, f 5;
#X obj 691 219 r \$0-distance;
#X obj 527 496 r \$0-volume;
#X msg 527 517 volume \$1;
#N canvas 3 50 450 300 init 0;
#X obj 251 89 loadbang;
#X msg 251 110 damping 100;
#X obj 251 131 outlet;
#X connect 0 0 1 0;
#X connect 1 0 2 0;
#X restore 548 299 pd init;
#N canvas 3 50 450 300 init 0;
#X obj 251 89 loadbang;
#X msg 251 110 damping 100;
#X obj 251 131 outlet;
#X connect 0 0 1 0;
#X connect 1 0 2 0;
#X restore 547 367 pd init;
#X obj 421 59 r \$0-switch;
#X obj 421 118 == 0;
#X obj 400 137 *~ 1;
#X obj 503 110 *~;
#N canvas 3 50 450 300 init 0;
#X obj 90 67 loadbang;
#X obj 90 118 outlet;
#X msg 90 88 open Tambourine-shake.wav \, play 1 \, playback-speed
100 \, position 0 \, position% 0 \, loop 1 \, normalize 0 \,;
#X connect 0 0 2 0;
#X connect 2 0 1 0;
#X restore 690 9 pd init;
#X obj 248 25 declare -path ./audio;
#X text 13 74 This example shows how to combine two doppler modules
to emulate circular movement of a sound source in front of the observer
;
#X text 8 533 Philipp Schmalfuß \, 2018;
#X obj 278 5 declare -path ..;
#X connect 7 0 15 0;
#X connect 8 0 15 1;
#X connect 9 0 10 0;
#X connect 9 0 13 0;
#X connect 10 0 20 0;
#X connect 11 0 8 0;
#X connect 12 0 9 0;
#X connect 13 0 11 0;
#X connect 14 0 30 1;
#X connect 15 0 17 0;
#X connect 15 1 17 1;
#X connect 16 0 29 0;
#X connect 17 0 6 0;
#X connect 17 1 6 1;
#X connect 18 0 12 0;
#X connect 19 0 7 1;
#X connect 20 0 19 0;
#X connect 21 0 20 1;
#X connect 21 0 19 1;
#X connect 21 0 8 1;
#X connect 22 0 21 0;
#X connect 23 0 24 0;
#X connect 24 0 6 2;
#X connect 25 0 7 2;
#X connect 26 0 15 2;
#X connect 27 0 28 0;
#X connect 27 0 30 0;
#X connect 28 0 29 1;
#X connect 29 0 7 0;
#X connect 30 0 7 0;
#X connect 31 0 14 3;
