#N struct 1198-template float x float y float c float s float th float
stretch array 1198-plus 1198-template-y array 1198-minus 1198-template-y
;
#N struct 1198-template-y float y;
#N struct 1199-template float x float y float c float s float th float
stretch array 1199-plus 1199-template-y array 1199-minus 1199-template-y
;
#N struct 1199-template-y float y;
#N canvas 215 49 1069 716 10;
#X declare -path ./audio;
#X declare -path ..;
#X obj 402 471 pp.pan~;
#X obj 402 580 pp.fft-partconv-st~ 4096;
#X obj 726 552 *~;
#X obj 662 552 *~;
#X obj 662 586 pp.fft-block-st~ 4096;
#X msg 575 497 dry/wet \$1;
#X obj 402 66 pp.sfplayer~;
#X obj 575 457 r \$0-room;
#X obj 490 127 pp.lfnoise~;
#X obj 491 228 *~;
#X obj 473 374 *~;
#X obj 474 399 *~;
#X obj 490 165 *~ 0.5;
#X obj 490 186 +~ 0.5;
#X obj 401 258 pp.doppler~;
#X obj 535 208 r \$0-max-distance;
#X obj 502 357 r \$0-max-distance;
#X msg 682 112 frequency \$1;
#X obj 683 74 r \$0-speed;
#X floatatom 683 95 5 0 0 0 - - -, f 5;
#X floatatom 535 227 5 0 0 0 - - -, f 5;
#X floatatom 502 375 5 0 0 0 - - -, f 5;
#X obj 742 341 expr~ 1-$v1;
#N canvas 3 50 450 300 init 0;
#X obj 117 109 outlet;
#X obj 117 63 loadbang;
#X msg 117 88 damping 200;
#X connect 1 0 2 0;
#X connect 2 0 0 0;
#X restore 563 257 pd init;
#N canvas 3 50 450 300 init 0;
#X msg 117 88 damping 100;
#X obj 117 109 outlet;
#X obj 117 63 loadbang;
#X connect 0 0 1 0;
#X connect 2 0 0 0;
#X restore 549 407 pd init;
#N canvas 3 50 450 300 init 0;
#X obj 117 109 outlet;
#X obj 117 63 loadbang;
#X msg 117 88 loadIR IR-Reaktorhall.wav;
#X connect 1 0 2 0;
#X connect 2 0 0 0;
#X restore 587 581 pd init;
#X floatatom 575 478 5 0 0 0 - - -, f 5;
#X obj 403 661 pp.out~;
#N canvas 3 50 450 300 init 0;
#X obj 117 109 outlet;
#X obj 117 63 loadbang;
#X msg 117 88 smooth 100;
#X connect 1 0 2 0;
#X connect 2 0 0 0;
#X restore 577 325 pd init;
#N canvas 3 50 450 300 init 0;
#X obj 117 109 outlet;
#X obj 117 63 loadbang;
#X msg 117 88 smooth 100;
#X connect 1 0 2 0;
#X connect 2 0 0 0;
#X restore 583 105 pd init;
#X obj 577 3 r \$0-sample;
#X obj 577 23 symbol;
#X msg 577 44 open \$1 \, loop 1 \, play 1;
#X text 626 266 Front-back doppler;
#X obj 529 659 r \$0-volume;
#X msg 529 680 volume \$1;
#X obj 4 0 cnv 15 380 700 empty empty empty 20 12 0 14 -233017 -66577
0;
#X obj 20 225 hsl 200 15 0 30 0 0 \$0-max-distance \$0-max-distancer
Max.Distance -2 -8 2 12 -262144 -1 -1 13267 1;
#X obj 19 295 hsl 200 15 0 100 0 0 \$0-room \$0-roomr Room-Presence
-2 -8 2 12 -262144 -1 -1 19900 1;
#X obj 19 260 hsl 200 15 0.1 10 1 0 \$0-speed \$0-speedr Movement-speed
-2 -8 2 12 -262144 -1 -1 5990 1;
#X obj 16 316 tgl 15 0 \$0-bypass \$0-bypassr Bypass 17 7 2 12 -262144
-1 -1 0 1;
#X msg 18 384 Trumpet.wav;
#X msg 18 362 Tambourine-shake.wav;
#X obj 18 406 s \$0-sample;
#N canvas 715 199 450 300 init 0;
#X obj 177 48 loadbang;
#X msg 89 81 \; pd dsp 1;
#X obj 177 109 f \$0;
#X obj 190 74 bng 15 250 50 0 empty empty empty 17 7 0 10 -262144 -1
-1;
#X msg 177 130 \; \$1-roomr 90 \; \$1-max-distancer 20 \; \$1-speedr
0.4 \;;
#X connect 0 0 1 0;
#X connect 0 0 2 0;
#X connect 2 0 4 0;
#X connect 3 0 2 0;
#X restore 11 8 pd init;
#X obj 20 190 hsl 200 15 1 100 0 0 \$0-volume \$0-volumer Volume -2
-8 2 12 -262144 -1 -1 19900 1;
#X obj 474 320 pp.lfnoise~;
#X obj 401 427 pp.doppler~;
#X obj 248 25 declare -path ./audio;
#X obj 855 667 pp.out~;
#X obj 412 104 s~ \$0-bp;
#X obj 854 612 r~ \$0-bp;
#X obj 854 637 *~;
#X obj 414 170 r \$0-bypass;
#X obj 401 212 *~ 1;
#X obj 982 663 r \$0-volume;
#X msg 982 684 volume \$1;
#X obj 882 636 r \$0-bypass;
#N canvas 3 50 450 300 init 0;
#X obj 117 109 outlet;
#X obj 117 63 loadbang;
#X msg 117 88 open Trumpet.wav \, loop 1 \, play 1;
#X connect 1 0 2 0;
#X connect 2 0 0 0;
#X restore 587 67 pd init;
#X text 599 433 Left-right doppler;
#X text 670 157 Random signal generater \, normalized to 0-1 and raised
to the 4th power. This gives a preference for movements in front of
the listener.;
#X obj 490 207 pow~ 4;
#X obj 414 191 == 0;
#X text 11 60 Emulation of a sound source that moves on an arbitrary
path in a room in front of the listener.;
#X text 16 342 load a sound source;
#X obj 17 548 s \$0-IR;
#X obj 583 556 r \$0-IR;
#X msg 17 479 loadIR IR-living_room_2.wav;
#X msg 17 458 loadIR IR-living_room_1.wav;
#X text 16 679 Philipp Schmalfuß \, 2018;
#X obj 278 5 declare -path ..;
#X text 15 439 load a reverb impulse response;
#X msg 17 520 loadIR IR-Reaktorhall.wav;
#X msg 17 499 loadIR IR-terrys_typing.wav;
#X text 16 596 Impulse responses are from Openair: http://www.openairlib.net
;
#X connect 0 0 1 0;
#X connect 0 0 3 0;
#X connect 0 1 1 1;
#X connect 0 1 2 0;
#X connect 1 0 27 0;
#X connect 1 1 27 1;
#X connect 2 0 4 1;
#X connect 3 0 4 0;
#X connect 4 0 27 0;
#X connect 4 1 27 1;
#X connect 5 0 1 3;
#X connect 6 0 50 0;
#X connect 6 0 54 0;
#X connect 7 0 26 0;
#X connect 8 0 12 0;
#X connect 9 0 14 1;
#X connect 10 0 11 0;
#X connect 11 0 47 1;
#X connect 12 0 13 0;
#X connect 13 0 61 0;
#X connect 14 0 47 0;
#X connect 14 1 22 0;
#X connect 15 0 20 0;
#X connect 16 0 21 0;
#X connect 17 0 8 1;
#X connect 17 0 46 1;
#X connect 18 0 19 0;
#X connect 19 0 17 0;
#X connect 20 0 9 1;
#X connect 21 0 10 1;
#X connect 22 0 3 1;
#X connect 22 0 2 1;
#X connect 22 0 11 1;
#X connect 23 0 14 2;
#X connect 24 0 47 2;
#X connect 25 0 1 3;
#X connect 26 0 5 0;
#X connect 28 0 46 1;
#X connect 29 0 8 1;
#X connect 30 0 31 0;
#X connect 31 0 32 0;
#X connect 32 0 6 3;
#X connect 34 0 35 0;
#X connect 35 0 27 2;
#X connect 41 0 43 0;
#X connect 42 0 43 0;
#X connect 46 0 10 0;
#X connect 47 0 0 0;
#X connect 47 1 0 1;
#X connect 51 0 52 0;
#X connect 52 0 49 0;
#X connect 52 0 49 1;
#X connect 53 0 62 0;
#X connect 54 0 14 0;
#X connect 55 0 56 0;
#X connect 56 0 49 2;
#X connect 57 0 52 1;
#X connect 58 0 6 3;
#X connect 61 0 9 0;
#X connect 62 0 54 1;
#X connect 66 0 1 3;
#X connect 67 0 65 0;
#X connect 68 0 65 0;
#X connect 72 0 65 0;
#X connect 73 0 65 0;
